  0
SECTION
  2
HEADER
  9
$ACADVER
  1
AC1024
  9
$ACADMAINTVER
 70
     6
  9
$DWGCODEPAGE
  3
UNDEFINED
  9
$INSBASE
 10
0.0
 20
0.0
 30
0.0
  9
$EXTMIN
 10
1.000000000000000E+20
 20
1.000000000000000E+20
 30
1.000000000000000E+20
  9
$EXTMAX
 10
-1.000000000000000E+20
 20
-1.000000000000000E+20
 30
-1.000000000000000E+20
  9
$LIMMIN
 10
0.0
 20
0.0
  9
$LIMMAX
 10
12.0
 20
9.0
  9
$ORTHOMODE
 70
     0
  9
$REGENMODE
 70
     1
  9
$FILLMODE
 70
     1
  9
$QTEXTMODE
 70
     0
  9
$MIRRTEXT
 70
     1
  9
$LTSCALE
 40
1.0
  9
$ATTMODE
 70
     1
  9
$TEXTSIZE
 40
0.2
  9
$TRACEWID
 40
0.05
  9
$TEXTSTYLE
  7
Standard
  9
$CLAYER
  8
0
  9
$CELTYPE
  6
ByLayer
  9
$CECOLOR
 62
   256
  9
$CELTSCALE
 40
1.0
  9
$DISPSILH
 70
     0
  9
$DIMSCALE
 40
1.0
  9
$DIMASZ
 40
0.18
  9
$DIMEXO
 40
0.0625
  9
$DIMDLI
 40
0.38
  9
$DIMRND
 40
0.0
  9
$DIMDLE
 40
0.0
  9
$DIMEXE
 40
0.18
  9
$DIMTP
 40
0.0
  9
$DIMTM
 40
0.0
  9
$DIMTXT
 40
0.18
  9
$DIMCEN
 40
0.09
  9
$DIMTSZ
 40
0.0
  9
$DIMTOL
 70
     0
  9
$DIMLIM
 70
     0
  9
$DIMTIH
 70
     1
  9
$DIMTOH
 70
     1
  9
$DIMSE1
 70
     0
  9
$DIMSE2
 70
     0
  9
$DIMTAD
 70
     0
  9
$DIMZIN
 70
     0
  9
$DIMBLK
  1

  9
$DIMASO
 70
     1
  9
$DIMSHO
 70
     1
  9
$DIMPOST
  1

  9
$DIMAPOST
  1

  9
$DIMALT
 70
     0
  9
$DIMALTD
 70
     2
  9
$DIMALTF
 40
25.4
  9
$DIMLFAC
 40
1.0
  9
$DIMTOFL
 70
     0
  9
$DIMTVP
 40
0.0
  9
$DIMTIX
 70
     0
  9
$DIMSOXD
 70
     0
  9
$DIMSAH
 70
     0
  9
$DIMBLK1
  1

  9
$DIMBLK2
  1

  9
$DIMSTYLE
  2
Standard
  9
$DIMCLRD
 70
     0
  9
$DIMCLRE
 70
     0
  9
$DIMCLRT
 70
     0
  9
$DIMTFAC
 40
1.0
  9
$DIMGAP
 40
0.09
  9
$DIMJUST
 70
     0
  9
$DIMSD1
 70
     0
  9
$DIMSD2
 70
     0
  9
$DIMTOLJ
 70
     1
  9
$DIMTZIN
 70
     0
  9
$DIMALTZ
 70
     0
  9
$DIMALTTZ
 70
     0
  9
$DIMUPT
 70
     0
  9
$DIMDEC
 70
     4
  9
$DIMTDEC
 70
     4
  9
$DIMALTU
 70
     2
  9
$DIMALTTD
 70
     2
  9
$DIMTXSTY
  7
Standard
  9
$DIMAUNIT
 70
     0
  9
$DIMADEC
 70
     0
  9
$DIMALTRND
 40
0.0
  9
$DIMAZIN
 70
     0
  9
$DIMDSEP
 70
    46
  9
$DIMATFIT
 70
     3
  9
$DIMFRAC
 70
     0
  9
$DIMLDRBLK
  1

  9
$DIMLUNIT
 70
     2
  9
$DIMLWD
 70
    -2
  9
$DIMLWE
 70
    -2
  9
$DIMTMOVE
 70
     0
  9
$DIMFXL
 40
1.0
  9
$DIMFXLON
 70
     0
  9
$DIMJOGANG
 40
0.7853981633974483
  9
$DIMTFILL
 70
     0
  9
$DIMTFILLCLR
 70
     0
  9
$DIMARCSYM
 70
     0
  9
$DIMLTYPE
  6

  9
$DIMLTEX1
  6

  9
$DIMLTEX2
  6

  9
$DIMTXTDIRECTION
 70
     0
  9
$LUNITS
 70
     2
  9
$LUPREC
 70
     4
  9
$SKETCHINC
 40
0.1
  9
$FILLETRAD
 40
0.5
  9
$AUNITS
 70
     0
  9
$AUPREC
 70
     0
  9
$MENU
  1
.
  9
$ELEVATION
 40
0.0
  9
$PELEVATION
 40
0.0
  9
$THICKNESS
 40
0.0
  9
$LIMCHECK
 70
     0
  9
$CHAMFERA
 40
0.5
  9
$CHAMFERB
 40
0.5
  9
$CHAMFERC
 40
1.0
  9
$CHAMFERD
 40
0.0
  9
$SKPOLY
 70
     0
  9
$TDCREATE
 40
2460009.57366897
  9
$TDUCREATE
 40
2460009.907002315
  9
$TDUPDATE
 40
2460009.573680544
  9
$TDUUPDATE
 40
2460009.907013889
  9
$TDINDWG
 40
0.0000000116
  9
$TDUSRTIMER
 40
0.0000000116
  9
$USRTIMER
 70
     1
  9
$ANGBASE
 50
0.0
  9
$ANGDIR
 70
     0
  9
$PDMODE
 70
     0
  9
$PDSIZE
 40
0.0
  9
$PLINEWID
 40
0.0
  9
$SPLFRAME
 70
     0
  9
$SPLINETYPE
 70
     6
  9
$SPLINESEGS
 70
     8
  9
$HANDSEED
  5
B1
  9
$SURFTAB1
 70
     6
  9
$SURFTAB2
 70
     6
  9
$SURFTYPE
 70
     6
  9
$SURFU
 70
     6
  9
$SURFV
 70
     6
  9
$UCSBASE
  2

  9
$UCSNAME
  2

  9
$UCSORG
 10
0.0
 20
0.0
 30
0.0
  9
$UCSXDIR
 10
1.0
 20
0.0
 30
0.0
  9
$UCSYDIR
 10
0.0
 20
1.0
 30
0.0
  9
$UCSORTHOREF
  2

  9
$UCSORTHOVIEW
 70
     0
  9
$UCSORGTOP
 10
0.0
 20
0.0
 30
0.0
  9
$UCSORGBOTTOM
 10
0.0
 20
0.0
 30
0.0
  9
$UCSORGLEFT
 10
0.0
 20
0.0
 30
0.0
  9
$UCSORGRIGHT
 10
0.0
 20
0.0
 30
0.0
  9
$UCSORGFRONT
 10
0.0
 20
0.0
 30
0.0
  9
$UCSORGBACK
 10
0.0
 20
0.0
 30
0.0
  9
$PUCSBASE
  2

  9
$PUCSNAME
  2

  9
$PUCSORG
 10
0.0
 20
0.0
 30
0.0
  9
$PUCSXDIR
 10
1.0
 20
0.0
 30
0.0
  9
$PUCSYDIR
 10
0.0
 20
1.0
 30
0.0
  9
$PUCSORTHOREF
  2

  9
$PUCSORTHOVIEW
 70
     0
  9
$PUCSORGTOP
 10
0.0
 20
0.0
 30
0.0
  9
$PUCSORGBOTTOM
 10
0.0
 20
0.0
 30
0.0
  9
$PUCSORGLEFT
 10
0.0
 20
0.0
 30
0.0
  9
$PUCSORGRIGHT
 10
0.0
 20
0.0
 30
0.0
  9
$PUCSORGFRONT
 10
0.0
 20
0.0
 30
0.0
  9
$PUCSORGBACK
 10
0.0
 20
0.0
 30
0.0
  9
$USERI1
 70
     0
  9
$USERI2
 70
     0
  9
$USERI3
 70
     0
  9
$USERI4
 70
     0
  9
$USERI5
 70
     0
  9
$USERR1
 40
0.0
  9
$USERR2
 40
0.0
  9
$USERR3
 40
0.0
  9
$USERR4
 40
0.0
  9
$USERR5
 40
0.0
  9
$WORLDVIEW
 70
     1
  9
$SHADEDGE
 70
     3
  9
$SHADEDIF
 70
    70
  9
$TILEMODE
 70
     1
  9
$MAXACTVP
 70
    64
  9
$PINSBASE
 10
0.0
 20
0.0
 30
0.0
  9
$PLIMCHECK
 70
     0
  9
$PEXTMIN
 10
1.000000000000000E+20
 20
1.000000000000000E+20
 30
1.000000000000000E+20
  9
$PEXTMAX
 10
-1.000000000000000E+20
 20
-1.000000000000000E+20
 30
-1.000000000000000E+20
  9
$PLIMMIN
 10
0.0
 20
0.0
  9
$PLIMMAX
 10
12.0
 20
9.0
  9
$UNITMODE
 70
     0
  9
$VISRETAIN
 70
     1
  9
$PLINEGEN
 70
     0
  9
$PSLTSCALE
 70
     1
  9
$TREEDEPTH
 70
  3020
  9
$CMLSTYLE
  2
Standard
  9
$CMLJUST
 70
     0
  9
$CMLSCALE
 40
1.0
  9
$PROXYGRAPHICS
 70
     1
  9
$MEASUREMENT
 70
     0
  9
$CELWEIGHT
370
    -1
  9
$ENDCAPS
280
     0
  9
$JOINSTYLE
280
     0
  9
$LWDISPLAY
290
     1
  9
$INSUNITS
 70
     4
  9
$HYPERLINKBASE
  1

  9
$STYLESHEET
  1

  9
$XEDIT
290
     1
  9
$CEPSNTYPE
380
     0
  9
$PSTYLEMODE
290
     1
  9
$FINGERPRINTGUID
  2
{228AB38D-2704-C77D-9CC2-80A3C37567DC}
  9
$VERSIONGUID
  2
{FAEB1C32-E019-11D5-929B-00C0DF256EC4}
  9
$EXTNAMES
290
     1
  9
$PSVPSCALE
 40
0.0
  9
$OLESTARTUP
290
     0
  9
$SORTENTS
280
   127
  9
$INDEXCTL
280
     0
  9
$HIDETEXT
280
     1
  9
$XCLIPFRAME
280
     2
  9
$HALOGAP
280
     0
  9
$OBSCOLOR
 70
   257
  9
$OBSLTYPE
280
     0
  9
$INTERSECTIONDISPLAY
280
     0
  9
$INTERSECTIONCOLOR
 70
   257
  9
$DIMASSOC
280
     2
  9
$PROJECTNAME
  1

  9
$CAMERADISPLAY
290
     0
  9
$LENSLENGTH
 40
50.0
  9
$CAMERAHEIGHT
 40
0.0
  9
$STEPSPERSEC
 40
2.0
  9
$STEPSIZE
 40
6.0
  9
$3DDWFPREC
 40
2.0
  9
$PSOLWIDTH
 40
0.25
  9
$PSOLHEIGHT
 40
4.0
  9
$LOFTANG1
 40
1.570796326794897
  9
$LOFTANG2
 40
1.570796326794897
  9
$LOFTMAG1
 40
0.0
  9
$LOFTMAG2
 40
0.0
  9
$LOFTPARAM
 70
     7
  9
$LOFTNORMALS
280
     1
  9
$LATITUDE
 40
37.795
  9
$LONGITUDE
 40
-122.394
  9
$NORTHDIRECTION
 40
0.0
  9
$TIMEZONE
 70
 -8000
  9
$LIGHTGLYPHDISPLAY
280
     1
  9
$TILEMODELIGHTSYNCH
280
     1
  9
$CMATERIAL
347
3C
  9
$SOLIDHIST
280
     1
  9
$SHOWHIST
280
     1
  9
$DWFFRAME
280
     2
  9
$DGNFRAME
280
     2
  9
$REALWORLDSCALE
290
     1
  9
$INTERFERECOLOR
 62
   256
  9
$CSHADOW
280
     0
  9
$SHADOWPLANELOCATION
 40
0.0
  0
ENDSEC
  0
SECTION
  2
CLASSES
  0
CLASS
  1
ACDBDICTIONARYWDFLT
  2
AcDbDictionaryWithDefault
  3
ObjectDBX Classes
 90
        0
 91
        4
280
     0
281
     0
  0
CLASS
  1
VISUALSTYLE
  2
AcDbVisualStyle
  3
ObjectDBX Classes
 90
     4095
 91
        4
280
     0
281
     0
  0
CLASS
  1
MATERIAL
  2
AcDbMaterial
  3
ObjectDBX Classes
 90
     1153
 91
        4
280
     0
281
     0
  0
CLASS
  1
SUN
  2
AcDbSun
  3
SCENEOE
 90
     1024
 91
        4
280
     0
281
     0
  0
ENDSEC
  0
SECTION
  2
TABLES
  0
TABLE
  2
VPORT
  5
8
330
0
100
AcDbSymbolTable
 70
     1
  0
VPORT
  5
29
330
8
100
AcDbSymbolTableRecord
100
AcDbViewportTableRecord
  2
*Active
 70
     0
 10
0.0
 20
0.0
 11
1.0
 21
1.0
 12
0.0
 22
0.0
 13
0.0
 23
0.0
 14
0.5
 24
0.5
 15
0.5
 25
0.5
 16
0.0
 26
0.0
 36
1.0
 17
47.49999998812896
 27
80.99999997975051
 37
0.0
 40
161.999999959501
 41
0.586419753086465
 42
50.0
 43
0.0
 44
0.0
 50
0.0
 51
0.0
 71
     0
 72
   100
 73
     1
 74
     3
 75
     0
 76
     0
 77
     0
 78
     0
281
     0
 65
     1
110
0.0
120
0.0
130
0.0
111
1.0
121
0.0
131
0.0
112
0.0
122
1.0
132
0.0
 79
     0
146
0.0
 60
     3
 61
     5
292
     1
282
     1
141
0.0
142
0.0
 63
   250
361
3F
  0
ENDTAB
  0
TABLE
  2
LTYPE
  5
5
330
0
100
AcDbSymbolTable
 70
     1
  0
LTYPE
  5
14
330
5
100
AcDbSymbolTableRecord
100
AcDbLinetypeTableRecord
  2
ByBlock
 70
     0
  3

 72
    65
 73
     0
 40
0.0
  0
LTYPE
  5
15
330
5
100
AcDbSymbolTableRecord
100
AcDbLinetypeTableRecord
  2
ByLayer
 70
     0
  3

 72
    65
 73
     0
 40
0.0
  0
LTYPE
  5
16
330
5
100
AcDbSymbolTableRecord
100
AcDbLinetypeTableRecord
  2
Continuous
 70
     0
  3
Solid line
 72
    65
 73
     0
 40
0.0
  0
ENDTAB
  0
TABLE
  2
LAYER
  5
2
330
0
100
AcDbSymbolTable
 70
     1
  0
LAYER
  5
10
330
2
100
AcDbSymbolTableRecord
100
AcDbLayerTableRecord
  2
0
 70
     0
 62
     7
  6
Continuous
370
    -3
390
F
347
3E
  0
ENDTAB
  0
TABLE
  2
STYLE
  5
3
330
0
100
AcDbSymbolTable
 70
     1
  0
STYLE
  5
11
330
3
100
AcDbSymbolTableRecord
100
AcDbTextStyleTableRecord
  2
Standard
 70
     0
 40
0.0
 41
1.0
 50
0.0
 71
     0
 42
0.2
  3
txt
  4

  0
ENDTAB
  0
TABLE
  2
VIEW
  5
6
330
0
100
AcDbSymbolTable
 70
     0
  0
ENDTAB
  0
TABLE
  2
UCS
  5
7
330
0
100
AcDbSymbolTable
 70
     0
  0
ENDTAB
  0
TABLE
  2
APPID
  5
9
330
0
100
AcDbSymbolTable
 70
     1
  0
APPID
  5
12
330
9
100
AcDbSymbolTableRecord
100
AcDbRegAppTableRecord
  2
ACAD
 70
     0
  0
ENDTAB
  0
TABLE
  2
DIMSTYLE
  5
A
330
0
100
AcDbSymbolTable
 70
     1
100
AcDbDimStyleTable
  0
DIMSTYLE
105
27
330
A
100
AcDbSymbolTableRecord
100
AcDbDimStyleTableRecord
  2
Standard
 70
     0
178
     0
340
11
  0
ENDTAB
  0
TABLE
  2
BLOCK_RECORD
  5
1
330
0
100
AcDbSymbolTable
 70
    12
  0
BLOCK_RECORD
  5
1F
330
1
100
AcDbSymbolTableRecord
100
AcDbBlockTableRecord
  2
*Model_Space
340
22
 70
     0
280
     1
281
     0
  0
BLOCK_RECORD
  5
1B
330
1
100
AcDbSymbolTableRecord
100
AcDbBlockTableRecord
  2
*Paper_Space
340
1E
 70
     0
280
     1
281
     0
  0
BLOCK_RECORD
  5
23
330
1
100
AcDbSymbolTableRecord
100
AcDbBlockTableRecord
  2
*Paper_Space0
340
26
 70
     0
280
     1
281
     0
  0
BLOCK_RECORD
  5
40
330
1
100
AcDbSymbolTableRecord
100
AcDbBlockTableRecord
  2
block 2
340
0
102
{BLKREFS
331
41
102
}
 70
     0
280
     1
281
     0
  0
BLOCK_RECORD
  5
44
330
1
100
AcDbSymbolTableRecord
100
AcDbBlockTableRecord
  2
block 3
340
0
102
{BLKREFS
331
45
102
}
 70
     0
280
     1
281
     0
  0
BLOCK_RECORD
  5
4A
330
1
100
AcDbSymbolTableRecord
100
AcDbBlockTableRecord
  2
block 4
340
0
102
{BLKREFS
331
4B
102
}
 70
     0
280
     1
281
     0
  0
BLOCK_RECORD
  5
50
330
1
100
AcDbSymbolTableRecord
100
AcDbBlockTableRecord
  2
block 5
340
0
102
{BLKREFS
331
51
102
}
 70
     0
280
     1
281
     0
  0
BLOCK_RECORD
  5
56
330
1
100
AcDbSymbolTableRecord
100
AcDbBlockTableRecord
  2
block 6
340
0
102
{BLKREFS
331
57
102
}
 70
     0
280
     1
281
     0
  0
BLOCK_RECORD
  5
5C
330
1
100
AcDbSymbolTableRecord
100
AcDbBlockTableRecord
  2
block 7
340
0
102
{BLKREFS
331
5D
102
}
 70
     0
280
     1
281
     0
  0
BLOCK_RECORD
  5
65
330
1
100
AcDbSymbolTableRecord
100
AcDbBlockTableRecord
  2
block 8
340
0
102
{BLKREFS
331
66
102
}
 70
     0
280
     1
281
     0
  0
BLOCK_RECORD
  5
77
330
1
100
AcDbSymbolTableRecord
100
AcDbBlockTableRecord
  2
block 9
340
0
102
{BLKREFS
331
78
102
}
 70
     0
280
     1
281
     0
  0
BLOCK_RECORD
  5
7D
330
1
100
AcDbSymbolTableRecord
100
AcDbBlockTableRecord
  2
block 10
340
0
102
{BLKREFS
331
7E
102
}
 70
     0
280
     1
281
     0
  0
BLOCK_RECORD
  5
83
330
1
100
AcDbSymbolTableRecord
100
AcDbBlockTableRecord
  2
block 11
340
0
102
{BLKREFS
331
84
102
}
 70
     0
280
     1
281
     0
  0
BLOCK_RECORD
  5
9B
330
1
100
AcDbSymbolTableRecord
100
AcDbBlockTableRecord
  2
block 12
340
0
102
{BLKREFS
331
9C
102
}
 70
     0
280
     1
281
     0
  0
ENDTAB
  0
ENDSEC
  0
SECTION
  2
BLOCKS
  0
BLOCK
  5
20
330
1F
100
AcDbEntity
  8
0
100
AcDbBlockBegin
  2
*Model_Space
 70
     0
 10
0.0
 20
0.0
 30
0.0
  3
*Model_Space
  1

  0
ENDBLK
  5
21
330
1F
100
AcDbEntity
  8
0
100
AcDbBlockEnd
  0
BLOCK
  5
1C
330
1B
100
AcDbEntity
 67
     1
  8
0
100
AcDbBlockBegin
  2
*Paper_Space
 70
     0
 10
0.0
 20
0.0
 30
0.0
  3
*Paper_Space
  1

  0
ENDBLK
  5
1D
330
1B
100
AcDbEntity
 67
     1
  8
0
100
AcDbBlockEnd
  0
BLOCK
  5
24
330
23
100
AcDbEntity
  8
0
100
AcDbBlockBegin
  2
*Paper_Space0
 70
     0
 10
0.0
 20
0.0
 30
0.0
  3
*Paper_Space0
  1

  0
ENDBLK
  5
25
330
23
100
AcDbEntity
  8
0
100
AcDbBlockEnd
  0
BLOCK
  5
42
330
40
100
AcDbEntity
  8
0
100
AcDbBlockBegin
  2
block 2
 70
     0
 10
0.0
 20
0.0
 30
0.0
  3
block 2
  1

  0
INSERT
  5
45
330
40
100
AcDbEntity
  8
0
100
AcDbBlockReference
  2
block 3
 10
0.0
 20
0.0
 30
0.0
  0
INSERT
  5
4B
330
40
100
AcDbEntity
  8
0
100
AcDbBlockReference
  2
block 4
 10
0.0
 20
0.0
 30
0.0
  0
INSERT
  5
51
330
40
100
AcDbEntity
  8
0
100
AcDbBlockReference
  2
block 5
 10
0.0
 20
0.0
 30
0.0
  0
INSERT
  5
57
330
40
100
AcDbEntity
  8
0
100
AcDbBlockReference
  2
block 6
 10
0.0
 20
0.0
 30
0.0
  0
INSERT
  5
5D
330
40
100
AcDbEntity
  8
0
100
AcDbBlockReference
  2
block 7
 10
0.0
 20
0.0
 30
0.0
  0
SPLINE
  5
62
330
40
100
AcDbEntity
  8
0
 62
     7
420
 16777215
370
    25
100
AcDbSpline
210
0.0
220
0.0
230
1.0
 70
    11
 71
     3
 72
    38
 73
    34
 74
     0
 42
0.0000000001
 43
0.0000000001
 12
1.0
 22
0.0
 32
0.0
 13
1.0
 23
0.0
 33
0.0
 40
0.0
 40
0.0
 40
0.0
 40
0.0
 40
1.0
 40
1.0
 40
1.0
 40
2.0
 40
2.0
 40
2.0
 40
3.0
 40
3.0
 40
3.0
 40
4.0
 40
4.0
 40
4.0
 40
5.0
 40
5.0
 40
5.0
 40
6.0
 40
6.0
 40
6.0
 40
7.0
 40
7.0
 40
7.0
 40
8.0
 40
8.0
 40
8.0
 40
9.0
 40
9.0
 40
9.0
 40
10.0
 40
10.0
 40
10.0
 40
11.0
 40
11.0
 40
11.0
 40
11.0
 10
20.66495309948871
 20
143.4154062548363
 30
0.0
 10
18.13573624899254
 20
143.4154062548363
 30
0.0
 10
16.87114935559124
 20
142.5502135874093
 30
0.0
 10
16.87114935559124
 20
140.8197851888619
 30
0.0
 10
16.87114935559124
 20
140.8197851888619
 30
0.0
 10
16.87114935559124
 20
136.5356366981795
 30
0.0
 10
16.87114935559124
 20
136.5356366981795
 30
0.0
 10
16.87114935559124
 20
134.8982689414273
 30
0.0
 10
18.13573624899254
 20
134.0795850630513
 30
0.0
 10
20.66495309948871
 20
134.0795850630513
 30
0.0
 10
20.66495309948871
 20
134.0795850630513
 30
0.0
 10
20.66495309948871
 20
134.0801879547612
 30
0.0
 10
20.66495309948871
 20
134.0801879547612
 30
0.0
 10
21.09925044909802
 20
134.0774964739134
 30
0.0
 10
21.53305256623132
 20
134.109751180394
 30
0.0
 10
21.96218227261275
 20
134.1766506283482
 30
0.0
 10
22.37781151106136
 20
134.2467152577795
 30
0.0
 10
22.78459116048224
 20
134.3616522559061
 30
0.0
 10
23.1753511158967
 20
134.5196098839048
 30
0.0
 10
23.1753511158967
 20
134.5196098839048
 30
0.0
 10
23.17554490251775
 20
134.5191577151224
 30
0.0
 10
23.17554490251775
 20
134.5191577151224
 30
0.0
 10
23.58469305508473
 20
134.6819600086472
 30
0.0
 10
23.9077999479076
 20
134.9354759726681
 30
0.0
 10
24.1449301765267
 20
135.2797056071849
 30
0.0
 10
24.38203887329902
 20
135.6239352417017
 30
0.0
 10
24.50059322168518
 20
136.0425574068531
 30
0.0
 10
24.50059322168518
 20
136.5356366981795
 30
0.0
 10
24.50059322168518
 20
136.5356366981795
 30
0.0
 10
24.50059322168518
 20
140.833759357424
 30
0.0
 10
24.50059322168518
 20
140.833759357424
 30
0.0
 10
24.50059322168518
 20
142.5548859981612
 30
0.0
 10
23.22205369156862
 20
143.4154062548363
 30
0.0
 10
20.66495309948871
 20
143.4154062548363
 30
0.0
  0
SPLINE
  5
63
330
40
100
AcDbEntity
  8
0
 62
     7
420
 16777215
370
    25
100
AcDbSpline
210
0.0
220
0.0
230
1.0
 70
    11
 71
     3
 72
    41
 73
    37
 74
     0
 42
0.0000000001
 43
0.0000000001
 12
1.0
 22
0.0
 32
0.0
 13
1.0
 23
0.0
 33
0.0
 40
0.0
 40
0.0
 40
0.0
 40
0.0
 40
1.0
 40
1.0
 40
1.0
 40
2.0
 40
2.0
 40
2.0
 40
3.0
 40
3.0
 40
3.0
 40
4.0
 40
4.0
 40
4.0
 40
5.0
 40
5.0
 40
5.0
 40
6.0
 40
6.0
 40
6.0
 40
7.0
 40
7.0
 40
7.0
 40
8.0
 40
8.0
 40
8.0
 40
9.0
 40
9.0
 40
9.0
 40
10.0
 40
10.0
 40
10.0
 40
11.0
 40
11.0
 40
11.0
 40
12.0
 40
12.0
 40
12.0
 40
12.0
 10
23.18949753923301
 20
136.5495893348947
 30
0.0
 10
23.18949753923301
 20
135.5076417372277
 30
0.0
 10
22.35729166107734
 20
134.9866571724708
 30
0.0
 10
20.69283684107245
 20
134.9866571724708
 30
0.0
 10
19.00980003729399
 20
134.9866571724708
 30
0.0
 10
18.16829240132815
 20
135.5076417372277
 30
0.0
 10
18.16829240132815
 20
136.5495893348947
 30
0.0
 10
18.16829240132815
 20
136.5495893348947
 30
0.0
 10
18.16829240132815
 20
140.8616430990077
 30
0.0
 10
18.16829240132815
 20
140.8616430990077
 30
0.0
 10
18.16829240132815
 20
141.2058942653713
 30
0.0
 10
18.2380125212109
 20
141.4919663817277
 30
0.0
 10
18.37736663358925
 20
141.7199886391577
 30
0.0
 10
18.51618244979804
 20
141.9471280908696
 30
0.0
 10
18.7205412076137
 20
142.126919011506
 30
0.0
 10
18.96352809855773
 20
142.2356548377592
 30
0.0
 10
18.96352809855773
 20
142.2356548377592
 30
0.0
 10
18.9633127800899
 20
142.2361070065417
 30
0.0
 10
18.9633127800899
 20
142.2361070065417
 30
0.0
 10
19.21129505948754
 20
142.3514100460636
 30
0.0
 10
19.47419890870567
 20
142.4314223887086
 30
0.0
 10
19.74435899028961
 20
142.4738185950239
 30
0.0
 10
19.74435899028961
 20
142.4738185950239
 30
0.0
 10
19.74429439474926
 20
142.4742492319596
 30
0.0
 10
19.74429439474926
 20
142.4742492319596
 30
0.0
 10
20.05383622409895
 20
142.5182172630901
 30
0.0
 10
20.36624178907077
 20
142.5386940493805
 30
0.0
 10
20.67888420435719
 20
142.5355073360567
 30
0.0
 10
20.67888420435719
 20
142.5355073360567
 30
0.0
 10
20.67888420435719
 20
142.5362609506941
 30
0.0
 10
20.67888420435719
 20
142.5362609506941
 30
0.0
 10
22.35264078217226
 20
142.5362609506941
 30
0.0
 10
23.18949753923301
 20
141.9780478228497
 30
0.0
 10
23.18949753923301
 20
140.8616430990077
 30
0.0
 10
23.18949753923301
 20
140.8616430990077
 30
0.0
 10
23.18949753923301
 20
136.5495893348947
 30
0.0
 10
23.18949753923301
 20
136.5495893348947
 30
0.0
  0
HATCH
  5
64
330
40
100
AcDbEntity
  8
0
 62
     7
420
 16777215
100
AcDbHatch
 10
0.0
 20
0.0
 30
0.0
210
0.0
220
0.0
230
1.0
  2
SOLID
 70
     1
 71
     0
 91
        2
 92
        1
 93
        1
 72
     4
 94
        3
 73
     0
 74
     1
 95
       38
 96
       34
 40
0.0
 40
0.0
 40
0.0
 40
0.0
 40
1.0
 40
1.0
 40
1.0
 40
2.0
 40
2.0
 40
2.0
 40
3.0
 40
3.0
 40
3.0
 40
4.0
 40
4.0
 40
4.0
 40
5.0
 40
5.0
 40
5.0
 40
6.0
 40
6.0
 40
6.0
 40
7.0
 40
7.0
 40
7.0
 40
8.0
 40
8.0
 40
8.0
 40
9.0
 40
9.0
 40
9.0
 40
10.0
 40
10.0
 40
10.0
 40
11.0
 40
11.0
 40
11.0
 40
11.0
 10
20.66495309948871
 20
143.4154062548363
 10
18.13573624899254
 20
143.4154062548363
 10
16.87114935559124
 20
142.5502135874093
 10
16.87114935559124
 20
140.8197851888619
 10
16.87114935559124
 20
140.8197851888619
 10
16.87114935559124
 20
136.5356366981795
 10
16.87114935559124
 20
136.5356366981795
 10
16.87114935559124
 20
134.8982689414273
 10
18.13573624899254
 20
134.0795850630513
 10
20.66495309948871
 20
134.0795850630513
 10
20.66495309948871
 20
134.0795850630513
 10
20.66495309948871
 20
134.0801879547612
 10
20.66495309948871
 20
134.0801879547612
 10
21.09925044909802
 20
134.0774964739134
 10
21.53305256623132
 20
134.109751180394
 10
21.96218227261275
 20
134.1766506283482
 10
22.37781151106136
 20
134.2467152577795
 10
22.78459116048224
 20
134.3616522559061
 10
23.1753511158967
 20
134.5196098839048
 10
23.1753511158967
 20
134.5196098839048
 10
23.17554490251775
 20
134.5191577151224
 10
23.17554490251775
 20
134.5191577151224
 10
23.58469305508473
 20
134.6819600086472
 10
23.9077999479076
 20
134.9354759726681
 10
24.1449301765267
 20
135.2797056071849
 10
24.38203887329902
 20
135.6239352417017
 10
24.50059322168518
 20
136.0425574068531
 10
24.50059322168518
 20
136.5356366981795
 10
24.50059322168518
 20
136.5356366981795
 10
24.50059322168518
 20
140.833759357424
 10
24.50059322168518
 20
140.833759357424
 10
24.50059322168518
 20
142.5548859981612
 10
23.22205369156862
 20
143.4154062548363
 10
20.66495309948871
 20
143.4154062548363
 97
        0
 97
        0
 92
        1
 93
        1
 72
     4
 94
        3
 73
     0
 74
     1
 95
       41
 96
       37
 40
0.0
 40
0.0
 40
0.0
 40
0.0
 40
1.0
 40
1.0
 40
1.0
 40
2.0
 40
2.0
 40
2.0
 40
3.0
 40
3.0
 40
3.0
 40
4.0
 40
4.0
 40
4.0
 40
5.0
 40
5.0
 40
5.0
 40
6.0
 40
6.0
 40
6.0
 40
7.0
 40
7.0
 40
7.0
 40
8.0
 40
8.0
 40
8.0
 40
9.0
 40
9.0
 40
9.0
 40
10.0
 40
10.0
 40
10.0
 40
11.0
 40
11.0
 40
11.0
 40
12.0
 40
12.0
 40
12.0
 40
12.0
 10
23.18949753923301
 20
136.5495893348947
 10
23.18949753923301
 20
135.5076417372277
 10
22.35729166107734
 20
134.9866571724708
 10
20.69283684107245
 20
134.9866571724708
 10
19.00980003729399
 20
134.9866571724708
 10
18.16829240132815
 20
135.5076417372277
 10
18.16829240132815
 20
136.5495893348947
 10
18.16829240132815
 20
136.5495893348947
 10
18.16829240132815
 20
140.8616430990077
 10
18.16829240132815
 20
140.8616430990077
 10
18.16829240132815
 20
141.2058942653713
 10
18.2380125212109
 20
141.4919663817277
 10
18.37736663358925
 20
141.7199886391577
 10
18.51618244979804
 20
141.9471280908696
 10
18.7205412076137
 20
142.126919011506
 10
18.96352809855773
 20
142.2356548377592
 10
18.96352809855773
 20
142.2356548377592
 10
18.9633127800899
 20
142.2361070065417
 10
18.9633127800899
 20
142.2361070065417
 10
19.21129505948754
 20
142.3514100460636
 10
19.47419890870567
 20
142.4314223887086
 10
19.74435899028961
 20
142.4738185950239
 10
19.74435899028961
 20
142.4738185950239
 10
19.74429439474926
 20
142.4742492319596
 10
19.74429439474926
 20
142.4742492319596
 10
20.05383622409895
 20
142.5182172630901
 10
20.36624178907077
 20
142.5386940493805
 10
20.67888420435719
 20
142.5355073360567
 10
20.67888420435719
 20
142.5355073360567
 10
20.67888420435719
 20
142.5362609506941
 10
20.67888420435719
 20
142.5362609506941
 10
22.35264078217226
 20
142.5362609506941
 10
23.18949753923301
 20
141.9780478228497
 10
23.18949753923301
 20
140.8616430990077
 10
23.18949753923301
 20
140.8616430990077
 10
23.18949753923301
 20
136.5495893348947
 10
23.18949753923301
 20
136.5495893348947
 97
        0
 97
        0
 75
     2
 76
     1
 98
        0
  0
INSERT
  5
66
330
40
100
AcDbEntity
  8
0
100
AcDbBlockReference
  2
block 8
 10
0.0
 20
0.0
 30
0.0
  0
INSERT
  5
78
330
40
100
AcDbEntity
  8
0
100
AcDbBlockReference
  2
block 9
 10
0.0
 20
0.0
 30
0.0
  0
INSERT
  5
7E
330
40
100
AcDbEntity
  8
0
100
AcDbBlockReference
  2
block 10
 10
0.0
 20
0.0
 30
0.0
  0
INSERT
  5
84
330
40
100
AcDbEntity
  8
0
100
AcDbBlockReference
  2
block 11
 10
0.0
 20
0.0
 30
0.0
  0
INSERT
  5
9C
330
40
100
AcDbEntity
  8
0
100
AcDbBlockReference
  2
block 12
 10
0.0
 20
0.0
 30
0.0
  0
ENDBLK
  5
43
330
40
100
AcDbEntity
  8
0
100
AcDbBlockEnd
  0
BLOCK
  5
46
330
44
100
AcDbEntity
  8
0
100
AcDbBlockBegin
  2
block 3
 70
     0
 10
0.0
 20
0.0
 30
0.0
  3
block 3
  1

  0
SPLINE
  5
48
330
44
100
AcDbEntity
  8
0
 62
     7
420
 16777215
370
    25
100
AcDbSpline
210
0.0
220
0.0
230
1.0
 70
    11
 71
     3
 72
    35
 73
    31
 74
     0
 42
0.0000000001
 43
0.0000000001
 12
1.0
 22
0.0
 32
0.0
 13
1.0
 23
0.0
 33
0.0
 40
0.0
 40
0.0
 40
0.0
 40
0.0
 40
1.0
 40
1.0
 40
1.0
 40
2.0
 40
2.0
 40
2.0
 40
3.0
 40
3.0
 40
3.0
 40
4.0
 40
4.0
 40
4.0
 40
5.0
 40
5.0
 40
5.0
 40
6.0
 40
6.0
 40
6.0
 40
7.0
 40
7.0
 40
7.0
 40
8.0
 40
8.0
 40
8.0
 40
9.0
 40
9.0
 40
9.0
 40
10.0
 40
10.0
 40
10.0
 40
10.0
 10
61.97204869180449
 20
47.89499215809322
 30
0.0
 10
61.97204869180449
 20
47.89499215809322
 30
0.0
 10
64.9474767813214
 20
47.89499215809322
 30
0.0
 10
64.9474767813214
 20
47.89499215809322
 30
0.0
 10
65.16426778817359
 20
47.89501147125851
 30
0.0
 10
65.36029120252766
 20
47.76603652326791
 30
0.0
 10
65.44604102538433
 20
47.56692522387529
 30
0.0
 10
65.44602694138472
 20
47.56691915752722
 30
0.0
 10
71.04947095124886
 20
34.55954165734364
 30
0.0
 10
71.04947095124886
 20
34.55954165734364
 30
0.0
 10
71.04947095124886
 20
34.55954165734364
 30
0.0
 10
66.46828201261802
 20
34.55954165734364
 30
0.0
 10
66.46828201261802
 20
34.55954165734364
 30
0.0
 10
66.46828201261802
 20
34.55954165734364
 30
0.0
 10
63.84535123113147
 20
41.49010432621492
 30
0.0
 10
63.84535123113147
 20
41.49010432621492
 30
0.0
 10
63.6689591999391
 20
41.95618371397498
 30
0.0
 10
63.01035400317684
 20
41.95818782493146
 30
0.0
 10
62.83113128236324
 20
41.49318940316692
 30
0.0
 10
62.83113128236324
 20
41.49318940316692
 30
0.0
 10
60.15870388355022
 20
34.55954165734364
 30
0.0
 10
60.15870388355022
 20
34.55954165734364
 30
0.0
 10
60.15870388355022
 20
34.55954165734364
 30
0.0
 10
55.81498300147275
 20
34.55954165734364
 30
0.0
 10
55.81498300147275
 20
34.55954165734364
 30
0.0
 10
55.81498300147275
 20
34.55954165734364
 30
0.0
 10
61.47426817560924
 20
47.56869683439474
 30
0.0
 10
61.47429809796037
 20
47.56868382172323
 30
0.0
 10
61.5604506309399
 20
47.76685434538137
 30
0.0
 10
61.75596117596051
 20
47.89503029241775
 30
0.0
 10
61.97204869180449
 20
47.89499215809322
 30
0.0
  0
HATCH
  5
49
330
44
100
AcDbEntity
  8
0
 62
     7
420
 16777215
100
AcDbHatch
 10
0.0
 20
0.0
 30
0.0
210
0.0
220
0.0
230
1.0
  2
SOLID
 70
     1
 71
     0
 91
        1
 92
        1
 93
        1
 72
     4
 94
        3
 73
     0
 74
     1
 95
       35
 96
       31
 40
0.0
 40
0.0
 40
0.0
 40
0.0
 40
1.0
 40
1.0
 40
1.0
 40
2.0
 40
2.0
 40
2.0
 40
3.0
 40
3.0
 40
3.0
 40
4.0
 40
4.0
 40
4.0
 40
5.0
 40
5.0
 40
5.0
 40
6.0
 40
6.0
 40
6.0
 40
7.0
 40
7.0
 40
7.0
 40
8.0
 40
8.0
 40
8.0
 40
9.0
 40
9.0
 40
9.0
 40
10.0
 40
10.0
 40
10.0
 40
10.0
 10
61.97204869180449
 20
47.89499215809322
 10
61.97204869180449
 20
47.89499215809322
 10
64.9474767813214
 20
47.89499215809322
 10
64.9474767813214
 20
47.89499215809322
 10
65.16426778817359
 20
47.89501147125851
 10
65.36029120252766
 20
47.76603652326791
 10
65.44604102538433
 20
47.56692522387529
 10
65.44602694138472
 20
47.56691915752722
 10
71.04947095124886
 20
34.55954165734364
 10
71.04947095124886
 20
34.55954165734364
 10
71.04947095124886
 20
34.55954165734364
 10
66.46828201261802
 20
34.55954165734364
 10
66.46828201261802
 20
34.55954165734364
 10
66.46828201261802
 20
34.55954165734364
 10
63.84535123113147
 20
41.49010432621492
 10
63.84535123113147
 20
41.49010432621492
 10
63.6689591999391
 20
41.95618371397498
 10
63.01035400317684
 20
41.95818782493146
 10
62.83113128236324
 20
41.49318940316692
 10
62.83113128236324
 20
41.49318940316692
 10
60.15870388355022
 20
34.55954165734364
 10
60.15870388355022
 20
34.55954165734364
 10
60.15870388355022
 20
34.55954165734364
 10
55.81498300147275
 20
34.55954165734364
 10
55.81498300147275
 20
34.55954165734364
 10
55.81498300147275
 20
34.55954165734364
 10
61.47426817560924
 20
47.56869683439474
 10
61.47429809796037
 20
47.56868382172323
 10
61.5604506309399
 20
47.76685434538137
 10
61.75596117596051
 20
47.89503029241775
 10
61.97204869180449
 20
47.89499215809322
 97
        0
 97
        0
 75
     2
 76
     1
 98
        0
  0
ENDBLK
  5
47
330
44
100
AcDbEntity
  8
0
100
AcDbBlockEnd
  0
BLOCK
  5
4C
330
4A
100
AcDbEntity
  8
0
100
AcDbBlockBegin
  2
block 4
 70
     0
 10
0.0
 20
0.0
 30
0.0
  3
block 4
  1

  0
SPLINE
  5
4E
330
4A
100
AcDbEntity
  8
0
 62
     7
420
 16777215
370
    25
100
AcDbSpline
210
0.0
220
0.0
230
1.0
 70
     8
 71
     3
 72
    44
 73
    40
 74
     0
 42
0.0000000001
 43
0.0000000001
 12
1.0
 22
0.0
 32
0.0
 13
1.0
 23
0.0
 33
0.0
 40
0.0
 40
0.0
 40
0.0
 40
0.0
 40
1.0
 40
1.0
 40
1.0
 40
2.0
 40
2.0
 40
2.0
 40
3.0
 40
3.0
 40
3.0
 40
4.0
 40
4.0
 40
4.0
 40
5.0
 40
5.0
 40
5.0
 40
6.0
 40
6.0
 40
6.0
 40
7.0
 40
7.0
 40
7.0
 40
8.0
 40
8.0
 40
8.0
 40
9.0
 40
9.0
 40
9.0
 40
10.0
 40
10.0
 40
10.0
 40
11.0
 40
11.0
 40
11.0
 40
12.0
 40
12.0
 40
12.0
 40
13.0
 40
13.0
 40
13.0
 40
13.0
 10
87.00921460993726
 20
43.15741864792514
 30
0.0
 10
87.30876544650897
 20
43.15727118786145
 30
0.0
 10
87.55147983914095
 20
42.91431771522888
 30
0.0
 10
87.55124107183003
 20
42.61476690113076
 30
0.0
 10
87.55124107183003
 20
42.61476690113076
 30
0.0
 10
87.55124107183003
 20
39.84308026900101
 30
0.0
 10
87.55124107183003
 20
39.84308026900101
 30
0.0
 10
87.55124107183003
 20
39.84308026900101
 30
0.0
 10
87.55105012487867
 20
39.84227538271882
 30
0.0
 10
87.55105012487867
 20
39.84227538271882
 30
0.0
 10
87.55090817695776
 20
39.54272426001415
 30
0.0
 10
87.30795894084342
 20
39.3000051669521
 30
0.0
 10
87.0084078470813
 20
39.30023873201854
 30
0.0
 10
87.0084078470813
 20
39.30023873201854
 30
0.0
 10
76.4880094236279
 20
39.30023873201854
 30
0.0
 10
76.48800932739935
 20
39.30004808914141
 30
0.0
 10
76.18845874894146
 20
39.30035049045736
 30
0.0
 10
75.94537988084977
 20
39.05776191177109
 30
0.0
 10
75.94507747953381
 20
38.7582113333132
 30
0.0
 10
75.94507747953381
 20
38.7582113333132
 30
0.0
 10
75.94516860688714
 20
38.75739703637213
 30
0.0
 10
75.94516860688714
 20
38.75739703637213
 30
0.0
 10
75.94516860688714
 20
38.75739703637213
 30
0.0
 10
75.94516860688714
 20
34.55954165734364
 30
0.0
 10
75.94516860688714
 20
34.55954165734364
 30
0.0
 10
75.94516860688714
 20
34.55954165734364
 30
0.0
 10
71.68209671004804
 20
34.55954165734364
 30
0.0
 10
71.68209671004804
 20
34.55954165734364
 30
0.0
 10
71.68209671004804
 20
34.55954165734364
 30
0.0
 10
71.68209671004804
 20
42.61476525727364
 30
0.0
 10
71.68209671004804
 20
42.61476525727364
 30
0.0
 10
71.68209671004804
 20
42.61476525727364
 30
0.0
 10
71.68228689532638
 20
42.61557467337418
 30
0.0
 10
71.68228689532638
 20
42.61557467337418
 30
0.0
 10
71.68243231153308
 20
42.91512782085556
 30
0.0
 10
71.92538600065437
 20
43.15784574372358
 30
0.0
 10
72.224939125958
 20
43.15760895711428
 30
0.0
 10
72.224939125958
 20
43.15760895711428
 30
0.0
 10
87.00840025493912
 20
43.15760895711428
 30
0.0
 10
87.00840025493912
 20
43.15760895711428
 30
0.0
  0
HATCH
  5
4F
330
4A
100
AcDbEntity
  8
0
 62
     7
420
 16777215
100
AcDbHatch
 10
0.0
 20
0.0
 30
0.0
210
0.0
220
0.0
230
1.0
  2
SOLID
 70
     1
 71
     0
 91
        1
 92
        1
 93
        2
 72
     4
 94
        3
 73
     0
 74
     0
 95
       44
 96
       40
 40
0.0
 40
0.0
 40
0.0
 40
0.0
 40
0.3527777776895833
 40
0.3527777776895833
 40
0.3527777776895833
 40
0.7055555553791667
 40
0.7055555553791667
 40
0.7055555553791667
 40
1.05833333306875
 40
1.05833333306875
 40
1.05833333306875
 40
1.411111110758333
 40
1.411111110758333
 40
1.411111110758333
 40
1.763888888447917
 40
1.763888888447917
 40
1.763888888447917
 40
2.1166666661375
 40
2.1166666661375
 40
2.1166666661375
 40
2.469444443827083
 40
2.469444443827083
 40
2.469444443827083
 40
2.822222221516667
 40
2.822222221516667
 40
2.822222221516667
 40
3.17499999920625
 40
3.17499999920625
 40
3.17499999920625
 40
3.527777776895833
 40
3.527777776895833
 40
3.527777776895833
 40
3.880555554585417
 40
3.880555554585417
 40
3.880555554585417
 40
4.233333332275
 40
4.233333332275
 40
4.233333332275
 40
4.586111109964584
 40
4.586111109964584
 40
4.586111109964584
 40
4.586111109964584
 10
87.00921460993726
 20
43.15741864792514
 10
87.30876544650897
 20
43.15727118786145
 10
87.55147983914095
 20
42.91431771522888
 10
87.55124107183003
 20
42.61476690113076
 10
87.55124107183003
 20
42.61476690113076
 10
87.55124107183003
 20
39.84308026900101
 10
87.55124107183003
 20
39.84308026900101
 10
87.55124107183003
 20
39.84308026900101
 10
87.55105012487867
 20
39.84227538271882
 10
87.55105012487867
 20
39.84227538271882
 10
87.55090817695776
 20
39.54272426001415
 10
87.30795894084342
 20
39.3000051669521
 10
87.0084078470813
 20
39.30023873201854
 10
87.0084078470813
 20
39.30023873201854
 10
76.4880094236279
 20
39.30023873201854
 10
76.48800932739935
 20
39.30004808914141
 10
76.18845874894146
 20
39.30035049045736
 10
75.94537988084977
 20
39.05776191177109
 10
75.94507747953381
 20
38.7582113333132
 10
75.94507747953381
 20
38.7582113333132
 10
75.94516860688714
 20
38.75739703637213
 10
75.94516860688714
 20
38.75739703637213
 10
75.94516860688714
 20
38.75739703637213
 10
75.94516860688714
 20
34.55954165734364
 10
75.94516860688714
 20
34.55954165734364
 10
75.94516860688714
 20
34.55954165734364
 10
71.68209671004804
 20
34.55954165734364
 10
71.68209671004804
 20
34.55954165734364
 10
71.68209671004804
 20
34.55954165734364
 10
71.68209671004804
 20
42.61476525727364
 10
71.68209671004804
 20
42.61476525727364
 10
71.68209671004804
 20
42.61476525727364
 10
71.68228689532638
 20
42.61557467337418
 10
71.68228689532638
 20
42.61557467337418
 10
71.68243231153308
 20
42.91512782085556
 10
71.92538600065437
 20
43.15784574372358
 10
72.224939125958
 20
43.15760895711428
 10
72.224939125958
 20
43.15760895711428
 10
87.00840025493912
 20
43.15760895711428
 10
87.00840025493912
 20
43.15760895711428
 97
        0
 72
     1
 10
87.00840025493912
 20
43.15760895711428
 11
87.00921460993726
 21
43.15741864792514
 97
        0
 75
     2
 76
     1
 98
        0
  0
ENDBLK
  5
4D
330
4A
100
AcDbEntity
  8
0
100
AcDbBlockEnd
  0
BLOCK
  5
52
330
50
100
AcDbEntity
  8
0
100
AcDbBlockBegin
  2
block 5
 70
     0
 10
0.0
 20
0.0
 30
0.0
  3
block 5
  1

  0
SPLINE
  5
54
330
50
100
AcDbEntity
  8
0
 62
     7
420
 16777215
370
    25
100
AcDbSpline
210
0.0
220
0.0
230
1.0
 70
     8
 71
     3
 72
    26
 73
    22
 74
     0
 42
0.0000000001
 43
0.0000000001
 12
1.0
 22
0.0
 32
0.0
 13
1.0
 23
0.0
 33
0.0
 40
0.0
 40
0.0
 40
0.0
 40
0.0
 40
1.0
 40
1.0
 40
1.0
 40
2.0
 40
2.0
 40
2.0
 40
3.0
 40
3.0
 40
3.0
 40
4.0
 40
4.0
 40
4.0
 40
5.0
 40
5.0
 40
5.0
 40
6.0
 40
6.0
 40
6.0
 40
7.0
 40
7.0
 40
7.0
 40
7.0
 10
52.02278862086403
 20
23.93938664193363
 30
0.0
 10
51.94760112889514
 20
23.93917111105829
 30
0.0
 10
51.87319156192621
 20
23.95460488657544
 30
0.0
 10
51.80429232444852
 20
23.98470638948105
 30
0.0
 10
51.53004977408575
 20
24.10452067522448
 30
0.0
 10
51.40486093056185
 20
24.42396685767359
 30
0.0
 10
51.52467521630527
 20
24.69820940803636
 30
0.0
 10
51.52501045911968
 20
24.69806325653433
 30
0.0
 10
52.87417167402937
 20
27.79941741409354
 30
0.0
 10
52.87417167402937
 20
27.79941741409354
 30
0.0
 10
52.87417167402937
 20
27.79941741409354
 30
0.0
 10
57.49080783035672
 20
27.79941741409354
 30
0.0
 10
57.49080783035672
 20
27.79941741409354
 30
0.0
 10
57.49080783035672
 20
27.79941741409354
 30
0.0
 10
56.10142613768863
 20
24.28208268177191
 30
0.0
 10
56.10138975625807
 20
24.28209704696917
 30
0.0
 10
56.01958220414693
 20
24.07482647225636
 30
0.0
 10
55.81938326138619
 20
23.9386311992131
 30
0.0
 10
55.59655246124698
 20
23.93867420450692
 30
0.0
 10
55.59655246124698
 20
23.93867420450692
 30
0.0
 10
52.02278964199137
 20
23.93867420450692
 30
0.0
 10
52.02278964199137
 20
23.93867420450692
 30
0.0
  0
HATCH
  5
55
330
50
100
AcDbEntity
  8
0
 62
     7
420
 16777215
100
AcDbHatch
 10
0.0
 20
0.0
 30
0.0
210
0.0
220
0.0
230
1.0
  2
SOLID
 70
     1
 71
     0
 91
        1
 92
        1
 93
        2
 72
     4
 94
        3
 73
     0
 74
     0
 95
       26
 96
       22
 40
0.0
 40
0.0
 40
0.0
 40
0.0
 40
0.3527777776895833
 40
0.3527777776895833
 40
0.3527777776895833
 40
0.7055555553791667
 40
0.7055555553791667
 40
0.7055555553791667
 40
1.05833333306875
 40
1.05833333306875
 40
1.05833333306875
 40
1.411111110758333
 40
1.411111110758333
 40
1.411111110758333
 40
1.763888888447917
 40
1.763888888447917
 40
1.763888888447917
 40
2.1166666661375
 40
2.1166666661375
 40
2.1166666661375
 40
2.469444443827083
 40
2.469444443827083
 40
2.469444443827083
 40
2.469444443827083
 10
52.02278862086403
 20
23.93938664193363
 10
51.94760112889514
 20
23.93917111105829
 10
51.87319156192621
 20
23.95460488657544
 10
51.80429232444852
 20
23.98470638948105
 10
51.53004977408575
 20
24.10452067522448
 10
51.40486093056185
 20
24.42396685767359
 10
51.52467521630527
 20
24.69820940803636
 10
51.52501045911968
 20
24.69806325653433
 10
52.87417167402937
 20
27.79941741409354
 10
52.87417167402937
 20
27.79941741409354
 10
52.87417167402937
 20
27.79941741409354
 10
57.49080783035672
 20
27.79941741409354
 10
57.49080783035672
 20
27.79941741409354
 10
57.49080783035672
 20
27.79941741409354
 10
56.10142613768863
 20
24.28208268177191
 10
56.10138975625807
 20
24.28209704696917
 10
56.01958220414693
 20
24.07482647225636
 10
55.81938326138619
 20
23.9386311992131
 10
55.59655246124698
 20
23.93867420450692
 10
55.59655246124698
 20
23.93867420450692
 10
52.02278964199137
 20
23.93867420450692
 10
52.02278964199137
 20
23.93867420450692
 97
        0
 72
     1
 10
52.02278964199137
 20
23.93867420450692
 11
52.02278862086403
 21
23.93938664193363
 97
        0
 75
     2
 76
     1
 98
        0
  0
ENDBLK
  5
53
330
50
100
AcDbEntity
  8
0
100
AcDbBlockEnd
  0
BLOCK
  5
58
330
56
100
AcDbEntity
  8
0
100
AcDbBlockBegin
  2
block 6
 70
     0
 10
0.0
 20
0.0
 30
0.0
  3
block 6
  1

  0
SPLINE
  5
5A
330
56
100
AcDbEntity
  8
0
 62
     7
420
 16777215
370
    25
100
AcDbSpline
210
0.0
220
0.0
230
1.0
 70
     8
 71
     3
 72
    53
 73
    49
 74
     0
 42
0.0000000001
 43
0.0000000001
 12
1.0
 22
0.0
 32
0.0
 13
1.0
 23
0.0
 33
0.0
 40
0.0
 40
0.0
 40
0.0
 40
0.0
 40
1.0
 40
1.0
 40
1.0
 40
2.0
 40
2.0
 40
2.0
 40
3.0
 40
3.0
 40
3.0
 40
4.0
 40
4.0
 40
4.0
 40
5.0
 40
5.0
 40
5.0
 40
6.0
 40
6.0
 40
6.0
 40
7.0
 40
7.0
 40
7.0
 40
8.0
 40
8.0
 40
8.0
 40
9.0
 40
9.0
 40
9.0
 40
10.0
 40
10.0
 40
10.0
 40
11.0
 40
11.0
 40
11.0
 40
12.0
 40
12.0
 40
12.0
 40
13.0
 40
13.0
 40
13.0
 40
14.0
 40
14.0
 40
14.0
 40
15.0
 40
15.0
 40
15.0
 40
16.0
 40
16.0
 40
16.0
 40
16.0
 10
87.61741361458017
 20
23.05866555248747
 30
0.0
 10
87.61741361458017
 20
23.05866555248747
 30
0.0
 10
76.48801246438809
 20
23.05866555248747
 30
0.0
 10
76.48801246438809
 20
23.05866555248747
 30
0.0
 10
76.48801246438809
 20
23.05866555248747
 30
0.0
 10
76.4871994209862
 20
23.05857427865928
 30
0.0
 10
76.4871994209862
 20
23.05857427865928
 30
0.0
 10
76.18764868478777
 20
23.05887660309199
 30
0.0
 10
75.94505991590063
 20
23.30195553673131
 30
0.0
 10
75.9453622403327
 20
23.60150627292973
 30
0.0
 10
75.94517148946275
 20
23.60150636918844
 30
0.0
 10
75.94517148946275
 20
27.79941741409354
 30
0.0
 10
75.94517148946275
 20
27.79941741409354
 30
0.0
 10
75.94517148946275
 20
27.79941741409354
 30
0.0
 10
69.1794185166186
 20
27.79941741409354
 30
0.0
 10
69.1794185166186
 20
27.79941741409354
 30
0.0
 10
69.1794185166186
 20
27.79941741409354
 30
0.0
 10
70.61457504818027
 20
24.27670524418538
 30
0.0
 10
70.6145594480268
 20
24.27669888971894
 30
0.0
 10
70.69781167872337
 20
24.07228161459975
 30
0.0
 10
70.8965776531284
 20
23.93865154730419
 30
0.0
 10
71.1172977361984
 20
23.93867276321879
 30
0.0
 10
71.1172977361984
 20
23.93867276321879
 30
0.0
 10
71.68209671004804
 20
23.93867276321879
 30
0.0
 10
71.68209671004804
 20
23.93867276321879
 30
0.0
 10
71.68209671004804
 20
23.93867276321879
 30
0.0
 10
71.68209671004804
 20
19.74413846413055
 30
0.0
 10
71.68200496821335
 20
19.74413848644627
 30
0.0
 10
71.6818592385123
 20
19.44458709797874
 30
0.0
 10
71.92457548128004
 20
19.20163458068203
 30
0.0
 10
72.22412686974758
 20
19.20148885098098
 30
0.0
 10
72.22412686974758
 20
19.20148885098098
 30
0.0
 10
72.22493896731139
 20
19.20129748932327
 30
0.0
 10
72.22493896731139
 20
19.20129748932327
 30
0.0
 10
72.22493896731139
 20
19.20129748932327
 30
0.0
 10
87.61742123269833
 20
19.20129748932327
 30
0.0
 10
87.61742123269833
 20
19.20129748932327
 30
0.0
 10
87.91697205859795
 20
19.20106357226695
 30
0.0
 10
88.15992146703864
 20
19.44378205880597
 30
0.0
 10
88.1600638953393
 20
19.74333291370524
 30
0.0
 10
88.1600638953393
 20
19.74333291370524
 30
0.0
 10
88.16025443128115
 20
19.74413830602425
 30
0.0
 10
88.16025443128115
 20
19.74413830602425
 30
0.0
 10
88.16025443128115
 20
19.74413830602425
 30
0.0
 10
88.16025443128115
 20
22.51582457756212
 30
0.0
 10
88.16025443128115
 20
22.51582457756212
 30
0.0
 10
88.16049263570072
 20
22.81537540798635
 30
0.0
 10
87.9177776294742
 20
23.05832829338216
 30
0.0
 10
87.61822677664568
 20
23.05847501279554
 30
0.0
  0
HATCH
  5
5B
330
56
100
AcDbEntity
  8
0
 62
     7
420
 16777215
100
AcDbHatch
 10
0.0
 20
0.0
 30
0.0
210
0.0
220
0.0
230
1.0
  2
SOLID
 70
     1
 71
     0
 91
        1
 92
        1
 93
        2
 72
     4
 94
        3
 73
     0
 74
     0
 95
       53
 96
       49
 40
0.0
 40
0.0
 40
0.0
 40
0.0
 40
0.3527777776895833
 40
0.3527777776895833
 40
0.3527777776895833
 40
0.7055555553791667
 40
0.7055555553791667
 40
0.7055555553791667
 40
1.05833333306875
 40
1.05833333306875
 40
1.05833333306875
 40
1.411111110758333
 40
1.411111110758333
 40
1.411111110758333
 40
1.763888888447917
 40
1.763888888447917
 40
1.763888888447917
 40
2.1166666661375
 40
2.1166666661375
 40
2.1166666661375
 40
2.469444443827083
 40
2.469444443827083
 40
2.469444443827083
 40
2.822222221516667
 40
2.822222221516667
 40
2.822222221516667
 40
3.17499999920625
 40
3.17499999920625
 40
3.17499999920625
 40
3.527777776895833
 40
3.527777776895833
 40
3.527777776895833
 40
3.880555554585417
 40
3.880555554585417
 40
3.880555554585417
 40
4.233333332275
 40
4.233333332275
 40
4.233333332275
 40
4.586111109964584
 40
4.586111109964584
 40
4.586111109964584
 40
4.938888887654167
 40
4.938888887654167
 40
4.938888887654167
 40
5.29166666534375
 40
5.29166666534375
 40
5.29166666534375
 40
5.644444443033334
 40
5.644444443033334
 40
5.644444443033334
 40
5.644444443033334
 10
87.61741361458017
 20
23.05866555248747
 10
87.61741361458017
 20
23.05866555248747
 10
76.48801246438809
 20
23.05866555248747
 10
76.48801246438809
 20
23.05866555248747
 10
76.48801246438809
 20
23.05866555248747
 10
76.4871994209862
 20
23.05857427865928
 10
76.4871994209862
 20
23.05857427865928
 10
76.18764868478777
 20
23.05887660309199
 10
75.94505991590063
 20
23.30195553673131
 10
75.9453622403327
 20
23.60150627292973
 10
75.94517148946275
 20
23.60150636918844
 10
75.94517148946275
 20
27.79941741409354
 10
75.94517148946275
 20
27.79941741409354
 10
75.94517148946275
 20
27.79941741409354
 10
69.1794185166186
 20
27.79941741409354
 10
69.1794185166186
 20
27.79941741409354
 10
69.1794185166186
 20
27.79941741409354
 10
70.61457504818027
 20
24.27670524418538
 10
70.6145594480268
 20
24.27669888971894
 10
70.69781167872337
 20
24.07228161459975
 10
70.8965776531284
 20
23.93865154730419
 10
71.1172977361984
 20
23.93867276321879
 10
71.1172977361984
 20
23.93867276321879
 10
71.68209671004804
 20
23.93867276321879
 10
71.68209671004804
 20
23.93867276321879
 10
71.68209671004804
 20
23.93867276321879
 10
71.68209671004804
 20
19.74413846413055
 10
71.68200496821335
 20
19.74413848644627
 10
71.6818592385123
 20
19.44458709797874
 10
71.92457548128004
 20
19.20163458068203
 10
72.22412686974758
 20
19.20148885098098
 10
72.22412686974758
 20
19.20148885098098
 10
72.22493896731139
 20
19.20129748932327
 10
72.22493896731139
 20
19.20129748932327
 10
72.22493896731139
 20
19.20129748932327
 10
87.61742123269833
 20
19.20129748932327
 10
87.61742123269833
 20
19.20129748932327
 10
87.91697205859795
 20
19.20106357226695
 10
88.15992146703864
 20
19.44378205880597
 10
88.1600638953393
 20
19.74333291370524
 10
88.1600638953393
 20
19.74333291370524
 10
88.16025443128115
 20
19.74413830602425
 10
88.16025443128115
 20
19.74413830602425
 10
88.16025443128115
 20
19.74413830602425
 10
88.16025443128115
 20
22.51582457756212
 10
88.16025443128115
 20
22.51582457756212
 10
88.16049263570072
 20
22.81537540798635
 10
87.9177776294742
 20
23.05832829338216
 10
87.61822677664568
 20
23.05847501279554
 97
        0
 72
     1
 10
87.61822677664568
 20
23.05847501279554
 11
87.61741361458017
 21
23.05866555248747
 97
        0
 75
     2
 76
     1
 98
        0
  0
ENDBLK
  5
59
330
56
100
AcDbEntity
  8
0
100
AcDbBlockEnd
  0
BLOCK
  5
5E
330
5C
100
AcDbEntity
  8
0
100
AcDbBlockBegin
  2
block 7
 70
     0
 10
0.0
 20
0.0
 30
0.0
  3
block 7
  1

  0
SPLINE
  5
60
330
5C
100
AcDbEntity
  8
0
 62
     7
420
 16777215
370
    25
100
AcDbSpline
210
0.0
220
0.0
230
1.0
 70
     8
 71
     3
 72
    56
 73
    52
 74
     0
 42
0.0000000001
 43
0.0000000001
 12
1.0
 22
0.0
 32
0.0
 13
1.0
 23
0.0
 33
0.0
 40
0.0
 40
0.0
 40
0.0
 40
0.0
 40
1.0
 40
1.0
 40
1.0
 40
2.0
 40
2.0
 40
2.0
 40
3.0
 40
3.0
 40
3.0
 40
4.0
 40
4.0
 40
4.0
 40
5.0
 40
5.0
 40
5.0
 40
6.0
 40
6.0
 40
6.0
 40
7.0
 40
7.0
 40
7.0
 40
8.0
 40
8.0
 40
8.0
 40
9.0
 40
9.0
 40
9.0
 40
10.0
 40
10.0
 40
10.0
 40
11.0
 40
11.0
 40
11.0
 40
12.0
 40
12.0
 40
12.0
 40
13.0
 40
13.0
 40
13.0
 40
14.0
 40
14.0
 40
14.0
 40
15.0
 40
15.0
 40
15.0
 40
16.0
 40
16.0
 40
16.0
 40
17.0
 40
17.0
 40
17.0
 40
17.0
 10
11.25018448032
 20
134.0803652470853
 30
0.0
 10
12.10336461893783
 20
134.0767117988145
 30
0.0
 10
12.95445021566032
 20
134.1650925964531
 30
0.0
 10
13.78867503720523
 20
134.3439742437361
 30
0.0
 10
13.78867503720523
 20
134.3439742437361
 30
0.0
 10
13.78867503720235
 20
135.3773895078765
 30
0.0
 10
13.78867503717539
 20
135.3773895078572
 30
0.0
 10
12.89605689331937
 20
135.1541087133642
 30
0.0
 10
12.07778481975918
 20
135.0424680906353
 30
0.0
 10
11.33386212187857
 20
135.0424680906545
 30
0.0
 10
9.604328034698261
 20
135.0424680906545
 30
0.0
 10
8.739577947436995
 20
135.5634440428035
 30
0.0
 10
8.739577947436995
 20
136.6054153257614
 30
0.0
 10
8.739577947436995
 20
136.6054153257614
 30
0.0
 10
8.739577947436995
 20
140.8477145200976
 30
0.0
 10
8.739577947436995
 20
140.847714520098
 30
0.0
 10
8.73957794748448
 20
141.1919361877547
 30
0.0
 10
8.809316578805612
 20
141.4780174669246
 30
0.0
 10
8.9484929275104
 20
141.7061189757825
 30
0.0
 10
9.088605648689784
 20
141.9342031108099
 30
0.0
 10
9.299409925758036
 20
142.1102567730063
 30
0.0
 10
9.54881324214543
 20
142.2074778255753
 30
0.0
 10
9.54881324214543
 20
142.2074778255753
 30
0.0
 10
9.548528459801181
 20
142.2081875983021
 30
0.0
 10
9.548528459801181
 20
142.2081875983021
 30
0.0
 10
9.803881286328362
 20
142.3135811207027
 30
0.0
 10
10.07066492449419
 20
142.3888040836961
 30
0.0
 10
10.34346234832964
 20
142.4323290894758
 30
0.0
 10
10.65299748200162
 20
142.4763477083443
 30
0.0
 10
10.9654235051942
 20
142.4968279132861
 30
0.0
 10
11.27805726932807
 20
142.4936528798014
 30
0.0
 10
11.27805726932807
 20
142.4936528798014
 30
0.0
 10
11.27806465500391
 20
142.4943921095106
 30
0.0
 10
11.27806465500391
 20
142.4943921095106
 30
0.0
 10
12.02195657110009
 20
142.4943928609745
 30
0.0
 10
12.84022459563559
 20
142.3827378544926
 30
0.0
 10
13.73288507952898
 20
142.1594658477695
 30
0.0
 10
13.73288507952898
 20
142.1594658477695
 30
0.0
 10
13.73288508015817
 20
143.1644391747726
 30
0.0
 10
13.73288508015817
 20
143.1644391747726
 30
0.0
 10
12.91725410378449
 20
143.3417496607184
 30
0.0
 10
12.08486218783651
 20
143.4304739192818
 30
0.0
 10
11.25018205442042
 20
143.4290693098939
 30
0.0
 10
8.711670403062769
 20
143.4293495756405
 30
0.0
 10
7.442431772529796
 20
142.5641504484427
 30
0.0
 10
7.442431772529796
 20
140.8337521940484
 30
0.0
 10
7.442431772529796
 20
140.8337521940484
 30
0.0
 10
7.442431772529796
 20
136.5356424528376
 30
0.0
 10
7.442431772529796
 20
136.5356424528376
 30
0.0
 10
7.442431772529796
 20
134.8982617765675
 30
0.0
 10
8.711670403062769
 20
134.0795811277636
 30
0.0
 10
11.25018112260058
 20
134.0795811277636
 30
0.0
  0
HATCH
  5
61
330
5C
100
AcDbEntity
  8
0
 62
     7
420
 16777215
100
AcDbHatch
 10
0.0
 20
0.0
 30
0.0
210
0.0
220
0.0
230
1.0
  2
SOLID
 70
     1
 71
     0
 91
        1
 92
        1
 93
        2
 72
     4
 94
        3
 73
     0
 74
     0
 95
       56
 96
       52
 40
0.0
 40
0.0
 40
0.0
 40
0.0
 40
0.3527777776895833
 40
0.3527777776895833
 40
0.3527777776895833
 40
0.7055555553791667
 40
0.7055555553791667
 40
0.7055555553791667
 40
1.05833333306875
 40
1.05833333306875
 40
1.05833333306875
 40
1.411111110758333
 40
1.411111110758333
 40
1.411111110758333
 40
1.763888888447917
 40
1.763888888447917
 40
1.763888888447917
 40
2.1166666661375
 40
2.1166666661375
 40
2.1166666661375
 40
2.469444443827083
 40
2.469444443827083
 40
2.469444443827083
 40
2.822222221516667
 40
2.822222221516667
 40
2.822222221516667
 40
3.17499999920625
 40
3.17499999920625
 40
3.17499999920625
 40
3.527777776895833
 40
3.527777776895833
 40
3.527777776895833
 40
3.880555554585417
 40
3.880555554585417
 40
3.880555554585417
 40
4.233333332275
 40
4.233333332275
 40
4.233333332275
 40
4.586111109964584
 40
4.586111109964584
 40
4.586111109964584
 40
4.938888887654167
 40
4.938888887654167
 40
4.938888887654167
 40
5.29166666534375
 40
5.29166666534375
 40
5.29166666534375
 40
5.644444443033334
 40
5.644444443033334
 40
5.644444443033334
 40
5.997222220722917
 40
5.997222220722917
 40
5.997222220722917
 40
5.997222220722917
 10
11.25018448032
 20
134.0803652470853
 10
12.10336461893783
 20
134.0767117988145
 10
12.95445021566032
 20
134.1650925964531
 10
13.78867503720523
 20
134.3439742437361
 10
13.78867503720523
 20
134.3439742437361
 10
13.78867503720235
 20
135.3773895078765
 10
13.78867503717539
 20
135.3773895078572
 10
12.89605689331937
 20
135.1541087133642
 10
12.07778481975918
 20
135.0424680906353
 10
11.33386212187857
 20
135.0424680906545
 10
9.604328034698261
 20
135.0424680906545
 10
8.739577947436995
 20
135.5634440428035
 10
8.739577947436995
 20
136.6054153257614
 10
8.739577947436995
 20
136.6054153257614
 10
8.739577947436995
 20
140.8477145200976
 10
8.739577947436995
 20
140.847714520098
 10
8.73957794748448
 20
141.1919361877547
 10
8.809316578805612
 20
141.4780174669246
 10
8.9484929275104
 20
141.7061189757825
 10
9.088605648689784
 20
141.9342031108099
 10
9.299409925758036
 20
142.1102567730063
 10
9.54881324214543
 20
142.2074778255753
 10
9.54881324214543
 20
142.2074778255753
 10
9.548528459801181
 20
142.2081875983021
 10
9.548528459801181
 20
142.2081875983021
 10
9.803881286328362
 20
142.3135811207027
 10
10.07066492449419
 20
142.3888040836961
 10
10.34346234832964
 20
142.4323290894758
 10
10.65299748200162
 20
142.4763477083443
 10
10.9654235051942
 20
142.4968279132861
 10
11.27805726932807
 20
142.4936528798014
 10
11.27805726932807
 20
142.4936528798014
 10
11.27806465500391
 20
142.4943921095106
 10
11.27806465500391
 20
142.4943921095106
 10
12.02195657110009
 20
142.4943928609745
 10
12.84022459563559
 20
142.3827378544926
 10
13.73288507952898
 20
142.1594658477695
 10
13.73288507952898
 20
142.1594658477695
 10
13.73288508015817
 20
143.1644391747726
 10
13.73288508015817
 20
143.1644391747726
 10
12.91725410378449
 20
143.3417496607184
 10
12.08486218783651
 20
143.4304739192818
 10
11.25018205442042
 20
143.4290693098939
 10
8.711670403062769
 20
143.4293495756405
 10
7.442431772529796
 20
142.5641504484427
 10
7.442431772529796
 20
140.8337521940484
 10
7.442431772529796
 20
140.8337521940484
 10
7.442431772529796
 20
136.5356424528376
 10
7.442431772529796
 20
136.5356424528376
 10
7.442431772529796
 20
134.8982617765675
 10
8.711670403062769
 20
134.0795811277636
 10
11.25018112260058
 20
134.0795811277636
 97
        0
 72
     1
 10
11.25018112260058
 20
134.0795811277636
 11
11.25018448032
 21
134.0803652470853
 97
        0
 75
     2
 76
     1
 98
        0
  0
ENDBLK
  5
5F
330
5C
100
AcDbEntity
  8
0
100
AcDbBlockEnd
  0
BLOCK
  5
67
330
65
100
AcDbEntity
  8
0
100
AcDbBlockBegin
  2
block 8
 70
     0
 10
0.0
 20
0.0
 30
0.0
  3
block 8
  1

  0
POLYLINE
  5
69
330
65
100
AcDbEntity
  8
0
 62
     7
420
 16777215
370
    25
100
AcDb2dPolyline
 66
     1
 10
0.0
 20
0.0
 30
0.0
  0
VERTEX
  5
6A
330
69
100
AcDbEntity
  8
0
 62
     7
420
 16777215
370
    25
100
AcDbVertex
100
AcDb2dVertex
 10
36.42596031266319
 20
143.2758705717335
 30
0.0
  0
VERTEX
  5
6B
330
69
100
AcDbEntity
  8
0
 62
     7
420
 16777215
370
    25
100
AcDbVertex
100
AcDb2dVertex
 10
35.24039556580713
 20
143.2758705717335
 30
0.0
  0
VERTEX
  5
6C
330
69
100
AcDbEntity
  8
0
 62
     7
420
 16777215
370
    25
100
AcDbVertex
100
AcDb2dVertex
 10
35.24039556580713
 20
135.7960267454394
 30
0.0
  0
VERTEX
  5
6D
330
69
100
AcDbEntity
  8
0
 62
     7
420
 16777215
370
    25
100
AcDbVertex
100
AcDb2dVertex
 10
30.31682012635419
 20
143.2758705717335
 30
0.0
  0
VERTEX
  5
6E
330
69
100
AcDbEntity
  8
0
 62
     7
420
 16777215
370
    25
100
AcDbVertex
100
AcDb2dVertex
 10
28.68493330079309
 20
143.2758705717335
 30
0.0
  0
VERTEX
  5
6F
330
69
100
AcDbEntity
  8
0
 62
     7
420
 16777215
370
    25
100
AcDbVertex
100
AcDb2dVertex
 10
28.68493330079309
 20
134.2191268736134
 30
0.0
  0
VERTEX
  5
70
330
69
100
AcDbEntity
  8
0
 62
     7
420
 16777215
370
    25
100
AcDbVertex
100
AcDb2dVertex
 10
29.87049078065009
 20
134.2191268736134
 30
0.0
  0
VERTEX
  5
71
330
69
100
AcDbEntity
  8
0
 62
     7
420
 16777215
370
    25
100
AcDbVertex
100
AcDb2dVertex
 10
29.87049078065009
 20
141.8245395857105
 30
0.0
  0
VERTEX
  5
72
330
69
100
AcDbEntity
  8
0
 62
     7
420
 16777215
370
    25
100
AcDbVertex
100
AcDb2dVertex
 10
34.79406622010464
 20
134.2191268736134
 30
0.0
  0
VERTEX
  5
73
330
69
100
AcDbEntity
  8
0
 62
     7
420
 16777215
370
    25
100
AcDbVertex
100
AcDb2dVertex
 10
36.42596031266319
 20
134.2191268736134
 30
0.0
  0
VERTEX
  5
74
330
69
100
AcDbEntity
  8
0
 62
     7
420
 16777215
370
    25
100
AcDbVertex
100
AcDb2dVertex
 10
36.42596031266319
 20
143.2758705717335
 30
0.0
  0
SEQEND
  5
76
330
69
100
AcDbEntity
  8
0
 62
     7
420
 16777215
370
    25
  0
HATCH
  5
75
330
65
100
AcDbEntity
  8
0
 62
     7
420
 16777215
100
AcDbHatch
 10
0.0
 20
0.0
 30
0.0
210
0.0
220
0.0
230
1.0
  2
SOLID
 70
     1
 71
     0
 91
        1
 92
        1
 93
       10
 72
     1
 10
36.42596031266319
 20
143.2758705717335
 11
35.24039556580713
 21
143.2758705717335
 72
     1
 10
35.24039556580713
 20
143.2758705717335
 11
35.24039556580713
 21
135.7960267454394
 72
     1
 10
35.24039556580713
 20
135.7960267454394
 11
30.31682012635419
 21
143.2758705717335
 72
     1
 10
30.31682012635419
 20
143.2758705717335
 11
28.68493330079309
 21
143.2758705717335
 72
     1
 10
28.68493330079309
 20
143.2758705717335
 11
28.68493330079309
 21
134.2191268736134
 72
     1
 10
28.68493330079309
 20
134.2191268736134
 11
29.87049078065009
 21
134.2191268736134
 72
     1
 10
29.87049078065009
 20
134.2191268736134
 11
29.87049078065009
 21
141.8245395857105
 72
     1
 10
29.87049078065009
 20
141.8245395857105
 11
34.79406622010464
 21
134.2191268736134
 72
     1
 10
34.79406622010464
 20
134.2191268736134
 11
36.42596031266319
 21
134.2191268736134
 72
     1
 10
36.42596031266319
 20
134.2191268736134
 11
36.42596031266319
 21
143.2758705717335
 97
        0
 75
     2
 76
     1
 98
        0
  0
ENDBLK
  5
68
330
65
100
AcDbEntity
  8
0
100
AcDbBlockEnd
  0
BLOCK
  5
79
330
77
100
AcDbEntity
  8
0
100
AcDbBlockBegin
  2
block 9
 70
     0
 10
0.0
 20
0.0
 30
0.0
  3
block 9
  1

  0
SPLINE
  5
7B
330
77
100
AcDbEntity
  8
0
 62
     7
420
 16777215
370
    25
100
AcDbSpline
210
0.0
220
0.0
230
1.0
 70
    11
 71
     3
 72
    89
 73
    85
 74
     0
 42
0.0000000001
 43
0.0000000001
 12
1.0
 22
0.0
 32
0.0
 13
1.0
 23
0.0
 33
0.0
 40
0.0
 40
0.0
 40
0.0
 40
0.0
 40
1.0
 40
1.0
 40
1.0
 40
2.0
 40
2.0
 40
2.0
 40
3.0
 40
3.0
 40
3.0
 40
4.0
 40
4.0
 40
4.0
 40
5.0
 40
5.0
 40
5.0
 40
6.0
 40
6.0
 40
6.0
 40
7.0
 40
7.0
 40
7.0
 40
8.0
 40
8.0
 40
8.0
 40
9.0
 40
9.0
 40
9.0
 40
10.0
 40
10.0
 40
10.0
 40
11.0
 40
11.0
 40
11.0
 40
12.0
 40
12.0
 40
12.0
 40
13.0
 40
13.0
 40
13.0
 40
14.0
 40
14.0
 40
14.0
 40
15.0
 40
15.0
 40
15.0
 40
16.0
 40
16.0
 40
16.0
 40
17.0
 40
17.0
 40
17.0
 40
18.0
 40
18.0
 40
18.0
 40
19.0
 40
19.0
 40
19.0
 40
20.0
 40
20.0
 40
20.0
 40
21.0
 40
21.0
 40
21.0
 40
22.0
 40
22.0
 40
22.0
 40
23.0
 40
23.0
 40
23.0
 40
24.0
 40
24.0
 40
24.0
 40
25.0
 40
25.0
 40
25.0
 40
26.0
 40
26.0
 40
26.0
 40
27.0
 40
27.0
 40
27.0
 40
28.0
 40
28.0
 40
28.0
 40
28.0
 10
46.85891361314011
 20
136.6333302885304
 30
0.0
 10
46.85891361314011
 20
135.6657827574027
 30
0.0
 10
46.58460622864848
 20
134.9982750517145
 30
0.0
 10
46.0359938819992
 20
134.6307974821345
 30
0.0
 10
45.48738396236062
 20
134.2633199156865
 30
0.0
 10
44.63192020045062
 20
134.0795811308967
 30
0.0
 10
43.4696025962676
 20
134.0795811277636
 30
0.0
 10
42.72571144862045
 20
134.0795811273295
 30
0.0
 10
41.80517170703942
 20
134.1540048788744
 30
0.0
 10
40.70793974632534
 20
134.3028523823996
 30
0.0
 10
40.70793974281236
 20
134.3028523827808
 30
0.0
 10
40.70793974384582
 20
135.4332000539515
 30
0.0
 10
40.70793974384582
 20
135.4332000539515
 30
0.0
 10
41.80517170251352
 20
135.2006173518577
 30
0.0
 10
42.75361187152045
 20
135.0843260008109
 30
0.0
 10
43.55328205186123
 20
135.0843260008106
 30
0.0
 10
44.19486663781902
 20
135.0843260007839
 30
0.0
 10
44.68537351141536
 20
135.15642871209
 30
0.0
 10
45.0247790355827
 20
135.3006306601565
 30
0.0
 10
45.36417929411308
 20
135.4448369854235
 30
0.0
 10
45.5338757900674
 20
135.7355653523047
 30
0.0
 10
45.53387579041712
 20
136.1728157608125
 30
0.0
 10
45.53387579041712
 20
136.1728157617132
 30
0.0
 10
45.53387579041712
 20
137.3450310373656
 30
0.0
 10
45.53387579041712
 20
137.3450310373656
 30
0.0
 10
45.53387578961404
 20
137.7264612237904
 30
0.0
 10
45.42461405809652
 20
137.9985763881874
 30
0.0
 10
45.20609786286651
 20
138.1613862198857
 30
0.0
 10
44.98758153126744
 20
138.3242057770834
 30
0.0
 10
44.59472521601977
 20
138.4056058288724
 30
0.0
 10
44.02751185634015
 20
138.4056058317437
 30
0.0
 10
44.02751184182844
 20
138.4056058317437
 30
0.0
 10
42.9674820526306
 20
138.4056061080359
 30
0.0
 10
42.9674820526306
 20
138.4056061080359
 30
0.0
 10
42.05624970322853
 20
138.4056290492694
 30
0.0
 10
41.42160254731998
 20
138.5893446644553
 30
0.0
 10
41.06360846073827
 20
138.9568221621156
 30
0.0
 10
40.70561187914694
 20
139.3242997547355
 30
0.0
 10
40.52661117724062
 20
139.8662143494347
 30
0.0
 10
40.52661117631111
 20
140.5825465915455
 30
0.0
 10
40.52661117631111
 20
140.5825465939563
 30
0.0
 10
40.52661117631111
 20
141.3082290464654
 30
0.0
 10
40.52661117631111
 20
141.3082290464654
 30
0.0
 10
40.52661117631144
 20
142.0245709806724
 30
0.0
 10
40.77999687272506
 20
142.5548390013036
 30
0.0
 10
41.28676826555007
 20
142.8990815550144
 30
0.0
 10
41.79356030507086
 20
143.2432993746808
 30
0.0
 10
42.72576674639733
 20
143.4154163176628
 30
0.0
 10
44.08330057219111
 20
143.4154163175929
 30
0.0
 10
44.73420560846921
 20
143.4154163175836
 30
0.0
 10
45.51062139427845
 20
143.3642469603896
 30
0.0
 10
46.41258426463628
 20
143.2619034013364
 30
0.0
 10
46.41258426650298
 20
143.26190340116
 30
0.0
 10
46.41258426743698
 20
142.2431913572588
 30
0.0
 10
46.41258426743698
 20
142.2431913572588
 30
0.0
 10
45.38053349232451
 20
142.4013468434817
 30
0.0
 10
44.57152682102109
 20
142.4804297904449
 30
0.0
 10
43.98567079416499
 20
142.4804297834661
 30
0.0
 10
43.12090288580741
 20
142.4804297782674
 30
0.0
 10
42.54671799826653
 20
142.3943788291585
 30
0.0
 10
42.26311613160362
 20
142.2222769361747
 30
0.0
 10
41.97950456731852
 20
142.0501411255406
 30
0.0
 10
41.8377060519968
 20
141.7594369710756
 30
0.0
 10
41.83770605164707
 20
141.3500966474666
 30
0.0
 10
41.83770605164707
 20
141.3500966466254
 30
0.0
 10
41.83770605164707
 20
140.3174174308747
 30
0.0
 10
41.83770605164707
 20
140.3174174308747
 30
0.0
 10
41.83770605178825
 20
140.0011092188997
 30
0.0
 10
41.94928596588301
 20
139.7708519559146
 30
0.0
 10
42.17245548325705
 20
139.6266456419241
 30
0.0
 10
42.39562499673467
 20
139.4824393304235
 30
0.0
 10
42.79080677601323
 20
139.4103507073664
 30
0.0
 10
43.35801293271291
 20
139.4103507047907
 30
0.0
 10
43.35801294741712
 20
139.4103507047907
 30
0.0
 10
44.44594801026078
 20
139.4103504795235
 30
0.0
 10
44.44594801026078
 20
139.4103504795235
 30
0.0
 10
45.38506748196418
 20
139.4103317722376
 30
0.0
 10
46.02204608929481
 20
139.2405838999164
 30
0.0
 10
46.35679306114723
 20
138.9009922992045
 30
0.0
 10
46.69154252260358
 20
138.5614102975136
 30
0.0
 10
46.85891361131352
 20
138.024156266708
 30
0.0
 10
46.85891361314011
 20
137.2892011141313
 30
0.0
 10
46.85891361314011
 20
137.2892011141313
 30
0.0
 10
46.85891361314011
 20
136.6333302885304
 30
0.0
 10
46.85891361314011
 20
136.6333302885304
 30
0.0
  0
HATCH
  5
7C
330
77
100
AcDbEntity
  8
0
 62
     7
420
 16777215
100
AcDbHatch
 10
0.0
 20
0.0
 30
0.0
210
0.0
220
0.0
230
1.0
  2
SOLID
 70
     1
 71
     0
 91
        1
 92
        1
 93
        1
 72
     4
 94
        3
 73
     0
 74
     1
 95
       89
 96
       85
 40
0.0
 40
0.0
 40
0.0
 40
0.0
 40
1.0
 40
1.0
 40
1.0
 40
2.0
 40
2.0
 40
2.0
 40
3.0
 40
3.0
 40
3.0
 40
4.0
 40
4.0
 40
4.0
 40
5.0
 40
5.0
 40
5.0
 40
6.0
 40
6.0
 40
6.0
 40
7.0
 40
7.0
 40
7.0
 40
8.0
 40
8.0
 40
8.0
 40
9.0
 40
9.0
 40
9.0
 40
10.0
 40
10.0
 40
10.0
 40
11.0
 40
11.0
 40
11.0
 40
12.0
 40
12.0
 40
12.0
 40
13.0
 40
13.0
 40
13.0
 40
14.0
 40
14.0
 40
14.0
 40
15.0
 40
15.0
 40
15.0
 40
16.0
 40
16.0
 40
16.0
 40
17.0
 40
17.0
 40
17.0
 40
18.0
 40
18.0
 40
18.0
 40
19.0
 40
19.0
 40
19.0
 40
20.0
 40
20.0
 40
20.0
 40
21.0
 40
21.0
 40
21.0
 40
22.0
 40
22.0
 40
22.0
 40
23.0
 40
23.0
 40
23.0
 40
24.0
 40
24.0
 40
24.0
 40
25.0
 40
25.0
 40
25.0
 40
26.0
 40
26.0
 40
26.0
 40
27.0
 40
27.0
 40
27.0
 40
28.0
 40
28.0
 40
28.0
 40
28.0
 10
46.85891361314011
 20
136.6333302885304
 10
46.85891361314011
 20
135.6657827574027
 10
46.58460622864848
 20
134.9982750517145
 10
46.0359938819992
 20
134.6307974821345
 10
45.48738396236062
 20
134.2633199156865
 10
44.63192020045062
 20
134.0795811308967
 10
43.4696025962676
 20
134.0795811277636
 10
42.72571144862045
 20
134.0795811273295
 10
41.80517170703942
 20
134.1540048788744
 10
40.70793974632534
 20
134.3028523823996
 10
40.70793974281236
 20
134.3028523827808
 10
40.70793974384582
 20
135.4332000539515
 10
40.70793974384582
 20
135.4332000539515
 10
41.80517170251352
 20
135.2006173518577
 10
42.75361187152045
 20
135.0843260008109
 10
43.55328205186123
 20
135.0843260008106
 10
44.19486663781902
 20
135.0843260007839
 10
44.68537351141536
 20
135.15642871209
 10
45.0247790355827
 20
135.3006306601565
 10
45.36417929411308
 20
135.4448369854235
 10
45.5338757900674
 20
135.7355653523047
 10
45.53387579041712
 20
136.1728157608125
 10
45.53387579041712
 20
136.1728157617132
 10
45.53387579041712
 20
137.3450310373656
 10
45.53387579041712
 20
137.3450310373656
 10
45.53387578961404
 20
137.7264612237904
 10
45.42461405809652
 20
137.9985763881874
 10
45.20609786286651
 20
138.1613862198857
 10
44.98758153126744
 20
138.3242057770834
 10
44.59472521601977
 20
138.4056058288724
 10
44.02751185634015
 20
138.4056058317437
 10
44.02751184182844
 20
138.4056058317437
 10
42.9674820526306
 20
138.4056061080359
 10
42.9674820526306
 20
138.4056061080359
 10
42.05624970322853
 20
138.4056290492694
 10
41.42160254731998
 20
138.5893446644553
 10
41.06360846073827
 20
138.9568221621156
 10
40.70561187914694
 20
139.3242997547355
 10
40.52661117724062
 20
139.8662143494347
 10
40.52661117631111
 20
140.5825465915455
 10
40.52661117631111
 20
140.5825465939563
 10
40.52661117631111
 20
141.3082290464654
 10
40.52661117631111
 20
141.3082290464654
 10
40.52661117631144
 20
142.0245709806724
 10
40.77999687272506
 20
142.5548390013036
 10
41.28676826555007
 20
142.8990815550144
 10
41.79356030507086
 20
143.2432993746808
 10
42.72576674639733
 20
143.4154163176628
 10
44.08330057219111
 20
143.4154163175929
 10
44.73420560846921
 20
143.4154163175836
 10
45.51062139427845
 20
143.3642469603896
 10
46.41258426463628
 20
143.2619034013364
 10
46.41258426650298
 20
143.26190340116
 10
46.41258426743698
 20
142.2431913572588
 10
46.41258426743698
 20
142.2431913572588
 10
45.38053349232451
 20
142.4013468434817
 10
44.57152682102109
 20
142.4804297904449
 10
43.98567079416499
 20
142.4804297834661
 10
43.12090288580741
 20
142.4804297782674
 10
42.54671799826653
 20
142.3943788291585
 10
42.26311613160362
 20
142.2222769361747
 10
41.97950456731852
 20
142.0501411255406
 10
41.8377060519968
 20
141.7594369710756
 10
41.83770605164707
 20
141.3500966474666
 10
41.83770605164707
 20
141.3500966466254
 10
41.83770605164707
 20
140.3174174308747
 10
41.83770605164707
 20
140.3174174308747
 10
41.83770605178825
 20
140.0011092188997
 10
41.94928596588301
 20
139.7708519559146
 10
42.17245548325705
 20
139.6266456419241
 10
42.39562499673467
 20
139.4824393304235
 10
42.79080677601323
 20
139.4103507073664
 10
43.35801293271291
 20
139.4103507047907
 10
43.35801294741712
 20
139.4103507047907
 10
44.44594801026078
 20
139.4103504795235
 10
44.44594801026078
 20
139.4103504795235
 10
45.38506748196418
 20
139.4103317722376
 10
46.02204608929481
 20
139.2405838999164
 10
46.35679306114723
 20
138.9009922992045
 10
46.69154252260358
 20
138.5614102975136
 10
46.85891361131352
 20
138.024156266708
 10
46.85891361314011
 20
137.2892011141313
 10
46.85891361314011
 20
137.2892011141313
 10
46.85891361314011
 20
136.6333302885304
 10
46.85891361314011
 20
136.6333302885304
 97
        0
 97
        0
 75
     2
 76
     1
 98
        0
  0
ENDBLK
  5
7A
330
77
100
AcDbEntity
  8
0
100
AcDbBlockEnd
  0
BLOCK
  5
7F
330
7D
100
AcDbEntity
  8
0
100
AcDbBlockBegin
  2
block 10
 70
     0
 10
0.0
 20
0.0
 30
0.0
  3
block 10
  1

  0
SPLINE
  5
81
330
7D
100
AcDbEntity
  8
0
 62
     7
420
 16777215
370
    25
100
AcDbSpline
210
0.0
220
0.0
230
1.0
 70
     8
 71
     3
 72
    59
 73
    55
 74
     0
 42
0.0000000001
 43
0.0000000001
 12
1.0
 22
0.0
 32
0.0
 13
1.0
 23
0.0
 33
0.0
 40
0.0
 40
0.0
 40
0.0
 40
0.0
 40
1.0
 40
1.0
 40
1.0
 40
2.0
 40
2.0
 40
2.0
 40
3.0
 40
3.0
 40
3.0
 40
4.0
 40
4.0
 40
4.0
 40
5.0
 40
5.0
 40
5.0
 40
6.0
 40
6.0
 40
6.0
 40
7.0
 40
7.0
 40
7.0
 40
8.0
 40
8.0
 40
8.0
 40
9.0
 40
9.0
 40
9.0
 40
10.0
 40
10.0
 40
10.0
 40
11.0
 40
11.0
 40
11.0
 40
12.0
 40
12.0
 40
12.0
 40
13.0
 40
13.0
 40
13.0
 40
14.0
 40
14.0
 40
14.0
 40
15.0
 40
15.0
 40
15.0
 40
16.0
 40
16.0
 40
16.0
 40
17.0
 40
17.0
 40
17.0
 40
18.0
 40
18.0
 40
18.0
 40
18.0
 10
54.41863143998312
 20
134.0795811277636
 30
0.0
 10
56.78045917588442
 20
134.0795811277636
 30
0.0
 10
57.96136093216997
 20
134.8982617765675
 30
0.0
 10
57.96136093216997
 20
136.5356424528376
 30
0.0
 10
57.96136093216997
 20
136.5356424528376
 30
0.0
 10
57.96136093216997
 20
143.2758705717335
 30
0.0
 10
57.96136093216997
 20
143.2758705717335
 30
0.0
 10
57.96136093216997
 20
143.2758705717335
 30
0.0
 10
56.66422596055283
 20
143.2758705717335
 30
0.0
 10
56.66422596055283
 20
143.2758705717335
 30
0.0
 10
56.66422596055283
 20
143.2758705717335
 30
0.0
 10
56.66422596052523
 20
136.5495853998027
 30
0.0
 10
56.66422596047069
 20
136.5495853998538
 30
0.0
 10
56.66422596037251
 20
135.9541844736703
 30
0.0
 10
56.4712781093471
 20
135.5448437023007
 30
0.0
 10
56.08538532334548
 20
135.321569271685
 30
0.0
 10
55.69950287110733
 20
135.0982883278336
 30
0.0
 10
55.15321354465485
 20
134.9866575447515
 30
0.0
 10
54.44651248253065
 20
134.9866575437797
 30
0.0
 10
53.73982597033795
 20
134.9866575445767
 30
0.0
 10
53.18656516963624
 20
135.0982883276568
 30
0.0
 10
52.78673492509091
 20
135.3215692716846
 30
0.0
 10
52.38689014616372
 20
135.544840526596
 30
0.0
 10
52.18697986784385
 20
135.9541760047811
 30
0.0
 10
52.18697986680237
 20
136.5495853955717
 30
0.0
 10
52.18697986680237
 20
136.5495853955717
 30
0.0
 10
52.18697986680237
 20
143.2758705717335
 30
0.0
 10
52.18697986680237
 20
143.2758705717335
 30
0.0
 10
52.18697986680237
 20
143.2758705717335
 30
0.0
 10
50.88982067185567
 20
143.2758705717335
 30
0.0
 10
50.88982067185567
 20
143.2758705717335
 30
0.0
 10
50.88982067185567
 20
143.2758705717335
 30
0.0
 10
50.88982067185567
 20
136.5356424528376
 30
0.0
 10
50.88982067185567
 20
136.5356424521395
 30
0.0
 10
50.88982067195064
 20
136.0332700159214
 30
0.0
 10
50.9921157845606
 20
135.6099722103687
 30
0.0
 10
51.19668178635855
 20
135.2657393461476
 30
0.0
 10
51.19668178635855
 20
135.2657393461476
 30
0.0
 10
51.19749335253974
 20
135.266210964277
 30
0.0
 10
51.19749335253974
 20
135.266210964277
 30
0.0
 10
51.3933770612888
 20
134.9291319090207
 30
0.0
 10
51.69086599982065
 20
134.662653096581
 30
0.0
 10
52.04738958383296
 20
134.5049075708478
 30
0.0
 10
52.04738958383296
 20
134.5049075708478
 30
0.0
 10
52.04767274269565
 20
134.5055389998535
 30
0.0
 10
52.04767274269565
 20
134.5055389998535
 30
0.0
 10
52.39866489794117
 20
134.3460289057235
 30
0.0
 10
52.76904869076024
 20
134.2332075083324
 30
0.0
 10
53.14936215944407
 20
134.1699569849316
 30
0.0
 10
53.14936215944407
 20
134.1699569849316
 30
0.0
 10
53.14925246425247
 20
134.1692641526751
 30
0.0
 10
53.14925246425247
 20
134.1692641526751
 30
0.0
 10
53.56935281654613
 20
134.10609560642
 30
0.0
 10
53.99381010901084
 20
134.0764238471507
 30
0.0
 10
54.4186132595809
 20
134.0805292702412
 30
0.0
  0
HATCH
  5
82
330
7D
100
AcDbEntity
  8
0
 62
     7
420
 16777215
100
AcDbHatch
 10
0.0
 20
0.0
 30
0.0
210
0.0
220
0.0
230
1.0
  2
SOLID
 70
     1
 71
     0
 91
        1
 92
        1
 93
        2
 72
     4
 94
        3
 73
     0
 74
     0
 95
       59
 96
       55
 40
0.0
 40
0.0
 40
0.0
 40
0.0
 40
0.3527777776895833
 40
0.3527777776895833
 40
0.3527777776895833
 40
0.7055555553791667
 40
0.7055555553791667
 40
0.7055555553791667
 40
1.05833333306875
 40
1.05833333306875
 40
1.05833333306875
 40
1.411111110758333
 40
1.411111110758333
 40
1.411111110758333
 40
1.763888888447917
 40
1.763888888447917
 40
1.763888888447917
 40
2.1166666661375
 40
2.1166666661375
 40
2.1166666661375
 40
2.469444443827083
 40
2.469444443827083
 40
2.469444443827083
 40
2.822222221516667
 40
2.822222221516667
 40
2.822222221516667
 40
3.17499999920625
 40
3.17499999920625
 40
3.17499999920625
 40
3.527777776895833
 40
3.527777776895833
 40
3.527777776895833
 40
3.880555554585417
 40
3.880555554585417
 40
3.880555554585417
 40
4.233333332275
 40
4.233333332275
 40
4.233333332275
 40
4.586111109964584
 40
4.586111109964584
 40
4.586111109964584
 40
4.938888887654167
 40
4.938888887654167
 40
4.938888887654167
 40
5.29166666534375
 40
5.29166666534375
 40
5.29166666534375
 40
5.644444443033334
 40
5.644444443033334
 40
5.644444443033334
 40
5.997222220722917
 40
5.997222220722917
 40
5.997222220722917
 40
6.349999998412501
 40
6.349999998412501
 40
6.349999998412501
 40
6.349999998412501
 10
54.41863143998312
 20
134.0795811277636
 10
56.78045917588442
 20
134.0795811277636
 10
57.96136093216997
 20
134.8982617765675
 10
57.96136093216997
 20
136.5356424528376
 10
57.96136093216997
 20
136.5356424528376
 10
57.96136093216997
 20
143.2758705717335
 10
57.96136093216997
 20
143.2758705717335
 10
57.96136093216997
 20
143.2758705717335
 10
56.66422596055283
 20
143.2758705717335
 10
56.66422596055283
 20
143.2758705717335
 10
56.66422596055283
 20
143.2758705717335
 10
56.66422596052523
 20
136.5495853998027
 10
56.66422596047069
 20
136.5495853998538
 10
56.66422596037251
 20
135.9541844736703
 10
56.4712781093471
 20
135.5448437023007
 10
56.08538532334548
 20
135.321569271685
 10
55.69950287110733
 20
135.0982883278336
 10
55.15321354465485
 20
134.9866575447515
 10
54.44651248253065
 20
134.9866575437797
 10
53.73982597033795
 20
134.9866575445767
 10
53.18656516963624
 20
135.0982883276568
 10
52.78673492509091
 20
135.3215692716846
 10
52.38689014616372
 20
135.544840526596
 10
52.18697986784385
 20
135.9541760047811
 10
52.18697986680237
 20
136.5495853955717
 10
52.18697986680237
 20
136.5495853955717
 10
52.18697986680237
 20
143.2758705717335
 10
52.18697986680237
 20
143.2758705717335
 10
52.18697986680237
 20
143.2758705717335
 10
50.88982067185567
 20
143.2758705717335
 10
50.88982067185567
 20
143.2758705717335
 10
50.88982067185567
 20
143.2758705717335
 10
50.88982067185567
 20
136.5356424528376
 10
50.88982067185567
 20
136.5356424521395
 10
50.88982067195064
 20
136.0332700159214
 10
50.9921157845606
 20
135.6099722103687
 10
51.19668178635855
 20
135.2657393461476
 10
51.19668178635855
 20
135.2657393461476
 10
51.19749335253974
 20
135.266210964277
 10
51.19749335253974
 20
135.266210964277
 10
51.3933770612888
 20
134.9291319090207
 10
51.69086599982065
 20
134.662653096581
 10
52.04738958383296
 20
134.5049075708478
 10
52.04738958383296
 20
134.5049075708478
 10
52.04767274269565
 20
134.5055389998535
 10
52.04767274269565
 20
134.5055389998535
 10
52.39866489794117
 20
134.3460289057235
 10
52.76904869076024
 20
134.2332075083324
 10
53.14936215944407
 20
134.1699569849316
 10
53.14936215944407
 20
134.1699569849316
 10
53.14925246425247
 20
134.1692641526751
 10
53.14925246425247
 20
134.1692641526751
 10
53.56935281654613
 20
134.10609560642
 10
53.99381010901084
 20
134.0764238471507
 10
54.4186132595809
 20
134.0805292702412
 97
        0
 72
     1
 10
54.4186132595809
 20
134.0805292702412
 11
54.41863143998312
 21
134.0795811277636
 97
        0
 75
     2
 76
     1
 98
        0
  0
ENDBLK
  5
80
330
7D
100
AcDbEntity
  8
0
100
AcDbBlockEnd
  0
BLOCK
  5
85
330
83
100
AcDbEntity
  8
0
100
AcDbBlockBegin
  2
block 11
 70
     0
 10
0.0
 20
0.0
 30
0.0
  3
block 11
  1

  0
POLYLINE
  5
87
330
83
100
AcDbEntity
  8
0
 62
     7
420
 16777215
370
    25
100
AcDb2dPolyline
 66
     1
 10
0.0
 20
0.0
 30
0.0
  0
VERTEX
  5
88
330
87
100
AcDbEntity
  8
0
 62
     7
420
 16777215
370
    25
100
AcDbVertex
100
AcDb2dVertex
 10
72.07654102402894
 20
143.2758705717335
 30
0.0
  0
VERTEX
  5
89
330
87
100
AcDbEntity
  8
0
 62
     7
420
 16777215
370
    25
100
AcDbVertex
100
AcDb2dVertex
 10
70.12385013657826
 20
143.2758705717335
 30
0.0
  0
VERTEX
  5
8A
330
87
100
AcDbEntity
  8
0
 62
     7
420
 16777215
370
    25
100
AcDbVertex
100
AcDb2dVertex
 10
67.37613510209344
 20
135.7262538725147
 30
0.0
  0
VERTEX
  5
8B
330
87
100
AcDbEntity
  8
0
 62
     7
420
 16777215
370
    25
100
AcDbVertex
100
AcDb2dVertex
 10
67.33429657059834
 20
135.7402161985646
 30
0.0
  0
VERTEX
  5
8C
330
87
100
AcDbEntity
  8
0
 62
     7
420
 16777215
370
    25
100
AcDbVertex
100
AcDb2dVertex
 10
64.43314613419702
 20
143.2758705717335
 30
0.0
  0
VERTEX
  5
8D
330
87
100
AcDbEntity
  8
0
 62
     7
420
 16777215
370
    25
100
AcDbVertex
100
AcDb2dVertex
 10
62.41071144181428
 20
143.2758705717335
 30
0.0
  0
VERTEX
  5
8E
330
87
100
AcDbEntity
  8
0
 62
     7
420
 16777215
370
    25
100
AcDbVertex
100
AcDb2dVertex
 10
62.41071144181428
 20
134.2191268736134
 30
0.0
  0
VERTEX
  5
8F
330
87
100
AcDbEntity
  8
0
 62
     7
420
 16777215
370
    25
100
AcDbVertex
100
AcDb2dVertex
 10
63.62416935044443
 20
134.2191268736134
 30
0.0
  0
VERTEX
  5
90
330
87
100
AcDbEntity
  8
0
 62
     7
420
 16777215
370
    25
100
AcDbVertex
100
AcDb2dVertex
 10
63.62416935044443
 20
141.8803646665825
 30
0.0
  0
VERTEX
  5
91
330
87
100
AcDbEntity
  8
0
 62
     7
420
 16777215
370
    25
100
AcDbVertex
100
AcDb2dVertex
 10
63.69390831071107
 20
141.8803646665825
 30
0.0
  0
VERTEX
  5
92
330
87
100
AcDbEntity
  8
0
 62
     7
420
 16777215
370
    25
100
AcDbVertex
100
AcDb2dVertex
 10
66.69269813615058
 20
134.2191268736134
 30
0.0
  0
VERTEX
  5
93
330
87
100
AcDbEntity
  8
0
 62
     7
420
 16777215
370
    25
100
AcDbVertex
100
AcDb2dVertex
 10
67.90615120011533
 20
134.2191268736134
 30
0.0
  0
VERTEX
  5
94
330
87
100
AcDbEntity
  8
0
 62
     7
420
 16777215
370
    25
100
AcDbVertex
100
AcDb2dVertex
 10
70.82124458390433
 20
141.8803646665825
 30
0.0
  0
VERTEX
  5
95
330
87
100
AcDbEntity
  8
0
 62
     7
420
 16777215
370
    25
100
AcDbVertex
100
AcDb2dVertex
 10
70.89098354417034
 20
141.8803646665825
 30
0.0
  0
VERTEX
  5
96
330
87
100
AcDbEntity
  8
0
 62
     7
420
 16777215
370
    25
100
AcDbVertex
100
AcDb2dVertex
 10
70.89098354417034
 20
134.2191268736134
 30
0.0
  0
VERTEX
  5
97
330
87
100
AcDbEntity
  8
0
 62
     7
420
 16777215
370
    25
100
AcDbVertex
100
AcDb2dVertex
 10
72.07654102402894
 20
134.2191268736134
 30
0.0
  0
VERTEX
  5
98
330
87
100
AcDbEntity
  8
0
 62
     7
420
 16777215
370
    25
100
AcDbVertex
100
AcDb2dVertex
 10
72.07654102402894
 20
143.2758705717335
 30
0.0
  0
SEQEND
  5
9A
330
87
100
AcDbEntity
  8
0
 62
     7
420
 16777215
370
    25
  0
HATCH
  5
99
330
83
100
AcDbEntity
  8
0
 62
     7
420
 16777215
100
AcDbHatch
 10
0.0
 20
0.0
 30
0.0
210
0.0
220
0.0
230
1.0
  2
SOLID
 70
     1
 71
     0
 91
        1
 92
        1
 93
       16
 72
     1
 10
72.07654102402894
 20
143.2758705717335
 11
70.12385013657826
 21
143.2758705717335
 72
     1
 10
70.12385013657826
 20
143.2758705717335
 11
67.37613510209344
 21
135.7262538725147
 72
     1
 10
67.37613510209344
 20
135.7262538725147
 11
67.33429657059834
 21
135.7402161985646
 72
     1
 10
67.33429657059834
 20
135.7402161985646
 11
64.43314613419702
 21
143.2758705717335
 72
     1
 10
64.43314613419702
 20
143.2758705717335
 11
62.41071144181428
 21
143.2758705717335
 72
     1
 10
62.41071144181428
 20
143.2758705717335
 11
62.41071144181428
 21
134.2191268736134
 72
     1
 10
62.41071144181428
 20
134.2191268736134
 11
63.62416935044443
 21
134.2191268736134
 72
     1
 10
63.62416935044443
 20
134.2191268736134
 11
63.62416935044443
 21
141.8803646665825
 72
     1
 10
63.62416935044443
 20
141.8803646665825
 11
63.69390831071107
 21
141.8803646665825
 72
     1
 10
63.69390831071107
 20
141.8803646665825
 11
66.69269813615058
 21
134.2191268736134
 72
     1
 10
66.69269813615058
 20
134.2191268736134
 11
67.90615120011533
 21
134.2191268736134
 72
     1
 10
67.90615120011533
 20
134.2191268736134
 11
70.82124458390433
 21
141.8803646665825
 72
     1
 10
70.82124458390433
 20
141.8803646665825
 11
70.89098354417034
 21
141.8803646665825
 72
     1
 10
70.89098354417034
 20
141.8803646665825
 11
70.89098354417034
 21
134.2191268736134
 72
     1
 10
70.89098354417034
 20
134.2191268736134
 11
72.07654102402894
 21
134.2191268736134
 72
     1
 10
72.07654102402894
 20
134.2191268736134
 11
72.07654102402894
 21
143.2758705717335
 97
        0
 75
     2
 76
     1
 98
        0
  0
ENDBLK
  5
86
330
83
100
AcDbEntity
  8
0
100
AcDbBlockEnd
  0
BLOCK
  5
9D
330
9B
100
AcDbEntity
  8
0
100
AcDbBlockBegin
  2
block 12
 70
     0
 10
0.0
 20
0.0
 30
0.0
  3
block 12
  1

  0
POLYLINE
  5
9F
330
9B
100
AcDbEntity
  8
0
 62
     7
420
 16777215
370
    25
100
AcDb2dPolyline
 66
     1
 10
0.0
 20
0.0
 30
0.0
  0
VERTEX
  5
A0
330
9F
100
AcDbEntity
  8
0
 62
     7
420
 16777215
370
    25
100
AcDbVertex
100
AcDb2dVertex
 10
82.73265415269059
 20
135.1680708891167
 30
0.0
  0
VERTEX
  5
A1
330
9F
100
AcDbEntity
  8
0
 62
     7
420
 16777215
370
    25
100
AcDbVertex
100
AcDb2dVertex
 10
77.8648844154471
 20
135.1680708891167
 30
0.0
  0
VERTEX
  5
A2
330
9F
100
AcDbEntity
  8
0
 62
     7
420
 16777215
370
    25
100
AcDbVertex
100
AcDb2dVertex
 10
77.8648844154471
 20
138.4195390898006
 30
0.0
  0
VERTEX
  5
A3
330
9F
100
AcDbEntity
  8
0
 62
     7
420
 16777215
370
    25
100
AcDbVertex
100
AcDb2dVertex
 10
82.13289424973601
 20
138.4195390898006
 30
0.0
  0
VERTEX
  5
A4
330
9F
100
AcDbEntity
  8
0
 62
     7
420
 16777215
370
    25
100
AcDbVertex
100
AcDb2dVertex
 10
82.13289424973601
 20
139.3684927946346
 30
0.0
  0
VERTEX
  5
A5
330
9F
100
AcDbEntity
  8
0
 62
     7
420
 16777215
370
    25
100
AcDbVertex
100
AcDb2dVertex
 10
77.8648844154471
 20
139.3684927946346
 30
0.0
  0
VERTEX
  5
A6
330
9F
100
AcDbEntity
  8
0
 62
     7
420
 16777215
370
    25
100
AcDbVertex
100
AcDb2dVertex
 10
77.8648844154471
 20
142.3269120222346
 30
0.0
  0
VERTEX
  5
A7
330
9F
100
AcDbEntity
  8
0
 62
     7
420
 16777215
370
    25
100
AcDbVertex
100
AcDb2dVertex
 10
82.59317623215794
 20
142.3269120222346
 30
0.0
  0
VERTEX
  5
A8
330
9F
100
AcDbEntity
  8
0
 62
     7
420
 16777215
370
    25
100
AcDbVertex
100
AcDb2dVertex
 10
82.59317623215794
 20
143.2758705717335
 30
0.0
  0
VERTEX
  5
A9
330
9F
100
AcDbEntity
  8
0
 62
     7
420
 16777215
370
    25
100
AcDbVertex
100
AcDb2dVertex
 10
76.51194858628429
 20
143.2758705717335
 30
0.0
  0
VERTEX
  5
AA
330
9F
100
AcDbEntity
  8
0
 62
     7
420
 16777215
370
    25
100
AcDbVertex
100
AcDb2dVertex
 10
76.51194858628429
 20
134.2191268736134
 30
0.0
  0
VERTEX
  5
AB
330
9F
100
AcDbEntity
  8
0
 62
     7
420
 16777215
370
    25
100
AcDbVertex
100
AcDb2dVertex
 10
82.73265415269059
 20
134.2191268736134
 30
0.0
  0
VERTEX
  5
AC
330
9F
100
AcDbEntity
  8
0
 62
     7
420
 16777215
370
    25
100
AcDbVertex
100
AcDb2dVertex
 10
82.73265415269059
 20
135.1680708891167
 30
0.0
  0
SEQEND
  5
AE
330
9F
100
AcDbEntity
  8
0
 62
     7
420
 16777215
370
    25
  0
HATCH
  5
AD
330
9B
100
AcDbEntity
  8
0
 62
     7
420
 16777215
100
AcDbHatch
 10
0.0
 20
0.0
 30
0.0
210
0.0
220
0.0
230
1.0
  2
SOLID
 70
     1
 71
     0
 91
        1
 92
        1
 93
       12
 72
     1
 10
82.73265415269059
 20
135.1680708891167
 11
77.8648844154471
 21
135.1680708891167
 72
     1
 10
77.8648844154471
 20
135.1680708891167
 11
77.8648844154471
 21
138.4195390898006
 72
     1
 10
77.8648844154471
 20
138.4195390898006
 11
82.13289424973601
 21
138.4195390898006
 72
     1
 10
82.13289424973601
 20
138.4195390898006
 11
82.13289424973601
 21
139.3684927946346
 72
     1
 10
82.13289424973601
 20
139.3684927946346
 11
77.8648844154471
 21
139.3684927946346
 72
     1
 10
77.8648844154471
 20
139.3684927946346
 11
77.8648844154471
 21
142.3269120222346
 72
     1
 10
77.8648844154471
 20
142.3269120222346
 11
82.59317623215794
 21
142.3269120222346
 72
     1
 10
82.59317623215794
 20
142.3269120222346
 11
82.59317623215794
 21
143.2758705717335
 72
     1
 10
82.59317623215794
 20
143.2758705717335
 11
76.51194858628429
 21
143.2758705717335
 72
     1
 10
76.51194858628429
 20
143.2758705717335
 11
76.51194858628429
 21
134.2191268736134
 72
     1
 10
76.51194858628429
 20
134.2191268736134
 11
82.73265415269059
 21
134.2191268736134
 72
     1
 10
82.73265415269059
 20
134.2191268736134
 11
82.73265415269059
 21
135.1680708891167
 97
        0
 75
     2
 76
     1
 98
        0
  0
ENDBLK
  5
9E
330
9B
100
AcDbEntity
  8
0
100
AcDbBlockEnd
  0
ENDSEC
  0
SECTION
  2
ENTITIES
  0
INSERT
  5
41
330
1F
100
AcDbEntity
  8
0
100
AcDbBlockReference
  2
block 2
 10
0.0
 20
0.0
 30
0.0
  0
ENDSEC
  0
SECTION
  2
OBJECTS
  0
DICTIONARY
  5
C
330
0
100
AcDbDictionary
281
     1
  3
ACAD_GROUP
350
D
  3
ACAD_LAYOUT
350
1A
  3
ACAD_MATERIAL
350
3B
  3
ACAD_MLEADERSTYLE
350
B0
  3
ACAD_MLINESTYLE
350
17
  3
ACAD_PLOTSETTINGS
350
19
  3
ACAD_PLOTSTYLENAME
350
E
  3
ACAD_TABLESTYLE
350
AF
  3
ACAD_VISUALSTYLE
350
2A
  0
SUN
  5
3F
330
29
100
AcDbSun
 90
        1
290
     0
 63
     7
421
 16777215
 40
1.0
291
     1
 91
  2455826
 92
 54000000
292
     0
 70
     2
 71
   256
280
     1
  0
DICTIONARY
  5
D
102
{ACAD_REACTORS
330
C
102
}
330
C
100
AcDbDictionary
281
     1
  0
DICTIONARY
  5
1A
102
{ACAD_REACTORS
330
C
102
}
330
C
100
AcDbDictionary
281
     1
  3
Layout1
350
1E
  3
Layout2
350
26
  3
Model
350
22
  0
DICTIONARY
  5
3B
102
{ACAD_REACTORS
330
C
102
}
330
C
100
AcDbDictionary
281
     1
  3
ByBlock
350
3D
  3
ByLayer
350
3C
  3
Global
350
3E
  0
DICTIONARY
  5
B0
102
{ACAD_REACTORS
330
C
102
}
330
C
100
AcDbDictionary
281
     1
  0
DICTIONARY
  5
17
102
{ACAD_REACTORS
330
C
102
}
330
C
100
AcDbDictionary
281
     1
  3
Standard
350
18
  0
DICTIONARY
  5
19
102
{ACAD_REACTORS
330
C
102
}
330
C
100
AcDbDictionary
281
     1
  0
ACDBDICTIONARYWDFLT
  5
E
102
{ACAD_REACTORS
330
C
102
}
330
C
100
AcDbDictionary
281
     1
  3
Normal
350
F
100
AcDbDictionaryWithDefault
340
F
  0
DICTIONARY
  5
AF
102
{ACAD_REACTORS
330
C
102
}
330
C
100
AcDbDictionary
281
     1
  0
DICTIONARY
  5
2A
102
{ACAD_REACTORS
330
C
102
}
330
C
100
AcDbDictionary
281
     1
  3
2dWireframe
350
2F
  3
3D Hidden
350
31
  3
3dWireframe
350
30
  3
Basic
350
32
  3
Brighten
350
36
  3
ColorChange
350
3A
  3
Conceptual
350
34
  3
Dim
350
35
  3
Facepattern
350
39
  3
Flat
350
2B
  3
FlatWithEdges
350
2C
  3
Gouraud
350
2D
  3
GouraudWithEdges
350
2E
  3
Linepattern
350
38
  3
Realistic
350
33
  3
Thicken
350
37
  0
LAYOUT
  5
1E
102
{ACAD_REACTORS
330
1A
102
}
330
1A
100
AcDbPlotSettings
  1

  2
none_device
  4

  6

 40
0.0
 41
0.0
 42
0.0
 43
0.0
 44
0.0
 45
0.0
 46
0.0
 47
0.0
 48
0.0
 49
0.0
140
0.0
141
0.0
142
1.0
143
1.0
 70
   688
 72
     0
 73
     0
 74
     5
  7

 75
    16
 76
     0
 77
     2
 78
   300
147
1.0
148
0.0
149
0.0
100
AcDbLayout
  1
Layout1
 70
     1
 71
     1
 10
0.0
 20
0.0
 11
12.0
 21
9.0
 12
0.0
 22
0.0
 32
0.0
 14
1.000000000000000E+20
 24
1.000000000000000E+20
 34
1.000000000000000E+20
 15
-1.000000000000000E+20
 25
-1.000000000000000E+20
 35
-1.000000000000000E+20
146
0.0
 13
0.0
 23
0.0
 33
0.0
 16
1.0
 26
0.0
 36
0.0
 17
0.0
 27
1.0
 37
0.0
 76
     0
330
1B
  0
LAYOUT
  5
26
102
{ACAD_REACTORS
330
1A
102
}
330
1A
100
AcDbPlotSettings
  1

  2
none_device
  4

  6

 40
0.0
 41
0.0
 42
0.0
 43
0.0
 44
0.0
 45
0.0
 46
0.0
 47
0.0
 48
0.0
 49
0.0
140
0.0
141
0.0
142
1.0
143
1.0
 70
   688
 72
     0
 73
     0
 74
     5
  7

 75
    16
 76
     0
 77
     2
 78
   300
147
1.0
148
0.0
149
0.0
100
AcDbLayout
  1
Layout2
 70
     1
 71
     2
 10
0.0
 20
0.0
 11
0.0
 21
0.0
 12
0.0
 22
0.0
 32
0.0
 14
0.0
 24
0.0
 34
0.0
 15
0.0
 25
0.0
 35
0.0
146
0.0
 13
0.0
 23
0.0
 33
0.0
 16
1.0
 26
0.0
 36
0.0
 17
0.0
 27
1.0
 37
0.0
 76
     0
330
23
  0
LAYOUT
  5
22
102
{ACAD_REACTORS
330
1A
102
}
330
1A
100
AcDbPlotSettings
  1

  2
none_device
  4

  6

 40
0.0
 41
0.0
 42
0.0
 43
0.0
 44
0.0
 45
0.0
 46
0.0
 47
0.0
 48
0.0
 49
0.0
140
0.0
141
0.0
142
1.0
143
1.0
 70
  1712
 72
     0
 73
     0
 74
     0
  7

 75
     0
 76
     0
 77
     2
 78
   300
147
1.0
148
0.0
149
0.0
100
AcDbLayout
  1
Model
 70
     1
 71
     0
 10
0.0
 20
0.0
 11
12.0
 21
9.0
 12
0.0
 22
0.0
 32
0.0
 14
1.000000000000000E+20
 24
1.000000000000000E+20
 34
1.000000000000000E+20
 15
-1.000000000000000E+20
 25
-1.000000000000000E+20
 35
-1.000000000000000E+20
146
0.0
 13
0.0
 23
0.0
 33
0.0
 16
1.0
 26
0.0
 36
0.0
 17
0.0
 27
1.0
 37
0.0
 76
     0
330
1F
331
29
  0
MATERIAL
  5
3D
102
{ACAD_REACTORS
330
3B
102
}
330
3B
100
AcDbMaterial
  1
ByBlock
 72
     1
 94
      127
  0
MATERIAL
  5
3C
102
{ACAD_REACTORS
330
3B
102
}
330
3B
100
AcDbMaterial
  1
ByLayer
 72
     1
 94
      127
  0
MATERIAL
  5
3E
102
{ACAD_REACTORS
330
3B
102
}
330
3B
100
AcDbMaterial
  1
Global
 72
     1
 94
      127
  0
MLINESTYLE
  5
18
102
{ACAD_REACTORS
330
17
102
}
330
17
100
AcDbMlineStyle
  2
Standard
 70
     0
  3

 62
   256
 51
90.0
 52
90.0
 71
     2
 49
0.5
 62
   256
  6
BYLAYER
 49
-0.5
 62
   256
  6
BYLAYER
  0
ACDBPLACEHOLDER
  5
F
102
{ACAD_REACTORS
330
E
102
}
330
E
  0
VISUALSTYLE
  5
2F
102
{ACAD_REACTORS
330
2A
102
}
330
2A
100
AcDbVisualStyle
  2
2dWireframe
 70
     4
177
     2
291
     0
 71
     0
176
     1
 72
     2
176
     1
 73
     0
176
     1
 90
        0
176
     1
 40
-0.6
176
     1
 41
-30.0
176
     1
 62
     5
 63
     7
421
 16777215
176
     1
 74
     1
176
     1
 91
        4
176
     1
 64
     7
176
     1
 65
   257
176
     1
 75
     1
176
     1
175
     1
176
     1
 42
1.0
176
     1
 92
        0
176
     1
 66
   257
176
     1
 43
1.0
176
     1
 76
     1
176
     1
 77
     6
176
     1
 78
     2
176
     1
 67
     7
176
     1
 79
     5
176
     1
170
     0
176
     1
171
     0
176
     1
290
     0
176
     1
 93
        1
176
     1
 44
0.0
176
     1
173
     0
176
     1
  0
VISUALSTYLE
  5
31
102
{ACAD_REACTORS
330
2A
102
}
330
2A
100
AcDbVisualStyle
  2
3D Hidden
 70
     6
177
     2
291
     0
 71
     1
176
     1
 72
     2
176
     1
 73
     2
176
     1
 90
        0
176
     1
 40
-0.6
176
     1
 41
-30.0
176
     1
 62
     5
 63
     7
421
 16777215
176
     1
 74
     2
176
     1
 91
        2
176
     1
 64
     7
176
     1
 65
   257
176
     1
 75
     2
176
     1
175
     1
176
     1
 42
40.0
176
     1
 92
        0
176
     1
 66
   257
176
     1
 43
1.0
176
     1
 76
     1
176
     1
 77
     6
176
     1
 78
     2
176
     1
 67
     7
176
     1
 79
     3
176
     1
170
     0
176
     1
171
     0
176
     1
290
     0
176
     1
 93
        1
176
     1
 44
0.0
176
     1
173
     0
176
     1
  0
VISUALSTYLE
  5
30
102
{ACAD_REACTORS
330
2A
102
}
330
2A
100
AcDbVisualStyle
  2
3dWireframe
 70
     5
177
     2
291
     0
 71
     0
176
     1
 72
     2
176
     1
 73
     0
176
     1
 90
        0
176
     1
 40
-0.6
176
     1
 41
-30.0
176
     1
 62
     5
 63
     7
421
 16777215
176
     1
 74
     1
176
     1
 91
        4
176
     1
 64
     7
176
     1
 65
   257
176
     1
 75
     1
176
     1
175
     1
176
     1
 42
1.0
176
     1
 92
        0
176
     1
 66
   257
176
     1
 43
1.0
176
     1
 76
     1
176
     1
 77
     6
176
     1
 78
     2
176
     1
 67
     7
176
     1
 79
     5
176
     1
170
     0
176
     1
171
     0
176
     1
290
     0
176
     1
 93
        1
176
     1
 44
0.0
176
     1
173
     0
176
     1
  0
VISUALSTYLE
  5
32
102
{ACAD_REACTORS
330
2A
102
}
330
2A
100
AcDbVisualStyle
  2
Basic
 70
     7
177
     2
291
     1
 71
     1
176
     1
 72
     0
176
     1
 73
     1
176
     1
 90
        0
176
     1
 40
-0.6
176
     1
 41
-30.0
176
     1
 62
     5
 63
     7
421
 16777215
176
     1
 74
     0
176
     1
 91
        4
176
     1
 64
     7
176
     1
 65
   257
176
     1
 75
     1
176
     1
175
     1
176
     1
 42
1.0
176
     1
 92
        8
176
     1
 66
     7
176
     1
 43
1.0
176
     1
 76
     1
176
     1
 77
     6
176
     1
 78
     2
176
     1
 67
     7
176
     1
 79
     5
176
     1
170
     0
176
     1
171
     0
176
     1
290
     0
176
     1
 93
        1
176
     1
 44
0.0
176
     1
173
     0
176
     1
  0
VISUALSTYLE
  5
36
102
{ACAD_REACTORS
330
2A
102
}
330
2A
100
AcDbVisualStyle
  2
Brighten
 70
    12
177
     2
291
     1
 71
     2
176
     1
 72
     2
176
     1
 73
     0
176
     1
 90
        0
176
     1
 40
-0.6
176
     1
 41
-30.0
176
     1
 62
     5
 63
     7
421
 16777215
176
     1
 74
     1
176
     1
 91
        4
176
     1
 64
     7
176
     1
 65
   257
176
     1
 75
     1
176
     1
175
     1
176
     1
 42
1.0
176
     1
 92
        8
176
     1
 66
     7
176
     1
 43
1.0
176
     1
 76
     1
176
     1
 77
     6
176
     1
 78
     2
176
     1
 67
     7
176
     1
 79
     5
176
     1
170
     0
176
     1
171
     0
176
     1
290
     0
176
     1
 93
        1
176
     1
 44
50.0
176
     1
173
     0
176
     1
  0
VISUALSTYLE
  5
3A
102
{ACAD_REACTORS
330
2A
102
}
330
2A
100
AcDbVisualStyle
  2
ColorChange
 70
    16
177
     2
291
     1
 71
     2
176
     1
 72
     2
176
     1
 73
     3
176
     1
 90
        0
176
     1
 40
-0.6
176
     1
 41
-30.0
176
     1
 62
     5
 63
     8
421
  8421504
176
     1
 74
     1
176
     1
 91
        4
176
     1
 64
     7
176
     1
 65
   257
176
     1
 75
     1
176
     1
175
     1
176
     1
 42
1.0
176
     1
 92
        8
176
     1
 66
     8
424
  8421504
176
     1
 43
1.0
176
     1
 76
     1
176
     1
 77
     6
176
     1
 78
     2
176
     1
 67
     7
176
     1
 79
     5
176
     1
170
     0
176
     1
171
     0
176
     1
290
     0
176
     1
 93
        1
176
     1
 44
0.0
176
     1
173
     0
176
     1
  0
VISUALSTYLE
  5
34
102
{ACAD_REACTORS
330
2A
102
}
330
2A
100
AcDbVisualStyle
  2
Conceptual
 70
     9
177
     2
291
     0
 71
     3
176
     1
 72
     2
176
     1
 73
     0
176
     1
 90
        0
176
     1
 40
-0.6
176
     1
 41
-30.0
176
     1
 62
     5
 63
     7
421
 16777215
176
     1
 74
     2
176
     1
 91
        2
176
     1
 64
     7
176
     1
 65
   257
176
     1
 75
     1
176
     1
175
     1
176
     1
 42
40.0
176
     1
 92
        8
176
     1
 66
     7
176
     1
 43
1.0
176
     1
 76
     1
176
     1
 77
     6
176
     1
 78
     2
176
     1
 67
     7
176
     1
 79
     3
176
     1
170
     0
176
     1
171
     0
176
     1
290
     0
176
     1
 93
        1
176
     1
 44
0.0
176
     1
173
     0
176
     1
  0
VISUALSTYLE
  5
35
102
{ACAD_REACTORS
330
2A
102
}
330
2A
100
AcDbVisualStyle
  2
Dim
 70
    11
177
     2
291
     1
 71
     2
176
     1
 72
     2
176
     1
 73
     0
176
     1
 90
        0
176
     1
 40
-0.6
176
     1
 41
-30.0
176
     1
 62
     5
 63
     7
421
 16777215
176
     1
 74
     1
176
     1
 91
        4
176
     1
 64
     7
176
     1
 65
   257
176
     1
 75
     1
176
     1
175
     1
176
     1
 42
1.0
176
     1
 92
        8
176
     1
 66
     7
176
     1
 43
1.0
176
     1
 76
     1
176
     1
 77
     6
176
     1
 78
     2
176
     1
 67
     7
176
     1
 79
     5
176
     1
170
     0
176
     1
171
     0
176
     1
290
     0
176
     1
 93
        1
176
     1
 44
-50.0
176
     1
173
     0
176
     1
  0
VISUALSTYLE
  5
39
102
{ACAD_REACTORS
330
2A
102
}
330
2A
100
AcDbVisualStyle
  2
Facepattern
 70
    15
177
     2
291
     1
 71
     2
176
     1
 72
     2
176
     1
 73
     0
176
     1
 90
        0
176
     1
 40
-0.6
176
     1
 41
-30.0
176
     1
 62
     5
 63
     7
421
 16777215
176
     1
 74
     1
176
     1
 91
        4
176
     1
 64
     7
176
     1
 65
   257
176
     1
 75
     1
176
     1
175
     1
176
     1
 42
1.0
176
     1
 92
        8
176
     1
 66
     7
176
     1
 43
1.0
176
     1
 76
     1
176
     1
 77
     6
176
     1
 78
     2
176
     1
 67
     7
176
     1
 79
     5
176
     1
170
     0
176
     1
171
     0
176
     1
290
     0
176
     1
 93
        1
176
     1
 44
0.0
176
     1
173
     0
176
     1
  0
VISUALSTYLE
  5
2B
102
{ACAD_REACTORS
330
2A
102
}
330
2A
100
AcDbVisualStyle
  2
Flat
 70
     0
177
     2
291
     1
 71
     2
176
     1
 72
     1
176
     1
 73
     1
176
     1
 90
        2
176
     1
 40
-0.6
176
     1
 41
30.0
176
     1
 62
     5
 63
     7
421
 16777215
176
     1
 74
     0
176
     1
 91
        4
176
     1
 64
     7
176
     1
 65
   257
176
     1
 75
     1
176
     1
175
     1
176
     1
 42
1.0
176
     1
 92
        8
176
     1
 66
     7
176
     1
 43
1.0
176
     1
 76
     1
176
     1
 77
     6
176
     1
 78
     2
176
     1
 67
     7
176
     1
 79
     5
176
     1
170
     0
176
     1
171
     0
176
     1
290
     0
176
     1
 93
       13
176
     1
 44
0.0
176
     1
173
     0
176
     1
  0
VISUALSTYLE
  5
2C
102
{ACAD_REACTORS
330
2A
102
}
330
2A
100
AcDbVisualStyle
  2
FlatWithEdges
 70
     1
177
     2
291
     1
 71
     2
176
     1
 72
     1
176
     1
 73
     1
176
     1
 90
        2
176
     1
 40
-0.6
176
     1
 41
30.0
176
     1
 62
     5
 63
     7
421
 16777215
176
     1
 74
     1
176
     1
 91
        4
176
     1
 64
     7
176
     1
 65
   257
176
     1
 75
     1
176
     1
175
     1
176
     1
 42
1.0
176
     1
 92
        0
176
     1
 66
   257
176
     1
 43
1.0
176
     1
 76
     1
176
     1
 77
     6
176
     1
 78
     2
176
     1
 67
     7
176
     1
 79
     5
176
     1
170
     0
176
     1
171
     0
176
     1
290
     0
176
     1
 93
       13
176
     1
 44
0.0
176
     1
173
     0
176
     1
  0
VISUALSTYLE
  5
2D
102
{ACAD_REACTORS
330
2A
102
}
330
2A
100
AcDbVisualStyle
  2
Gouraud
 70
     2
177
     2
291
     1
 71
     2
176
     1
 72
     2
176
     1
 73
     1
176
     1
 90
        2
176
     1
 40
-0.6
176
     1
 41
30.0
176
     1
 62
     5
 63
     7
421
 16777215
176
     1
 74
     0
176
     1
 91
        4
176
     1
 64
     7
176
     1
 65
   257
176
     1
 75
     1
176
     1
175
     1
176
     1
 42
1.0
176
     1
 92
        0
176
     1
 66
     7
176
     1
 43
1.0
176
     1
 76
     1
176
     1
 77
     6
176
     1
 78
     2
176
     1
 67
     7
176
     1
 79
     5
176
     1
170
     0
176
     1
171
     0
176
     1
290
     0
176
     1
 93
       13
176
     1
 44
0.0
176
     1
173
     0
176
     1
  0
VISUALSTYLE
  5
2E
102
{ACAD_REACTORS
330
2A
102
}
330
2A
100
AcDbVisualStyle
  2
GouraudWithEdges
 70
     3
177
     2
291
     1
 71
     2
176
     1
 72
     2
176
     1
 73
     1
176
     1
 90
        2
176
     1
 40
-0.6
176
     1
 41
30.0
176
     1
 62
     5
 63
     7
421
 16777215
176
     1
 74
     1
176
     1
 91
        4
176
     1
 64
     7
176
     1
 65
   257
176
     1
 75
     1
176
     1
175
     1
176
     1
 42
1.0
176
     1
 92
        0
176
     1
 66
   257
176
     1
 43
1.0
176
     1
 76
     1
176
     1
 77
     6
176
     1
 78
     2
176
     1
 67
     7
176
     1
 79
     5
176
     1
170
     0
176
     1
171
     0
176
     1
290
     0
176
     1
 93
       13
176
     1
 44
0.0
176
     1
173
     0
176
     1
  0
VISUALSTYLE
  5
38
102
{ACAD_REACTORS
330
2A
102
}
330
2A
100
AcDbVisualStyle
  2
Linepattern
 70
    14
177
     2
291
     1
 71
     2
176
     1
 72
     2
176
     1
 73
     0
176
     1
 90
        0
176
     1
 40
-0.6
176
     1
 41
-30.0
176
     1
 62
     5
 63
     7
421
 16777215
176
     1
 74
     1
176
     1
 91
        4
176
     1
 64
     7
176
     1
 65
   257
176
     1
 75
     7
176
     1
175
     7
176
     1
 42
1.0
176
     1
 92
        8
176
     1
 66
     7
176
     1
 43
1.0
176
     1
 76
     1
176
     1
 77
     6
176
     1
 78
     2
176
     1
 67
     7
176
     1
 79
     5
176
     1
170
     0
176
     1
171
     0
176
     1
290
     0
176
     1
 93
        1
176
     1
 44
0.0
176
     1
173
     0
176
     1
  0
VISUALSTYLE
  5
33
102
{ACAD_REACTORS
330
2A
102
}
330
2A
100
AcDbVisualStyle
  2
Realistic
 70
     8
177
     2
291
     0
 71
     2
176
     1
 72
     2
176
     1
 73
     0
176
     1
 90
        0
176
     1
 40
-0.6
176
     1
 41
-30.0
176
     1
 62
     5
 63
     7
421
 16777215
176
     1
 74
     1
176
     1
 91
        0
176
     1
 64
     7
176
     1
 65
   257
176
     1
 75
     1
176
     1
175
     1
176
     1
 42
1.0
176
     1
 92
        8
176
     1
 66
     8
424
  7895160
176
     1
 43
1.0
176
     1
 76
     1
176
     1
 77
     6
176
     1
 78
     2
176
     1
 67
     7
176
     1
 79
     5
176
     1
170
     0
176
     1
171
     0
176
     1
290
     0
176
     1
 93
       13
176
     1
 44
0.0
176
     1
173
     0
176
     1
  0
VISUALSTYLE
  5
37
102
{ACAD_REACTORS
330
2A
102
}
330
2A
100
AcDbVisualStyle
  2
Thicken
 70
    13
177
     2
291
     1
 71
     2
176
     1
 72
     2
176
     1
 73
     0
176
     1
 90
        0
176
     1
 40
-0.6
176
     1
 41
-30.0
176
     1
 62
     5
 63
     7
421
 16777215
176
     1
 74
     1
176
     1
 91
        4
176
     1
 64
     7
176
     1
 65
   257
176
     1
 75
     1
176
     1
175
     1
176
     1
 42
1.0
176
     1
 92
       12
176
     1
 66
     7
176
     1
 43
1.0
176
     1
 76
     1
176
     1
 77
     6
176
     1
 78
     2
176
     1
 67
     7
176
     1
 79
     5
176
     1
170
     0
176
     1
171
     0
176
     1
290
     0
176
     1
 93
        1
176
     1
 44
0.0
176
     1
173
     0
176
     1
  0
ENDSEC
  0
EOF
