0
SECTION
2
HEADER
9
$INSUNITS
70
6
9
$ACADVER
1
AC1014
9
$HANDSEED
5
FFFF
0
ENDSEC
0
SECTION
2
TABLES
0
TABLE
2
VPORT
5
8
100
AcDbSymbolTable
0
ENDTAB
0
TABLE
2
LTYPE
5
5
100
AcDbSymbolTable
0
LTYPE
5
14
100
AcDbSymbolTableRecord
100
AcDbLinetypeTableRecord
2
BYBLOCK
70
0
0
LTYPE
5
15
100
AcDbSymbolTableRecord
100
AcDbLinetypeTableRecord
2
BYLAYER
70
0
0
ENDTAB
0
TABLE
2
LAYER
5
2
100
AcDbSymbolTable
70
2
0
LAYER
5
50
100
AcDbSymbolTableRecord
100
AcDbLayerTableRecord
2
0
70
0
6
CONTINUOUS
0
ENDTAB
0
TABLE
2
STYLE
5
3
100
AcDbSymbolTable
70
1
0
STYLE
5
11
100
AcDbSymbolTableRecord
100
AcDbTextStyleTableRecord
2
STANDARD
70
0
0
ENDTAB
0
TABLE
2
VIEW
5
6
100
AcDbSymbolTable
70
0
0
ENDTAB
0
TABLE
2
UCS
5
7
100
AcDbSymbolTable
70
0
0
ENDTAB
0
TABLE
2
APPID
5
9
100
AcDbSymbolTable
70
2
0
APPID
5
12
100
AcDbSymbolTableRecord
100
AcDbRegAppTableRecord
2
ACAD
70
0
0
ENDTAB
0
TABLE
2
DIMSTYLE
5
A
100
AcDbSymbolTable
70
1
0
ENDTAB
0
TABLE
2
BLOCK_RECORD
5
1
100
AcDbSymbolTable
70
1
0
BLOCK_RECORD
5
1F
100
AcDbSymbolTableRecord
100
AcDbBlockTableRecord
2
*MODEL_SPACE
0
BLOCK_RECORD
5
1B
100
AcDbSymbolTableRecord
100
AcDbBlockTableRecord
2
*PAPER_SPACE
0
ENDTAB
0
ENDSEC
0
SECTION
2
BLOCKS
0
BLOCK
5
20
100
AcDbEntity
100
AcDbBlockBegin
2
*MODEL_SPACE
0
ENDBLK
5
21
100
AcDbEntity
100
AcDbBlockEnd
0
BLOCK
5
1C
100
AcDbEntity
100
AcDbBlockBegin
2
*PAPER_SPACE
0
ENDBLK
5
1D
100
AcDbEntity
100
AcDbBlockEnd
0
ENDSEC
0
SECTION
2
ENTITIES
0
LINE
5
100
100
AcDbEntity
8
0
100
AcDbLine
10
0.056580333606600197
20
0.0200157149601068
30
0
11
0.060924054488677798
21
0.0200157149601068
31
0
0
LINE
5
101
100
AcDbEntity
8
0
100
AcDbLine
10
0.060924054488677798
20
0.0200157149601068
30
0
11
0.063596481887490494
21
0.026949362705930204
31
0
0
SPLINE
5
102
100
AcDbEntity
8
0
100
AcDbSpline
70
0
71
3
72
8
73
4
74
0
42
0.000000001
43
0.0000000001
44
0.0000000001
40
-0.10359326778092399
40
-0.10359326778092399
40
-0.10359326778092399
40
-0.10359326778092399
40
0
40
0
40
0
40
0
10
0.063596481887490494
20
0.026949362705930204
30
0
10
0.063775704608304201
20
0.0274143611276946
30
0
10
0.0644343098050663
20
0.0274123570167383
30
0
10
0.064610701836259096
20
0.026946277628978201
30
0
0
LINE
5
103
100
AcDbEntity
8
0
100
AcDbLine
10
0.064610701836259096
20
0.026946277628978201
30
0
11
0.067233632617745495
21
0.0200157149601068
31
0
0
LINE
5
104
100
AcDbEntity
8
0
100
AcDbLine
10
0.067233632617745495
20
0.0200157149601068
30
0
11
0.071814821556376293
21
0.0200157149601068
31
0
0
LINE
5
105
100
AcDbEntity
8
0
100
AcDbLine
10
0.071814821556376293
20
0.0200157149601068
30
0
11
0.066211377546511935
21
0.033023092460290844
31
0
0
ARC
5
106
100
AcDbEntity
8
0
100
AcDbCircle
10
0.065712958790781303
20
0.032808442061418398
30
0
40
0.00054269023741248276
210
0
220
-0
230
1
100
AcDbArc
50
23.299745097141717
51
90.013872893015233
0
LINE
5
107
100
AcDbEntity
8
0
100
AcDbLine
10
0.065712827386448708
20
0.033351165460856799
30
0
11
0.062737399296932075
21
0.033351165460856799
31
0
0
ARC
5
108
100
AcDbEntity
8
0
100
AcDbCircle
10
0.062737341203924504
20
0.032808490589239098
30
0
40
0.00054268987733712987
210
0
220
-0
230
1
100
AcDbArc
50
89.993866607234224
51
156.50351682620828
0
LINE
5
109
100
AcDbEntity
8
0
100
AcDbLine
10
0.062239618780736333
20
0.033024870137158213
30
0
11
0.056580333606600197
21
0.0200157149601068
31
0
0
LINE
5
110
100
AcDbEntity
8
0
100
AcDbLine
10
0.072447447315175301
20
0.0200157149601068
30
0
11
0.0767105192120143
21
0.0200157149601068
31
0
0
LINE
5
111
100
AcDbEntity
8
0
100
AcDbLine
10
0.0767105192120143
20
0.0200157149601068
30
0
11
0.0767105192120143
21
0.024213570339135723
31
0
0
ARC
5
112
100
AcDbEntity
8
0
100
AcDbCircle
10
0.077252812386507705
20
0.024213837090057991
30
0
40
0.00054238457822491568
210
0
220
-0
230
1
100
AcDbArc
50
89.942158972511479
51
180.02818109189886
0
LINE
5
113
100
AcDbEntity
8
0
100
AcDbLine
10
0.07725336002875513
20
0.024756412034781801
30
0
11
0.087773758452208889
21
0.024756412034781801
31
0
0
ARC
5
114
100
AcDbEntity
8
0
100
AcDbCircle
10
0.08777401544271371
20
0.025298705704929501
30
0
40
0.00054238534818936031
210
0
220
0
230
1
100
AcDbArc
50
-90.027150678382725
51
0.05786463816207689
0
LINE
5
115
100
AcDbEntity
8
0
100
AcDbLine
10
0.088316591676957296
20
0.025299253571764227
30
0
11
0.088316591676957296
21
0.028070940203894099
31
0
0
ARC
5
116
100
AcDbEntity
8
0
100
AcDbCircle
10
0.087774298215000601
20
0.028071207181484099
30
0
40
0.00054238483492236337
210
-0
220
0
230
1
100
AcDbArc
50
-0.028205024227989484
51
90.057810661187105
0
LINE
5
117
100
AcDbEntity
8
0
100
AcDbLine
10
0.087773750860066196
20
0.028613782259877599
30
0
11
0.072990289731085525
21
0.028613782259877599
31
0
0
ARC
5
118
100
AcDbEntity
8
0
100
AcDbCircle
10
0.072990026453930199
20
0.028071484676804499
30
0
40
0.00054238901738467703
210
0
220
-0
230
1
100
AcDbArc
50
89.972186123549875
51
180.05767945002088
0
LINE
5
119
100
AcDbEntity
8
0
100
AcDbLine
10
0.072447447315175301
20
0.028070938560036784
30
0
11
0.072447447315175301
21
0.0200157149601068
31
0
0
LINE
5
120
100
AcDbEntity
8
0
100
AcDbLine
10
0.058256158435484297
20
0.0132555907168569
30
0
11
0.053639522279156797
21
0.0132555907168569
31
0
0
LINE
5
121
100
AcDbEntity
8
0
100
AcDbLine
10
0.053639522279156797
20
0.0132555907168569
30
0
11
0.05229036106424708
21
0.0101542365592981
31
0
0
ARC
5
122
100
AcDbEntity
8
0
100
AcDbCircle
10
0.052786585884781703
20
0.0099374397555938698
30
0
40
0.00054188203728002394
210
0
220
0
230
1
100
AcDbArc
50
156.39988394303415
51
270.16424242035191
0
LINE
5
123
100
AcDbEntity
8
0
100
AcDbLine
10
0.052788140247119031
20
0.0093948475072703104
30
0
11
0.056361903066374029
21
0.0093948475072703104
31
0
0
ARC
5
124
100
AcDbEntity
8
0
100
AcDbCircle
10
0.056361964449933299
20
0.0099375001812611104
30
0
40
0.00054267047695022279
210
0
220
0
230
1
100
AcDbArc
50
269.99351891075639
51
338.461363146059
0
LINE
5
125
100
AcDbEntity
8
0
100
AcDbLine
10
0.056866776742815893
20
0.0097382559845350814
30
0
11
0.058256158435484297
21
0.0132555907168569
31
0
0
LINE
5
126
100
AcDbEntity
8
0
100
AcDbLine
10
0.076710522094590297
20
0.0132555907168569
30
0
11
0.0699447691217462
21
0.0132555907168569
31
0
0
LINE
5
127
100
AcDbEntity
8
0
100
AcDbLine
10
0.0699447691217462
20
0.0132555907168569
30
0
11
0.071379925653307946
21
0.0097328785469486308
31
0
0
ARC
5
128
100
AcDbEntity
8
0
100
AcDbCircle
10
0.071882507831761505
20
0.0099375632401820096
30
0
40
0.00054268126194780431
210
0
220
0
230
1
100
AcDbArc
50
202.15940272626102
51
270.01483437731935
0
LINE
5
129
100
AcDbEntity
8
0
100
AcDbLine
10
0.071882648341325836
20
0.0093948460659822597
30
0
11
0.072447447315175301
21
0.0093948460659822597
31
0
0
LINE
5
130
100
AcDbEntity
8
0
100
AcDbLine
10
0.072447447315175301
20
0.0093948460659822597
30
0
11
0.072447447315175301
21
0.0052003117668937907
31
0
0
ARC
5
131
100
AcDbEntity
8
0
100
AcDbCircle
10
0.0729897413418404
20
0.0052000479222440998
30
0
40
0.00054238583268414228
210
0
220
0
230
1
100
AcDbArc
50
179.97212599746081
51
270.05790298451188
0
LINE
5
132
100
AcDbEntity
8
0
100
AcDbLine
10
0.072990289572438846
20
0.0046574707920870404
30
0
11
0.088382771837825627
21
0.0046574707920870404
31
0
0
ARC
5
133
100
AcDbEntity
8
0
100
AcDbCircle
10
0.088383029698077001
20
0.0051997641057203508
30
0
40
0.00054238486369906
210
0
220
0
230
1
100
AcDbArc
50
-90.027242585902016
51
0.057826291350253564
0
LINE
5
134
100
AcDbEntity
8
0
100
AcDbLine
10
0.08892560503640852
20
0.0052003116087878153
30
0
11
0.08892560503640852
21
0.0079719978803256854
31
0
0
ARC
5
135
100
AcDbEntity
8
0
100
AcDbCircle
10
0.088383311722774902
20
0.0079722635169191293
30
0
40
0.00054238486369936228
210
-0
220
0
230
1
100
AcDbArc
50
-0.028063356848818822
51
90.057826291314328
0
LINE
5
136
100
AcDbEntity
8
0
100
AcDbLine
10
0.088382764219707768
20
0.0085148388552508305
30
0
11
0.077253363069515482
21
0.0085148388552508305
31
0
0
ARC
5
137
100
AcDbEntity
8
0
100
AcDbCircle
10
0.077253097432921997
20
0.0090571321688844159
30
0
40
0.00054238486369934027
210
0
220
0
230
1
100
AcDbArc
50
179.94217370868128
51
270.02806335686489
0
LINE
5
138
100
AcDbEntity
8
0
100
AcDbLine
10
0.076710522094590297
20
0.0090576796719516166
30
0
11
0.076710522094590297
21
0.0132555907168569
31
0
0
ELLIPSE
5
139
100
AcDbEntity
8
0
100
AcDbEllipse
10
41.4239892325024
20
62.302837104506601
30
0
11
41.414793621758328
21
62.181547047048056
31
0.0
40
0.0075751994244438745
41
3.1466379230269186
42
3.1499200329919943
0
SPLINE
5
140
100
AcDbEntity
8
0
100
AcDbSpline
70
0
71
3
72
8
73
4
74
0
42
0.000000001
43
0.0000000001
44
0.0000000001
40
-0.22683068535442599
40
-0.22683068535442599
40
-0.22683068535442599
40
-0.22683068535442599
40
0
40
0
40
0
40
0
10
0.012099212727006002
20
0.120498641393418
30
0
10
0.0103696786398255
20
0.120498641393418
30
0
10
0.0095049285525645004
20
0.12101961734556702
30
0
10
0.0095049285525645004
20
0.12206158862852499
30
0
0
LINE
5
141
100
AcDbEntity
8
0
100
AcDbLine
10
0.0095049285525645004
20
0.12206158862852499
30
0
11
0.0095049285525645004
21
0.12630388782286101
31
0
0
ELLIPSE
5
142
100
AcDbEntity
8
0
100
AcDbEllipse
10
2.1704268953640202
20
-1.6751057205312512
30
0
11
2.1606135298801163
21
-1.8024062905040805
31
0.0
40
0.020255806270228657
41
3.144573399102315
42
3.1584886499858928
0
ARC
5
143
100
AcDbEntity
8
0
100
AcDbCircle
10
0.010760154968457503
20
0.12651954024120499
30
0
40
0.0012279649026878637
210
0
220
0
230
1
100
AcDbArc
50
111.29656251144577
51
148.43747771346528
0
ARC
5
144
100
AcDbEntity
8
0
100
AcDbCircle
10
0.011668055424138488
20
0.12438339302880314
30
0
40
0.003549442743679806
210
0
220
0
230
1
100
AcDbArc
50
99.065171841522115
51
112.42774390351698
0
ARC
5
145
100
AcDbEntity
8
0
100
AcDbCircle
10
0.011980452797593962
20
0.12175087340124818
30
0
40
0.0061992724514007488
210
0
220
-0
230
1
100
AcDbArc
50
89.41813781651328
51
98.082856107295342
0
SPLINE
5
146
100
AcDbEntity
8
0
100
AcDbSpline
70
0
71
3
72
8
73
4
74
0
42
0.000000001
43
0.0000000001
44
0.0000000001
40
-3.3651179095533601e-06
40
-3.3651179095533601e-06
40
-3.3651179095533601e-06
40
-3.3651179095533601e-06
40
0.99999999976499898
40
0.99999999976499898
40
0.99999999976499898
40
0.99999999976499898
10
0.012043415260131201
20
0.12795056541227401
30
0
10
0.0127873071762276
20
0.12795056616373801
30
0
10
0.0136055752007628
20
0.12783891115725601
30
0
10
0.0144982356846562
20
0.12761563915053301
30
0
0
LINE
5
147
100
AcDbEntity
8
0
100
AcDbLine
10
0.014498235684656203
20
0.12761563915053301
30
0
11
0.014498235685285502
21
0.12862061247753601
31
0
0
ARC
5
148
100
AcDbEntity
8
0
100
AcDbCircle
10
0.012035045437529699
20
0.11728989925968901
30
0
40
0.011595359771121045
210
0
220
-0
230
1
100
AcDbArc
50
77.735266241688834
51
90.09641790980794
0
SPLINE
5
149
100
AcDbEntity
8
0
100
AcDbSpline
70
0
71
3
72
8
73
4
74
0
42
0.000000001
43
0.0000000001
44
0.0000000001
40
-0.34843820231625799
40
-0.34843820231625799
40
-0.34843820231625799
40
-0.34843820231625799
40
0
40
0
40
0
40
0
10
0.012015531727728002
20
0.12888552287840399
30
0
10
0.0094770210081900098
20
0.12888552287840399
30
0
10
0.0082077823776570101
20
0.12802032375120601
30
0
10
0.0082077823776570101
20
0.12628992549681201
30
0
0
LINE
5
150
100
AcDbEntity
8
0
100
AcDbLine
10
0.0082077823776570101
20
0.12628992549681201
30
0
11
0.0082077823776570101
21
0.121991815755601
31
0
0
SPLINE
5
151
100
AcDbEntity
8
0
100
AcDbSpline
70
0
71
3
72
8
73
4
74
0
42
0.000000001
43
0.0000000001
44
0.0000000001
40
-0.373456358070206
40
-0.373456358070206
40
-0.373456358070206
40
-0.373456358070206
40
0
40
0
40
0
40
0
10
0.0082077823776570101
20
0.121991815755601
30
0
10
0.0082077823776570101
20
0.120354435079331
30
0
10
0.0094770210081900098
20
0.119535754430527
30
0
10
0.012015531727728002
20
0.119535754430527
30
0
0
ARC
5
152
100
AcDbEntity
8
0
100
AcDbCircle
10
0.012066343089834902
20
0.13140159780671101
30
0
40
0.011865168040199004
210
0
220
0
230
1
100
AcDbArc
50
269.75465217992513
51
282.10258330558986
0
LINE
5
153
100
AcDbEntity
8
0
100
AcDbLine
10
0.014554025642332578
20
0.11980014754649965
30
0
11
0.014554025642329776
21
0.12083356281063992
31
0
0
SPLINE
5
154
100
AcDbEntity
8
0
100
AcDbSpline
70
0
71
3
72
8
73
4
74
0
42
0.000000001
43
0.0000000001
44
0.0000000001
40
-0.34765329926638799
40
-0.34765329926638799
40
-0.34765329926638799
40
-0.34765329926638799
40
0
40
0
40
0
40
0
10
0.021430296208318499
20
0.128871589620347
30
0
10
0.0189010816449495
20
0.128871589620347
30
0
10
0.017636496769842001
20
0.12800639533781499
30
0
10
0.017636496769842001
20
0.12627596317076201
30
0
0
LINE
5
155
100
AcDbEntity
8
0
100
AcDbLine
10
0.017636496769842001
20
0.12627596317076201
30
0
11
0.017636496769842001
21
0.121991815755601
31
0
0
SPLINE
5
156
100
AcDbEntity
8
0
100
AcDbSpline
70
0
71
3
72
8
73
4
74
0
42
0.000000001
43
0.0000000001
44
0.0000000001
40
-0.372523154425287
40
-0.372523154425287
40
-0.372523154425287
40
-0.372523154425287
40
0
40
0
40
0
40
0
10
0.017636496769842001
20
0.121991815755601
30
0
10
0.017636496769842001
20
0.120354435079331
30
0
10
0.0189010816449495
20
0.119535754430527
30
0
10
0.021430296208318499
20
0.119535754430527
30
0
0
ARC
5
157
100
AcDbEntity
8
0
100
AcDbCircle
10
0.0214803671946798
20
0.12763337516561299
30
0
40
0.0080971726636901616
210
0
220
0
230
1
100
AcDbArc
50
269.64572067203579
51
278.86024771148186
0
ARC
5
158
100
AcDbEntity
8
0
100
AcDbCircle
10
0.0217641389590894
20
0.12536026610381501
30
0
40
0.0058077570995747089
210
-0
220
0
230
1
100
AcDbArc
50
279.54816812668582
51
292.01007637200746
0
SPLINE
5
159
100
AcDbEntity
8
0
100
AcDbSpline
70
0
71
3
72
8
73
4
74
0
42
0.000000001
43
0.0000000001
44
0.0000000001
40
-0.083918976357928499
40
-0.083918976357928499
40
-0.083918976357928499
40
-0.083918976357928499
40
0
40
0
40
0
40
0
10
0.023940898777899001
20
0.119975330312485
30
0
10
0.024350040471013502
20
0.12013814014219699
30
0
10
0.024673157860693504
20
0.120391651799912
30
0
10
0.0249102751702635
20
0.12073587497496099
30
0
0
SPLINE
5
160
100
AcDbEntity
8
0
100
AcDbSpline
70
0
71
3
72
8
73
4
74
0
42
0.000000001
43
0.0000000001
44
0.0000000001
40
-0.0888029875724545
40
-0.0888029875724545
40
-0.0888029875724545
40
-0.0888029875724545
40
0
40
0
40
0
40
0
10
0.0249102751702635
20
0.12073587497496099
30
0
10
0.025147385212834501
20
0.12108009815001002
30
0
10
0.0252659450787871
20
0.121498735387559
30
0
10
0.0252659450787871
20
0.121991815755601
30
0
0
LINE
5
161
100
AcDbEntity
8
0
100
AcDbLine
10
0.0252659450787871
20
0.121991815755601
30
0
11
0.0252659450787871
21
0.12628992549681201
31
0
0
SPLINE
5
162
100
AcDbEntity
8
0
100
AcDbSpline
70
0
71
3
72
8
73
4
74
0
42
0.000000001
43
0.0000000001
44
0.0000000001
40
-0.38140204778083298
40
-0.38140204778083298
40
-0.38140204778083298
40
-0.38140204778083298
40
0
40
0
40
0
40
0
10
0.0252659450787871
20
0.12628992549681201
30
0
10
0.0252659450787871
20
0.12801105106138699
30
0
10
0.023987400299962502
20
0.128871589620347
30
0
10
0.021430296208318499
20
0.128871589620347
30
0
0
SPLINE
5
163
100
AcDbEntity
8
0
100
AcDbSpline
70
0
71
3
72
8
73
4
74
0
42
0.000000001
43
0.0000000001
44
0.0000000001
40
-0.22289448384781299
40
-0.22289448384781299
40
-0.22289448384781299
40
-0.22289448384781299
40
0
40
0
40
0
40
0
10
0.0214581869477595
20
0.120442830846543
30
0
10
0.019775146510060501
20
0.120442830846543
30
0
10
0.018933642641958001
20
0.12096380679869199
30
0
10
0.018933642641958001
20
0.12200575870298799
30
0
0
LINE
5
164
100
AcDbEntity
8
0
100
AcDbLine
10
0.018933642641958001
20
0.12200575870298799
30
0
11
0.018933642641958001
21
0.12631782108091799
31
0
0
SPLINE
5
165
100
AcDbEntity
8
0
100
AcDbSpline
70
0
71
3
72
8
73
4
74
0
42
0.000000001
43
0.0000000001
44
0.0000000001
40
6.6048034297089397e-10
40
6.6048034297089397e-10
40
6.6048034297089397e-10
40
6.6048034297089397e-10
40
0.99999975177240719
40
0.99999975177240719
40
0.99999975177240719
40
0.99999975177240719
10
0.018933642641958001
20
0.1263178210816
30
0
10
0.018933642642050101
20
0.12666206354955684
30
0
10
0.019003373089533936
20
0.12694814099214444
30
0
10
0.019142853363055778
20
0.12717607278801232
30
0
0
ARC
5
166
100
AcDbEntity
8
0
100
AcDbCircle
10
0.020267189946504231
20
0.12648897034862608
30
0
40
0.0013178258583628334
210
0
220
0
230
1
100
AcDbArc
50
114.10976128787233
51
148.57014065100785
0
ARC
5
167
100
AcDbEntity
8
0
100
AcDbCircle
10
0.020964028755187211
20
0.12503536025632814
30
0
40
0.0029300733078949908
210
0
220
0
230
1
100
AcDbArc
50
98.91999640245723
51
114.93643198267631
0
ARC
5
168
100
AcDbEntity
8
0
100
AcDbCircle
10
0.021381259825789645
20
0.12179331629762381
30
0
40
0.0061986922723190375
210
0
220
-0
230
1
100
AcDbArc
50
89.41794096591947
51
98.083328705880078
0
SPLINE
5
169
100
AcDbEntity
8
0
100
AcDbSpline
70
0
71
3
72
8
73
4
74
0
42
0.000000001
43
0.0000000001
44
0.0000000001
40
-0.22784615176209599
40
-0.22784615176209599
40
-0.22784615176209599
40
-0.22784615176209599
40
0
40
0
40
0
40
0
10
0.021444245211538499
20
0.12799242816709999
30
0
10
0.023117989947256497
20
0.12799242816709999
30
0
10
0.023954848992285005
20
0.12743422580503899
30
0
10
0.023954848992285005
20
0.12631782108091799
30
0
0
LINE
5
170
100
AcDbEntity
8
0
100
AcDbLine
10
0.023954848992285005
20
0.12631782108091799
30
0
11
0.023954848992285005
21
0.12200575870298799
31
0
0
SPLINE
5
171
100
AcDbEntity
8
0
100
AcDbSpline
70
0
71
3
72
8
73
4
74
0
42
0.000000001
43
0.0000000001
44
0.0000000001
40
-0.24258147197728999
40
-0.24258147197728999
40
-0.24258147197728999
40
-0.24258147197728999
40
0
40
0
40
0
40
0
10
0.023954848992285005
20
0.12200575870298799
30
0
10
0.023954848992285005
20
0.12096380679869199
30
0
10
0.0231226335591645
20
0.120442830846543
30
0
10
0.0214581869477595
20
0.120442830846543
30
0
0
LWPOLYLINE
5
172
100
AcDbEntity
8
0
100
AcDbPolyline
90
10
70
1
43
0.0
10
0.037191310917790502
20
0.12873204387449699
10
0.036005746170934501
20
0.12873204387449699
10
0.036005746170934501
20
0.121252200048203
10
0.0310821707314815
20
0.12873204387449699
10
0.029450283905920499
20
0.12873204387449699
10
0.029450283905920499
20
0.11967530017637699
10
0.030635841385777601
20
0.11967530017637699
10
0.030635841385777601
20
0.12728071288847401
10
0.035559416825231997
20
0.11967530017637699
10
0.037191310917790502
20
0.11967530017637699
0
SPLINE
5
173
100
AcDbEntity
8
0
100
AcDbSpline
70
0
71
3
72
8
73
4
74
0
42
0.000000001
43
0.0000000001
44
0.0000000001
40
-0.99999996208342501
40
-0.99999996208342501
40
-0.99999996208342501
40
-0.99999996208342501
40
-1.4234444521265405e-07
40
-1.4234444521265405e-07
40
-1.4234444521265405e-07
40
-1.4234444521265405e-07
10
0.047122143666274603
20
0.12435716560196801
30
0
10
0.046787396694422195
20
0.12469675720267973
30
0
10
0.04615041808709161
20
0.12486650507500092
30
0
10
0.045211298615388022
20
0.1248665237822869
30
0
0
LINE
5
174
100
AcDbEntity
8
0
100
AcDbLine
10
0.045211298615388029
20
0.12486652378228691
30
0
11
0.044123363552544592
21
0.12486652400755398
31
0
0
SPLINE
5
175
100
AcDbEntity
8
0
100
AcDbSpline
70
0
71
3
72
8
73
4
74
0
42
0.000000001
43
0.0000000001
44
0.0000000001
40
1.7866894233050799e-08
40
1.7866894233050799e-08
40
1.7866894233050799e-08
40
1.7866894233050799e-08
40
1.0000000000665401
40
1.0000000000665401
40
1.0000000000665401
40
1.0000000000665401
10
0.044123363537840403
20
0.12486652400755401
30
0
10
0.04355615738114061
20
0.12486652401013
30
0
10
0.043160975601862099
20
0.12493861263318699
30
0
10
0.042937806088384232
20
0.1250828189446874
30
0
0
SPLINE
5
176
100
AcDbEntity
8
0
100
AcDbSpline
70
0
71
3
72
8
73
4
74
0
42
0.000000001
43
0.0000000001
44
0.0000000001
40
-1.2204073537507101e-11
40
-1.2204073537507101e-11
40
-1.2204073537507101e-11
40
-1.2204073537507101e-11
40
0.99999999936766504
40
0.99999999936766504
40
0.99999999936766504
40
0.99999999936766504
10
0.042937806088384253
20
0.12508281894468745
30
0
10
0.04271463657101051
20
0.12522702525867799
30
0
10
0.042603056656915508
20
0.12545728252166299
30
0
10
0.04260305665677451
20
0.125773590733638
30
0
0
LINE
5
177
100
AcDbEntity
8
0
100
AcDbLine
10
0.04260305665677451
20
0.125773590733638
30
0
11
0.04260305665677451
21
0.1268062699493889
31
0
0
SPLINE
5
178
100
AcDbEntity
8
0
100
AcDbSpline
70
0
71
3
72
8
73
4
74
0
42
0.000000001
43
0.0000000001
44
0.0000000001
40
1.2331036533364199e-09
40
1.2331036533364199e-09
40
1.2331036533364199e-09
40
1.2331036533364199e-09
40
1.00000000000973
40
1.00000000000973
40
1.00000000000973
40
1.00000000000973
10
0.04260305665677451
20
0.12680626995023001
30
0
10
0.042603056657124203
20
0.12721561027383901
30
0
10
0.042744855172446007
20
0.12750631442830401
30
0
10
0.043028466736731018
20
0.12767845023893801
30
0
0
SPLINE
5
179
100
AcDbEntity
8
0
100
AcDbSpline
70
0
71
3
72
8
73
4
74
0
42
0.000000001
43
0.0000000001
44
0.0000000001
40
-6.7847978158040003e-11
40
-6.7847978158040003e-11
40
-6.7847978158040003e-11
40
-6.7847978158040003e-11
40
0.99999996980343497
40
0.99999996980343497
40
0.99999996980343497
40
0.99999996980343497
10
0.043028466736730983
20
0.12767845023893803
30
0
10
0.043312068603393802
20
0.12785055213192201
30
0
10
0.0438862534909348
20
0.127936603081031
30
0
10
0.044751021399296799
20
0.12793660308622801
30
0
0
ELLIPSE
5
180
100
AcDbEntity
8
0
100
AcDbEllipse
10
3.8573702499284099
20
-1.2231498658943101
30
0
11
-3.8137582266410215
21
1.3507638992167461
31
0.0
40
0.0077408618622497802
41
6.2425930541960515
42
6.2613331720133347
0
LINE
5
181
100
AcDbEntity
8
0
100
AcDbLine
10
0.047177934872564276
20
0.1276993646600223
30
0
11
0.047177934871630203
21
0.12871807670392335
31
0
0
SPLINE
5
182
100
AcDbEntity
8
0
100
AcDbSpline
70
0
71
3
72
8
73
4
74
0
42
0.000000001
43
0.0000000001
44
0.0000000001
40
-0.99999999896530301
40
-0.99999999896530301
40
-0.99999999896530301
40
-0.99999999896530301
40
-3.0695828079699114e-15
40
-3.0695828079699114e-15
40
-3.0695828079699114e-15
40
-3.0695828079699114e-15
10
0.04717793486976371
20
0.12871807670409999
30
0
10
0.046275971999405842
20
0.12882042026315296
30
0
10
0.045499556213596561
20
0.12887158962034698
30
0
10
0.044848651177342498
20
0.128871589620347
30
0
0
ELLIPSE
5
183
100
AcDbEntity
8
0
100
AcDbEllipse
10
10.296103894440501
20
-4.0197028995159698
30
0
11
-10.254440310687901
21
4.1476036220095915
31
0.0
40
0.0087519931754870342
41
6.2615504556185897
42
6.2773278666112109
0
SPLINE
5
184
100
AcDbEntity
8
0
100
AcDbSpline
70
0
71
3
72
8
73
4
74
0
42
0.000000001
43
0.0000000001
44
0.0000000001
40
-1.0000000000038201
40
-1.0000000000038201
40
-1.0000000000038201
40
-1.0000000000038201
40
0
40
0
40
0
40
0
10
0.042052118870677301
20
0.12835525485777799
30
0
10
0.041545347477852497
20
0.128011012304067
30
0
10
0.0412919617814387
20
0.127480744283436
30
0
10
0.041291961781438506
20
0.12676440234922901
30
0
0
LINE
5
185
100
AcDbEntity
8
0
100
AcDbLine
10
0.041291961781438506
20
0.12676440234922898
30
0
11
0.041291961781438465
21
0.12603871989671966
31
0
0
SPLINE
5
186
100
AcDbEntity
8
0
100
AcDbSpline
70
0
71
3
72
8
73
4
74
0
42
0.000000001
43
0.0000000001
44
0.0000000001
40
-0.99999999740396095
40
-0.99999999740396095
40
-0.99999999740396095
40
-0.99999999740396095
40
3.5216828478534401e-12
40
3.5216828478534401e-12
40
3.5216828478534401e-12
40
3.5216828478534401e-12
10
0.041291961781438506
20
0.12603871989430901
30
0
10
0.041291961782367999
20
0.125322387652198
30
0
10
0.041470962484274301
20
0.12478047305749901
30
0
10
0.041828959042490309
20
0.124412995488873
30
0
0
SPLINE
5
187
100
AcDbEntity
8
0
100
AcDbSpline
70
0
71
3
72
8
73
4
74
0
42
0.000000001
43
0.0000000001
44
0.0000000001
40
-0.99999997823140896
40
-0.99999997823140896
40
-0.99999997823140896
40
-0.99999997823140896
40
-1.5217649561045238e-07
40
-1.5217649561045238e-07
40
-1.5217649561045238e-07
40
-1.5217649561045238e-07
10
0.041828959065865597
20
0.12441299546487899
30
0
10
0.042186953152447242
20
0.12404551796721894
30
0
10
0.042821600308355738
20
0.12386180235203276
30
0
10
0.043732832657757952
20
0.1238617794107995
30
0
0
LINE
5
188
100
AcDbEntity
8
0
100
AcDbLine
10
0.043732832657757952
20
0.12386177941079948
30
0
11
0.044792862446955892
21
0.12386177913450701
31
0
0
SPLINE
5
189
100
AcDbEntity
8
0
100
AcDbSpline
70
0
71
3
72
8
73
4
74
0
42
0.000000001
43
0.0000000001
44
0.0000000001
40
1.7632755256738599e-08
40
1.7632755256738599e-08
40
1.7632755256738599e-08
40
1.7632755256738599e-08
40
0.99999988697165099
40
0.99999988697165099
40
0.99999988697165099
40
0.99999988697165099
10
0.044792862461467603
20
0.12386177913450701
30
0
10
0.045360075821147101
20
0.123861779131636
30
0
10
0.045752932136394898
20
0.123780379079847
30
0
10
0.04597144836353239
20
0.123617559600483
30
0
0
SPLINE
5
190
100
AcDbEntity
8
0
100
AcDbSpline
70
0
71
3
72
8
73
4
74
0
42
0.000000001
43
0.0000000001
44
0.0000000001
40
4.63215744879354e-08
40
4.63215744879354e-08
40
4.63215744879354e-08
40
4.63215744879354e-08
40
0.99999999632457104
40
0.99999999632457104
40
0.99999999632457104
40
0.99999999632457104
10
0.045971448467994003
20
0.12361755952264901
30
0
10
0.046189964663223899
20
0.12345474969095099
30
0
10
0.046299226394741301
20
0.12318263452655399
30
0
10
0.046299226395544499
20
0.12280120434012901
30
0
0
LINE
5
191
100
AcDbEntity
8
0
100
AcDbLine
10
0.046299226395544506
20
0.12280120434012902
30
0
11
0.046299226395544499
21
0.12162898906447665
31
0
0
SPLINE
5
192
100
AcDbEntity
8
0
100
AcDbSpline
70
0
71
3
72
8
73
4
74
0
42
0.000000001
43
0.0000000001
44
0.0000000001
40
1.0300201893517999e-09
40
1.0300201893517999e-09
40
1.0300201893517999e-09
40
1.0300201893517999e-09
40
0.99999992396801995
40
0.99999992396801995
40
0.99999992396801995
40
0.99999992396801995
10
0.046299226395544499
20
0.12162898906357601
30
0
10
0.046299226395194799
20
0.12119173865506799
30
0
10
0.046129529899240601
20
0.12090101028818702
30
0
10
0.045790129640684303
20
0.12075680396293199
30
0
0
ELLIPSE
5
193
100
AcDbEntity
8
0
100
AcDbEllipse
10
-7.0093127739699899
20
3.4870416777598701
30
0
11
-7.055604413842631
21
3.3658542546261829
31
0.0
40
0.0093535370211445812
41
3.1219880013934476
42
3.1333240284845991
0
SPLINE
5
194
100
AcDbEntity
8
0
100
AcDbSpline
70
0
71
3
72
8
73
4
74
0
42
0.000000001
43
0.0000000001
44
0.0000000001
40
3.0473677248653409e-14
40
3.0473677248653409e-14
40
3.0473677248653409e-14
40
3.0473677248653409e-14
40
0.99999999883212198
40
0.99999999883212198
40
0.99999999883212198
40
0.99999999883212198
10
0.044318632656988502
20
0.12054049930357399
30
0
10
0.043518962476647882
20
0.1205404993035742
30
0
10
0.042570522307640787
20
0.12065679065462125
30
0
10
0.041473290348973298
20
0.120889373356715
30
0
0
LINE
5
195
100
AcDbEntity
8
0
100
AcDbLine
10
0.041473290348973305
20
0.120889373356715
30
0
11
0.041473290347939583
21
0.11975902568554433
31
0
0
SPLINE
5
196
100
AcDbEntity
8
0
100
AcDbSpline
70
0
71
3
72
8
73
4
74
0
42
0.000000001
43
0.0000000001
44
0.0000000001
40
-0.99999999807888795
40
-0.99999999807888795
40
-0.99999999807888795
40
-0.99999999807888795
40
2.9204019872869898e-09
40
2.9204019872869898e-09
40
2.9204019872869898e-09
40
2.9204019872869898e-09
10
0.0414732903514528
20
0.119759025685163
30
0
10
0.042570522312166903
20
0.11961017818163799
30
0
10
0.043491062053747899
20
0.119535754430093
30
0
10
0.044234953178184003
20
0.119535754430527
30
0
0
SPLINE
5
197
100
AcDbEntity
8
0
100
AcDbSpline
70
0
71
3
72
8
73
4
74
0
42
0.000000001
43
0.0000000001
44
0.0000000001
40
-0.99999999147435004
40
-0.99999999147435004
40
-0.99999999147435004
40
-0.99999999147435004
40
-1.6837090743490385e-14
40
-1.6837090743490385e-14
40
-1.6837090743490385e-14
40
-1.6837090743490385e-14
10
0.044234953201395102
20
0.119535754430527
30
0
10
0.045397270805577955
20
0.11953575443366
30
0
10
0.046252734567487956
20
0.11971949321844999
30
0
10
0.046801344487126542
20
0.12008697078489795
30
0
0
SPLINE
5
198
100
AcDbEntity
8
0
100
AcDbSpline
70
0
71
3
72
8
73
4
74
0
42
0.000000001
43
0.0000000001
44
0.0000000001
40
-0.14946085896279299
40
-0.14946085896279299
40
-0.14946085896279299
40
-0.14946085896279299
40
0
40
0
40
0
40
0
10
0.046801344487126501
20
0.120086970784898
30
0
10
0.047349956833775998
20
0.12045444835447799
30
0
10
0.047624264218267501
20
0.121121956060166
30
0
10
0.047624264218267501
20
0.122089503591294
30
0
0
LINE
5
199
100
AcDbEntity
8
0
100
AcDbLine
10
0.047624264218267501
20
0.12208950359129399
30
0
11
0.047624264218267529
21
0.12274537441689494
31
0
0
SPLINE
5
200
100
AcDbEntity
8
0
100
AcDbSpline
70
0
71
3
72
8
73
4
74
0
42
0.000000001
43
0.0000000001
44
0.0000000001
40
-0.99999999454236999
40
-0.99999999454236999
40
-0.99999999454236999
40
-0.99999999454236999
40
1.9132193730780584e-08
40
1.9132193730780584e-08
40
1.9132193730780584e-08
40
1.9132193730780584e-08
10
0.047624264218267598
20
0.12274537442241901
30
0
10
0.047624264216440802
20
0.12348032956947147
30
0
10
0.047456893127730895
20
0.12401758360027719
30
0
10
0.047122143685138437
20
0.1243571655828314
30
0
0
LINE
5
201
100
AcDbEntity
8
0
100
AcDbLine
10
0.057429576565679999
20
0.12873204387449699
30
0
11
0.057429576565652313
21
0.12200575870256629
31
0
0
ELLIPSE
5
202
100
AcDbEntity
8
0
100
AcDbEllipse
10
-28.6697951850865
20
27.823526041843799
30
0
11
-28.726880712144048
21
27.702565598414285
31
0.0
40
0.0050751748869170008
41
3.1401386559672115
42
3.1464868237586243
0
SPLINE
5
203
100
AcDbEntity
8
0
100
AcDbSpline
70
0
71
3
72
8
73
4
74
0
42
0.000000001
43
0.0000000001
44
0.0000000001
40
2.9835056199641398e-13
40
2.9835056199641398e-13
40
2.9835056199641398e-13
40
2.9835056199641398e-13
40
0.999999995645804
40
0.999999995645804
40
0.999999995645804
40
0.999999995645804
10
0.056850735928472659
20
0.12077774257444857
30
0
10
0.056464853476234478
20
0.12055446163059695
30
0
10
0.055918564149782024
20
0.120442830847515
30
0
10
0.055211863104451801
20
0.120442830846543
30
0
0
SPLINE
5
204
100
AcDbEntity
8
0
100
AcDbSpline
70
0
71
3
72
8
73
4
74
0
42
0.000000001
43
0.0000000001
44
0.0000000001
40
3.5672440005603501e-09
40
3.5672440005603501e-09
40
3.5672440005603501e-09
40
3.5672440005603501e-09
40
0.99999999999978662
40
0.99999999999978662
40
0.99999999999978662
40
0.99999999999978662
10
0.055211863087657707
20
0.120442830846543
30
0
10
0.054505176575465497
20
0.12044283084734002
30
0
10
0.053951915774763347
20
0.12055446163042023
30
0
10
0.05355208553021875
20
0.12077774257444845
30
0
0
SPLINE
5
205
100
AcDbEntity
8
0
100
AcDbSpline
70
0
71
3
72
8
73
4
74
0
42
0.000000001
43
0.0000000001
44
0.0000000001
40
-5.1144036380751153e-15
40
-5.1144036380751153e-15
40
-5.1144036380751153e-15
40
-5.1144036380751153e-15
40
0.99999999739461298
40
0.99999999739461298
40
0.99999999739461298
40
0.99999999739461298
10
0.053552085530218542
20
0.12077774257444805
30
0
10
0.053152240751291116
20
0.12100101382935947
30
0
10
0.052952330472971404
20
0.12141034930754455
30
0
10
0.052952330471929508
20
0.12200575869833501
30
0
0
LINE
5
206
100
AcDbEntity
8
0
100
AcDbLine
10
0.052952330471929508
20
0.12200575869833501
30
0
11
0.052952330471929508
21
0.12873204387449699
31
0
0
LINE
5
207
100
AcDbEntity
8
0
100
AcDbLine
10
0.052952330471929508
20
0.12873204387449699
30
0
11
0.051655171276983006
21
0.12873204387449699
31
0
0
LINE
5
208
100
AcDbEntity
8
0
100
AcDbLine
10
0.051655171276983006
20
0.12873204387449699
30
0
11
0.051655171276983006
21
0.121991815755601
31
0
0
SPLINE
5
209
100
AcDbEntity
8
0
100
AcDbSpline
70
0
71
3
72
8
73
4
74
0
42
0.000000001
43
0.0000000001
44
0.0000000001
40
-0.99999999953671004
40
-0.99999999953671004
40
-0.99999999953671004
40
-0.99999999953671004
40
0
40
0
40
0
40
0
10
0.051655171276983006
20
0.121991815754903
30
0
10
0.051655171277077798
20
0.121489443318685
30
0
10
0.051757466389687902
20
0.12106614551313201
30
0
10
0.051962032391485606
20
0.120721912648911
30
0
0
ARC
5
210
100
AcDbEntity
8
0
100
AcDbCircle
10
0.053560326700978003
20
0.12165071499404001
30
0
40
0.0018476333656512118
210
0
220
0
230
1
100
AcDbArc
50
210.16176952179251
51
246.13278177291082
0
ARC
5
211
100
AcDbEntity
8
0
100
AcDbCircle
10
0.054638614104525599
20
0.123978812523049
30
0
40
0.0044124682199369542
210
0
220
0
230
1
100
AcDbArc
50
245.56034678137408
51
260.55747556957198
0
ARC
5
212
100
AcDbEntity
8
0
100
AcDbCircle
10
0.0551065005728852
20
0.12755211284701401
30
0
40
0.0080157845793329772
210
0
220
0
230
1
100
AcDbArc
50
261.44876180373353
51
270.55370609451671
0
SPLINE
5
213
100
AcDbEntity
8
0
100
AcDbSpline
70
0
71
3
72
8
73
4
74
0
42
0.000000001
43
0.0000000001
44
0.0000000001
40
-0.326306218924936
40
-0.326306218924936
40
-0.326306218924936
40
-0.326306218924936
40
0
40
0
40
0
40
0
10
0.055183982045110505
20
0.119535754430527
30
0
10
0.057545809781011502
20
0.119535754430527
30
0
10
0.058726711537297506
20
0.120354435079331
30
0
10
0.058726711537297506
20
0.121991815755601
30
0
0
LINE
5
214
100
AcDbEntity
8
0
100
AcDbLine
10
0.058726711537297492
20
0.12199181575560103
30
0
11
0.058726711537297506
21
0.12873204387449699
31
0
0
LINE
5
215
100
AcDbEntity
8
0
100
AcDbLine
10
0.058726711537297506
20
0.12873204387449699
30
0
11
0.057429576565679999
21
0.12873204387449699
31
0
0
LWPOLYLINE
5
216
100
AcDbEntity
8
0
100
AcDbPolyline
90
16
70
1
43
0.0
10
0.072841891629155997
20
0.12873204387449699
10
0.070889200741705502
20
0.12873204387449699
10
0.068141485707220506
20
0.121182427175278
10
0.068099647175725503
20
0.12119638950132799
10
0.065198496739324499
20
0.12873204387449699
10
0.063176062046941497
20
0.12873204387449699
10
0.063176062046941497
20
0.11967530017637699
10
0.064389519955572003
20
0.11967530017637699
10
0.064389519955572003
20
0.12733653796934599
10
0.064459258915838299
20
0.12733653796934599
10
0.067458048741278198
20
0.11967530017637699
10
0.068671501805242494
20
0.11967530017637699
10
0.071586595189032001
20
0.12733653796934599
10
0.071656334149297493
20
0.12733653796934599
10
0.071656334149297493
20
0.11967530017637699
10
0.072841891629155997
20
0.11967530017637699
0
LWPOLYLINE
5
217
100
AcDbEntity
8
0
100
AcDbPolyline
90
12
70
1
43
0.0
10
0.083498004757818003
20
0.12062424419188
10
0.078630235020574493
20
0.12062424419188
10
0.078630235020574493
20
0.12387571239256399
10
0.082898244854863495
20
0.12387571239256399
10
0.082898244854863495
20
0.12482466609739799
10
0.078630235020574493
20
0.12482466609739799
10
0.078630235020574493
20
0.12778308532499799
10
0.083358526837285493
20
0.12778308532499799
10
0.083358526837285493
20
0.12873204387449699
10
0.077277299191411505
20
0.12873204387449699
10
0.077277299191411505
20
0.11967530017637699
10
0.083498004757818003
20
0.11967530017637699
0
ENDSEC
0
SECTION
2
OBJECTS
0
DICTIONARY
5
C
100
AcDbDictionary
3
ACAD_GROUP
350
D
3
ACAD_MLINESTYLE
350
17
0
DICTIONARY
5
D
100
AcDbDictionary
0
DICTIONARY
5
1A
330
C
100
AcDbDictionary
0
DICTIONARY
5
17
100
AcDbDictionary
0
ENDSEC
0
EOF
