0
SECTION
2
HEADER
9
$INSUNITS
70
4
9
$ACADVER
1
AC1014
9
$HANDSEED
5
FFFF
0
ENDSEC
0
SECTION
2
TABLES
0
TABLE
2
VPORT
5
8
100
AcDbSymbolTable
0
ENDTAB
0
TABLE
2
LTYPE
5
5
100
AcDbSymbolTable
0
LTYPE
5
14
100
AcDbSymbolTableRecord
100
AcDbLinetypeTableRecord
2
BYBLOCK
70
0
0
LTYPE
5
15
100
AcDbSymbolTableRecord
100
AcDbLinetypeTableRecord
2
BYLAYER
70
0
0
ENDTAB
0
TABLE
2
LAYER
5
2
100
AcDbSymbolTable
70
2
0
LAYER
5
50
100
AcDbSymbolTableRecord
100
AcDbLayerTableRecord
2
0
70
0
6
CONTINUOUS
0
ENDTAB
0
TABLE
2
STYLE
5
3
100
AcDbSymbolTable
70
1
0
STYLE
5
11
100
AcDbSymbolTableRecord
100
AcDbTextStyleTableRecord
2
STANDARD
70
0
0
ENDTAB
0
TABLE
2
VIEW
5
6
100
AcDbSymbolTable
70
0
0
ENDTAB
0
TABLE
2
UCS
5
7
100
AcDbSymbolTable
70
0
0
ENDTAB
0
TABLE
2
APPID
5
9
100
AcDbSymbolTable
70
2
0
APPID
5
12
100
AcDbSymbolTableRecord
100
AcDbRegAppTableRecord
2
ACAD
70
0
0
ENDTAB
0
TABLE
2
DIMSTYLE
5
A
100
AcDbSymbolTable
70
1
0
ENDTAB
0
TABLE
2
BLOCK_RECORD
5
1
100
AcDbSymbolTable
70
1
0
BLOCK_RECORD
5
1F
100
AcDbSymbolTableRecord
100
AcDbBlockTableRecord
2
*MODEL_SPACE
0
BLOCK_RECORD
5
1B
100
AcDbSymbolTableRecord
100
AcDbBlockTableRecord
2
*PAPER_SPACE
0
ENDTAB
0
ENDSEC
0
SECTION
2
BLOCKS
0
BLOCK
5
20
100
AcDbEntity
100
AcDbBlockBegin
2
*MODEL_SPACE
0
ENDBLK
5
21
100
AcDbEntity
100
AcDbBlockEnd
0
BLOCK
5
1C
100
AcDbEntity
100
AcDbBlockBegin
2
*PAPER_SPACE
0
ENDBLK
5
1D
100
AcDbEntity
100
AcDbBlockEnd
0
ENDSEC
0
SECTION
2
ENTITIES
0
LWPOLYLINE
5
100
100
AcDbEntity
8
0
100
AcDbPolyline
90
14
70
1
43
0.0
10
-84.254381428909909
20
1.4535390497390321
10
-84.254381428910094
20
-15.552698290460221
42
-0.33277858028116702
10
-85.69054745756182
20
-17.471575892798
10
-89.554861106783335
20
-18.607047643951702
42
-0.071569712619552014
10
-98.012370676988226
20
-19.823883608881999
10
-110.45104090331895
20
-19.823883608866858
42
-0.07156971261926566
10
-118.90855047349676
20
-18.607047643945233
10
-134.27803360451776
20
-14.090950994143483
42
-0.74844066495108308
10
-134.27803360451759
20
-0.0082082465769267587
10
-118.90855047349652
20
4.5078884032247473
42
-0.07156971261926677
10
-110.45104090331864
20
5.724724368146199
10
-98.012370676987956
20
5.7247243681611177
42
-0.071569712619554124
10
-89.554861106782994
20
4.5078884032306075
10
-85.690547457561607
20
3.3724166520768337
42
-0.33277858028116991
0
CIRCLE
5
101
100
AcDbEntity
8
0
100
AcDbCircle
10
-117.20903015137162
20
-7.0392709606376336
30
0
40
1.7000000000000013
210
-9.8607613152626476e-32
220
1.0253370805222945e-45
230
1
0
CIRCLE
5
102
100
AcDbEntity
8
0
100
AcDbCircle
10
-91.254381428910008
20
-7.0392709606379
30
0
40
1.7000000000000013
210
-9.8607613152626476e-32
220
1.0253370805222945e-45
230
1
0
LWPOLYLINE
5
103
100
AcDbEntity
8
0
100
AcDbPolyline
90
12
70
1
43
0.0
10
-101.45614231332623
20
-1.8705240448296145
42
-0.31265213340156822
10
-98.435440199011182
20
-7.8112382029825955
10
-95.411996665287617
20
-6.2738940332926543
10
-93.780308630332939
20
-9.4828805020372204
10
-108.39902476572448
20
-16.916125994609313
10
-110.0307128006792
20
-13.707139525864703
10
-107.0072692669553
20
-12.169795356174573
42
-0.31265213340157788
10
-110.02797138127043
20
-6.2290811980214578
10
-113.05141491499434
20
-7.7664253677115322
10
-114.68310294994949
20
-4.5574388989670194
10
-100.06438681455776
20
2.8758065936047874
10
-98.432698779602603
20
-0.33317987513973246
0
CIRCLE
5
104
100
AcDbEntity
8
0
100
AcDbCircle
10
-132.20903015137162
20
-7.0495796203602268
30
0
40
1.2645000000000008
210
9.8607613152624428e-32
220
-1.9721522630525396e-31
230
1
0
CIRCLE
5
105
100
AcDbEntity
8
0
100
AcDbCircle
10
-99.276679992523015
20
-16.765043769150338
30
0
40
1.7000000000000013
210
-9.8607613152626476e-32
220
1.0253370805222945e-45
230
1
0
CIRCLE
5
106
100
AcDbEntity
8
0
100
AcDbCircle
10
-109.18673158775843
20
2.7247243681462407
30
0
40
1.7000000000000013
210
-9.8607613152626476e-32
220
1.0253370805222945e-45
230
1
0
ENDSEC
0
SECTION
2
OBJECTS
0
DICTIONARY
5
C
100
AcDbDictionary
3
ACAD_GROUP
350
D
3
ACAD_MLINESTYLE
350
17
0
DICTIONARY
5
D
100
AcDbDictionary
0
DICTIONARY
5
1A
330
C
100
AcDbDictionary
0
DICTIONARY
5
17
100
AcDbDictionary
0
ENDSEC
0
EOF
