0
SECTION
2
HEADER
9
$INSUNITS
70
4
9
$ACADVER
1
AC1014
9
$HANDSEED
5
FFFF
0
ENDSEC
0
SECTION
2
TABLES
0
TABLE
2
VPORT
5
8
100
AcDbSymbolTable
0
ENDTAB
0
TABLE
2
LTYPE
5
5
100
AcDbSymbolTable
0
LTYPE
5
14
100
AcDbSymbolTableRecord
100
AcDbLinetypeTableRecord
2
BYBLOCK
70
0
0
LTYPE
5
15
100
AcDbSymbolTableRecord
100
AcDbLinetypeTableRecord
2
BYLAYER
70
0
0
ENDTAB
0
TABLE
2
LAYER
5
2
100
AcDbSymbolTable
70
2
0
LAYER
5
50
100
AcDbSymbolTableRecord
100
AcDbLayerTableRecord
2
0
70
0
6
CONTINUOUS
0
ENDTAB
0
TABLE
2
STYLE
5
3
100
AcDbSymbolTable
70
1
0
STYLE
5
11
100
AcDbSymbolTableRecord
100
AcDbTextStyleTableRecord
2
STANDARD
70
0
0
ENDTAB
0
TABLE
2
VIEW
5
6
100
AcDbSymbolTable
70
0
0
ENDTAB
0
TABLE
2
UCS
5
7
100
AcDbSymbolTable
70
0
0
ENDTAB
0
TABLE
2
APPID
5
9
100
AcDbSymbolTable
70
2
0
APPID
5
12
100
AcDbSymbolTableRecord
100
AcDbRegAppTableRecord
2
ACAD
70
0
0
ENDTAB
0
TABLE
2
DIMSTYLE
5
A
100
AcDbSymbolTable
70
1
0
ENDTAB
0
TABLE
2
BLOCK_RECORD
5
1
100
AcDbSymbolTable
70
1
0
BLOCK_RECORD
5
1F
100
AcDbSymbolTableRecord
100
AcDbBlockTableRecord
2
*MODEL_SPACE
0
BLOCK_RECORD
5
1B
100
AcDbSymbolTableRecord
100
AcDbBlockTableRecord
2
*PAPER_SPACE
0
ENDTAB
0
ENDSEC
0
SECTION
2
BLOCKS
0
BLOCK
5
20
100
AcDbEntity
100
AcDbBlockBegin
2
*MODEL_SPACE
0
ENDBLK
5
21
100
AcDbEntity
100
AcDbBlockEnd
0
BLOCK
5
1C
100
AcDbEntity
100
AcDbBlockBegin
2
*PAPER_SPACE
0
ENDBLK
5
1D
100
AcDbEntity
100
AcDbBlockEnd
0
ENDSEC
0
SECTION
2
ENTITIES
0
LWPOLYLINE
5
100
100
AcDbEntity
8
0
100
AcDbPolyline
90
14
70
1
43
0.0
10
-84.254381428908388
20
151.49368853110423
10
-84.254381428908346
20
134.48745119090498
42
-0.3327785802811693
10
-85.690547457560072
20
132.56857358856718
10
-89.554861106781445
20
131.43310183741349
42
-0.071569712619553902
10
-98.012370676986478
20
130.21626587248306
10
-110.45104090331712
20
130.21626587249807
42
-0.07156971261926677
10
-118.90855047349503
20
131.43310183741963
10
-134.27803360451605
20
135.94919848722148
42
-0.74844066495108308
10
-134.27803360451605
20
150.03194123478801
10
-118.90855047349504
20
154.54803788458972
42
-0.071569712619266215
10
-110.45104090331718
20
155.76487384951125
10
-98.012370676986492
20
155.76487384952603
42
-0.071569712619553444
10
-89.554861106781544
20
154.54803788459566
10
-85.690547457560086
20
153.41256613344203
42
-0.3327785802811693
0
CIRCLE
5
101
100
AcDbEntity
8
0
100
AcDbCircle
10
-117.20903015136999
20
142.98026120128199
30
0
40
1.7000000000000015
210
0
220
-0
230
1
0
CIRCLE
5
102
100
AcDbEntity
8
0
100
AcDbCircle
10
-91.254381428908374
20
142.98026120128199
30
0
40
1.7000000000000015
210
0
220
-0
230
1
0
LWPOLYLINE
5
103
100
AcDbEntity
8
0
100
AcDbPolyline
90
12
70
1
43
0.0
10
-98.435440199009548
20
143.75222844362676
42
-0.31265213340157028
10
-101.45614231332465
20
137.81151428547383
10
-98.43269877960104
20
136.2741701157839
10
-100.06438681455623
20
133.06518364703942
10
-114.68310294994788
20
140.49842913961135
10
-113.05141491499271
20
143.70741560835586
10
-110.02797138126881
20
142.17007143866573
42
-0.31265213340157522
10
-107.00726926695364
20
148.11078559681883
10
-110.03071280067751
20
149.64812976650899
10
-108.39902476572276
20
152.85711623525359
10
-93.780308630331291
20
145.42387074268137
10
-95.411996665285997
20
142.21488427393678
0
CIRCLE
5
104
100
AcDbEntity
8
0
100
AcDbCircle
10
-132.20903015137
20
142.99056986100476
30
0
40
1.2645000000000013
210
0
220
-0
230
1
0
CIRCLE
5
105
100
AcDbEntity
8
0
100
AcDbCircle
10
-99.276679992521295
20
152.70603400979451
30
0
40
1.7000000000000015
210
0
220
-0
230
1
0
CIRCLE
5
106
100
AcDbEntity
8
0
100
AcDbCircle
10
-109.1867315877569
20
133.21626587249804
30
0
40
1.7000000000000015
210
0
220
-0
230
1
0
ENDSEC
0
SECTION
2
OBJECTS
0
DICTIONARY
5
C
100
AcDbDictionary
3
ACAD_GROUP
350
D
3
ACAD_MLINESTYLE
350
17
0
DICTIONARY
5
D
100
AcDbDictionary
0
DICTIONARY
5
1A
330
C
100
AcDbDictionary
0
DICTIONARY
5
17
100
AcDbDictionary
0
ENDSEC
0
EOF
