0
SECTION
2
HEADER
9
$INSUNITS
70
4
9
$ACADVER
1
AC1014
9
$HANDSEED
5
FFFF
0
ENDSEC
0
SECTION
2
TABLES
0
TABLE
2
VPORT
5
8
100
AcDbSymbolTable
0
ENDTAB
0
TABLE
2
LTYPE
5
5
100
AcDbSymbolTable
0
LTYPE
5
14
100
AcDbSymbolTableRecord
100
AcDbLinetypeTableRecord
2
BYBLOCK
70
0
0
LTYPE
5
15
100
AcDbSymbolTableRecord
100
AcDbLinetypeTableRecord
2
BYLAYER
70
0
0
ENDTAB
0
TABLE
2
LAYER
5
2
100
AcDbSymbolTable
70
2
0
LAYER
5
50
100
AcDbSymbolTableRecord
100
AcDbLayerTableRecord
2
0
70
0
6
CONTINUOUS
0
ENDTAB
0
TABLE
2
STYLE
5
3
100
AcDbSymbolTable
70
1
0
STYLE
5
11
100
AcDbSymbolTableRecord
100
AcDbTextStyleTableRecord
2
STANDARD
70
0
0
ENDTAB
0
TABLE
2
VIEW
5
6
100
AcDbSymbolTable
70
0
0
ENDTAB
0
TABLE
2
UCS
5
7
100
AcDbSymbolTable
70
0
0
ENDTAB
0
TABLE
2
APPID
5
9
100
AcDbSymbolTable
70
2
0
APPID
5
12
100
AcDbSymbolTableRecord
100
AcDbRegAppTableRecord
2
ACAD
70
0
0
ENDTAB
0
TABLE
2
DIMSTYLE
5
A
100
AcDbSymbolTable
70
1
0
ENDTAB
0
TABLE
2
BLOCK_RECORD
5
1
100
AcDbSymbolTable
70
1
0
BLOCK_RECORD
5
1F
100
AcDbSymbolTableRecord
100
AcDbBlockTableRecord
2
*MODEL_SPACE
0
BLOCK_RECORD
5
1B
100
AcDbSymbolTableRecord
100
AcDbBlockTableRecord
2
*PAPER_SPACE
0
ENDTAB
0
ENDSEC
0
SECTION
2
BLOCKS
0
BLOCK
5
20
100
AcDbEntity
100
AcDbBlockBegin
2
*MODEL_SPACE
0
ENDBLK
5
21
100
AcDbEntity
100
AcDbBlockEnd
0
BLOCK
5
1C
100
AcDbEntity
100
AcDbBlockBegin
2
*PAPER_SPACE
0
ENDBLK
5
1D
100
AcDbEntity
100
AcDbBlockEnd
0
ENDSEC
0
SECTION
2
ENTITIES
0
ARC
5
100
100
AcDbEntity
8
0
100
AcDbCircle
10
-53.025940822306048
20
-33.70001479431216
30
-2.2451223564774443e-48
40
6.4376497999781082
210
-7.0651920433789007e-37
220
2.6637414521105251e-34
230
1
100
AcDbArc
50
269.99988443289652
51
359.9998841759205
0
LINE
5
101
100
AcDbEntity
8
0
100
AcDbLine
10
-53.025953807216048
20
-40.137664594277176
30
1.7148234534596932e-33
11
-69.032956376815719
21
-40.137632307723194
31
0
0
ARC
5
102
100
AcDbEntity
8
0
100
AcDbCircle
10
-69.032943391905832
20
-33.699982507764759
30
2.1382117680737565e-48
40
6.4376497999715525
210
-7.0665432442186979e-37
220
2.6577702658932793e-34
230
1
100
AcDbArc
50
179.99988469313567
51
269.99988443289755
0
LINE
5
103
100
AcDbEntity
8
0
100
AcDbLine
10
-75.470593191864353
20
-33.699969552028087
30
-4.5526364074215988e-36
11
-75.470591174898601
21
-32.69999965421956
31
-2.657690265760963e-34
0
LINE
5
104
100
AcDbEntity
8
0
100
AcDbLine
10
-75.470591174898601
20
-32.69999965421956
30
-2.657690265760963e-34
11
-74.470548621270879
21
-32.69999965421956
31
-1.3119657486015432e-31
0
LINE
5
105
100
AcDbEntity
8
0
100
AcDbLine
10
-74.470548621270879
20
-32.69999965421956
30
-1.3119657486015432e-31
11
-67.793700521489399
21
-37.106689234566581
31
0
0
ARC
5
106
100
AcDbEntity
8
0
100
AcDbCircle
10
-61.029439305900191
20
-26.857738117977306
30
6.2008141274138939e-48
40
12.279911595079216
210
-6.7924185188007508e-35
220
4.4829653907124226e-35
230
1
100
AcDbArc
50
236.57536997771115
51
269.99993575598853
0
ARC
5
107
100
AcDbEntity
8
0
100
AcDbCircle
10
-61.029417306271029
20
-26.857738118021501
30
-2.2579516270858869e-45
40
12.279911595079398
210
-5.0966362185967933e-33
220
1.4776089021695853e-34
230
1
100
AcDbArc
50
269.99983310981776
51
303.42439913300916
0
LINE
5
108
100
AcDbEntity
8
0
100
AcDbLine
10
-54.265198086914793
20
-37.106715439681686
30
1.1361991847806888e-31
11
-47.588293678274248
21
-32.700028875472569
31
0
0
LINE
5
109
100
AcDbEntity
8
0
100
AcDbLine
10
-47.588293678274248
20
-32.700028875472569
30
0
11
-46.588289005321329
21
-32.700038757243725
31
6.1317888344748367e-27
0
LINE
5
110
100
AcDbEntity
8
0
100
AcDbLine
10
-46.588289005321329
20
-32.700038757243725
30
6.1317888344748367e-27
11
-46.588291022341089
21
-33.700027808395113
31
4.5517898296962277e-36
0
CIRCLE
5
111
100
AcDbEntity
8
0
100
AcDbCircle
10
-91.029459132725506
20
-3.2588488860254783
30
-1.2621774483536189e-28
40
1.2645
210
7.57824473809177e-31
220
1.4214642000313769e-42
230
1
0
CIRCLE
5
112
100
AcDbEntity
8
0
100
AcDbCircle
10
-31.029459132725506
20
-3.2587278805431907
30
4.7331654313260708e-29
40
1.2645
210
7.57824473809177e-31
220
1.4214642000313769e-42
230
1
0
CIRCLE
5
113
100
AcDbEntity
8
0
100
AcDbCircle
10
-74.470571004616417
20
-22.699999325529099
30
0
40
1.2645
210
6.3083892319739864e-89
220
9.24525333003793e-59
230
1
0
CIRCLE
5
114
100
AcDbEntity
8
0
100
AcDbCircle
10
-61.029446015396182
20
-35.637648451004857
30
0
40
1.2645
210
6.3083892319739864e-89
220
9.24525333003793e-59
230
1
0
CIRCLE
5
115
100
AcDbEntity
8
0
100
AcDbCircle
10
-61.029419919816171
20
-9.7623502000282425
30
0
40
1.2645
210
6.3083892319739864e-89
220
9.24525333003793e-59
230
1
0
CIRCLE
5
116
100
AcDbEntity
8
0
100
AcDbCircle
10
-47.588268835044104
20
-22.699999325529227
30
0
40
1.2645
210
6.3083892319739864e-89
220
9.24525333003793e-59
230
1
0
CIRCLE
5
117
100
AcDbEntity
8
0
100
AcDbCircle
10
14.000000000043675
20
-22.999999975232214
30
0
40
1.7000000000000002
210
7.1114447780847702e-89
220
9.8081320386748241e-59
230
1
0
CIRCLE
5
118
100
AcDbEntity
8
0
100
AcDbCircle
10
-136.05883983967649
20
-5.9999999752314537
30
0
40
1.7000000000000002
210
7.1114447780847702e-89
220
9.8081320386748241e-59
230
1
0
CIRCLE
5
119
100
AcDbEntity
8
0
100
AcDbCircle
10
-136.05883983967666
20
-22.999999975231447
30
0
40
1.7000000000000002
210
7.1114447780847702e-89
220
9.8081320386748241e-59
230
1
0
CIRCLE
5
120
100
AcDbEntity
8
0
100
AcDbCircle
10
14.000000000043675
20
-5.9999999752322219
30
0
40
1.7000000000000002
210
7.1114447780847702e-89
220
9.8081320386748241e-59
230
1
0
LWPOLYLINE
5
121
100
AcDbEntity
8
0
100
AcDbPolyline
90
4
70
1
43
0.0
10
-57.697126191304697
20
-14.500002686192621
10
-57.69712619130469
20
-30.9000026861927
10
-54.097126191304682
20
-30.900002686192771
10
-54.097126191304703
20
-14.500002686192584
0
LWPOLYLINE
5
122
100
AcDbEntity
8
0
100
AcDbPolyline
90
4
70
1
43
0.0
10
-64.36171364832839
20
-30.900002686192668
10
-64.361713648328191
20
-14.50000268619252
10
-67.961713648328185
20
-14.500002686192557
10
-67.961713648328384
20
-30.900002686192668
0
ARC
5
123
100
AcDbEntity
8
0
100
AcDbCircle
10
-69.032921204632515
20
-11.699999970826973
30
1.5777218104420236e-29
40
6.4376497708051463
210
-2.2572847698698888e-44
220
1.4709210208387348e-42
230
1
100
AcDbArc
50
90
51
180
0
LINE
5
124
100
AcDbEntity
8
0
100
AcDbLine
10
-69.032921204632515
20
-5.2623502000218272
30
1.5777218104410766e-29
11
-53.025918635000274
21
-5.2623501708554965
31
1.5777218104420236e-29
0
ARC
5
125
100
AcDbEntity
8
0
100
AcDbCircle
10
-53.025918635000373
20
-11.699999970826545
30
1.9117102933589427e-56
40
6.4376497999715987
210
-2.2420775428849329e-44
220
6.7666887030054312e-42
230
1
100
AcDbArc
50
0
51
89.999999999999119
0
LINE
5
126
100
AcDbEntity
8
0
100
AcDbLine
10
-46.588268835028771
20
-11.699999970826543
30
1.4433710045474412e-43
11
-46.588268835028771
21
-12.699999970827049
31
-1.1703238643102789e-42
0
LINE
5
127
100
AcDbEntity
8
0
100
AcDbLine
10
-46.588268835028771
20
-12.699999970827049
30
-1.1703238643102789e-42
11
-47.588268835028771
21
-12.699999970827051
31
1.2558942150746102e-31
0
LINE
5
128
100
AcDbEntity
8
0
100
AcDbLine
10
-47.588268835028771
20
-12.699999970827051
30
1.2558942150746102e-31
11
-54.265168354671722
21
-8.2932958345119712
31
0
0
ARC
5
129
100
AcDbEntity
8
0
100
AcDbCircle
10
-61.029408920001899
20
-18.542260533052932
30
-8.9804894259097774e-48
40
12.279911555772586
210
5.4263170379153864e-35
220
-3.5813289349543494e-35
230
1
100
AcDbArc
50
56.575485299888562
51
90.000051323090304
0
ARC
5
130
100
AcDbEntity
8
0
100
AcDbCircle
10
-61.029430919631068
20
-18.542260533052854
30
-9.85287982728387e-46
40
12.279911555772507
210
-4.9747081532469734e-33
220
-1.1802652324621134e-34
230
1
100
AcDbArc
50
89.999948676919246
51
123.42451445518603
0
LINE
5
131
100
AcDbEntity
8
0
100
AcDbLine
10
-67.793670767619531
20
-8.2932968261077651
30
-1.1090175058660169e-31
11
-74.470571004604096
21
-12.699999970826923
31
0
0
LINE
5
132
100
AcDbEntity
8
0
100
AcDbLine
10
-74.470571004604096
20
-12.699999970826923
30
0
11
-75.470571004604096
21
-12.699999970826923
31
1.2558942150746102e-31
0
LINE
5
133
100
AcDbEntity
8
0
100
AcDbLine
10
-75.470571004604096
20
-12.699999970826923
30
1.2558942150746102e-31
11
-75.470570975437667
21
-11.699999970826909
31
1.577721810442009e-29
0
CIRCLE
5
134
100
AcDbEntity
8
0
100
AcDbCircle
10
-91.029459132724497
20
-42.141150739020496
30
0
40
1.2645
210
7.57824473809177e-31
220
1.4249312081701901e-42
230
1
0
CIRCLE
5
135
100
AcDbEntity
8
0
100
AcDbCircle
10
-31.029459132724501
20
-42.141271744504074
30
4.7331654313260708e-29
40
1.2645
210
7.57824473809177e-31
220
1.4249312081701901e-42
230
1
0
LINE
5
136
100
AcDbEntity
8
0
100
AcDbLine
10
-16.99999999995633
20
-43.141150699248634
30
0
11
-16.999999999956323
21
-32.69999965421971
31
-1.1703238643102789e-42
0
ARC
5
137
100
AcDbEntity
8
0
100
AcDbCircle
10
-17.27885063985439
20
-29.712987382277127
30
2.2237402387967068e-47
40
2.9999999986845221
210
2.9327456441689267e-33
220
2.737846128206832e-34
230
1
100
AcDbArc
50
275.3333536127746
51
345.76434830030399
0
ARC
5
138
100
AcDbEntity
8
0
100
AcDbCircle
10
-5.5407181951254465
20
-32.690964331483094
30
4.276423536147513e-49
40
9.1100000000000207
210
-5.3274611434067402e-34
220
1.3515826778713748e-34
230
1
100
AcDbArc
50
41.289572585683366
51
165.76434830030433
0
ARC
5
139
100
AcDbEntity
8
0
100
AcDbCircle
10
3.55854490955657
20
-24.699999999703568
30
-5.3020090167376927e-57
40
2.9999999999999809
210
7.0986266148563293e-34
220
6.2340072406397038e-34
230
1
100
AcDbArc
50
221.28957258568315
51
270.00000000000034
0
LINE
5
140
100
AcDbEntity
8
0
100
AcDbLine
10
3.5585449095565846
20
-27.69999999970354
30
-2.1943572455817735e-43
11
21.00000000004367
21
-27.69999999970354
31
0
0
ARC
5
141
100
AcDbEntity
8
0
100
AcDbCircle
10
21.00000000004367
20
-24.699999999703532
30
1.3684555315672042e-46
40
3.0000000000000071
210
-3.875660041310848e-32
220
-4.5615184385573369e-47
230
1
100
AcDbArc
50
-90
51
0
0
LINE
5
142
100
AcDbEntity
8
0
100
AcDbLine
10
24.000000000043666
20
-24.699999999703532
30
1.162698012393255e-31
11
24.000000000043677
21
-2.9999999708270586
31
-5.5184148110421991e-59
0
ARC
5
143
100
AcDbEntity
8
0
100
AcDbCircle
10
21.000000000043663
20
-2.9999999708270586
30
-7.46761833343337e-59
40
3.0000000000000115
210
-6.49734507463721e-60
220
-3.6572620759696241e-44
230
1
100
AcDbArc
50
0
51
89.999999999999858
0
LINE
5
144
100
AcDbEntity
8
0
100
AcDbLine
10
21.00000000004367
20
2.9172943505351157e-08
30
1.0971786227908882e-43
11
7.0000000000363105
21
2.9172975146707358e-08
31
0
0
ARC
5
145
100
AcDbEntity
8
0
100
AcDbCircle
10
7.0000000000363105
20
-2.9999999708270679
30
0
40
3.0000000000000431
210
-3.8756600413108524e-32
220
0
230
1
100
AcDbArc
50
90
51
180
0
LINE
5
146
100
AcDbEntity
8
0
100
AcDbLine
10
4.0000000000363096
20
-2.9999999708197156
30
-1.1626980123932561e-31
11
4.0000000000125091
21
-12.699999970827058
31
3.1352976324872369e-39
0
LINE
5
147
100
AcDbEntity
8
0
100
AcDbLine
10
4.0000000000125091
20
-12.699999970827058
30
3.1352976324872369e-39
11
3.0000000000436877
21
-12.699999970827058
31
1.2558941739961063e-31
0
LINE
5
148
100
AcDbEntity
8
0
100
AcDbLine
10
3.0000000000436877
20
-12.699999970827058
30
1.2558941739961063e-31
11
3.00000000004367
21
-3.0000000000437055
31
2.3406477286205578e-42
0
ARC
5
149
100
AcDbEntity
8
0
100
AcDbCircle
10
-1.7763568394002505e-14
20
-3.0000000000437055
30
0
40
3.0000000000436877
210
-7.802159095288239e-43
220
-7.1361211238431181e-44
230
1
100
AcDbArc
50
0
51
89.999999999999702
0
LINE
5
150
100
AcDbEntity
8
0
100
AcDbLine
10
-2.068805831024166e-15
20
-1.7763568394002495e-14
30
2.1408363371841117e-43
11
-61.029419919816377
21
2.9172921856002176e-08
31
0
0
LINE
5
151
100
AcDbEntity
8
0
100
AcDbLine
10
-61.029419919816377
20
2.9172921856002176e-08
30
0
11
-122.05883983963274
21
-2.7688962234151404e-10
31
0
0
ARC
5
152
100
AcDbEntity
8
0
100
AcDbCircle
10
-122.05883983963277
20
-2.9999999708701619
30
-1.5777218104420236e-29
40
2.9999999705932723
210
-6.2279932968736464e-44
220
-5.2590727530241188e-30
230
1
100
AcDbArc
50
89.99999999999946
51
180
0
LINE
5
153
100
AcDbEntity
8
0
100
AcDbLine
10
-125.05883981022605
20
-3.0000000000430234
30
-1.5777218104420236e-29
11
-125.05883983967657
21
-12.699999970826346
31
3.8805996602914088e-36
0
LINE
5
154
100
AcDbEntity
8
0
100
AcDbLine
10
-125.05883983967657
20
-12.699999970826346
30
3.8805996602914088e-36
11
-126.05883983964534
21
-12.699999970826347
31
1.2558941739493029e-31
0
LINE
5
155
100
AcDbEntity
8
0
100
AcDbLine
10
-126.05883983964534
20
-12.699999970826347
30
1.2558941739493029e-31
11
-126.05883983966908
21
-2.9999999708189673
31
3.127105365437065e-39
0
ARC
5
156
100
AcDbEntity
8
0
100
AcDbCircle
10
-129.05883983966908
20
-2.9999999708263303
30
2.7879108444817915e-57
40
2.9999999999999893
210
-1.0423684551456948e-39
220
1.1215603674057521e-42
230
1
100
AcDbArc
50
0
51
89.99999999999946
0
LINE
5
157
100
AcDbEntity
8
0
100
AcDbLine
10
-129.05883983966905
20
2.9173676807658921e-08
30
-3.3646811098920541e-42
11
-143.05883983967644
21
2.9173854443342861e-08
31
0
0
ARC
5
158
100
AcDbEntity
8
0
100
AcDbCircle
10
-143.05883983967649
20
-2.9999999708261922
30
-1.9158377441940858e-46
40
3.0000000000000466
210
-3.8756600413108414e-32
220
6.2459426401746437e-46
230
1
100
AcDbArc
50
89.99999999999892
51
180
0
LINE
5
159
100
AcDbEntity
8
0
100
AcDbLine
10
-146.05883983967649
20
-2.9999999708261544
30
-1.1626980123932561e-31
11
-146.05883983967669
21
-24.699834544227283
31
3.2769068200687805e-41
0
ARC
5
160
100
AcDbEntity
8
0
100
AcDbCircle
10
-143.05883983967666
20
-24.699834544227283
30
-7.6975623650655235e-48
40
3.0000000000000249
210
1.0923025299416635e-41
220
2.6577702060681034e-34
230
1
100
AcDbArc
50
180
51
269.99988443289908
0
LINE
5
161
100
AcDbEntity
8
0
100
AcDbLine
10
-143.05884589075592
20
-27.699834544221208
30
7.9733106182205174e-34
11
-125.6174209297709
21
-27.699869724035999
31
0
0
ARC
5
162
100
AcDbEntity
8
0
100
AcDbCircle
10
-125.61741487869168
20
-24.699869724042127
30
2.6000655099776879e-46
40
2.9999999999999725
210
-8.4098629200639779e-33
220
1.6962915524242518e-38
230
1
100
AcDbArc
50
269.99988443289965
51
318.71031184721596
0
ARC
5
163
100
AcDbEntity
8
0
100
AcDbCircle
10
-116.5181678920143
20
-32.690852409259449
30
4.276423536147513e-48
40
9.1100000000000048
210
4.0095488105931436e-34
220
-3.5211963328278765e-34
230
1
100
AcDbArc
50
14.235113721740692
51
138.71031184721588
0
ARC
5
164
100
AcDbEntity
8
0
100
AcDbCircle
10
-104.78000748612808
20
-29.71298567522226
30
-1.1973985901213036e-47
40
2.9999999999999938
210
-1.622638755342023e-33
220
2.6659851930293888e-33
230
1
100
AcDbArc
50
194.23511372174102
51
264.6669971492073
0
LINE
5
165
100
AcDbEntity
8
0
100
AcDbLine
10
-105.05883983979901
20
-32.699999655528742
30
9.4979697086949771e-33
11
-105.05883983967689
21
-43.141150962302035
31
1.4043886371723346e-41
0
ARC
5
166
100
AcDbEntity
8
0
100
AcDbCircle
10
-102.05883982307112
20
-43.141150960180781
30
0
40
3.0000000166057639
210
4.6813613107897961e-42
220
-9.3170528953113673e-38
230
1
100
AcDbArc
50
180
51
270.0000004454584
0
LINE
5
167
100
AcDbEntity
8
0
100
AcDbLine
10
-102.05883979974698
20
-46.141150976786548
30
-2.7951158840964395e-37
11
-61.029419919816625
21
-46.141150739019722
31
0
0
LINE
5
168
100
AcDbEntity
8
0
100
AcDbLine
10
-61.029419919816625
20
-46.141150739019722
30
0
11
-20.000000039727421
21
-46.141150739019743
31
0
0
ARC
5
169
100
AcDbEntity
8
0
100
AcDbCircle
10
-20.000000039727443
20
-43.141150699248634
30
0
40
3.0000000397711091
210
2.2420775429196272e-44
220
1.6594707187632481e-58
230
1
100
AcDbArc
50
-89.999999999999588
51
0
0
LINE
5
170
100
AcDbEntity
8
0
100
AcDbLine
10
-105.05883983967681
20
-36.092919720096162
30
-1.5777218104420236e-29
11
-16.999999999956295
21
-36.092919720097122
31
-1.4860699192444742e-29
0
LINE
5
171
100
AcDbEntity
8
0
100
AcDbLine
10
-75.470591174898601
20
-32.69999965421956
30
0
11
-105.05883983967678
21
-32.699999654219226
31
0
0
LINE
5
172
100
AcDbEntity
8
0
100
AcDbLine
10
-16.999999999956323
20
-32.69999965421971
30
0
11
-46.588289005321329
21
-32.700019205731785
31
3.8987527684786003e-27
0
LINE
5
173
100
AcDbEntity
8
0
100
AcDbLine
10
-71.855564603346011
20
-39.48583978597356
30
0
11
-105.05883983967685
21
-39.485839785973198
31
0
0
LINE
5
174
100
AcDbEntity
8
0
100
AcDbLine
10
-16.999999999956312
20
-39.485839785974157
30
0
11
-50.203253430294374
21
-39.48583978597383
31
0
0
LINE
5
175
100
AcDbEntity
8
0
100
AcDbLine
10
-75.470591174898601
20
-32.69999965421956
30
0
11
-105.05883983967678
21
-32.699999654219226
31
0
0
LINE
5
176
100
AcDbEntity
8
0
100
AcDbLine
10
-16.999999999956323
20
-32.69999965421971
30
0
11
-46.588289005321329
21
-32.700019205731785
31
3.8987527684786003e-27
0
LINE
5
177
100
AcDbEntity
8
0
100
AcDbLine
10
-71.855564603346011
20
-39.48583978597356
30
0
11
-105.05883983967685
21
-39.485839785973198
31
0
0
LINE
5
178
100
AcDbEntity
8
0
100
AcDbLine
10
-16.999999999956312
20
-39.485839785974157
30
0
11
-50.203253430294374
21
-39.48583978597383
31
0
0
LINE
5
179
100
AcDbEntity
8
0
100
AcDbLine
10
3.0000000000437232
20
-9.3070799049507436
30
0
11
-125.05883983967651
21
-9.3070799049493438
31
1.6275342219860644e-31
0
LINE
5
180
100
AcDbEntity
8
0
100
AcDbLine
10
-46.588268835028771
20
-12.699999970827049
30
0
11
3.0000000000436877
21
-12.699999970827058
31
1.4831524886342951e-31
0
LINE
5
181
100
AcDbEntity
8
0
100
AcDbLine
10
-125.05883983967657
20
-12.699999970826346
30
0
11
-75.470571004604096
21
-12.699999970826923
31
-3.447228169005997e-31
0
LINE
5
182
100
AcDbEntity
8
0
100
AcDbLine
10
-46.588268835028771
20
-12.699999970827049
30
0
11
3.0000000000436877
21
-12.699999970827058
31
1.4831524886342951e-31
0
LINE
5
183
100
AcDbEntity
8
0
100
AcDbLine
10
-125.05883983967657
20
-12.699999970826346
30
0
11
-75.470571004604096
21
-12.699999970826923
31
-3.447228169005997e-31
0
LINE
5
184
100
AcDbEntity
8
0
100
AcDbLine
10
-50.203262276734065
20
-5.9141598390732719
30
0
11
3.00000000004367
21
-5.9141598390738181
31
0
0
LINE
5
185
100
AcDbEntity
8
0
100
AcDbLine
10
-125.05883983967649
20
-5.9141598390724237
30
0
11
-71.855577496378373
21
-5.9141598390730055
31
0
0
LINE
5
186
100
AcDbEntity
8
0
100
AcDbLine
10
-50.203262276734065
20
-5.9141598390732719
30
0
11
3.00000000004367
21
-5.9141598390738181
31
0
0
LINE
5
187
100
AcDbEntity
8
0
100
AcDbLine
10
-125.05883983967649
20
-5.9141598390724237
30
0
11
-71.855577496378373
21
-5.9141598390730055
31
0
0
ENDSEC
0
SECTION
2
OBJECTS
0
DICTIONARY
5
C
100
AcDbDictionary
3
ACAD_GROUP
350
D
3
ACAD_MLINESTYLE
350
17
0
DICTIONARY
5
D
100
AcDbDictionary
0
DICTIONARY
5
1A
330
C
100
AcDbDictionary
0
DICTIONARY
5
17
100
AcDbDictionary
0
ENDSEC
0
EOF
