0
SECTION
2
HEADER
9
$INSUNITS
70
4
9
$ACADVER
1
AC1014
9
$HANDSEED
5
FFFF
0
ENDSEC
0
SECTION
2
TABLES
0
TABLE
2
VPORT
5
8
100
AcDbSymbolTable
0
ENDTAB
0
TABLE
2
LTYPE
5
5
100
AcDbSymbolTable
0
LTYPE
5
14
100
AcDbSymbolTableRecord
100
AcDbLinetypeTableRecord
2
BYBLOCK
70
0
0
LTYPE
5
15
100
AcDbSymbolTableRecord
100
AcDbLinetypeTableRecord
2
BYLAYER
70
0
0
ENDTAB
0
TABLE
2
LAYER
5
2
100
AcDbSymbolTable
70
2
0
LAYER
5
50
100
AcDbSymbolTableRecord
100
AcDbLayerTableRecord
2
0
70
0
6
CONTINUOUS
0
ENDTAB
0
TABLE
2
STYLE
5
3
100
AcDbSymbolTable
70
1
0
STYLE
5
11
100
AcDbSymbolTableRecord
100
AcDbTextStyleTableRecord
2
STANDARD
70
0
0
ENDTAB
0
TABLE
2
VIEW
5
6
100
AcDbSymbolTable
70
0
0
ENDTAB
0
TABLE
2
UCS
5
7
100
AcDbSymbolTable
70
0
0
ENDTAB
0
TABLE
2
APPID
5
9
100
AcDbSymbolTable
70
2
0
APPID
5
12
100
AcDbSymbolTableRecord
100
AcDbRegAppTableRecord
2
ACAD
70
0
0
ENDTAB
0
TABLE
2
DIMSTYLE
5
A
100
AcDbSymbolTable
70
1
0
ENDTAB
0
TABLE
2
BLOCK_RECORD
5
1
100
AcDbSymbolTable
70
1
0
BLOCK_RECORD
5
1F
100
AcDbSymbolTableRecord
100
AcDbBlockTableRecord
2
*MODEL_SPACE
0
BLOCK_RECORD
5
1B
100
AcDbSymbolTableRecord
100
AcDbBlockTableRecord
2
*PAPER_SPACE
0
ENDTAB
0
ENDSEC
0
SECTION
2
BLOCKS
0
BLOCK
5
20
100
AcDbEntity
100
AcDbBlockBegin
2
*MODEL_SPACE
0
ENDBLK
5
21
100
AcDbEntity
100
AcDbBlockEnd
0
BLOCK
5
1C
100
AcDbEntity
100
AcDbBlockBegin
2
*PAPER_SPACE
0
ENDBLK
5
1D
100
AcDbEntity
100
AcDbBlockEnd
0
ENDSEC
0
SECTION
2
ENTITIES
0
LWPOLYLINE
5
100
100
AcDbEntity
8
OUTER_PROFILES
100
AcDbPolyline
90
20
70
1
43
0.0
10
-2.9863196482277594
20
-15.185935559166204
42
-0.33277858028148793
10
-11.073336192790272
20
-11.728409384427714
10
-11.075813673849604
20
-11.724121602797148
42
-0.33277858032414392
10
-10.032503331166239
20
-2.9910907780630422
10
-5.0010815480275284
20
2.2877438485820587
42
0.99999999999999989
10
-4.3111416656750334
20
3.0116105205178387
10
1.0198111784334196
20
8.604705212121587
42
-0.071569712619266215
10
7.7358113364966785
20
13.887270855071119
10
11.151593034625567
20
15.859373337978827
42
-0.41421356237309426
10
15.249669245978914
20
14.761297126625506
10
16.842391354323965
20
12.002621512633656
42
0.26189084509942295
10
19.372541025981789
20
10.503390613685507
42
-0.56212958080499664
10
23.390129950856263
20
3.5501410905775144
42
0.26189084509942107
10
23.42541146733458
20
0.60937488702681586
10
25.019994646029417
20
-2.1482254001554879
42
-0.41421356237309992
10
23.924683886173103
20
-6.2470416121054262
10
20.510233653627523
20
-8.2214484652722817
42
-0.071569712619266437
10
12.579541649008359
20
-11.401744398522327
10
5.0652223365680697
20
-13.228538314862897
42
0.99999999999999989
10
4.0935246434918433
20
-13.464766156724036
0
LWPOLYLINE
5
101
100
AcDbEntity
8
INTERIOR_PROFILES
100
AcDbPolyline
90
4
70
1
43
0.0
10
3.8971143170299838
20
-6.7500000000000622
10
2.5980762113532982
20
-4.5000000000000648
10
9.2216145020781646
20
-4.5000000000000693
10
10.520652607754815
20
-6.7500000000000675
0
LWPOLYLINE
5
102
100
AcDbEntity
8
INTERIOR_PROFILES
100
AcDbPolyline
90
4
70
1
43
0.0
10
0
20
0
10
13.247076581449662
20
8.8817841970012523e-15
10
14.546114687126311
20
-2.2500000000000235
10
1.2990381056766842
20
-2.2500000000000324
0
LWPOLYLINE
5
103
100
AcDbEntity
8
INTERIOR_PROFILES
100
AcDbPolyline
90
4
70
1
43
0.0
10
-0.60398697290800607
20
-3.3688085600411539
10
1.3960130270919846
20
-6.8329101751789265
10
0.5299876233075862
20
-7.3329101751789239
10
-1.47001237669244
20
-3.8688085600411517
0
LWPOLYLINE
5
104
100
AcDbEntity
8
INTERIOR_PROFILES
100
AcDbPolyline
90
4
70
1
43
0.0
10
-7.3020589009012982
20
-7.5823523522333449
10
-4.7039826895479964
20
-6.0823523522333431
42
-0.99999999999999989
10
-3.0039826895479815
20
-9.0268387251004238
10
-5.6020589009012784
20
-10.526838725100433
42
-0.99999999999999989
0
LWPOLYLINE
5
105
100
AcDbEntity
8
INTERIOR_PROFILES
100
AcDbPolyline
90
4
70
1
43
0.0
10
10.649000370096326
20
4.4999999999999858
10
11.948038475773012
20
2.2499999999999885
10
5.3245001850481453
20
2.2500000000000107
10
4.025462079371497
20
4.4999999999999911
0
CIRCLE
5
106
100
AcDbEntity
8
INTERIOR_PROFILES
100
AcDbCircle
10
-19.266122780458769
20
5.8045955386668391
30
0
40
1.6999999999999993
210
0
220
0
230
-1
0
LINE
5
107
100
AcDbEntity
8
BEND
100
AcDbLine
10
4.281273279356129
20
-12.945234418057085
30
-5.7210377694369268e-15
11
-4.4575236844967687
21
2.1908059203647734
31
1.1097649686497439e-15
0
LINE
5
108
100
AcDbEntity
8
BEND_EXTENT
100
AcDbLine
10
-1.1365119631195264
20
-3.6762620064900089
30
3.3306690738754696e-15
11
-4.5123152403899862
21
2.1708007860999281
31
3.3306690738754696e-15
0
LINE
5
109
100
AcDbEntity
8
BEND_EXTENT
100
AcDbLine
10
4.2365525469300547
20
-12.982682730241068
30
-1.1102230246251565e-15
11
0.86348803688046427
21
-7.140363621627781
31
-1.1102230246251565e-15
0
LINE
5
110
100
AcDbEntity
8
BEND_EXTENT
100
AcDbLine
10
-1.036999674800223
20
-3.6188085600411481
30
-1.1102230246251563e-15
11
-4.4061116068512955
21
2.2166644826578121
31
1.1102230246251565e-15
0
LINE
5
111
100
AcDbEntity
8
BEND_EXTENT
100
AcDbLine
10
4.3293734900299707
20
-12.913639533901231
30
-1.1102230246251565e-15
11
0.96300032519976764
21
-7.0829101751789203
31
-1.1102230246251565e-15
0
ENDSEC
0
SECTION
2
OBJECTS
0
DICTIONARY
5
C
100
AcDbDictionary
3
ACAD_GROUP
350
D
3
ACAD_MLINESTYLE
350
17
0
DICTIONARY
5
D
100
AcDbDictionary
0
DICTIONARY
5
1A
330
C
100
AcDbDictionary
0
DICTIONARY
5
17
100
AcDbDictionary
0
ENDSEC
0
EOF
