%TF.GenerationSoftware,KiCad,Pcbnew,(7.0.0-0)*%
%TF.CreationDate,2023-03-26T20:27:34-07:00*%
%TF.ProjectId,voron_badge,766f726f-6e5f-4626-9164-67652e6b6963,rev?*%
%TF.SameCoordinates,Original*%
%TF.FileFunction,Legend,Top*%
%TF.FilePolarity,Positive*%
%FSLAX46Y46*%
G04 Gerber Fmt 4.6, Leading zero omitted, Abs format (unit mm)*
G04 Created by KiCad (PCBNEW (7.0.0-0)) date 2023-03-26 20:27:34*
%MOMM*%
%LPD*%
G01*
G04 APERTURE LIST*
G04 Aperture macros list*
%AMOutline5P*
0 Free polygon, 5 corners , with rotation*
0 The origin of the aperture is its center*
0 number of corners: always 5*
0 $1 to $10 corner X, Y*
0 $11 Rotation angle, in degrees counterclockwise*
0 create outline with 5 corners*
4,1,5,$1,$2,$3,$4,$5,$6,$7,$8,$9,$10,$1,$2,$11*%
%AMOutline6P*
0 Free polygon, 6 corners , with rotation*
0 The origin of the aperture is its center*
0 number of corners: always 6*
0 $1 to $12 corner X, Y*
0 $13 Rotation angle, in degrees counterclockwise*
0 create outline with 6 corners*
4,1,6,$1,$2,$3,$4,$5,$6,$7,$8,$9,$10,$11,$12,$1,$2,$13*%
%AMOutline7P*
0 Free polygon, 7 corners , with rotation*
0 The origin of the aperture is its center*
0 number of corners: always 7*
0 $1 to $14 corner X, Y*
0 $15 Rotation angle, in degrees counterclockwise*
0 create outline with 7 corners*
4,1,7,$1,$2,$3,$4,$5,$6,$7,$8,$9,$10,$11,$12,$13,$14,$1,$2,$15*%
%AMOutline8P*
0 Free polygon, 8 corners , with rotation*
0 The origin of the aperture is its center*
0 number of corners: always 8*
0 $1 to $16 corner X, Y*
0 $17 Rotation angle, in degrees counterclockwise*
0 create outline with 8 corners*
4,1,8,$1,$2,$3,$4,$5,$6,$7,$8,$9,$10,$11,$12,$13,$14,$15,$16,$1,$2,$17*%
G04 Aperture macros list end*
%ADD10C,0.000000*%
%ADD11C,0.100000*%
%ADD12C,3.200000*%
%ADD13Outline8P,-1.500000X1.400000X-0.900000X2.000000X0.900000X2.000000X1.500000X1.400000X1.500000X-1.400000X0.900000X-2.000000X-0.900000X-2.000000X-1.500000X-1.400000X0.000000*%
%ADD14C,1.300000*%
%ADD15C,0.600000*%
%ADD16C,0.900000*%
G04 APERTURE END LIST*
D10*
G36*
X118654435Y-73060800D02*
G01*
X117843046Y-74471912D01*
X116502491Y-74471912D01*
X116502491Y-71614414D01*
X117843046Y-71614414D01*
X118654435Y-73060800D01*
G37*
G36*
X160070534Y-135184955D02*
G01*
X158871090Y-137301613D01*
X156436922Y-137301613D01*
X155237480Y-135184955D01*
X156436922Y-133103565D01*
X158871090Y-133103565D01*
X160070534Y-135184955D01*
G37*
G36*
X201451358Y-119098299D02*
G01*
X201451353Y-119098299D01*
X201451353Y-119098289D01*
X201451358Y-119098299D01*
G37*
G36*
X181272474Y-96485242D02*
G01*
X180637475Y-97543577D01*
X179367471Y-97543577D01*
X178767750Y-96485242D01*
X179367471Y-95391630D01*
X180637475Y-95391630D01*
X181272474Y-96485242D01*
G37*
G36*
X202580340Y-112328160D02*
G01*
X202580635Y-112331165D01*
X202581111Y-112333976D01*
X202581754Y-112336600D01*
X202582553Y-112339043D01*
X202583494Y-112341311D01*
X202584564Y-112343411D01*
X202585751Y-112345350D01*
X202587041Y-112347134D01*
X202588421Y-112348770D01*
X202589879Y-112350263D01*
X202591401Y-112351621D01*
X202592975Y-112352849D01*
X202594588Y-112353955D01*
X202596226Y-112354944D01*
X202597878Y-112355824D01*
X202599529Y-112356600D01*
X202601168Y-112357279D01*
X202604355Y-112358373D01*
X202607335Y-112359157D01*
X202610005Y-112359682D01*
X202612261Y-112360001D01*
X202614001Y-112360165D01*
X202615517Y-112360233D01*
X202630262Y-112375185D01*
X202647486Y-112393858D01*
X202656771Y-112404719D01*
X202666365Y-112416665D01*
X202676165Y-112429748D01*
X202686070Y-112444019D01*
X202695974Y-112459531D01*
X202705775Y-112476335D01*
X202715370Y-112494482D01*
X202724655Y-112514025D01*
X202733527Y-112535014D01*
X202741882Y-112557503D01*
X202749618Y-112581541D01*
X202756630Y-112607182D01*
X202809544Y-112920268D01*
X202836002Y-113068546D01*
X202862465Y-113206903D01*
X202874110Y-113287998D01*
X202882860Y-113372815D01*
X202889131Y-113461767D01*
X202893334Y-113555267D01*
X202895883Y-113653729D01*
X202897192Y-113757565D01*
X202897743Y-113983015D01*
X202897192Y-114208458D01*
X202895883Y-114312292D01*
X202893334Y-114410751D01*
X202889131Y-114504250D01*
X202882860Y-114593201D01*
X202874110Y-114678020D01*
X202862465Y-114759118D01*
X202862465Y-114864953D01*
X201486631Y-114864953D01*
X200781070Y-113594954D01*
X201521905Y-112324955D01*
X202580239Y-112324955D01*
X202580340Y-112328160D01*
G37*
G36*
X132624432Y-42898313D02*
G01*
X132306931Y-43498034D01*
X131601376Y-43498034D01*
X131283876Y-42898313D01*
X131601376Y-42333867D01*
X132306931Y-42333867D01*
X132624432Y-42898313D01*
G37*
G36*
X174710805Y-130881062D02*
G01*
X173581919Y-132821339D01*
X171359421Y-132821339D01*
X170230531Y-130881062D01*
X171359421Y-128940786D01*
X173581919Y-128940786D01*
X174710805Y-130881062D01*
G37*
G36*
X188857194Y-105057740D02*
G01*
X188116360Y-106327734D01*
X186669969Y-106327734D01*
X185929140Y-105057740D01*
X186669969Y-103823019D01*
X188116360Y-103823019D01*
X188857194Y-105057740D01*
G37*
G36*
X150651370Y-27834705D02*
G01*
X150580814Y-27905261D01*
X150474981Y-27905261D01*
X150439703Y-27834705D01*
X150474981Y-27728872D01*
X150580814Y-27728872D01*
X150651370Y-27834705D01*
G37*
G36*
X185470527Y-120121340D02*
G01*
X184553301Y-121708844D01*
X182718859Y-121708844D01*
X181801639Y-120121340D01*
X182718859Y-118533836D01*
X184553301Y-118533836D01*
X185470527Y-120121340D01*
G37*
G36*
X178591363Y-145874111D02*
G01*
X177356638Y-147990779D01*
X174957748Y-147990779D01*
X173723027Y-145874111D01*
X174957748Y-143792721D01*
X177356638Y-143792721D01*
X178591363Y-145874111D01*
G37*
G36*
X204167742Y-139383013D02*
G01*
X203144692Y-141146898D01*
X201098580Y-141146898D01*
X200251916Y-139665229D01*
X202298022Y-139665229D01*
X202422468Y-139663162D01*
X202544484Y-139656961D01*
X202664124Y-139646626D01*
X202781438Y-139632156D01*
X202896478Y-139613553D01*
X203009296Y-139590815D01*
X203119944Y-139563943D01*
X203228472Y-139532937D01*
X203334934Y-139497797D01*
X203439381Y-139458523D01*
X203541863Y-139415115D01*
X203642434Y-139367573D01*
X203741144Y-139315897D01*
X203838045Y-139260087D01*
X203933190Y-139200143D01*
X204026629Y-139136065D01*
X204167742Y-139383013D01*
G37*
G36*
X125568877Y-55809975D02*
G01*
X125039711Y-56727196D01*
X123981378Y-56727196D01*
X123452212Y-55809975D01*
X123981378Y-54892754D01*
X125039711Y-54892754D01*
X125568877Y-55809975D01*
G37*
G36*
X122887767Y-100965517D02*
G01*
X121758878Y-102905793D01*
X119536379Y-102905793D01*
X118407491Y-100965517D01*
X119536379Y-99025240D01*
X121758878Y-99025240D01*
X122887767Y-100965517D01*
G37*
G36*
X145112759Y-113771346D02*
G01*
X143983871Y-115711622D01*
X141761373Y-115711622D01*
X140632485Y-113771346D01*
X141761373Y-111866347D01*
X143983871Y-111866347D01*
X145112759Y-113771346D01*
G37*
G36*
X204701937Y-54942224D02*
G01*
X204796678Y-55407587D01*
X204875710Y-55864682D01*
X204939445Y-56312682D01*
X204988297Y-56750760D01*
X205022680Y-57178090D01*
X205043006Y-57593843D01*
X205049690Y-57997195D01*
X205048105Y-58165936D01*
X205043626Y-58328476D01*
X205036667Y-58485228D01*
X205027641Y-58636605D01*
X205016961Y-58783022D01*
X205005041Y-58924890D01*
X204979133Y-59196639D01*
X204964250Y-59329000D01*
X204946060Y-59461774D01*
X204924562Y-59595375D01*
X204899757Y-59730216D01*
X204871645Y-59866710D01*
X204840225Y-60005272D01*
X204805498Y-60146314D01*
X204767463Y-60290249D01*
X204714477Y-60447207D01*
X204661077Y-60600032D01*
X204606851Y-60747895D01*
X204551385Y-60889971D01*
X204494266Y-61025432D01*
X204435080Y-61153452D01*
X204404583Y-61214412D01*
X204373414Y-61273203D01*
X204341522Y-61329720D01*
X204308856Y-61383859D01*
X204274955Y-61436354D01*
X204239401Y-61487970D01*
X204202194Y-61538657D01*
X204163333Y-61588361D01*
X204122818Y-61637031D01*
X204080649Y-61684617D01*
X204036828Y-61731065D01*
X203991352Y-61776325D01*
X203944223Y-61820345D01*
X203895440Y-61863073D01*
X203845004Y-61904457D01*
X203792915Y-61944446D01*
X203739171Y-61982988D01*
X203683775Y-62020031D01*
X203626725Y-62055524D01*
X203568021Y-62089415D01*
X203501857Y-62121653D01*
X203435590Y-62152185D01*
X203369116Y-62180960D01*
X203302333Y-62207927D01*
X203235136Y-62233033D01*
X203167423Y-62256227D01*
X203099089Y-62277458D01*
X203030032Y-62296673D01*
X202960148Y-62313821D01*
X202889334Y-62328851D01*
X202817486Y-62341710D01*
X202744502Y-62352346D01*
X202670277Y-62360709D01*
X202594708Y-62366747D01*
X202517692Y-62370408D01*
X202439125Y-62371639D01*
X197923573Y-62371639D01*
X197824785Y-62369986D01*
X197726927Y-62365025D01*
X197630103Y-62356757D01*
X197534416Y-62345181D01*
X197439969Y-62330299D01*
X197346866Y-62312109D01*
X197255209Y-62290612D01*
X197165103Y-62265807D01*
X197076650Y-62237695D01*
X196989954Y-62206276D01*
X196905119Y-62171550D01*
X196822247Y-62133516D01*
X196741441Y-62092175D01*
X196662806Y-62047526D01*
X196586445Y-61999570D01*
X196512461Y-61948307D01*
X196440941Y-61894150D01*
X196371902Y-61837512D01*
X196305344Y-61778394D01*
X196241265Y-61716796D01*
X196179667Y-61652717D01*
X196120550Y-61586158D01*
X196063913Y-61517118D01*
X196009756Y-61445598D01*
X195958080Y-61371598D01*
X195908884Y-61295117D01*
X195862168Y-61216155D01*
X195817933Y-61134713D01*
X195776178Y-61050791D01*
X195736904Y-60964388D01*
X195700110Y-60875504D01*
X195665796Y-60784141D01*
X195602821Y-60600585D01*
X195545633Y-60420338D01*
X195493407Y-60243398D01*
X195445314Y-60069765D01*
X195358223Y-59732422D01*
X195277745Y-59408307D01*
X195252942Y-59246388D01*
X195231444Y-59078680D01*
X195213254Y-58906012D01*
X195198371Y-58729209D01*
X195186795Y-58549100D01*
X195178526Y-58366509D01*
X195173564Y-58182265D01*
X195171910Y-57997195D01*
X195176733Y-57540720D01*
X195190652Y-57097061D01*
X195212838Y-56665805D01*
X195242466Y-56246537D01*
X195278709Y-55838844D01*
X195320738Y-55442314D01*
X195367729Y-55056531D01*
X195418853Y-54681084D01*
X196512466Y-54681084D01*
X196474364Y-54821644D01*
X196439156Y-54978741D01*
X196406428Y-55152374D01*
X196375767Y-55342543D01*
X196346759Y-55549248D01*
X196318991Y-55772490D01*
X196265523Y-56268583D01*
X196240719Y-56514907D01*
X196219223Y-56750896D01*
X196201033Y-56976137D01*
X196186151Y-57190215D01*
X196174575Y-57392718D01*
X196166307Y-57583231D01*
X196161346Y-57761343D01*
X196159693Y-57926638D01*
X196166316Y-58292085D01*
X196174604Y-58466110D01*
X196186220Y-58634329D01*
X196201168Y-58796734D01*
X196219456Y-58953318D01*
X196241090Y-59104077D01*
X196266076Y-59249002D01*
X196294422Y-59388088D01*
X196326132Y-59521328D01*
X196361215Y-59648716D01*
X196399676Y-59770245D01*
X196441522Y-59885908D01*
X196486759Y-59995700D01*
X196535394Y-60099614D01*
X196587433Y-60197643D01*
X196642882Y-60289781D01*
X196701749Y-60376021D01*
X196764039Y-60456357D01*
X196829760Y-60530783D01*
X196898917Y-60599292D01*
X196971516Y-60661878D01*
X197047566Y-60718533D01*
X197127071Y-60769253D01*
X197210038Y-60814029D01*
X197296475Y-60852857D01*
X197386386Y-60885728D01*
X197479780Y-60912638D01*
X197576661Y-60933578D01*
X197677037Y-60948544D01*
X197780915Y-60957528D01*
X197888299Y-60960525D01*
X202403857Y-60960525D01*
X202462580Y-60959293D01*
X202519752Y-60955633D01*
X202575476Y-60949595D01*
X202629857Y-60941232D01*
X202682998Y-60930595D01*
X202735002Y-60917737D01*
X202785972Y-60902708D01*
X202836011Y-60885560D01*
X202885224Y-60866345D01*
X202933714Y-60845114D01*
X202981583Y-60821920D01*
X203028936Y-60796814D01*
X203075876Y-60769848D01*
X203122505Y-60741073D01*
X203168928Y-60710541D01*
X203215248Y-60678303D01*
X203260722Y-60644007D01*
X203304543Y-60607334D01*
X203346710Y-60568387D01*
X203387224Y-60527270D01*
X203426084Y-60484086D01*
X203463291Y-60438938D01*
X203498844Y-60391930D01*
X203532744Y-60343165D01*
X203564990Y-60292746D01*
X203595583Y-60240776D01*
X203624522Y-60187360D01*
X203651807Y-60132601D01*
X203677439Y-60076601D01*
X203701417Y-60019464D01*
X203723742Y-59961294D01*
X203744413Y-59902193D01*
X203822685Y-59664069D01*
X203859753Y-59545007D01*
X203894340Y-59425944D01*
X203925621Y-59306882D01*
X203952767Y-59187819D01*
X203964531Y-59128288D01*
X203974952Y-59068756D01*
X203983927Y-59009225D01*
X203991351Y-58949694D01*
X204017258Y-58704954D01*
X204029178Y-58577624D01*
X204039858Y-58446985D01*
X204048885Y-58313040D01*
X204055844Y-58175787D01*
X204060323Y-58035227D01*
X204061907Y-57891360D01*
X204057015Y-57638352D01*
X204042615Y-57382037D01*
X204019119Y-57122415D01*
X203986941Y-56859486D01*
X203946495Y-56593249D01*
X203898194Y-56323705D01*
X203842451Y-56050853D01*
X203779681Y-55774694D01*
X200428297Y-55774694D01*
X200428297Y-58032473D01*
X199440520Y-58032473D01*
X199440520Y-54469419D01*
X204591072Y-54469419D01*
X204701937Y-54942224D01*
G37*
G36*
X206496080Y-72778583D02*
G01*
X206249132Y-73201913D01*
X205790524Y-73201913D01*
X205543576Y-72778583D01*
X205790524Y-72355244D01*
X206249132Y-72355244D01*
X206496080Y-72778583D01*
G37*
G36*
X198619800Y-123049601D02*
G01*
X198644731Y-123050191D01*
X198668667Y-123051143D01*
X198691627Y-123052430D01*
X198713632Y-123054028D01*
X198734699Y-123055910D01*
X198754850Y-123058050D01*
X198774103Y-123060422D01*
X198792477Y-123063002D01*
X198809992Y-123065762D01*
X198842522Y-123071721D01*
X198871848Y-123078095D01*
X198898126Y-123084675D01*
X198921509Y-123091255D01*
X198942154Y-123097629D01*
X198975846Y-123108931D01*
X198989204Y-123113446D01*
X199000443Y-123116928D01*
X199009719Y-123119170D01*
X199013668Y-123119762D01*
X199017185Y-123119966D01*
X199021733Y-123138911D01*
X199033722Y-123172326D01*
X199050672Y-123224759D01*
X199070103Y-123300757D01*
X199079973Y-123349014D01*
X199089533Y-123404867D01*
X199098473Y-123468886D01*
X199106483Y-123541638D01*
X199113253Y-123623691D01*
X199118472Y-123715615D01*
X199121831Y-123817977D01*
X199123020Y-123931347D01*
X199123020Y-125377737D01*
X197535521Y-125377737D01*
X197535521Y-123931347D01*
X197536322Y-123829606D01*
X197538622Y-123735876D01*
X197542265Y-123649896D01*
X197547097Y-123571409D01*
X197552963Y-123500157D01*
X197559706Y-123435881D01*
X197567174Y-123378322D01*
X197575210Y-123327223D01*
X197583659Y-123282325D01*
X197592366Y-123243370D01*
X197601177Y-123210099D01*
X197609937Y-123182254D01*
X197618489Y-123159576D01*
X197626680Y-123141808D01*
X197634354Y-123128691D01*
X197637949Y-123123795D01*
X197641356Y-123119966D01*
X197648789Y-123113358D01*
X197657824Y-123106802D01*
X197668409Y-123100350D01*
X197680493Y-123094052D01*
X197694024Y-123087962D01*
X197708950Y-123082130D01*
X197725219Y-123076609D01*
X197742781Y-123071449D01*
X197761583Y-123066703D01*
X197781573Y-123062422D01*
X197802700Y-123058658D01*
X197824912Y-123055463D01*
X197848157Y-123052887D01*
X197872385Y-123050984D01*
X197897542Y-123049804D01*
X197923578Y-123049399D01*
X198593856Y-123049399D01*
X198619800Y-123049601D01*
G37*
G36*
X196124409Y-146614945D02*
G01*
X195171910Y-146932440D01*
X195152275Y-146939464D01*
X195133067Y-146947290D01*
X195114298Y-146955891D01*
X195095981Y-146965241D01*
X195060755Y-146986085D01*
X195027493Y-147009616D01*
X194996297Y-147035628D01*
X194967272Y-147063913D01*
X194940521Y-147094265D01*
X194916147Y-147126477D01*
X194894253Y-147160342D01*
X194874943Y-147195654D01*
X194858321Y-147232205D01*
X194844488Y-147269790D01*
X194833550Y-147308201D01*
X194825609Y-147347232D01*
X194820769Y-147386676D01*
X194819132Y-147426326D01*
X194819132Y-149754664D01*
X194819528Y-149767885D01*
X194820648Y-149781054D01*
X194822388Y-149794119D01*
X194824645Y-149807030D01*
X194827316Y-149819734D01*
X194830296Y-149832180D01*
X194836774Y-149856089D01*
X194843252Y-149878345D01*
X194848903Y-149898533D01*
X194851159Y-149907723D01*
X194852899Y-149916241D01*
X194854019Y-149924036D01*
X194854416Y-149931055D01*
X193584412Y-149931055D01*
X192455526Y-147990779D01*
X193584412Y-146050502D01*
X195806915Y-146050502D01*
X196124409Y-146614945D01*
G37*
G36*
X199616911Y-94298023D02*
G01*
X199087747Y-95215239D01*
X197994134Y-95215239D01*
X197464965Y-94298023D01*
X197958851Y-93486632D01*
X199158298Y-93486632D01*
X199616911Y-94298023D01*
G37*
G36*
X163421923Y-115888004D02*
G01*
X162398867Y-117651899D01*
X160388034Y-117651899D01*
X159364978Y-115888004D01*
X160388034Y-114124129D01*
X162398867Y-114124129D01*
X163421923Y-115888004D01*
G37*
G36*
X121864712Y-49389421D02*
G01*
X121335545Y-50341921D01*
X120277212Y-50341921D01*
X119748046Y-49389421D01*
X120277212Y-48472198D01*
X121335545Y-48472198D01*
X121864712Y-49389421D01*
G37*
G36*
X170830252Y-124425233D02*
G01*
X169807201Y-126189118D01*
X167796363Y-126189118D01*
X166773307Y-124425233D01*
X167796363Y-122661348D01*
X169807201Y-122661348D01*
X170830252Y-124425233D01*
G37*
G36*
X198946634Y-80963024D02*
G01*
X198135243Y-80963024D01*
X198241078Y-80786633D01*
X198946634Y-80786633D01*
X198946634Y-80963024D01*
G37*
G36*
X198770242Y-55598308D02*
G01*
X198699690Y-55704140D01*
X198629134Y-55704140D01*
X198558577Y-55598308D01*
X198629134Y-55527751D01*
X198699690Y-55527751D01*
X198770242Y-55598308D01*
G37*
G36*
X133012485Y-86678019D02*
G01*
X132659709Y-87277741D01*
X131001653Y-87277741D01*
X130190265Y-85866633D01*
X130543042Y-85266912D01*
X133012485Y-86678019D01*
G37*
G36*
X145112759Y-118075239D02*
G01*
X143983871Y-119980227D01*
X141761373Y-119980227D01*
X140632485Y-118075239D01*
X141761373Y-116134952D01*
X143983871Y-116134952D01*
X145112759Y-118075239D01*
G37*
G36*
X205402463Y-97684680D02*
G01*
X206460792Y-97684680D01*
X206496070Y-97719958D01*
X206496070Y-99483848D01*
X206460792Y-99519126D01*
X205437741Y-99519126D01*
X205437741Y-98637184D01*
X205437331Y-98617345D01*
X205436113Y-98597531D01*
X205434108Y-98577769D01*
X205431333Y-98558085D01*
X205427809Y-98538504D01*
X205423556Y-98519052D01*
X205418592Y-98499755D01*
X205412936Y-98480639D01*
X205406609Y-98461730D01*
X205399629Y-98443053D01*
X205392017Y-98424635D01*
X205383790Y-98406501D01*
X205374969Y-98388677D01*
X205365574Y-98371189D01*
X205355623Y-98354062D01*
X205345136Y-98337323D01*
X205334132Y-98320998D01*
X205322630Y-98305112D01*
X205310651Y-98289691D01*
X205298213Y-98274760D01*
X205285335Y-98260347D01*
X205272038Y-98246476D01*
X205258340Y-98233174D01*
X205244262Y-98220466D01*
X205229821Y-98208378D01*
X205215038Y-98196936D01*
X205199932Y-98186166D01*
X205184523Y-98176094D01*
X205168829Y-98166745D01*
X205152871Y-98158145D01*
X205136666Y-98150321D01*
X205120236Y-98143298D01*
X205402463Y-97649406D01*
X205402463Y-97684680D01*
G37*
G36*
X129308320Y-70344415D02*
G01*
X129308320Y-71402744D01*
X128884986Y-72108301D01*
X127438599Y-72108301D01*
X126697766Y-70873580D01*
X127438599Y-69603581D01*
X128884986Y-69603581D01*
X129308320Y-70344415D01*
G37*
G36*
X181272474Y-92181355D02*
G01*
X180637475Y-93274962D01*
X179367471Y-93274962D01*
X179155806Y-92922184D01*
X181060804Y-91828577D01*
X181272474Y-92181355D01*
G37*
G36*
X203321083Y-96414686D02*
G01*
X202791908Y-97367185D01*
X201698301Y-97367185D01*
X201169132Y-96414686D01*
X201698301Y-95497465D01*
X202791908Y-95497465D01*
X203321083Y-96414686D01*
G37*
G36*
X171183030Y-141605506D02*
G01*
X169948309Y-143722174D01*
X167549420Y-143722174D01*
X166349977Y-141605506D01*
X167549420Y-139524116D01*
X169948309Y-139524116D01*
X171183030Y-141605506D01*
G37*
G36*
X144936370Y-109467463D02*
G01*
X143913314Y-111231348D01*
X141867205Y-111231348D01*
X140844150Y-109467463D01*
X141867205Y-107703573D01*
X143913314Y-107703573D01*
X144936370Y-109467463D01*
G37*
G36*
X194793222Y-112466068D02*
G01*
X194781303Y-112518986D01*
X194770624Y-112571903D01*
X194761598Y-112624821D01*
X194754639Y-112677738D01*
X194752064Y-112704197D01*
X194750160Y-112730656D01*
X194748980Y-112757114D01*
X194748576Y-112783573D01*
X194722670Y-113060831D01*
X194700070Y-113361242D01*
X194691043Y-113519096D01*
X194684083Y-113681498D01*
X194679604Y-113848035D01*
X194678019Y-114018294D01*
X194713302Y-114864953D01*
X194713302Y-114900241D01*
X194078293Y-114900241D01*
X193337458Y-113630242D01*
X194078293Y-112360233D01*
X194819127Y-112360233D01*
X194793222Y-112466068D01*
G37*
G36*
X133647486Y-90170516D02*
G01*
X132730264Y-91793298D01*
X130895820Y-91793298D01*
X129978599Y-90170516D01*
X130895820Y-88583018D01*
X132730264Y-88583018D01*
X133647486Y-90170516D01*
G37*
G36*
X128602765Y-37077481D02*
G01*
X128426376Y-37077481D01*
X128673320Y-36936369D01*
X128602765Y-37077481D01*
G37*
G36*
X148958037Y-124495789D02*
G01*
X147758592Y-126612458D01*
X145324427Y-126612458D01*
X144124984Y-124495789D01*
X145324427Y-122414400D01*
X147758592Y-122414400D01*
X148958037Y-124495789D01*
G37*
G36*
X119359991Y-111689956D02*
G01*
X118125268Y-113771346D01*
X116502491Y-113771346D01*
X116502491Y-109608571D01*
X118125268Y-109608571D01*
X119359991Y-111689956D01*
G37*
G36*
X139715264Y-29986649D02*
G01*
X139538875Y-30233594D01*
X139256651Y-30233594D01*
X139115540Y-29986649D01*
X139256651Y-29739705D01*
X139538875Y-29739705D01*
X139715264Y-29986649D01*
G37*
G36*
X193055247Y-132962452D02*
G01*
X192032191Y-134726347D01*
X189986080Y-134726347D01*
X188998302Y-132962452D01*
X189986080Y-131233835D01*
X192032191Y-131233835D01*
X193055247Y-132962452D01*
G37*
G36*
X195559972Y-74965803D02*
G01*
X195242467Y-75565524D01*
X194536911Y-75565524D01*
X194219411Y-74965803D01*
X194536911Y-74366082D01*
X195242467Y-74366082D01*
X195559972Y-74965803D01*
G37*
G36*
X197588992Y-119053646D02*
G01*
X197669676Y-119065568D01*
X197751601Y-119076249D01*
X197835179Y-119085276D01*
X197920825Y-119092236D01*
X198008950Y-119096715D01*
X198099969Y-119098299D01*
X199546360Y-119098299D01*
X200040246Y-119944959D01*
X199986519Y-119919328D01*
X199931242Y-119895351D01*
X199874518Y-119873028D01*
X199816450Y-119852357D01*
X199757142Y-119833340D01*
X199696698Y-119815977D01*
X199635220Y-119800267D01*
X199572812Y-119786210D01*
X199509577Y-119773807D01*
X199445619Y-119763057D01*
X199381041Y-119753962D01*
X199315947Y-119746519D01*
X199250439Y-119740731D01*
X199184621Y-119736596D01*
X199118596Y-119734116D01*
X199052468Y-119733289D01*
X197359130Y-119733289D01*
X197274245Y-119733840D01*
X197228908Y-119735150D01*
X197182744Y-119737700D01*
X197136581Y-119741904D01*
X197113757Y-119744756D01*
X197091245Y-119748176D01*
X197069145Y-119752217D01*
X197047563Y-119756929D01*
X197026600Y-119762365D01*
X197006362Y-119768577D01*
X197429692Y-119027733D01*
X197588992Y-119053646D01*
G37*
G36*
X203356351Y-129752177D02*
G01*
X203296408Y-129726545D01*
X203235637Y-129702566D01*
X203174039Y-129680242D01*
X203111614Y-129659571D01*
X203048362Y-129640554D01*
X202984284Y-129623190D01*
X202919378Y-129607480D01*
X202853646Y-129593424D01*
X202787086Y-129581022D01*
X202719700Y-129570273D01*
X202651487Y-129561178D01*
X202582448Y-129553736D01*
X202512581Y-129547948D01*
X202441888Y-129543814D01*
X202370369Y-129541333D01*
X202298022Y-129540507D01*
X201028023Y-129540507D01*
X201204410Y-129223012D01*
X203038857Y-129223012D01*
X203356351Y-129752177D01*
G37*
G36*
X147829149Y-95215239D02*
G01*
X147476371Y-95850238D01*
X145818315Y-95850238D01*
X145006927Y-94403848D01*
X145359705Y-93804126D01*
X147829149Y-95215239D01*
G37*
G36*
X184800249Y-90029408D02*
G01*
X184271085Y-90946634D01*
X183212751Y-90946634D01*
X183071638Y-90699686D01*
X184659136Y-89747187D01*
X184800249Y-90029408D01*
G37*
G36*
X126062766Y-77329414D02*
G01*
X125251377Y-78740521D01*
X123593322Y-78740521D01*
X122781933Y-77329414D01*
X123593322Y-75883024D01*
X125251377Y-75883024D01*
X126062766Y-77329414D01*
G37*
G36*
X122041100Y-57997195D02*
G01*
X121406101Y-59090807D01*
X120136101Y-59090807D01*
X119501101Y-57997195D01*
X120136101Y-56903585D01*
X121406101Y-56903585D01*
X122041100Y-57997195D01*
G37*
G36*
X167302476Y-130881062D02*
G01*
X166208864Y-132821339D01*
X163951088Y-132821339D01*
X162857475Y-130881062D01*
X163951088Y-128940786D01*
X166208864Y-128940786D01*
X167302476Y-130881062D01*
G37*
G36*
X170653865Y-111548842D02*
G01*
X169736639Y-113136346D01*
X167902198Y-113136346D01*
X166984977Y-111548842D01*
X167902198Y-109961349D01*
X169736639Y-109961349D01*
X170653865Y-111548842D01*
G37*
G36*
X195242467Y-62054139D02*
G01*
X195101359Y-62301085D01*
X194783854Y-62301085D01*
X194642746Y-62054139D01*
X194783854Y-61807196D01*
X195101359Y-61807196D01*
X195242467Y-62054139D01*
G37*
G36*
X181589974Y-113665511D02*
G01*
X180778583Y-115076623D01*
X179120528Y-115076623D01*
X178309137Y-113665511D01*
X179120528Y-112219120D01*
X180778583Y-112219120D01*
X181589974Y-113665511D01*
G37*
G36*
X129308320Y-66322752D02*
G01*
X129308320Y-66781359D01*
X128814432Y-67628026D01*
X127544432Y-67628026D01*
X126909432Y-66534416D01*
X127544432Y-65440806D01*
X128814432Y-65440806D01*
X129308320Y-66322752D01*
G37*
G36*
X174216919Y-109396901D02*
G01*
X173370249Y-110808008D01*
X171747478Y-110808008D01*
X170900808Y-109396901D01*
X171747478Y-107950516D01*
X173370249Y-107950516D01*
X174216919Y-109396901D01*
G37*
G36*
X194783854Y-82938574D02*
G01*
X194784571Y-82964923D01*
X194786696Y-82991027D01*
X194790191Y-83016846D01*
X194795016Y-83042342D01*
X194801133Y-83067476D01*
X194808503Y-83092210D01*
X194817088Y-83116505D01*
X194826848Y-83140321D01*
X194837746Y-83163621D01*
X194849741Y-83186365D01*
X194862796Y-83208515D01*
X194876871Y-83230032D01*
X194891928Y-83250877D01*
X194907928Y-83271012D01*
X194924833Y-83290397D01*
X194942603Y-83308994D01*
X194961200Y-83326764D01*
X194980585Y-83343669D01*
X195000719Y-83359669D01*
X195021564Y-83374727D01*
X195043081Y-83388802D01*
X195065231Y-83401857D01*
X195087975Y-83413852D01*
X195111274Y-83424749D01*
X195135091Y-83434510D01*
X195159385Y-83443094D01*
X195184118Y-83450465D01*
X195209252Y-83456582D01*
X195234748Y-83461407D01*
X195260567Y-83464902D01*
X195286670Y-83467027D01*
X195313018Y-83467744D01*
X195665796Y-83467744D01*
X195736353Y-83573579D01*
X195313018Y-84314413D01*
X195313018Y-84279135D01*
X194395797Y-84279135D01*
X193972463Y-83538301D01*
X194395797Y-82797466D01*
X194783854Y-82797466D01*
X194783854Y-82938574D01*
G37*
G36*
X188857194Y-109326344D02*
G01*
X188116360Y-110596348D01*
X186669969Y-110596348D01*
X185929140Y-109326344D01*
X186669969Y-108091624D01*
X188116360Y-108091624D01*
X188857194Y-109326344D01*
G37*
G36*
X118513324Y-68721639D02*
G01*
X117772491Y-69991637D01*
X116502491Y-69991637D01*
X116502491Y-67486915D01*
X117772491Y-67486915D01*
X118513324Y-68721639D01*
G37*
G36*
X129273043Y-57961919D02*
G01*
X128743877Y-58879140D01*
X127685543Y-58879140D01*
X127121099Y-57961919D01*
X127685543Y-57044696D01*
X128743877Y-57044696D01*
X129273043Y-57961919D01*
G37*
G36*
X196829965Y-156139947D02*
G01*
X193196355Y-158256605D01*
X192243856Y-156563276D01*
X193443303Y-154481896D01*
X195877466Y-154481896D01*
X196829965Y-156139947D01*
G37*
G36*
X124898600Y-39229424D02*
G01*
X124722211Y-39229424D01*
X124969155Y-39053035D01*
X124898600Y-39229424D01*
G37*
G36*
X126239155Y-85901912D02*
G01*
X125321933Y-87489410D01*
X123487489Y-87489410D01*
X122570267Y-85901912D01*
X123487489Y-84314413D01*
X125321933Y-84314413D01*
X126239155Y-85901912D01*
G37*
G36*
X119324707Y-115711571D02*
G01*
X121794151Y-115711571D01*
X123028873Y-117863518D01*
X125498316Y-117863518D01*
X126733038Y-120015464D01*
X129202482Y-120015464D01*
X130437204Y-122167411D01*
X132906648Y-122167411D01*
X134141370Y-124319357D01*
X136610813Y-124319357D01*
X137845534Y-126471304D01*
X140314978Y-126471304D01*
X141549701Y-128623250D01*
X144019144Y-128623250D01*
X145253865Y-130775197D01*
X147723309Y-130775197D01*
X148958032Y-132927143D01*
X151427475Y-132927143D01*
X152662196Y-135079090D01*
X155131640Y-135079090D01*
X156366363Y-137231036D01*
X158835806Y-137231036D01*
X160070529Y-139382983D01*
X162539971Y-139382983D01*
X163774696Y-141534929D01*
X166244137Y-141534929D01*
X167478858Y-143686876D01*
X169948304Y-143686876D01*
X171183025Y-145838822D01*
X173652471Y-145838822D01*
X174887191Y-147990769D01*
X177356632Y-147990769D01*
X178591358Y-150142715D01*
X181060799Y-150142715D01*
X182295520Y-152294662D01*
X184764966Y-152294662D01*
X185999687Y-154446608D01*
X188469133Y-154446608D01*
X188504411Y-154517165D01*
X132800819Y-154517165D01*
X132734999Y-154518797D01*
X132669889Y-154523607D01*
X132605579Y-154531466D01*
X132542162Y-154542245D01*
X132479726Y-154555814D01*
X132418362Y-154572045D01*
X132358162Y-154590807D01*
X132299214Y-154611973D01*
X132241610Y-154635412D01*
X132185440Y-154660996D01*
X132130794Y-154688595D01*
X132077763Y-154718080D01*
X132026438Y-154749322D01*
X131976908Y-154782191D01*
X131929265Y-154816560D01*
X131883598Y-154852297D01*
X131839998Y-154889275D01*
X131798555Y-154927363D01*
X131759361Y-154966433D01*
X131722505Y-155006356D01*
X131688078Y-155047002D01*
X131656170Y-155088242D01*
X131626871Y-155129947D01*
X131600273Y-155171988D01*
X131576465Y-155214236D01*
X131555538Y-155256560D01*
X131537583Y-155298833D01*
X131522689Y-155340925D01*
X131510948Y-155382706D01*
X131502450Y-155424048D01*
X131497284Y-155464821D01*
X131495542Y-155504896D01*
X131495542Y-158926842D01*
X116502491Y-150283788D01*
X116502491Y-113559635D01*
X118089985Y-113559635D01*
X119324707Y-115711571D01*
G37*
G36*
X189351080Y-130845794D02*
G01*
X188328030Y-132609679D01*
X186281918Y-132609679D01*
X185294136Y-130845794D01*
X186281918Y-129081899D01*
X188328030Y-129081899D01*
X189351080Y-130845794D01*
G37*
G36*
X126733044Y-115958570D02*
G01*
X125533600Y-118075239D01*
X123134711Y-118075239D01*
X121899990Y-115958570D01*
X123134711Y-113877180D01*
X125533600Y-113877180D01*
X126733044Y-115958570D01*
G37*
G36*
X133823874Y-98778297D02*
G01*
X132800819Y-100542182D01*
X130754709Y-100542182D01*
X129766932Y-98778297D01*
X130754709Y-97014407D01*
X132800819Y-97014407D01*
X133823874Y-98778297D01*
G37*
G36*
X130437209Y-113841902D02*
G01*
X129237765Y-115923292D01*
X126803599Y-115923292D01*
X125604155Y-113841902D01*
X126803599Y-111725234D01*
X129237765Y-111725234D01*
X130437209Y-113841902D01*
G37*
G36*
X199934406Y-115711622D02*
G01*
X198099964Y-115711622D01*
X198070813Y-115711314D01*
X198042870Y-115710399D01*
X198016103Y-115708890D01*
X197990479Y-115706799D01*
X197965966Y-115704140D01*
X197942532Y-115700925D01*
X197920144Y-115697168D01*
X197898771Y-115692881D01*
X197878379Y-115688077D01*
X197858937Y-115682769D01*
X197840412Y-115676971D01*
X197822772Y-115670694D01*
X197805984Y-115663953D01*
X197790018Y-115656759D01*
X197774839Y-115649126D01*
X197760416Y-115641067D01*
X197746716Y-115632594D01*
X197733708Y-115623721D01*
X197721358Y-115614460D01*
X197709635Y-115604825D01*
X197698506Y-115594828D01*
X197687940Y-115584482D01*
X197677903Y-115573801D01*
X197668363Y-115562796D01*
X197659289Y-115551481D01*
X197650647Y-115539870D01*
X197634533Y-115515807D01*
X197619763Y-115490710D01*
X197606078Y-115464684D01*
X197593254Y-115450618D01*
X197581204Y-115434846D01*
X197569879Y-115417318D01*
X197559225Y-115397982D01*
X197549191Y-115376785D01*
X197539726Y-115353677D01*
X197530777Y-115328605D01*
X197522293Y-115301518D01*
X197514223Y-115272364D01*
X197506514Y-115241091D01*
X197491975Y-115171983D01*
X197478261Y-115093779D01*
X197464960Y-115006066D01*
X197782459Y-114476902D01*
X199228850Y-114476902D01*
X199934406Y-115711622D01*
G37*
G36*
X188680803Y-100753847D02*
G01*
X188045803Y-101847459D01*
X186775804Y-101847459D01*
X186140800Y-100753847D01*
X186775804Y-99660240D01*
X188045803Y-99660240D01*
X188680803Y-100753847D01*
G37*
G36*
X137351652Y-96591077D02*
G01*
X136434429Y-98178576D01*
X134599985Y-98178576D01*
X133682764Y-96591077D01*
X134599985Y-95003574D01*
X136434429Y-95003574D01*
X137351652Y-96591077D01*
G37*
G36*
X126062766Y-81598024D02*
G01*
X125251377Y-83009136D01*
X123593322Y-83009136D01*
X122781933Y-81598024D01*
X123593322Y-80151633D01*
X125251377Y-80151633D01*
X126062766Y-81598024D01*
G37*
G36*
X185294136Y-111513564D02*
G01*
X184482750Y-112959955D01*
X182824694Y-112959955D01*
X182013303Y-111513564D01*
X182824694Y-110102457D01*
X184482750Y-110102457D01*
X185294136Y-111513564D01*
G37*
G36*
X129943319Y-88053853D02*
G01*
X129026098Y-89641352D01*
X127191654Y-89641352D01*
X126274433Y-88053853D01*
X127191654Y-86466355D01*
X129026098Y-86466355D01*
X129943319Y-88053853D01*
G37*
G36*
X136011096Y-27869983D02*
G01*
X135834707Y-28116928D01*
X135552486Y-28116928D01*
X135411374Y-27869983D01*
X135552486Y-27623039D01*
X135834707Y-27623039D01*
X136011096Y-27869983D01*
G37*
G36*
X123028878Y-113841902D02*
G01*
X121829434Y-115923292D01*
X119430546Y-115923292D01*
X118195824Y-113841902D01*
X119430546Y-111725234D01*
X121829434Y-111725234D01*
X123028878Y-113841902D01*
G37*
G36*
X163245532Y-107280233D02*
G01*
X162328311Y-108867737D01*
X160493864Y-108867737D01*
X159576643Y-107280233D01*
X160493864Y-105692734D01*
X162328311Y-105692734D01*
X163245532Y-107280233D01*
G37*
G36*
X174887196Y-139488838D02*
G01*
X173652476Y-141570228D01*
X171253586Y-141570228D01*
X170054144Y-139488838D01*
X171253586Y-137372180D01*
X173652476Y-137372180D01*
X174887196Y-139488838D01*
G37*
G36*
X188504416Y-92146076D02*
G01*
X187975252Y-93063297D01*
X186916918Y-93063297D01*
X186387748Y-92146076D01*
X186916918Y-91228850D01*
X187975252Y-91228850D01*
X188504416Y-92146076D01*
G37*
G36*
X119183602Y-98813570D02*
G01*
X118054713Y-100753847D01*
X116502491Y-100753847D01*
X116502491Y-96873294D01*
X118054713Y-96873294D01*
X119183602Y-98813570D01*
G37*
G36*
X137528039Y-105198848D02*
G01*
X136504985Y-106962738D01*
X134458876Y-106962738D01*
X133435819Y-105198848D01*
X134458876Y-103434958D01*
X136504985Y-103434958D01*
X137528039Y-105198848D01*
G37*
G36*
X170830252Y-120156618D02*
G01*
X169807201Y-121920503D01*
X167796363Y-121920503D01*
X166773307Y-120156618D01*
X167796363Y-118392733D01*
X169807201Y-118392733D01*
X170830252Y-120156618D01*
G37*
G36*
X134000263Y-111654677D02*
G01*
X132871376Y-113594954D01*
X130648875Y-113594954D01*
X129519987Y-111654677D01*
X130648875Y-109714406D01*
X132871376Y-109714406D01*
X134000263Y-111654677D01*
G37*
G36*
X184976641Y-98601906D02*
G01*
X184341636Y-99695513D01*
X183071638Y-99695513D01*
X182436638Y-98601906D01*
X183071638Y-97508293D01*
X184341636Y-97508293D01*
X184976641Y-98601906D01*
G37*
G36*
X148640537Y-111619399D02*
G01*
X147617481Y-113348016D01*
X145571372Y-113348016D01*
X144548316Y-111619399D01*
X145571372Y-109855514D01*
X147617481Y-109855514D01*
X148640537Y-111619399D01*
G37*
G36*
X189527467Y-143722174D02*
G01*
X188398581Y-145662451D01*
X186176083Y-145662451D01*
X185047192Y-143722174D01*
X186176083Y-141781898D01*
X188398581Y-141781898D01*
X189527467Y-143722174D01*
G37*
G36*
X199722741Y-144251339D02*
G01*
X200287189Y-145239111D01*
X196512466Y-146473832D01*
X196159693Y-145838842D01*
X197288578Y-143898566D01*
X198664407Y-143898566D01*
X199722741Y-144251339D01*
G37*
G36*
X199158298Y-108232737D02*
G01*
X197888299Y-108232737D01*
X197817743Y-108126902D01*
X199193577Y-108126902D01*
X199158298Y-108232737D01*
G37*
G36*
X181448861Y-105057740D02*
G01*
X180708026Y-106327734D01*
X179261636Y-106327734D01*
X178520807Y-105057740D01*
X179261636Y-103823019D01*
X180708026Y-103823019D01*
X181448861Y-105057740D01*
G37*
G36*
X140420818Y-90946634D02*
G01*
X140068040Y-91581628D01*
X138409984Y-91581628D01*
X137598596Y-90135243D01*
X137951374Y-89535522D01*
X140420818Y-90946634D01*
G37*
G36*
X128532210Y-31821093D02*
G01*
X127826654Y-32244427D01*
X127791377Y-32173871D01*
X128038321Y-31750537D01*
X128532210Y-31750537D01*
X128532210Y-31821093D01*
G37*
G36*
X182295525Y-148026057D02*
G01*
X181060804Y-150107447D01*
X178661915Y-150107447D01*
X177427194Y-148026057D01*
X178661915Y-145944667D01*
X181060804Y-145944667D01*
X182295525Y-148026057D01*
G37*
G36*
X202791908Y-70661915D02*
G01*
X202544960Y-71085250D01*
X202086352Y-71085250D01*
X201839404Y-70661915D01*
X202086352Y-70238581D01*
X202544960Y-70238581D01*
X202791908Y-70661915D01*
G37*
G36*
X167302476Y-126612458D02*
G01*
X166208864Y-128552734D01*
X163951088Y-128552734D01*
X162857475Y-126612458D01*
X163951088Y-124672181D01*
X166208864Y-124672181D01*
X167302476Y-126612458D01*
G37*
G36*
X130119708Y-96626351D02*
G01*
X129096654Y-98390241D01*
X127050544Y-98390241D01*
X126062766Y-96626351D01*
X127050544Y-94897744D01*
X129096654Y-94897744D01*
X130119708Y-96626351D01*
G37*
G36*
X121688323Y-45085534D02*
G01*
X121264990Y-45826367D01*
X120383046Y-45826367D01*
X119959712Y-45085534D01*
X120383046Y-44344700D01*
X121264990Y-44344700D01*
X121688323Y-45085534D01*
G37*
G36*
X178238585Y-124425233D02*
G01*
X177215529Y-126189118D01*
X175204691Y-126189118D01*
X174181640Y-124425233D01*
X175204691Y-122661348D01*
X177215529Y-122661348D01*
X178238585Y-124425233D01*
G37*
G36*
X129308320Y-82903301D02*
G01*
X129308320Y-84526073D01*
X128955543Y-85161077D01*
X127297488Y-85161077D01*
X126486099Y-83714692D01*
X127297488Y-82303580D01*
X128955543Y-82303580D01*
X129308320Y-82903301D01*
G37*
G36*
X122534990Y-83785244D02*
G01*
X121617767Y-85372742D01*
X119783324Y-85372742D01*
X118866101Y-83785244D01*
X119783324Y-82197745D01*
X121617767Y-82197745D01*
X122534990Y-83785244D01*
G37*
G36*
X159576643Y-105163570D02*
G01*
X158624147Y-106751068D01*
X156789700Y-106751068D01*
X155872479Y-105163570D01*
X156789700Y-103540793D01*
X158624147Y-103540793D01*
X159576643Y-105163570D01*
G37*
G36*
X206460802Y-143298835D02*
G01*
X205367195Y-143298835D01*
X205359760Y-143272800D01*
X205350724Y-143247643D01*
X205340137Y-143223416D01*
X205328052Y-143200171D01*
X205314520Y-143177960D01*
X205299594Y-143156833D01*
X205283324Y-143136843D01*
X205265762Y-143118042D01*
X205246960Y-143100481D01*
X205226970Y-143084211D01*
X205205843Y-143069286D01*
X205183632Y-143055755D01*
X205160386Y-143043671D01*
X205136160Y-143033086D01*
X205111003Y-143024051D01*
X205084968Y-143016618D01*
X204520515Y-142804948D01*
X203779681Y-141534949D01*
X204767474Y-139771064D01*
X206460802Y-139771064D01*
X206460802Y-143298835D01*
G37*
G36*
X178062194Y-120121340D02*
G01*
X177144973Y-121708844D01*
X175310526Y-121708844D01*
X174393310Y-120121340D01*
X175310526Y-118533836D01*
X177144973Y-118533836D01*
X178062194Y-120121340D01*
G37*
G36*
X174534418Y-122273286D02*
G01*
X173511363Y-124037171D01*
X171500529Y-124037171D01*
X170477474Y-122273286D01*
X171500529Y-120544680D01*
X173511363Y-120544680D01*
X174534418Y-122273286D01*
G37*
G36*
X174040532Y-100789125D02*
G01*
X173299698Y-102059129D01*
X171853307Y-102059129D01*
X171112478Y-100789125D01*
X171853307Y-99519126D01*
X173299698Y-99519126D01*
X174040532Y-100789125D01*
G37*
G36*
X122217490Y-66604970D02*
G01*
X121476656Y-67839694D01*
X120030268Y-67839694D01*
X119289435Y-66604970D01*
X120030268Y-65334972D01*
X121476656Y-65334972D01*
X122217490Y-66604970D01*
G37*
G36*
X126591932Y-103082185D02*
G01*
X125463044Y-105022462D01*
X123240545Y-105022462D01*
X122111656Y-103082185D01*
X123240545Y-101177187D01*
X125463044Y-101177187D01*
X126591932Y-103082185D01*
G37*
G36*
X118830824Y-81633297D02*
G01*
X117913602Y-83220801D01*
X116502491Y-83220801D01*
X116502491Y-80045799D01*
X117913602Y-80045799D01*
X118830824Y-81633297D01*
G37*
G36*
X166949698Y-113700789D02*
G01*
X166032472Y-115288293D01*
X164198031Y-115288293D01*
X163280810Y-113700789D01*
X164198031Y-112113295D01*
X166032472Y-112113295D01*
X166949698Y-113700789D01*
G37*
G36*
X141232206Y-103046902D02*
G01*
X140209150Y-104810792D01*
X138163041Y-104810792D01*
X137139985Y-103046902D01*
X138163041Y-101283017D01*
X140209150Y-101283017D01*
X141232206Y-103046902D01*
G37*
G36*
X152662204Y-130916340D02*
G01*
X151462759Y-133033009D01*
X149028591Y-133033009D01*
X147829149Y-130916340D01*
X149028591Y-128834951D01*
X151462759Y-128834951D01*
X152662204Y-130916340D01*
G37*
G36*
X118160546Y-51541365D02*
G01*
X117631380Y-52458586D01*
X116573047Y-52458586D01*
X116502491Y-52352751D01*
X116502491Y-50729977D01*
X116573047Y-50624145D01*
X117631380Y-50624145D01*
X118160546Y-51541365D01*
G37*
G36*
X159717756Y-118004672D02*
G01*
X158729976Y-119768567D01*
X156683867Y-119768567D01*
X155660812Y-118004672D01*
X156683867Y-116240787D01*
X158729976Y-116240787D01*
X159717756Y-118004672D01*
G37*
G36*
X206496070Y-125765778D02*
G01*
X205437741Y-125765778D01*
X205433921Y-125746043D01*
X205429094Y-125726540D01*
X205423284Y-125707295D01*
X205416519Y-125688335D01*
X205408823Y-125669684D01*
X205400224Y-125651370D01*
X205390745Y-125633417D01*
X205380414Y-125615851D01*
X205357297Y-125581986D01*
X205331080Y-125549982D01*
X205301969Y-125520044D01*
X205270170Y-125492380D01*
X205235892Y-125467197D01*
X205199339Y-125444700D01*
X205160720Y-125425097D01*
X205120241Y-125408595D01*
X205099368Y-125401572D01*
X205078108Y-125395400D01*
X205056486Y-125390108D01*
X205034528Y-125385720D01*
X205012260Y-125382262D01*
X204989708Y-125379760D01*
X204966898Y-125378239D01*
X204943855Y-125377727D01*
X204838020Y-125377727D01*
X204238299Y-124354676D01*
X205049690Y-122908286D01*
X206496070Y-122908286D01*
X206496070Y-125765778D01*
G37*
G36*
X204203021Y-151906610D02*
G01*
X200675245Y-153917444D01*
X199722741Y-152294672D01*
X200922188Y-150248560D01*
X203250516Y-150248560D01*
X204203021Y-151906610D01*
G37*
G36*
X181448861Y-100789125D02*
G01*
X180708026Y-102059129D01*
X179261636Y-102059129D01*
X178520807Y-100789125D01*
X179261636Y-99519126D01*
X180708026Y-99519126D01*
X181448861Y-100789125D01*
G37*
G36*
X137704428Y-109502736D02*
G01*
X136575541Y-111443008D01*
X134353041Y-111443008D01*
X133224153Y-109502736D01*
X134353041Y-107562459D01*
X136575541Y-107562459D01*
X137704428Y-109502736D01*
G37*
G36*
X202791908Y-74930525D02*
G01*
X202544960Y-75353854D01*
X202086352Y-75353854D01*
X201839404Y-74930525D01*
X202086352Y-74507190D01*
X202544960Y-74507190D01*
X202791908Y-74930525D01*
G37*
G36*
X137351652Y-92322463D02*
G01*
X136434429Y-93909961D01*
X134599985Y-93909961D01*
X133682764Y-92322463D01*
X134599985Y-90734964D01*
X136434429Y-90734964D01*
X137351652Y-92322463D01*
G37*
G36*
X188998302Y-113665511D02*
G01*
X188186911Y-115076623D01*
X186528861Y-115076623D01*
X185717470Y-113665511D01*
X186528861Y-112219120D01*
X188186911Y-112219120D01*
X188998302Y-113665511D01*
G37*
G36*
X182295525Y-143757442D02*
G01*
X181060804Y-145838842D01*
X178661915Y-145838842D01*
X177427194Y-143757442D01*
X178661915Y-141640774D01*
X181060804Y-141640774D01*
X182295525Y-143757442D01*
G37*
G36*
X192208583Y-90029408D02*
G01*
X191679413Y-90946634D01*
X190621084Y-90946634D01*
X190091915Y-90029408D01*
X190621084Y-89076909D01*
X191679413Y-89076909D01*
X192208583Y-90029408D01*
G37*
G36*
X203497465Y-105022462D02*
G01*
X200957462Y-105022462D01*
X201592466Y-103928849D01*
X202862465Y-103928849D01*
X203497465Y-105022462D01*
G37*
G36*
X118513324Y-64453026D02*
G01*
X117772491Y-65723028D01*
X116502491Y-65723028D01*
X116502491Y-63183028D01*
X117772491Y-63183028D01*
X118513324Y-64453026D01*
G37*
G36*
X119359991Y-107421351D02*
G01*
X118125268Y-109502736D01*
X116502491Y-109502736D01*
X116502491Y-105304683D01*
X118125268Y-105304683D01*
X119359991Y-107421351D01*
G37*
G36*
X167126085Y-122273286D02*
G01*
X166103034Y-124037171D01*
X164092196Y-124037171D01*
X163069145Y-122273286D01*
X164092196Y-120544680D01*
X166103034Y-120544680D01*
X167126085Y-122273286D01*
G37*
G36*
X159717756Y-113736067D02*
G01*
X158729976Y-115499952D01*
X156683867Y-115499952D01*
X155660812Y-113736067D01*
X156683867Y-111972182D01*
X158729976Y-111972182D01*
X159717756Y-113736067D01*
G37*
G36*
X117984157Y-38664980D02*
G01*
X117560824Y-39441090D01*
X116678880Y-39441090D01*
X116502491Y-39123592D01*
X116502491Y-38241647D01*
X116678880Y-37924147D01*
X117560824Y-37924147D01*
X117984157Y-38664980D01*
G37*
G36*
X141055817Y-94474409D02*
G01*
X140138596Y-96061908D01*
X138304152Y-96061908D01*
X137386930Y-94474409D01*
X138304152Y-92851632D01*
X140138596Y-92851632D01*
X141055817Y-94474409D01*
G37*
G36*
X206178576Y-55598308D02*
G01*
X206108019Y-55704140D01*
X206037462Y-55704140D01*
X205966906Y-55598308D01*
X206037462Y-55527751D01*
X206108019Y-55527751D01*
X206178576Y-55598308D01*
G37*
G36*
X166808590Y-100824409D02*
G01*
X165961921Y-102270794D01*
X164339144Y-102270794D01*
X163986366Y-101671073D01*
X166455812Y-100259961D01*
X166808590Y-100824409D01*
G37*
G36*
X196194971Y-130175506D02*
G01*
X196142874Y-130209396D01*
X196092378Y-130244888D01*
X196043432Y-130281931D01*
X195995985Y-130320473D01*
X195949985Y-130360463D01*
X195905380Y-130401847D01*
X195862118Y-130444576D01*
X195820148Y-130488596D01*
X195779418Y-130533857D01*
X195739877Y-130580306D01*
X195701472Y-130627892D01*
X195664153Y-130676563D01*
X195627867Y-130726267D01*
X195592563Y-130776953D01*
X195558189Y-130828568D01*
X195524693Y-130881062D01*
X195445457Y-131016729D01*
X195367046Y-131159424D01*
X195290290Y-131309561D01*
X195216013Y-131467554D01*
X195145044Y-131633815D01*
X195078209Y-131808757D01*
X195046601Y-131899613D01*
X195016336Y-131992794D01*
X194987518Y-132088353D01*
X194960250Y-132186339D01*
X194960182Y-132212798D01*
X194959699Y-132239257D01*
X194958390Y-132265716D01*
X194957296Y-132278945D01*
X194955840Y-132292174D01*
X194953971Y-132305404D01*
X194951636Y-132318633D01*
X194948785Y-132331862D01*
X194945365Y-132345092D01*
X194941325Y-132358321D01*
X194936613Y-132371550D01*
X194931178Y-132384780D01*
X194924967Y-132398009D01*
X193831355Y-132398009D01*
X192914134Y-130810506D01*
X193831355Y-129223012D01*
X193831355Y-129223002D01*
X195665801Y-129223002D01*
X196194971Y-130175506D01*
G37*
G36*
X206178576Y-59866917D02*
G01*
X206108019Y-59972752D01*
X206037462Y-59972752D01*
X205966906Y-59866917D01*
X206037462Y-59796363D01*
X206108019Y-59796363D01*
X206178576Y-59866917D01*
G37*
G36*
X136152208Y-32173870D02*
G01*
X135905264Y-32597203D01*
X135517207Y-32597203D01*
X135542847Y-32544287D01*
X135566886Y-32491370D01*
X135589373Y-32438454D01*
X135610363Y-32385537D01*
X135629905Y-32332620D01*
X135648052Y-32279704D01*
X135664856Y-32226787D01*
X135680367Y-32173870D01*
X135694638Y-32120954D01*
X135707721Y-32068037D01*
X135730528Y-31962204D01*
X135749200Y-31856370D01*
X135764152Y-31750537D01*
X135905264Y-31750537D01*
X136152208Y-32173870D01*
G37*
G36*
X202968300Y-79234408D02*
G01*
X202650795Y-79834134D01*
X201945239Y-79834134D01*
X201627745Y-79234408D01*
X201945239Y-78669970D01*
X202650795Y-78669970D01*
X202968300Y-79234408D01*
G37*
G36*
X125886377Y-72990248D02*
G01*
X125180822Y-74260247D01*
X123734433Y-74260247D01*
X122993600Y-72990248D01*
X123734433Y-71755523D01*
X125180822Y-71755523D01*
X125886377Y-72990248D01*
G37*
G36*
X130437209Y-118110517D02*
G01*
X129237765Y-120191897D01*
X126803599Y-120191897D01*
X125604155Y-118110517D01*
X126803599Y-115993849D01*
X129237765Y-115993849D01*
X130437209Y-118110517D01*
G37*
G36*
X194992768Y-87229644D02*
G01*
X194958041Y-87402312D01*
X194926622Y-87583249D01*
X194898510Y-87771627D01*
X194873706Y-87966619D01*
X194852208Y-88167400D01*
X194834017Y-88373141D01*
X194819132Y-88583018D01*
X194819132Y-88547744D01*
X194431081Y-88547744D01*
X194007751Y-87806910D01*
X194431081Y-87066071D01*
X195030802Y-87066071D01*
X194992768Y-87229644D01*
G37*
G36*
X194725360Y-133497679D02*
G01*
X194708341Y-133648162D01*
X194697110Y-133801951D01*
X194691253Y-133959046D01*
X194690358Y-134119448D01*
X194694009Y-134283156D01*
X194701796Y-134450171D01*
X194713302Y-134620492D01*
X194713854Y-134910985D01*
X194717712Y-135198169D01*
X194721915Y-135339487D01*
X194728185Y-135478739D01*
X194736936Y-135615510D01*
X194748581Y-135749388D01*
X194763464Y-135883263D01*
X194781654Y-136020033D01*
X194803152Y-136159284D01*
X194827957Y-136300602D01*
X194856069Y-136443575D01*
X194887489Y-136587789D01*
X194922216Y-136732829D01*
X194960250Y-136878284D01*
X193725525Y-136878284D01*
X192702474Y-135114388D01*
X193725525Y-133350503D01*
X194748581Y-133350503D01*
X194725360Y-133497679D01*
G37*
G36*
X128920266Y-40781647D02*
G01*
X128602765Y-41346090D01*
X127897210Y-41346090D01*
X127579709Y-40781647D01*
X127897210Y-40181925D01*
X128602765Y-40181925D01*
X128920266Y-40781647D01*
G37*
G36*
X185646914Y-128693848D02*
G01*
X184623863Y-130457733D01*
X182613025Y-130457733D01*
X181589974Y-128693848D01*
X182613025Y-126929952D01*
X184623863Y-126929952D01*
X185646914Y-128693848D01*
G37*
G36*
X189174694Y-122238008D02*
G01*
X188257468Y-123825502D01*
X186423026Y-123825502D01*
X185505805Y-122238008D01*
X186423026Y-120650504D01*
X188257468Y-120650504D01*
X189174694Y-122238008D01*
G37*
G36*
X202474404Y-57750252D02*
G01*
X202403857Y-57820806D01*
X202333301Y-57820806D01*
X202262744Y-57750252D01*
X202333301Y-57644417D01*
X202403857Y-57644417D01*
X202474404Y-57750252D01*
G37*
G36*
X198946634Y-59937471D02*
G01*
X198770242Y-60184419D01*
X198488021Y-60184419D01*
X198346912Y-59937471D01*
X198488021Y-59655252D01*
X198770242Y-59655252D01*
X198946634Y-59937471D01*
G37*
G36*
X193372742Y-150178004D02*
G01*
X192173299Y-152259383D01*
X189774410Y-152259383D01*
X188539689Y-150178004D01*
X189774410Y-148061335D01*
X192173299Y-148061335D01*
X193372742Y-150178004D01*
G37*
G36*
X136716651Y-88829966D02*
G01*
X136363874Y-89429687D01*
X134705819Y-89429687D01*
X133894430Y-88018575D01*
X134247207Y-87383575D01*
X136716651Y-88829966D01*
G37*
G36*
X202662509Y-87077724D02*
G01*
X202667384Y-87082434D01*
X202671742Y-87086473D01*
X202675686Y-87089892D01*
X202679321Y-87092743D01*
X202681054Y-87093971D01*
X202682749Y-87095077D01*
X202684418Y-87096066D01*
X202686074Y-87096946D01*
X202687729Y-87097722D01*
X202689398Y-87098401D01*
X202691093Y-87098990D01*
X202692826Y-87099495D01*
X202694611Y-87099923D01*
X202696461Y-87100279D01*
X202700405Y-87100805D01*
X202704763Y-87101124D01*
X202709638Y-87101289D01*
X202721352Y-87101359D01*
X203144681Y-87806915D01*
X202721352Y-88547750D01*
X201839404Y-88547750D01*
X201416075Y-87806915D01*
X201839404Y-87066081D01*
X202650795Y-87066081D01*
X202662509Y-87077724D01*
G37*
G36*
X206496080Y-108232737D02*
G01*
X205296638Y-108232737D01*
X205190803Y-108056351D01*
X205216829Y-108035697D01*
X205241926Y-108013493D01*
X205265989Y-107989843D01*
X205288915Y-107964848D01*
X205310601Y-107938614D01*
X205330944Y-107911243D01*
X205349840Y-107882838D01*
X205367186Y-107853503D01*
X205382878Y-107823341D01*
X205396813Y-107792456D01*
X205408888Y-107760950D01*
X205419000Y-107728928D01*
X205427044Y-107696492D01*
X205432918Y-107663746D01*
X205436518Y-107630794D01*
X205437741Y-107597738D01*
X205437741Y-106045517D01*
X206496080Y-106045517D01*
X206496080Y-108232737D01*
G37*
G36*
X155237480Y-99519126D02*
G01*
X154849423Y-100118853D01*
X153226646Y-100118853D01*
X152415260Y-98707741D01*
X152768036Y-98072741D01*
X155237480Y-99519126D01*
G37*
G36*
X132236375Y-29669149D02*
G01*
X131530819Y-30092483D01*
X131495542Y-30057205D01*
X131742486Y-29633872D01*
X132236375Y-29633872D01*
X132236375Y-29669149D01*
G37*
G36*
X126415544Y-94509682D02*
G01*
X125392489Y-96273573D01*
X123346378Y-96273573D01*
X122358601Y-94509682D01*
X123346378Y-92745797D01*
X125392489Y-92745797D01*
X126415544Y-94509682D01*
G37*
G36*
X206496070Y-138783292D02*
G01*
X204908577Y-138783292D01*
X204696907Y-138430509D01*
X204749755Y-138347963D01*
X204802189Y-138259630D01*
X204853796Y-138166336D01*
X204904162Y-138068907D01*
X204952874Y-137968173D01*
X204999520Y-137864958D01*
X205043686Y-137760090D01*
X205084958Y-137654396D01*
X205149382Y-137469186D01*
X205210086Y-137283976D01*
X205266655Y-137098767D01*
X205318677Y-136913558D01*
X205365738Y-136728350D01*
X205407424Y-136543142D01*
X205443322Y-136357935D01*
X205473019Y-136172727D01*
X205498927Y-136039883D01*
X205510847Y-135972427D01*
X205521527Y-135903732D01*
X205530553Y-135833383D01*
X205537513Y-135760968D01*
X205541991Y-135686073D01*
X205543171Y-135647566D01*
X205543576Y-135608285D01*
X206496070Y-135608285D01*
X206496070Y-138783292D01*
G37*
G36*
X192208583Y-94298023D02*
G01*
X191679413Y-95215239D01*
X190621084Y-95215239D01*
X190091915Y-94298023D01*
X190621084Y-93380797D01*
X191679413Y-93380797D01*
X192208583Y-94298023D01*
G37*
G36*
X130119708Y-100930239D02*
G01*
X129096654Y-102694124D01*
X127050544Y-102694124D01*
X126062766Y-100930239D01*
X127050544Y-99166348D01*
X129096654Y-99166348D01*
X130119708Y-100930239D01*
G37*
G36*
X206319689Y-68474695D02*
G01*
X206178576Y-68721639D01*
X205896349Y-68721639D01*
X205755246Y-68474695D01*
X205896349Y-68227747D01*
X206178576Y-68227747D01*
X206319689Y-68474695D01*
G37*
G36*
X163598310Y-128764394D02*
G01*
X162504697Y-130669402D01*
X160246921Y-130669402D01*
X159153311Y-128764394D01*
X160246921Y-126824117D01*
X162504697Y-126824117D01*
X163598310Y-128764394D01*
G37*
G36*
X194819132Y-93063297D02*
G01*
X194289968Y-93063297D01*
X193760803Y-92146076D01*
X194325246Y-91193582D01*
X194819132Y-91193582D01*
X194819132Y-93063297D01*
G37*
G36*
X154320256Y-29951371D02*
G01*
X154284980Y-30021927D01*
X154179148Y-30021927D01*
X154143867Y-29951371D01*
X154179148Y-29880816D01*
X154284980Y-29880816D01*
X154320256Y-29951371D01*
G37*
G36*
X192384969Y-98601906D02*
G01*
X191749970Y-99695513D01*
X190479966Y-99695513D01*
X189844967Y-98601906D01*
X190479966Y-97508293D01*
X191749970Y-97508293D01*
X192384969Y-98601906D01*
G37*
G36*
X159894143Y-126612458D02*
G01*
X158800536Y-128552734D01*
X156542757Y-128552734D01*
X155449147Y-126612458D01*
X156542757Y-124672181D01*
X158800536Y-124672181D01*
X159894143Y-126612458D01*
G37*
G36*
X118830824Y-85901912D02*
G01*
X117913602Y-87489410D01*
X116502491Y-87489410D01*
X116502491Y-84314413D01*
X117913602Y-84314413D01*
X118830824Y-85901912D01*
G37*
G36*
X195050093Y-116657922D02*
G01*
X195107970Y-116823975D01*
X195169154Y-116985068D01*
X195233645Y-117140373D01*
X195301445Y-117289064D01*
X195336584Y-117360670D01*
X195372551Y-117430313D01*
X195409345Y-117497888D01*
X195446966Y-117563293D01*
X195485414Y-117626424D01*
X195524688Y-117687177D01*
X195558175Y-117739283D01*
X195592488Y-117789839D01*
X195627629Y-117838948D01*
X195663596Y-117886714D01*
X195700390Y-117933240D01*
X195738010Y-117978629D01*
X195776458Y-118022984D01*
X195815732Y-118066410D01*
X195855833Y-118109009D01*
X195896761Y-118150884D01*
X195938515Y-118192140D01*
X195981097Y-118232878D01*
X196068741Y-118313219D01*
X196159693Y-118392733D01*
X195595245Y-119345237D01*
X195595245Y-119309959D01*
X193972468Y-119309959D01*
X193161082Y-117898847D01*
X193972468Y-116487735D01*
X194995524Y-116487735D01*
X195050093Y-116657922D01*
G37*
G36*
X202817822Y-133556099D02*
G01*
X202829742Y-133602058D01*
X202840423Y-133645949D01*
X202849450Y-133688186D01*
X202853214Y-133708814D01*
X202856410Y-133729184D01*
X202858986Y-133749346D01*
X202860890Y-133769354D01*
X202862070Y-133789258D01*
X202862475Y-133809111D01*
X202874120Y-133890210D01*
X202882871Y-133975029D01*
X202889141Y-134063983D01*
X202893344Y-134157483D01*
X202895893Y-134255944D01*
X202897202Y-134359779D01*
X202897754Y-134585224D01*
X202897202Y-134810673D01*
X202895893Y-134914508D01*
X202893344Y-135012968D01*
X202889141Y-135106468D01*
X202882871Y-135195420D01*
X202874120Y-135280238D01*
X202862475Y-135361336D01*
X202860821Y-135429068D01*
X202855859Y-135499694D01*
X202847590Y-135572800D01*
X202836013Y-135647973D01*
X202821129Y-135724800D01*
X202802939Y-135802867D01*
X202781442Y-135881760D01*
X202756640Y-135961068D01*
X202753231Y-135974092D01*
X202749621Y-135986715D01*
X202745817Y-135998951D01*
X202741826Y-136010812D01*
X202737654Y-136022312D01*
X202733308Y-136033463D01*
X202724118Y-136054770D01*
X202714308Y-136074837D01*
X202703930Y-136093767D01*
X202693034Y-136111664D01*
X202681674Y-136128631D01*
X202669900Y-136144771D01*
X202657765Y-136160188D01*
X202645319Y-136174984D01*
X202632615Y-136189264D01*
X202619704Y-136203131D01*
X202606639Y-136216688D01*
X202580249Y-136243284D01*
X202573203Y-136244076D01*
X202565228Y-136246316D01*
X202556219Y-136249795D01*
X202546073Y-136254309D01*
X202521957Y-136265609D01*
X202492053Y-136278562D01*
X202474672Y-136285143D01*
X202455534Y-136291516D01*
X202434536Y-136297476D01*
X202411574Y-136302816D01*
X202386545Y-136307329D01*
X202359346Y-136310809D01*
X202329873Y-136313048D01*
X202298022Y-136313841D01*
X201028023Y-136313841D01*
X200287194Y-135043832D01*
X201204415Y-133456328D01*
X202791919Y-133456328D01*
X202817822Y-133556099D01*
G37*
G36*
X148464148Y-103011628D02*
G01*
X147546927Y-104599127D01*
X145712483Y-104599127D01*
X144759981Y-103011628D01*
X145712483Y-101424130D01*
X147546927Y-101424130D01*
X148464148Y-103011628D01*
G37*
G36*
X122358601Y-75177468D02*
G01*
X121547212Y-76623858D01*
X119889157Y-76623858D01*
X119077768Y-75177468D01*
X119889157Y-73766356D01*
X121547212Y-73766356D01*
X122358601Y-75177468D01*
G37*
G36*
X139856372Y-34325814D02*
G01*
X139609429Y-34749147D01*
X139150816Y-34749147D01*
X138903873Y-34325814D01*
X139150816Y-33902481D01*
X139609429Y-33902481D01*
X139856372Y-34325814D01*
G37*
G36*
X124969155Y-33902481D02*
G01*
X123946100Y-34466926D01*
X123875544Y-34361093D01*
X124228322Y-33761370D01*
X124898600Y-33761370D01*
X124969155Y-33902481D01*
G37*
G36*
X199334690Y-98072741D02*
G01*
X197747191Y-98072741D01*
X197994134Y-97649406D01*
X199087747Y-97649406D01*
X199334690Y-98072741D01*
G37*
G36*
X122041100Y-62265807D02*
G01*
X121406101Y-63359417D01*
X120136101Y-63359417D01*
X119501101Y-62265807D01*
X120136101Y-61172194D01*
X121406101Y-61172194D01*
X122041100Y-62265807D01*
G37*
G36*
X121264990Y-36019147D02*
G01*
X120700545Y-36336647D01*
X120636053Y-36376404D01*
X120605047Y-36396411D01*
X120574868Y-36416573D01*
X120545516Y-36436942D01*
X120516991Y-36457570D01*
X120489292Y-36478507D01*
X120462421Y-36499807D01*
X120436376Y-36521519D01*
X120411158Y-36543697D01*
X120386766Y-36566392D01*
X120363202Y-36589655D01*
X120340464Y-36613538D01*
X120318554Y-36638093D01*
X120297470Y-36663371D01*
X120277213Y-36689425D01*
X120171379Y-36513036D01*
X120524157Y-35913314D01*
X121194434Y-35913314D01*
X121264990Y-36019147D01*
G37*
G36*
X201310240Y-121532462D02*
G01*
X201303220Y-121506002D01*
X201295426Y-121479542D01*
X201286908Y-121453082D01*
X201277718Y-121426623D01*
X201257529Y-121373705D01*
X201235274Y-121320788D01*
X201211365Y-121267872D01*
X201186217Y-121214956D01*
X201133853Y-121109122D01*
X201310240Y-120756349D01*
X202403857Y-120756349D01*
X201310240Y-121532462D01*
G37*
G36*
X185470527Y-124389955D02*
G01*
X184553301Y-125977448D01*
X182718859Y-125977448D01*
X181801639Y-124389955D01*
X182718859Y-122802451D01*
X184553301Y-122802451D01*
X185470527Y-124389955D01*
G37*
G36*
X144124984Y-93098575D02*
G01*
X143772206Y-93698297D01*
X142114149Y-93698297D01*
X141302763Y-92287184D01*
X141655541Y-91652190D01*
X144124984Y-93098575D01*
G37*
G36*
X118160546Y-47272756D02*
G01*
X117631380Y-48189977D01*
X116573047Y-48189977D01*
X116502491Y-48084144D01*
X116502491Y-46461366D01*
X116573047Y-46355534D01*
X117631380Y-46355534D01*
X118160546Y-47272756D01*
G37*
G36*
X203391630Y-109149963D02*
G01*
X203331288Y-109124331D01*
X203269396Y-109100353D01*
X203206058Y-109078028D01*
X203141376Y-109057357D01*
X203075454Y-109038340D01*
X203008395Y-109020977D01*
X202940303Y-109005267D01*
X202871281Y-108991211D01*
X202801432Y-108978808D01*
X202730860Y-108968059D01*
X202659667Y-108958964D01*
X202587958Y-108951523D01*
X202515836Y-108945735D01*
X202443404Y-108941601D01*
X202370765Y-108939120D01*
X202298022Y-108938293D01*
X201169132Y-108938293D01*
X201592466Y-108197459D01*
X202862465Y-108197459D01*
X203391630Y-109149963D01*
G37*
G36*
X152662204Y-126647726D02*
G01*
X151462759Y-128729126D01*
X149028591Y-128729126D01*
X147829149Y-126647726D01*
X149028591Y-124566336D01*
X151462759Y-124566336D01*
X152662204Y-126647726D01*
G37*
G36*
X202474404Y-66569695D02*
G01*
X202192187Y-66569695D01*
X202156909Y-66534416D01*
X202509692Y-66534416D01*
X202474404Y-66569695D01*
G37*
G36*
X148816926Y-115923292D02*
G01*
X147688038Y-117863569D01*
X145430259Y-117863569D01*
X144336649Y-115923292D01*
X145430259Y-113983015D01*
X147688038Y-113983015D01*
X148816926Y-115923292D01*
G37*
G36*
X178591363Y-141605506D02*
G01*
X177356638Y-143722174D01*
X174957748Y-143722174D01*
X173723027Y-141605506D01*
X174957748Y-139524116D01*
X177356638Y-139524116D01*
X178591363Y-141605506D01*
G37*
G36*
X194819132Y-128129395D02*
G01*
X193831355Y-128129395D01*
X192914139Y-126506623D01*
X193831355Y-124919119D01*
X194819132Y-124919119D01*
X194819132Y-128129395D01*
G37*
G36*
X194854416Y-100683295D02*
G01*
X194855133Y-100709644D01*
X194857258Y-100735747D01*
X194860752Y-100761566D01*
X194865578Y-100787061D01*
X194871695Y-100812195D01*
X194879065Y-100836929D01*
X194887650Y-100861223D01*
X194897410Y-100885040D01*
X194908307Y-100908339D01*
X194920303Y-100931083D01*
X194933357Y-100953233D01*
X194947433Y-100974749D01*
X194962490Y-100995594D01*
X194978490Y-101015729D01*
X194995395Y-101035114D01*
X195013165Y-101053711D01*
X195031762Y-101071481D01*
X195051147Y-101088385D01*
X195071281Y-101104386D01*
X195092126Y-101119443D01*
X195113643Y-101133518D01*
X195135792Y-101146573D01*
X195158536Y-101158568D01*
X195181836Y-101169465D01*
X195205652Y-101179226D01*
X195229947Y-101187810D01*
X195254680Y-101195181D01*
X195279814Y-101201298D01*
X195305310Y-101206123D01*
X195331129Y-101209618D01*
X195357232Y-101211743D01*
X195383580Y-101212460D01*
X195842193Y-101212460D01*
X195454137Y-101847459D01*
X195454137Y-101882743D01*
X194219411Y-101882743D01*
X193584412Y-100789125D01*
X194219411Y-99695513D01*
X194854416Y-99695513D01*
X194854416Y-100683295D01*
G37*
G36*
X181942747Y-126577179D02*
G01*
X180919696Y-128341064D01*
X178908858Y-128341064D01*
X177885807Y-126577179D01*
X178908858Y-124813294D01*
X180919696Y-124813294D01*
X181942747Y-126577179D01*
G37*
G36*
X200287184Y-132927184D02*
G01*
X199369958Y-134514688D01*
X197535516Y-134514688D01*
X197394408Y-134267739D01*
X197401436Y-134152353D01*
X197409291Y-134044150D01*
X197417973Y-133942871D01*
X197427482Y-133848260D01*
X197437817Y-133760056D01*
X197448979Y-133678002D01*
X197460968Y-133601840D01*
X197473784Y-133531310D01*
X197487427Y-133466154D01*
X197501897Y-133406115D01*
X197517193Y-133350933D01*
X197533317Y-133300350D01*
X197550267Y-133254109D01*
X197568044Y-133211949D01*
X197586647Y-133173614D01*
X197606078Y-133138844D01*
X197634533Y-133097846D01*
X197650647Y-133076753D01*
X197668363Y-133055609D01*
X197687940Y-133034671D01*
X197709635Y-133014198D01*
X197733708Y-132994449D01*
X197760416Y-132975681D01*
X197790018Y-132958154D01*
X197822772Y-132942126D01*
X197858937Y-132927854D01*
X197898771Y-132915598D01*
X197942532Y-132905616D01*
X197990479Y-132898166D01*
X198042870Y-132893506D01*
X198099964Y-132891895D01*
X200251906Y-132891895D01*
X200287184Y-132927184D01*
G37*
G36*
X129943319Y-92322463D02*
G01*
X129026098Y-93909961D01*
X127191654Y-93909961D01*
X126274433Y-92322463D01*
X127191654Y-90734964D01*
X129026098Y-90734964D01*
X129943319Y-92322463D01*
G37*
G36*
X141408595Y-115923292D02*
G01*
X140279707Y-117863569D01*
X138057206Y-117863569D01*
X136928319Y-115923292D01*
X138057206Y-113983015D01*
X140279707Y-113983015D01*
X141408595Y-115923292D01*
G37*
G36*
X181766360Y-117969404D02*
G01*
X180849134Y-119556907D01*
X179014693Y-119556907D01*
X178097477Y-117969404D01*
X179014693Y-116381910D01*
X180849134Y-116381910D01*
X181766360Y-117969404D01*
G37*
G36*
X141549706Y-120227175D02*
G01*
X140350261Y-122343843D01*
X137916096Y-122343843D01*
X136716651Y-120227175D01*
X137916096Y-118145795D01*
X140350261Y-118145795D01*
X141549706Y-120227175D01*
G37*
G36*
X178238585Y-128693848D02*
G01*
X177215529Y-130457733D01*
X175204691Y-130457733D01*
X174181640Y-128693848D01*
X175204691Y-126929952D01*
X177215529Y-126929952D01*
X178238585Y-128693848D01*
G37*
G36*
X206496080Y-93663018D02*
G01*
X206496080Y-94827187D01*
X206425514Y-95003574D01*
X205543576Y-95003574D01*
X205084968Y-94262739D01*
X205543576Y-93486632D01*
X206425514Y-93486632D01*
X206496080Y-93663018D01*
G37*
G36*
X189351080Y-135114388D02*
G01*
X188328030Y-136878284D01*
X186281918Y-136878284D01*
X185294136Y-135114388D01*
X186281918Y-133350503D01*
X188328030Y-133350503D01*
X189351080Y-135114388D01*
G37*
G36*
X143384147Y-32138593D02*
G01*
X143243039Y-32385537D01*
X142960815Y-32385537D01*
X142819705Y-32138593D01*
X142960815Y-31891649D01*
X143243039Y-31891649D01*
X143384147Y-32138593D01*
G37*
G36*
X206496080Y-77047188D02*
G01*
X206496080Y-77082471D01*
X206249132Y-77470523D01*
X205790524Y-77470523D01*
X205543576Y-77047188D01*
X205790524Y-76659137D01*
X206249132Y-76659137D01*
X206496080Y-77047188D01*
G37*
G36*
X204344134Y-147990779D02*
G01*
X203215248Y-149931055D01*
X200992745Y-149931055D01*
X200216632Y-148590500D01*
X203920794Y-147249955D01*
X204344134Y-147990779D01*
G37*
G36*
X174358027Y-117969404D02*
G01*
X173440806Y-119556907D01*
X171606364Y-119556907D01*
X170689143Y-117969404D01*
X171606364Y-116381910D01*
X173440806Y-116381910D01*
X174358027Y-117969404D01*
G37*
G36*
X167478863Y-139488838D02*
G01*
X166279421Y-141570228D01*
X163845253Y-141570228D01*
X162645811Y-139488838D01*
X163845253Y-137372180D01*
X166279421Y-137372180D01*
X167478863Y-139488838D01*
G37*
G36*
X152309425Y-109467463D02*
G01*
X151321645Y-111231348D01*
X149275536Y-111231348D01*
X148252481Y-109467463D01*
X149275536Y-107703573D01*
X151321645Y-107703573D01*
X152309425Y-109467463D01*
G37*
G36*
X204908577Y-45826367D02*
G01*
X196865244Y-51012198D01*
X204908577Y-51012198D01*
X204908577Y-52282197D01*
X195348302Y-52282197D01*
X195348302Y-50553588D01*
X203250516Y-45332478D01*
X195348302Y-45332478D01*
X195348302Y-44097756D01*
X204908577Y-44097756D01*
X204908577Y-45826367D01*
G37*
G36*
X125392489Y-47237477D02*
G01*
X124969155Y-47978309D01*
X124087211Y-47978309D01*
X123663878Y-47237477D01*
X124087211Y-46461366D01*
X124969155Y-46461366D01*
X125392489Y-47237477D01*
G37*
G36*
X192702469Y-115782179D02*
G01*
X191891078Y-117228569D01*
X190233023Y-117228569D01*
X189421637Y-115782179D01*
X190233023Y-114371067D01*
X191891078Y-114371067D01*
X192702469Y-115782179D01*
G37*
G36*
X198049085Y-112319961D02*
G01*
X198099969Y-112324955D01*
X199475798Y-112324955D01*
X199228855Y-112748285D01*
X197782465Y-112748285D01*
X197641356Y-112501347D01*
X197655033Y-112481537D01*
X197669743Y-112461935D01*
X197685693Y-112442746D01*
X197703090Y-112424177D01*
X197722142Y-112406435D01*
X197743053Y-112389727D01*
X197766032Y-112374258D01*
X197791285Y-112360237D01*
X197819018Y-112347870D01*
X197849438Y-112337362D01*
X197882753Y-112328922D01*
X197919168Y-112322755D01*
X197958891Y-112319068D01*
X198002127Y-112318068D01*
X198049085Y-112319961D01*
G37*
G36*
X148958037Y-128799672D02*
G01*
X147758592Y-130881062D01*
X145324427Y-130881062D01*
X144124984Y-128799672D01*
X145324427Y-126683004D01*
X147758592Y-126683004D01*
X148958037Y-128799672D01*
G37*
G36*
X146947206Y-25682762D02*
G01*
X146876647Y-25753317D01*
X146770817Y-25753317D01*
X146735536Y-25682762D01*
X146770817Y-25612206D01*
X146876647Y-25612206D01*
X146947206Y-25682762D01*
G37*
G36*
X195104247Y-150261721D02*
G01*
X195139939Y-150274468D01*
X195173977Y-150286388D01*
X195207188Y-150297068D01*
X195223742Y-150301814D01*
X195240400Y-150306094D01*
X195257264Y-150309858D01*
X195274438Y-150313053D01*
X195292025Y-150315629D01*
X195310130Y-150317532D01*
X195328854Y-150318712D01*
X195348302Y-150319117D01*
X195373243Y-150319048D01*
X195395705Y-150318566D01*
X195406264Y-150318040D01*
X195416513Y-150317256D01*
X195426556Y-150316163D01*
X195436495Y-150314707D01*
X195446434Y-150312838D01*
X195456477Y-150310504D01*
X195466726Y-150307653D01*
X195477285Y-150304234D01*
X195488258Y-150300194D01*
X195499747Y-150295483D01*
X195511856Y-150290048D01*
X195524688Y-150283838D01*
X195665796Y-150248560D01*
X195877466Y-150248560D01*
X197076908Y-152329950D01*
X195877466Y-154411330D01*
X193443298Y-154411330D01*
X192243856Y-152329950D01*
X193443298Y-150248560D01*
X195066075Y-150248560D01*
X195104247Y-150261721D01*
G37*
G36*
X170512757Y-107244960D02*
G01*
X169666083Y-108656072D01*
X168043311Y-108656072D01*
X167196641Y-107244960D01*
X168043311Y-105833848D01*
X169666083Y-105833848D01*
X170512757Y-107244960D01*
G37*
G36*
X166949698Y-109432179D02*
G01*
X166032472Y-111019678D01*
X164198031Y-111019678D01*
X163280810Y-109432179D01*
X164198031Y-107844681D01*
X166032472Y-107844681D01*
X166949698Y-109432179D01*
G37*
G36*
X145253873Y-126647726D02*
G01*
X144054428Y-128729126D01*
X141620260Y-128729126D01*
X140420818Y-126647726D01*
X141620260Y-124566336D01*
X144054428Y-124566336D01*
X145253873Y-126647726D01*
G37*
G36*
X171183030Y-137336902D02*
G01*
X169948309Y-139418281D01*
X167549420Y-139418281D01*
X166349977Y-137336902D01*
X167549420Y-135255512D01*
X169948309Y-135255512D01*
X171183030Y-137336902D01*
G37*
G36*
X206460802Y-130034403D02*
G01*
X205014412Y-130034403D01*
X204273577Y-128729126D01*
X204908577Y-128729126D01*
X204934926Y-128728409D01*
X204961029Y-128726284D01*
X204986848Y-128722789D01*
X205012344Y-128717964D01*
X205037478Y-128711846D01*
X205062212Y-128704476D01*
X205086507Y-128695891D01*
X205110323Y-128686131D01*
X205133622Y-128675233D01*
X205156367Y-128663238D01*
X205178516Y-128650183D01*
X205200033Y-128636107D01*
X205220878Y-128621050D01*
X205241012Y-128605050D01*
X205260397Y-128588145D01*
X205278994Y-128570375D01*
X205296764Y-128551778D01*
X205313668Y-128532392D01*
X205329668Y-128512258D01*
X205344725Y-128491413D01*
X205358801Y-128469896D01*
X205371855Y-128447747D01*
X205383850Y-128425003D01*
X205394747Y-128401703D01*
X205404507Y-128377887D01*
X205413092Y-128353593D01*
X205420462Y-128328860D01*
X205426579Y-128303726D01*
X205431404Y-128278230D01*
X205434899Y-128252412D01*
X205437024Y-128226309D01*
X205437741Y-128199961D01*
X205402473Y-128199961D01*
X205402473Y-127176900D01*
X206460802Y-127176900D01*
X206460802Y-130034403D01*
G37*
G36*
X201416075Y-144851060D02*
G01*
X200886910Y-145027441D01*
X200604684Y-144568844D01*
X201416075Y-144851060D01*
G37*
G36*
X133647486Y-94474409D02*
G01*
X132730264Y-96061908D01*
X130895820Y-96061908D01*
X129978599Y-94474409D01*
X130895820Y-92851632D01*
X132730264Y-92851632D01*
X133647486Y-94474409D01*
G37*
G36*
X203179960Y-125377737D02*
G01*
X201698301Y-125377737D01*
X201698301Y-125130789D01*
X201804131Y-125060232D01*
X203003578Y-125060232D01*
X203179960Y-125377737D01*
G37*
G36*
X192702469Y-120050793D02*
G01*
X191891078Y-121497184D01*
X190233023Y-121497184D01*
X189421637Y-120050793D01*
X190233023Y-118639681D01*
X191891078Y-118639681D01*
X192702469Y-120050793D01*
G37*
G36*
X174710805Y-135149667D02*
G01*
X173581919Y-137089943D01*
X171359421Y-137089943D01*
X170230531Y-135149667D01*
X171359421Y-133209390D01*
X173581919Y-133209390D01*
X174710805Y-135149667D01*
G37*
G36*
X121864712Y-53693309D02*
G01*
X121335545Y-54610530D01*
X120277212Y-54610530D01*
X119748046Y-53693309D01*
X120277212Y-52740810D01*
X121335545Y-52740810D01*
X121864712Y-53693309D01*
G37*
G36*
X166808590Y-105093013D02*
G01*
X165961921Y-106539404D01*
X164339144Y-106539404D01*
X163492475Y-105093013D01*
X164339144Y-103681906D01*
X165961921Y-103681906D01*
X166808590Y-105093013D01*
G37*
G36*
X206496080Y-85372742D02*
G01*
X206496080Y-85972463D01*
X206319689Y-86254690D01*
X205649411Y-86254690D01*
X205331906Y-85654969D01*
X205649411Y-85055242D01*
X206319689Y-85055242D01*
X206496080Y-85372742D01*
G37*
G36*
X125745266Y-60149141D02*
G01*
X125110266Y-61207475D01*
X123840266Y-61207475D01*
X123205267Y-60149141D01*
X123840266Y-59055529D01*
X125110266Y-59055529D01*
X125745266Y-60149141D01*
G37*
G36*
X125074989Y-30057205D02*
G01*
X124828044Y-30445260D01*
X124334156Y-30445260D01*
X124087211Y-30057205D01*
X124334156Y-29633872D01*
X124828044Y-29633872D01*
X125074989Y-30057205D01*
G37*
G36*
X206496080Y-116981621D02*
G01*
X205155525Y-116981621D01*
X205120236Y-116946343D01*
X205183145Y-116774364D01*
X205239852Y-116602385D01*
X205290771Y-116430406D01*
X205336316Y-116258426D01*
X205376900Y-116086446D01*
X205412936Y-115914466D01*
X205444838Y-115742487D01*
X205473019Y-115570509D01*
X205497825Y-115448278D01*
X205519322Y-115320259D01*
X205537513Y-115187279D01*
X205552396Y-115050164D01*
X205563971Y-114909742D01*
X205572240Y-114766839D01*
X205577201Y-114622283D01*
X205578854Y-114476902D01*
X206496080Y-114476902D01*
X206496080Y-116981621D01*
G37*
G36*
X193055247Y-137266335D02*
G01*
X192032191Y-139030230D01*
X189986080Y-139030230D01*
X188998302Y-137266335D01*
X189986080Y-135502450D01*
X192032191Y-135502450D01*
X193055247Y-137266335D01*
G37*
G36*
X152168312Y-105163570D02*
G01*
X151251091Y-106751068D01*
X149381369Y-106751068D01*
X148464148Y-105163570D01*
X149381369Y-103540793D01*
X151251091Y-103540793D01*
X152168312Y-105163570D01*
G37*
G36*
X139715264Y-25718039D02*
G01*
X139538875Y-25964984D01*
X139256651Y-25964984D01*
X139115540Y-25718039D01*
X139256651Y-25471095D01*
X139538875Y-25471095D01*
X139715264Y-25718039D01*
G37*
G36*
X170653865Y-115852735D02*
G01*
X169736639Y-117440239D01*
X167902198Y-117440239D01*
X166984977Y-115852735D01*
X167902198Y-114229964D01*
X169736639Y-114229964D01*
X170653865Y-115852735D01*
G37*
G36*
X174534418Y-126577179D02*
G01*
X173511363Y-128341064D01*
X171500529Y-128341064D01*
X170477474Y-126577179D01*
X171500529Y-124813294D01*
X173511363Y-124813294D01*
X174534418Y-126577179D01*
G37*
G36*
X171006643Y-128764394D02*
G01*
X169913031Y-130669402D01*
X167655254Y-130669402D01*
X166526364Y-128764394D01*
X167655254Y-126824117D01*
X169913031Y-126824117D01*
X171006643Y-128764394D01*
G37*
G36*
X182119138Y-135149667D02*
G01*
X180990253Y-137089943D01*
X178767750Y-137089943D01*
X177638864Y-135149667D01*
X178767750Y-133209390D01*
X180990253Y-133209390D01*
X182119138Y-135149667D01*
G37*
G36*
X189527467Y-139418281D02*
G01*
X188398581Y-141358558D01*
X186176083Y-141358558D01*
X185047192Y-139418281D01*
X186176083Y-137513283D01*
X188398581Y-137513283D01*
X189527467Y-139418281D01*
G37*
G36*
X156189979Y-124460511D02*
G01*
X155096369Y-126400788D01*
X152838593Y-126400788D01*
X151744980Y-124460511D01*
X152838593Y-122520235D01*
X155096369Y-122520235D01*
X156189979Y-124460511D01*
G37*
G36*
X177885807Y-107244960D02*
G01*
X177074416Y-108656072D01*
X175451644Y-108656072D01*
X174604975Y-107244960D01*
X175451644Y-105833848D01*
X177074416Y-105833848D01*
X177885807Y-107244960D01*
G37*
G36*
X206496080Y-150566055D02*
G01*
X204379412Y-151800786D01*
X203426908Y-150142725D01*
X204626350Y-148096614D01*
X206496080Y-148096614D01*
X206496080Y-150566055D01*
G37*
G36*
X155872479Y-107280233D02*
G01*
X154955258Y-108867737D01*
X153085536Y-108867737D01*
X152168312Y-107280233D01*
X153085536Y-105692734D01*
X154955258Y-105692734D01*
X155872479Y-107280233D01*
G37*
G36*
X193231634Y-141570228D02*
G01*
X192102748Y-143510504D01*
X189880245Y-143510504D01*
X188751359Y-141570228D01*
X189880245Y-139629951D01*
X192102748Y-139629951D01*
X193231634Y-141570228D01*
G37*
G36*
X132624432Y-38629702D02*
G01*
X132306931Y-39229424D01*
X131601376Y-39229424D01*
X131283876Y-38629702D01*
X131601376Y-38029979D01*
X132306931Y-38029979D01*
X132624432Y-38629702D01*
G37*
G36*
X159894143Y-122343843D02*
G01*
X158800536Y-124284120D01*
X156542757Y-124284120D01*
X155449147Y-122343843D01*
X156542757Y-120403566D01*
X158800536Y-120403566D01*
X159894143Y-122343843D01*
G37*
G36*
X195912745Y-96414686D02*
G01*
X195383580Y-97367185D01*
X194325246Y-97367185D01*
X193760803Y-96414686D01*
X194325246Y-95497465D01*
X195383580Y-95497465D01*
X195912745Y-96414686D01*
G37*
G36*
X122711379Y-96626351D02*
G01*
X121688323Y-98390241D01*
X119642212Y-98390241D01*
X118654435Y-96626351D01*
X119642212Y-94897744D01*
X121688323Y-94897744D01*
X122711379Y-96626351D01*
G37*
G36*
X197429688Y-135502460D02*
G01*
X197429687Y-135502460D01*
X197429687Y-135502450D01*
X197429688Y-135502460D01*
G37*
G36*
X163774701Y-137336902D02*
G01*
X162575259Y-139418281D01*
X160141086Y-139418281D01*
X158941646Y-137336902D01*
X160141086Y-135255512D01*
X162575259Y-135255512D01*
X163774701Y-137336902D01*
G37*
G36*
X206496080Y-81068859D02*
G01*
X206496080Y-81668581D01*
X206319689Y-81950802D01*
X205649411Y-81950802D01*
X205437741Y-81562746D01*
X205437741Y-81174689D01*
X205649411Y-80786633D01*
X206319689Y-80786633D01*
X206496080Y-81068859D01*
G37*
G36*
X156366368Y-128799672D02*
G01*
X155166923Y-130881062D01*
X152732758Y-130881062D01*
X151533315Y-128799672D01*
X152732758Y-126683004D01*
X155166923Y-126683004D01*
X156366368Y-128799672D01*
G37*
G36*
X188504416Y-87877462D02*
G01*
X187975252Y-88794688D01*
X186916918Y-88794688D01*
X186775804Y-88547744D01*
X188363303Y-87630519D01*
X188504416Y-87877462D01*
G37*
G36*
X120478664Y-40121161D02*
G01*
X120540555Y-40163803D01*
X120603893Y-40204068D01*
X120668575Y-40242007D01*
X120734497Y-40277672D01*
X120801556Y-40311115D01*
X120869648Y-40342388D01*
X120938670Y-40371542D01*
X121008520Y-40398629D01*
X121079092Y-40423701D01*
X121150285Y-40446809D01*
X121221995Y-40468004D01*
X121294118Y-40487340D01*
X121366551Y-40504867D01*
X121439191Y-40520637D01*
X121511934Y-40534701D01*
X121688323Y-40816924D01*
X121264990Y-41557756D01*
X120383046Y-41557756D01*
X119959712Y-40816924D01*
X120383046Y-40076091D01*
X120418323Y-40076091D01*
X120478664Y-40121161D01*
G37*
G36*
X177744699Y-102941072D02*
G01*
X177003860Y-104175797D01*
X175557469Y-104175797D01*
X174816640Y-102941072D01*
X175557469Y-101671073D01*
X177003860Y-101671073D01*
X177744699Y-102941072D01*
G37*
G36*
X147088314Y-34255259D02*
G01*
X146947206Y-34537481D01*
X146664982Y-34537481D01*
X146523871Y-34255259D01*
X146664982Y-34008315D01*
X146947206Y-34008315D01*
X147088314Y-34255259D01*
G37*
G36*
X122534990Y-88053853D02*
G01*
X121617767Y-89641352D01*
X119783324Y-89641352D01*
X118866101Y-88053853D01*
X119783324Y-86466355D01*
X121617767Y-86466355D01*
X122534990Y-88053853D01*
G37*
G36*
X126733044Y-111689956D02*
G01*
X125533600Y-113771346D01*
X123134711Y-113771346D01*
X121899990Y-111689956D01*
X123134711Y-109608571D01*
X125533600Y-109608571D01*
X126733044Y-111689956D01*
G37*
G36*
X118336935Y-55845251D02*
G01*
X117701935Y-56938863D01*
X116502491Y-56938863D01*
X116502491Y-54786919D01*
X117701935Y-54786919D01*
X118336935Y-55845251D01*
G37*
G36*
X204908577Y-66005249D02*
G01*
X195348302Y-66005249D01*
X195348302Y-64558861D01*
X204908577Y-64558861D01*
X204908577Y-66005249D01*
G37*
G36*
X150792481Y-32138593D02*
G01*
X150651370Y-32385537D01*
X150369146Y-32385537D01*
X150228036Y-32138593D01*
X150369146Y-31891649D01*
X150651370Y-31891649D01*
X150792481Y-32138593D01*
G37*
G36*
X202474404Y-53481642D02*
G01*
X202403857Y-53552196D01*
X202333301Y-53552196D01*
X202262744Y-53481642D01*
X202333301Y-53375807D01*
X202403857Y-53375807D01*
X202474404Y-53481642D01*
G37*
G36*
X174358027Y-113700789D02*
G01*
X173440806Y-115288293D01*
X171606364Y-115288293D01*
X170689143Y-113700789D01*
X171606364Y-112113295D01*
X173440806Y-112113295D01*
X174358027Y-113700789D01*
G37*
G36*
X206496080Y-103752458D02*
G01*
X205402463Y-103752458D01*
X204873298Y-102835237D01*
X205402463Y-101918016D01*
X206496080Y-101918016D01*
X206496080Y-103752458D01*
G37*
G36*
X122887767Y-105234126D02*
G01*
X121758878Y-107174408D01*
X119536379Y-107174408D01*
X118407491Y-105234126D01*
X119536379Y-103293850D01*
X121758878Y-103293850D01*
X122887767Y-105234126D01*
G37*
G36*
X156013590Y-111619399D02*
G01*
X155025812Y-113348016D01*
X152979703Y-113348016D01*
X151956647Y-111619399D01*
X152979703Y-109855514D01*
X155025812Y-109855514D01*
X156013590Y-111619399D01*
G37*
G36*
X195701080Y-104422741D02*
G01*
X195030802Y-104881348D01*
X195005170Y-104901606D01*
X194981192Y-104922690D01*
X194958867Y-104944601D01*
X194938196Y-104967339D01*
X194919179Y-104990904D01*
X194901816Y-105015295D01*
X194886106Y-105040514D01*
X194872050Y-105066559D01*
X194859647Y-105093431D01*
X194848898Y-105121129D01*
X194839803Y-105149655D01*
X194832362Y-105179007D01*
X194826574Y-105209186D01*
X194822439Y-105240192D01*
X194819959Y-105272024D01*
X194819132Y-105304683D01*
X194819132Y-106151352D01*
X194184133Y-106151352D01*
X193549133Y-105057740D01*
X194184133Y-103964128D01*
X195454137Y-103964128D01*
X195701080Y-104422741D01*
G37*
G36*
X177744699Y-98637184D02*
G01*
X177003860Y-99907183D01*
X175557469Y-99907183D01*
X174816640Y-98637184D01*
X175557469Y-97402458D01*
X177003860Y-97402458D01*
X177744699Y-98637184D01*
G37*
G36*
X195405694Y-120769586D02*
G01*
X195392949Y-120782813D01*
X195386860Y-120789426D01*
X195381029Y-120796040D01*
X195375509Y-120802654D01*
X195370350Y-120809268D01*
X195365605Y-120815883D01*
X195361324Y-120822497D01*
X195357560Y-120829111D01*
X195354365Y-120835726D01*
X195352997Y-120839033D01*
X195351790Y-120842340D01*
X195350751Y-120845648D01*
X195349886Y-120848955D01*
X195349203Y-120852262D01*
X195348707Y-120855570D01*
X195348404Y-120858877D01*
X195348302Y-120862184D01*
X195284611Y-120978353D01*
X195225725Y-121101962D01*
X195171491Y-121233013D01*
X195121752Y-121371506D01*
X195076355Y-121517440D01*
X195035143Y-121670815D01*
X194997962Y-121831631D01*
X194964656Y-121999890D01*
X194935072Y-122175589D01*
X194909052Y-122358731D01*
X194867091Y-122747338D01*
X194837531Y-123165711D01*
X194819132Y-123613852D01*
X194819132Y-123578574D01*
X193972463Y-123578574D01*
X193161077Y-122167472D01*
X193972463Y-120756360D01*
X195418853Y-120756360D01*
X195405694Y-120769586D01*
G37*
G36*
X144759981Y-96591077D02*
G01*
X143842760Y-98178576D01*
X142008319Y-98178576D01*
X141091093Y-96591077D01*
X142008319Y-95003574D01*
X143842760Y-95003574D01*
X144759981Y-96591077D01*
G37*
G36*
X129308320Y-74613025D02*
G01*
X129308320Y-75671359D01*
X128884986Y-76412188D01*
X127438599Y-76412188D01*
X126697766Y-75142195D01*
X127438599Y-73872191D01*
X128884986Y-73872191D01*
X129308320Y-74613025D01*
G37*
G36*
X126239155Y-90170516D02*
G01*
X125321933Y-91793298D01*
X123487489Y-91793298D01*
X122570267Y-90170516D01*
X123487489Y-88583018D01*
X125321933Y-88583018D01*
X126239155Y-90170516D01*
G37*
G36*
X194666379Y-70332631D02*
G01*
X194657629Y-70428749D01*
X194651359Y-70525694D01*
X194647155Y-70622225D01*
X194644606Y-70717103D01*
X194643297Y-70809088D01*
X194642746Y-70979415D01*
X194642751Y-71049977D01*
X194431081Y-70661915D01*
X194678024Y-70238581D01*
X194666379Y-70332631D01*
G37*
G36*
X170336365Y-98637184D02*
G01*
X169595531Y-99907183D01*
X168149141Y-99907183D01*
X167866924Y-99448570D01*
X170054144Y-98178576D01*
X170336365Y-98637184D01*
G37*
G36*
X167478863Y-135184955D02*
G01*
X166279421Y-137301613D01*
X163845253Y-137301613D01*
X162645811Y-135184955D01*
X163845253Y-133103565D01*
X166279421Y-133103565D01*
X167478863Y-135184955D01*
G37*
G36*
X130013876Y-47766645D02*
G01*
X161516920Y-29563317D01*
X193019964Y-47766645D01*
X193019964Y-84138022D01*
X161516925Y-102341346D01*
X130013876Y-84138022D01*
X130013876Y-48789698D01*
X131777764Y-48789698D01*
X131777765Y-48789698D01*
X131777765Y-83114966D01*
X161516925Y-100295234D01*
X191256084Y-83114966D01*
X191256084Y-48789698D01*
X161516925Y-31609426D01*
X131777764Y-48789698D01*
X130013876Y-48789698D01*
X130013876Y-47766645D01*
G37*
G36*
X193161082Y-158256605D02*
G01*
X191503027Y-159244387D01*
X191503027Y-156598565D01*
X192208583Y-156598565D01*
X193161082Y-158256605D01*
G37*
G36*
X185294136Y-115782179D02*
G01*
X184482750Y-117228569D01*
X182824694Y-117228569D01*
X182013303Y-115782179D01*
X182824694Y-114371067D01*
X184482750Y-114371067D01*
X185294136Y-115782179D01*
G37*
G36*
X181942747Y-130845794D02*
G01*
X180919696Y-132609679D01*
X178908858Y-132609679D01*
X177885807Y-130845794D01*
X178908858Y-129081899D01*
X180919696Y-129081899D01*
X181942747Y-130845794D01*
G37*
G36*
X139856372Y-38594425D02*
G01*
X139609429Y-39017758D01*
X139150816Y-39017758D01*
X138903873Y-38594425D01*
X139150816Y-38171091D01*
X139609429Y-38171091D01*
X139856372Y-38594425D01*
G37*
G36*
X118654435Y-77329414D02*
G01*
X117843046Y-78740521D01*
X116502491Y-78740521D01*
X116502491Y-75883024D01*
X117843046Y-75883024D01*
X118654435Y-77329414D01*
G37*
G36*
X152309425Y-113736067D02*
G01*
X151321645Y-115499952D01*
X149275536Y-115499952D01*
X148252481Y-113736067D01*
X149275536Y-111972182D01*
X151321645Y-111972182D01*
X152309425Y-113736067D01*
G37*
G36*
X171006643Y-133033009D02*
G01*
X169913031Y-134973285D01*
X167655254Y-134973285D01*
X166526364Y-133033009D01*
X167655254Y-131092732D01*
X169913031Y-131092732D01*
X171006643Y-133033009D01*
G37*
G36*
X192526078Y-111478296D02*
G01*
X191820521Y-112748285D01*
X190374131Y-112748285D01*
X189633302Y-111478296D01*
X190374131Y-110208292D01*
X191820521Y-110208292D01*
X192526078Y-111478296D01*
G37*
G36*
X195066075Y-49177754D02*
G01*
X194995524Y-49283589D01*
X194924967Y-49283589D01*
X194854416Y-49177754D01*
X194924967Y-49107200D01*
X194995524Y-49107200D01*
X195066075Y-49177754D01*
G37*
G36*
X159576643Y-109432179D02*
G01*
X158624147Y-111019678D01*
X156789700Y-111019678D01*
X155872479Y-109432179D01*
X156789700Y-107844681D01*
X158624147Y-107844681D01*
X159576643Y-109432179D01*
G37*
G36*
X192878856Y-124389955D02*
G01*
X191961635Y-125977448D01*
X190127188Y-125977448D01*
X189209972Y-124389955D01*
X190127188Y-122802451D01*
X191961635Y-122802451D01*
X192878856Y-124389955D01*
G37*
G36*
X188998302Y-117934125D02*
G01*
X188186911Y-119345237D01*
X186528861Y-119345237D01*
X185717470Y-117934125D01*
X186528861Y-116523013D01*
X188186911Y-116523013D01*
X188998302Y-117934125D01*
G37*
G36*
X117807769Y-34361093D02*
G01*
X117490269Y-34960814D01*
X116819991Y-34960814D01*
X116502491Y-34431648D01*
X116502491Y-34290537D01*
X116819991Y-33761370D01*
X117490269Y-33761370D01*
X117807769Y-34361093D01*
G37*
G36*
X133823874Y-103046902D02*
G01*
X132800819Y-104810792D01*
X130754709Y-104810792D01*
X129766932Y-103046902D01*
X130754709Y-101283017D01*
X132800819Y-101283017D01*
X133823874Y-103046902D01*
G37*
G36*
X199440525Y-89958857D02*
G01*
X199017185Y-90734964D01*
X198135243Y-90734964D01*
X197711908Y-89958857D01*
X198135243Y-89218017D01*
X199017185Y-89218017D01*
X199440525Y-89958857D01*
G37*
G36*
X206496080Y-121320792D02*
G01*
X205437741Y-121320792D01*
X205437741Y-119698010D01*
X205437432Y-119681477D01*
X205436510Y-119664956D01*
X205434980Y-119648461D01*
X205432849Y-119632005D01*
X205430124Y-119615600D01*
X205426811Y-119599260D01*
X205422917Y-119582997D01*
X205418448Y-119566825D01*
X205413411Y-119550756D01*
X205407812Y-119534803D01*
X205394953Y-119503298D01*
X205379924Y-119472413D01*
X205362776Y-119442251D01*
X205343561Y-119412916D01*
X205322331Y-119384512D01*
X205299138Y-119357140D01*
X205274032Y-119330905D01*
X205247066Y-119305911D01*
X205218292Y-119282260D01*
X205187761Y-119260056D01*
X205155525Y-119239402D01*
X205129063Y-119226242D01*
X205102603Y-119213495D01*
X205076144Y-119201575D01*
X205062915Y-119196054D01*
X205049686Y-119190895D01*
X205036457Y-119186149D01*
X205023228Y-119181868D01*
X205010000Y-119178105D01*
X204996771Y-119174909D01*
X204983542Y-119172334D01*
X204970313Y-119170431D01*
X204957084Y-119169251D01*
X204943855Y-119168846D01*
X205155525Y-118816073D01*
X206496080Y-118816073D01*
X206496080Y-121320792D01*
G37*
G36*
X194819132Y-142240506D02*
G01*
X194819543Y-142260345D01*
X194820769Y-142280159D01*
X194822795Y-142299921D01*
X194825609Y-142319606D01*
X194829198Y-142339187D01*
X194833550Y-142358639D01*
X194838651Y-142377936D01*
X194844488Y-142397051D01*
X194851049Y-142415961D01*
X194858321Y-142434637D01*
X194866290Y-142453055D01*
X194874943Y-142471189D01*
X194884269Y-142489013D01*
X194894253Y-142506501D01*
X194904884Y-142523627D01*
X194916147Y-142540366D01*
X194928030Y-142556691D01*
X194940521Y-142572577D01*
X194953606Y-142587998D01*
X194967272Y-142602928D01*
X194981507Y-142617341D01*
X194996297Y-142631212D01*
X195011630Y-142644514D01*
X195027493Y-142657222D01*
X195043872Y-142669310D01*
X195060755Y-142680752D01*
X195078129Y-142691522D01*
X195095981Y-142701594D01*
X195114298Y-142710943D01*
X195133067Y-142719543D01*
X195152275Y-142727368D01*
X195171910Y-142734392D01*
X196653579Y-143228278D01*
X196935800Y-143722174D01*
X195806915Y-145662451D01*
X193584412Y-145662451D01*
X192455526Y-143722174D01*
X193584412Y-141781898D01*
X194819132Y-141781898D01*
X194819132Y-142240506D01*
G37*
G36*
X185153027Y-102941072D02*
G01*
X184412193Y-104175797D01*
X182965803Y-104175797D01*
X182224973Y-102941072D01*
X182965803Y-101671073D01*
X184412193Y-101671073D01*
X185153027Y-102941072D01*
G37*
G36*
X202933022Y-119168846D02*
G01*
X201486636Y-119168846D01*
X201451358Y-119098299D01*
X202298022Y-119098299D01*
X202390559Y-119096715D01*
X202482681Y-119092236D01*
X202573975Y-119085276D01*
X202664030Y-119076249D01*
X202752430Y-119065568D01*
X202838764Y-119053646D01*
X203003578Y-119027733D01*
X202933022Y-119168846D01*
G37*
G36*
X137845539Y-122379121D02*
G01*
X136646095Y-124460511D01*
X134211930Y-124460511D01*
X133012485Y-122379121D01*
X134211930Y-120297731D01*
X136646095Y-120297731D01*
X137845539Y-122379121D01*
G37*
G36*
X206496070Y-112536625D02*
G01*
X205473019Y-112536625D01*
X205431609Y-112314830D01*
X205386478Y-112098410D01*
X205337212Y-111886123D01*
X205283400Y-111676730D01*
X205224627Y-111468990D01*
X205160480Y-111261663D01*
X205090546Y-111053509D01*
X205014412Y-110843286D01*
X205296628Y-110349405D01*
X206496070Y-110349405D01*
X206496070Y-112536625D01*
G37*
G36*
X206496080Y-134549945D02*
G01*
X205578854Y-134549945D01*
X205576391Y-134339124D01*
X205569070Y-134130059D01*
X205556995Y-133922854D01*
X205540269Y-133717613D01*
X205518995Y-133514439D01*
X205493277Y-133313435D01*
X205463219Y-133114706D01*
X205428923Y-132918353D01*
X205390493Y-132724480D01*
X205348032Y-132533192D01*
X205301644Y-132344590D01*
X205251432Y-132158779D01*
X205197499Y-131975861D01*
X205139949Y-131795941D01*
X205078886Y-131619121D01*
X205014412Y-131445505D01*
X205014343Y-131432345D01*
X205014179Y-131425894D01*
X205013860Y-131419599D01*
X205013335Y-131413510D01*
X205012979Y-131410560D01*
X205012551Y-131407680D01*
X205012046Y-131404878D01*
X205011457Y-131402160D01*
X205010778Y-131399532D01*
X205010002Y-131397001D01*
X205009122Y-131394574D01*
X205008133Y-131392256D01*
X205007027Y-131390054D01*
X205005799Y-131387975D01*
X205004441Y-131386026D01*
X205002948Y-131384212D01*
X205001312Y-131382540D01*
X204999529Y-131381016D01*
X204997590Y-131379647D01*
X204995489Y-131378440D01*
X204993221Y-131377401D01*
X204990778Y-131376536D01*
X204988154Y-131375852D01*
X204985343Y-131375355D01*
X204982338Y-131375051D01*
X204979133Y-131374948D01*
X206496080Y-131374948D01*
X206496080Y-134549945D01*
G37*
G36*
X185646914Y-132962452D02*
G01*
X184623863Y-134726347D01*
X182613025Y-134726347D01*
X181589974Y-132962452D01*
X182613025Y-131233835D01*
X184623863Y-131233835D01*
X185646914Y-132962452D01*
G37*
G36*
X185153027Y-107209681D02*
G01*
X184412193Y-108444402D01*
X182965803Y-108444402D01*
X182224973Y-107209681D01*
X182965803Y-105939682D01*
X184412193Y-105939682D01*
X185153027Y-107209681D01*
G37*
G36*
X145253873Y-122379121D02*
G01*
X144054428Y-124460511D01*
X141620260Y-124460511D01*
X140420818Y-122379121D01*
X141620260Y-120297731D01*
X144054428Y-120297731D01*
X145253873Y-122379121D01*
G37*
G36*
X192032191Y-85690242D02*
G01*
X191608857Y-86466355D01*
X190726909Y-86466355D01*
X190656358Y-86289963D01*
X191961635Y-85549134D01*
X192032191Y-85690242D01*
G37*
G36*
X178414972Y-133033009D02*
G01*
X177286086Y-134973285D01*
X175063583Y-134973285D01*
X173934697Y-133033009D01*
X175063583Y-131092732D01*
X177286086Y-131092732D01*
X178414972Y-133033009D01*
G37*
G36*
X154320256Y-25682762D02*
G01*
X154284980Y-25753317D01*
X154179148Y-25753317D01*
X154143867Y-25682762D01*
X154179148Y-25612206D01*
X154284980Y-25612206D01*
X154320256Y-25682762D01*
G37*
G36*
X151533315Y-97367185D02*
G01*
X151180537Y-97966906D01*
X149522480Y-97966906D01*
X148711094Y-96555794D01*
X149063872Y-95956073D01*
X151533315Y-97367185D01*
G37*
G36*
X178414972Y-137301613D02*
G01*
X177286086Y-139241890D01*
X175063583Y-139241890D01*
X173934697Y-137301613D01*
X175063583Y-135361336D01*
X177286086Y-135361336D01*
X178414972Y-137301613D01*
G37*
G36*
X206319689Y-64206083D02*
G01*
X206178576Y-64453026D01*
X205896349Y-64453026D01*
X205755246Y-64206083D01*
X205896349Y-63959138D01*
X206178576Y-63959138D01*
X206319689Y-64206083D01*
G37*
G36*
X200639967Y-150107447D02*
G01*
X199511076Y-152047724D01*
X197288578Y-152047724D01*
X196159693Y-150107447D01*
X196230244Y-150001612D01*
X199828576Y-148731613D01*
X200639967Y-150107447D01*
G37*
G36*
X160070534Y-130916340D02*
G01*
X158871090Y-133033009D01*
X156436922Y-133033009D01*
X155237480Y-130916340D01*
X156436922Y-128834951D01*
X158871090Y-128834951D01*
X160070534Y-130916340D01*
G37*
G36*
X189668580Y-152294672D02*
G01*
X188469138Y-154411330D01*
X186070248Y-154411330D01*
X184835523Y-152294672D01*
X186070248Y-150213282D01*
X188469138Y-150213282D01*
X189668580Y-152294672D01*
G37*
G36*
X199087747Y-68509969D02*
G01*
X198876077Y-68933303D01*
X198382191Y-68933303D01*
X198135243Y-68509969D01*
X198382191Y-68086639D01*
X198876077Y-68086639D01*
X199087747Y-68509969D01*
G37*
G36*
X181766360Y-122238008D02*
G01*
X180849134Y-123825502D01*
X179014693Y-123825502D01*
X178097477Y-122238008D01*
X179014693Y-120650504D01*
X180849134Y-120650504D01*
X181766360Y-122238008D01*
G37*
G36*
X192526078Y-107209681D02*
G01*
X191820521Y-108444402D01*
X190374131Y-108444402D01*
X189633302Y-107209681D01*
X190374131Y-105939682D01*
X191820521Y-105939682D01*
X192526078Y-107209681D01*
G37*
G36*
X137528039Y-100930239D02*
G01*
X136504985Y-102694124D01*
X134458876Y-102694124D01*
X133435819Y-100930239D01*
X134458876Y-99166348D01*
X136504985Y-99166348D01*
X137528039Y-100930239D01*
G37*
G36*
X202463534Y-68017728D02*
G01*
X202589685Y-68022628D01*
X202711805Y-68030733D01*
X202829946Y-68041989D01*
X202944159Y-68056347D01*
X203054497Y-68073753D01*
X203161011Y-68094156D01*
X203263752Y-68117505D01*
X203362773Y-68143748D01*
X203458125Y-68172833D01*
X203549859Y-68204709D01*
X203638028Y-68239324D01*
X203722683Y-68276626D01*
X203803876Y-68316563D01*
X203881659Y-68359085D01*
X203956083Y-68404139D01*
X204027602Y-68452094D01*
X204096641Y-68503357D01*
X204163199Y-68557927D01*
X204227277Y-68615805D01*
X204288875Y-68676990D01*
X204347992Y-68741482D01*
X204404628Y-68809281D01*
X204458785Y-68880388D01*
X204510460Y-68954802D01*
X204559656Y-69032523D01*
X204606371Y-69113552D01*
X204650606Y-69197887D01*
X204692360Y-69285530D01*
X204731634Y-69376481D01*
X204768428Y-69470738D01*
X204802742Y-69568303D01*
X204834575Y-69669176D01*
X204863927Y-69773356D01*
X204890800Y-69880843D01*
X204915191Y-69991637D01*
X204937102Y-70105738D01*
X204956532Y-70223147D01*
X204987950Y-70467885D01*
X205009446Y-70725852D01*
X205021018Y-70997048D01*
X205022666Y-71281472D01*
X205014391Y-71579126D01*
X205009568Y-71891597D01*
X204995651Y-72220190D01*
X204973466Y-72564493D01*
X204943840Y-72924092D01*
X204907599Y-73298574D01*
X204865569Y-73687525D01*
X204767453Y-74507180D01*
X203568011Y-74507180D01*
X203654067Y-74090393D01*
X203727309Y-73686422D01*
X203788148Y-73294853D01*
X203836999Y-72915273D01*
X203874275Y-72547268D01*
X203900389Y-72190424D01*
X203915754Y-71844329D01*
X203920784Y-71508569D01*
X203917408Y-71250807D01*
X203913111Y-71127275D01*
X203907005Y-71007515D01*
X203899039Y-70891683D01*
X203889161Y-70779933D01*
X203877319Y-70672421D01*
X203863462Y-70569301D01*
X203847538Y-70470729D01*
X203829494Y-70376860D01*
X203809281Y-70287847D01*
X203786845Y-70203848D01*
X203762136Y-70125016D01*
X203735100Y-70051507D01*
X203705688Y-69983475D01*
X203673846Y-69921076D01*
X203639515Y-69863206D01*
X203602601Y-69808695D01*
X203562999Y-69757595D01*
X203520607Y-69709958D01*
X203475322Y-69665835D01*
X203427039Y-69625277D01*
X203375655Y-69588337D01*
X203321068Y-69555066D01*
X203263173Y-69525516D01*
X203201868Y-69499738D01*
X203137048Y-69477784D01*
X203068611Y-69459706D01*
X202996453Y-69445555D01*
X202920471Y-69435384D01*
X202840561Y-69429243D01*
X202756620Y-69427184D01*
X201521899Y-69427184D01*
X201444169Y-69428433D01*
X201369695Y-69432214D01*
X201298424Y-69438579D01*
X201230306Y-69447580D01*
X201165288Y-69459267D01*
X201103320Y-69473694D01*
X201044348Y-69490911D01*
X201015971Y-69500582D01*
X200988323Y-69510970D01*
X200961398Y-69522081D01*
X200935191Y-69533923D01*
X200909694Y-69546501D01*
X200884901Y-69559821D01*
X200860806Y-69573891D01*
X200837402Y-69588717D01*
X200814683Y-69604305D01*
X200792642Y-69620662D01*
X200771273Y-69637794D01*
X200750569Y-69655707D01*
X200730524Y-69674408D01*
X200711132Y-69693904D01*
X200692385Y-69714201D01*
X200674278Y-69735306D01*
X200656804Y-69757224D01*
X200639957Y-69779963D01*
X200608115Y-69827935D01*
X200578702Y-69879319D01*
X200551667Y-69934216D01*
X200526957Y-69992731D01*
X200504521Y-70054966D01*
X200484307Y-70121026D01*
X200466263Y-70191013D01*
X200450339Y-70265031D01*
X200436481Y-70343183D01*
X200424639Y-70425572D01*
X200414760Y-70512303D01*
X200406794Y-70603477D01*
X200400687Y-70699199D01*
X200396390Y-70799572D01*
X200393014Y-71014683D01*
X200393014Y-72143569D01*
X200390938Y-72312646D01*
X200384677Y-72475884D01*
X200374177Y-72633230D01*
X200359389Y-72784634D01*
X200340260Y-72930043D01*
X200316739Y-73069406D01*
X200288773Y-73202672D01*
X200256311Y-73329787D01*
X200219302Y-73450702D01*
X200177693Y-73565363D01*
X200131434Y-73673720D01*
X200080472Y-73775721D01*
X200024756Y-73871314D01*
X199964234Y-73960447D01*
X199898855Y-74043069D01*
X199828566Y-74119129D01*
X199759543Y-74189813D01*
X199684837Y-74256311D01*
X199604549Y-74318572D01*
X199518783Y-74376544D01*
X199427643Y-74430176D01*
X199331232Y-74479415D01*
X199229654Y-74524209D01*
X199123011Y-74564508D01*
X199011408Y-74600260D01*
X198894946Y-74631413D01*
X198773731Y-74657914D01*
X198647865Y-74679713D01*
X198517451Y-74696758D01*
X198382594Y-74708997D01*
X198243395Y-74716378D01*
X198099959Y-74718850D01*
X197323846Y-74718850D01*
X197225868Y-74717601D01*
X197130370Y-74713820D01*
X197037353Y-74707455D01*
X196946816Y-74698455D01*
X196858759Y-74686767D01*
X196773182Y-74672341D01*
X196690086Y-74655124D01*
X196609471Y-74635064D01*
X196531336Y-74612111D01*
X196455681Y-74586213D01*
X196382508Y-74557317D01*
X196311814Y-74525372D01*
X196243602Y-74490327D01*
X196177870Y-74452130D01*
X196114618Y-74410729D01*
X196053848Y-74366072D01*
X195995152Y-74318116D01*
X195938161Y-74266853D01*
X195882928Y-74212283D01*
X195829503Y-74154406D01*
X195777938Y-74093221D01*
X195728285Y-74028729D01*
X195680596Y-73960929D01*
X195634923Y-73889822D01*
X195591316Y-73815408D01*
X195549829Y-73737686D01*
X195510511Y-73656657D01*
X195473416Y-73572321D01*
X195438595Y-73484678D01*
X195406099Y-73393727D01*
X195375981Y-73299468D01*
X195348292Y-73201903D01*
X195316450Y-73093995D01*
X195287037Y-72981901D01*
X195235292Y-72744948D01*
X195192641Y-72490632D01*
X195158673Y-72218538D01*
X195132973Y-71928255D01*
X195115128Y-71619368D01*
X195104724Y-71291464D01*
X195101348Y-70944132D01*
X195104587Y-70696221D01*
X195114026Y-70429294D01*
X195129253Y-70144178D01*
X195149854Y-69841698D01*
X195205525Y-69187957D01*
X195277735Y-68474685D01*
X196371347Y-68474685D01*
X196310094Y-68884859D01*
X196258349Y-69268987D01*
X196215699Y-69627484D01*
X196181731Y-69960762D01*
X196156030Y-70269235D01*
X196138185Y-70553317D01*
X196127780Y-70813422D01*
X196124404Y-71049961D01*
X196125636Y-71218220D01*
X196129296Y-71379038D01*
X196135334Y-71532414D01*
X196143697Y-71678349D01*
X196154334Y-71816842D01*
X196167193Y-71947893D01*
X196182222Y-72071504D01*
X196199371Y-72187672D01*
X196218586Y-72296400D01*
X196239817Y-72397685D01*
X196263011Y-72491530D01*
X196288118Y-72577932D01*
X196315085Y-72656894D01*
X196343860Y-72728414D01*
X196374393Y-72792493D01*
X196406631Y-72849130D01*
X196441348Y-72906603D01*
X196479322Y-72959994D01*
X196520499Y-73009355D01*
X196564829Y-73054735D01*
X196612259Y-73096189D01*
X196662739Y-73133766D01*
X196716215Y-73167520D01*
X196772637Y-73197501D01*
X196831954Y-73223761D01*
X196894112Y-73246352D01*
X196959061Y-73265326D01*
X197026748Y-73280734D01*
X197097123Y-73292628D01*
X197170132Y-73301059D01*
X197245726Y-73306081D01*
X197323852Y-73307743D01*
X198417464Y-73307743D01*
X198482370Y-73306494D01*
X198544795Y-73302713D01*
X198604740Y-73296348D01*
X198662204Y-73287348D01*
X198690006Y-73281843D01*
X198717188Y-73275660D01*
X198743750Y-73268792D01*
X198769692Y-73261234D01*
X198795013Y-73252977D01*
X198819715Y-73244017D01*
X198843796Y-73234346D01*
X198867257Y-73223957D01*
X198890098Y-73212846D01*
X198912319Y-73201004D01*
X198933920Y-73188427D01*
X198954901Y-73175106D01*
X198975262Y-73161036D01*
X198995002Y-73146210D01*
X199014122Y-73130622D01*
X199032622Y-73114265D01*
X199050502Y-73097134D01*
X199067762Y-73079220D01*
X199084402Y-73060519D01*
X199100422Y-73041023D01*
X199115821Y-73020726D01*
X199130600Y-72999622D01*
X199144759Y-72977703D01*
X199158298Y-72954965D01*
X199183931Y-72906992D01*
X199207910Y-72855609D01*
X199230235Y-72800711D01*
X199250906Y-72742196D01*
X199269923Y-72679961D01*
X199287287Y-72613901D01*
X199302997Y-72543914D01*
X199317053Y-72469896D01*
X199329455Y-72391744D01*
X199340203Y-72309355D01*
X199349298Y-72222625D01*
X199356740Y-72131450D01*
X199366661Y-71935356D01*
X199369968Y-71720244D01*
X199369968Y-70556080D01*
X199371191Y-70432065D01*
X199374791Y-70311409D01*
X199380665Y-70194164D01*
X199388710Y-70080381D01*
X199398821Y-69970112D01*
X199410896Y-69863409D01*
X199424832Y-69760323D01*
X199440524Y-69660906D01*
X199457870Y-69565210D01*
X199476767Y-69473286D01*
X199497110Y-69385186D01*
X199518796Y-69300963D01*
X199541723Y-69220666D01*
X199565787Y-69144350D01*
X199590884Y-69072063D01*
X199616911Y-69003860D01*
X199644601Y-68938558D01*
X199674719Y-68875013D01*
X199707215Y-68813329D01*
X199742037Y-68753608D01*
X199779132Y-68695955D01*
X199818450Y-68640471D01*
X199859938Y-68587262D01*
X199903544Y-68536429D01*
X199949218Y-68488077D01*
X199996907Y-68442309D01*
X200046560Y-68399228D01*
X200098125Y-68358938D01*
X200151549Y-68321541D01*
X200206782Y-68287141D01*
X200263772Y-68255842D01*
X200322467Y-68227747D01*
X200383635Y-68202116D01*
X200448007Y-68178138D01*
X200515479Y-68155814D01*
X200585948Y-68135144D01*
X200659312Y-68116127D01*
X200735466Y-68098764D01*
X200814307Y-68083054D01*
X200895732Y-68068998D01*
X201065919Y-68045848D01*
X201245202Y-68029311D01*
X201432753Y-68019390D01*
X201627745Y-68016083D01*
X202333301Y-68016083D01*
X202463534Y-68017728D01*
G37*
G36*
X156013590Y-115888004D02*
G01*
X155025812Y-117651899D01*
X152979703Y-117651899D01*
X151956647Y-115888004D01*
X152979703Y-114124129D01*
X155025812Y-114124129D01*
X156013590Y-115888004D01*
G37*
G36*
X130296097Y-105234126D02*
G01*
X129167210Y-107174408D01*
X126944711Y-107174408D01*
X125815822Y-105234126D01*
X126944711Y-103293850D01*
X129167210Y-103293850D01*
X130296097Y-105234126D01*
G37*
G36*
X119183602Y-103082185D02*
G01*
X118054713Y-105022462D01*
X116502491Y-105022462D01*
X116502491Y-101177187D01*
X118054713Y-101177187D01*
X119183602Y-103082185D01*
G37*
G36*
X195313029Y-89147466D02*
G01*
X196300801Y-89147466D01*
X196300801Y-91511072D01*
X203885516Y-91511072D01*
X203885516Y-89253295D01*
X203883863Y-89084003D01*
X203878910Y-88920085D01*
X203870662Y-88761542D01*
X203859127Y-88608373D01*
X203844310Y-88460578D01*
X203826218Y-88318158D01*
X203804858Y-88181112D01*
X203780235Y-88049440D01*
X203752357Y-87923143D01*
X203721230Y-87802220D01*
X203686861Y-87686671D01*
X203649255Y-87576497D01*
X203608419Y-87471697D01*
X203564360Y-87372272D01*
X203517084Y-87278221D01*
X203466597Y-87189544D01*
X203412907Y-87106242D01*
X203356019Y-87028314D01*
X203295940Y-86955760D01*
X203232677Y-86888581D01*
X203166235Y-86826776D01*
X203096622Y-86770345D01*
X203023843Y-86719289D01*
X202947906Y-86673607D01*
X202868816Y-86633299D01*
X202786581Y-86598366D01*
X202701206Y-86568807D01*
X202612698Y-86544623D01*
X202521063Y-86525812D01*
X202426309Y-86512377D01*
X202328441Y-86504315D01*
X202227466Y-86501628D01*
X197994134Y-86501628D01*
X197928807Y-86502455D01*
X197865081Y-86504935D01*
X197802905Y-86509069D01*
X197742228Y-86514857D01*
X197682998Y-86522299D01*
X197625163Y-86531394D01*
X197568672Y-86542143D01*
X197513473Y-86554545D01*
X197459513Y-86568602D01*
X197406743Y-86584311D01*
X197355109Y-86601675D01*
X197304561Y-86620692D01*
X197255046Y-86641363D01*
X197206513Y-86663688D01*
X197158911Y-86687666D01*
X197112187Y-86713298D01*
X197033019Y-86779649D01*
X196955092Y-86847241D01*
X196916981Y-86881890D01*
X196879645Y-86917314D01*
X196843239Y-86953668D01*
X196807918Y-86991107D01*
X196773838Y-87029787D01*
X196741153Y-87069862D01*
X196710018Y-87111488D01*
X196680588Y-87154819D01*
X196653019Y-87200010D01*
X196627464Y-87247217D01*
X196604081Y-87296594D01*
X196583022Y-87348297D01*
X196544988Y-87442486D01*
X196510261Y-87539568D01*
X196478842Y-87639131D01*
X196450731Y-87740761D01*
X196425926Y-87844046D01*
X196404428Y-87948570D01*
X196386237Y-88053922D01*
X196371352Y-88159688D01*
X196345448Y-88378520D01*
X196333529Y-88493931D01*
X196322849Y-88613889D01*
X196313823Y-88738808D01*
X196306864Y-88869101D01*
X196302386Y-89005183D01*
X196300801Y-89147466D01*
X195313029Y-89147466D01*
X195315716Y-88900039D01*
X195323777Y-88660468D01*
X195337213Y-88428751D01*
X195356023Y-88204889D01*
X195380208Y-87988882D01*
X195409767Y-87780729D01*
X195444700Y-87580432D01*
X195485007Y-87387989D01*
X195530689Y-87203401D01*
X195581746Y-87026667D01*
X195638176Y-86857789D01*
X195699981Y-86696765D01*
X195767160Y-86543596D01*
X195839714Y-86398282D01*
X195917642Y-86260822D01*
X196000944Y-86131218D01*
X196089621Y-86009468D01*
X196183672Y-85895573D01*
X196283097Y-85789533D01*
X196387897Y-85691347D01*
X196498071Y-85601017D01*
X196613619Y-85518541D01*
X196734542Y-85443920D01*
X196860839Y-85377154D01*
X196992510Y-85318243D01*
X197129556Y-85267186D01*
X197271976Y-85223985D01*
X197419770Y-85188638D01*
X197572939Y-85161146D01*
X197731482Y-85141509D01*
X197895399Y-85129727D01*
X198064691Y-85125799D01*
X202298022Y-85125799D01*
X202457598Y-85129727D01*
X202612206Y-85141509D01*
X202761840Y-85161146D01*
X202906494Y-85188638D01*
X203046161Y-85223984D01*
X203180835Y-85267186D01*
X203310509Y-85318242D01*
X203435177Y-85377153D01*
X203554833Y-85443919D01*
X203669470Y-85518540D01*
X203779081Y-85601016D01*
X203883660Y-85691346D01*
X203983200Y-85789531D01*
X204077696Y-85895571D01*
X204167140Y-86009466D01*
X204251527Y-86131216D01*
X204330849Y-86260820D01*
X204405101Y-86398280D01*
X204538366Y-86696763D01*
X204651270Y-87026665D01*
X204743763Y-87387987D01*
X204815791Y-87780727D01*
X204867304Y-88204888D01*
X204898250Y-88660467D01*
X204908577Y-89147466D01*
X204873298Y-89147466D01*
X204873298Y-92957462D01*
X195313029Y-92957462D01*
X195313029Y-91511072D01*
X195313029Y-89147466D01*
G37*
G36*
X189174694Y-126506623D02*
G01*
X188257468Y-128129395D01*
X186423026Y-128129395D01*
X185505805Y-126506623D01*
X186423026Y-124919119D01*
X188257468Y-124919119D01*
X189174694Y-126506623D01*
G37*
G36*
X155872479Y-103011628D02*
G01*
X154955258Y-104599127D01*
X153085536Y-104599127D01*
X152168312Y-103011628D01*
X153085536Y-101424130D01*
X154955258Y-101424130D01*
X155872479Y-103011628D01*
G37*
G36*
X119007213Y-90241078D02*
G01*
X117984157Y-92004968D01*
X116502491Y-92004968D01*
X116502491Y-88477188D01*
X117984157Y-88477188D01*
X119007213Y-90241078D01*
G37*
G36*
X152485814Y-122343843D02*
G01*
X151392205Y-124284120D01*
X149134426Y-124284120D01*
X148040816Y-122343843D01*
X149134426Y-120403566D01*
X151392205Y-120403566D01*
X152485814Y-122343843D01*
G37*
G36*
X163421923Y-120156618D02*
G01*
X162398867Y-121920503D01*
X160388034Y-121920503D01*
X159364978Y-120156618D01*
X160388034Y-118392733D01*
X162398867Y-118392733D01*
X163421923Y-120156618D01*
G37*
G36*
X129096654Y-49354143D02*
G01*
X128673320Y-50130256D01*
X127791377Y-50130256D01*
X127368043Y-49354143D01*
X127791377Y-48613309D01*
X128673320Y-48613309D01*
X129096654Y-49354143D01*
G37*
G36*
X185999692Y-150178004D02*
G01*
X184764971Y-152259383D01*
X182366081Y-152259383D01*
X181131361Y-150178004D01*
X182366081Y-148061335D01*
X184764971Y-148061335D01*
X185999692Y-150178004D01*
G37*
G36*
X118336935Y-60149141D02*
G01*
X117701935Y-61207475D01*
X116502491Y-61207475D01*
X116502491Y-59055529D01*
X117701935Y-59055529D01*
X118336935Y-60149141D01*
G37*
G36*
X144936370Y-105198848D02*
G01*
X143913314Y-106962738D01*
X141867205Y-106962738D01*
X140844150Y-105198848D01*
X141867205Y-103434958D01*
X143913314Y-103434958D01*
X144936370Y-105198848D01*
G37*
G36*
X161164142Y-102941072D02*
G01*
X161516920Y-103117463D01*
X161869703Y-102941072D01*
X162751645Y-102411907D01*
X163104423Y-102976350D01*
X162257754Y-104387457D01*
X160634977Y-104387457D01*
X159788308Y-102976350D01*
X160141086Y-102341346D01*
X161164142Y-102941072D01*
G37*
G36*
X125392489Y-42933590D02*
G01*
X124969155Y-43709701D01*
X124087211Y-43709701D01*
X123663878Y-42933590D01*
X124087211Y-42192757D01*
X124969155Y-42192757D01*
X125392489Y-42933590D01*
G37*
G36*
X199758019Y-129505228D02*
G01*
X198099969Y-129505228D01*
X198040446Y-129506038D01*
X197980974Y-129508397D01*
X197921606Y-129512204D01*
X197862393Y-129517354D01*
X197744639Y-129531271D01*
X197628125Y-129549322D01*
X197513265Y-129570682D01*
X197400473Y-129594522D01*
X197290161Y-129620018D01*
X197182743Y-129646342D01*
X196618301Y-128693848D01*
X200216632Y-128693848D01*
X199758019Y-129505228D01*
G37*
G36*
X134141375Y-115958570D02*
G01*
X132941930Y-118075239D01*
X130507765Y-118075239D01*
X129308320Y-115958570D01*
X130507765Y-113877180D01*
X132941930Y-113877180D01*
X134141375Y-115958570D01*
G37*
G36*
X199193577Y-101918016D02*
G01*
X197429687Y-103152737D01*
X197253300Y-102870515D01*
X197888299Y-101776908D01*
X199158298Y-101776908D01*
X199193577Y-101918016D01*
G37*
G36*
X125886377Y-68721639D02*
G01*
X125180822Y-69991637D01*
X123734433Y-69991637D01*
X122993600Y-68721639D01*
X123734433Y-67486915D01*
X125180822Y-67486915D01*
X125886377Y-68721639D01*
G37*
G36*
X126591932Y-107386068D02*
G01*
X125463044Y-109326344D01*
X123240545Y-109326344D01*
X122111656Y-107386068D01*
X123240545Y-105445791D01*
X125463044Y-105445791D01*
X126591932Y-107386068D01*
G37*
G36*
X188680803Y-96485242D02*
G01*
X188045803Y-97543577D01*
X186775804Y-97543577D01*
X186140800Y-96485242D01*
X186775804Y-95391630D01*
X188045803Y-95391630D01*
X188680803Y-96485242D01*
G37*
G36*
X199052468Y-76694415D02*
G01*
X199039653Y-76714258D01*
X199027663Y-76734101D01*
X199016501Y-76753945D01*
X199006166Y-76773788D01*
X198996657Y-76793632D01*
X198987975Y-76813475D01*
X198980120Y-76833319D01*
X198973092Y-76853163D01*
X198966891Y-76873007D01*
X198961517Y-76892851D01*
X198956969Y-76912695D01*
X198953248Y-76932539D01*
X198950354Y-76952383D01*
X198948287Y-76972227D01*
X198947047Y-76992071D01*
X198946634Y-77011915D01*
X198946634Y-77717471D01*
X198276356Y-77717471D01*
X197923578Y-77117750D01*
X198276356Y-76518028D01*
X198946634Y-76518028D01*
X199052468Y-76694415D01*
G37*
G36*
X128743877Y-27905261D02*
G01*
X128532210Y-28328594D01*
X128038321Y-28328594D01*
X127791377Y-27905261D01*
X128038321Y-27481928D01*
X128532210Y-27481928D01*
X128743877Y-27905261D01*
G37*
G36*
X163774701Y-133068287D02*
G01*
X162575259Y-135149667D01*
X160141086Y-135149667D01*
X158941646Y-133068287D01*
X160141086Y-130951619D01*
X162575259Y-130951619D01*
X163774701Y-133068287D01*
G37*
G36*
X122711379Y-92357741D02*
G01*
X121688323Y-94121631D01*
X119642212Y-94121631D01*
X118654435Y-92357741D01*
X119642212Y-90593856D01*
X121688323Y-90593856D01*
X122711379Y-92357741D01*
G37*
G36*
X121511934Y-32209149D02*
G01*
X121194434Y-32808870D01*
X120524156Y-32808870D01*
X120171379Y-32209149D01*
X120524156Y-31644704D01*
X121194434Y-31644704D01*
X121511934Y-32209149D01*
G37*
G36*
X148464148Y-98743014D02*
G01*
X147546927Y-100330517D01*
X145712483Y-100330517D01*
X144759981Y-98743014D01*
X145712483Y-97155515D01*
X147546927Y-97155515D01*
X148464148Y-98743014D01*
G37*
G36*
X163245532Y-111548842D02*
G01*
X162328311Y-113136346D01*
X160493864Y-113136346D01*
X159576643Y-111548842D01*
X160493864Y-109961349D01*
X162328311Y-109961349D01*
X163245532Y-111548842D01*
G37*
G36*
X206496080Y-147779109D02*
G01*
X204661639Y-147779109D01*
X204273577Y-147108831D01*
X205084968Y-146826615D01*
X205104603Y-146819592D01*
X205123812Y-146811768D01*
X205142582Y-146803169D01*
X205160899Y-146793820D01*
X205196125Y-146772979D01*
X205229387Y-146749449D01*
X205260582Y-146723439D01*
X205289607Y-146695156D01*
X205316357Y-146664805D01*
X205340731Y-146632593D01*
X205362624Y-146598728D01*
X205381933Y-146563415D01*
X205398555Y-146526862D01*
X205412386Y-146489276D01*
X205423324Y-146450863D01*
X205431265Y-146411829D01*
X205436105Y-146372382D01*
X205437741Y-146332729D01*
X205437741Y-143863277D01*
X206496080Y-143863277D01*
X206496080Y-147779109D01*
G37*
G36*
X148640537Y-107315516D02*
G01*
X147617481Y-109079401D01*
X145571372Y-109079401D01*
X144548316Y-107315516D01*
X145571372Y-105551626D01*
X147617481Y-105551626D01*
X148640537Y-107315516D01*
G37*
G36*
X158941646Y-101635790D02*
G01*
X158553587Y-102270794D01*
X156930811Y-102270794D01*
X156084144Y-100824409D01*
X156472203Y-100224682D01*
X158941646Y-101635790D01*
G37*
G36*
X156366368Y-133068287D02*
G01*
X155166923Y-135149667D01*
X152732758Y-135149667D01*
X151533315Y-133068287D01*
X152732758Y-130951619D01*
X155166923Y-130951619D01*
X156366368Y-133068287D01*
G37*
G36*
X198869462Y-72393705D02*
G01*
X198862848Y-72429733D01*
X198856233Y-72463383D01*
X198849619Y-72494708D01*
X198843005Y-72523758D01*
X198836390Y-72550587D01*
X198829776Y-72575245D01*
X198823161Y-72597785D01*
X198816547Y-72618257D01*
X198809932Y-72636714D01*
X198803318Y-72653207D01*
X198796703Y-72667788D01*
X198790088Y-72680509D01*
X198783473Y-72691421D01*
X198776858Y-72700577D01*
X198770242Y-72708027D01*
X198741028Y-72739449D01*
X198731787Y-72748208D01*
X198721254Y-72757019D01*
X198709170Y-72765726D01*
X198695278Y-72774175D01*
X198679319Y-72782211D01*
X198661034Y-72789678D01*
X198640166Y-72796422D01*
X198616455Y-72802287D01*
X198589643Y-72807118D01*
X198559473Y-72810761D01*
X198525685Y-72813061D01*
X198488021Y-72813862D01*
X198170521Y-72813862D01*
X198135243Y-72778583D01*
X198417464Y-72355249D01*
X198876077Y-72355249D01*
X198869462Y-72393705D01*
G37*
G36*
X129096654Y-45085534D02*
G01*
X128673320Y-45826367D01*
X127791377Y-45826367D01*
X127368043Y-45085534D01*
X127791377Y-44344700D01*
X128673320Y-44344700D01*
X129096654Y-45085534D01*
G37*
G36*
X200534132Y-154023278D02*
G01*
X196900522Y-156104658D01*
X195948023Y-154446618D01*
X197147470Y-152329950D01*
X199581633Y-152329950D01*
X200534132Y-154023278D01*
G37*
G36*
X119007213Y-94509682D02*
G01*
X117984157Y-96273573D01*
X116502491Y-96273573D01*
X116502491Y-92745797D01*
X117984157Y-92745797D01*
X119007213Y-94509682D01*
G37*
G36*
X193372742Y-154446618D02*
G01*
X192173299Y-156527998D01*
X191503027Y-156527998D01*
X191503027Y-155822442D01*
X191501285Y-155753517D01*
X191496119Y-155685697D01*
X191487621Y-155619053D01*
X191475879Y-155553655D01*
X191460986Y-155489575D01*
X191443030Y-155426884D01*
X191422103Y-155365653D01*
X191398295Y-155305953D01*
X191371697Y-155247855D01*
X191342399Y-155191429D01*
X191310491Y-155136748D01*
X191276063Y-155083883D01*
X191239207Y-155032903D01*
X191200013Y-154983880D01*
X191158570Y-154936886D01*
X191114970Y-154891992D01*
X191069304Y-154849267D01*
X191021660Y-154808785D01*
X190972131Y-154770614D01*
X190920805Y-154734828D01*
X190867775Y-154701496D01*
X190813129Y-154670690D01*
X190756959Y-154642480D01*
X190699356Y-154616939D01*
X190640408Y-154594136D01*
X190580208Y-154574143D01*
X190518845Y-154557031D01*
X190456409Y-154542872D01*
X190392992Y-154531735D01*
X190328684Y-154523693D01*
X190263575Y-154518816D01*
X190197755Y-154517175D01*
X188574978Y-154517175D01*
X188539694Y-154446618D01*
X189739137Y-152365228D01*
X192173299Y-152365228D01*
X193372742Y-154446618D01*
G37*
G36*
X185823305Y-137301613D02*
G01*
X184694414Y-139241890D01*
X182471916Y-139241890D01*
X181343026Y-137301613D01*
X182471916Y-135361336D01*
X184694414Y-135361336D01*
X185823305Y-137301613D01*
G37*
G36*
X130296097Y-109502736D02*
G01*
X129167210Y-111443008D01*
X126944711Y-111443008D01*
X125815822Y-109502736D01*
X126944711Y-107562459D01*
X129167210Y-107562459D01*
X130296097Y-109502736D01*
G37*
G36*
X167126085Y-118004672D02*
G01*
X166103034Y-119768567D01*
X164092196Y-119768567D01*
X163069145Y-118004672D01*
X164092196Y-116240787D01*
X166103034Y-116240787D01*
X167126085Y-118004672D01*
G37*
G36*
X141549706Y-124495789D02*
G01*
X140350261Y-126612458D01*
X137916096Y-126612458D01*
X136716651Y-124495789D01*
X137916096Y-122414400D01*
X140350261Y-122414400D01*
X141549706Y-124495789D01*
G37*
G36*
X184976641Y-94333296D02*
G01*
X184341636Y-95426908D01*
X183071638Y-95426908D01*
X182436638Y-94333296D01*
X183071638Y-93239689D01*
X184341636Y-93239689D01*
X184976641Y-94333296D01*
G37*
G36*
X177568307Y-94333296D02*
G01*
X176933308Y-95426908D01*
X175663304Y-95426908D01*
X175486918Y-95074130D01*
X177356638Y-93980518D01*
X177568307Y-94333296D01*
G37*
G36*
X144759981Y-100859682D02*
G01*
X143842760Y-102482464D01*
X142008319Y-102482464D01*
X141091093Y-100859682D01*
X142008319Y-99272183D01*
X143842760Y-99272183D01*
X144759981Y-100859682D01*
G37*
G36*
X129273043Y-53693309D02*
G01*
X128743877Y-54610530D01*
X127685543Y-54610530D01*
X127121099Y-53693309D01*
X127685543Y-52740810D01*
X128743877Y-52740810D01*
X129273043Y-53693309D01*
G37*
G36*
X137704428Y-113771346D02*
G01*
X136575541Y-115711622D01*
X134353041Y-115711622D01*
X133224153Y-113771346D01*
X134353041Y-111866347D01*
X136575541Y-111866347D01*
X137704428Y-113771346D01*
G37*
G36*
X132306931Y-25718039D02*
G01*
X132165820Y-25964984D01*
X131848320Y-25964984D01*
X131707208Y-25718039D01*
X131848320Y-25471095D01*
X132165820Y-25471095D01*
X132306931Y-25718039D01*
G37*
G36*
X178062194Y-115852735D02*
G01*
X177144973Y-117440239D01*
X175310526Y-117440239D01*
X174393310Y-115852735D01*
X175310526Y-114229964D01*
X177144973Y-114229964D01*
X178062194Y-115852735D01*
G37*
G36*
X199934406Y-136313841D02*
G01*
X198099964Y-136313841D01*
X198070813Y-136313533D01*
X198042870Y-136312618D01*
X198016103Y-136311108D01*
X197990479Y-136309018D01*
X197965966Y-136306358D01*
X197942532Y-136303144D01*
X197920144Y-136299386D01*
X197898771Y-136295099D01*
X197878379Y-136290295D01*
X197858937Y-136284988D01*
X197840412Y-136279189D01*
X197822772Y-136272912D01*
X197805984Y-136266171D01*
X197790018Y-136258977D01*
X197774839Y-136251344D01*
X197760416Y-136243284D01*
X197746716Y-136234811D01*
X197733708Y-136225938D01*
X197721358Y-136216677D01*
X197709635Y-136207041D01*
X197698506Y-136197044D01*
X197687940Y-136186698D01*
X197677903Y-136176015D01*
X197668363Y-136165010D01*
X197659289Y-136153695D01*
X197650647Y-136142083D01*
X197634533Y-136118019D01*
X197619763Y-136092921D01*
X197606078Y-136066893D01*
X197592857Y-136046213D01*
X197579688Y-136023828D01*
X197566623Y-135999686D01*
X197553712Y-135973736D01*
X197541008Y-135945925D01*
X197528562Y-135916202D01*
X197516427Y-135884516D01*
X197504653Y-135850814D01*
X197493293Y-135815045D01*
X197482397Y-135777158D01*
X197472019Y-135737100D01*
X197462209Y-135694821D01*
X197453019Y-135650268D01*
X197444501Y-135603389D01*
X197436706Y-135554134D01*
X197429688Y-135502460D01*
X199475793Y-135502460D01*
X199934406Y-136313841D01*
G37*
G36*
X182119138Y-139418281D02*
G01*
X180990253Y-141358558D01*
X178767750Y-141358558D01*
X177638864Y-139418281D01*
X178767750Y-137513283D01*
X180990253Y-137513283D01*
X182119138Y-139418281D01*
G37*
G36*
X122217490Y-70873580D02*
G01*
X121476656Y-72108301D01*
X120030268Y-72108301D01*
X119289435Y-70873580D01*
X120030268Y-69603581D01*
X121476656Y-69603581D01*
X122217490Y-70873580D01*
G37*
G36*
X129308320Y-62018861D02*
G01*
X129308320Y-62512750D01*
X128814432Y-63359417D01*
X127544432Y-63359417D01*
X126909432Y-62265807D01*
X127544432Y-61172194D01*
X128814432Y-61172194D01*
X129308320Y-62018861D01*
G37*
G36*
X141232206Y-107315516D02*
G01*
X140209150Y-109079401D01*
X138163041Y-109079401D01*
X137139985Y-107315516D01*
X138163041Y-105551626D01*
X140209150Y-105551626D01*
X141232206Y-107315516D01*
G37*
G36*
X126415544Y-98778297D02*
G01*
X125392489Y-100542182D01*
X123346378Y-100542182D01*
X122358601Y-98778297D01*
X123346378Y-97014407D01*
X125392489Y-97014407D01*
X126415544Y-98778297D01*
G37*
G36*
X200287189Y-141217455D02*
G01*
X197218022Y-140088559D01*
X197394413Y-139771064D01*
X199440525Y-139771064D01*
X200287189Y-141217455D01*
G37*
G36*
X125745266Y-64417751D02*
G01*
X125110266Y-65511361D01*
X123840266Y-65511361D01*
X123205267Y-64417751D01*
X123840266Y-63324141D01*
X125110266Y-63324141D01*
X125745266Y-64417751D01*
G37*
G36*
X195221223Y-137665402D02*
G01*
X195236751Y-137711582D01*
X195253623Y-137757556D01*
X195271683Y-137803221D01*
X195290777Y-137848471D01*
X195310749Y-137893206D01*
X195352710Y-137980710D01*
X195396324Y-138064908D01*
X195440352Y-138144971D01*
X195483553Y-138220072D01*
X195524688Y-138289385D01*
X195572230Y-138367530D01*
X195622253Y-138443246D01*
X195674756Y-138516584D01*
X195729740Y-138587597D01*
X195787204Y-138656336D01*
X195847148Y-138722853D01*
X195909573Y-138787200D01*
X195974479Y-138849427D01*
X196041865Y-138909588D01*
X196111732Y-138967733D01*
X196184079Y-139023913D01*
X196258907Y-139078182D01*
X196336215Y-139130590D01*
X196416003Y-139181190D01*
X196498273Y-139230032D01*
X196583022Y-139277168D01*
X196724130Y-139347725D01*
X196759414Y-139383003D01*
X196512466Y-139806343D01*
X195559972Y-139453560D01*
X195556562Y-139450355D01*
X195552951Y-139447350D01*
X195545156Y-139441915D01*
X195536637Y-139437204D01*
X195527447Y-139433164D01*
X195517637Y-139429745D01*
X195507259Y-139426894D01*
X195496363Y-139424560D01*
X195485003Y-139422691D01*
X195473230Y-139421235D01*
X195461095Y-139420142D01*
X195435946Y-139418832D01*
X195409970Y-139418350D01*
X195383580Y-139418281D01*
X195363737Y-139418695D01*
X195343894Y-139419935D01*
X195324050Y-139422001D01*
X195304207Y-139424895D01*
X195284363Y-139428615D01*
X195264520Y-139433162D01*
X195244676Y-139438535D01*
X195224832Y-139444736D01*
X195204988Y-139451764D01*
X195185144Y-139459619D01*
X195165300Y-139468300D01*
X195145456Y-139477809D01*
X195125612Y-139488145D01*
X195105768Y-139499308D01*
X195085924Y-139511299D01*
X195066080Y-139524116D01*
X195053058Y-139531038D01*
X195040448Y-139538560D01*
X195016470Y-139555329D01*
X194994146Y-139574269D01*
X194973476Y-139595224D01*
X194954459Y-139618039D01*
X194937096Y-139642560D01*
X194921386Y-139668631D01*
X194907330Y-139696097D01*
X194894928Y-139724803D01*
X194884180Y-139754594D01*
X194875085Y-139785315D01*
X194867644Y-139816812D01*
X194861857Y-139848928D01*
X194857723Y-139881509D01*
X194855242Y-139914400D01*
X194854416Y-139947446D01*
X194854416Y-141146888D01*
X193725525Y-141146888D01*
X192702474Y-139383003D01*
X193725525Y-137619118D01*
X195207194Y-137619118D01*
X195221223Y-137665402D01*
G37*
G36*
X152485814Y-118075239D02*
G01*
X151392205Y-119980227D01*
X149134426Y-119980227D01*
X148040816Y-118075239D01*
X149134426Y-116134952D01*
X151392205Y-116134952D01*
X152485814Y-118075239D01*
G37*
G36*
X174040532Y-96520516D02*
G01*
X173299698Y-97755236D01*
X171853307Y-97755236D01*
X171571086Y-97296633D01*
X173758306Y-96061908D01*
X174040532Y-96520516D01*
G37*
G36*
X195066075Y-53481642D02*
G01*
X194995524Y-53552196D01*
X194924967Y-53552196D01*
X194854416Y-53481642D01*
X194924967Y-53375807D01*
X194995524Y-53375807D01*
X195066075Y-53481642D01*
G37*
G36*
X152168312Y-100859682D02*
G01*
X151251091Y-102482464D01*
X149381369Y-102482464D01*
X148464148Y-100859682D01*
X149381369Y-99272183D01*
X151251091Y-99272183D01*
X152168312Y-100859682D01*
G37*
G36*
X134141375Y-120227175D02*
G01*
X132941930Y-122343843D01*
X130507765Y-122343843D01*
X129308320Y-120227175D01*
X130507765Y-118145795D01*
X132941930Y-118145795D01*
X134141375Y-120227175D01*
G37*
G36*
X193231634Y-145838842D02*
G01*
X192102748Y-147779119D01*
X189880245Y-147779119D01*
X188751359Y-145838842D01*
X189880245Y-143898566D01*
X192102748Y-143898566D01*
X193231634Y-145838842D01*
G37*
G36*
X192384969Y-102870515D02*
G01*
X191749970Y-103964128D01*
X190479966Y-103964128D01*
X189844967Y-102870515D01*
X190479966Y-101776908D01*
X191749970Y-101776908D01*
X192384969Y-102870515D01*
G37*
G36*
X117984157Y-42933590D02*
G01*
X117560824Y-43709701D01*
X116678880Y-43709701D01*
X116502491Y-43392200D01*
X116502491Y-42510256D01*
X116678880Y-42192757D01*
X117560824Y-42192757D01*
X117984157Y-42933590D01*
G37*
G36*
X206496080Y-89394409D02*
G01*
X206496080Y-90558578D01*
X206425514Y-90734964D01*
X205543576Y-90734964D01*
X205437741Y-90558578D01*
X205437741Y-89394409D01*
X205543576Y-89218017D01*
X206425514Y-89218017D01*
X206496080Y-89394409D01*
G37*
G36*
X156189979Y-120191897D02*
G01*
X155096369Y-122132173D01*
X152838593Y-122132173D01*
X151744980Y-120191897D01*
X152838593Y-118251620D01*
X155096369Y-118251620D01*
X156189979Y-120191897D01*
G37*
G36*
X177885807Y-111513564D02*
G01*
X177074416Y-112959955D01*
X175451644Y-112959955D01*
X174604975Y-111513564D01*
X175451644Y-110102457D01*
X177074416Y-110102457D01*
X177885807Y-111513564D01*
G37*
G36*
X194819132Y-79834134D02*
G01*
X194536911Y-79834134D01*
X194219411Y-79234408D01*
X194536911Y-78669970D01*
X194819132Y-78669970D01*
X194819132Y-79834134D01*
G37*
G36*
X195127885Y-108104788D02*
G01*
X195154824Y-108117534D01*
X195182591Y-108129454D01*
X195196914Y-108134975D01*
X195211599Y-108140135D01*
X195226697Y-108144881D01*
X195242260Y-108149162D01*
X195258340Y-108152926D01*
X195274989Y-108156121D01*
X195292258Y-108158697D01*
X195310198Y-108160601D01*
X195328862Y-108161781D01*
X195348302Y-108162186D01*
X195559972Y-108162186D01*
X196265523Y-109361628D01*
X196053858Y-109714406D01*
X196014583Y-109741674D01*
X195976135Y-109770493D01*
X195938514Y-109800758D01*
X195901720Y-109832367D01*
X195865753Y-109865216D01*
X195830612Y-109899202D01*
X195796299Y-109934221D01*
X195762812Y-109970170D01*
X195730153Y-110006947D01*
X195698320Y-110044446D01*
X195667314Y-110082566D01*
X195637135Y-110121202D01*
X195607783Y-110160252D01*
X195579258Y-110199612D01*
X195524688Y-110278849D01*
X195348302Y-110596348D01*
X195348302Y-110631632D01*
X194078303Y-110631632D01*
X193337468Y-109361633D01*
X194078303Y-108091629D01*
X195101359Y-108091629D01*
X195127885Y-108104788D01*
G37*
G36*
X174887196Y-143757442D02*
G01*
X173652476Y-145838842D01*
X171253586Y-145838842D01*
X170054144Y-143757442D01*
X171253586Y-141640774D01*
X173652476Y-141640774D01*
X174887196Y-143757442D01*
G37*
G36*
X170512757Y-102976350D02*
G01*
X169666083Y-104387457D01*
X168043311Y-104387457D01*
X167196641Y-102976350D01*
X168043311Y-101529965D01*
X169666083Y-101529965D01*
X170512757Y-102976350D01*
G37*
G36*
X185999692Y-145874111D02*
G01*
X184764971Y-147990779D01*
X182366081Y-147990779D01*
X181131361Y-145874111D01*
X182366081Y-143792721D01*
X184764971Y-143792721D01*
X185999692Y-145874111D01*
G37*
G36*
X136328597Y-40781647D02*
G01*
X136011096Y-41346090D01*
X135305541Y-41346090D01*
X134988042Y-40781647D01*
X135305541Y-40181925D01*
X136011096Y-40181925D01*
X136328597Y-40781647D01*
G37*
G36*
X185823305Y-141570228D02*
G01*
X184694414Y-143510504D01*
X182471916Y-143510504D01*
X181343026Y-141570228D01*
X182471916Y-139629951D01*
X184694414Y-139629951D01*
X185823305Y-141570228D01*
G37*
G36*
X141055817Y-98743014D02*
G01*
X140138596Y-100330517D01*
X138304152Y-100330517D01*
X137386930Y-98743014D01*
X138304152Y-97155515D01*
X140138596Y-97155515D01*
X141055817Y-98743014D01*
G37*
G36*
X137845539Y-118110517D02*
G01*
X136646095Y-120191897D01*
X134211930Y-120191897D01*
X133012485Y-118110517D01*
X134211930Y-115993849D01*
X136646095Y-115993849D01*
X137845539Y-118110517D01*
G37*
G36*
X203426908Y-142381609D02*
G01*
X202121631Y-141887722D01*
X203144692Y-141887722D01*
X203426908Y-142381609D01*
G37*
G36*
X123028878Y-109538014D02*
G01*
X121829434Y-111654677D01*
X119430546Y-111654677D01*
X118195824Y-109538014D01*
X119430546Y-107456624D01*
X121829434Y-107456624D01*
X123028878Y-109538014D01*
G37*
G36*
X202968300Y-83503022D02*
G01*
X202650795Y-84102743D01*
X201945239Y-84102743D01*
X201627745Y-83503022D01*
X201663018Y-83467744D01*
X202933022Y-83467744D01*
X202968300Y-83503022D01*
G37*
G36*
X141408595Y-111654677D02*
G01*
X140279707Y-113594954D01*
X138057206Y-113594954D01*
X136928319Y-111654677D01*
X138057206Y-109714406D01*
X140279707Y-109714406D01*
X141408595Y-111654677D01*
G37*
G36*
X129308320Y-78634686D02*
G01*
X129308320Y-80292742D01*
X128955543Y-80892468D01*
X127297488Y-80892468D01*
X126486099Y-79446077D01*
X127297488Y-78034970D01*
X128955543Y-78034970D01*
X129308320Y-78634686D01*
G37*
G36*
X125568877Y-51541365D02*
G01*
X125039711Y-52458586D01*
X123981378Y-52458586D01*
X123452212Y-51541365D01*
X123981378Y-50624145D01*
X125039711Y-50624145D01*
X125568877Y-51541365D01*
G37*
G36*
X198840799Y-64029694D02*
G01*
X198452747Y-64029694D01*
X198488021Y-63959138D01*
X198770242Y-63959138D01*
X198840799Y-64029694D01*
G37*
G36*
X163598310Y-124460511D02*
G01*
X162504697Y-126400788D01*
X160246921Y-126400788D01*
X159153311Y-124460511D01*
X160246921Y-122520235D01*
X162504697Y-122520235D01*
X163598310Y-124460511D01*
G37*
G36*
X143560536Y-36442481D02*
G01*
X143313593Y-36865814D01*
X142854983Y-36865814D01*
X142608040Y-36442481D01*
X142854983Y-36019147D01*
X143313593Y-36019147D01*
X143560536Y-36442481D01*
G37*
G36*
X174216919Y-105093013D02*
G01*
X173370249Y-106539404D01*
X171747478Y-106539404D01*
X170900808Y-105093013D01*
X171747478Y-103681906D01*
X173370249Y-103681906D01*
X174216919Y-105093013D01*
G37*
G36*
X181589974Y-109396901D02*
G01*
X180778583Y-110808008D01*
X179120528Y-110808008D01*
X178309137Y-109396901D01*
X179120528Y-107950516D01*
X180778583Y-107950516D01*
X181589974Y-109396901D01*
G37*
G36*
X192878856Y-128658559D02*
G01*
X191961635Y-130246063D01*
X190127188Y-130246063D01*
X189209972Y-128658559D01*
X190127188Y-127071066D01*
X191961635Y-127071066D01*
X192878856Y-128658559D01*
G37*
G36*
X122358601Y-79446077D02*
G01*
X121547212Y-80892468D01*
X119889157Y-80892468D01*
X119077768Y-79446077D01*
X119889157Y-78034970D01*
X121547212Y-78034970D01*
X122358601Y-79446077D01*
G37*
G36*
X189668580Y-148026057D02*
G01*
X188469138Y-150107447D01*
X186070248Y-150107447D01*
X184835523Y-148026057D01*
X186070248Y-145944667D01*
X188469138Y-145944667D01*
X189668580Y-148026057D01*
G37*
G36*
X194819132Y-65969971D02*
G01*
X194819748Y-65996319D01*
X194821578Y-66022422D01*
X194824597Y-66048241D01*
X194828778Y-66073737D01*
X194834097Y-66098871D01*
X194840526Y-66123605D01*
X194848041Y-66147899D01*
X194856614Y-66171715D01*
X194866222Y-66195015D01*
X194876837Y-66217759D01*
X194888434Y-66239908D01*
X194900987Y-66261425D01*
X194914470Y-66282270D01*
X194928858Y-66302404D01*
X194944124Y-66321789D01*
X194960242Y-66340386D01*
X194977188Y-66358156D01*
X194994934Y-66375061D01*
X195013456Y-66391061D01*
X195032727Y-66406118D01*
X195052721Y-66420194D01*
X195073413Y-66433248D01*
X195094777Y-66445244D01*
X195116786Y-66456141D01*
X195139416Y-66465901D01*
X195162640Y-66474486D01*
X195186433Y-66481856D01*
X195210768Y-66487973D01*
X195235620Y-66492799D01*
X195260963Y-66496293D01*
X195286771Y-66498418D01*
X195313018Y-66499135D01*
X195171910Y-66781359D01*
X195171910Y-66781357D01*
X194678024Y-66781357D01*
X194431081Y-66358025D01*
X194678024Y-65934693D01*
X194819132Y-65934693D01*
X194819132Y-65969971D01*
G37*
G36*
X143384147Y-27869983D02*
G01*
X143243039Y-28116928D01*
X142960815Y-28116928D01*
X142819705Y-27869983D01*
X142960815Y-27623039D01*
X143243039Y-27623039D01*
X143384147Y-27869983D01*
G37*
G36*
X134000263Y-107386068D02*
G01*
X132871376Y-109326344D01*
X130648875Y-109326344D01*
X129519987Y-107386068D01*
X130648875Y-105445791D01*
X132871376Y-105445791D01*
X134000263Y-107386068D01*
G37*
G36*
X204908577Y-82938574D02*
G01*
X195348302Y-82938574D01*
X195348302Y-76518023D01*
X196336079Y-76518023D01*
X196336079Y-81492189D01*
X199475798Y-81492189D01*
X199475798Y-77011915D01*
X200463576Y-77011915D01*
X200463576Y-81492189D01*
X203885516Y-81492189D01*
X203885516Y-76376915D01*
X204908577Y-76376915D01*
X204908577Y-82938574D01*
G37*
G36*
X147088314Y-29986649D02*
G01*
X146947206Y-30233594D01*
X146664982Y-30233594D01*
X146523871Y-29986649D01*
X146664982Y-29739705D01*
X146947206Y-29739705D01*
X147088314Y-29986649D01*
G37*
G36*
X158024423Y-27834705D02*
G01*
X157989145Y-27905261D01*
X157883312Y-27905261D01*
X157848034Y-27834705D01*
X157883312Y-27728872D01*
X157989145Y-27728872D01*
X158024423Y-27834705D01*
G37*
G36*
X148816926Y-120191897D02*
G01*
X147688038Y-122132173D01*
X145430259Y-122132173D01*
X144336649Y-120191897D01*
X145430259Y-118251620D01*
X147688038Y-118251620D01*
X148816926Y-120191897D01*
G37*
G36*
X136152208Y-36442481D02*
G01*
X135905264Y-36865814D01*
X135446652Y-36865814D01*
X135199708Y-36442481D01*
X135446652Y-36019147D01*
X135905264Y-36019147D01*
X136152208Y-36442481D01*
G37*
D11*
%TO.C,J4*%
X133166666Y-155857166D02*
X133166666Y-156357166D01*
X133166666Y-156357166D02*
X133133333Y-156457166D01*
X133133333Y-156457166D02*
X133066666Y-156523833D01*
X133066666Y-156523833D02*
X132966666Y-156557166D01*
X132966666Y-156557166D02*
X132900000Y-156557166D01*
X133799999Y-156090500D02*
X133799999Y-156557166D01*
X133633333Y-155823833D02*
X133466666Y-156323833D01*
X133466666Y-156323833D02*
X133899999Y-156323833D01*
%TD*%
%LPC*%
D10*
G36*
X172644254Y-85947471D02*
G01*
X163577865Y-85947471D01*
X175148974Y-65874425D01*
X184250635Y-65874425D01*
X172644254Y-85947471D01*
G37*
G36*
X204923411Y-143414961D02*
G01*
X204923411Y-146237185D01*
X195363136Y-149694399D01*
X195363136Y-147366061D01*
X203018412Y-144790795D01*
X203018412Y-144720228D01*
X195363136Y-142144962D01*
X195363136Y-139887181D01*
X204923411Y-143414961D01*
G37*
G36*
X195257360Y-113958018D02*
G01*
X196880083Y-113958018D01*
X196884975Y-114239139D01*
X196899376Y-114500415D01*
X196910013Y-114623612D01*
X196922872Y-114741848D01*
X196937901Y-114855122D01*
X196955049Y-114963436D01*
X196974265Y-115066789D01*
X196995495Y-115165182D01*
X197018690Y-115258613D01*
X197043796Y-115347083D01*
X197070763Y-115430593D01*
X197099539Y-115509142D01*
X197130071Y-115582730D01*
X197162309Y-115651357D01*
X197179260Y-115683913D01*
X197197044Y-115715435D01*
X197215668Y-115745924D01*
X197235138Y-115775379D01*
X197255460Y-115803801D01*
X197276642Y-115831189D01*
X197298690Y-115857544D01*
X197321609Y-115882865D01*
X197345407Y-115907153D01*
X197370090Y-115930407D01*
X197395664Y-115952628D01*
X197422137Y-115973815D01*
X197449513Y-115993969D01*
X197477801Y-116013089D01*
X197507005Y-116031176D01*
X197537134Y-116048229D01*
X197568192Y-116064249D01*
X197600188Y-116079235D01*
X197633126Y-116093188D01*
X197667014Y-116106107D01*
X197701858Y-116117993D01*
X197737664Y-116128845D01*
X197774440Y-116138663D01*
X197812190Y-116147448D01*
X197850923Y-116155200D01*
X197890644Y-116161918D01*
X197931360Y-116167602D01*
X197973077Y-116172253D01*
X198015802Y-116175871D01*
X198059541Y-116178455D01*
X198150087Y-116180522D01*
X202348135Y-116180522D01*
X202394015Y-116179703D01*
X202439018Y-116177283D01*
X202483090Y-116173312D01*
X202526180Y-116167842D01*
X202568236Y-116160925D01*
X202609207Y-116152613D01*
X202649042Y-116142958D01*
X202687687Y-116132010D01*
X202725092Y-116119822D01*
X202761205Y-116106446D01*
X202795975Y-116091934D01*
X202829349Y-116076336D01*
X202861275Y-116059705D01*
X202891703Y-116042093D01*
X202920581Y-116023550D01*
X202947856Y-116004130D01*
X202980111Y-115977249D01*
X203010764Y-115949490D01*
X203039867Y-115920801D01*
X203067471Y-115891131D01*
X203093629Y-115860427D01*
X203118391Y-115828637D01*
X203141809Y-115795711D01*
X203163935Y-115761597D01*
X203184822Y-115726242D01*
X203204519Y-115689595D01*
X203223080Y-115651604D01*
X203240555Y-115612219D01*
X203256997Y-115571386D01*
X203272458Y-115529054D01*
X203286987Y-115485172D01*
X203300639Y-115439687D01*
X203325513Y-115348667D01*
X203347493Y-115260541D01*
X203366992Y-115174896D01*
X203384424Y-115091319D01*
X203400201Y-115009395D01*
X203414738Y-114928712D01*
X203441742Y-114769409D01*
X203447954Y-114728903D01*
X203453390Y-114686795D01*
X203462143Y-114597981D01*
X203468415Y-114503378D01*
X203472619Y-114403402D01*
X203475169Y-114298465D01*
X203476479Y-114188980D01*
X203477030Y-113958018D01*
X203465314Y-113829036D01*
X203456078Y-113706666D01*
X203441743Y-113481770D01*
X203434990Y-113379243D01*
X203427410Y-113283331D01*
X203418177Y-113194033D01*
X203406464Y-113111349D01*
X203379455Y-112947091D01*
X203364918Y-112862067D01*
X203349141Y-112776215D01*
X203331711Y-112690364D01*
X203312213Y-112605340D01*
X203290234Y-112521970D01*
X203278185Y-112481164D01*
X203265361Y-112441082D01*
X203251709Y-112395606D01*
X203237179Y-112351783D01*
X203221719Y-112309615D01*
X203205277Y-112269100D01*
X203187802Y-112230239D01*
X203169241Y-112193031D01*
X203149543Y-112157477D01*
X203128657Y-112123577D01*
X203106531Y-112091330D01*
X203083112Y-112060737D01*
X203058350Y-112031798D01*
X203032193Y-112004513D01*
X203004589Y-111978881D01*
X202975486Y-111954902D01*
X202944833Y-111932578D01*
X202912577Y-111911907D01*
X202879489Y-111892487D01*
X202846296Y-111873945D01*
X202812897Y-111856333D01*
X202779187Y-111839703D01*
X202745064Y-111824106D01*
X202710424Y-111809594D01*
X202675163Y-111796219D01*
X202639179Y-111784032D01*
X202602368Y-111773085D01*
X202564627Y-111763431D01*
X202525852Y-111755120D01*
X202485940Y-111748204D01*
X202444788Y-111742734D01*
X202402292Y-111738764D01*
X202358349Y-111736344D01*
X202312856Y-111735526D01*
X198114808Y-111735526D01*
X198030472Y-111737593D01*
X197949443Y-111743793D01*
X197871722Y-111754128D01*
X197797307Y-111768597D01*
X197726201Y-111787200D01*
X197658401Y-111809938D01*
X197593909Y-111836809D01*
X197532724Y-111867814D01*
X197474846Y-111902954D01*
X197420276Y-111942227D01*
X197369013Y-111985635D01*
X197321058Y-112033178D01*
X197276410Y-112084854D01*
X197235069Y-112140665D01*
X197197035Y-112200610D01*
X197162309Y-112264690D01*
X197130071Y-112333316D01*
X197099539Y-112406902D01*
X197070763Y-112485450D01*
X197043796Y-112568959D01*
X197018690Y-112657429D01*
X196995495Y-112750861D01*
X196974265Y-112849253D01*
X196955049Y-112952606D01*
X196937901Y-113060920D01*
X196922872Y-113174194D01*
X196910013Y-113292430D01*
X196899376Y-113415626D01*
X196891013Y-113543783D01*
X196884975Y-113676901D01*
X196881314Y-113814980D01*
X196880083Y-113958018D01*
X195257360Y-113958018D01*
X195257852Y-113662574D01*
X195261711Y-113358302D01*
X195265914Y-113216089D01*
X195272184Y-113080489D01*
X195280935Y-112951504D01*
X195292579Y-112829133D01*
X195307464Y-112706833D01*
X195325655Y-112578332D01*
X195347152Y-112444042D01*
X195371957Y-112304378D01*
X195400069Y-112159753D01*
X195431488Y-112010580D01*
X195466215Y-111857274D01*
X195504249Y-111700247D01*
X195558750Y-111531577D01*
X195616144Y-111369521D01*
X195676020Y-111214079D01*
X195737963Y-111065252D01*
X195801559Y-110923039D01*
X195866396Y-110787440D01*
X195932059Y-110658454D01*
X195998135Y-110536083D01*
X196038254Y-110477369D01*
X196079303Y-110420257D01*
X196121385Y-110364696D01*
X196164604Y-110310633D01*
X196209063Y-110258017D01*
X196254866Y-110206797D01*
X196302115Y-110156920D01*
X196350915Y-110108335D01*
X196401369Y-110060991D01*
X196453579Y-110014835D01*
X196507650Y-109969816D01*
X196563684Y-109925883D01*
X196621786Y-109882984D01*
X196682058Y-109841066D01*
X196744603Y-109800079D01*
X196809526Y-109759971D01*
X196876895Y-109721523D01*
X196946641Y-109685556D01*
X197018661Y-109652070D01*
X197092851Y-109621064D01*
X197169109Y-109592539D01*
X197247330Y-109566494D01*
X197327411Y-109542930D01*
X197409249Y-109521847D01*
X197492741Y-109503244D01*
X197577783Y-109487122D01*
X197664272Y-109473480D01*
X197752105Y-109462318D01*
X197841178Y-109453637D01*
X197931387Y-109447437D01*
X198022630Y-109443716D01*
X198114803Y-109442476D01*
X202312856Y-109442476D01*
X202411248Y-109444130D01*
X202507986Y-109449090D01*
X202603070Y-109457359D01*
X202696500Y-109468934D01*
X202788277Y-109483816D01*
X202878400Y-109502006D01*
X202966870Y-109523503D01*
X203053686Y-109548308D01*
X203138848Y-109576419D01*
X203222356Y-109607838D01*
X203304211Y-109642565D01*
X203384412Y-109680598D01*
X203462960Y-109721939D01*
X203539853Y-109766587D01*
X203615093Y-109814543D01*
X203688680Y-109865806D01*
X203760210Y-109919963D01*
X203829310Y-109976601D01*
X203896034Y-110035719D01*
X203960432Y-110097318D01*
X204022555Y-110161397D01*
X204082457Y-110227956D01*
X204140188Y-110296995D01*
X204195801Y-110368515D01*
X204249346Y-110442515D01*
X204300876Y-110518996D01*
X204350442Y-110597957D01*
X204398096Y-110679399D01*
X204443890Y-110763321D01*
X204487876Y-110849723D01*
X204530104Y-110938606D01*
X204570628Y-111029969D01*
X204634707Y-111196575D01*
X204694652Y-111365661D01*
X204750463Y-111537227D01*
X204802140Y-111711274D01*
X204849682Y-111887801D01*
X204893090Y-112066809D01*
X204932364Y-112248297D01*
X204967503Y-112432266D01*
X204998509Y-112618715D01*
X205025380Y-112807644D01*
X205048117Y-112999054D01*
X205066720Y-113192944D01*
X205081189Y-113389314D01*
X205091524Y-113588165D01*
X205097725Y-113789496D01*
X205099792Y-113993307D01*
X205098142Y-114178377D01*
X205093183Y-114362619D01*
X205084917Y-114545209D01*
X205073342Y-114725318D01*
X205058460Y-114902120D01*
X205040270Y-115074789D01*
X205018772Y-115242498D01*
X204993967Y-115404419D01*
X204965786Y-115576463D01*
X204933884Y-115748922D01*
X204897848Y-115922209D01*
X204857264Y-116096737D01*
X204811719Y-116272919D01*
X204760800Y-116451168D01*
X204704093Y-116631898D01*
X204641184Y-116815521D01*
X204606872Y-116913105D01*
X204570080Y-117007484D01*
X204530806Y-117098763D01*
X204489052Y-117187044D01*
X204444818Y-117272431D01*
X204398103Y-117355027D01*
X204348907Y-117434936D01*
X204297231Y-117512261D01*
X204243074Y-117587106D01*
X204186437Y-117659573D01*
X204127319Y-117729766D01*
X204065721Y-117797789D01*
X204001643Y-117863744D01*
X203935084Y-117927736D01*
X203866044Y-117989867D01*
X203794525Y-118050242D01*
X203720534Y-118107715D01*
X203644113Y-118161106D01*
X203565316Y-118210466D01*
X203484192Y-118255846D01*
X203400795Y-118297299D01*
X203315175Y-118334876D01*
X203227385Y-118368629D01*
X203137477Y-118398610D01*
X203045501Y-118424870D01*
X202951510Y-118447460D01*
X202855555Y-118466433D01*
X202757688Y-118481841D01*
X202657961Y-118493735D01*
X202556425Y-118502166D01*
X202453132Y-118507187D01*
X202348135Y-118508849D01*
X198150082Y-118508849D01*
X198064505Y-118507609D01*
X197979756Y-118503889D01*
X197895833Y-118497688D01*
X197812737Y-118489007D01*
X197730468Y-118477845D01*
X197649026Y-118464204D01*
X197568411Y-118448081D01*
X197488623Y-118429478D01*
X197409661Y-118408395D01*
X197331526Y-118384831D01*
X197254218Y-118358787D01*
X197177737Y-118330262D01*
X197102082Y-118299256D01*
X197027254Y-118265770D01*
X196953253Y-118229803D01*
X196880078Y-118191355D01*
X196808549Y-118150849D01*
X196739449Y-118108741D01*
X196672726Y-118065083D01*
X196608329Y-118019926D01*
X196546206Y-117973323D01*
X196486304Y-117925324D01*
X196428574Y-117875982D01*
X196372962Y-117825349D01*
X196319416Y-117773475D01*
X196267887Y-117720413D01*
X196218321Y-117666213D01*
X196170666Y-117610929D01*
X196124873Y-117554611D01*
X196080887Y-117497312D01*
X196038659Y-117439082D01*
X195998135Y-117379974D01*
X195932128Y-117269319D01*
X195866947Y-117149568D01*
X195803419Y-117021549D01*
X195772534Y-116954696D01*
X195742372Y-116886087D01*
X195713037Y-116815823D01*
X195684632Y-116744009D01*
X195657260Y-116670749D01*
X195631025Y-116596144D01*
X195606031Y-116520299D01*
X195582380Y-116443317D01*
X195560176Y-116365302D01*
X195539522Y-116286357D01*
X195489845Y-116127743D01*
X195446368Y-115969957D01*
X195408678Y-115813827D01*
X195376363Y-115660177D01*
X195349008Y-115509834D01*
X195326202Y-115363625D01*
X195307530Y-115222377D01*
X195292579Y-115086914D01*
X195280935Y-114954555D01*
X195272184Y-114821782D01*
X195265914Y-114688181D01*
X195261711Y-114553340D01*
X195257852Y-114278284D01*
X195257301Y-113993307D01*
X195257360Y-113958018D01*
G37*
G36*
X204923411Y-100869963D02*
G01*
X198291190Y-105491356D01*
X204923411Y-105491356D01*
X204923411Y-107537468D01*
X195363136Y-107537468D01*
X195363136Y-105209129D01*
X201889517Y-100587742D01*
X195363136Y-100587742D01*
X195363136Y-98541630D01*
X204923411Y-98541630D01*
X204923411Y-100869963D01*
G37*
G36*
X195363136Y-123835783D02*
G01*
X195369819Y-123376001D01*
X195390145Y-122948878D01*
X195424527Y-122554001D01*
X195447118Y-122368526D01*
X195473378Y-122190957D01*
X195503359Y-122021243D01*
X195537112Y-121859333D01*
X195574690Y-121705174D01*
X195616143Y-121558715D01*
X195661524Y-121419905D01*
X195710884Y-121288691D01*
X195764275Y-121165022D01*
X195821749Y-121048847D01*
X195852033Y-120996757D01*
X195883363Y-120946321D01*
X195915753Y-120897539D01*
X195949216Y-120850410D01*
X195983763Y-120804935D01*
X196019409Y-120761113D01*
X196056166Y-120718945D01*
X196094046Y-120678431D01*
X196133064Y-120639570D01*
X196173231Y-120602363D01*
X196214562Y-120566809D01*
X196257067Y-120532910D01*
X196300762Y-120500663D01*
X196345658Y-120470071D01*
X196391768Y-120441132D01*
X196439106Y-120413846D01*
X196487684Y-120388215D01*
X196537515Y-120364237D01*
X196588612Y-120341912D01*
X196640988Y-120321242D01*
X196694656Y-120302225D01*
X196749629Y-120284861D01*
X196805919Y-120269151D01*
X196863541Y-120255095D01*
X196922505Y-120242693D01*
X196982827Y-120231944D01*
X197044517Y-120222849D01*
X197107590Y-120215407D01*
X197172059Y-120209619D01*
X197237935Y-120205485D01*
X197373964Y-120202178D01*
X199067302Y-120202178D01*
X199171491Y-120204650D01*
X199272423Y-120212031D01*
X199370152Y-120224270D01*
X199464728Y-120241315D01*
X199556204Y-120263114D01*
X199644630Y-120289616D01*
X199730060Y-120320768D01*
X199812544Y-120356521D01*
X199892134Y-120396820D01*
X199968882Y-120441616D01*
X200042839Y-120490855D01*
X200114058Y-120544488D01*
X200182589Y-120602461D01*
X200248484Y-120664723D01*
X200311795Y-120731223D01*
X200372575Y-120801909D01*
X200430857Y-120876324D01*
X200486607Y-120954046D01*
X200539774Y-121035076D01*
X200590305Y-121119412D01*
X200638149Y-121207056D01*
X200683254Y-121298006D01*
X200725568Y-121392264D01*
X200765041Y-121489829D01*
X200801619Y-121590701D01*
X200835252Y-121694880D01*
X200865887Y-121802366D01*
X200893474Y-121913159D01*
X200917960Y-122027259D01*
X200939293Y-122144667D01*
X200957422Y-122265381D01*
X200972296Y-122389403D01*
X204923411Y-119602467D01*
X204923411Y-122248300D01*
X201148687Y-124753019D01*
X201148687Y-125811358D01*
X204923411Y-125811358D01*
X204923411Y-128104408D01*
X195363136Y-128104408D01*
X195363136Y-125846637D01*
X195363136Y-123871082D01*
X196985908Y-123871082D01*
X196985908Y-125846637D01*
X199631740Y-125846637D01*
X199631740Y-123835803D01*
X199667024Y-123835803D01*
X199663716Y-123644116D01*
X199659582Y-123553492D01*
X199653794Y-123466485D01*
X199646353Y-123383199D01*
X199637258Y-123303738D01*
X199626509Y-123228204D01*
X199614106Y-123156701D01*
X199600050Y-123089332D01*
X199584340Y-123026201D01*
X199566977Y-122967410D01*
X199547959Y-122913064D01*
X199527288Y-122863265D01*
X199504964Y-122818116D01*
X199480986Y-122777722D01*
X199455354Y-122742186D01*
X199441711Y-122722753D01*
X199427242Y-122704134D01*
X199411946Y-122686317D01*
X199395823Y-122669287D01*
X199378874Y-122653033D01*
X199361097Y-122637540D01*
X199342493Y-122622798D01*
X199323063Y-122608791D01*
X199302806Y-122595508D01*
X199281722Y-122582936D01*
X199259811Y-122571062D01*
X199237074Y-122559872D01*
X199213509Y-122549354D01*
X199189118Y-122539495D01*
X199163900Y-122530282D01*
X199137855Y-122521701D01*
X199083284Y-122506389D01*
X199025407Y-122493453D01*
X198964222Y-122482791D01*
X198899730Y-122474300D01*
X198831930Y-122467875D01*
X198760824Y-122463414D01*
X198686410Y-122460813D01*
X198608690Y-122459969D01*
X197938412Y-122459969D01*
X197873506Y-122461210D01*
X197811081Y-122464930D01*
X197751136Y-122471131D01*
X197693672Y-122479812D01*
X197638689Y-122490973D01*
X197586185Y-122504615D01*
X197536163Y-122520738D01*
X197488620Y-122539341D01*
X197443558Y-122560424D01*
X197400977Y-122583988D01*
X197360876Y-122610032D01*
X197323256Y-122638557D01*
X197288115Y-122669563D01*
X197255456Y-122703049D01*
X197225276Y-122739016D01*
X197197577Y-122777464D01*
X197171946Y-122818814D01*
X197147969Y-122863523D01*
X197125645Y-122911643D01*
X197104974Y-122963225D01*
X197085957Y-123018321D01*
X197068593Y-123076982D01*
X197052883Y-123139261D01*
X197038827Y-123205209D01*
X197026424Y-123274877D01*
X197015675Y-123348318D01*
X197006579Y-123425583D01*
X196999138Y-123506724D01*
X196993350Y-123591793D01*
X196989215Y-123680841D01*
X196986734Y-123773920D01*
X196985908Y-123871082D01*
X195363136Y-123871082D01*
X195363136Y-123835783D01*
G37*
G36*
X195257418Y-134524959D02*
G01*
X196880083Y-134524959D01*
X196884975Y-134806076D01*
X196899376Y-135067349D01*
X196910013Y-135190545D01*
X196922872Y-135308780D01*
X196937901Y-135422054D01*
X196955049Y-135530368D01*
X196974265Y-135633720D01*
X196995495Y-135732112D01*
X197018690Y-135825543D01*
X197043796Y-135914014D01*
X197070763Y-135997523D01*
X197099539Y-136076072D01*
X197130071Y-136149660D01*
X197162309Y-136218287D01*
X197179260Y-136250843D01*
X197197044Y-136282365D01*
X197215668Y-136312854D01*
X197235138Y-136342309D01*
X197255460Y-136370731D01*
X197276642Y-136398119D01*
X197298690Y-136424474D01*
X197321609Y-136449795D01*
X197345407Y-136474083D01*
X197370090Y-136497337D01*
X197395664Y-136519558D01*
X197422137Y-136540745D01*
X197449513Y-136560899D01*
X197477801Y-136580019D01*
X197507005Y-136598106D01*
X197537134Y-136615159D01*
X197568192Y-136631179D01*
X197600188Y-136646165D01*
X197633126Y-136660118D01*
X197667014Y-136673037D01*
X197701858Y-136684923D01*
X197737664Y-136695775D01*
X197774440Y-136705593D01*
X197812190Y-136714378D01*
X197850923Y-136722130D01*
X197890644Y-136728848D01*
X197931360Y-136734532D01*
X197973077Y-136739183D01*
X198015802Y-136742801D01*
X198059541Y-136745385D01*
X198150087Y-136747452D01*
X202348135Y-136747452D01*
X202394015Y-136746633D01*
X202439018Y-136744213D01*
X202483090Y-136740243D01*
X202526180Y-136734774D01*
X202568236Y-136727857D01*
X202609207Y-136719546D01*
X202649042Y-136709891D01*
X202687687Y-136698944D01*
X202725092Y-136686757D01*
X202761205Y-136673381D01*
X202795975Y-136658868D01*
X202829349Y-136643270D01*
X202861275Y-136626639D01*
X202891703Y-136609026D01*
X202920581Y-136590482D01*
X202947856Y-136571060D01*
X202980111Y-136544181D01*
X203010764Y-136516423D01*
X203039867Y-136487735D01*
X203067471Y-136458065D01*
X203093629Y-136427361D01*
X203118391Y-136395572D01*
X203141809Y-136362646D01*
X203163935Y-136328531D01*
X203184822Y-136293175D01*
X203204519Y-136256528D01*
X203223080Y-136218537D01*
X203240555Y-136179150D01*
X203256997Y-136138317D01*
X203272458Y-136095984D01*
X203286987Y-136052102D01*
X203300639Y-136006617D01*
X203325513Y-135915597D01*
X203347493Y-135827471D01*
X203366992Y-135741826D01*
X203384424Y-135658249D01*
X203400201Y-135576325D01*
X203414738Y-135495642D01*
X203441742Y-135336340D01*
X203447954Y-135295833D01*
X203453390Y-135253725D01*
X203462143Y-135164911D01*
X203468415Y-135070309D01*
X203472619Y-134970333D01*
X203475169Y-134865397D01*
X203476479Y-134755914D01*
X203477030Y-134524959D01*
X203465314Y-134397420D01*
X203456078Y-134278563D01*
X203441743Y-134061936D01*
X203427410Y-133865153D01*
X203418177Y-133771101D01*
X203406464Y-133678289D01*
X203379455Y-133514027D01*
X203364918Y-133429002D01*
X203349141Y-133343152D01*
X203331711Y-133257302D01*
X203312213Y-133172279D01*
X203290234Y-133088910D01*
X203278185Y-133048104D01*
X203265361Y-133008022D01*
X203251709Y-132968360D01*
X203237179Y-132928852D01*
X203221719Y-132889655D01*
X203205277Y-132850923D01*
X203187802Y-132812811D01*
X203169241Y-132775474D01*
X203149543Y-132739068D01*
X203128657Y-132703746D01*
X203106531Y-132669665D01*
X203083112Y-132636979D01*
X203058350Y-132605844D01*
X203032193Y-132576414D01*
X203004589Y-132548844D01*
X202975486Y-132523290D01*
X202944833Y-132499906D01*
X202912577Y-132478847D01*
X202879489Y-132459427D01*
X202846296Y-132440885D01*
X202812897Y-132423273D01*
X202779187Y-132406643D01*
X202745064Y-132391046D01*
X202710424Y-132376534D01*
X202675163Y-132363159D01*
X202639179Y-132350972D01*
X202602368Y-132340026D01*
X202564627Y-132330371D01*
X202525852Y-132322060D01*
X202485940Y-132315144D01*
X202444788Y-132309675D01*
X202402292Y-132305704D01*
X202358349Y-132303284D01*
X202312856Y-132302466D01*
X198114808Y-132302466D01*
X198030472Y-132304533D01*
X197949443Y-132310734D01*
X197871722Y-132321069D01*
X197797307Y-132335538D01*
X197726201Y-132354141D01*
X197658401Y-132376878D01*
X197593909Y-132403749D01*
X197532724Y-132434754D01*
X197474846Y-132469894D01*
X197420276Y-132509168D01*
X197369013Y-132552576D01*
X197321058Y-132600118D01*
X197276410Y-132651795D01*
X197235069Y-132707605D01*
X197197035Y-132767551D01*
X197162309Y-132831630D01*
X197130071Y-132900256D01*
X197099539Y-132973843D01*
X197070763Y-133052391D01*
X197043796Y-133135900D01*
X197018690Y-133224370D01*
X196995495Y-133317801D01*
X196974265Y-133416193D01*
X196955049Y-133519546D01*
X196937901Y-133627860D01*
X196922872Y-133741135D01*
X196910013Y-133859370D01*
X196899376Y-133982567D01*
X196891013Y-134110724D01*
X196884975Y-134243841D01*
X196881314Y-134381920D01*
X196880083Y-134524959D01*
X195257418Y-134524959D01*
X195257852Y-134264789D01*
X195261711Y-133960520D01*
X195265914Y-133818307D01*
X195272184Y-133682708D01*
X195280935Y-133553723D01*
X195292579Y-133431351D01*
X195307464Y-133309052D01*
X195325655Y-133180551D01*
X195347152Y-133046261D01*
X195371957Y-132906597D01*
X195400069Y-132761971D01*
X195431488Y-132612799D01*
X195466215Y-132459492D01*
X195504249Y-132302466D01*
X195558750Y-132133795D01*
X195616144Y-131971738D01*
X195676020Y-131816295D01*
X195737963Y-131667466D01*
X195801559Y-131525253D01*
X195866396Y-131389654D01*
X195932059Y-131260670D01*
X195998135Y-131138302D01*
X196038254Y-131079590D01*
X196079303Y-131022479D01*
X196121385Y-130966919D01*
X196164604Y-130912857D01*
X196209063Y-130860242D01*
X196254866Y-130809022D01*
X196302115Y-130759146D01*
X196350915Y-130710561D01*
X196401369Y-130663217D01*
X196453579Y-130617061D01*
X196507650Y-130572041D01*
X196563684Y-130528107D01*
X196621786Y-130485207D01*
X196682058Y-130443288D01*
X196744603Y-130402299D01*
X196809526Y-130362189D01*
X196876895Y-130323741D01*
X196946641Y-130287774D01*
X197018661Y-130254287D01*
X197092851Y-130223281D01*
X197169109Y-130194755D01*
X197247330Y-130168710D01*
X197327411Y-130145145D01*
X197409249Y-130124061D01*
X197492741Y-130105457D01*
X197577783Y-130089333D01*
X197664272Y-130075691D01*
X197752105Y-130064528D01*
X197841178Y-130055847D01*
X197931387Y-130049645D01*
X198022630Y-130045925D01*
X198114803Y-130044684D01*
X202312856Y-130044684D01*
X202411248Y-130046338D01*
X202507986Y-130051299D01*
X202603070Y-130059567D01*
X202696500Y-130071143D01*
X202788277Y-130086026D01*
X202878400Y-130104217D01*
X202966870Y-130125714D01*
X203053686Y-130150519D01*
X203138848Y-130178632D01*
X203222356Y-130210051D01*
X203304211Y-130244779D01*
X203384412Y-130282813D01*
X203462960Y-130324155D01*
X203539853Y-130368804D01*
X203615093Y-130416760D01*
X203688680Y-130468024D01*
X203760210Y-130522180D01*
X203829310Y-130578817D01*
X203896034Y-130637934D01*
X203960432Y-130699532D01*
X204022555Y-130763611D01*
X204082457Y-130830170D01*
X204140188Y-130899210D01*
X204195801Y-130970730D01*
X204249346Y-131044731D01*
X204300876Y-131121212D01*
X204350442Y-131200174D01*
X204398096Y-131281616D01*
X204443890Y-131365538D01*
X204487876Y-131451941D01*
X204530104Y-131540825D01*
X204570628Y-131632188D01*
X204634707Y-131798793D01*
X204694652Y-131967879D01*
X204750463Y-132139445D01*
X204802140Y-132313491D01*
X204849682Y-132490018D01*
X204893090Y-132669024D01*
X204932364Y-132850512D01*
X204967503Y-133034479D01*
X204998509Y-133220927D01*
X205025380Y-133409856D01*
X205048117Y-133601265D01*
X205066720Y-133795154D01*
X205081189Y-133991523D01*
X205091524Y-134190374D01*
X205097725Y-134391704D01*
X205099792Y-134595515D01*
X205098142Y-134769009D01*
X205093183Y-134944984D01*
X205084917Y-135122612D01*
X205073342Y-135301068D01*
X205058460Y-135479524D01*
X205040270Y-135657153D01*
X205018772Y-135833130D01*
X204993967Y-136006627D01*
X204965786Y-136178675D01*
X204933884Y-136351136D01*
X204897848Y-136524425D01*
X204857264Y-136698954D01*
X204811719Y-136875137D01*
X204760800Y-137053387D01*
X204704093Y-137234117D01*
X204641184Y-137417740D01*
X204606872Y-137515322D01*
X204570080Y-137609700D01*
X204530806Y-137700978D01*
X204489052Y-137789258D01*
X204444818Y-137874645D01*
X204398103Y-137957241D01*
X204348907Y-138037151D01*
X204297231Y-138114476D01*
X204243074Y-138189321D01*
X204186437Y-138261789D01*
X204127319Y-138331982D01*
X204065721Y-138400006D01*
X204001643Y-138465962D01*
X203935084Y-138529954D01*
X203866044Y-138592086D01*
X203794525Y-138652460D01*
X203720534Y-138709932D01*
X203644113Y-138763322D01*
X203565316Y-138812681D01*
X203484192Y-138858061D01*
X203400795Y-138899513D01*
X203315175Y-138937091D01*
X203227385Y-138970844D01*
X203137477Y-139000825D01*
X203045501Y-139027085D01*
X202951510Y-139049676D01*
X202855555Y-139068650D01*
X202757688Y-139084058D01*
X202657961Y-139095952D01*
X202556425Y-139104384D01*
X202453132Y-139109406D01*
X202348135Y-139111068D01*
X198150082Y-139111068D01*
X198064505Y-139109828D01*
X197979756Y-139106107D01*
X197895833Y-139099906D01*
X197812737Y-139091224D01*
X197730468Y-139080062D01*
X197649026Y-139066419D01*
X197568411Y-139050296D01*
X197488623Y-139031693D01*
X197409661Y-139010609D01*
X197331526Y-138987045D01*
X197254218Y-138961001D01*
X197177737Y-138932476D01*
X197102082Y-138901471D01*
X197027254Y-138867985D01*
X196953253Y-138832019D01*
X196880078Y-138793573D01*
X196808549Y-138753067D01*
X196739449Y-138710959D01*
X196672726Y-138667301D01*
X196608329Y-138622144D01*
X196546206Y-138575541D01*
X196486304Y-138527542D01*
X196428574Y-138478200D01*
X196372962Y-138427566D01*
X196319416Y-138375692D01*
X196267887Y-138322629D01*
X196218321Y-138268429D01*
X196170666Y-138213144D01*
X196124873Y-138156825D01*
X196080887Y-138099524D01*
X196038659Y-138041292D01*
X195998135Y-137982182D01*
X195932128Y-137871528D01*
X195866947Y-137751777D01*
X195803419Y-137623757D01*
X195772534Y-137556905D01*
X195742372Y-137488296D01*
X195713037Y-137418033D01*
X195684632Y-137346220D01*
X195657260Y-137272960D01*
X195631025Y-137198357D01*
X195606031Y-137122513D01*
X195582380Y-137045533D01*
X195560176Y-136967519D01*
X195539522Y-136888575D01*
X195489845Y-136729961D01*
X195446368Y-136572174D01*
X195408678Y-136416042D01*
X195376363Y-136262391D01*
X195349008Y-136112048D01*
X195326202Y-135965840D01*
X195307530Y-135824592D01*
X195292579Y-135689133D01*
X195280935Y-135556771D01*
X195272184Y-135423996D01*
X195265914Y-135290395D01*
X195261711Y-135155553D01*
X195257852Y-134880496D01*
X195257301Y-134595515D01*
X195257418Y-134524959D01*
G37*
G36*
X154476201Y-85947471D02*
G01*
X145374539Y-85947471D01*
X168552031Y-45801376D01*
X177653698Y-45801376D01*
X154476201Y-85947471D01*
G37*
G36*
X147879261Y-65874425D02*
G01*
X138777596Y-65874425D01*
X150383980Y-45801376D01*
X159485647Y-45801376D01*
X147879261Y-65874425D01*
G37*
D12*
%TO.C,REF\u002A\u002A*%
X188637944Y-81432733D03*
%TD*%
%TO.C,REF\u002A\u002A*%
X161468071Y-97119267D03*
%TD*%
%TO.C,REF\u002A\u002A*%
X188637944Y-50059666D03*
%TD*%
%TO.C,REF\u002A\u002A*%
X161468071Y-34373133D03*
%TD*%
D13*
%TO.C,J4*%
X133399999Y-156799999D03*
X137399999Y-156799999D03*
X141399999Y-156799999D03*
X145399999Y-156799999D03*
X149399999Y-156799999D03*
X153399999Y-156799999D03*
X157399999Y-156799999D03*
X161399999Y-156799999D03*
X165399999Y-156799999D03*
X169399999Y-156799999D03*
X173399999Y-156799999D03*
X177399999Y-156799999D03*
X181399999Y-156799999D03*
X185399999Y-156799999D03*
X189399999Y-156799999D03*
%TD*%
D12*
%TO.C,REF\u002A\u002A*%
X134298198Y-81432733D03*
%TD*%
%TO.C,REF\u002A\u002A*%
X134298198Y-50059666D03*
%TD*%
D14*
%TO.C,J1*%
X125030000Y-66700000D03*
X125030000Y-61700000D03*
%TD*%
D15*
%TO.C,SW1*%
X118400000Y-50600000D03*
X118400000Y-52300000D03*
%TD*%
D16*
%TO.C,H2*%
X124468071Y-150373133D03*
%TD*%
%TO.C,H1*%
X198468071Y-150373133D03*
%TD*%
D15*
%TO.C,SW2*%
X148925000Y-25550000D03*
X147225000Y-25550000D03*
%TD*%
M02*
