M48
; DRILL file {KiCad (7.0.0-0)} date Sunday, March 26, 2023 at 08:27:34 PM
; FORMAT={-:-/ absolute / inch / decimal}
; #@! TF.CreationDate,2023-03-26T20:27:34-07:00
; #@! TF.GenerationSoftware,Kicad,Pcbnew,(7.0.0-0)
; #@! TF.FileFunction,Plated,1,2,PTH
FMAT,2
INCH
; #@! TA.AperFunction,Plated,PTH,ViaDrill
T1C0.0157
; #@! TA.AperFunction,Plated,PTH,ComponentDrill
T2C0.0354
%
G90
G05
T1
X4.8031Y-3.2087
X4.8071Y-2.5315
X5.2047Y-2.3976
X5.2441Y-3.0157
X5.252Y-6.189
X5.2677Y-1.6142
X5.2717Y-2.7165
X5.378Y-3.3268
X5.4094Y-6.189
X5.4488Y-2.3346
X5.5197Y-2.748
X5.5276Y-1.8504
X5.563Y-2.1969
X5.5669Y-6.189
X5.6457Y-3.2402
X5.6614Y-2.6299
X5.7244Y-6.189
X5.7835Y-2.9567
X5.8819Y-6.189
X5.9724Y-1.1142
X5.9882Y-1.5984
X6.0354Y-6.185
X6.0433Y-1.5669
X6.1575Y-3.7677
X6.1672Y-1.1396
X6.1969Y-6.189
X6.2205Y-1.626
X6.2677Y-2.248
X6.3543Y-6.189
X6.4094Y-3.5551
X6.4803Y-2.9173
X6.4961Y-1.8386
X6.5079Y-6.189
X6.5433Y-3.8189
X6.5472Y-4.7323
X6.6063Y-3.6024
X6.6614Y-4.9803
X6.6654Y-6.189
X6.8268Y-6.189
X6.8858Y-4.9882
X6.8937Y-4.3031
X6.9213Y-2.4646
X6.9764Y-1.6969
X6.9843Y-6.1929
X7.0315Y-4.7165
X7.1181Y-3.3071
X7.1417Y-1.1417
X7.1417Y-6.1929
X7.2953Y-1.0945
X7.2992Y-6.1969
X7.3268Y-4.378
X7.4567Y-6.1969
X7.4606Y-4.189
X7.4724Y-3.9646
X7.4921Y-2.5157
X7.5157Y-4.6457
X7.5709Y-5.1496
X7.6102Y-4.1969
X7.7283Y-3.7205
X7.7362Y-4.2756
X7.8937Y-4.2874
X7.9134Y-1.7165
X7.9921Y-4.7126
X8.0157Y-4.0827
X8.0197Y-3.7008
X8.0512Y-5.8268
T2
X4.9003Y-5.9202
X7.8137Y-5.9202
T0
M30
