%TF.GenerationSoftware,KiCad,Pcbnew,(7.0.0-0)*%
%TF.CreationDate,2023-03-26T20:27:34-07:00*%
%TF.ProjectId,voron_badge,766f726f-6e5f-4626-9164-67652e6b6963,rev?*%
%TF.SameCoordinates,Original*%
%TF.FileFunction,Other,Comment*%
%FSLAX46Y46*%
G04 Gerber Fmt 4.6, Leading zero omitted, Abs format (unit mm)*
G04 Created by KiCad (PCBNEW (7.0.0-0)) date 2023-03-26 20:27:34*
%MOMM*%
%LPD*%
G01*
G04 APERTURE LIST*
%ADD10C,0.150000*%
%ADD11C,0.120000*%
G04 APERTURE END LIST*
D10*
%TO.C,U2*%
X211122142Y-147085240D02*
X211169761Y-147132859D01*
X211169761Y-147132859D02*
X211217380Y-147275716D01*
X211217380Y-147275716D02*
X211217380Y-147370954D01*
X211217380Y-147370954D02*
X211169761Y-147513811D01*
X211169761Y-147513811D02*
X211074523Y-147609049D01*
X211074523Y-147609049D02*
X210979285Y-147656668D01*
X210979285Y-147656668D02*
X210788809Y-147704287D01*
X210788809Y-147704287D02*
X210645952Y-147704287D01*
X210645952Y-147704287D02*
X210455476Y-147656668D01*
X210455476Y-147656668D02*
X210360238Y-147609049D01*
X210360238Y-147609049D02*
X210265000Y-147513811D01*
X210265000Y-147513811D02*
X210217380Y-147370954D01*
X210217380Y-147370954D02*
X210217380Y-147275716D01*
X210217380Y-147275716D02*
X210265000Y-147132859D01*
X210265000Y-147132859D02*
X210312619Y-147085240D01*
X211217380Y-146513811D02*
X211169761Y-146609049D01*
X211169761Y-146609049D02*
X211122142Y-146656668D01*
X211122142Y-146656668D02*
X211026904Y-146704287D01*
X211026904Y-146704287D02*
X210741190Y-146704287D01*
X210741190Y-146704287D02*
X210645952Y-146656668D01*
X210645952Y-146656668D02*
X210598333Y-146609049D01*
X210598333Y-146609049D02*
X210550714Y-146513811D01*
X210550714Y-146513811D02*
X210550714Y-146370954D01*
X210550714Y-146370954D02*
X210598333Y-146275716D01*
X210598333Y-146275716D02*
X210645952Y-146228097D01*
X210645952Y-146228097D02*
X210741190Y-146180478D01*
X210741190Y-146180478D02*
X211026904Y-146180478D01*
X211026904Y-146180478D02*
X211122142Y-146228097D01*
X211122142Y-146228097D02*
X211169761Y-146275716D01*
X211169761Y-146275716D02*
X211217380Y-146370954D01*
X211217380Y-146370954D02*
X211217380Y-146513811D01*
X210550714Y-145751906D02*
X211550714Y-145751906D01*
X210598333Y-145751906D02*
X210550714Y-145656668D01*
X210550714Y-145656668D02*
X210550714Y-145466192D01*
X210550714Y-145466192D02*
X210598333Y-145370954D01*
X210598333Y-145370954D02*
X210645952Y-145323335D01*
X210645952Y-145323335D02*
X210741190Y-145275716D01*
X210741190Y-145275716D02*
X211026904Y-145275716D01*
X211026904Y-145275716D02*
X211122142Y-145323335D01*
X211122142Y-145323335D02*
X211169761Y-145370954D01*
X211169761Y-145370954D02*
X211217380Y-145466192D01*
X211217380Y-145466192D02*
X211217380Y-145656668D01*
X211217380Y-145656668D02*
X211169761Y-145751906D01*
X210550714Y-144847144D02*
X211550714Y-144847144D01*
X210598333Y-144847144D02*
X210550714Y-144751906D01*
X210550714Y-144751906D02*
X210550714Y-144561430D01*
X210550714Y-144561430D02*
X210598333Y-144466192D01*
X210598333Y-144466192D02*
X210645952Y-144418573D01*
X210645952Y-144418573D02*
X210741190Y-144370954D01*
X210741190Y-144370954D02*
X211026904Y-144370954D01*
X211026904Y-144370954D02*
X211122142Y-144418573D01*
X211122142Y-144418573D02*
X211169761Y-144466192D01*
X211169761Y-144466192D02*
X211217380Y-144561430D01*
X211217380Y-144561430D02*
X211217380Y-144751906D01*
X211217380Y-144751906D02*
X211169761Y-144847144D01*
X211169761Y-143561430D02*
X211217380Y-143656668D01*
X211217380Y-143656668D02*
X211217380Y-143847144D01*
X211217380Y-143847144D02*
X211169761Y-143942382D01*
X211169761Y-143942382D02*
X211074523Y-143990001D01*
X211074523Y-143990001D02*
X210693571Y-143990001D01*
X210693571Y-143990001D02*
X210598333Y-143942382D01*
X210598333Y-143942382D02*
X210550714Y-143847144D01*
X210550714Y-143847144D02*
X210550714Y-143656668D01*
X210550714Y-143656668D02*
X210598333Y-143561430D01*
X210598333Y-143561430D02*
X210693571Y-143513811D01*
X210693571Y-143513811D02*
X210788809Y-143513811D01*
X210788809Y-143513811D02*
X210884047Y-143990001D01*
X211217380Y-143085239D02*
X210550714Y-143085239D01*
X210741190Y-143085239D02*
X210645952Y-143037620D01*
X210645952Y-143037620D02*
X210598333Y-142990001D01*
X210598333Y-142990001D02*
X210550714Y-142894763D01*
X210550714Y-142894763D02*
X210550714Y-142799525D01*
X211217380Y-141866191D02*
X210217380Y-141866191D01*
X211217380Y-141294763D02*
X210645952Y-141723334D01*
X210217380Y-141294763D02*
X210788809Y-141866191D01*
X211169761Y-140485239D02*
X211217380Y-140580477D01*
X211217380Y-140580477D02*
X211217380Y-140770953D01*
X211217380Y-140770953D02*
X211169761Y-140866191D01*
X211169761Y-140866191D02*
X211074523Y-140913810D01*
X211074523Y-140913810D02*
X210693571Y-140913810D01*
X210693571Y-140913810D02*
X210598333Y-140866191D01*
X210598333Y-140866191D02*
X210550714Y-140770953D01*
X210550714Y-140770953D02*
X210550714Y-140580477D01*
X210550714Y-140580477D02*
X210598333Y-140485239D01*
X210598333Y-140485239D02*
X210693571Y-140437620D01*
X210693571Y-140437620D02*
X210788809Y-140437620D01*
X210788809Y-140437620D02*
X210884047Y-140913810D01*
X211169761Y-139628096D02*
X211217380Y-139723334D01*
X211217380Y-139723334D02*
X211217380Y-139913810D01*
X211217380Y-139913810D02*
X211169761Y-140009048D01*
X211169761Y-140009048D02*
X211074523Y-140056667D01*
X211074523Y-140056667D02*
X210693571Y-140056667D01*
X210693571Y-140056667D02*
X210598333Y-140009048D01*
X210598333Y-140009048D02*
X210550714Y-139913810D01*
X210550714Y-139913810D02*
X210550714Y-139723334D01*
X210550714Y-139723334D02*
X210598333Y-139628096D01*
X210598333Y-139628096D02*
X210693571Y-139580477D01*
X210693571Y-139580477D02*
X210788809Y-139580477D01*
X210788809Y-139580477D02*
X210884047Y-140056667D01*
X210550714Y-139151905D02*
X211550714Y-139151905D01*
X210598333Y-139151905D02*
X210550714Y-139056667D01*
X210550714Y-139056667D02*
X210550714Y-138866191D01*
X210550714Y-138866191D02*
X210598333Y-138770953D01*
X210598333Y-138770953D02*
X210645952Y-138723334D01*
X210645952Y-138723334D02*
X210741190Y-138675715D01*
X210741190Y-138675715D02*
X211026904Y-138675715D01*
X211026904Y-138675715D02*
X211122142Y-138723334D01*
X211122142Y-138723334D02*
X211169761Y-138770953D01*
X211169761Y-138770953D02*
X211217380Y-138866191D01*
X211217380Y-138866191D02*
X211217380Y-139056667D01*
X211217380Y-139056667D02*
X211169761Y-139151905D01*
X211217380Y-138104286D02*
X211169761Y-138199524D01*
X211169761Y-138199524D02*
X211122142Y-138247143D01*
X211122142Y-138247143D02*
X211026904Y-138294762D01*
X211026904Y-138294762D02*
X210741190Y-138294762D01*
X210741190Y-138294762D02*
X210645952Y-138247143D01*
X210645952Y-138247143D02*
X210598333Y-138199524D01*
X210598333Y-138199524D02*
X210550714Y-138104286D01*
X210550714Y-138104286D02*
X210550714Y-137961429D01*
X210550714Y-137961429D02*
X210598333Y-137866191D01*
X210598333Y-137866191D02*
X210645952Y-137818572D01*
X210645952Y-137818572D02*
X210741190Y-137770953D01*
X210741190Y-137770953D02*
X211026904Y-137770953D01*
X211026904Y-137770953D02*
X211122142Y-137818572D01*
X211122142Y-137818572D02*
X211169761Y-137866191D01*
X211169761Y-137866191D02*
X211217380Y-137961429D01*
X211217380Y-137961429D02*
X211217380Y-138104286D01*
X210550714Y-136913810D02*
X211217380Y-136913810D01*
X210550714Y-137342381D02*
X211074523Y-137342381D01*
X211074523Y-137342381D02*
X211169761Y-137294762D01*
X211169761Y-137294762D02*
X211217380Y-137199524D01*
X211217380Y-137199524D02*
X211217380Y-137056667D01*
X211217380Y-137056667D02*
X211169761Y-136961429D01*
X211169761Y-136961429D02*
X211122142Y-136913810D01*
X210550714Y-136580476D02*
X210550714Y-136199524D01*
X210217380Y-136437619D02*
X211074523Y-136437619D01*
X211074523Y-136437619D02*
X211169761Y-136390000D01*
X211169761Y-136390000D02*
X211217380Y-136294762D01*
X211217380Y-136294762D02*
X211217380Y-136199524D01*
X211169761Y-135913809D02*
X211217380Y-135818571D01*
X211217380Y-135818571D02*
X211217380Y-135628095D01*
X211217380Y-135628095D02*
X211169761Y-135532857D01*
X211169761Y-135532857D02*
X211074523Y-135485238D01*
X211074523Y-135485238D02*
X211026904Y-135485238D01*
X211026904Y-135485238D02*
X210931666Y-135532857D01*
X210931666Y-135532857D02*
X210884047Y-135628095D01*
X210884047Y-135628095D02*
X210884047Y-135770952D01*
X210884047Y-135770952D02*
X210836428Y-135866190D01*
X210836428Y-135866190D02*
X210741190Y-135913809D01*
X210741190Y-135913809D02*
X210693571Y-135913809D01*
X210693571Y-135913809D02*
X210598333Y-135866190D01*
X210598333Y-135866190D02*
X210550714Y-135770952D01*
X210550714Y-135770952D02*
X210550714Y-135628095D01*
X210550714Y-135628095D02*
X210598333Y-135532857D01*
X211169761Y-134504285D02*
X211217380Y-134409047D01*
X211217380Y-134409047D02*
X211217380Y-134218571D01*
X211217380Y-134218571D02*
X211169761Y-134123333D01*
X211169761Y-134123333D02*
X211074523Y-134075714D01*
X211074523Y-134075714D02*
X211026904Y-134075714D01*
X211026904Y-134075714D02*
X210931666Y-134123333D01*
X210931666Y-134123333D02*
X210884047Y-134218571D01*
X210884047Y-134218571D02*
X210884047Y-134361428D01*
X210884047Y-134361428D02*
X210836428Y-134456666D01*
X210836428Y-134456666D02*
X210741190Y-134504285D01*
X210741190Y-134504285D02*
X210693571Y-134504285D01*
X210693571Y-134504285D02*
X210598333Y-134456666D01*
X210598333Y-134456666D02*
X210550714Y-134361428D01*
X210550714Y-134361428D02*
X210550714Y-134218571D01*
X210550714Y-134218571D02*
X210598333Y-134123333D01*
X211217380Y-133647142D02*
X210217380Y-133647142D01*
X211217380Y-133218571D02*
X210693571Y-133218571D01*
X210693571Y-133218571D02*
X210598333Y-133266190D01*
X210598333Y-133266190D02*
X210550714Y-133361428D01*
X210550714Y-133361428D02*
X210550714Y-133504285D01*
X210550714Y-133504285D02*
X210598333Y-133599523D01*
X210598333Y-133599523D02*
X210645952Y-133647142D01*
X211217380Y-132599523D02*
X211169761Y-132694761D01*
X211169761Y-132694761D02*
X211122142Y-132742380D01*
X211122142Y-132742380D02*
X211026904Y-132789999D01*
X211026904Y-132789999D02*
X210741190Y-132789999D01*
X210741190Y-132789999D02*
X210645952Y-132742380D01*
X210645952Y-132742380D02*
X210598333Y-132694761D01*
X210598333Y-132694761D02*
X210550714Y-132599523D01*
X210550714Y-132599523D02*
X210550714Y-132456666D01*
X210550714Y-132456666D02*
X210598333Y-132361428D01*
X210598333Y-132361428D02*
X210645952Y-132313809D01*
X210645952Y-132313809D02*
X210741190Y-132266190D01*
X210741190Y-132266190D02*
X211026904Y-132266190D01*
X211026904Y-132266190D02*
X211122142Y-132313809D01*
X211122142Y-132313809D02*
X211169761Y-132361428D01*
X211169761Y-132361428D02*
X211217380Y-132456666D01*
X211217380Y-132456666D02*
X211217380Y-132599523D01*
X210550714Y-131932856D02*
X211217380Y-131742380D01*
X211217380Y-131742380D02*
X210741190Y-131551904D01*
X210741190Y-131551904D02*
X211217380Y-131361428D01*
X211217380Y-131361428D02*
X210550714Y-131170952D01*
X210550714Y-130789999D02*
X211217380Y-130789999D01*
X210645952Y-130789999D02*
X210598333Y-130742380D01*
X210598333Y-130742380D02*
X210550714Y-130647142D01*
X210550714Y-130647142D02*
X210550714Y-130504285D01*
X210550714Y-130504285D02*
X210598333Y-130409047D01*
X210598333Y-130409047D02*
X210693571Y-130361428D01*
X210693571Y-130361428D02*
X211217380Y-130361428D01*
X211217380Y-129142380D02*
X211169761Y-129237618D01*
X211169761Y-129237618D02*
X211122142Y-129285237D01*
X211122142Y-129285237D02*
X211026904Y-129332856D01*
X211026904Y-129332856D02*
X210741190Y-129332856D01*
X210741190Y-129332856D02*
X210645952Y-129285237D01*
X210645952Y-129285237D02*
X210598333Y-129237618D01*
X210598333Y-129237618D02*
X210550714Y-129142380D01*
X210550714Y-129142380D02*
X210550714Y-128999523D01*
X210550714Y-128999523D02*
X210598333Y-128904285D01*
X210598333Y-128904285D02*
X210645952Y-128856666D01*
X210645952Y-128856666D02*
X210741190Y-128809047D01*
X210741190Y-128809047D02*
X211026904Y-128809047D01*
X211026904Y-128809047D02*
X211122142Y-128856666D01*
X211122142Y-128856666D02*
X211169761Y-128904285D01*
X211169761Y-128904285D02*
X211217380Y-128999523D01*
X211217380Y-128999523D02*
X211217380Y-129142380D01*
X210550714Y-128380475D02*
X211217380Y-128380475D01*
X210645952Y-128380475D02*
X210598333Y-128332856D01*
X210598333Y-128332856D02*
X210550714Y-128237618D01*
X210550714Y-128237618D02*
X210550714Y-128094761D01*
X210550714Y-128094761D02*
X210598333Y-127999523D01*
X210598333Y-127999523D02*
X210693571Y-127951904D01*
X210693571Y-127951904D02*
X211217380Y-127951904D01*
X211217380Y-126875713D02*
X210217380Y-126875713D01*
X210217380Y-126875713D02*
X210217380Y-126637618D01*
X210217380Y-126637618D02*
X210265000Y-126494761D01*
X210265000Y-126494761D02*
X210360238Y-126399523D01*
X210360238Y-126399523D02*
X210455476Y-126351904D01*
X210455476Y-126351904D02*
X210645952Y-126304285D01*
X210645952Y-126304285D02*
X210788809Y-126304285D01*
X210788809Y-126304285D02*
X210979285Y-126351904D01*
X210979285Y-126351904D02*
X211074523Y-126399523D01*
X211074523Y-126399523D02*
X211169761Y-126494761D01*
X211169761Y-126494761D02*
X211217380Y-126637618D01*
X211217380Y-126637618D02*
X211217380Y-126875713D01*
X210550714Y-125970951D02*
X211217380Y-125780475D01*
X211217380Y-125780475D02*
X210741190Y-125589999D01*
X210741190Y-125589999D02*
X211217380Y-125399523D01*
X211217380Y-125399523D02*
X210550714Y-125209047D01*
X210550714Y-124399523D02*
X211360238Y-124399523D01*
X211360238Y-124399523D02*
X211455476Y-124447142D01*
X211455476Y-124447142D02*
X211503095Y-124494761D01*
X211503095Y-124494761D02*
X211550714Y-124589999D01*
X211550714Y-124589999D02*
X211550714Y-124732856D01*
X211550714Y-124732856D02*
X211503095Y-124828094D01*
X211169761Y-124399523D02*
X211217380Y-124494761D01*
X211217380Y-124494761D02*
X211217380Y-124685237D01*
X211217380Y-124685237D02*
X211169761Y-124780475D01*
X211169761Y-124780475D02*
X211122142Y-124828094D01*
X211122142Y-124828094D02*
X211026904Y-124875713D01*
X211026904Y-124875713D02*
X210741190Y-124875713D01*
X210741190Y-124875713D02*
X210645952Y-124828094D01*
X210645952Y-124828094D02*
X210598333Y-124780475D01*
X210598333Y-124780475D02*
X210550714Y-124685237D01*
X210550714Y-124685237D02*
X210550714Y-124494761D01*
X210550714Y-124494761D02*
X210598333Y-124399523D01*
X211169761Y-123970951D02*
X211217380Y-123875713D01*
X211217380Y-123875713D02*
X211217380Y-123685237D01*
X211217380Y-123685237D02*
X211169761Y-123589999D01*
X211169761Y-123589999D02*
X211074523Y-123542380D01*
X211074523Y-123542380D02*
X211026904Y-123542380D01*
X211026904Y-123542380D02*
X210931666Y-123589999D01*
X210931666Y-123589999D02*
X210884047Y-123685237D01*
X210884047Y-123685237D02*
X210884047Y-123828094D01*
X210884047Y-123828094D02*
X210836428Y-123923332D01*
X210836428Y-123923332D02*
X210741190Y-123970951D01*
X210741190Y-123970951D02*
X210693571Y-123970951D01*
X210693571Y-123970951D02*
X210598333Y-123923332D01*
X210598333Y-123923332D02*
X210550714Y-123828094D01*
X210550714Y-123828094D02*
X210550714Y-123685237D01*
X210550714Y-123685237D02*
X210598333Y-123589999D01*
X211217380Y-122370951D02*
X211169761Y-122466189D01*
X211169761Y-122466189D02*
X211074523Y-122513808D01*
X211074523Y-122513808D02*
X210217380Y-122513808D01*
X211217380Y-121561427D02*
X210693571Y-121561427D01*
X210693571Y-121561427D02*
X210598333Y-121609046D01*
X210598333Y-121609046D02*
X210550714Y-121704284D01*
X210550714Y-121704284D02*
X210550714Y-121894760D01*
X210550714Y-121894760D02*
X210598333Y-121989998D01*
X211169761Y-121561427D02*
X211217380Y-121656665D01*
X211217380Y-121656665D02*
X211217380Y-121894760D01*
X211217380Y-121894760D02*
X211169761Y-121989998D01*
X211169761Y-121989998D02*
X211074523Y-122037617D01*
X211074523Y-122037617D02*
X210979285Y-122037617D01*
X210979285Y-122037617D02*
X210884047Y-121989998D01*
X210884047Y-121989998D02*
X210836428Y-121894760D01*
X210836428Y-121894760D02*
X210836428Y-121656665D01*
X210836428Y-121656665D02*
X210788809Y-121561427D01*
X210550714Y-121180474D02*
X211217380Y-120942379D01*
X210550714Y-120704284D02*
X211217380Y-120942379D01*
X211217380Y-120942379D02*
X211455476Y-121037617D01*
X211455476Y-121037617D02*
X211503095Y-121085236D01*
X211503095Y-121085236D02*
X211550714Y-121180474D01*
X211169761Y-119942379D02*
X211217380Y-120037617D01*
X211217380Y-120037617D02*
X211217380Y-120228093D01*
X211217380Y-120228093D02*
X211169761Y-120323331D01*
X211169761Y-120323331D02*
X211074523Y-120370950D01*
X211074523Y-120370950D02*
X210693571Y-120370950D01*
X210693571Y-120370950D02*
X210598333Y-120323331D01*
X210598333Y-120323331D02*
X210550714Y-120228093D01*
X210550714Y-120228093D02*
X210550714Y-120037617D01*
X210550714Y-120037617D02*
X210598333Y-119942379D01*
X210598333Y-119942379D02*
X210693571Y-119894760D01*
X210693571Y-119894760D02*
X210788809Y-119894760D01*
X210788809Y-119894760D02*
X210884047Y-120370950D01*
X211217380Y-119466188D02*
X210550714Y-119466188D01*
X210741190Y-119466188D02*
X210645952Y-119418569D01*
X210645952Y-119418569D02*
X210598333Y-119370950D01*
X210598333Y-119370950D02*
X210550714Y-119275712D01*
X210550714Y-119275712D02*
X210550714Y-119180474D01*
%TO.C,REF\u002A\u002A*%
X191437944Y-81432733D02*
G75*
G03*
X191437944Y-81432733I-2800000J0D01*
G01*
X164268071Y-97119267D02*
G75*
G03*
X164268071Y-97119267I-2800000J0D01*
G01*
X191437944Y-50059666D02*
G75*
G03*
X191437944Y-50059666I-2800000J0D01*
G01*
X164268071Y-34373133D02*
G75*
G03*
X164268071Y-34373133I-2800000J0D01*
G01*
X137098198Y-81432733D02*
G75*
G03*
X137098198Y-81432733I-2800000J0D01*
G01*
X137098198Y-50059666D02*
G75*
G03*
X137098198Y-50059666I-2800000J0D01*
G01*
D11*
%TO.C,D2*%
X150209000Y-81076201D02*
X150209000Y-83876201D01*
X150209000Y-83876201D02*
X153409000Y-83876201D01*
X153409000Y-81076201D02*
X150209000Y-81076201D01*
X153409000Y-83876201D02*
X153409000Y-81076201D01*
%TO.C,D12*%
X169527334Y-47615866D02*
X169527334Y-50415866D01*
X169527334Y-50415866D02*
X172727334Y-50415866D01*
X172727334Y-47615866D02*
X169527334Y-47615866D01*
X172727334Y-50415866D02*
X172727334Y-47615866D01*
%TO.C,D10*%
X165663667Y-54307933D02*
X165663667Y-57107933D01*
X165663667Y-57107933D02*
X168863667Y-57107933D01*
X168863667Y-54307933D02*
X165663667Y-54307933D01*
X168863667Y-57107933D02*
X168863667Y-54307933D01*
%TO.C,D11*%
X172259008Y-74384467D02*
X172259008Y-77184467D01*
X172259008Y-77184467D02*
X175459008Y-77184467D01*
X175459008Y-74384467D02*
X172259008Y-74384467D01*
X175459008Y-77184467D02*
X175459008Y-74384467D01*
%TO.C,D4*%
X147477134Y-54307933D02*
X147477134Y-57107933D01*
X147477134Y-57107933D02*
X150677134Y-57107933D01*
X150677134Y-54307933D02*
X147477134Y-54307933D01*
X150677134Y-57107933D02*
X150677134Y-54307933D01*
%TO.C,D6*%
X151340800Y-47615866D02*
X151340800Y-50415866D01*
X151340800Y-50415866D02*
X154540800Y-50415866D01*
X154540800Y-47615866D02*
X151340800Y-47615866D01*
X154540800Y-50415866D02*
X154540800Y-47615866D01*
%TO.C,D3*%
X143613467Y-61000000D02*
X143613467Y-63800000D01*
X143613467Y-63800000D02*
X146813467Y-63800000D01*
X146813467Y-61000000D02*
X143613467Y-61000000D01*
X146813467Y-63800000D02*
X146813467Y-61000000D01*
%TO.C,D9*%
X168395342Y-81076534D02*
X168395342Y-83876534D01*
X168395342Y-83876534D02*
X171595342Y-83876534D01*
X171595342Y-81076534D02*
X168395342Y-81076534D01*
X171595342Y-83876534D02*
X171595342Y-81076534D01*
%TO.C,D7*%
X157936334Y-67692067D02*
X157936334Y-70492067D01*
X157936334Y-70492067D02*
X161136334Y-70492067D01*
X161136334Y-67692067D02*
X157936334Y-67692067D01*
X161136334Y-70492067D02*
X161136334Y-67692067D01*
%TO.C,D13*%
X176122675Y-67692400D02*
X176122675Y-70492400D01*
X176122675Y-70492400D02*
X179322675Y-70492400D01*
X179322675Y-67692400D02*
X176122675Y-67692400D01*
X179322675Y-70492400D02*
X179322675Y-67692400D01*
%TO.C,D8*%
X161800000Y-61000000D02*
X161800000Y-63800000D01*
X161800000Y-63800000D02*
X165000000Y-63800000D01*
X165000000Y-61000000D02*
X161800000Y-61000000D01*
X165000000Y-63800000D02*
X165000000Y-61000000D01*
%TO.C,D5*%
X154072667Y-74384134D02*
X154072667Y-77184134D01*
X154072667Y-77184134D02*
X157272667Y-77184134D01*
X157272667Y-74384134D02*
X154072667Y-74384134D01*
X157272667Y-77184134D02*
X157272667Y-74384134D01*
%TD*%
M02*
