%TF.GenerationSoftware,KiCad,Pcbnew,(7.0.0-0)*%
%TF.CreationDate,2023-03-26T20:27:34-07:00*%
%TF.ProjectId,voron_badge,766f726f-6e5f-4626-9164-67652e6b6963,rev?*%
%TF.SameCoordinates,Original*%
%TF.FileFunction,Paste,Bot*%
%TF.FilePolarity,Positive*%
%FSLAX46Y46*%
G04 Gerber Fmt 4.6, Leading zero omitted, Abs format (unit mm)*
G04 Created by KiCad (PCBNEW (7.0.0-0)) date 2023-03-26 20:27:34*
%MOMM*%
%LPD*%
G01*
G04 APERTURE LIST*
G04 Aperture macros list*
%AMRoundRect*
0 Rectangle with rounded corners*
0 $1 Rounding radius*
0 $2 $3 $4 $5 $6 $7 $8 $9 X,Y pos of 4 corners*
0 Add a 4 corners polygon primitive as box body*
4,1,4,$2,$3,$4,$5,$6,$7,$8,$9,$2,$3,0*
0 Add four circle primitives for the rounded corners*
1,1,$1+$1,$2,$3*
1,1,$1+$1,$4,$5*
1,1,$1+$1,$6,$7*
1,1,$1+$1,$8,$9*
0 Add four rect primitives between the rounded corners*
20,1,$1+$1,$2,$3,$4,$5,0*
20,1,$1+$1,$4,$5,$6,$7,0*
20,1,$1+$1,$6,$7,$8,$9,0*
20,1,$1+$1,$8,$9,$2,$3,0*%
%AMFreePoly0*
4,1,18,-0.800000,0.164000,-0.554000,0.410000,0.677000,0.410000,0.724070,0.400637,0.763974,0.373974,0.790637,0.334070,0.800000,0.287000,0.800000,-0.287000,0.790637,-0.334070,0.763974,-0.373974,0.724070,-0.400637,0.677000,-0.410000,-0.677000,-0.410000,-0.724070,-0.400637,-0.763974,-0.373974,-0.790637,-0.334070,-0.800000,-0.287000,-0.800000,0.164000,-0.800000,0.164000,$1*%
G04 Aperture macros list end*
%ADD10C,1.500000*%
%ADD11RoundRect,0.250000X-1.250000X-0.250000X1.250000X-0.250000X1.250000X0.250000X-1.250000X0.250000X0*%
%ADD12RoundRect,0.750000X2.000000X-0.750000X2.000000X0.750000X-2.000000X0.750000X-2.000000X-0.750000X0*%
%ADD13R,1.300000X1.150000*%
%ADD14R,1.200000X0.900000*%
%ADD15RoundRect,0.200000X-0.200000X-0.275000X0.200000X-0.275000X0.200000X0.275000X-0.200000X0.275000X0*%
%ADD16RoundRect,0.200000X-0.275000X0.200000X-0.275000X-0.200000X0.275000X-0.200000X0.275000X0.200000X0*%
%ADD17R,1.500000X0.650000*%
%ADD18R,0.810000X1.080000*%
%ADD19FreePoly0,0.000000*%
%ADD20R,1.600000X0.820000*%
%ADD21RoundRect,0.250000X0.250000X0.475000X-0.250000X0.475000X-0.250000X-0.475000X0.250000X-0.475000X0*%
%ADD22RoundRect,0.250000X1.500000X-0.250000X1.500000X0.250000X-1.500000X0.250000X-1.500000X-0.250000X0*%
%ADD23RoundRect,0.250001X1.449999X-0.499999X1.449999X0.499999X-1.449999X0.499999X-1.449999X-0.499999X0*%
%ADD24RoundRect,0.200000X0.200000X0.275000X-0.200000X0.275000X-0.200000X-0.275000X0.200000X-0.275000X0*%
%ADD25RoundRect,0.250000X0.475000X-0.250000X0.475000X0.250000X-0.475000X0.250000X-0.475000X-0.250000X0*%
%ADD26RoundRect,0.218750X-0.256250X0.218750X-0.256250X-0.218750X0.256250X-0.218750X0.256250X0.218750X0*%
%ADD27RoundRect,0.250000X-0.475000X0.250000X-0.475000X-0.250000X0.475000X-0.250000X0.475000X0.250000X0*%
%ADD28RoundRect,0.225000X0.375000X-0.225000X0.375000X0.225000X-0.375000X0.225000X-0.375000X-0.225000X0*%
%ADD29RoundRect,0.150000X0.150000X-0.512500X0.150000X0.512500X-0.150000X0.512500X-0.150000X-0.512500X0*%
%ADD30RoundRect,0.150000X0.625000X-0.150000X0.625000X0.150000X-0.625000X0.150000X-0.625000X-0.150000X0*%
%ADD31RoundRect,0.250000X0.650000X-0.350000X0.650000X0.350000X-0.650000X0.350000X-0.650000X-0.350000X0*%
%ADD32RoundRect,0.218750X0.256250X-0.218750X0.256250X0.218750X-0.256250X0.218750X-0.256250X-0.218750X0*%
%ADD33R,1.700000X3.500000*%
%ADD34R,0.650000X1.500000*%
%ADD35R,1.080000X0.810000*%
%ADD36R,3.700000X1.100000*%
%ADD37R,1.150000X1.300000*%
%ADD38R,0.900000X1.200000*%
%ADD39RoundRect,0.200000X0.275000X-0.200000X0.275000X0.200000X-0.275000X0.200000X-0.275000X-0.200000X0*%
%ADD40RoundRect,0.250000X-0.250000X-0.475000X0.250000X-0.475000X0.250000X0.475000X-0.250000X0.475000X0*%
%ADD41RoundRect,0.250000X0.450000X-0.262500X0.450000X0.262500X-0.450000X0.262500X-0.450000X-0.262500X0*%
%ADD42R,2.000000X2.600000*%
%ADD43RoundRect,0.150000X0.150000X-0.587500X0.150000X0.587500X-0.150000X0.587500X-0.150000X-0.587500X0*%
G04 APERTURE END LIST*
D10*
%TO.C,H2*%
X125646615Y-152233517D02*
G75*
G03*
X126670339Y-150370495I-1178544J1860384D01*
G01*
X122267660Y-150463590D02*
G75*
G03*
X123369221Y-152281672I2200411J90457D01*
G01*
X125489939Y-148422292D02*
G75*
G03*
X123364652Y-148467232I-1021868J-1950841D01*
G01*
%TO.C,H1*%
X199646615Y-152233517D02*
G75*
G03*
X200670339Y-150370495I-1178544J1860384D01*
G01*
X196267660Y-150463590D02*
G75*
G03*
X197369221Y-152281672I2200411J90457D01*
G01*
X199489939Y-148422292D02*
G75*
G03*
X197364652Y-148467232I-1021868J-1950841D01*
G01*
%TD*%
D11*
%TO.C,J1*%
X129430000Y-67500000D03*
X129430000Y-65350000D03*
X129430000Y-63050000D03*
X129430000Y-60900000D03*
D12*
X126730000Y-71700000D03*
X126730000Y-56700000D03*
%TD*%
D13*
%TO.C,SW1*%
X119949999Y-49774999D03*
X119949999Y-53124999D03*
D14*
X118399999Y-49149999D03*
X118399999Y-53749999D03*
%TD*%
D15*
%TO.C,R21*%
X133775000Y-61600000D03*
X135425000Y-61600000D03*
%TD*%
D16*
%TO.C,R14*%
X177895000Y-25587500D03*
X177895000Y-27237500D03*
%TD*%
D17*
%TO.C,U3*%
X153719999Y-95429999D03*
X153719999Y-96699999D03*
X153719999Y-97969999D03*
X153719999Y-99239999D03*
X148319999Y-99239999D03*
X148319999Y-97969999D03*
X148319999Y-96699999D03*
X148319999Y-95429999D03*
D18*
X151694999Y-98234999D03*
X151694999Y-96434999D03*
X150344999Y-98234999D03*
X150344999Y-96434999D03*
%TD*%
D19*
%TO.C,D2*%
X149258999Y-81726200D03*
D20*
X149258999Y-83226200D03*
X154358999Y-83226200D03*
X154358999Y-81726200D03*
%TD*%
D16*
%TO.C,R3*%
X197500000Y-116550000D03*
X197500000Y-118200000D03*
%TD*%
D21*
%TO.C,C11*%
X155600000Y-56500000D03*
X153700000Y-56500000D03*
%TD*%
D16*
%TO.C,R7*%
X194400000Y-107475000D03*
X194400000Y-109125000D03*
%TD*%
D22*
%TO.C,J2*%
X139950000Y-95250000D03*
X139950000Y-93250000D03*
D23*
X134200000Y-97600000D03*
X134200000Y-90900000D03*
%TD*%
D21*
%TO.C,C12*%
X159350000Y-49700000D03*
X157450000Y-49700000D03*
%TD*%
D16*
%TO.C,R18*%
X202040000Y-103275000D03*
X202040000Y-104925000D03*
%TD*%
D21*
%TO.C,C4*%
X158450000Y-83600000D03*
X156550000Y-83600000D03*
%TD*%
D19*
%TO.C,D12*%
X168577333Y-48265865D03*
D20*
X168577333Y-49765865D03*
X173677333Y-49765865D03*
X173677333Y-48265865D03*
%TD*%
D19*
%TO.C,D10*%
X164713666Y-54957932D03*
D20*
X164713666Y-56457932D03*
X169813666Y-56457932D03*
X169813666Y-54957932D03*
%TD*%
D24*
%TO.C,R23*%
X135425000Y-65200000D03*
X133775000Y-65200000D03*
%TD*%
%TO.C,R20*%
X135425000Y-63400000D03*
X133775000Y-63400000D03*
%TD*%
D19*
%TO.C,D11*%
X171309007Y-75034466D03*
D20*
X171309007Y-76534466D03*
X176409007Y-76534466D03*
X176409007Y-75034466D03*
%TD*%
D25*
%TO.C,C21*%
X190540000Y-99000000D03*
X190540000Y-97100000D03*
%TD*%
D19*
%TO.C,D4*%
X146527133Y-54957932D03*
D20*
X146527133Y-56457932D03*
X151627133Y-56457932D03*
X151627133Y-54957932D03*
%TD*%
D21*
%TO.C,C1*%
X176650000Y-83300000D03*
X174750000Y-83300000D03*
%TD*%
D26*
%TO.C,D14*%
X167605000Y-25625000D03*
X167605000Y-27200000D03*
%TD*%
D25*
%TO.C,C22*%
X188380000Y-99000000D03*
X188380000Y-97100000D03*
%TD*%
%TO.C,C19*%
X194860000Y-99000000D03*
X194860000Y-97100000D03*
%TD*%
D21*
%TO.C,C2*%
X180300000Y-76500000D03*
X178400000Y-76500000D03*
%TD*%
D26*
%TO.C,D18*%
X153075000Y-25562500D03*
X153075000Y-27137500D03*
%TD*%
D27*
%TO.C,C14*%
X192700000Y-93550000D03*
X192700000Y-95450000D03*
%TD*%
D21*
%TO.C,C8*%
X174000000Y-56700000D03*
X172100000Y-56700000D03*
%TD*%
D19*
%TO.C,D6*%
X150390799Y-48265865D03*
D20*
X150390799Y-49765865D03*
X155490799Y-49765865D03*
X155490799Y-48265865D03*
%TD*%
D28*
%TO.C,D1*%
X200600000Y-116500000D03*
X200600000Y-113200000D03*
%TD*%
D29*
%TO.C,U1*%
X168650000Y-88837500D03*
X167700000Y-88837500D03*
X166750000Y-88837500D03*
X166750000Y-86562500D03*
X168650000Y-86562500D03*
%TD*%
D16*
%TO.C,R1*%
X202900000Y-148200000D03*
X202900000Y-149850000D03*
%TD*%
D19*
%TO.C,D3*%
X142663466Y-61649999D03*
D20*
X142663466Y-63149999D03*
X147763466Y-63149999D03*
X147763466Y-61649999D03*
%TD*%
D30*
%TO.C,CN1*%
X150000000Y-129000000D03*
X150000000Y-128000000D03*
X150000000Y-127000000D03*
X150000000Y-126000000D03*
D31*
X146125000Y-130300000D03*
X146125000Y-124700000D03*
%TD*%
D32*
%TO.C,D17*%
X175375000Y-27200000D03*
X175375000Y-25625000D03*
%TD*%
D16*
%TO.C,R19*%
X200440000Y-103275000D03*
X200440000Y-104925000D03*
%TD*%
%TO.C,R11*%
X194900000Y-90075000D03*
X194900000Y-91725000D03*
%TD*%
D33*
%TO.C,U2*%
X204779999Y-143379999D03*
X202239999Y-143379999D03*
X199699999Y-143379999D03*
X197159999Y-143379999D03*
X194619999Y-143379999D03*
X192079999Y-143379999D03*
X189539999Y-143379999D03*
X186999999Y-143379999D03*
X184459999Y-143379999D03*
X181919999Y-143379999D03*
X179379999Y-143379999D03*
X176839999Y-143379999D03*
X174299999Y-143379999D03*
X171759999Y-143379999D03*
X169219999Y-143379999D03*
X166679999Y-143379999D03*
X164139999Y-143379999D03*
X161599999Y-143379999D03*
X159059999Y-143379999D03*
X156519999Y-143379999D03*
X156519999Y-123799999D03*
X159059999Y-123799999D03*
X161599999Y-123799999D03*
X164139999Y-123799999D03*
X166679999Y-123799999D03*
X169219999Y-123799999D03*
X171759999Y-123799999D03*
X174299999Y-123799999D03*
X176839999Y-123799999D03*
X179379999Y-123799999D03*
X181919999Y-123799999D03*
X184459999Y-123799999D03*
X186999999Y-123799999D03*
X189539999Y-123799999D03*
X192079999Y-123799999D03*
X194619999Y-123799999D03*
X197159999Y-123799999D03*
X199699999Y-123799999D03*
X202239999Y-123799999D03*
X204779999Y-123799999D03*
%TD*%
D15*
%TO.C,R24*%
X133775000Y-67000000D03*
X135425000Y-67000000D03*
%TD*%
D32*
%TO.C,D15*%
X170195000Y-27200000D03*
X170195000Y-25625000D03*
%TD*%
D34*
%TO.C,U4*%
X197099999Y-93724999D03*
X198369999Y-93724999D03*
X199639999Y-93724999D03*
X200909999Y-93724999D03*
X200909999Y-99124999D03*
X199639999Y-99124999D03*
X198369999Y-99124999D03*
X197099999Y-99124999D03*
D35*
X199904999Y-95749999D03*
X198104999Y-95749999D03*
X199904999Y-97099999D03*
X198104999Y-97099999D03*
%TD*%
D19*
%TO.C,D9*%
X167445341Y-81726533D03*
D20*
X167445341Y-83226533D03*
X172545341Y-83226533D03*
X172545341Y-81726533D03*
%TD*%
D36*
%TO.C,L1*%
X197239999Y-101999999D03*
X197239999Y-104999999D03*
%TD*%
D37*
%TO.C,SW2*%
X149749999Y-27099999D03*
X146399999Y-27099999D03*
D38*
X150374999Y-25549999D03*
X145774999Y-25549999D03*
%TD*%
D16*
%TO.C,R22*%
X155475000Y-25525000D03*
X155475000Y-27175000D03*
%TD*%
D39*
%TO.C,R12*%
X192700000Y-91725000D03*
X192700000Y-90075000D03*
%TD*%
D16*
%TO.C,R13*%
X177895000Y-29187500D03*
X177895000Y-30837500D03*
%TD*%
D40*
%TO.C,C17*%
X200490000Y-101400000D03*
X202390000Y-101400000D03*
%TD*%
D16*
%TO.C,R15*%
X133300000Y-57775000D03*
X133300000Y-59425000D03*
%TD*%
D19*
%TO.C,D7*%
X156986333Y-68342066D03*
D20*
X156986333Y-69842066D03*
X162086333Y-69842066D03*
X162086333Y-68342066D03*
%TD*%
D19*
%TO.C,D13*%
X175172674Y-68342399D03*
D20*
X175172674Y-69842399D03*
X180272674Y-69842399D03*
X180272674Y-68342399D03*
%TD*%
D19*
%TO.C,D8*%
X160849999Y-61649999D03*
D20*
X160849999Y-63149999D03*
X165949999Y-63149999D03*
X165949999Y-61649999D03*
%TD*%
D21*
%TO.C,C9*%
X177550000Y-49800000D03*
X175650000Y-49800000D03*
%TD*%
D39*
%TO.C,R16*%
X157875000Y-27175000D03*
X157875000Y-25525000D03*
%TD*%
D25*
%TO.C,C20*%
X192700000Y-99000000D03*
X192700000Y-97100000D03*
%TD*%
D21*
%TO.C,C7*%
X170000000Y-63400000D03*
X168100000Y-63400000D03*
%TD*%
%TO.C,C10*%
X151750000Y-63200000D03*
X149850000Y-63200000D03*
%TD*%
D41*
%TO.C,F1*%
X204000000Y-112025000D03*
X204000000Y-110200000D03*
%TD*%
D16*
%TO.C,R5*%
X195300000Y-116550000D03*
X195300000Y-118200000D03*
%TD*%
D27*
%TO.C,C15*%
X194900000Y-93550000D03*
X194900000Y-95450000D03*
%TD*%
D21*
%TO.C,C16*%
X151895000Y-93235000D03*
X149995000Y-93235000D03*
%TD*%
%TO.C,C6*%
X166000000Y-70100000D03*
X164100000Y-70100000D03*
%TD*%
%TO.C,C5*%
X162100000Y-76800000D03*
X160200000Y-76800000D03*
%TD*%
D26*
%TO.C,D16*%
X172785000Y-25625000D03*
X172785000Y-27200000D03*
%TD*%
D16*
%TO.C,R4*%
X195280000Y-113150000D03*
X195280000Y-114800000D03*
%TD*%
D21*
%TO.C,C3*%
X184300000Y-69800000D03*
X182400000Y-69800000D03*
%TD*%
D19*
%TO.C,D5*%
X153122666Y-75034133D03*
D20*
X153122666Y-76534133D03*
X158222666Y-76534133D03*
X158222666Y-75034133D03*
%TD*%
D15*
%TO.C,R8*%
X118175000Y-55650000D03*
X119825000Y-55650000D03*
%TD*%
D40*
%TO.C,C18*%
X197690000Y-107300000D03*
X199590000Y-107300000D03*
%TD*%
D39*
%TO.C,R6*%
X203100000Y-116925000D03*
X203100000Y-115275000D03*
%TD*%
D21*
%TO.C,C13*%
X146295000Y-98035000D03*
X144395000Y-98035000D03*
%TD*%
D24*
%TO.C,R10*%
X146345000Y-100170000D03*
X144695000Y-100170000D03*
%TD*%
D42*
%TO.C,J3*%
X133399999Y-156799999D03*
X137399999Y-156799999D03*
X141399999Y-156799999D03*
X145399999Y-156799999D03*
X149399999Y-156799999D03*
X153399999Y-156799999D03*
X157399999Y-156799999D03*
X161399999Y-156799999D03*
X165399999Y-156799999D03*
X169399999Y-156799999D03*
X173399999Y-156799999D03*
X177399999Y-156799999D03*
X181399999Y-156799999D03*
X185399999Y-156799999D03*
X189399999Y-156799999D03*
%TD*%
D24*
%TO.C,R17*%
X155100000Y-29550000D03*
X153450000Y-29550000D03*
%TD*%
D16*
%TO.C,R2*%
X197500000Y-113150000D03*
X197500000Y-114800000D03*
%TD*%
D43*
%TO.C,Q1*%
X139550000Y-64537500D03*
X137650000Y-64537500D03*
X138600000Y-62662500D03*
%TD*%
M02*
