%TF.GenerationSoftware,KiCad,Pcbnew,(7.0.0-0)*%
%TF.CreationDate,2023-03-26T20:27:34-07:00*%
%TF.ProjectId,voron_badge,766f726f-6e5f-4626-9164-67652e6b6963,rev?*%
%TF.SameCoordinates,Original*%
%TF.FileFunction,Profile,NP*%
%FSLAX46Y46*%
G04 Gerber Fmt 4.6, Leading zero omitted, Abs format (unit mm)*
G04 Created by KiCad (PCBNEW (7.0.0-0)) date 2023-03-26 20:27:34*
%MOMM*%
%LPD*%
G01*
G04 APERTURE LIST*
%TA.AperFunction,Profile*%
%ADD10C,0.100000*%
%TD*%
%TA.AperFunction,Profile*%
%ADD11C,0.120000*%
%TD*%
G04 APERTURE END LIST*
D10*
X116468071Y-150373133D02*
X132056528Y-159373133D01*
X188328171Y-33292362D02*
X200019514Y-40042362D01*
X132357971Y-29395247D02*
X120666628Y-36145247D01*
X190879614Y-159373133D02*
X206468071Y-150373133D01*
X190879614Y-24373133D02*
X132056528Y-24373133D01*
X200019511Y-40042367D02*
G75*
G03*
X202269514Y-36145247I1124989J1948567D01*
G01*
X132056528Y-24373133D02*
X116468071Y-33373133D01*
X134607981Y-33292380D02*
G75*
G03*
X132357971Y-29395248I-1124981J1948580D01*
G01*
X206468071Y-33373133D02*
X190879614Y-24373133D01*
X202269514Y-36145247D02*
X190578171Y-29395247D01*
X206468071Y-150373133D02*
X206468071Y-33373133D01*
X132056528Y-159373133D02*
X190879614Y-159373133D01*
X122916628Y-40042362D02*
X134607971Y-33292362D01*
X190578189Y-29395216D02*
G75*
G03*
X188328171Y-33292361I-1124989J-1948584D01*
G01*
X116468071Y-33373133D02*
X116468071Y-150373133D01*
X120666610Y-36145216D02*
G75*
G03*
X122916628Y-40042362I1124990J-1948584D01*
G01*
D11*
%TO.C,D2*%
X150009000Y-84076201D02*
X153609000Y-84076201D01*
X153609000Y-84076201D02*
X153609000Y-80876201D01*
X153609000Y-80876201D02*
X150009000Y-80876201D01*
X150009000Y-80876201D02*
X150009000Y-84076201D01*
%TO.C,D12*%
X169327334Y-50615866D02*
X172927334Y-50615866D01*
X172927334Y-50615866D02*
X172927334Y-47415866D01*
X172927334Y-47415866D02*
X169327334Y-47415866D01*
X169327334Y-47415866D02*
X169327334Y-50615866D01*
%TO.C,D10*%
X165463667Y-57307933D02*
X169063667Y-57307933D01*
X169063667Y-57307933D02*
X169063667Y-54107933D01*
X169063667Y-54107933D02*
X165463667Y-54107933D01*
X165463667Y-54107933D02*
X165463667Y-57307933D01*
%TO.C,D11*%
X172059008Y-77384467D02*
X175659008Y-77384467D01*
X175659008Y-77384467D02*
X175659008Y-74184467D01*
X175659008Y-74184467D02*
X172059008Y-74184467D01*
X172059008Y-74184467D02*
X172059008Y-77384467D01*
%TO.C,D4*%
X147277134Y-57307933D02*
X150877134Y-57307933D01*
X150877134Y-57307933D02*
X150877134Y-54107933D01*
X150877134Y-54107933D02*
X147277134Y-54107933D01*
X147277134Y-54107933D02*
X147277134Y-57307933D01*
%TO.C,D6*%
X151140800Y-50615866D02*
X154740800Y-50615866D01*
X154740800Y-50615866D02*
X154740800Y-47415866D01*
X154740800Y-47415866D02*
X151140800Y-47415866D01*
X151140800Y-47415866D02*
X151140800Y-50615866D01*
%TO.C,D3*%
X143413467Y-64000000D02*
X147013467Y-64000000D01*
X147013467Y-64000000D02*
X147013467Y-60800000D01*
X147013467Y-60800000D02*
X143413467Y-60800000D01*
X143413467Y-60800000D02*
X143413467Y-64000000D01*
%TO.C,D9*%
X168195342Y-84076534D02*
X171795342Y-84076534D01*
X171795342Y-84076534D02*
X171795342Y-80876534D01*
X171795342Y-80876534D02*
X168195342Y-80876534D01*
X168195342Y-80876534D02*
X168195342Y-84076534D01*
%TO.C,D7*%
X157736334Y-70692067D02*
X161336334Y-70692067D01*
X161336334Y-70692067D02*
X161336334Y-67492067D01*
X161336334Y-67492067D02*
X157736334Y-67492067D01*
X157736334Y-67492067D02*
X157736334Y-70692067D01*
%TO.C,D13*%
X175922675Y-70692400D02*
X179522675Y-70692400D01*
X179522675Y-70692400D02*
X179522675Y-67492400D01*
X179522675Y-67492400D02*
X175922675Y-67492400D01*
X175922675Y-67492400D02*
X175922675Y-70692400D01*
%TO.C,D8*%
X161600000Y-64000000D02*
X165200000Y-64000000D01*
X165200000Y-64000000D02*
X165200000Y-60800000D01*
X165200000Y-60800000D02*
X161600000Y-60800000D01*
X161600000Y-60800000D02*
X161600000Y-64000000D01*
%TO.C,D5*%
X153872667Y-77384134D02*
X157472667Y-77384134D01*
X157472667Y-77384134D02*
X157472667Y-74184134D01*
X157472667Y-74184134D02*
X153872667Y-74184134D01*
X153872667Y-74184134D02*
X153872667Y-77384134D01*
%TD*%
M02*
