%TF.GenerationSoftware,KiCad,Pcbnew,(7.0.0-0)*%
%TF.CreationDate,2023-03-26T20:27:34-07:00*%
%TF.ProjectId,voron_badge,766f726f-6e5f-4626-9164-67652e6b6963,rev?*%
%TF.SameCoordinates,Original*%
%TF.FileFunction,Soldermask,Top*%
%TF.FilePolarity,Negative*%
%FSLAX46Y46*%
G04 Gerber Fmt 4.6, Leading zero omitted, Abs format (unit mm)*
G04 Created by KiCad (PCBNEW (7.0.0-0)) date 2023-03-26 20:27:34*
%MOMM*%
%LPD*%
G01*
G04 APERTURE LIST*
G04 Aperture macros list*
%AMOutline5P*
0 Free polygon, 5 corners , with rotation*
0 The origin of the aperture is its center*
0 number of corners: always 5*
0 $1 to $10 corner X, Y*
0 $11 Rotation angle, in degrees counterclockwise*
0 create outline with 5 corners*
4,1,5,$1,$2,$3,$4,$5,$6,$7,$8,$9,$10,$1,$2,$11*%
%AMOutline6P*
0 Free polygon, 6 corners , with rotation*
0 The origin of the aperture is its center*
0 number of corners: always 6*
0 $1 to $12 corner X, Y*
0 $13 Rotation angle, in degrees counterclockwise*
0 create outline with 6 corners*
4,1,6,$1,$2,$3,$4,$5,$6,$7,$8,$9,$10,$11,$12,$1,$2,$13*%
%AMOutline7P*
0 Free polygon, 7 corners , with rotation*
0 The origin of the aperture is its center*
0 number of corners: always 7*
0 $1 to $14 corner X, Y*
0 $15 Rotation angle, in degrees counterclockwise*
0 create outline with 7 corners*
4,1,7,$1,$2,$3,$4,$5,$6,$7,$8,$9,$10,$11,$12,$13,$14,$1,$2,$15*%
%AMOutline8P*
0 Free polygon, 8 corners , with rotation*
0 The origin of the aperture is its center*
0 number of corners: always 8*
0 $1 to $16 corner X, Y*
0 $17 Rotation angle, in degrees counterclockwise*
0 create outline with 8 corners*
4,1,8,$1,$2,$3,$4,$5,$6,$7,$8,$9,$10,$11,$12,$13,$14,$15,$16,$1,$2,$17*%
G04 Aperture macros list end*
%ADD10C,0.000000*%
%ADD11C,3.200000*%
%ADD12Outline8P,-1.500000X1.400000X-0.900000X2.000000X0.900000X2.000000X1.500000X1.400000X1.500000X-1.400000X0.900000X-2.000000X-0.900000X-2.000000X-1.500000X-1.400000X0.000000*%
%ADD13C,1.300000*%
%ADD14C,0.600000*%
%ADD15C,0.900000*%
G04 APERTURE END LIST*
D10*
G36*
X172644254Y-85947471D02*
G01*
X163577865Y-85947471D01*
X175148974Y-65874425D01*
X184250635Y-65874425D01*
X172644254Y-85947471D01*
G37*
G36*
X204923411Y-143414961D02*
G01*
X204923411Y-146237185D01*
X195363136Y-149694399D01*
X195363136Y-147366061D01*
X203018412Y-144790795D01*
X203018412Y-144720228D01*
X195363136Y-142144962D01*
X195363136Y-139887181D01*
X204923411Y-143414961D01*
G37*
G36*
X195257360Y-113958018D02*
G01*
X196880083Y-113958018D01*
X196884975Y-114239139D01*
X196899376Y-114500415D01*
X196910013Y-114623612D01*
X196922872Y-114741848D01*
X196937901Y-114855122D01*
X196955049Y-114963436D01*
X196974265Y-115066789D01*
X196995495Y-115165182D01*
X197018690Y-115258613D01*
X197043796Y-115347083D01*
X197070763Y-115430593D01*
X197099539Y-115509142D01*
X197130071Y-115582730D01*
X197162309Y-115651357D01*
X197179260Y-115683913D01*
X197197044Y-115715435D01*
X197215668Y-115745924D01*
X197235138Y-115775379D01*
X197255460Y-115803801D01*
X197276642Y-115831189D01*
X197298690Y-115857544D01*
X197321609Y-115882865D01*
X197345407Y-115907153D01*
X197370090Y-115930407D01*
X197395664Y-115952628D01*
X197422137Y-115973815D01*
X197449513Y-115993969D01*
X197477801Y-116013089D01*
X197507005Y-116031176D01*
X197537134Y-116048229D01*
X197568192Y-116064249D01*
X197600188Y-116079235D01*
X197633126Y-116093188D01*
X197667014Y-116106107D01*
X197701858Y-116117993D01*
X197737664Y-116128845D01*
X197774440Y-116138663D01*
X197812190Y-116147448D01*
X197850923Y-116155200D01*
X197890644Y-116161918D01*
X197931360Y-116167602D01*
X197973077Y-116172253D01*
X198015802Y-116175871D01*
X198059541Y-116178455D01*
X198150087Y-116180522D01*
X202348135Y-116180522D01*
X202394015Y-116179703D01*
X202439018Y-116177283D01*
X202483090Y-116173312D01*
X202526180Y-116167842D01*
X202568236Y-116160925D01*
X202609207Y-116152613D01*
X202649042Y-116142958D01*
X202687687Y-116132010D01*
X202725092Y-116119822D01*
X202761205Y-116106446D01*
X202795975Y-116091934D01*
X202829349Y-116076336D01*
X202861275Y-116059705D01*
X202891703Y-116042093D01*
X202920581Y-116023550D01*
X202947856Y-116004130D01*
X202980111Y-115977249D01*
X203010764Y-115949490D01*
X203039867Y-115920801D01*
X203067471Y-115891131D01*
X203093629Y-115860427D01*
X203118391Y-115828637D01*
X203141809Y-115795711D01*
X203163935Y-115761597D01*
X203184822Y-115726242D01*
X203204519Y-115689595D01*
X203223080Y-115651604D01*
X203240555Y-115612219D01*
X203256997Y-115571386D01*
X203272458Y-115529054D01*
X203286987Y-115485172D01*
X203300639Y-115439687D01*
X203325513Y-115348667D01*
X203347493Y-115260541D01*
X203366992Y-115174896D01*
X203384424Y-115091319D01*
X203400201Y-115009395D01*
X203414738Y-114928712D01*
X203441742Y-114769409D01*
X203447954Y-114728903D01*
X203453390Y-114686795D01*
X203462143Y-114597981D01*
X203468415Y-114503378D01*
X203472619Y-114403402D01*
X203475169Y-114298465D01*
X203476479Y-114188980D01*
X203477030Y-113958018D01*
X203465314Y-113829036D01*
X203456078Y-113706666D01*
X203441743Y-113481770D01*
X203434990Y-113379243D01*
X203427410Y-113283331D01*
X203418177Y-113194033D01*
X203406464Y-113111349D01*
X203379455Y-112947091D01*
X203364918Y-112862067D01*
X203349141Y-112776215D01*
X203331711Y-112690364D01*
X203312213Y-112605340D01*
X203290234Y-112521970D01*
X203278185Y-112481164D01*
X203265361Y-112441082D01*
X203251709Y-112395606D01*
X203237179Y-112351783D01*
X203221719Y-112309615D01*
X203205277Y-112269100D01*
X203187802Y-112230239D01*
X203169241Y-112193031D01*
X203149543Y-112157477D01*
X203128657Y-112123577D01*
X203106531Y-112091330D01*
X203083112Y-112060737D01*
X203058350Y-112031798D01*
X203032193Y-112004513D01*
X203004589Y-111978881D01*
X202975486Y-111954902D01*
X202944833Y-111932578D01*
X202912577Y-111911907D01*
X202879489Y-111892487D01*
X202846296Y-111873945D01*
X202812897Y-111856333D01*
X202779187Y-111839703D01*
X202745064Y-111824106D01*
X202710424Y-111809594D01*
X202675163Y-111796219D01*
X202639179Y-111784032D01*
X202602368Y-111773085D01*
X202564627Y-111763431D01*
X202525852Y-111755120D01*
X202485940Y-111748204D01*
X202444788Y-111742734D01*
X202402292Y-111738764D01*
X202358349Y-111736344D01*
X202312856Y-111735526D01*
X198114808Y-111735526D01*
X198030472Y-111737593D01*
X197949443Y-111743793D01*
X197871722Y-111754128D01*
X197797307Y-111768597D01*
X197726201Y-111787200D01*
X197658401Y-111809938D01*
X197593909Y-111836809D01*
X197532724Y-111867814D01*
X197474846Y-111902954D01*
X197420276Y-111942227D01*
X197369013Y-111985635D01*
X197321058Y-112033178D01*
X197276410Y-112084854D01*
X197235069Y-112140665D01*
X197197035Y-112200610D01*
X197162309Y-112264690D01*
X197130071Y-112333316D01*
X197099539Y-112406902D01*
X197070763Y-112485450D01*
X197043796Y-112568959D01*
X197018690Y-112657429D01*
X196995495Y-112750861D01*
X196974265Y-112849253D01*
X196955049Y-112952606D01*
X196937901Y-113060920D01*
X196922872Y-113174194D01*
X196910013Y-113292430D01*
X196899376Y-113415626D01*
X196891013Y-113543783D01*
X196884975Y-113676901D01*
X196881314Y-113814980D01*
X196880083Y-113958018D01*
X195257360Y-113958018D01*
X195257852Y-113662574D01*
X195261711Y-113358302D01*
X195265914Y-113216089D01*
X195272184Y-113080489D01*
X195280935Y-112951504D01*
X195292579Y-112829133D01*
X195307464Y-112706833D01*
X195325655Y-112578332D01*
X195347152Y-112444042D01*
X195371957Y-112304378D01*
X195400069Y-112159753D01*
X195431488Y-112010580D01*
X195466215Y-111857274D01*
X195504249Y-111700247D01*
X195558750Y-111531577D01*
X195616144Y-111369521D01*
X195676020Y-111214079D01*
X195737963Y-111065252D01*
X195801559Y-110923039D01*
X195866396Y-110787440D01*
X195932059Y-110658454D01*
X195998135Y-110536083D01*
X196038254Y-110477369D01*
X196079303Y-110420257D01*
X196121385Y-110364696D01*
X196164604Y-110310633D01*
X196209063Y-110258017D01*
X196254866Y-110206797D01*
X196302115Y-110156920D01*
X196350915Y-110108335D01*
X196401369Y-110060991D01*
X196453579Y-110014835D01*
X196507650Y-109969816D01*
X196563684Y-109925883D01*
X196621786Y-109882984D01*
X196682058Y-109841066D01*
X196744603Y-109800079D01*
X196809526Y-109759971D01*
X196876895Y-109721523D01*
X196946641Y-109685556D01*
X197018661Y-109652070D01*
X197092851Y-109621064D01*
X197169109Y-109592539D01*
X197247330Y-109566494D01*
X197327411Y-109542930D01*
X197409249Y-109521847D01*
X197492741Y-109503244D01*
X197577783Y-109487122D01*
X197664272Y-109473480D01*
X197752105Y-109462318D01*
X197841178Y-109453637D01*
X197931387Y-109447437D01*
X198022630Y-109443716D01*
X198114803Y-109442476D01*
X202312856Y-109442476D01*
X202411248Y-109444130D01*
X202507986Y-109449090D01*
X202603070Y-109457359D01*
X202696500Y-109468934D01*
X202788277Y-109483816D01*
X202878400Y-109502006D01*
X202966870Y-109523503D01*
X203053686Y-109548308D01*
X203138848Y-109576419D01*
X203222356Y-109607838D01*
X203304211Y-109642565D01*
X203384412Y-109680598D01*
X203462960Y-109721939D01*
X203539853Y-109766587D01*
X203615093Y-109814543D01*
X203688680Y-109865806D01*
X203760210Y-109919963D01*
X203829310Y-109976601D01*
X203896034Y-110035719D01*
X203960432Y-110097318D01*
X204022555Y-110161397D01*
X204082457Y-110227956D01*
X204140188Y-110296995D01*
X204195801Y-110368515D01*
X204249346Y-110442515D01*
X204300876Y-110518996D01*
X204350442Y-110597957D01*
X204398096Y-110679399D01*
X204443890Y-110763321D01*
X204487876Y-110849723D01*
X204530104Y-110938606D01*
X204570628Y-111029969D01*
X204634707Y-111196575D01*
X204694652Y-111365661D01*
X204750463Y-111537227D01*
X204802140Y-111711274D01*
X204849682Y-111887801D01*
X204893090Y-112066809D01*
X204932364Y-112248297D01*
X204967503Y-112432266D01*
X204998509Y-112618715D01*
X205025380Y-112807644D01*
X205048117Y-112999054D01*
X205066720Y-113192944D01*
X205081189Y-113389314D01*
X205091524Y-113588165D01*
X205097725Y-113789496D01*
X205099792Y-113993307D01*
X205098142Y-114178377D01*
X205093183Y-114362619D01*
X205084917Y-114545209D01*
X205073342Y-114725318D01*
X205058460Y-114902120D01*
X205040270Y-115074789D01*
X205018772Y-115242498D01*
X204993967Y-115404419D01*
X204965786Y-115576463D01*
X204933884Y-115748922D01*
X204897848Y-115922209D01*
X204857264Y-116096737D01*
X204811719Y-116272919D01*
X204760800Y-116451168D01*
X204704093Y-116631898D01*
X204641184Y-116815521D01*
X204606872Y-116913105D01*
X204570080Y-117007484D01*
X204530806Y-117098763D01*
X204489052Y-117187044D01*
X204444818Y-117272431D01*
X204398103Y-117355027D01*
X204348907Y-117434936D01*
X204297231Y-117512261D01*
X204243074Y-117587106D01*
X204186437Y-117659573D01*
X204127319Y-117729766D01*
X204065721Y-117797789D01*
X204001643Y-117863744D01*
X203935084Y-117927736D01*
X203866044Y-117989867D01*
X203794525Y-118050242D01*
X203720534Y-118107715D01*
X203644113Y-118161106D01*
X203565316Y-118210466D01*
X203484192Y-118255846D01*
X203400795Y-118297299D01*
X203315175Y-118334876D01*
X203227385Y-118368629D01*
X203137477Y-118398610D01*
X203045501Y-118424870D01*
X202951510Y-118447460D01*
X202855555Y-118466433D01*
X202757688Y-118481841D01*
X202657961Y-118493735D01*
X202556425Y-118502166D01*
X202453132Y-118507187D01*
X202348135Y-118508849D01*
X198150082Y-118508849D01*
X198064505Y-118507609D01*
X197979756Y-118503889D01*
X197895833Y-118497688D01*
X197812737Y-118489007D01*
X197730468Y-118477845D01*
X197649026Y-118464204D01*
X197568411Y-118448081D01*
X197488623Y-118429478D01*
X197409661Y-118408395D01*
X197331526Y-118384831D01*
X197254218Y-118358787D01*
X197177737Y-118330262D01*
X197102082Y-118299256D01*
X197027254Y-118265770D01*
X196953253Y-118229803D01*
X196880078Y-118191355D01*
X196808549Y-118150849D01*
X196739449Y-118108741D01*
X196672726Y-118065083D01*
X196608329Y-118019926D01*
X196546206Y-117973323D01*
X196486304Y-117925324D01*
X196428574Y-117875982D01*
X196372962Y-117825349D01*
X196319416Y-117773475D01*
X196267887Y-117720413D01*
X196218321Y-117666213D01*
X196170666Y-117610929D01*
X196124873Y-117554611D01*
X196080887Y-117497312D01*
X196038659Y-117439082D01*
X195998135Y-117379974D01*
X195932128Y-117269319D01*
X195866947Y-117149568D01*
X195803419Y-117021549D01*
X195772534Y-116954696D01*
X195742372Y-116886087D01*
X195713037Y-116815823D01*
X195684632Y-116744009D01*
X195657260Y-116670749D01*
X195631025Y-116596144D01*
X195606031Y-116520299D01*
X195582380Y-116443317D01*
X195560176Y-116365302D01*
X195539522Y-116286357D01*
X195489845Y-116127743D01*
X195446368Y-115969957D01*
X195408678Y-115813827D01*
X195376363Y-115660177D01*
X195349008Y-115509834D01*
X195326202Y-115363625D01*
X195307530Y-115222377D01*
X195292579Y-115086914D01*
X195280935Y-114954555D01*
X195272184Y-114821782D01*
X195265914Y-114688181D01*
X195261711Y-114553340D01*
X195257852Y-114278284D01*
X195257301Y-113993307D01*
X195257360Y-113958018D01*
G37*
G36*
X204923411Y-100869963D02*
G01*
X198291190Y-105491356D01*
X204923411Y-105491356D01*
X204923411Y-107537468D01*
X195363136Y-107537468D01*
X195363136Y-105209129D01*
X201889517Y-100587742D01*
X195363136Y-100587742D01*
X195363136Y-98541630D01*
X204923411Y-98541630D01*
X204923411Y-100869963D01*
G37*
G36*
X195363136Y-123835783D02*
G01*
X195369819Y-123376001D01*
X195390145Y-122948878D01*
X195424527Y-122554001D01*
X195447118Y-122368526D01*
X195473378Y-122190957D01*
X195503359Y-122021243D01*
X195537112Y-121859333D01*
X195574690Y-121705174D01*
X195616143Y-121558715D01*
X195661524Y-121419905D01*
X195710884Y-121288691D01*
X195764275Y-121165022D01*
X195821749Y-121048847D01*
X195852033Y-120996757D01*
X195883363Y-120946321D01*
X195915753Y-120897539D01*
X195949216Y-120850410D01*
X195983763Y-120804935D01*
X196019409Y-120761113D01*
X196056166Y-120718945D01*
X196094046Y-120678431D01*
X196133064Y-120639570D01*
X196173231Y-120602363D01*
X196214562Y-120566809D01*
X196257067Y-120532910D01*
X196300762Y-120500663D01*
X196345658Y-120470071D01*
X196391768Y-120441132D01*
X196439106Y-120413846D01*
X196487684Y-120388215D01*
X196537515Y-120364237D01*
X196588612Y-120341912D01*
X196640988Y-120321242D01*
X196694656Y-120302225D01*
X196749629Y-120284861D01*
X196805919Y-120269151D01*
X196863541Y-120255095D01*
X196922505Y-120242693D01*
X196982827Y-120231944D01*
X197044517Y-120222849D01*
X197107590Y-120215407D01*
X197172059Y-120209619D01*
X197237935Y-120205485D01*
X197373964Y-120202178D01*
X199067302Y-120202178D01*
X199171491Y-120204650D01*
X199272423Y-120212031D01*
X199370152Y-120224270D01*
X199464728Y-120241315D01*
X199556204Y-120263114D01*
X199644630Y-120289616D01*
X199730060Y-120320768D01*
X199812544Y-120356521D01*
X199892134Y-120396820D01*
X199968882Y-120441616D01*
X200042839Y-120490855D01*
X200114058Y-120544488D01*
X200182589Y-120602461D01*
X200248484Y-120664723D01*
X200311795Y-120731223D01*
X200372575Y-120801909D01*
X200430857Y-120876324D01*
X200486607Y-120954046D01*
X200539774Y-121035076D01*
X200590305Y-121119412D01*
X200638149Y-121207056D01*
X200683254Y-121298006D01*
X200725568Y-121392264D01*
X200765041Y-121489829D01*
X200801619Y-121590701D01*
X200835252Y-121694880D01*
X200865887Y-121802366D01*
X200893474Y-121913159D01*
X200917960Y-122027259D01*
X200939293Y-122144667D01*
X200957422Y-122265381D01*
X200972296Y-122389403D01*
X204923411Y-119602467D01*
X204923411Y-122248300D01*
X201148687Y-124753019D01*
X201148687Y-125811358D01*
X204923411Y-125811358D01*
X204923411Y-128104408D01*
X195363136Y-128104408D01*
X195363136Y-125846637D01*
X195363136Y-123871082D01*
X196985908Y-123871082D01*
X196985908Y-125846637D01*
X199631740Y-125846637D01*
X199631740Y-123835803D01*
X199667024Y-123835803D01*
X199663716Y-123644116D01*
X199659582Y-123553492D01*
X199653794Y-123466485D01*
X199646353Y-123383199D01*
X199637258Y-123303738D01*
X199626509Y-123228204D01*
X199614106Y-123156701D01*
X199600050Y-123089332D01*
X199584340Y-123026201D01*
X199566977Y-122967410D01*
X199547959Y-122913064D01*
X199527288Y-122863265D01*
X199504964Y-122818116D01*
X199480986Y-122777722D01*
X199455354Y-122742186D01*
X199441711Y-122722753D01*
X199427242Y-122704134D01*
X199411946Y-122686317D01*
X199395823Y-122669287D01*
X199378874Y-122653033D01*
X199361097Y-122637540D01*
X199342493Y-122622798D01*
X199323063Y-122608791D01*
X199302806Y-122595508D01*
X199281722Y-122582936D01*
X199259811Y-122571062D01*
X199237074Y-122559872D01*
X199213509Y-122549354D01*
X199189118Y-122539495D01*
X199163900Y-122530282D01*
X199137855Y-122521701D01*
X199083284Y-122506389D01*
X199025407Y-122493453D01*
X198964222Y-122482791D01*
X198899730Y-122474300D01*
X198831930Y-122467875D01*
X198760824Y-122463414D01*
X198686410Y-122460813D01*
X198608690Y-122459969D01*
X197938412Y-122459969D01*
X197873506Y-122461210D01*
X197811081Y-122464930D01*
X197751136Y-122471131D01*
X197693672Y-122479812D01*
X197638689Y-122490973D01*
X197586185Y-122504615D01*
X197536163Y-122520738D01*
X197488620Y-122539341D01*
X197443558Y-122560424D01*
X197400977Y-122583988D01*
X197360876Y-122610032D01*
X197323256Y-122638557D01*
X197288115Y-122669563D01*
X197255456Y-122703049D01*
X197225276Y-122739016D01*
X197197577Y-122777464D01*
X197171946Y-122818814D01*
X197147969Y-122863523D01*
X197125645Y-122911643D01*
X197104974Y-122963225D01*
X197085957Y-123018321D01*
X197068593Y-123076982D01*
X197052883Y-123139261D01*
X197038827Y-123205209D01*
X197026424Y-123274877D01*
X197015675Y-123348318D01*
X197006579Y-123425583D01*
X196999138Y-123506724D01*
X196993350Y-123591793D01*
X196989215Y-123680841D01*
X196986734Y-123773920D01*
X196985908Y-123871082D01*
X195363136Y-123871082D01*
X195363136Y-123835783D01*
G37*
G36*
X195257418Y-134524959D02*
G01*
X196880083Y-134524959D01*
X196884975Y-134806076D01*
X196899376Y-135067349D01*
X196910013Y-135190545D01*
X196922872Y-135308780D01*
X196937901Y-135422054D01*
X196955049Y-135530368D01*
X196974265Y-135633720D01*
X196995495Y-135732112D01*
X197018690Y-135825543D01*
X197043796Y-135914014D01*
X197070763Y-135997523D01*
X197099539Y-136076072D01*
X197130071Y-136149660D01*
X197162309Y-136218287D01*
X197179260Y-136250843D01*
X197197044Y-136282365D01*
X197215668Y-136312854D01*
X197235138Y-136342309D01*
X197255460Y-136370731D01*
X197276642Y-136398119D01*
X197298690Y-136424474D01*
X197321609Y-136449795D01*
X197345407Y-136474083D01*
X197370090Y-136497337D01*
X197395664Y-136519558D01*
X197422137Y-136540745D01*
X197449513Y-136560899D01*
X197477801Y-136580019D01*
X197507005Y-136598106D01*
X197537134Y-136615159D01*
X197568192Y-136631179D01*
X197600188Y-136646165D01*
X197633126Y-136660118D01*
X197667014Y-136673037D01*
X197701858Y-136684923D01*
X197737664Y-136695775D01*
X197774440Y-136705593D01*
X197812190Y-136714378D01*
X197850923Y-136722130D01*
X197890644Y-136728848D01*
X197931360Y-136734532D01*
X197973077Y-136739183D01*
X198015802Y-136742801D01*
X198059541Y-136745385D01*
X198150087Y-136747452D01*
X202348135Y-136747452D01*
X202394015Y-136746633D01*
X202439018Y-136744213D01*
X202483090Y-136740243D01*
X202526180Y-136734774D01*
X202568236Y-136727857D01*
X202609207Y-136719546D01*
X202649042Y-136709891D01*
X202687687Y-136698944D01*
X202725092Y-136686757D01*
X202761205Y-136673381D01*
X202795975Y-136658868D01*
X202829349Y-136643270D01*
X202861275Y-136626639D01*
X202891703Y-136609026D01*
X202920581Y-136590482D01*
X202947856Y-136571060D01*
X202980111Y-136544181D01*
X203010764Y-136516423D01*
X203039867Y-136487735D01*
X203067471Y-136458065D01*
X203093629Y-136427361D01*
X203118391Y-136395572D01*
X203141809Y-136362646D01*
X203163935Y-136328531D01*
X203184822Y-136293175D01*
X203204519Y-136256528D01*
X203223080Y-136218537D01*
X203240555Y-136179150D01*
X203256997Y-136138317D01*
X203272458Y-136095984D01*
X203286987Y-136052102D01*
X203300639Y-136006617D01*
X203325513Y-135915597D01*
X203347493Y-135827471D01*
X203366992Y-135741826D01*
X203384424Y-135658249D01*
X203400201Y-135576325D01*
X203414738Y-135495642D01*
X203441742Y-135336340D01*
X203447954Y-135295833D01*
X203453390Y-135253725D01*
X203462143Y-135164911D01*
X203468415Y-135070309D01*
X203472619Y-134970333D01*
X203475169Y-134865397D01*
X203476479Y-134755914D01*
X203477030Y-134524959D01*
X203465314Y-134397420D01*
X203456078Y-134278563D01*
X203441743Y-134061936D01*
X203427410Y-133865153D01*
X203418177Y-133771101D01*
X203406464Y-133678289D01*
X203379455Y-133514027D01*
X203364918Y-133429002D01*
X203349141Y-133343152D01*
X203331711Y-133257302D01*
X203312213Y-133172279D01*
X203290234Y-133088910D01*
X203278185Y-133048104D01*
X203265361Y-133008022D01*
X203251709Y-132968360D01*
X203237179Y-132928852D01*
X203221719Y-132889655D01*
X203205277Y-132850923D01*
X203187802Y-132812811D01*
X203169241Y-132775474D01*
X203149543Y-132739068D01*
X203128657Y-132703746D01*
X203106531Y-132669665D01*
X203083112Y-132636979D01*
X203058350Y-132605844D01*
X203032193Y-132576414D01*
X203004589Y-132548844D01*
X202975486Y-132523290D01*
X202944833Y-132499906D01*
X202912577Y-132478847D01*
X202879489Y-132459427D01*
X202846296Y-132440885D01*
X202812897Y-132423273D01*
X202779187Y-132406643D01*
X202745064Y-132391046D01*
X202710424Y-132376534D01*
X202675163Y-132363159D01*
X202639179Y-132350972D01*
X202602368Y-132340026D01*
X202564627Y-132330371D01*
X202525852Y-132322060D01*
X202485940Y-132315144D01*
X202444788Y-132309675D01*
X202402292Y-132305704D01*
X202358349Y-132303284D01*
X202312856Y-132302466D01*
X198114808Y-132302466D01*
X198030472Y-132304533D01*
X197949443Y-132310734D01*
X197871722Y-132321069D01*
X197797307Y-132335538D01*
X197726201Y-132354141D01*
X197658401Y-132376878D01*
X197593909Y-132403749D01*
X197532724Y-132434754D01*
X197474846Y-132469894D01*
X197420276Y-132509168D01*
X197369013Y-132552576D01*
X197321058Y-132600118D01*
X197276410Y-132651795D01*
X197235069Y-132707605D01*
X197197035Y-132767551D01*
X197162309Y-132831630D01*
X197130071Y-132900256D01*
X197099539Y-132973843D01*
X197070763Y-133052391D01*
X197043796Y-133135900D01*
X197018690Y-133224370D01*
X196995495Y-133317801D01*
X196974265Y-133416193D01*
X196955049Y-133519546D01*
X196937901Y-133627860D01*
X196922872Y-133741135D01*
X196910013Y-133859370D01*
X196899376Y-133982567D01*
X196891013Y-134110724D01*
X196884975Y-134243841D01*
X196881314Y-134381920D01*
X196880083Y-134524959D01*
X195257418Y-134524959D01*
X195257852Y-134264789D01*
X195261711Y-133960520D01*
X195265914Y-133818307D01*
X195272184Y-133682708D01*
X195280935Y-133553723D01*
X195292579Y-133431351D01*
X195307464Y-133309052D01*
X195325655Y-133180551D01*
X195347152Y-133046261D01*
X195371957Y-132906597D01*
X195400069Y-132761971D01*
X195431488Y-132612799D01*
X195466215Y-132459492D01*
X195504249Y-132302466D01*
X195558750Y-132133795D01*
X195616144Y-131971738D01*
X195676020Y-131816295D01*
X195737963Y-131667466D01*
X195801559Y-131525253D01*
X195866396Y-131389654D01*
X195932059Y-131260670D01*
X195998135Y-131138302D01*
X196038254Y-131079590D01*
X196079303Y-131022479D01*
X196121385Y-130966919D01*
X196164604Y-130912857D01*
X196209063Y-130860242D01*
X196254866Y-130809022D01*
X196302115Y-130759146D01*
X196350915Y-130710561D01*
X196401369Y-130663217D01*
X196453579Y-130617061D01*
X196507650Y-130572041D01*
X196563684Y-130528107D01*
X196621786Y-130485207D01*
X196682058Y-130443288D01*
X196744603Y-130402299D01*
X196809526Y-130362189D01*
X196876895Y-130323741D01*
X196946641Y-130287774D01*
X197018661Y-130254287D01*
X197092851Y-130223281D01*
X197169109Y-130194755D01*
X197247330Y-130168710D01*
X197327411Y-130145145D01*
X197409249Y-130124061D01*
X197492741Y-130105457D01*
X197577783Y-130089333D01*
X197664272Y-130075691D01*
X197752105Y-130064528D01*
X197841178Y-130055847D01*
X197931387Y-130049645D01*
X198022630Y-130045925D01*
X198114803Y-130044684D01*
X202312856Y-130044684D01*
X202411248Y-130046338D01*
X202507986Y-130051299D01*
X202603070Y-130059567D01*
X202696500Y-130071143D01*
X202788277Y-130086026D01*
X202878400Y-130104217D01*
X202966870Y-130125714D01*
X203053686Y-130150519D01*
X203138848Y-130178632D01*
X203222356Y-130210051D01*
X203304211Y-130244779D01*
X203384412Y-130282813D01*
X203462960Y-130324155D01*
X203539853Y-130368804D01*
X203615093Y-130416760D01*
X203688680Y-130468024D01*
X203760210Y-130522180D01*
X203829310Y-130578817D01*
X203896034Y-130637934D01*
X203960432Y-130699532D01*
X204022555Y-130763611D01*
X204082457Y-130830170D01*
X204140188Y-130899210D01*
X204195801Y-130970730D01*
X204249346Y-131044731D01*
X204300876Y-131121212D01*
X204350442Y-131200174D01*
X204398096Y-131281616D01*
X204443890Y-131365538D01*
X204487876Y-131451941D01*
X204530104Y-131540825D01*
X204570628Y-131632188D01*
X204634707Y-131798793D01*
X204694652Y-131967879D01*
X204750463Y-132139445D01*
X204802140Y-132313491D01*
X204849682Y-132490018D01*
X204893090Y-132669024D01*
X204932364Y-132850512D01*
X204967503Y-133034479D01*
X204998509Y-133220927D01*
X205025380Y-133409856D01*
X205048117Y-133601265D01*
X205066720Y-133795154D01*
X205081189Y-133991523D01*
X205091524Y-134190374D01*
X205097725Y-134391704D01*
X205099792Y-134595515D01*
X205098142Y-134769009D01*
X205093183Y-134944984D01*
X205084917Y-135122612D01*
X205073342Y-135301068D01*
X205058460Y-135479524D01*
X205040270Y-135657153D01*
X205018772Y-135833130D01*
X204993967Y-136006627D01*
X204965786Y-136178675D01*
X204933884Y-136351136D01*
X204897848Y-136524425D01*
X204857264Y-136698954D01*
X204811719Y-136875137D01*
X204760800Y-137053387D01*
X204704093Y-137234117D01*
X204641184Y-137417740D01*
X204606872Y-137515322D01*
X204570080Y-137609700D01*
X204530806Y-137700978D01*
X204489052Y-137789258D01*
X204444818Y-137874645D01*
X204398103Y-137957241D01*
X204348907Y-138037151D01*
X204297231Y-138114476D01*
X204243074Y-138189321D01*
X204186437Y-138261789D01*
X204127319Y-138331982D01*
X204065721Y-138400006D01*
X204001643Y-138465962D01*
X203935084Y-138529954D01*
X203866044Y-138592086D01*
X203794525Y-138652460D01*
X203720534Y-138709932D01*
X203644113Y-138763322D01*
X203565316Y-138812681D01*
X203484192Y-138858061D01*
X203400795Y-138899513D01*
X203315175Y-138937091D01*
X203227385Y-138970844D01*
X203137477Y-139000825D01*
X203045501Y-139027085D01*
X202951510Y-139049676D01*
X202855555Y-139068650D01*
X202757688Y-139084058D01*
X202657961Y-139095952D01*
X202556425Y-139104384D01*
X202453132Y-139109406D01*
X202348135Y-139111068D01*
X198150082Y-139111068D01*
X198064505Y-139109828D01*
X197979756Y-139106107D01*
X197895833Y-139099906D01*
X197812737Y-139091224D01*
X197730468Y-139080062D01*
X197649026Y-139066419D01*
X197568411Y-139050296D01*
X197488623Y-139031693D01*
X197409661Y-139010609D01*
X197331526Y-138987045D01*
X197254218Y-138961001D01*
X197177737Y-138932476D01*
X197102082Y-138901471D01*
X197027254Y-138867985D01*
X196953253Y-138832019D01*
X196880078Y-138793573D01*
X196808549Y-138753067D01*
X196739449Y-138710959D01*
X196672726Y-138667301D01*
X196608329Y-138622144D01*
X196546206Y-138575541D01*
X196486304Y-138527542D01*
X196428574Y-138478200D01*
X196372962Y-138427566D01*
X196319416Y-138375692D01*
X196267887Y-138322629D01*
X196218321Y-138268429D01*
X196170666Y-138213144D01*
X196124873Y-138156825D01*
X196080887Y-138099524D01*
X196038659Y-138041292D01*
X195998135Y-137982182D01*
X195932128Y-137871528D01*
X195866947Y-137751777D01*
X195803419Y-137623757D01*
X195772534Y-137556905D01*
X195742372Y-137488296D01*
X195713037Y-137418033D01*
X195684632Y-137346220D01*
X195657260Y-137272960D01*
X195631025Y-137198357D01*
X195606031Y-137122513D01*
X195582380Y-137045533D01*
X195560176Y-136967519D01*
X195539522Y-136888575D01*
X195489845Y-136729961D01*
X195446368Y-136572174D01*
X195408678Y-136416042D01*
X195376363Y-136262391D01*
X195349008Y-136112048D01*
X195326202Y-135965840D01*
X195307530Y-135824592D01*
X195292579Y-135689133D01*
X195280935Y-135556771D01*
X195272184Y-135423996D01*
X195265914Y-135290395D01*
X195261711Y-135155553D01*
X195257852Y-134880496D01*
X195257301Y-134595515D01*
X195257418Y-134524959D01*
G37*
G36*
X154476201Y-85947471D02*
G01*
X145374539Y-85947471D01*
X168552031Y-45801376D01*
X177653698Y-45801376D01*
X154476201Y-85947471D01*
G37*
G36*
X147879261Y-65874425D02*
G01*
X138777596Y-65874425D01*
X150383980Y-45801376D01*
X159485647Y-45801376D01*
X147879261Y-65874425D01*
G37*
D11*
%TO.C,REF\u002A\u002A*%
X188637944Y-81432733D03*
%TD*%
%TO.C,REF\u002A\u002A*%
X161468071Y-97119267D03*
%TD*%
%TO.C,REF\u002A\u002A*%
X188637944Y-50059666D03*
%TD*%
%TO.C,REF\u002A\u002A*%
X161468071Y-34373133D03*
%TD*%
D12*
%TO.C,J4*%
X133399999Y-156799999D03*
X137399999Y-156799999D03*
X141399999Y-156799999D03*
X145399999Y-156799999D03*
X149399999Y-156799999D03*
X153399999Y-156799999D03*
X157399999Y-156799999D03*
X161399999Y-156799999D03*
X165399999Y-156799999D03*
X169399999Y-156799999D03*
X173399999Y-156799999D03*
X177399999Y-156799999D03*
X181399999Y-156799999D03*
X185399999Y-156799999D03*
X189399999Y-156799999D03*
%TD*%
D11*
%TO.C,REF\u002A\u002A*%
X134298198Y-81432733D03*
%TD*%
%TO.C,REF\u002A\u002A*%
X134298198Y-50059666D03*
%TD*%
D13*
%TO.C,J1*%
X125030000Y-66700000D03*
X125030000Y-61700000D03*
%TD*%
D14*
%TO.C,SW1*%
X118400000Y-50600000D03*
X118400000Y-52300000D03*
%TD*%
D15*
%TO.C,H2*%
X124468071Y-150373133D03*
%TD*%
%TO.C,H1*%
X198468071Y-150373133D03*
%TD*%
D14*
%TO.C,SW2*%
X148925000Y-25550000D03*
X147225000Y-25550000D03*
%TD*%
M02*
