%TF.GenerationSoftware,KiCad,Pcbnew,(7.0.0-0)*%
%TF.CreationDate,2023-03-26T20:27:34-07:00*%
%TF.ProjectId,voron_badge,766f726f-6e5f-4626-9164-67652e6b6963,rev?*%
%TF.SameCoordinates,Original*%
%TF.FileFunction,Soldermask,Bot*%
%TF.FilePolarity,Negative*%
%FSLAX46Y46*%
G04 Gerber Fmt 4.6, Leading zero omitted, Abs format (unit mm)*
G04 Created by KiCad (PCBNEW (7.0.0-0)) date 2023-03-26 20:27:34*
%MOMM*%
%LPD*%
G01*
G04 APERTURE LIST*
G04 Aperture macros list*
%AMRoundRect*
0 Rectangle with rounded corners*
0 $1 Rounding radius*
0 $2 $3 $4 $5 $6 $7 $8 $9 X,Y pos of 4 corners*
0 Add a 4 corners polygon primitive as box body*
4,1,4,$2,$3,$4,$5,$6,$7,$8,$9,$2,$3,0*
0 Add four circle primitives for the rounded corners*
1,1,$1+$1,$2,$3*
1,1,$1+$1,$4,$5*
1,1,$1+$1,$6,$7*
1,1,$1+$1,$8,$9*
0 Add four rect primitives between the rounded corners*
20,1,$1+$1,$2,$3,$4,$5,0*
20,1,$1+$1,$4,$5,$6,$7,0*
20,1,$1+$1,$6,$7,$8,$9,0*
20,1,$1+$1,$8,$9,$2,$3,0*%
%AMFreePoly0*
4,1,6,1.000000,0.000000,0.500000,-0.750000,-0.500000,-0.750000,-0.500000,0.750000,0.500000,0.750000,1.000000,0.000000,1.000000,0.000000,$1*%
%AMFreePoly1*
4,1,6,0.500000,-0.750000,-0.650000,-0.750000,-0.150000,0.000000,-0.650000,0.750000,0.500000,0.750000,0.500000,-0.750000,0.500000,-0.750000,$1*%
%AMFreePoly2*
4,1,18,-0.800000,0.164000,-0.554000,0.410000,0.677000,0.410000,0.724070,0.400637,0.763974,0.373974,0.790637,0.334070,0.800000,0.287000,0.800000,-0.287000,0.790637,-0.334070,0.763974,-0.373974,0.724070,-0.400637,0.677000,-0.410000,-0.677000,-0.410000,-0.724070,-0.400637,-0.763974,-0.373974,-0.790637,-0.334070,-0.800000,-0.287000,-0.800000,0.164000,-0.800000,0.164000,$1*%
G04 Aperture macros list end*
%ADD10C,0.150000*%
%ADD11C,2.000000*%
%ADD12C,3.200000*%
%ADD13FreePoly0,270.000000*%
%ADD14FreePoly1,270.000000*%
%ADD15C,1.300000*%
%ADD16RoundRect,0.250000X-1.250000X-0.250000X1.250000X-0.250000X1.250000X0.250000X-1.250000X0.250000X0*%
%ADD17RoundRect,0.750000X2.000000X-0.750000X2.000000X0.750000X-2.000000X0.750000X-2.000000X-0.750000X0*%
%ADD18C,0.600000*%
%ADD19R,1.300000X1.150000*%
%ADD20R,1.200000X0.900000*%
%ADD21RoundRect,0.200000X-0.200000X-0.275000X0.200000X-0.275000X0.200000X0.275000X-0.200000X0.275000X0*%
%ADD22RoundRect,0.200000X-0.275000X0.200000X-0.275000X-0.200000X0.275000X-0.200000X0.275000X0.200000X0*%
%ADD23R,1.500000X0.650000*%
%ADD24R,1.350000X1.800000*%
%ADD25FreePoly2,0.000000*%
%ADD26R,1.600000X0.820000*%
%ADD27RoundRect,0.250000X0.250000X0.475000X-0.250000X0.475000X-0.250000X-0.475000X0.250000X-0.475000X0*%
%ADD28RoundRect,0.250000X1.500000X-0.250000X1.500000X0.250000X-1.500000X0.250000X-1.500000X-0.250000X0*%
%ADD29RoundRect,0.250001X1.449999X-0.499999X1.449999X0.499999X-1.449999X0.499999X-1.449999X-0.499999X0*%
%ADD30RoundRect,0.200000X0.200000X0.275000X-0.200000X0.275000X-0.200000X-0.275000X0.200000X-0.275000X0*%
%ADD31C,0.900000*%
%ADD32C,6.000000*%
%ADD33RoundRect,0.250000X0.475000X-0.250000X0.475000X0.250000X-0.475000X0.250000X-0.475000X-0.250000X0*%
%ADD34RoundRect,0.218750X-0.256250X0.218750X-0.256250X-0.218750X0.256250X-0.218750X0.256250X0.218750X0*%
%ADD35RoundRect,0.250000X-0.475000X0.250000X-0.475000X-0.250000X0.475000X-0.250000X0.475000X0.250000X0*%
%ADD36RoundRect,0.225000X0.375000X-0.225000X0.375000X0.225000X-0.375000X0.225000X-0.375000X-0.225000X0*%
%ADD37RoundRect,0.150000X0.150000X-0.512500X0.150000X0.512500X-0.150000X0.512500X-0.150000X-0.512500X0*%
%ADD38RoundRect,0.150000X0.625000X-0.150000X0.625000X0.150000X-0.625000X0.150000X-0.625000X-0.150000X0*%
%ADD39RoundRect,0.250000X0.650000X-0.350000X0.650000X0.350000X-0.650000X0.350000X-0.650000X-0.350000X0*%
%ADD40RoundRect,0.218750X0.256250X-0.218750X0.256250X0.218750X-0.256250X0.218750X-0.256250X-0.218750X0*%
%ADD41R,1.700000X3.500000*%
%ADD42R,0.650000X1.500000*%
%ADD43R,1.800000X1.350000*%
%ADD44R,3.700000X1.100000*%
%ADD45R,1.150000X1.300000*%
%ADD46R,0.900000X1.200000*%
%ADD47RoundRect,0.200000X0.275000X-0.200000X0.275000X0.200000X-0.275000X0.200000X-0.275000X-0.200000X0*%
%ADD48RoundRect,0.250000X-0.250000X-0.475000X0.250000X-0.475000X0.250000X0.475000X-0.250000X0.475000X0*%
%ADD49RoundRect,0.250000X0.450000X-0.262500X0.450000X0.262500X-0.450000X0.262500X-0.450000X-0.262500X0*%
%ADD50R,2.000000X2.600000*%
%ADD51RoundRect,0.150000X0.150000X-0.587500X0.150000X0.587500X-0.150000X0.587500X-0.150000X-0.587500X0*%
G04 APERTURE END LIST*
D10*
G36*
X141422499Y-142736765D02*
G01*
X141214771Y-142736765D01*
X140966742Y-143568046D01*
X140954286Y-143568046D01*
X140715050Y-142736765D01*
X140502925Y-142736765D01*
X140254896Y-143568046D01*
X140242440Y-143568046D01*
X140002838Y-142736765D01*
X139809764Y-142736765D01*
X140143522Y-143745000D01*
X140368469Y-143745000D01*
X140613933Y-142940830D01*
X140855734Y-143745000D01*
X141080315Y-143745000D01*
X141422499Y-142736765D01*
G37*
G36*
X139620720Y-142291266D02*
G01*
X139431676Y-142291266D01*
X139431676Y-142870854D01*
X139426938Y-142851778D01*
X139420050Y-142833932D01*
X139411012Y-142817317D01*
X139399825Y-142801932D01*
X139386489Y-142787778D01*
X139371003Y-142774855D01*
X139353367Y-142763163D01*
X139333582Y-142752702D01*
X139311647Y-142743471D01*
X139287563Y-142735471D01*
X139261329Y-142728702D01*
X139232946Y-142723164D01*
X139217949Y-142720856D01*
X139202413Y-142718856D01*
X139186341Y-142717164D01*
X139169731Y-142715779D01*
X139152584Y-142714702D01*
X139134899Y-142713933D01*
X139116677Y-142713472D01*
X139097918Y-142713318D01*
X139073964Y-142713591D01*
X139050920Y-142714411D01*
X139028787Y-142715778D01*
X139007563Y-142717691D01*
X138987250Y-142720151D01*
X138967847Y-142723158D01*
X138949354Y-142726711D01*
X138931772Y-142730812D01*
X138915099Y-142735458D01*
X138899337Y-142740652D01*
X138884485Y-142746392D01*
X138870543Y-142752679D01*
X138857512Y-142759513D01*
X138839671Y-142770788D01*
X138823878Y-142783293D01*
X138809801Y-142797119D01*
X138797109Y-142812355D01*
X138785801Y-142829001D01*
X138775878Y-142847058D01*
X138767340Y-142866525D01*
X138760186Y-142887402D01*
X138756186Y-142902104D01*
X138752801Y-142917433D01*
X138750032Y-142933388D01*
X138747878Y-142949970D01*
X138746340Y-142967180D01*
X138745417Y-142985015D01*
X138745109Y-143003478D01*
X138745109Y-143745000D01*
X138934153Y-143745000D01*
X138934153Y-143020331D01*
X138934451Y-143003722D01*
X138935345Y-142988515D01*
X138937097Y-142972852D01*
X138939998Y-142957422D01*
X138940381Y-142955851D01*
X138944899Y-142941837D01*
X138951445Y-142927824D01*
X138960020Y-142913811D01*
X138965661Y-142906025D01*
X138977716Y-142893832D01*
X138993000Y-142883265D01*
X139006582Y-142876406D01*
X139021980Y-142870462D01*
X139039195Y-142865433D01*
X139058225Y-142861317D01*
X139079071Y-142858117D01*
X139093978Y-142856491D01*
X139109691Y-142855272D01*
X139126212Y-142854459D01*
X139143540Y-142854052D01*
X139152506Y-142854002D01*
X139173659Y-142854140D01*
X139193838Y-142854555D01*
X139213046Y-142855248D01*
X139231280Y-142856217D01*
X139248543Y-142857463D01*
X139264833Y-142858986D01*
X139280150Y-142860786D01*
X139299061Y-142863617D01*
X139316243Y-142866940D01*
X139327995Y-142869755D01*
X139342335Y-142873917D01*
X139358601Y-142880005D01*
X139373025Y-142887076D01*
X139385606Y-142895131D01*
X139398271Y-142906097D01*
X139408283Y-142918478D01*
X139409694Y-142920680D01*
X139417164Y-142934899D01*
X139423089Y-142951180D01*
X139426846Y-142966321D01*
X139429529Y-142982893D01*
X139431139Y-143000896D01*
X139431654Y-143016330D01*
X139431676Y-143020331D01*
X139431676Y-143745000D01*
X139620720Y-143745000D01*
X139620720Y-142291266D01*
G37*
G36*
X138161354Y-142715081D02*
G01*
X138177977Y-142717256D01*
X138194510Y-142719844D01*
X138210950Y-142722843D01*
X138227299Y-142726255D01*
X138243557Y-142730079D01*
X138259722Y-142734315D01*
X138275797Y-142738963D01*
X138291316Y-142744064D01*
X138305816Y-142749656D01*
X138319297Y-142755742D01*
X138334715Y-142764040D01*
X138348541Y-142773108D01*
X138360776Y-142782945D01*
X138371418Y-142793551D01*
X138378364Y-142801107D01*
X138389370Y-142814915D01*
X138397659Y-142827057D01*
X138405490Y-142840171D01*
X138412863Y-142854259D01*
X138419778Y-142869320D01*
X138426235Y-142885354D01*
X138432234Y-142902362D01*
X138437644Y-142920205D01*
X138442332Y-142938746D01*
X138445375Y-142953111D01*
X138448012Y-142967868D01*
X138450244Y-142983018D01*
X138452069Y-142998561D01*
X138453489Y-143014497D01*
X138454504Y-143030825D01*
X138455112Y-143047547D01*
X138455315Y-143064661D01*
X138455315Y-143410143D01*
X138455284Y-143417400D01*
X138454823Y-143438610D01*
X138453807Y-143458977D01*
X138452238Y-143478500D01*
X138450115Y-143497179D01*
X138447438Y-143515014D01*
X138444208Y-143532006D01*
X138440423Y-143548155D01*
X138436085Y-143563459D01*
X138431192Y-143577920D01*
X138423808Y-143595889D01*
X138415341Y-143612513D01*
X138405696Y-143627946D01*
X138394871Y-143642189D01*
X138382867Y-143655240D01*
X138369683Y-143667101D01*
X138355321Y-143677772D01*
X138339779Y-143687251D01*
X138323058Y-143695540D01*
X138306296Y-143702982D01*
X138289535Y-143709737D01*
X138272774Y-143715805D01*
X138256013Y-143721186D01*
X138239252Y-143725880D01*
X138222491Y-143729887D01*
X138205729Y-143733207D01*
X138188968Y-143735840D01*
X138180280Y-143736950D01*
X138161332Y-143738953D01*
X138145746Y-143740268D01*
X138128982Y-143741422D01*
X138111039Y-143742415D01*
X138091918Y-143743246D01*
X138071618Y-143743917D01*
X138050139Y-143744427D01*
X138035165Y-143744678D01*
X138019668Y-143744856D01*
X138003647Y-143744964D01*
X137987102Y-143745000D01*
X137977118Y-143745000D01*
X137962143Y-143745000D01*
X137947168Y-143745000D01*
X137932193Y-143745000D01*
X137917218Y-143745000D01*
X137902242Y-143745000D01*
X137887267Y-143745000D01*
X137872292Y-143745000D01*
X137857317Y-143745000D01*
X137842342Y-143745000D01*
X137827367Y-143745000D01*
X137810669Y-143743254D01*
X137794096Y-143741130D01*
X137777650Y-143738628D01*
X137761330Y-143735749D01*
X137745135Y-143732492D01*
X137729067Y-143728857D01*
X137713124Y-143724844D01*
X137697307Y-143720453D01*
X137682012Y-143715559D01*
X137667632Y-143710218D01*
X137654168Y-143704430D01*
X137638626Y-143696568D01*
X137624515Y-143688008D01*
X137611836Y-143678751D01*
X137600587Y-143668796D01*
X137585987Y-143652987D01*
X137572822Y-143635510D01*
X137564844Y-143622932D01*
X137557504Y-143609612D01*
X137550802Y-143595551D01*
X137544738Y-143580750D01*
X137539313Y-143565206D01*
X137534526Y-143548922D01*
X137530377Y-143531896D01*
X137526867Y-143514128D01*
X137523994Y-143495620D01*
X137521760Y-143476370D01*
X137520165Y-143456379D01*
X137519298Y-143437620D01*
X137711962Y-143437620D01*
X137712100Y-143450002D01*
X137712716Y-143465710D01*
X137713824Y-143480502D01*
X137715900Y-143497704D01*
X137718747Y-143513474D01*
X137722362Y-143527814D01*
X137727716Y-143543133D01*
X137733175Y-143554397D01*
X137742622Y-143568395D01*
X137754173Y-143580323D01*
X137767827Y-143590183D01*
X137781205Y-143596988D01*
X137785930Y-143599267D01*
X137800210Y-143605415D01*
X137814644Y-143610532D01*
X137829233Y-143614620D01*
X137843976Y-143617676D01*
X137858874Y-143619703D01*
X137869613Y-143620647D01*
X137885162Y-143621651D01*
X137903073Y-143622458D01*
X137919101Y-143622962D01*
X137936641Y-143623339D01*
X137955692Y-143623591D01*
X137970972Y-143623698D01*
X137987102Y-143623733D01*
X137997949Y-143623717D01*
X138013513Y-143623635D01*
X138032941Y-143623414D01*
X138050859Y-143623068D01*
X138067265Y-143622596D01*
X138082160Y-143621997D01*
X138098654Y-143621072D01*
X138115329Y-143619703D01*
X138120269Y-143619142D01*
X138135021Y-143616772D01*
X138149670Y-143613372D01*
X138164216Y-143608941D01*
X138178659Y-143603480D01*
X138192998Y-143596988D01*
X138204254Y-143591423D01*
X138218209Y-143581859D01*
X138230060Y-143570225D01*
X138239807Y-143556524D01*
X138246488Y-143543133D01*
X138249303Y-143535731D01*
X138254103Y-143519382D01*
X138257257Y-143504184D01*
X138259641Y-143487554D01*
X138261257Y-143469494D01*
X138261995Y-143454015D01*
X138262241Y-143437620D01*
X138262241Y-143036817D01*
X138262219Y-143031119D01*
X138261881Y-143014612D01*
X138261137Y-142998988D01*
X138259987Y-142984246D01*
X138257823Y-142965962D01*
X138254938Y-142949246D01*
X138251332Y-142934099D01*
X138245810Y-142917372D01*
X138239160Y-142903094D01*
X138237686Y-142900512D01*
X138229359Y-142888437D01*
X138217264Y-142875789D01*
X138205434Y-142866784D01*
X138192012Y-142859174D01*
X138176998Y-142852959D01*
X138160392Y-142848140D01*
X138149406Y-142845717D01*
X138133066Y-142842858D01*
X138114791Y-142840422D01*
X138099814Y-142838873D01*
X138083750Y-142837563D01*
X138066597Y-142836491D01*
X138048356Y-142835657D01*
X138029026Y-142835061D01*
X138008608Y-142834703D01*
X137987102Y-142834584D01*
X137972643Y-142834637D01*
X137951862Y-142834915D01*
X137932170Y-142835432D01*
X137913566Y-142836186D01*
X137896050Y-142837179D01*
X137879623Y-142838410D01*
X137864284Y-142839879D01*
X137845525Y-142842209D01*
X137828701Y-142844963D01*
X137813811Y-142848140D01*
X137810363Y-142848992D01*
X137794075Y-142854090D01*
X137779379Y-142860584D01*
X137766276Y-142868473D01*
X137754764Y-142877757D01*
X137743052Y-142890740D01*
X137735043Y-142903094D01*
X137733623Y-142905754D01*
X137727199Y-142920521D01*
X137721902Y-142937739D01*
X137718476Y-142953278D01*
X137715771Y-142970386D01*
X137713788Y-142989062D01*
X137712773Y-143004098D01*
X137712165Y-143020016D01*
X137711962Y-143036817D01*
X137711962Y-143437620D01*
X137519298Y-143437620D01*
X137519207Y-143435646D01*
X137518888Y-143414173D01*
X137518888Y-143068691D01*
X137519091Y-143051168D01*
X137519699Y-143034044D01*
X137520714Y-143017319D01*
X137522134Y-143000994D01*
X137523960Y-142985068D01*
X137526191Y-142969541D01*
X137528828Y-142954413D01*
X137531871Y-142939685D01*
X137536559Y-142920668D01*
X137541969Y-142902362D01*
X137545126Y-142893744D01*
X137551698Y-142877280D01*
X137558613Y-142861847D01*
X137565871Y-142847444D01*
X137573473Y-142834072D01*
X137581419Y-142821730D01*
X137591834Y-142807752D01*
X137602785Y-142795383D01*
X137614615Y-142784276D01*
X137627894Y-142774081D01*
X137642622Y-142764799D01*
X137658799Y-142756428D01*
X137672784Y-142750389D01*
X137687696Y-142744934D01*
X137703536Y-142740062D01*
X137711384Y-142738046D01*
X137726909Y-142734279D01*
X137742204Y-142730867D01*
X137757271Y-142727811D01*
X137772109Y-142725109D01*
X137786718Y-142722762D01*
X137804656Y-142720327D01*
X137822238Y-142718447D01*
X137829408Y-142717826D01*
X137845001Y-142716704D01*
X137862266Y-142715742D01*
X137881202Y-142714941D01*
X137896502Y-142714445D01*
X137912741Y-142714039D01*
X137929921Y-142713723D01*
X137948041Y-142713498D01*
X137967101Y-142713363D01*
X137987102Y-142713318D01*
X137997291Y-142713318D01*
X138012489Y-142713318D01*
X138027585Y-142713318D01*
X138042577Y-142713318D01*
X138057466Y-142713318D01*
X138072253Y-142713318D01*
X138086936Y-142713318D01*
X138106353Y-142713318D01*
X138125587Y-142713318D01*
X138144638Y-142713318D01*
X138161354Y-142715081D01*
G37*
G36*
X136708998Y-142713449D02*
G01*
X136728337Y-142713841D01*
X136747089Y-142714496D01*
X136765254Y-142715413D01*
X136782832Y-142716591D01*
X136799824Y-142718032D01*
X136816229Y-142719734D01*
X136832047Y-142721698D01*
X136847278Y-142723924D01*
X136861923Y-142726412D01*
X136889451Y-142732174D01*
X136914633Y-142738983D01*
X136937468Y-142746840D01*
X136957956Y-142755744D01*
X136976096Y-142765696D01*
X136991890Y-142776696D01*
X137005337Y-142788743D01*
X137016437Y-142801838D01*
X137025189Y-142815980D01*
X137031595Y-142831170D01*
X137035654Y-142847407D01*
X137037852Y-142847407D01*
X137037852Y-142735300D01*
X137224698Y-142735300D01*
X137224698Y-144190498D01*
X137035654Y-144190498D01*
X137035654Y-143686748D01*
X137026487Y-143701053D01*
X137015759Y-143711951D01*
X137002223Y-143721919D01*
X136989371Y-143729223D01*
X136974723Y-143735932D01*
X136958276Y-143742046D01*
X136940033Y-143747564D01*
X136930400Y-143750093D01*
X136915720Y-143753580D01*
X136900763Y-143756700D01*
X136885529Y-143759453D01*
X136870018Y-143761839D01*
X136854231Y-143763858D01*
X136838166Y-143765510D01*
X136821825Y-143766795D01*
X136805206Y-143767713D01*
X136788311Y-143768263D01*
X136771139Y-143768447D01*
X136760749Y-143768422D01*
X136745529Y-143768295D01*
X136730747Y-143768058D01*
X136711719Y-143767571D01*
X136693469Y-143766890D01*
X136675998Y-143766014D01*
X136659306Y-143764943D01*
X136643392Y-143763678D01*
X136628257Y-143762219D01*
X136611942Y-143760433D01*
X136595604Y-143758189D01*
X136579244Y-143755487D01*
X136562860Y-143752327D01*
X136546454Y-143748709D01*
X136530025Y-143744633D01*
X136513573Y-143740099D01*
X136497098Y-143735108D01*
X136492982Y-143733766D01*
X136477073Y-143728118D01*
X136462058Y-143722025D01*
X136447936Y-143715485D01*
X136434707Y-143708498D01*
X136419426Y-143699137D01*
X136405541Y-143689078D01*
X136393051Y-143678321D01*
X136385293Y-143670991D01*
X136372992Y-143657645D01*
X136363719Y-143645949D01*
X136354949Y-143633350D01*
X136346683Y-143619846D01*
X136338920Y-143605438D01*
X136331662Y-143590125D01*
X136324907Y-143573907D01*
X136321713Y-143565437D01*
X136315942Y-143547954D01*
X136310997Y-143529750D01*
X136306875Y-143510825D01*
X136304325Y-143496158D01*
X136302238Y-143481086D01*
X136300615Y-143465607D01*
X136299456Y-143449723D01*
X136299284Y-143445680D01*
X136491603Y-143445680D01*
X136491825Y-143461436D01*
X136492491Y-143476420D01*
X136494071Y-143495196D01*
X136496441Y-143512599D01*
X136499601Y-143528627D01*
X136503551Y-143543282D01*
X136509599Y-143559668D01*
X136516882Y-143573907D01*
X136520169Y-143579026D01*
X136529502Y-143590935D01*
X136540426Y-143601574D01*
X136552943Y-143610942D01*
X136567052Y-143619040D01*
X136582753Y-143625869D01*
X136600046Y-143631427D01*
X136611285Y-143634242D01*
X136627683Y-143637565D01*
X136645695Y-143640396D01*
X136660263Y-143642196D01*
X136675740Y-143643719D01*
X136692124Y-143644965D01*
X136709417Y-143645934D01*
X136727617Y-143646626D01*
X136746726Y-143647042D01*
X136766742Y-143647180D01*
X136779963Y-143647119D01*
X136799053Y-143646796D01*
X136817255Y-143646196D01*
X136834568Y-143645319D01*
X136850992Y-143644165D01*
X136866527Y-143642734D01*
X136881174Y-143641026D01*
X136899320Y-143638319D01*
X136915887Y-143635119D01*
X136930873Y-143631427D01*
X136937800Y-143629356D01*
X136954014Y-143623290D01*
X136968655Y-143615953D01*
X136981721Y-143607347D01*
X136993213Y-143597471D01*
X137003130Y-143586324D01*
X137011474Y-143573907D01*
X137018439Y-143559668D01*
X137024225Y-143543282D01*
X137028003Y-143528627D01*
X137031025Y-143512599D01*
X137033292Y-143495196D01*
X137034804Y-143476420D01*
X137035441Y-143461436D01*
X137035654Y-143445680D01*
X137035654Y-143072355D01*
X137035563Y-143060466D01*
X137035090Y-143043391D01*
X137034211Y-143027223D01*
X137032926Y-143011964D01*
X137030582Y-142993030D01*
X137027517Y-142975711D01*
X137023730Y-142960006D01*
X137019222Y-142945915D01*
X137012573Y-142930572D01*
X137009564Y-142925053D01*
X137000967Y-142912259D01*
X136990831Y-142900896D01*
X136979157Y-142890964D01*
X136965944Y-142882464D01*
X136951193Y-142875394D01*
X136934903Y-142869755D01*
X136927858Y-142867848D01*
X136912436Y-142864401D01*
X136895240Y-142861448D01*
X136876269Y-142858986D01*
X136860877Y-142857463D01*
X136844486Y-142856217D01*
X136827097Y-142855248D01*
X136808710Y-142854555D01*
X136789324Y-142854140D01*
X136768940Y-142854002D01*
X136755229Y-142854063D01*
X136735451Y-142854386D01*
X136716619Y-142854986D01*
X136698734Y-142855863D01*
X136681796Y-142857017D01*
X136665804Y-142858448D01*
X136650759Y-142860155D01*
X136632172Y-142862863D01*
X136615268Y-142866063D01*
X136600046Y-142869755D01*
X136592938Y-142871843D01*
X136576282Y-142878103D01*
X136561218Y-142885847D01*
X136547745Y-142895076D01*
X136535865Y-142905789D01*
X136525578Y-142917988D01*
X136516882Y-142931671D01*
X136510957Y-142943967D01*
X136505822Y-142957774D01*
X136501477Y-142973093D01*
X136497922Y-142989923D01*
X136495158Y-143008264D01*
X136493602Y-143023011D01*
X136492491Y-143038609D01*
X136491825Y-143055057D01*
X136491603Y-143072355D01*
X136491603Y-143445680D01*
X136299284Y-143445680D01*
X136298761Y-143433433D01*
X136298529Y-143416737D01*
X136298529Y-143000181D01*
X136298625Y-142992371D01*
X136299398Y-142977015D01*
X136300944Y-142962011D01*
X136303262Y-142947360D01*
X136308189Y-142926042D01*
X136314854Y-142905517D01*
X136323258Y-142885784D01*
X136333401Y-142866843D01*
X136345283Y-142848694D01*
X136354170Y-142837034D01*
X136363830Y-142825727D01*
X136374263Y-142814772D01*
X136385469Y-142804169D01*
X136397447Y-142793918D01*
X136410135Y-142784158D01*
X136423562Y-142775027D01*
X136437727Y-142766526D01*
X136452631Y-142758655D01*
X136468273Y-142751414D01*
X136484653Y-142744802D01*
X136501772Y-142738820D01*
X136519630Y-142733468D01*
X136538225Y-142728745D01*
X136557560Y-142724652D01*
X136577632Y-142721189D01*
X136598444Y-142718355D01*
X136619993Y-142716151D01*
X136642281Y-142714577D01*
X136665308Y-142713633D01*
X136689073Y-142713318D01*
X136708998Y-142713449D01*
G37*
G36*
X135494134Y-142713449D02*
G01*
X135513473Y-142713841D01*
X135532225Y-142714496D01*
X135550390Y-142715413D01*
X135567968Y-142716591D01*
X135584960Y-142718032D01*
X135601365Y-142719734D01*
X135617183Y-142721698D01*
X135632414Y-142723924D01*
X135647059Y-142726412D01*
X135674587Y-142732174D01*
X135699769Y-142738983D01*
X135722604Y-142746840D01*
X135743092Y-142755744D01*
X135761233Y-142765696D01*
X135777026Y-142776696D01*
X135790473Y-142788743D01*
X135801573Y-142801838D01*
X135810325Y-142815980D01*
X135816731Y-142831170D01*
X135820790Y-142847407D01*
X135822988Y-142847407D01*
X135822988Y-142735300D01*
X136009834Y-142735300D01*
X136009834Y-144190498D01*
X135820790Y-144190498D01*
X135820790Y-143686748D01*
X135811623Y-143701053D01*
X135800895Y-143711951D01*
X135787359Y-143721919D01*
X135774508Y-143729223D01*
X135759859Y-143735932D01*
X135743412Y-143742046D01*
X135725169Y-143747564D01*
X135715536Y-143750093D01*
X135700856Y-143753580D01*
X135685899Y-143756700D01*
X135670665Y-143759453D01*
X135655154Y-143761839D01*
X135639367Y-143763858D01*
X135623302Y-143765510D01*
X135606961Y-143766795D01*
X135590342Y-143767713D01*
X135573447Y-143768263D01*
X135556275Y-143768447D01*
X135545885Y-143768422D01*
X135530665Y-143768295D01*
X135515883Y-143768058D01*
X135496855Y-143767571D01*
X135478605Y-143766890D01*
X135461134Y-143766014D01*
X135444442Y-143764943D01*
X135428528Y-143763678D01*
X135413393Y-143762219D01*
X135397078Y-143760433D01*
X135380740Y-143758189D01*
X135364380Y-143755487D01*
X135347997Y-143752327D01*
X135331590Y-143748709D01*
X135315161Y-143744633D01*
X135298709Y-143740099D01*
X135282234Y-143735108D01*
X135278118Y-143733766D01*
X135262209Y-143728118D01*
X135247194Y-143722025D01*
X135233072Y-143715485D01*
X135219843Y-143708498D01*
X135204562Y-143699137D01*
X135190677Y-143689078D01*
X135178187Y-143678321D01*
X135170429Y-143670991D01*
X135158128Y-143657645D01*
X135148855Y-143645949D01*
X135140085Y-143633350D01*
X135131819Y-143619846D01*
X135124056Y-143605438D01*
X135116798Y-143590125D01*
X135110043Y-143573907D01*
X135106849Y-143565437D01*
X135101079Y-143547954D01*
X135096133Y-143529750D01*
X135092011Y-143510825D01*
X135089461Y-143496158D01*
X135087374Y-143481086D01*
X135085751Y-143465607D01*
X135084592Y-143449723D01*
X135084420Y-143445680D01*
X135276739Y-143445680D01*
X135276961Y-143461436D01*
X135277627Y-143476420D01*
X135279207Y-143495196D01*
X135281577Y-143512599D01*
X135284737Y-143528627D01*
X135288687Y-143543282D01*
X135294735Y-143559668D01*
X135302018Y-143573907D01*
X135305305Y-143579026D01*
X135314638Y-143590935D01*
X135325562Y-143601574D01*
X135338079Y-143610942D01*
X135352188Y-143619040D01*
X135367889Y-143625869D01*
X135385183Y-143631427D01*
X135396421Y-143634242D01*
X135412819Y-143637565D01*
X135430831Y-143640396D01*
X135445399Y-143642196D01*
X135460876Y-143643719D01*
X135477260Y-143644965D01*
X135494553Y-143645934D01*
X135512753Y-143646626D01*
X135531862Y-143647042D01*
X135551878Y-143647180D01*
X135565099Y-143647119D01*
X135584189Y-143646796D01*
X135602391Y-143646196D01*
X135619704Y-143645319D01*
X135636128Y-143644165D01*
X135651663Y-143642734D01*
X135666310Y-143641026D01*
X135684456Y-143638319D01*
X135701023Y-143635119D01*
X135716009Y-143631427D01*
X135722936Y-143629356D01*
X135739151Y-143623290D01*
X135753791Y-143615953D01*
X135766857Y-143607347D01*
X135778349Y-143597471D01*
X135788266Y-143586324D01*
X135796610Y-143573907D01*
X135803576Y-143559668D01*
X135809361Y-143543282D01*
X135813139Y-143528627D01*
X135816161Y-143512599D01*
X135818428Y-143495196D01*
X135819940Y-143476420D01*
X135820577Y-143461436D01*
X135820790Y-143445680D01*
X135820790Y-143072355D01*
X135820700Y-143060466D01*
X135820226Y-143043391D01*
X135819347Y-143027223D01*
X135818062Y-143011964D01*
X135815718Y-142993030D01*
X135812653Y-142975711D01*
X135808866Y-142960006D01*
X135804358Y-142945915D01*
X135797709Y-142930572D01*
X135794701Y-142925053D01*
X135786103Y-142912259D01*
X135775967Y-142900896D01*
X135764293Y-142890964D01*
X135751080Y-142882464D01*
X135736329Y-142875394D01*
X135720039Y-142869755D01*
X135712994Y-142867848D01*
X135697572Y-142864401D01*
X135680376Y-142861448D01*
X135661405Y-142858986D01*
X135646013Y-142857463D01*
X135629622Y-142856217D01*
X135612233Y-142855248D01*
X135593846Y-142854555D01*
X135574460Y-142854140D01*
X135554076Y-142854002D01*
X135540365Y-142854063D01*
X135520587Y-142854386D01*
X135501755Y-142854986D01*
X135483870Y-142855863D01*
X135466932Y-142857017D01*
X135450940Y-142858448D01*
X135435895Y-142860155D01*
X135417308Y-142862863D01*
X135400404Y-142866063D01*
X135385183Y-142869755D01*
X135378074Y-142871843D01*
X135361418Y-142878103D01*
X135346354Y-142885847D01*
X135332882Y-142895076D01*
X135321002Y-142905789D01*
X135310714Y-142917988D01*
X135302018Y-142931671D01*
X135296093Y-142943967D01*
X135290958Y-142957774D01*
X135286613Y-142973093D01*
X135283059Y-142989923D01*
X135280294Y-143008264D01*
X135278738Y-143023011D01*
X135277627Y-143038609D01*
X135276961Y-143055057D01*
X135276739Y-143072355D01*
X135276739Y-143445680D01*
X135084420Y-143445680D01*
X135083897Y-143433433D01*
X135083665Y-143416737D01*
X135083665Y-143000181D01*
X135083761Y-142992371D01*
X135084534Y-142977015D01*
X135086080Y-142962011D01*
X135088398Y-142947360D01*
X135093325Y-142926042D01*
X135099990Y-142905517D01*
X135108394Y-142885784D01*
X135118537Y-142866843D01*
X135130419Y-142848694D01*
X135139306Y-142837034D01*
X135148966Y-142825727D01*
X135159399Y-142814772D01*
X135170605Y-142804169D01*
X135182583Y-142793918D01*
X135195271Y-142784158D01*
X135208698Y-142775027D01*
X135222863Y-142766526D01*
X135237767Y-142758655D01*
X135253409Y-142751414D01*
X135269789Y-142744802D01*
X135286908Y-142738820D01*
X135304766Y-142733468D01*
X135323361Y-142728745D01*
X135342696Y-142724652D01*
X135362768Y-142721189D01*
X135383580Y-142718355D01*
X135405129Y-142716151D01*
X135427417Y-142714577D01*
X135450444Y-142713633D01*
X135474209Y-142713318D01*
X135494134Y-142713449D01*
G37*
G36*
X134794970Y-142361608D02*
G01*
X134605926Y-142361608D01*
X134605926Y-142549187D01*
X134794970Y-142549187D01*
X134794970Y-142361608D01*
G37*
G36*
X134794970Y-142736765D02*
G01*
X134605926Y-142736765D01*
X134605926Y-143745000D01*
X134794970Y-143745000D01*
X134794970Y-142736765D01*
G37*
G36*
X134279129Y-142736765D02*
G01*
X134090085Y-142736765D01*
X134090085Y-142856933D01*
X134085346Y-142839542D01*
X134078459Y-142823273D01*
X134069421Y-142808126D01*
X134058234Y-142794101D01*
X134044898Y-142781198D01*
X134029411Y-142769417D01*
X134011776Y-142758758D01*
X133991991Y-142749221D01*
X133970056Y-142740806D01*
X133945972Y-142733514D01*
X133919738Y-142727343D01*
X133891355Y-142722294D01*
X133876357Y-142720190D01*
X133860822Y-142718367D01*
X133844750Y-142716824D01*
X133828140Y-142715562D01*
X133810993Y-142714580D01*
X133793308Y-142713879D01*
X133775086Y-142713458D01*
X133756327Y-142713318D01*
X133732373Y-142713591D01*
X133709329Y-142714411D01*
X133687196Y-142715778D01*
X133665972Y-142717691D01*
X133645659Y-142720151D01*
X133626256Y-142723158D01*
X133607763Y-142726711D01*
X133590181Y-142730812D01*
X133573508Y-142735458D01*
X133557746Y-142740652D01*
X133542894Y-142746392D01*
X133528952Y-142752679D01*
X133515920Y-142759513D01*
X133498080Y-142770788D01*
X133482287Y-142783293D01*
X133468210Y-142797119D01*
X133455518Y-142812355D01*
X133444210Y-142829001D01*
X133434287Y-142847058D01*
X133425749Y-142866525D01*
X133418595Y-142887402D01*
X133414595Y-142902104D01*
X133411210Y-142917433D01*
X133408441Y-142933388D01*
X133406287Y-142949970D01*
X133404749Y-142967180D01*
X133403826Y-142985015D01*
X133403518Y-143003478D01*
X133403518Y-143745000D01*
X133592562Y-143745000D01*
X133592562Y-143003845D01*
X133592860Y-142987075D01*
X133593754Y-142971708D01*
X133595506Y-142955862D01*
X133598407Y-142940226D01*
X133598790Y-142938632D01*
X133603308Y-142924206D01*
X133609854Y-142909781D01*
X133617376Y-142896958D01*
X133624069Y-142887341D01*
X133636125Y-142874976D01*
X133651409Y-142864260D01*
X133664991Y-142857305D01*
X133680389Y-142851277D01*
X133697604Y-142846176D01*
X133716634Y-142842003D01*
X133737480Y-142838757D01*
X133752386Y-142837109D01*
X133768100Y-142835872D01*
X133784621Y-142835048D01*
X133801949Y-142834636D01*
X133810915Y-142834584D01*
X133831282Y-142834726D01*
X133850753Y-142835151D01*
X133869329Y-142835859D01*
X133887010Y-142836851D01*
X133903796Y-142838126D01*
X133919687Y-142839685D01*
X133934682Y-142841527D01*
X133953284Y-142844423D01*
X133970294Y-142847823D01*
X133982007Y-142850704D01*
X133996381Y-142854958D01*
X134012787Y-142861160D01*
X134027458Y-142868346D01*
X134040393Y-142876515D01*
X134053626Y-142887618D01*
X134064359Y-142900137D01*
X134065905Y-142902362D01*
X134074122Y-142916869D01*
X134079671Y-142930552D01*
X134084040Y-142945684D01*
X134087228Y-142962265D01*
X134089235Y-142980296D01*
X134089990Y-142995763D01*
X134090085Y-143003845D01*
X134090085Y-143745000D01*
X134279129Y-143745000D01*
X134279129Y-142736765D01*
G37*
G36*
X132723058Y-142713621D02*
G01*
X132749438Y-142714531D01*
X132774841Y-142716048D01*
X132799269Y-142718172D01*
X132822721Y-142720903D01*
X132845196Y-142724240D01*
X132866696Y-142728184D01*
X132887219Y-142732735D01*
X132906767Y-142737893D01*
X132925338Y-142743657D01*
X132942934Y-142750029D01*
X132959553Y-142757007D01*
X132975197Y-142764592D01*
X132989864Y-142772783D01*
X133003556Y-142781582D01*
X133016271Y-142790987D01*
X133028072Y-142801051D01*
X133039112Y-142811915D01*
X133049390Y-142823582D01*
X133058907Y-142836050D01*
X133067662Y-142849319D01*
X133075657Y-142863390D01*
X133082889Y-142878262D01*
X133089361Y-142893935D01*
X133095071Y-142910410D01*
X133100020Y-142927687D01*
X133104207Y-142945764D01*
X133107633Y-142964644D01*
X133110298Y-142984324D01*
X133112201Y-143004806D01*
X133113343Y-143026090D01*
X133113724Y-143048175D01*
X133113724Y-143460701D01*
X133113688Y-143467844D01*
X133113152Y-143488711D01*
X133111971Y-143508734D01*
X133110146Y-143527913D01*
X133107678Y-143546249D01*
X133104565Y-143563741D01*
X133100808Y-143580389D01*
X133096408Y-143596194D01*
X133091363Y-143611155D01*
X133085674Y-143625273D01*
X133077088Y-143642784D01*
X133072268Y-143651017D01*
X133061460Y-143666599D01*
X133049095Y-143681002D01*
X133035173Y-143694225D01*
X133023710Y-143703369D01*
X133011371Y-143711849D01*
X132998156Y-143719666D01*
X132984065Y-143726820D01*
X132969099Y-143733311D01*
X132953257Y-143739138D01*
X132942082Y-143742687D01*
X132924291Y-143747581D01*
X132905263Y-143751960D01*
X132884998Y-143755824D01*
X132863497Y-143759173D01*
X132848476Y-143761120D01*
X132832906Y-143762837D01*
X132816786Y-143764325D01*
X132800116Y-143765585D01*
X132782897Y-143766615D01*
X132765128Y-143767416D01*
X132746810Y-143767989D01*
X132727942Y-143768332D01*
X132708525Y-143768447D01*
X132700303Y-143768416D01*
X132684123Y-143768170D01*
X132668295Y-143767678D01*
X132652819Y-143766939D01*
X132637695Y-143765955D01*
X132622923Y-143764724D01*
X132601425Y-143762416D01*
X132580720Y-143759555D01*
X132560806Y-143756139D01*
X132541685Y-143752170D01*
X132523355Y-143747647D01*
X132505818Y-143742570D01*
X132489073Y-143736939D01*
X132478497Y-143732862D01*
X132463846Y-143726226D01*
X132450651Y-143718965D01*
X132435320Y-143708312D01*
X132422578Y-143696548D01*
X132412423Y-143683674D01*
X132404855Y-143669689D01*
X132399875Y-143654593D01*
X132397482Y-143638387D01*
X132397482Y-143886050D01*
X132397741Y-143899678D01*
X132399101Y-143919192D01*
X132401626Y-143937593D01*
X132405318Y-143954879D01*
X132410174Y-143971051D01*
X132416197Y-143986108D01*
X132423385Y-144000052D01*
X132431739Y-144012882D01*
X132441258Y-144024597D01*
X132451943Y-144035198D01*
X132463794Y-144044685D01*
X132472389Y-144050497D01*
X132486430Y-144058512D01*
X132501850Y-144065683D01*
X132518648Y-144072010D01*
X132536823Y-144077494D01*
X132556377Y-144082134D01*
X132577310Y-144085930D01*
X132592030Y-144087992D01*
X132607363Y-144089680D01*
X132623308Y-144090992D01*
X132639866Y-144091929D01*
X132657037Y-144092492D01*
X132674820Y-144092679D01*
X132689779Y-144092563D01*
X132705806Y-144092216D01*
X132722901Y-144091636D01*
X132741063Y-144090824D01*
X132760293Y-144089781D01*
X132780590Y-144088506D01*
X132801955Y-144086999D01*
X132824388Y-144085260D01*
X132847888Y-144083290D01*
X132872456Y-144081087D01*
X132898092Y-144078653D01*
X132924795Y-144075987D01*
X132952565Y-144073089D01*
X132981404Y-144069959D01*
X132996223Y-144068307D01*
X133011310Y-144066597D01*
X133026663Y-144064829D01*
X133042283Y-144063004D01*
X133042283Y-144192697D01*
X133024169Y-144195270D01*
X133005549Y-144197677D01*
X132986423Y-144199918D01*
X132966789Y-144201993D01*
X132946649Y-144203902D01*
X132926002Y-144205645D01*
X132904849Y-144207222D01*
X132883189Y-144208633D01*
X132861023Y-144209879D01*
X132838350Y-144210958D01*
X132815170Y-144211871D01*
X132791484Y-144212618D01*
X132767291Y-144213199D01*
X132742591Y-144213614D01*
X132717385Y-144213863D01*
X132691672Y-144213946D01*
X132670900Y-144213818D01*
X132650622Y-144213436D01*
X132630840Y-144212799D01*
X132611553Y-144211908D01*
X132592761Y-144210762D01*
X132574464Y-144209360D01*
X132556663Y-144207705D01*
X132539356Y-144205794D01*
X132522545Y-144203629D01*
X132506229Y-144201209D01*
X132490408Y-144198534D01*
X132475082Y-144195605D01*
X132460252Y-144192420D01*
X132438934Y-144187166D01*
X132418731Y-144181339D01*
X132405794Y-144177079D01*
X132387161Y-144169996D01*
X132369455Y-144162082D01*
X132352677Y-144153338D01*
X132336826Y-144143763D01*
X132321902Y-144133357D01*
X132307906Y-144122120D01*
X132294837Y-144110053D01*
X132282695Y-144097154D01*
X132271481Y-144083425D01*
X132261194Y-144068866D01*
X132251832Y-144053353D01*
X132243390Y-144036764D01*
X132235869Y-144019100D01*
X132229269Y-144000361D01*
X132223590Y-143980546D01*
X132218832Y-143959656D01*
X132216172Y-143945132D01*
X132213921Y-143930129D01*
X132212079Y-143914649D01*
X132210646Y-143898691D01*
X132209623Y-143882254D01*
X132209009Y-143865340D01*
X132208804Y-143847948D01*
X132208804Y-143474989D01*
X132397482Y-143474989D01*
X132398020Y-143493182D01*
X132399633Y-143510254D01*
X132402322Y-143526206D01*
X132406086Y-143541038D01*
X132412778Y-143559070D01*
X132421381Y-143575110D01*
X132431897Y-143589157D01*
X132444325Y-143601213D01*
X132458665Y-143611277D01*
X132462552Y-143613485D01*
X132479826Y-143621620D01*
X132494591Y-143626984D01*
X132510909Y-143631718D01*
X132528779Y-143635820D01*
X132548201Y-143639291D01*
X132569175Y-143642131D01*
X132584020Y-143643674D01*
X132599555Y-143644936D01*
X132615779Y-143645918D01*
X132632694Y-143646619D01*
X132650298Y-143647040D01*
X132668591Y-143647180D01*
X132675226Y-143647167D01*
X132694517Y-143646968D01*
X132712888Y-143646532D01*
X132730337Y-143645856D01*
X132746865Y-143644943D01*
X132762472Y-143643791D01*
X132781850Y-143641885D01*
X132799590Y-143639555D01*
X132815692Y-143636802D01*
X132830158Y-143633625D01*
X132843284Y-143629795D01*
X132858227Y-143624026D01*
X132871542Y-143617166D01*
X132885370Y-143607493D01*
X132896855Y-143596248D01*
X132905996Y-143583433D01*
X132912012Y-143571222D01*
X132917008Y-143557258D01*
X132920985Y-143541541D01*
X132923942Y-143524070D01*
X132925573Y-143508832D01*
X132926552Y-143492471D01*
X132926878Y-143474989D01*
X132926878Y-143008974D01*
X132926704Y-142996140D01*
X132925932Y-142979920D01*
X132924541Y-142964718D01*
X132921932Y-142947150D01*
X132918358Y-142931173D01*
X132913818Y-142916789D01*
X132907095Y-142901629D01*
X132901536Y-142892642D01*
X132891245Y-142880491D01*
X132878610Y-142869938D01*
X132863630Y-142860983D01*
X132849357Y-142854739D01*
X132833455Y-142849605D01*
X132826559Y-142847786D01*
X132811504Y-142844500D01*
X132794765Y-142841684D01*
X132776344Y-142839337D01*
X132761424Y-142837885D01*
X132745557Y-142836697D01*
X132728743Y-142835772D01*
X132710982Y-142835112D01*
X132692275Y-142834716D01*
X132672621Y-142834584D01*
X132658684Y-142834647D01*
X132638577Y-142834978D01*
X132619430Y-142835592D01*
X132601242Y-142836489D01*
X132584014Y-142837670D01*
X132567746Y-142839134D01*
X132552437Y-142840881D01*
X132533518Y-142843652D01*
X132516304Y-142846926D01*
X132500797Y-142850704D01*
X132483267Y-142856128D01*
X132467545Y-142862554D01*
X132453629Y-142869981D01*
X132441520Y-142878411D01*
X132429374Y-142889848D01*
X132419830Y-142902728D01*
X132413392Y-142914885D01*
X132408045Y-142928688D01*
X132403789Y-142944137D01*
X132400625Y-142961232D01*
X132398879Y-142976092D01*
X132397831Y-142992006D01*
X132397482Y-143008974D01*
X132397482Y-143474989D01*
X132208804Y-143474989D01*
X132208804Y-142733101D01*
X132385026Y-142733101D01*
X132385026Y-142824692D01*
X132391649Y-142811206D01*
X132399978Y-142798589D01*
X132410013Y-142786842D01*
X132421754Y-142775966D01*
X132435200Y-142765960D01*
X132450353Y-142756823D01*
X132467211Y-142748557D01*
X132485776Y-142741161D01*
X132506046Y-142734636D01*
X132528022Y-142728980D01*
X132551704Y-142724194D01*
X132577092Y-142720279D01*
X132604186Y-142717233D01*
X132632985Y-142715058D01*
X132648025Y-142714297D01*
X132663491Y-142713753D01*
X132679383Y-142713426D01*
X132695702Y-142713318D01*
X132723058Y-142713621D01*
G37*
G36*
X131365942Y-142713449D02*
G01*
X131385280Y-142713841D01*
X131404032Y-142714496D01*
X131422197Y-142715413D01*
X131439776Y-142716591D01*
X131456767Y-142718032D01*
X131473172Y-142719734D01*
X131488990Y-142721698D01*
X131504221Y-142723924D01*
X131518866Y-142726412D01*
X131546395Y-142732174D01*
X131571577Y-142738983D01*
X131594411Y-142746840D01*
X131614899Y-142755744D01*
X131633040Y-142765696D01*
X131648834Y-142776696D01*
X131662280Y-142788743D01*
X131673380Y-142801838D01*
X131682133Y-142815980D01*
X131688538Y-142831170D01*
X131692597Y-142847407D01*
X131694795Y-142847407D01*
X131694795Y-142735300D01*
X131881641Y-142735300D01*
X131881641Y-144190498D01*
X131692597Y-144190498D01*
X131692597Y-143686748D01*
X131683431Y-143701053D01*
X131672703Y-143711951D01*
X131659166Y-143721919D01*
X131646315Y-143729223D01*
X131631666Y-143735932D01*
X131615220Y-143742046D01*
X131596976Y-143747564D01*
X131587343Y-143750093D01*
X131572663Y-143753580D01*
X131557706Y-143756700D01*
X131542473Y-143759453D01*
X131526962Y-143761839D01*
X131511174Y-143763858D01*
X131495110Y-143765510D01*
X131478768Y-143766795D01*
X131462150Y-143767713D01*
X131445254Y-143768263D01*
X131428082Y-143768447D01*
X131417692Y-143768422D01*
X131402472Y-143768295D01*
X131387690Y-143768058D01*
X131368662Y-143767571D01*
X131350413Y-143766890D01*
X131332942Y-143766014D01*
X131316249Y-143764943D01*
X131300335Y-143763678D01*
X131285200Y-143762219D01*
X131268885Y-143760433D01*
X131252548Y-143758189D01*
X131236187Y-143755487D01*
X131219804Y-143752327D01*
X131203398Y-143748709D01*
X131186969Y-143744633D01*
X131170517Y-143740099D01*
X131154042Y-143735108D01*
X131149925Y-143733766D01*
X131134017Y-143728118D01*
X131119002Y-143722025D01*
X131104879Y-143715485D01*
X131091650Y-143708498D01*
X131076369Y-143699137D01*
X131062484Y-143689078D01*
X131049994Y-143678321D01*
X131042236Y-143670991D01*
X131029936Y-143657645D01*
X131020662Y-143645949D01*
X131011892Y-143633350D01*
X131003626Y-143619846D01*
X130995864Y-143605438D01*
X130988605Y-143590125D01*
X130981850Y-143573907D01*
X130978656Y-143565437D01*
X130972886Y-143547954D01*
X130967940Y-143529750D01*
X130963818Y-143510825D01*
X130961268Y-143496158D01*
X130959182Y-143481086D01*
X130957559Y-143465607D01*
X130956400Y-143449723D01*
X130956227Y-143445680D01*
X131148546Y-143445680D01*
X131148768Y-143461436D01*
X131149435Y-143476420D01*
X131151015Y-143495196D01*
X131153385Y-143512599D01*
X131156545Y-143528627D01*
X131160494Y-143543282D01*
X131166543Y-143559668D01*
X131173825Y-143573907D01*
X131177113Y-143579026D01*
X131186445Y-143590935D01*
X131197370Y-143601574D01*
X131209887Y-143610942D01*
X131223996Y-143619040D01*
X131239697Y-143625869D01*
X131256990Y-143631427D01*
X131268229Y-143634242D01*
X131284626Y-143637565D01*
X131302638Y-143640396D01*
X131317207Y-143642196D01*
X131332683Y-143643719D01*
X131349068Y-143644965D01*
X131366360Y-143645934D01*
X131384561Y-143646626D01*
X131403669Y-143647042D01*
X131423686Y-143647180D01*
X131436906Y-143647119D01*
X131455997Y-143646796D01*
X131474198Y-143646196D01*
X131491511Y-143645319D01*
X131507935Y-143644165D01*
X131523471Y-143642734D01*
X131538117Y-143641026D01*
X131556264Y-143638319D01*
X131572830Y-143635119D01*
X131587817Y-143631427D01*
X131594743Y-143629356D01*
X131610958Y-143623290D01*
X131625598Y-143615953D01*
X131638664Y-143607347D01*
X131650156Y-143597471D01*
X131660074Y-143586324D01*
X131668417Y-143573907D01*
X131675383Y-143559668D01*
X131681168Y-143543282D01*
X131684946Y-143528627D01*
X131687969Y-143512599D01*
X131690236Y-143495196D01*
X131691747Y-143476420D01*
X131692385Y-143461436D01*
X131692597Y-143445680D01*
X131692597Y-143072355D01*
X131692507Y-143060466D01*
X131692034Y-143043391D01*
X131691155Y-143027223D01*
X131689870Y-143011964D01*
X131687526Y-142993030D01*
X131684460Y-142975711D01*
X131680673Y-142960006D01*
X131676165Y-142945915D01*
X131669516Y-142930572D01*
X131666508Y-142925053D01*
X131657911Y-142912259D01*
X131647775Y-142900896D01*
X131636100Y-142890964D01*
X131622888Y-142882464D01*
X131608137Y-142875394D01*
X131591847Y-142869755D01*
X131584802Y-142867848D01*
X131569380Y-142864401D01*
X131552184Y-142861448D01*
X131533213Y-142858986D01*
X131517820Y-142857463D01*
X131501429Y-142856217D01*
X131484040Y-142855248D01*
X131465653Y-142854555D01*
X131446268Y-142854140D01*
X131425884Y-142854002D01*
X131412172Y-142854063D01*
X131392394Y-142854386D01*
X131373562Y-142854986D01*
X131355678Y-142855863D01*
X131338739Y-142857017D01*
X131322748Y-142858448D01*
X131307703Y-142860155D01*
X131289116Y-142862863D01*
X131272211Y-142866063D01*
X131256990Y-142869755D01*
X131249882Y-142871843D01*
X131233225Y-142878103D01*
X131218161Y-142885847D01*
X131204689Y-142895076D01*
X131192809Y-142905789D01*
X131182521Y-142917988D01*
X131173825Y-142931671D01*
X131167900Y-142943967D01*
X131162766Y-142957774D01*
X131158421Y-142973093D01*
X131154866Y-142989923D01*
X131152101Y-143008264D01*
X131150546Y-143023011D01*
X131149435Y-143038609D01*
X131148768Y-143055057D01*
X131148546Y-143072355D01*
X131148546Y-143445680D01*
X130956227Y-143445680D01*
X130955704Y-143433433D01*
X130955472Y-143416737D01*
X130955472Y-143000181D01*
X130955569Y-142992371D01*
X130956342Y-142977015D01*
X130957887Y-142962011D01*
X130960206Y-142947360D01*
X130965132Y-142926042D01*
X130971798Y-142905517D01*
X130980202Y-142885784D01*
X130990345Y-142866843D01*
X131002227Y-142848694D01*
X131011114Y-142837034D01*
X131020774Y-142825727D01*
X131031207Y-142814772D01*
X131042412Y-142804169D01*
X131054391Y-142793918D01*
X131067079Y-142784158D01*
X131080505Y-142775027D01*
X131094671Y-142766526D01*
X131109574Y-142758655D01*
X131125216Y-142751414D01*
X131141597Y-142744802D01*
X131158716Y-142738820D01*
X131176573Y-142733468D01*
X131195169Y-142728745D01*
X131214503Y-142724652D01*
X131234576Y-142721189D01*
X131255387Y-142718355D01*
X131276937Y-142716151D01*
X131299225Y-142714577D01*
X131322251Y-142713633D01*
X131346016Y-142713318D01*
X131365942Y-142713449D01*
G37*
G36*
X130410551Y-142715081D02*
G01*
X130427175Y-142717256D01*
X130443707Y-142719844D01*
X130460148Y-142722843D01*
X130476497Y-142726255D01*
X130492754Y-142730079D01*
X130508920Y-142734315D01*
X130524994Y-142738963D01*
X130540513Y-142744064D01*
X130555013Y-142749656D01*
X130568494Y-142755742D01*
X130583913Y-142764040D01*
X130597739Y-142773108D01*
X130609973Y-142782945D01*
X130620615Y-142793551D01*
X130627562Y-142801107D01*
X130638567Y-142814915D01*
X130646856Y-142827057D01*
X130654687Y-142840171D01*
X130662060Y-142854259D01*
X130668975Y-142869320D01*
X130675432Y-142885354D01*
X130681432Y-142902362D01*
X130686841Y-142920205D01*
X130691530Y-142938746D01*
X130694572Y-142953111D01*
X130697210Y-142967868D01*
X130699441Y-142983018D01*
X130701267Y-142998561D01*
X130702687Y-143014497D01*
X130703701Y-143030825D01*
X130704310Y-143047547D01*
X130704513Y-143064661D01*
X130704513Y-143410143D01*
X130704482Y-143417400D01*
X130704020Y-143438610D01*
X130703005Y-143458977D01*
X130701436Y-143478500D01*
X130699313Y-143497179D01*
X130696636Y-143515014D01*
X130693405Y-143532006D01*
X130689620Y-143548155D01*
X130685282Y-143563459D01*
X130680390Y-143577920D01*
X130673005Y-143595889D01*
X130664539Y-143612513D01*
X130654893Y-143627946D01*
X130644068Y-143642189D01*
X130632064Y-143655240D01*
X130618881Y-143667101D01*
X130604518Y-143677772D01*
X130588976Y-143687251D01*
X130572255Y-143695540D01*
X130555494Y-143702982D01*
X130538733Y-143709737D01*
X130521972Y-143715805D01*
X130505210Y-143721186D01*
X130488449Y-143725880D01*
X130471688Y-143729887D01*
X130454927Y-143733207D01*
X130438166Y-143735840D01*
X130429478Y-143736950D01*
X130410530Y-143738953D01*
X130394944Y-143740268D01*
X130378179Y-143741422D01*
X130360236Y-143742415D01*
X130341115Y-143743246D01*
X130320815Y-143743917D01*
X130299337Y-143744427D01*
X130284363Y-143744678D01*
X130268865Y-143744856D01*
X130252844Y-143744964D01*
X130236299Y-143745000D01*
X130226316Y-143745000D01*
X130211341Y-143745000D01*
X130196365Y-143745000D01*
X130181390Y-143745000D01*
X130166415Y-143745000D01*
X130151440Y-143745000D01*
X130136465Y-143745000D01*
X130121490Y-143745000D01*
X130106515Y-143745000D01*
X130091539Y-143745000D01*
X130076564Y-143745000D01*
X130059866Y-143743254D01*
X130043294Y-143741130D01*
X130026847Y-143738628D01*
X130010527Y-143735749D01*
X129994333Y-143732492D01*
X129978264Y-143728857D01*
X129962322Y-143724844D01*
X129946505Y-143720453D01*
X129931209Y-143715559D01*
X129916829Y-143710218D01*
X129903366Y-143704430D01*
X129887824Y-143696568D01*
X129873713Y-143688008D01*
X129861033Y-143678751D01*
X129849785Y-143668796D01*
X129835184Y-143652987D01*
X129822020Y-143635510D01*
X129814041Y-143622932D01*
X129806701Y-143609612D01*
X129799999Y-143595551D01*
X129793936Y-143580750D01*
X129788510Y-143565206D01*
X129783723Y-143548922D01*
X129779575Y-143531896D01*
X129776064Y-143514128D01*
X129773192Y-143495620D01*
X129770958Y-143476370D01*
X129769362Y-143456379D01*
X129768496Y-143437620D01*
X129961160Y-143437620D01*
X129961298Y-143450002D01*
X129961913Y-143465710D01*
X129963021Y-143480502D01*
X129965098Y-143497704D01*
X129967944Y-143513474D01*
X129971559Y-143527814D01*
X129976913Y-143543133D01*
X129982373Y-143554397D01*
X129991820Y-143568395D01*
X130003370Y-143580323D01*
X130017024Y-143590183D01*
X130030402Y-143596988D01*
X130035128Y-143599267D01*
X130049408Y-143605415D01*
X130063842Y-143610532D01*
X130078430Y-143614620D01*
X130093174Y-143617676D01*
X130108072Y-143619703D01*
X130118811Y-143620647D01*
X130134360Y-143621651D01*
X130152270Y-143622458D01*
X130168298Y-143622962D01*
X130185838Y-143623339D01*
X130204889Y-143623591D01*
X130220169Y-143623698D01*
X130236299Y-143623733D01*
X130247147Y-143623717D01*
X130262710Y-143623635D01*
X130282139Y-143623414D01*
X130300056Y-143623068D01*
X130316463Y-143622596D01*
X130331358Y-143621997D01*
X130347851Y-143621072D01*
X130364527Y-143619703D01*
X130369467Y-143619142D01*
X130384219Y-143616772D01*
X130398868Y-143613372D01*
X130413413Y-143608941D01*
X130427856Y-143603480D01*
X130442196Y-143596988D01*
X130453451Y-143591423D01*
X130467406Y-143581859D01*
X130479257Y-143570225D01*
X130489005Y-143556524D01*
X130495685Y-143543133D01*
X130498500Y-143535731D01*
X130503300Y-143519382D01*
X130506454Y-143504184D01*
X130508839Y-143487554D01*
X130510454Y-143469494D01*
X130511193Y-143454015D01*
X130511439Y-143437620D01*
X130511439Y-143036817D01*
X130511416Y-143031119D01*
X130511078Y-143014612D01*
X130510334Y-142998988D01*
X130509185Y-142984246D01*
X130507021Y-142965962D01*
X130504136Y-142949246D01*
X130500529Y-142934099D01*
X130495007Y-142917372D01*
X130488358Y-142903094D01*
X130486883Y-142900512D01*
X130478556Y-142888437D01*
X130466462Y-142875789D01*
X130454632Y-142866784D01*
X130441210Y-142859174D01*
X130426196Y-142852959D01*
X130409589Y-142848140D01*
X130398604Y-142845717D01*
X130382263Y-142842858D01*
X130363988Y-142840422D01*
X130349012Y-142838873D01*
X130332947Y-142837563D01*
X130315794Y-142836491D01*
X130297553Y-142835657D01*
X130278223Y-142835061D01*
X130257805Y-142834703D01*
X130236299Y-142834584D01*
X130221841Y-142834637D01*
X130201060Y-142834915D01*
X130181367Y-142835432D01*
X130162763Y-142836186D01*
X130145248Y-142837179D01*
X130128820Y-142838410D01*
X130113481Y-142839879D01*
X130094722Y-142842209D01*
X130077898Y-142844963D01*
X130063009Y-142848140D01*
X130059560Y-142848992D01*
X130043272Y-142854090D01*
X130028577Y-142860584D01*
X130015473Y-142868473D01*
X130003962Y-142877757D01*
X129992249Y-142890740D01*
X129984240Y-142903094D01*
X129982820Y-142905754D01*
X129976397Y-142920521D01*
X129971100Y-142937739D01*
X129967674Y-142953278D01*
X129964969Y-142970386D01*
X129962985Y-142989062D01*
X129961971Y-143004098D01*
X129961362Y-143020016D01*
X129961160Y-143036817D01*
X129961160Y-143437620D01*
X129768496Y-143437620D01*
X129768405Y-143435646D01*
X129768086Y-143414173D01*
X129768086Y-143068691D01*
X129768288Y-143051168D01*
X129768897Y-143034044D01*
X129769911Y-143017319D01*
X129771331Y-143000994D01*
X129773157Y-142985068D01*
X129775389Y-142969541D01*
X129778026Y-142954413D01*
X129781069Y-142939685D01*
X129785757Y-142920668D01*
X129791166Y-142902362D01*
X129794324Y-142893744D01*
X129800895Y-142877280D01*
X129807810Y-142861847D01*
X129815069Y-142847444D01*
X129822671Y-142834072D01*
X129830616Y-142821730D01*
X129841031Y-142807752D01*
X129851983Y-142795383D01*
X129863813Y-142784276D01*
X129877092Y-142774081D01*
X129891820Y-142764799D01*
X129907997Y-142756428D01*
X129921981Y-142750389D01*
X129936894Y-142744934D01*
X129952733Y-142740062D01*
X129960581Y-142738046D01*
X129976106Y-142734279D01*
X129991402Y-142730867D01*
X130006468Y-142727811D01*
X130021306Y-142725109D01*
X130035915Y-142722762D01*
X130053854Y-142720327D01*
X130071435Y-142718447D01*
X130078605Y-142717826D01*
X130094198Y-142716704D01*
X130111463Y-142715742D01*
X130130400Y-142714941D01*
X130145699Y-142714445D01*
X130161939Y-142714039D01*
X130179118Y-142713723D01*
X130197238Y-142713498D01*
X130216299Y-142713363D01*
X130236299Y-142713318D01*
X130246489Y-142713318D01*
X130261687Y-142713318D01*
X130276782Y-142713318D01*
X130291775Y-142713318D01*
X130306664Y-142713318D01*
X130321450Y-142713318D01*
X130336133Y-142713318D01*
X130355551Y-142713318D01*
X130374785Y-142713318D01*
X130393836Y-142713318D01*
X130410551Y-142715081D01*
G37*
G36*
X129064300Y-143768447D02*
G01*
X129083506Y-143768408D01*
X129101695Y-143768292D01*
X129118866Y-143768099D01*
X129135020Y-143767829D01*
X129150156Y-143767481D01*
X129168754Y-143766897D01*
X129185544Y-143766176D01*
X129200525Y-143765317D01*
X129216707Y-143764050D01*
X129231807Y-143762478D01*
X129247569Y-143760279D01*
X129263993Y-143757455D01*
X129281079Y-143754004D01*
X129298826Y-143749927D01*
X129313501Y-143746215D01*
X129324785Y-143743168D01*
X129340630Y-143738691D01*
X129355559Y-143733688D01*
X129369573Y-143728158D01*
X129385802Y-143720505D01*
X129400599Y-143712030D01*
X129413966Y-143702731D01*
X129425901Y-143692609D01*
X129436747Y-143681307D01*
X129447075Y-143668467D01*
X129456883Y-143654087D01*
X129464356Y-143641477D01*
X129471498Y-143627881D01*
X129478307Y-143613301D01*
X129484784Y-143597736D01*
X129486351Y-143593691D01*
X129492276Y-143577359D01*
X129497411Y-143560054D01*
X129501756Y-143541776D01*
X129505311Y-143522525D01*
X129507459Y-143507448D01*
X129509162Y-143491823D01*
X129510421Y-143475651D01*
X129511236Y-143458932D01*
X129511606Y-143441665D01*
X129511631Y-143435788D01*
X129511631Y-143060997D01*
X129511376Y-143040036D01*
X129510612Y-143019833D01*
X129509338Y-143000388D01*
X129507555Y-142981702D01*
X129505262Y-142963775D01*
X129502460Y-142946606D01*
X129499148Y-142930195D01*
X129495327Y-142914543D01*
X129490997Y-142899650D01*
X129486157Y-142885515D01*
X129477942Y-142865734D01*
X129468580Y-142847660D01*
X129458072Y-142831293D01*
X129446418Y-142816632D01*
X129435285Y-142803958D01*
X129424100Y-142792268D01*
X129412860Y-142781561D01*
X129401567Y-142771839D01*
X129387944Y-142761470D01*
X129374244Y-142752519D01*
X129359608Y-142744628D01*
X129343452Y-142737715D01*
X129328828Y-142732703D01*
X129313148Y-142728370D01*
X129296413Y-142724717D01*
X129278623Y-142721744D01*
X129264077Y-142719769D01*
X129246458Y-142717671D01*
X129229466Y-142715984D01*
X129213099Y-142714708D01*
X129197359Y-142713844D01*
X129182244Y-142713392D01*
X129173476Y-142713318D01*
X129158129Y-142713318D01*
X129140940Y-142713318D01*
X129125862Y-142713318D01*
X129109604Y-142713318D01*
X129092168Y-142713318D01*
X129073552Y-142713318D01*
X129058816Y-142713318D01*
X129043417Y-142713318D01*
X129025283Y-142713426D01*
X129007153Y-142713753D01*
X128989025Y-142714297D01*
X128970900Y-142715058D01*
X128952778Y-142716037D01*
X128934658Y-142717233D01*
X128916542Y-142718647D01*
X128898428Y-142720279D01*
X128880318Y-142722128D01*
X128862210Y-142724194D01*
X128844105Y-142726478D01*
X128826003Y-142728980D01*
X128807903Y-142731699D01*
X128789807Y-142734636D01*
X128771714Y-142737790D01*
X128753623Y-142741161D01*
X128753623Y-142883677D01*
X128774509Y-142877732D01*
X128795217Y-142872171D01*
X128815747Y-142866993D01*
X128836101Y-142862199D01*
X128856276Y-142857788D01*
X128876275Y-142853761D01*
X128896096Y-142850118D01*
X128915739Y-142846857D01*
X128935205Y-142843981D01*
X128954494Y-142841488D01*
X128973605Y-142839379D01*
X128992538Y-142837653D01*
X129011294Y-142836310D01*
X129029873Y-142835351D01*
X129048274Y-142834776D01*
X129066498Y-142834584D01*
X129086463Y-142834726D01*
X129105417Y-142835151D01*
X129123360Y-142835859D01*
X129140292Y-142836851D01*
X129156212Y-142838126D01*
X129171122Y-142839685D01*
X129189429Y-142842204D01*
X129205938Y-142845226D01*
X129220650Y-142848752D01*
X129227332Y-142850704D01*
X129242600Y-142856368D01*
X129256348Y-142863284D01*
X129268575Y-142871452D01*
X129281240Y-142882906D01*
X129291716Y-142896164D01*
X129298773Y-142908590D01*
X129304472Y-142922609D01*
X129309206Y-142938793D01*
X129312297Y-142953299D01*
X129314770Y-142969190D01*
X129316625Y-142986467D01*
X129317861Y-143005128D01*
X129318383Y-143020034D01*
X129318557Y-143035718D01*
X129318557Y-143458869D01*
X129318213Y-143478017D01*
X129317183Y-143495895D01*
X129315465Y-143512501D01*
X129313061Y-143527837D01*
X129309090Y-143545220D01*
X129304045Y-143560617D01*
X129297927Y-143574028D01*
X129296575Y-143576472D01*
X129286958Y-143590112D01*
X129274868Y-143602180D01*
X129262904Y-143611037D01*
X129249222Y-143618803D01*
X129233823Y-143625477D01*
X129216707Y-143631060D01*
X129201372Y-143634838D01*
X129184307Y-143638113D01*
X129165514Y-143640883D01*
X129150284Y-143642631D01*
X129134082Y-143644095D01*
X129116908Y-143645275D01*
X129098761Y-143646173D01*
X129079642Y-143646787D01*
X129059550Y-143647117D01*
X129045615Y-143647180D01*
X129026428Y-143647023D01*
X129007244Y-143646551D01*
X128988063Y-143645763D01*
X128968885Y-143644661D01*
X128949709Y-143643245D01*
X128930537Y-143641513D01*
X128911367Y-143639467D01*
X128892200Y-143637105D01*
X128873036Y-143634429D01*
X128853875Y-143631438D01*
X128834717Y-143628132D01*
X128815561Y-143624511D01*
X128796409Y-143620576D01*
X128777259Y-143616325D01*
X128758112Y-143611760D01*
X128738968Y-143606880D01*
X128738968Y-143741702D01*
X128756940Y-143744941D01*
X128775227Y-143747970D01*
X128793828Y-143750791D01*
X128812745Y-143753403D01*
X128831976Y-143755806D01*
X128851522Y-143758000D01*
X128871383Y-143759985D01*
X128891559Y-143761761D01*
X128912050Y-143763328D01*
X128932855Y-143764686D01*
X128953975Y-143765835D01*
X128975411Y-143766775D01*
X128997161Y-143767507D01*
X129019226Y-143768029D01*
X129041605Y-143768342D01*
X129064300Y-143768447D01*
G37*
G36*
X128499366Y-142291266D02*
G01*
X128310322Y-142291266D01*
X128310322Y-142870854D01*
X128305584Y-142851778D01*
X128298696Y-142833932D01*
X128289658Y-142817317D01*
X128278471Y-142801932D01*
X128265135Y-142787778D01*
X128249649Y-142774855D01*
X128232013Y-142763163D01*
X128212228Y-142752702D01*
X128190293Y-142743471D01*
X128166209Y-142735471D01*
X128139976Y-142728702D01*
X128111592Y-142723164D01*
X128096595Y-142720856D01*
X128081060Y-142718856D01*
X128064987Y-142717164D01*
X128048377Y-142715779D01*
X128031230Y-142714702D01*
X128013546Y-142713933D01*
X127995324Y-142713472D01*
X127976564Y-142713318D01*
X127952610Y-142713591D01*
X127929567Y-142714411D01*
X127907433Y-142715778D01*
X127886210Y-142717691D01*
X127865896Y-142720151D01*
X127846493Y-142723158D01*
X127828001Y-142726711D01*
X127810418Y-142730812D01*
X127793746Y-142735458D01*
X127777983Y-142740652D01*
X127763131Y-142746392D01*
X127749189Y-142752679D01*
X127736158Y-142759513D01*
X127718317Y-142770788D01*
X127702524Y-142783293D01*
X127688447Y-142797119D01*
X127675755Y-142812355D01*
X127664447Y-142829001D01*
X127654524Y-142847058D01*
X127645986Y-142866525D01*
X127638832Y-142887402D01*
X127634832Y-142902104D01*
X127631448Y-142917433D01*
X127628678Y-142933388D01*
X127626525Y-142949970D01*
X127624986Y-142967180D01*
X127624063Y-142985015D01*
X127623755Y-143003478D01*
X127623755Y-143745000D01*
X127812799Y-143745000D01*
X127812799Y-143020331D01*
X127813097Y-143003722D01*
X127813992Y-142988515D01*
X127815743Y-142972852D01*
X127818644Y-142957422D01*
X127819028Y-142955851D01*
X127823545Y-142941837D01*
X127830092Y-142927824D01*
X127838666Y-142913811D01*
X127844307Y-142906025D01*
X127856362Y-142893832D01*
X127871647Y-142883265D01*
X127885229Y-142876406D01*
X127900627Y-142870462D01*
X127917841Y-142865433D01*
X127936871Y-142861317D01*
X127957717Y-142858117D01*
X127972624Y-142856491D01*
X127988337Y-142855272D01*
X128004858Y-142854459D01*
X128022186Y-142854052D01*
X128031153Y-142854002D01*
X128052305Y-142854140D01*
X128072484Y-142854555D01*
X128091692Y-142855248D01*
X128109927Y-142856217D01*
X128127189Y-142857463D01*
X128143479Y-142858986D01*
X128158796Y-142860786D01*
X128177707Y-142863617D01*
X128194889Y-142866940D01*
X128206641Y-142869755D01*
X128220981Y-142873917D01*
X128237247Y-142880005D01*
X128251671Y-142887076D01*
X128264252Y-142895131D01*
X128276917Y-142906097D01*
X128286930Y-142918478D01*
X128288340Y-142920680D01*
X128295811Y-142934899D01*
X128301735Y-142951180D01*
X128305492Y-142966321D01*
X128308175Y-142982893D01*
X128309785Y-143000896D01*
X128310301Y-143016330D01*
X128310322Y-143020331D01*
X128310322Y-143745000D01*
X128499366Y-143745000D01*
X128499366Y-142291266D01*
G37*
G36*
X126922460Y-142713391D02*
G01*
X126943944Y-142713610D01*
X126965737Y-142713975D01*
X126987839Y-142714485D01*
X127010250Y-142715142D01*
X127032970Y-142715945D01*
X127056000Y-142716894D01*
X127079338Y-142717989D01*
X127102986Y-142719230D01*
X127126943Y-142720616D01*
X127151209Y-142722149D01*
X127175784Y-142723828D01*
X127200668Y-142725652D01*
X127225861Y-142727623D01*
X127251363Y-142729740D01*
X127277175Y-142732002D01*
X127277175Y-142863527D01*
X127253446Y-142860022D01*
X127229977Y-142856744D01*
X127206769Y-142853691D01*
X127183821Y-142850865D01*
X127161133Y-142848264D01*
X127138706Y-142845890D01*
X127116540Y-142843742D01*
X127094634Y-142841820D01*
X127072988Y-142840124D01*
X127051603Y-142838654D01*
X127030479Y-142837411D01*
X127009614Y-142836393D01*
X126989011Y-142835602D01*
X126968668Y-142835037D01*
X126948585Y-142834697D01*
X126928762Y-142834584D01*
X126910634Y-142834700D01*
X126893342Y-142835048D01*
X126876888Y-142835628D01*
X126861271Y-142836439D01*
X126846491Y-142837482D01*
X126828087Y-142839234D01*
X126811172Y-142841398D01*
X126795744Y-142843974D01*
X126778553Y-142847773D01*
X126769194Y-142850414D01*
X126754739Y-142855559D01*
X126739283Y-142862960D01*
X126725888Y-142871702D01*
X126714554Y-142881782D01*
X126705280Y-142893203D01*
X126698842Y-142903843D01*
X126692557Y-142918406D01*
X126687843Y-142934927D01*
X126685114Y-142950189D01*
X126683478Y-142966812D01*
X126682932Y-142984794D01*
X126682932Y-143154787D01*
X126987381Y-143154787D01*
X127005257Y-143154893D01*
X127022615Y-143155210D01*
X127039455Y-143155740D01*
X127055776Y-143156481D01*
X127071580Y-143157434D01*
X127086866Y-143158599D01*
X127101633Y-143159976D01*
X127122814Y-143162438D01*
X127142828Y-143165377D01*
X127161677Y-143168792D01*
X127179360Y-143172684D01*
X127195877Y-143177053D01*
X127211229Y-143181898D01*
X127216107Y-143183605D01*
X127230200Y-143189156D01*
X127247728Y-143197560D01*
X127263814Y-143207108D01*
X127278457Y-143217801D01*
X127291658Y-143229639D01*
X127303416Y-143242622D01*
X127313731Y-143256750D01*
X127322604Y-143272023D01*
X127330160Y-143288578D01*
X127336709Y-143306736D01*
X127340959Y-143321407D01*
X127344643Y-143336978D01*
X127347760Y-143353452D01*
X127350310Y-143370827D01*
X127352294Y-143389104D01*
X127353711Y-143408282D01*
X127354561Y-143428362D01*
X127354844Y-143449344D01*
X127354810Y-143457299D01*
X127354541Y-143472861D01*
X127354003Y-143487957D01*
X127352692Y-143509725D01*
X127350775Y-143530443D01*
X127348252Y-143550112D01*
X127345125Y-143568731D01*
X127341392Y-143586301D01*
X127337053Y-143602820D01*
X127332109Y-143618290D01*
X127326560Y-143632711D01*
X127320406Y-143646081D01*
X127315884Y-143654483D01*
X127305809Y-143670317D01*
X127294360Y-143684857D01*
X127281537Y-143698103D01*
X127267340Y-143710056D01*
X127251770Y-143720715D01*
X127234825Y-143730080D01*
X127221216Y-143736255D01*
X127206833Y-143741702D01*
X127191484Y-143746482D01*
X127174976Y-143750791D01*
X127157309Y-143754631D01*
X127138483Y-143758000D01*
X127118498Y-143760899D01*
X127097353Y-143763328D01*
X127082613Y-143764686D01*
X127067357Y-143765835D01*
X127051586Y-143766775D01*
X127035300Y-143767507D01*
X127018499Y-143768029D01*
X127001182Y-143768342D01*
X126983351Y-143768447D01*
X126965882Y-143768334D01*
X126948923Y-143767996D01*
X126932472Y-143767433D01*
X126916529Y-143766644D01*
X126901096Y-143765629D01*
X126886171Y-143764390D01*
X126857848Y-143761234D01*
X126831560Y-143757177D01*
X126807307Y-143752218D01*
X126785089Y-143746358D01*
X126764906Y-143739596D01*
X126746758Y-143731932D01*
X126730645Y-143723367D01*
X126716567Y-143713900D01*
X126704525Y-143703532D01*
X126694517Y-143692262D01*
X126683321Y-143673666D01*
X126676704Y-143653042D01*
X126676704Y-143745000D01*
X126493888Y-143745000D01*
X126493888Y-143276053D01*
X126682932Y-143276053D01*
X126682932Y-143546796D01*
X126683763Y-143559008D01*
X126687455Y-143573957D01*
X126694101Y-143587384D01*
X126703701Y-143599288D01*
X126716255Y-143609669D01*
X126731762Y-143618528D01*
X126745331Y-143624172D01*
X126760562Y-143628960D01*
X126777454Y-143632892D01*
X126781950Y-143633771D01*
X126800549Y-143637008D01*
X126815144Y-143639143D01*
X126830293Y-143641027D01*
X126845996Y-143642659D01*
X126862252Y-143644041D01*
X126879063Y-143645171D01*
X126896427Y-143646050D01*
X126914345Y-143646678D01*
X126932818Y-143647055D01*
X126951843Y-143647180D01*
X126989579Y-143647180D01*
X127007863Y-143646911D01*
X127024979Y-143646104D01*
X127040927Y-143644759D01*
X127055708Y-143642875D01*
X127072541Y-143639765D01*
X127087550Y-143635813D01*
X127103152Y-143629961D01*
X127105488Y-143628840D01*
X127118557Y-143621198D01*
X127130003Y-143611985D01*
X127141305Y-143599249D01*
X127149235Y-143586631D01*
X127155542Y-143572442D01*
X127160522Y-143556269D01*
X127163885Y-143540961D01*
X127166533Y-143523990D01*
X127168136Y-143509215D01*
X127169281Y-143493376D01*
X127169968Y-143476472D01*
X127170197Y-143458503D01*
X127170184Y-143453418D01*
X127170002Y-143438696D01*
X127169418Y-143420309D01*
X127168445Y-143403342D01*
X127167082Y-143387794D01*
X127164832Y-143370356D01*
X127161973Y-143355136D01*
X127157740Y-143339801D01*
X127153071Y-143328819D01*
X127144311Y-143315397D01*
X127132955Y-143304255D01*
X127119006Y-143295392D01*
X127104984Y-143289609D01*
X127102439Y-143288775D01*
X127088244Y-143285002D01*
X127071598Y-143281891D01*
X127056517Y-143279879D01*
X127039868Y-143278290D01*
X127021650Y-143277125D01*
X127006957Y-143276530D01*
X126991382Y-143276172D01*
X126974924Y-143276053D01*
X126682932Y-143276053D01*
X126493888Y-143276053D01*
X126493888Y-143030589D01*
X126493919Y-143022186D01*
X126494165Y-143005797D01*
X126494657Y-142989964D01*
X126495396Y-142974685D01*
X126496965Y-142952808D01*
X126499088Y-142932181D01*
X126501765Y-142912803D01*
X126504996Y-142894674D01*
X126508780Y-142877795D01*
X126513119Y-142862165D01*
X126518011Y-142847785D01*
X126525395Y-142830554D01*
X126531767Y-142818737D01*
X126541704Y-142804042D01*
X126553291Y-142790561D01*
X126566526Y-142778294D01*
X126581409Y-142767240D01*
X126597941Y-142757399D01*
X126611422Y-142750816D01*
X126625831Y-142744914D01*
X126641166Y-142739696D01*
X126657709Y-142734982D01*
X126675874Y-142730731D01*
X126695662Y-142726945D01*
X126717073Y-142723622D01*
X126732248Y-142721664D01*
X126748145Y-142719912D01*
X126764763Y-142718367D01*
X126782102Y-142717027D01*
X126800163Y-142715894D01*
X126818945Y-142714966D01*
X126838448Y-142714245D01*
X126858672Y-142713730D01*
X126879618Y-142713421D01*
X126901285Y-142713318D01*
X126922460Y-142713391D01*
G37*
G36*
X126166358Y-142736765D02*
G01*
X125987939Y-142736765D01*
X125987939Y-142902728D01*
X125986910Y-142887750D01*
X125983825Y-142873040D01*
X125978682Y-142858598D01*
X125971481Y-142844425D01*
X125962224Y-142830520D01*
X125950909Y-142816883D01*
X125945807Y-142811503D01*
X125934919Y-142800942D01*
X125923322Y-142790872D01*
X125911014Y-142781295D01*
X125897997Y-142772211D01*
X125884269Y-142763618D01*
X125869832Y-142755518D01*
X125854685Y-142747911D01*
X125838829Y-142740795D01*
X125822560Y-142734355D01*
X125806360Y-142728774D01*
X125790228Y-142724051D01*
X125774165Y-142720187D01*
X125758171Y-142717182D01*
X125742246Y-142715035D01*
X125726389Y-142713747D01*
X125710601Y-142713318D01*
X125618277Y-142713318D01*
X125618277Y-142877449D01*
X125723058Y-142877449D01*
X125739574Y-142877583D01*
X125755509Y-142877987D01*
X125770864Y-142878660D01*
X125785637Y-142879601D01*
X125806708Y-142881518D01*
X125826471Y-142884041D01*
X125844927Y-142887168D01*
X125862076Y-142890901D01*
X125877917Y-142895240D01*
X125892451Y-142900184D01*
X125909796Y-142907717D01*
X125917597Y-142911887D01*
X125931593Y-142921275D01*
X125943723Y-142932404D01*
X125953987Y-142945272D01*
X125962385Y-142959881D01*
X125968917Y-142976230D01*
X125973582Y-142994319D01*
X125975856Y-143009028D01*
X125977081Y-143024716D01*
X125977314Y-143035718D01*
X125977314Y-143745000D01*
X126166358Y-143745000D01*
X126166358Y-142736765D01*
G37*
G36*
X124729844Y-142588387D02*
G01*
X124725814Y-142843743D01*
X124729844Y-142843743D01*
X124731077Y-142832186D01*
X124735276Y-142817577D01*
X124742395Y-142803884D01*
X124752432Y-142791107D01*
X124765390Y-142779246D01*
X124781266Y-142768301D01*
X124795090Y-142760693D01*
X124810556Y-142753601D01*
X124827663Y-142747023D01*
X124845852Y-142741000D01*
X124864698Y-142735569D01*
X124884200Y-142730730D01*
X124904359Y-142726484D01*
X124925176Y-142722830D01*
X124946649Y-142719769D01*
X124961329Y-142718058D01*
X124976301Y-142716609D01*
X124991566Y-142715424D01*
X125007122Y-142714503D01*
X125022970Y-142713844D01*
X125039110Y-142713449D01*
X125055542Y-142713318D01*
X125082578Y-142713580D01*
X125108642Y-142714365D01*
X125133732Y-142715675D01*
X125157849Y-142717508D01*
X125180993Y-142719865D01*
X125203164Y-142722746D01*
X125224361Y-142726150D01*
X125244586Y-142730079D01*
X125263837Y-142734531D01*
X125282115Y-142739507D01*
X125299420Y-142745007D01*
X125315752Y-142751030D01*
X125331111Y-142757578D01*
X125345496Y-142764649D01*
X125358909Y-142772244D01*
X125371348Y-142780362D01*
X125382927Y-142789078D01*
X125398895Y-142803407D01*
X125413182Y-142819243D01*
X125425788Y-142836586D01*
X125436714Y-142855436D01*
X125443064Y-142868839D01*
X125448667Y-142882913D01*
X125453522Y-142897656D01*
X125457631Y-142913069D01*
X125460993Y-142929152D01*
X125463607Y-142945905D01*
X125465475Y-142963327D01*
X125466595Y-142981419D01*
X125466969Y-143000181D01*
X125466969Y-143446046D01*
X125466817Y-143461268D01*
X125466021Y-143483305D01*
X125464542Y-143504390D01*
X125462380Y-143524521D01*
X125459536Y-143543700D01*
X125456009Y-143561925D01*
X125451799Y-143579197D01*
X125446907Y-143595516D01*
X125441332Y-143610882D01*
X125435075Y-143625294D01*
X125428134Y-143638754D01*
X125420438Y-143651330D01*
X125408883Y-143667047D01*
X125395851Y-143681561D01*
X125385108Y-143691658D01*
X125373534Y-143701078D01*
X125361130Y-143709823D01*
X125347895Y-143717891D01*
X125333829Y-143725283D01*
X125318932Y-143731999D01*
X125303204Y-143738039D01*
X125292187Y-143741721D01*
X125274707Y-143746799D01*
X125256081Y-143751342D01*
X125236308Y-143755351D01*
X125215388Y-143758825D01*
X125200805Y-143760845D01*
X125185713Y-143762626D01*
X125170111Y-143764171D01*
X125153999Y-143765477D01*
X125137379Y-143766546D01*
X125120248Y-143767378D01*
X125102608Y-143767972D01*
X125084459Y-143768328D01*
X125065800Y-143768447D01*
X125046148Y-143768265D01*
X125027034Y-143767720D01*
X125008458Y-143766811D01*
X124990421Y-143765539D01*
X124972921Y-143763903D01*
X124955960Y-143761904D01*
X124939536Y-143759541D01*
X124923651Y-143756815D01*
X124908304Y-143753725D01*
X124893494Y-143750272D01*
X124872290Y-143744410D01*
X124852296Y-143737731D01*
X124833512Y-143730234D01*
X124815940Y-143721919D01*
X124810395Y-143719406D01*
X124794817Y-143711672D01*
X124780822Y-143703641D01*
X124768413Y-143695314D01*
X124754330Y-143683751D01*
X124743065Y-143671661D01*
X124734615Y-143659044D01*
X124728014Y-143642533D01*
X124725814Y-143625198D01*
X124725814Y-143745000D01*
X124540800Y-143745000D01*
X124540800Y-143486346D01*
X124729844Y-143486346D01*
X124730115Y-143497137D01*
X124731535Y-143512571D01*
X124734172Y-143527104D01*
X124739581Y-143545079D01*
X124747155Y-143561451D01*
X124756892Y-143576220D01*
X124768793Y-143589386D01*
X124782858Y-143600950D01*
X124799087Y-143610910D01*
X124803501Y-143613142D01*
X124817777Y-143619411D01*
X124833606Y-143625043D01*
X124850986Y-143630037D01*
X124869919Y-143634394D01*
X124890403Y-143638113D01*
X124904922Y-143640238D01*
X124920130Y-143642080D01*
X124936028Y-143643638D01*
X124952616Y-143644913D01*
X124969894Y-143645905D01*
X124987862Y-143646614D01*
X125006519Y-143647039D01*
X125025866Y-143647180D01*
X125034466Y-143647145D01*
X125051190Y-143646861D01*
X125067281Y-143646295D01*
X125082740Y-143645445D01*
X125097566Y-143644311D01*
X125118620Y-143642080D01*
X125138250Y-143639211D01*
X125156457Y-143635704D01*
X125173240Y-143631560D01*
X125188601Y-143626778D01*
X125206868Y-143619411D01*
X125222604Y-143610910D01*
X125229569Y-143606130D01*
X125242152Y-143595368D01*
X125252936Y-143583004D01*
X125261924Y-143569036D01*
X125269114Y-143553465D01*
X125274506Y-143536292D01*
X125278101Y-143517516D01*
X125279618Y-143502382D01*
X125280123Y-143486346D01*
X125280123Y-142973803D01*
X125279663Y-142957864D01*
X125278281Y-142943020D01*
X125275007Y-142924930D01*
X125270095Y-142908787D01*
X125263547Y-142894591D01*
X125255361Y-142882340D01*
X125242826Y-142869765D01*
X125227733Y-142860230D01*
X125220955Y-142857124D01*
X125204652Y-142851514D01*
X125190021Y-142847833D01*
X125173328Y-142844602D01*
X125154575Y-142841822D01*
X125133761Y-142839493D01*
X125118740Y-142838191D01*
X125102803Y-142837089D01*
X125085950Y-142836187D01*
X125068182Y-142835486D01*
X125049497Y-142834985D01*
X125029896Y-142834684D01*
X125009380Y-142834584D01*
X124992182Y-142834720D01*
X124975530Y-142835128D01*
X124959424Y-142835808D01*
X124943864Y-142836760D01*
X124914381Y-142839479D01*
X124887083Y-142843285D01*
X124861969Y-142848180D01*
X124839038Y-142854162D01*
X124818291Y-142861232D01*
X124799728Y-142869389D01*
X124783349Y-142878634D01*
X124769154Y-142888966D01*
X124757143Y-142900387D01*
X124747315Y-142912895D01*
X124739672Y-142926490D01*
X124734212Y-142941173D01*
X124730936Y-142956944D01*
X124729844Y-142973803D01*
X124729844Y-143486346D01*
X124540800Y-143486346D01*
X124540800Y-142291266D01*
X124729844Y-142291266D01*
X124729844Y-142588387D01*
G37*
%TO.C,REF\u002A\u002A*%
G36*
X136996395Y-138204064D02*
G01*
X136996395Y-138715262D01*
X132646395Y-136215262D01*
X132646395Y-136047159D01*
X133007146Y-136047159D01*
X133912931Y-136612430D01*
X134711158Y-135818542D01*
X135504564Y-137522555D01*
X136643305Y-138204064D01*
X136643305Y-133885913D01*
X135961797Y-133545401D01*
X135961797Y-136840564D01*
X135164051Y-135137034D01*
X134598779Y-134796038D01*
X133572417Y-135818542D01*
X133572417Y-132182384D01*
X133007146Y-131841388D01*
X133007146Y-136047159D01*
X132646395Y-136047159D01*
X132646395Y-131095262D01*
X136996395Y-133595262D01*
X136996395Y-138204064D01*
G37*
%TD*%
D11*
%TO.C,FID3*%
X193900000Y-155500000D03*
%TD*%
%TO.C,FID2*%
X119300000Y-88100000D03*
%TD*%
%TO.C,FID1*%
X187300000Y-27600000D03*
%TD*%
D12*
%TO.C,REF\u002A\u002A*%
X188637944Y-81432733D03*
%TD*%
%TO.C,REF\u002A\u002A*%
X161468071Y-97119267D03*
%TD*%
%TO.C,REF\u002A\u002A*%
X188637944Y-50059666D03*
%TD*%
%TO.C,REF\u002A\u002A*%
X161468071Y-34373133D03*
%TD*%
%TO.C,REF\u002A\u002A*%
X134298198Y-81432733D03*
%TD*%
%TO.C,REF\u002A\u002A*%
X134298198Y-50059666D03*
%TD*%
D13*
%TO.C,JP7*%
X157500000Y-149175000D03*
D14*
X157500000Y-150625000D03*
%TD*%
D15*
%TO.C,J1*%
X125030000Y-66700000D03*
X125030000Y-61700000D03*
D16*
X129430000Y-67500000D03*
X129430000Y-65350000D03*
X129430000Y-63050000D03*
X129430000Y-60900000D03*
D17*
X126730000Y-71700000D03*
X126730000Y-56700000D03*
%TD*%
D18*
%TO.C,SW1*%
X118400000Y-50600000D03*
X118400000Y-52300000D03*
D19*
X119949999Y-49774999D03*
X119949999Y-53124999D03*
D20*
X118399999Y-49149999D03*
X118399999Y-53749999D03*
%TD*%
D21*
%TO.C,R21*%
X133775000Y-61600000D03*
X135425000Y-61600000D03*
%TD*%
D22*
%TO.C,R14*%
X177895000Y-25587500D03*
X177895000Y-27237500D03*
%TD*%
D23*
%TO.C,U3*%
X153719999Y-95429999D03*
X153719999Y-96699999D03*
X153719999Y-97969999D03*
X153719999Y-99239999D03*
X148319999Y-99239999D03*
X148319999Y-97969999D03*
X148319999Y-96699999D03*
X148319999Y-95429999D03*
D24*
X151694999Y-98234999D03*
X151694999Y-96434999D03*
X150344999Y-98234999D03*
X150344999Y-96434999D03*
%TD*%
D25*
%TO.C,D2*%
X149258999Y-81726200D03*
D26*
X149258999Y-83226200D03*
X154358999Y-83226200D03*
X154358999Y-81726200D03*
%TD*%
D22*
%TO.C,R3*%
X197500000Y-116550000D03*
X197500000Y-118200000D03*
%TD*%
D27*
%TO.C,C11*%
X155600000Y-56500000D03*
X153700000Y-56500000D03*
%TD*%
D22*
%TO.C,R7*%
X194400000Y-107475000D03*
X194400000Y-109125000D03*
%TD*%
D28*
%TO.C,J2*%
X139950000Y-95250000D03*
X139950000Y-93250000D03*
D29*
X134200000Y-97600000D03*
X134200000Y-90900000D03*
%TD*%
D27*
%TO.C,C12*%
X159350000Y-49700000D03*
X157450000Y-49700000D03*
%TD*%
D13*
%TO.C,JP2*%
X137500000Y-149200000D03*
D14*
X137500000Y-150650000D03*
%TD*%
D22*
%TO.C,R18*%
X202040000Y-103275000D03*
X202040000Y-104925000D03*
%TD*%
D27*
%TO.C,C4*%
X158450000Y-83600000D03*
X156550000Y-83600000D03*
%TD*%
D25*
%TO.C,D12*%
X168577333Y-48265865D03*
D26*
X168577333Y-49765865D03*
X173677333Y-49765865D03*
X173677333Y-48265865D03*
%TD*%
D25*
%TO.C,D10*%
X164713666Y-54957932D03*
D26*
X164713666Y-56457932D03*
X169813666Y-56457932D03*
X169813666Y-54957932D03*
%TD*%
D30*
%TO.C,R23*%
X135425000Y-65200000D03*
X133775000Y-65200000D03*
%TD*%
%TO.C,R20*%
X135425000Y-63400000D03*
X133775000Y-63400000D03*
%TD*%
D31*
%TO.C,H2*%
X124468071Y-150373133D03*
D32*
X124468071Y-150373133D03*
%TD*%
D25*
%TO.C,D11*%
X171309007Y-75034466D03*
D26*
X171309007Y-76534466D03*
X176409007Y-76534466D03*
X176409007Y-75034466D03*
%TD*%
D33*
%TO.C,C21*%
X190540000Y-99000000D03*
X190540000Y-97100000D03*
%TD*%
D25*
%TO.C,D4*%
X146527133Y-54957932D03*
D26*
X146527133Y-56457932D03*
X151627133Y-56457932D03*
X151627133Y-54957932D03*
%TD*%
D13*
%TO.C,JP5*%
X149500000Y-149200000D03*
D14*
X149500000Y-150650000D03*
%TD*%
D27*
%TO.C,C1*%
X176650000Y-83300000D03*
X174750000Y-83300000D03*
%TD*%
D34*
%TO.C,D14*%
X167605000Y-25625000D03*
X167605000Y-27200000D03*
%TD*%
D33*
%TO.C,C22*%
X188380000Y-99000000D03*
X188380000Y-97100000D03*
%TD*%
%TO.C,C19*%
X194860000Y-99000000D03*
X194860000Y-97100000D03*
%TD*%
D27*
%TO.C,C2*%
X180300000Y-76500000D03*
X178400000Y-76500000D03*
%TD*%
D34*
%TO.C,D18*%
X153075000Y-25562500D03*
X153075000Y-27137500D03*
%TD*%
D35*
%TO.C,C14*%
X192700000Y-93550000D03*
X192700000Y-95450000D03*
%TD*%
D27*
%TO.C,C8*%
X174000000Y-56700000D03*
X172100000Y-56700000D03*
%TD*%
D25*
%TO.C,D6*%
X150390799Y-48265865D03*
D26*
X150390799Y-49765865D03*
X155490799Y-49765865D03*
X155490799Y-48265865D03*
%TD*%
D36*
%TO.C,D1*%
X200600000Y-116500000D03*
X200600000Y-113200000D03*
%TD*%
D37*
%TO.C,U1*%
X168650000Y-88837500D03*
X167700000Y-88837500D03*
X166750000Y-88837500D03*
X166750000Y-86562500D03*
X168650000Y-86562500D03*
%TD*%
D13*
%TO.C,JP6*%
X153500000Y-149200000D03*
D14*
X153500000Y-150650000D03*
%TD*%
D22*
%TO.C,R1*%
X202900000Y-148200000D03*
X202900000Y-149850000D03*
%TD*%
D25*
%TO.C,D3*%
X142663466Y-61649999D03*
D26*
X142663466Y-63149999D03*
X147763466Y-63149999D03*
X147763466Y-61649999D03*
%TD*%
D38*
%TO.C,CN1*%
X150000000Y-129000000D03*
X150000000Y-128000000D03*
X150000000Y-127000000D03*
X150000000Y-126000000D03*
D39*
X146125000Y-130300000D03*
X146125000Y-124700000D03*
%TD*%
D40*
%TO.C,D17*%
X175375000Y-27200000D03*
X175375000Y-25625000D03*
%TD*%
D22*
%TO.C,R19*%
X200440000Y-103275000D03*
X200440000Y-104925000D03*
%TD*%
%TO.C,R11*%
X194900000Y-90075000D03*
X194900000Y-91725000D03*
%TD*%
D41*
%TO.C,U2*%
X204779999Y-143379999D03*
X202239999Y-143379999D03*
X199699999Y-143379999D03*
X197159999Y-143379999D03*
X194619999Y-143379999D03*
X192079999Y-143379999D03*
X189539999Y-143379999D03*
X186999999Y-143379999D03*
X184459999Y-143379999D03*
X181919999Y-143379999D03*
X179379999Y-143379999D03*
X176839999Y-143379999D03*
X174299999Y-143379999D03*
X171759999Y-143379999D03*
X169219999Y-143379999D03*
X166679999Y-143379999D03*
X164139999Y-143379999D03*
X161599999Y-143379999D03*
X159059999Y-143379999D03*
X156519999Y-143379999D03*
X156519999Y-123799999D03*
X159059999Y-123799999D03*
X161599999Y-123799999D03*
X164139999Y-123799999D03*
X166679999Y-123799999D03*
X169219999Y-123799999D03*
X171759999Y-123799999D03*
X174299999Y-123799999D03*
X176839999Y-123799999D03*
X179379999Y-123799999D03*
X181919999Y-123799999D03*
X184459999Y-123799999D03*
X186999999Y-123799999D03*
X189539999Y-123799999D03*
X192079999Y-123799999D03*
X194619999Y-123799999D03*
X197159999Y-123799999D03*
X199699999Y-123799999D03*
X202239999Y-123799999D03*
X204779999Y-123799999D03*
%TD*%
D21*
%TO.C,R24*%
X133775000Y-67000000D03*
X135425000Y-67000000D03*
%TD*%
D40*
%TO.C,D15*%
X170195000Y-27200000D03*
X170195000Y-25625000D03*
%TD*%
D31*
%TO.C,H1*%
X198468071Y-150373133D03*
D32*
X198468071Y-150373133D03*
%TD*%
D42*
%TO.C,U4*%
X197099999Y-93724999D03*
X198369999Y-93724999D03*
X199639999Y-93724999D03*
X200909999Y-93724999D03*
X200909999Y-99124999D03*
X199639999Y-99124999D03*
X198369999Y-99124999D03*
X197099999Y-99124999D03*
D43*
X199904999Y-95749999D03*
X198104999Y-95749999D03*
X199904999Y-97099999D03*
X198104999Y-97099999D03*
%TD*%
D25*
%TO.C,D9*%
X167445341Y-81726533D03*
D26*
X167445341Y-83226533D03*
X172545341Y-83226533D03*
X172545341Y-81726533D03*
%TD*%
D44*
%TO.C,L1*%
X197239999Y-101999999D03*
X197239999Y-104999999D03*
%TD*%
D18*
%TO.C,SW2*%
X148925000Y-25550000D03*
X147225000Y-25550000D03*
D45*
X149749999Y-27099999D03*
X146399999Y-27099999D03*
D46*
X150374999Y-25549999D03*
X145774999Y-25549999D03*
%TD*%
D22*
%TO.C,R22*%
X155475000Y-25525000D03*
X155475000Y-27175000D03*
%TD*%
D47*
%TO.C,R12*%
X192700000Y-91725000D03*
X192700000Y-90075000D03*
%TD*%
D22*
%TO.C,R13*%
X177895000Y-29187500D03*
X177895000Y-30837500D03*
%TD*%
D48*
%TO.C,C17*%
X200490000Y-101400000D03*
X202390000Y-101400000D03*
%TD*%
D22*
%TO.C,R15*%
X133300000Y-57775000D03*
X133300000Y-59425000D03*
%TD*%
D25*
%TO.C,D7*%
X156986333Y-68342066D03*
D26*
X156986333Y-69842066D03*
X162086333Y-69842066D03*
X162086333Y-68342066D03*
%TD*%
D25*
%TO.C,D13*%
X175172674Y-68342399D03*
D26*
X175172674Y-69842399D03*
X180272674Y-69842399D03*
X180272674Y-68342399D03*
%TD*%
D25*
%TO.C,D8*%
X160849999Y-61649999D03*
D26*
X160849999Y-63149999D03*
X165949999Y-63149999D03*
X165949999Y-61649999D03*
%TD*%
D13*
%TO.C,JP1*%
X133500000Y-149175000D03*
D14*
X133500000Y-150625000D03*
%TD*%
D27*
%TO.C,C9*%
X177550000Y-49800000D03*
X175650000Y-49800000D03*
%TD*%
D47*
%TO.C,R16*%
X157875000Y-27175000D03*
X157875000Y-25525000D03*
%TD*%
D33*
%TO.C,C20*%
X192700000Y-99000000D03*
X192700000Y-97100000D03*
%TD*%
D27*
%TO.C,C7*%
X170000000Y-63400000D03*
X168100000Y-63400000D03*
%TD*%
%TO.C,C10*%
X151750000Y-63200000D03*
X149850000Y-63200000D03*
%TD*%
D49*
%TO.C,F1*%
X204000000Y-112025000D03*
X204000000Y-110200000D03*
%TD*%
D22*
%TO.C,R5*%
X195300000Y-116550000D03*
X195300000Y-118200000D03*
%TD*%
D35*
%TO.C,C15*%
X194900000Y-93550000D03*
X194900000Y-95450000D03*
%TD*%
D27*
%TO.C,C16*%
X151895000Y-93235000D03*
X149995000Y-93235000D03*
%TD*%
%TO.C,C6*%
X166000000Y-70100000D03*
X164100000Y-70100000D03*
%TD*%
%TO.C,C5*%
X162100000Y-76800000D03*
X160200000Y-76800000D03*
%TD*%
D34*
%TO.C,D16*%
X172785000Y-25625000D03*
X172785000Y-27200000D03*
%TD*%
D22*
%TO.C,R4*%
X195280000Y-113150000D03*
X195280000Y-114800000D03*
%TD*%
D27*
%TO.C,C3*%
X184300000Y-69800000D03*
X182400000Y-69800000D03*
%TD*%
D25*
%TO.C,D5*%
X153122666Y-75034133D03*
D26*
X153122666Y-76534133D03*
X158222666Y-76534133D03*
X158222666Y-75034133D03*
%TD*%
D21*
%TO.C,R8*%
X118175000Y-55650000D03*
X119825000Y-55650000D03*
%TD*%
D48*
%TO.C,C18*%
X197690000Y-107300000D03*
X199590000Y-107300000D03*
%TD*%
D47*
%TO.C,R6*%
X203100000Y-116925000D03*
X203100000Y-115275000D03*
%TD*%
D13*
%TO.C,JP4*%
X145500000Y-149200000D03*
D14*
X145500000Y-150650000D03*
%TD*%
D13*
%TO.C,JP3*%
X141500000Y-149200000D03*
D14*
X141500000Y-150650000D03*
%TD*%
D27*
%TO.C,C13*%
X146295000Y-98035000D03*
X144395000Y-98035000D03*
%TD*%
D30*
%TO.C,R10*%
X146345000Y-100170000D03*
X144695000Y-100170000D03*
%TD*%
D50*
%TO.C,J3*%
X133399999Y-156799999D03*
X137399999Y-156799999D03*
X141399999Y-156799999D03*
X145399999Y-156799999D03*
X149399999Y-156799999D03*
X153399999Y-156799999D03*
X157399999Y-156799999D03*
X161399999Y-156799999D03*
X165399999Y-156799999D03*
X169399999Y-156799999D03*
X173399999Y-156799999D03*
X177399999Y-156799999D03*
X181399999Y-156799999D03*
X185399999Y-156799999D03*
X189399999Y-156799999D03*
%TD*%
D30*
%TO.C,R17*%
X155100000Y-29550000D03*
X153450000Y-29550000D03*
%TD*%
D22*
%TO.C,R2*%
X197500000Y-113150000D03*
X197500000Y-114800000D03*
%TD*%
D51*
%TO.C,Q1*%
X139550000Y-64537500D03*
X137650000Y-64537500D03*
X138600000Y-62662500D03*
%TD*%
M02*
