%TF.GenerationSoftware,KiCad,Pcbnew,(7.0.0-0)*%
%TF.CreationDate,2023-03-26T20:27:34-07:00*%
%TF.ProjectId,voron_badge,766f726f-6e5f-4626-9164-67652e6b6963,rev?*%
%TF.SameCoordinates,Original*%
%TF.FileFunction,Copper,L1,Top*%
%TF.FilePolarity,Positive*%
%FSLAX46Y46*%
G04 Gerber Fmt 4.6, Leading zero omitted, Abs format (unit mm)*
G04 Created by KiCad (PCBNEW (7.0.0-0)) date 2023-03-26 20:27:34*
%MOMM*%
%LPD*%
G01*
G04 APERTURE LIST*
G04 Aperture macros list*
%AMOutline5P*
0 Free polygon, 5 corners , with rotation*
0 The origin of the aperture is its center*
0 number of corners: always 5*
0 $1 to $10 corner X, Y*
0 $11 Rotation angle, in degrees counterclockwise*
0 create outline with 5 corners*
4,1,5,$1,$2,$3,$4,$5,$6,$7,$8,$9,$10,$1,$2,$11*%
%AMOutline6P*
0 Free polygon, 6 corners , with rotation*
0 The origin of the aperture is its center*
0 number of corners: always 6*
0 $1 to $12 corner X, Y*
0 $13 Rotation angle, in degrees counterclockwise*
0 create outline with 6 corners*
4,1,6,$1,$2,$3,$4,$5,$6,$7,$8,$9,$10,$11,$12,$1,$2,$13*%
%AMOutline7P*
0 Free polygon, 7 corners , with rotation*
0 The origin of the aperture is its center*
0 number of corners: always 7*
0 $1 to $14 corner X, Y*
0 $15 Rotation angle, in degrees counterclockwise*
0 create outline with 7 corners*
4,1,7,$1,$2,$3,$4,$5,$6,$7,$8,$9,$10,$11,$12,$13,$14,$1,$2,$15*%
%AMOutline8P*
0 Free polygon, 8 corners , with rotation*
0 The origin of the aperture is its center*
0 number of corners: always 8*
0 $1 to $16 corner X, Y*
0 $17 Rotation angle, in degrees counterclockwise*
0 create outline with 8 corners*
4,1,8,$1,$2,$3,$4,$5,$6,$7,$8,$9,$10,$11,$12,$13,$14,$15,$16,$1,$2,$17*%
G04 Aperture macros list end*
%TA.AperFunction,ConnectorPad*%
%ADD10Outline8P,-1.500000X1.400000X-0.900000X2.000000X0.900000X2.000000X1.500000X1.400000X1.500000X-1.400000X0.900000X-2.000000X-0.900000X-2.000000X-1.500000X-1.400000X0.000000*%
%TD*%
%TA.AperFunction,ComponentPad*%
%ADD11C,0.900000*%
%TD*%
%TA.AperFunction,ViaPad*%
%ADD12C,0.800000*%
%TD*%
%TA.AperFunction,Conductor*%
%ADD13C,0.250000*%
%TD*%
%TA.AperFunction,Conductor*%
%ADD14C,0.600000*%
%TD*%
G04 APERTURE END LIST*
D10*
%TO.P,J4,1,Pin_1*%
%TO.N,SELF_S0*%
X133399999Y-156799999D03*
%TO.P,J4,2,Pin_2*%
%TO.N,SELF_S1*%
X137399999Y-156799999D03*
%TO.P,J4,3,Pin_3*%
%TO.N,SELF_S2*%
X141399999Y-156799999D03*
%TO.P,J4,4,Pin_4*%
%TO.N,SELF_S3*%
X145399999Y-156799999D03*
%TO.P,J4,5,Pin_5*%
%TO.N,SELF_S4*%
X149399999Y-156799999D03*
%TO.P,J4,6,Pin_6*%
%TO.N,SELF_S5*%
X153399999Y-156799999D03*
%TO.P,J4,7,Pin_7*%
%TO.N,SELF_S6*%
X157399999Y-156799999D03*
%TO.P,J4,8,Pin_8*%
%TO.N,GND*%
X161399999Y-156799999D03*
%TO.P,J4,9,Pin_9*%
%TO.N,BADGE_S6*%
X165399999Y-156799999D03*
%TO.P,J4,10,Pin_10*%
%TO.N,BADGE_S5*%
X169399999Y-156799999D03*
%TO.P,J4,11,Pin_11*%
%TO.N,BADGE_S4*%
X173399999Y-156799999D03*
%TO.P,J4,12,Pin_12*%
%TO.N,BADGE_S3*%
X177399999Y-156799999D03*
%TO.P,J4,13,Pin_13*%
%TO.N,BADGE_S2*%
X181399999Y-156799999D03*
%TO.P,J4,14,Pin_14*%
%TO.N,BADGE_S1*%
X185399999Y-156799999D03*
%TO.P,J4,15,Pin_15*%
%TO.N,BADGE_S0*%
X189399999Y-156799999D03*
%TD*%
D11*
%TO.P,H2,1,1*%
%TO.N,GND*%
X124468071Y-150373133D03*
%TD*%
%TO.P,H1,1,1*%
%TO.N,GND*%
X198468071Y-150373133D03*
%TD*%
D12*
%TO.N,GND*%
X141300000Y-55800000D03*
X143400000Y-82300000D03*
X146900000Y-75100000D03*
X190300000Y-63900000D03*
X177200000Y-43100000D03*
X192300000Y-130800000D03*
X133900000Y-69000000D03*
X186100000Y-111200000D03*
X200500000Y-108900000D03*
X159200000Y-57100000D03*
X122000000Y-81500000D03*
X196500000Y-108600000D03*
X156400000Y-95700000D03*
X140200000Y-69800000D03*
X185300000Y-27800000D03*
X140400000Y-47000000D03*
X175100000Y-109300000D03*
X151700000Y-28300000D03*
X132200000Y-60900000D03*
X162800000Y-90300000D03*
X201000000Y-43600000D03*
X133800000Y-41000000D03*
X203600000Y-103700000D03*
X164600000Y-74100000D03*
X158000000Y-41300000D03*
X190900000Y-118000000D03*
X180800000Y-84000000D03*
X122100000Y-64300000D03*
X161400000Y-157200000D03*
X175800000Y-62600000D03*
%TO.N,/logo_mid_out*%
X143800000Y-66800000D03*
X165000000Y-46700000D03*
%TO.N,BADGE_S6*%
X165300000Y-157200000D03*
%TO.N,BADGE_S5*%
X169300000Y-157200000D03*
%TO.N,BADGE_S4*%
X173400000Y-157200000D03*
%TO.N,BADGE_S3*%
X177400000Y-157300000D03*
%TO.N,BADGE_S2*%
X181400000Y-157300000D03*
%TO.N,BADGE_S1*%
X185400000Y-157400000D03*
%TO.N,BADGE_S0*%
X189400000Y-157400000D03*
%TO.N,Net-(U4-VIN)*%
X196300000Y-94500000D03*
X203700000Y-94000000D03*
%TO.N,SELF_S6*%
X157400000Y-157200000D03*
%TO.N,SELF_S5*%
X153300000Y-157100000D03*
%TO.N,SELF_S4*%
X149400000Y-157200000D03*
%TO.N,SELF_S3*%
X145400000Y-157200000D03*
%TO.N,SELF_S2*%
X141400000Y-157200000D03*
%TO.N,SELF_S1*%
X137400000Y-157200000D03*
%TO.N,SELF_S0*%
X133400000Y-157200000D03*
%TO.N,+5V*%
X189500000Y-106400000D03*
X189800000Y-100700000D03*
%TO.N,/led_on*%
X153500000Y-39800000D03*
X181400000Y-29000000D03*
X133200000Y-76600000D03*
X156646250Y-28946250D03*
%TO.N,/sw_press*%
X152100000Y-40600000D03*
X136600000Y-84500000D03*
%TO.N,/RESET*%
X138400000Y-59300000D03*
X178600000Y-119800000D03*
%TO.N,/pixels_sig*%
X166200000Y-97000000D03*
X167800000Y-91500000D03*
%TO.N,/pad_V*%
X204500000Y-148000000D03*
X174900000Y-126700000D03*
%TO.N,/pad_R*%
X203000000Y-119700000D03*
X169200000Y-126500000D03*
%TO.N,/pad_N*%
X193300000Y-106600000D03*
X166300000Y-120200000D03*
%TD*%
D13*
%TO.N,/logo_mid_out*%
X165000000Y-46700000D02*
X165000000Y-48700000D01*
X156300000Y-57400000D02*
X156300000Y-62100000D01*
X151600000Y-66800000D02*
X143800000Y-66800000D01*
X156300000Y-62100000D02*
X151600000Y-66800000D01*
X165000000Y-48700000D02*
X156300000Y-57400000D01*
D14*
%TO.N,Net-(U4-VIN)*%
X203700000Y-94000000D02*
X196800000Y-94000000D01*
X196800000Y-94000000D02*
X196300000Y-94500000D01*
D13*
%TO.N,+5V*%
X189500000Y-106400000D02*
X189900000Y-106000000D01*
X189900000Y-100800000D02*
X189800000Y-100700000D01*
X189900000Y-106000000D02*
X189900000Y-100800000D01*
%TO.N,/led_on*%
X136737701Y-54937701D02*
X151875402Y-39800000D01*
X133200000Y-76600000D02*
X132323198Y-75723198D01*
X156700000Y-29000000D02*
X156646250Y-28946250D01*
X181400000Y-29000000D02*
X156700000Y-29000000D01*
X132323198Y-61876802D02*
X136737701Y-57462299D01*
X132323198Y-75723198D02*
X132323198Y-61876802D01*
X151875402Y-39800000D02*
X153500000Y-39800000D01*
X136737701Y-57462299D02*
X136737701Y-54937701D01*
%TO.N,/sw_press*%
X137187202Y-57648488D02*
X137187202Y-55512798D01*
X137187202Y-55512798D02*
X152100000Y-40600000D01*
X136700000Y-58135690D02*
X137187202Y-57648488D01*
X136700000Y-78700000D02*
X136700000Y-58135690D01*
X136600000Y-84500000D02*
X137600000Y-83500000D01*
X137600000Y-83500000D02*
X137600000Y-79600000D01*
X137600000Y-79600000D02*
X136700000Y-78700000D01*
%TO.N,/RESET*%
X138049501Y-59650499D02*
X138049501Y-83613811D01*
X138049501Y-83613811D02*
X174335690Y-119900000D01*
X138400000Y-59300000D02*
X138049501Y-59650499D01*
X178600000Y-119800000D02*
X177500000Y-119800000D01*
X174335690Y-119900000D02*
X177400000Y-119900000D01*
X177500000Y-119800000D02*
X177400000Y-119900000D01*
%TO.N,/pixels_sig*%
X166200000Y-97000000D02*
X166200000Y-93100000D01*
X166200000Y-93100000D02*
X167800000Y-91500000D01*
%TO.N,/pad_V*%
X202900000Y-146400000D02*
X199600000Y-146400000D01*
X174900000Y-126700000D02*
X193200000Y-145000000D01*
X204500000Y-148000000D02*
X202900000Y-146400000D01*
X199600000Y-146400000D02*
X198200000Y-145000000D01*
X198200000Y-145000000D02*
X193200000Y-145000000D01*
%TO.N,/pad_R*%
X199575000Y-125975000D02*
X169725000Y-125975000D01*
X200300000Y-124300000D02*
X200300000Y-126700000D01*
X203000000Y-119700000D02*
X203000000Y-121600000D01*
X200300000Y-126700000D02*
X199575000Y-125975000D01*
X203000000Y-121600000D02*
X200300000Y-124300000D01*
X169725000Y-125975000D02*
X169200000Y-126500000D01*
%TO.N,/pad_N*%
X166400000Y-120200000D02*
X166300000Y-120200000D01*
X193300000Y-106600000D02*
X196000000Y-106600000D01*
X179200000Y-120700000D02*
X166900000Y-120700000D01*
X166900000Y-120700000D02*
X166400000Y-120200000D01*
X193300000Y-106600000D02*
X179200000Y-120700000D01*
%TD*%
%TA.AperFunction,Conductor*%
%TO.N,/pad_V*%
G36*
X195528166Y-139934924D02*
G01*
X204840441Y-143371191D01*
X204882874Y-143397582D01*
X204911445Y-143438579D01*
X204921514Y-143487524D01*
X204921514Y-146136313D01*
X204911339Y-146185506D01*
X204882483Y-146226625D01*
X204839683Y-146252923D01*
X195527408Y-149620454D01*
X195468863Y-149626758D01*
X195414010Y-149605345D01*
X195375220Y-149561044D01*
X195361239Y-149503844D01*
X195361239Y-147441321D01*
X195371786Y-147391277D01*
X195401633Y-147349746D01*
X195445700Y-147323793D01*
X203016515Y-144776941D01*
X203016515Y-144706374D01*
X203004264Y-144702252D01*
X203004263Y-144702252D01*
X198812474Y-143292117D01*
X195445700Y-142159521D01*
X195401633Y-142133569D01*
X195371786Y-142092038D01*
X195361239Y-142041994D01*
X195361239Y-140051257D01*
X195375313Y-139993878D01*
X195414341Y-139949525D01*
X195469463Y-139928265D01*
X195528166Y-139934924D01*
G37*
%TD.AperFunction*%
%TD*%
%TA.AperFunction,Conductor*%
%TO.N,GND*%
G36*
X190908253Y-24390245D02*
G01*
X206335888Y-33297395D01*
X206405571Y-33337626D01*
X206450958Y-33383013D01*
X206467571Y-33445013D01*
X206467571Y-150301253D01*
X206450958Y-150363253D01*
X206405571Y-150408639D01*
X190908254Y-159356020D01*
X190846254Y-159372633D01*
X190745857Y-159372633D01*
X190689562Y-159359118D01*
X190645539Y-159321518D01*
X190623384Y-159268031D01*
X190627926Y-159210315D01*
X190658176Y-159160952D01*
X190707003Y-159112125D01*
X191289002Y-158530126D01*
X191341814Y-158462140D01*
X191397771Y-158327048D01*
X191408500Y-158241630D01*
X191408501Y-155358375D01*
X191397771Y-155272952D01*
X191341814Y-155137860D01*
X191334895Y-155128953D01*
X191291380Y-155072936D01*
X191291375Y-155072931D01*
X191288997Y-155069869D01*
X190630126Y-154410998D01*
X190595628Y-154384199D01*
X190568702Y-154363283D01*
X190568699Y-154363281D01*
X190562140Y-154358186D01*
X190510504Y-154336797D01*
X190434729Y-154305410D01*
X190434725Y-154305408D01*
X190427048Y-154302229D01*
X190418801Y-154301193D01*
X190418797Y-154301192D01*
X190345478Y-154291983D01*
X190345472Y-154291982D01*
X190341630Y-154291500D01*
X190337768Y-154291499D01*
X190337753Y-154291499D01*
X188462251Y-154291499D01*
X188462250Y-154291499D01*
X188458375Y-154291499D01*
X188454532Y-154291981D01*
X188454527Y-154291982D01*
X188381202Y-154301192D01*
X188381196Y-154301193D01*
X188372952Y-154302229D01*
X188365276Y-154305408D01*
X188365270Y-154305410D01*
X188245541Y-154355004D01*
X188245538Y-154355005D01*
X188237860Y-154358186D01*
X188231300Y-154363281D01*
X188231293Y-154363286D01*
X188172936Y-154408619D01*
X188172921Y-154408631D01*
X188169869Y-154411003D01*
X188167129Y-154413742D01*
X188167121Y-154413750D01*
X187513736Y-155067135D01*
X187513728Y-155067143D01*
X187510998Y-155069874D01*
X187508632Y-155072918D01*
X187508622Y-155072931D01*
X187497922Y-155086706D01*
X187454510Y-155122009D01*
X187399997Y-155134633D01*
X187345486Y-155122008D01*
X187302074Y-155086703D01*
X187291380Y-155072936D01*
X187291375Y-155072931D01*
X187288997Y-155069869D01*
X186630126Y-154410998D01*
X186595628Y-154384199D01*
X186568702Y-154363283D01*
X186568699Y-154363281D01*
X186562140Y-154358186D01*
X186510504Y-154336797D01*
X186434729Y-154305410D01*
X186434725Y-154305408D01*
X186427048Y-154302229D01*
X186418801Y-154301193D01*
X186418797Y-154301192D01*
X186345478Y-154291983D01*
X186345472Y-154291982D01*
X186341630Y-154291500D01*
X186337768Y-154291499D01*
X186337753Y-154291499D01*
X184462251Y-154291499D01*
X184462250Y-154291499D01*
X184458375Y-154291499D01*
X184454532Y-154291981D01*
X184454527Y-154291982D01*
X184381202Y-154301192D01*
X184381196Y-154301193D01*
X184372952Y-154302229D01*
X184365276Y-154305408D01*
X184365270Y-154305410D01*
X184245541Y-154355004D01*
X184245538Y-154355005D01*
X184237860Y-154358186D01*
X184231300Y-154363281D01*
X184231293Y-154363286D01*
X184172936Y-154408619D01*
X184172921Y-154408631D01*
X184169869Y-154411003D01*
X184167129Y-154413742D01*
X184167121Y-154413750D01*
X183513736Y-155067135D01*
X183513728Y-155067143D01*
X183510998Y-155069874D01*
X183508632Y-155072918D01*
X183508622Y-155072931D01*
X183497922Y-155086706D01*
X183454510Y-155122009D01*
X183399997Y-155134633D01*
X183345486Y-155122008D01*
X183302074Y-155086703D01*
X183291380Y-155072936D01*
X183291375Y-155072931D01*
X183288997Y-155069869D01*
X182630126Y-154410998D01*
X182595628Y-154384199D01*
X182568702Y-154363283D01*
X182568699Y-154363281D01*
X182562140Y-154358186D01*
X182510504Y-154336797D01*
X182434729Y-154305410D01*
X182434725Y-154305408D01*
X182427048Y-154302229D01*
X182418801Y-154301193D01*
X182418797Y-154301192D01*
X182345478Y-154291983D01*
X182345472Y-154291982D01*
X182341630Y-154291500D01*
X182337768Y-154291499D01*
X182337753Y-154291499D01*
X180462251Y-154291499D01*
X180462250Y-154291499D01*
X180458375Y-154291499D01*
X180454532Y-154291981D01*
X180454527Y-154291982D01*
X180381202Y-154301192D01*
X180381196Y-154301193D01*
X180372952Y-154302229D01*
X180365276Y-154305408D01*
X180365270Y-154305410D01*
X180245541Y-154355004D01*
X180245538Y-154355005D01*
X180237860Y-154358186D01*
X180231300Y-154363281D01*
X180231293Y-154363286D01*
X180172936Y-154408619D01*
X180172921Y-154408631D01*
X180169869Y-154411003D01*
X180167129Y-154413742D01*
X180167121Y-154413750D01*
X179513736Y-155067135D01*
X179513728Y-155067143D01*
X179510998Y-155069874D01*
X179508632Y-155072918D01*
X179508622Y-155072931D01*
X179497922Y-155086706D01*
X179454510Y-155122009D01*
X179399997Y-155134633D01*
X179345486Y-155122008D01*
X179302074Y-155086703D01*
X179291380Y-155072936D01*
X179291375Y-155072931D01*
X179288997Y-155069869D01*
X178630126Y-154410998D01*
X178595628Y-154384199D01*
X178568702Y-154363283D01*
X178568699Y-154363281D01*
X178562140Y-154358186D01*
X178510504Y-154336797D01*
X178434729Y-154305410D01*
X178434725Y-154305408D01*
X178427048Y-154302229D01*
X178418801Y-154301193D01*
X178418797Y-154301192D01*
X178345478Y-154291983D01*
X178345472Y-154291982D01*
X178341630Y-154291500D01*
X178337768Y-154291499D01*
X178337753Y-154291499D01*
X176462251Y-154291499D01*
X176462250Y-154291499D01*
X176458375Y-154291499D01*
X176454532Y-154291981D01*
X176454527Y-154291982D01*
X176381202Y-154301192D01*
X176381196Y-154301193D01*
X176372952Y-154302229D01*
X176365276Y-154305408D01*
X176365270Y-154305410D01*
X176245541Y-154355004D01*
X176245538Y-154355005D01*
X176237860Y-154358186D01*
X176231300Y-154363281D01*
X176231293Y-154363286D01*
X176172936Y-154408619D01*
X176172921Y-154408631D01*
X176169869Y-154411003D01*
X176167129Y-154413742D01*
X176167121Y-154413750D01*
X175513736Y-155067135D01*
X175513728Y-155067143D01*
X175510998Y-155069874D01*
X175508632Y-155072918D01*
X175508622Y-155072931D01*
X175497922Y-155086706D01*
X175454510Y-155122009D01*
X175399997Y-155134633D01*
X175345486Y-155122008D01*
X175302074Y-155086703D01*
X175291380Y-155072936D01*
X175291375Y-155072931D01*
X175288997Y-155069869D01*
X174630126Y-154410998D01*
X174595628Y-154384199D01*
X174568702Y-154363283D01*
X174568699Y-154363281D01*
X174562140Y-154358186D01*
X174510504Y-154336797D01*
X174434729Y-154305410D01*
X174434725Y-154305408D01*
X174427048Y-154302229D01*
X174418801Y-154301193D01*
X174418797Y-154301192D01*
X174345478Y-154291983D01*
X174345472Y-154291982D01*
X174341630Y-154291500D01*
X174337768Y-154291499D01*
X174337753Y-154291499D01*
X172462251Y-154291499D01*
X172462250Y-154291499D01*
X172458375Y-154291499D01*
X172454532Y-154291981D01*
X172454527Y-154291982D01*
X172381202Y-154301192D01*
X172381196Y-154301193D01*
X172372952Y-154302229D01*
X172365276Y-154305408D01*
X172365270Y-154305410D01*
X172245541Y-154355004D01*
X172245538Y-154355005D01*
X172237860Y-154358186D01*
X172231300Y-154363281D01*
X172231293Y-154363286D01*
X172172936Y-154408619D01*
X172172921Y-154408631D01*
X172169869Y-154411003D01*
X172167129Y-154413742D01*
X172167121Y-154413750D01*
X171513736Y-155067135D01*
X171513728Y-155067143D01*
X171510998Y-155069874D01*
X171508632Y-155072918D01*
X171508622Y-155072931D01*
X171497922Y-155086706D01*
X171454510Y-155122009D01*
X171399997Y-155134633D01*
X171345486Y-155122008D01*
X171302074Y-155086703D01*
X171291380Y-155072936D01*
X171291375Y-155072931D01*
X171288997Y-155069869D01*
X170630126Y-154410998D01*
X170595628Y-154384199D01*
X170568702Y-154363283D01*
X170568699Y-154363281D01*
X170562140Y-154358186D01*
X170510504Y-154336797D01*
X170434729Y-154305410D01*
X170434725Y-154305408D01*
X170427048Y-154302229D01*
X170418801Y-154301193D01*
X170418797Y-154301192D01*
X170345478Y-154291983D01*
X170345472Y-154291982D01*
X170341630Y-154291500D01*
X170337768Y-154291499D01*
X170337753Y-154291499D01*
X168462251Y-154291499D01*
X168462250Y-154291499D01*
X168458375Y-154291499D01*
X168454532Y-154291981D01*
X168454527Y-154291982D01*
X168381202Y-154301192D01*
X168381196Y-154301193D01*
X168372952Y-154302229D01*
X168365276Y-154305408D01*
X168365270Y-154305410D01*
X168245541Y-154355004D01*
X168245538Y-154355005D01*
X168237860Y-154358186D01*
X168231300Y-154363281D01*
X168231293Y-154363286D01*
X168172936Y-154408619D01*
X168172921Y-154408631D01*
X168169869Y-154411003D01*
X168167129Y-154413742D01*
X168167121Y-154413750D01*
X167513736Y-155067135D01*
X167513728Y-155067143D01*
X167510998Y-155069874D01*
X167508632Y-155072918D01*
X167508622Y-155072931D01*
X167497922Y-155086706D01*
X167454510Y-155122009D01*
X167399997Y-155134633D01*
X167345486Y-155122008D01*
X167302074Y-155086703D01*
X167291380Y-155072936D01*
X167291375Y-155072931D01*
X167288997Y-155069869D01*
X166630126Y-154410998D01*
X166595628Y-154384199D01*
X166568702Y-154363283D01*
X166568699Y-154363281D01*
X166562140Y-154358186D01*
X166510504Y-154336797D01*
X166434729Y-154305410D01*
X166434725Y-154305408D01*
X166427048Y-154302229D01*
X166418801Y-154301193D01*
X166418797Y-154301192D01*
X166345478Y-154291983D01*
X166345472Y-154291982D01*
X166341630Y-154291500D01*
X166337768Y-154291499D01*
X166337753Y-154291499D01*
X164462251Y-154291499D01*
X164462250Y-154291499D01*
X164458375Y-154291499D01*
X164454532Y-154291981D01*
X164454527Y-154291982D01*
X164381202Y-154301192D01*
X164381196Y-154301193D01*
X164372952Y-154302229D01*
X164365276Y-154305408D01*
X164365270Y-154305410D01*
X164245541Y-154355004D01*
X164245538Y-154355005D01*
X164237860Y-154358186D01*
X164231300Y-154363281D01*
X164231293Y-154363286D01*
X164172936Y-154408619D01*
X164172921Y-154408631D01*
X164169869Y-154411003D01*
X164167129Y-154413742D01*
X164167121Y-154413750D01*
X163513736Y-155067135D01*
X163513728Y-155067143D01*
X163510998Y-155069874D01*
X163508629Y-155072922D01*
X163508618Y-155072936D01*
X163492529Y-155093648D01*
X163449116Y-155128953D01*
X163394603Y-155141577D01*
X163340090Y-155128951D01*
X163296679Y-155093645D01*
X163284887Y-155078464D01*
X163279760Y-155072654D01*
X162627345Y-154420239D01*
X162621546Y-154415123D01*
X162564322Y-154370669D01*
X162550079Y-154362390D01*
X162432605Y-154313730D01*
X162416675Y-154309512D01*
X162344787Y-154300483D01*
X162337061Y-154300000D01*
X161666326Y-154300000D01*
X161653450Y-154303450D01*
X161650000Y-154316326D01*
X161650000Y-156926000D01*
X161633387Y-156988000D01*
X161588000Y-157033387D01*
X161526000Y-157050000D01*
X161274000Y-157050000D01*
X161212000Y-157033387D01*
X161166613Y-156988000D01*
X161150000Y-156926000D01*
X161150000Y-154316326D01*
X161146549Y-154303450D01*
X161133674Y-154300000D01*
X160462933Y-154300000D01*
X160455212Y-154300483D01*
X160383320Y-154309514D01*
X160367397Y-154313730D01*
X160249925Y-154362388D01*
X160235674Y-154370671D01*
X160178453Y-154415123D01*
X160172654Y-154420239D01*
X159520239Y-155072654D01*
X159515113Y-155078463D01*
X159503314Y-155093652D01*
X159459901Y-155128954D01*
X159405389Y-155141577D01*
X159350878Y-155128951D01*
X159307470Y-155093649D01*
X159288997Y-155069869D01*
X158630126Y-154410998D01*
X158595628Y-154384199D01*
X158568702Y-154363283D01*
X158568699Y-154363281D01*
X158562140Y-154358186D01*
X158510504Y-154336797D01*
X158434729Y-154305410D01*
X158434725Y-154305408D01*
X158427048Y-154302229D01*
X158418801Y-154301193D01*
X158418797Y-154301192D01*
X158345478Y-154291983D01*
X158345472Y-154291982D01*
X158341630Y-154291500D01*
X158337768Y-154291499D01*
X158337753Y-154291499D01*
X156462251Y-154291499D01*
X156462250Y-154291499D01*
X156458375Y-154291499D01*
X156454532Y-154291981D01*
X156454527Y-154291982D01*
X156381202Y-154301192D01*
X156381196Y-154301193D01*
X156372952Y-154302229D01*
X156365276Y-154305408D01*
X156365270Y-154305410D01*
X156245541Y-154355004D01*
X156245538Y-154355005D01*
X156237860Y-154358186D01*
X156231300Y-154363281D01*
X156231293Y-154363286D01*
X156172936Y-154408619D01*
X156172921Y-154408631D01*
X156169869Y-154411003D01*
X156167129Y-154413742D01*
X156167121Y-154413750D01*
X155513736Y-155067135D01*
X155513728Y-155067143D01*
X155510998Y-155069874D01*
X155508632Y-155072918D01*
X155508622Y-155072931D01*
X155497922Y-155086706D01*
X155454510Y-155122009D01*
X155399997Y-155134633D01*
X155345486Y-155122008D01*
X155302074Y-155086703D01*
X155291380Y-155072936D01*
X155291375Y-155072931D01*
X155288997Y-155069869D01*
X154630126Y-154410998D01*
X154595628Y-154384199D01*
X154568702Y-154363283D01*
X154568699Y-154363281D01*
X154562140Y-154358186D01*
X154510504Y-154336797D01*
X154434729Y-154305410D01*
X154434725Y-154305408D01*
X154427048Y-154302229D01*
X154418801Y-154301193D01*
X154418797Y-154301192D01*
X154345478Y-154291983D01*
X154345472Y-154291982D01*
X154341630Y-154291500D01*
X154337768Y-154291499D01*
X154337753Y-154291499D01*
X152462251Y-154291499D01*
X152462250Y-154291499D01*
X152458375Y-154291499D01*
X152454532Y-154291981D01*
X152454527Y-154291982D01*
X152381202Y-154301192D01*
X152381196Y-154301193D01*
X152372952Y-154302229D01*
X152365276Y-154305408D01*
X152365270Y-154305410D01*
X152245541Y-154355004D01*
X152245538Y-154355005D01*
X152237860Y-154358186D01*
X152231300Y-154363281D01*
X152231293Y-154363286D01*
X152172936Y-154408619D01*
X152172921Y-154408631D01*
X152169869Y-154411003D01*
X152167129Y-154413742D01*
X152167121Y-154413750D01*
X151513736Y-155067135D01*
X151513728Y-155067143D01*
X151510998Y-155069874D01*
X151508632Y-155072918D01*
X151508622Y-155072931D01*
X151497922Y-155086706D01*
X151454510Y-155122009D01*
X151399997Y-155134633D01*
X151345486Y-155122008D01*
X151302074Y-155086703D01*
X151291380Y-155072936D01*
X151291375Y-155072931D01*
X151288997Y-155069869D01*
X150630126Y-154410998D01*
X150595628Y-154384199D01*
X150568702Y-154363283D01*
X150568699Y-154363281D01*
X150562140Y-154358186D01*
X150510504Y-154336797D01*
X150434729Y-154305410D01*
X150434725Y-154305408D01*
X150427048Y-154302229D01*
X150418801Y-154301193D01*
X150418797Y-154301192D01*
X150345478Y-154291983D01*
X150345472Y-154291982D01*
X150341630Y-154291500D01*
X150337768Y-154291499D01*
X150337753Y-154291499D01*
X148462251Y-154291499D01*
X148462250Y-154291499D01*
X148458375Y-154291499D01*
X148454532Y-154291981D01*
X148454527Y-154291982D01*
X148381202Y-154301192D01*
X148381196Y-154301193D01*
X148372952Y-154302229D01*
X148365276Y-154305408D01*
X148365270Y-154305410D01*
X148245541Y-154355004D01*
X148245538Y-154355005D01*
X148237860Y-154358186D01*
X148231300Y-154363281D01*
X148231293Y-154363286D01*
X148172936Y-154408619D01*
X148172921Y-154408631D01*
X148169869Y-154411003D01*
X148167129Y-154413742D01*
X148167121Y-154413750D01*
X147513736Y-155067135D01*
X147513728Y-155067143D01*
X147510998Y-155069874D01*
X147508632Y-155072918D01*
X147508622Y-155072931D01*
X147497922Y-155086706D01*
X147454510Y-155122009D01*
X147399997Y-155134633D01*
X147345486Y-155122008D01*
X147302074Y-155086703D01*
X147291380Y-155072936D01*
X147291375Y-155072931D01*
X147288997Y-155069869D01*
X146630126Y-154410998D01*
X146595628Y-154384199D01*
X146568702Y-154363283D01*
X146568699Y-154363281D01*
X146562140Y-154358186D01*
X146510504Y-154336797D01*
X146434729Y-154305410D01*
X146434725Y-154305408D01*
X146427048Y-154302229D01*
X146418801Y-154301193D01*
X146418797Y-154301192D01*
X146345478Y-154291983D01*
X146345472Y-154291982D01*
X146341630Y-154291500D01*
X146337768Y-154291499D01*
X146337753Y-154291499D01*
X144462251Y-154291499D01*
X144462250Y-154291499D01*
X144458375Y-154291499D01*
X144454532Y-154291981D01*
X144454527Y-154291982D01*
X144381202Y-154301192D01*
X144381196Y-154301193D01*
X144372952Y-154302229D01*
X144365276Y-154305408D01*
X144365270Y-154305410D01*
X144245541Y-154355004D01*
X144245538Y-154355005D01*
X144237860Y-154358186D01*
X144231300Y-154363281D01*
X144231293Y-154363286D01*
X144172936Y-154408619D01*
X144172921Y-154408631D01*
X144169869Y-154411003D01*
X144167129Y-154413742D01*
X144167121Y-154413750D01*
X143513736Y-155067135D01*
X143513728Y-155067143D01*
X143510998Y-155069874D01*
X143508632Y-155072918D01*
X143508622Y-155072931D01*
X143497922Y-155086706D01*
X143454510Y-155122009D01*
X143399997Y-155134633D01*
X143345486Y-155122008D01*
X143302074Y-155086703D01*
X143291380Y-155072936D01*
X143291375Y-155072931D01*
X143288997Y-155069869D01*
X142630126Y-154410998D01*
X142595628Y-154384199D01*
X142568702Y-154363283D01*
X142568699Y-154363281D01*
X142562140Y-154358186D01*
X142510504Y-154336797D01*
X142434729Y-154305410D01*
X142434725Y-154305408D01*
X142427048Y-154302229D01*
X142418801Y-154301193D01*
X142418797Y-154301192D01*
X142345478Y-154291983D01*
X142345472Y-154291982D01*
X142341630Y-154291500D01*
X142337768Y-154291499D01*
X142337753Y-154291499D01*
X140462251Y-154291499D01*
X140462250Y-154291499D01*
X140458375Y-154291499D01*
X140454532Y-154291981D01*
X140454527Y-154291982D01*
X140381202Y-154301192D01*
X140381196Y-154301193D01*
X140372952Y-154302229D01*
X140365276Y-154305408D01*
X140365270Y-154305410D01*
X140245541Y-154355004D01*
X140245538Y-154355005D01*
X140237860Y-154358186D01*
X140231300Y-154363281D01*
X140231293Y-154363286D01*
X140172936Y-154408619D01*
X140172921Y-154408631D01*
X140169869Y-154411003D01*
X140167129Y-154413742D01*
X140167121Y-154413750D01*
X139513736Y-155067135D01*
X139513728Y-155067143D01*
X139510998Y-155069874D01*
X139508632Y-155072918D01*
X139508622Y-155072931D01*
X139497922Y-155086706D01*
X139454510Y-155122009D01*
X139399997Y-155134633D01*
X139345486Y-155122008D01*
X139302074Y-155086703D01*
X139291380Y-155072936D01*
X139291375Y-155072931D01*
X139288997Y-155069869D01*
X138630126Y-154410998D01*
X138595628Y-154384199D01*
X138568702Y-154363283D01*
X138568699Y-154363281D01*
X138562140Y-154358186D01*
X138510504Y-154336797D01*
X138434729Y-154305410D01*
X138434725Y-154305408D01*
X138427048Y-154302229D01*
X138418801Y-154301193D01*
X138418797Y-154301192D01*
X138345478Y-154291983D01*
X138345472Y-154291982D01*
X138341630Y-154291500D01*
X138337768Y-154291499D01*
X138337753Y-154291499D01*
X136462251Y-154291499D01*
X136462250Y-154291499D01*
X136458375Y-154291499D01*
X136454532Y-154291981D01*
X136454527Y-154291982D01*
X136381202Y-154301192D01*
X136381196Y-154301193D01*
X136372952Y-154302229D01*
X136365276Y-154305408D01*
X136365270Y-154305410D01*
X136245541Y-154355004D01*
X136245538Y-154355005D01*
X136237860Y-154358186D01*
X136231300Y-154363281D01*
X136231293Y-154363286D01*
X136172936Y-154408619D01*
X136172921Y-154408631D01*
X136169869Y-154411003D01*
X136167129Y-154413742D01*
X136167121Y-154413750D01*
X135513736Y-155067135D01*
X135513728Y-155067143D01*
X135510998Y-155069874D01*
X135508632Y-155072918D01*
X135508622Y-155072931D01*
X135497922Y-155086706D01*
X135454510Y-155122009D01*
X135399997Y-155134633D01*
X135345486Y-155122008D01*
X135302074Y-155086703D01*
X135291380Y-155072936D01*
X135291375Y-155072931D01*
X135288997Y-155069869D01*
X134630126Y-154410998D01*
X134595628Y-154384199D01*
X134568702Y-154363283D01*
X134568699Y-154363281D01*
X134562140Y-154358186D01*
X134510504Y-154336797D01*
X134434729Y-154305410D01*
X134434725Y-154305408D01*
X134427048Y-154302229D01*
X134418801Y-154301193D01*
X134418797Y-154301192D01*
X134345478Y-154291983D01*
X134345472Y-154291982D01*
X134341630Y-154291500D01*
X134337768Y-154291499D01*
X134337753Y-154291499D01*
X132462251Y-154291499D01*
X132462250Y-154291499D01*
X132458375Y-154291499D01*
X132454532Y-154291981D01*
X132454527Y-154291982D01*
X132381202Y-154301192D01*
X132381196Y-154301193D01*
X132372952Y-154302229D01*
X132365276Y-154305408D01*
X132365270Y-154305410D01*
X132245541Y-154355004D01*
X132245538Y-154355005D01*
X132237860Y-154358186D01*
X132231300Y-154363281D01*
X132231293Y-154363286D01*
X132172936Y-154408619D01*
X132172921Y-154408631D01*
X132169869Y-154411003D01*
X132167129Y-154413742D01*
X132167121Y-154413750D01*
X131513736Y-155067135D01*
X131513728Y-155067143D01*
X131510998Y-155069874D01*
X131508625Y-155072928D01*
X131508623Y-155072931D01*
X131463283Y-155131297D01*
X131463279Y-155131303D01*
X131458186Y-155137860D01*
X131455006Y-155145536D01*
X131455006Y-155145537D01*
X131405410Y-155265270D01*
X131405408Y-155265276D01*
X131402229Y-155272952D01*
X131401193Y-155281196D01*
X131401192Y-155281202D01*
X131391983Y-155354521D01*
X131391500Y-155358370D01*
X131391499Y-155362230D01*
X131391499Y-155362246D01*
X131391499Y-156926000D01*
X131391499Y-158241625D01*
X131391981Y-158245468D01*
X131391982Y-158245472D01*
X131401192Y-158318797D01*
X131401193Y-158318801D01*
X131402229Y-158327048D01*
X131405408Y-158334725D01*
X131405410Y-158334729D01*
X131455004Y-158454458D01*
X131458186Y-158462140D01*
X131463284Y-158468702D01*
X131463286Y-158468706D01*
X131508619Y-158527063D01*
X131508624Y-158527069D01*
X131511003Y-158530131D01*
X131513750Y-158532878D01*
X132092997Y-159112125D01*
X132123577Y-159162518D01*
X132127432Y-159221338D01*
X132103692Y-159275292D01*
X132057721Y-159312188D01*
X131999907Y-159323688D01*
X131943316Y-159307193D01*
X123458744Y-154408623D01*
X117897123Y-151197619D01*
X124000830Y-151197619D01*
X124009300Y-151205108D01*
X124097388Y-151252193D01*
X124108594Y-151256834D01*
X124276007Y-151307619D01*
X124287902Y-151309985D01*
X124462009Y-151327133D01*
X124474133Y-151327133D01*
X124648239Y-151309985D01*
X124660134Y-151307619D01*
X124827547Y-151256834D01*
X124838753Y-151252193D01*
X124926840Y-151205109D01*
X124935310Y-151197619D01*
X198000830Y-151197619D01*
X198009300Y-151205108D01*
X198097388Y-151252193D01*
X198108594Y-151256834D01*
X198276007Y-151307619D01*
X198287902Y-151309985D01*
X198462009Y-151327133D01*
X198474133Y-151327133D01*
X198648239Y-151309985D01*
X198660134Y-151307619D01*
X198827547Y-151256834D01*
X198838753Y-151252193D01*
X198926840Y-151205109D01*
X198935310Y-151197619D01*
X198929378Y-151187993D01*
X198479613Y-150738228D01*
X198468071Y-150731564D01*
X198456527Y-150738229D01*
X198006762Y-151187993D01*
X198000830Y-151197619D01*
X124935310Y-151197619D01*
X124929378Y-151187993D01*
X124479613Y-150738228D01*
X124468071Y-150731564D01*
X124456527Y-150738229D01*
X124006762Y-151187993D01*
X124000830Y-151197619D01*
X117897123Y-151197619D01*
X116530570Y-150408639D01*
X116501126Y-150379195D01*
X123514071Y-150379195D01*
X123531218Y-150553301D01*
X123533584Y-150565196D01*
X123584370Y-150732613D01*
X123589009Y-150743813D01*
X123636093Y-150831900D01*
X123643584Y-150840372D01*
X123653208Y-150834441D01*
X124102975Y-150384675D01*
X124109639Y-150373133D01*
X124826502Y-150373133D01*
X124833166Y-150384675D01*
X125282931Y-150834440D01*
X125292557Y-150840372D01*
X125300047Y-150831902D01*
X125347131Y-150743815D01*
X125351772Y-150732609D01*
X125402557Y-150565196D01*
X125404923Y-150553301D01*
X125422071Y-150379195D01*
X197514071Y-150379195D01*
X197531218Y-150553301D01*
X197533584Y-150565196D01*
X197584370Y-150732613D01*
X197589009Y-150743813D01*
X197636093Y-150831900D01*
X197643584Y-150840372D01*
X197653208Y-150834441D01*
X198102975Y-150384675D01*
X198109639Y-150373133D01*
X198826502Y-150373133D01*
X198833166Y-150384675D01*
X199282931Y-150834440D01*
X199292557Y-150840372D01*
X199300047Y-150831902D01*
X199347131Y-150743815D01*
X199351772Y-150732609D01*
X199402557Y-150565196D01*
X199404923Y-150553301D01*
X199422071Y-150379195D01*
X199422071Y-150367071D01*
X199404923Y-150192964D01*
X199402557Y-150181069D01*
X199351772Y-150013656D01*
X199347131Y-150002450D01*
X199300046Y-149914362D01*
X199292557Y-149905892D01*
X199282931Y-149911824D01*
X198833167Y-150361589D01*
X198826502Y-150373133D01*
X198109639Y-150373133D01*
X198102975Y-150361590D01*
X197653207Y-149911822D01*
X197643584Y-149905892D01*
X197636093Y-149914364D01*
X197589009Y-150002452D01*
X197584370Y-150013652D01*
X197533584Y-150181069D01*
X197531218Y-150192964D01*
X197514071Y-150367071D01*
X197514071Y-150379195D01*
X125422071Y-150379195D01*
X125422071Y-150367071D01*
X125404923Y-150192964D01*
X125402557Y-150181069D01*
X125351772Y-150013656D01*
X125347131Y-150002450D01*
X125300046Y-149914362D01*
X125292557Y-149905892D01*
X125282931Y-149911824D01*
X124833167Y-150361589D01*
X124826502Y-150373133D01*
X124109639Y-150373133D01*
X124102975Y-150361590D01*
X123653207Y-149911822D01*
X123643584Y-149905892D01*
X123636093Y-149914364D01*
X123589009Y-150002452D01*
X123584370Y-150013652D01*
X123533584Y-150181069D01*
X123531218Y-150192964D01*
X123514071Y-150367071D01*
X123514071Y-150379195D01*
X116501126Y-150379195D01*
X116485184Y-150363253D01*
X116468571Y-150301253D01*
X116468571Y-149548646D01*
X124000830Y-149548646D01*
X124006760Y-149558269D01*
X124456528Y-150008037D01*
X124468071Y-150014701D01*
X124479613Y-150008037D01*
X124929379Y-149558270D01*
X124935310Y-149548646D01*
X124926838Y-149541155D01*
X124838751Y-149494071D01*
X124827551Y-149489432D01*
X124660134Y-149438646D01*
X124648239Y-149436280D01*
X124474133Y-149419133D01*
X124462009Y-149419133D01*
X124287902Y-149436280D01*
X124276007Y-149438646D01*
X124108590Y-149489432D01*
X124097390Y-149494071D01*
X124009302Y-149541155D01*
X124000830Y-149548646D01*
X116468571Y-149548646D01*
X116468571Y-126500000D01*
X168286496Y-126500000D01*
X168287175Y-126506460D01*
X168305778Y-126683467D01*
X168305779Y-126683475D01*
X168306458Y-126689928D01*
X168308463Y-126696100D01*
X168308465Y-126696107D01*
X168348780Y-126820181D01*
X168365473Y-126871556D01*
X168368720Y-126877180D01*
X168368721Y-126877182D01*
X168379647Y-126896107D01*
X168460960Y-127036944D01*
X168588747Y-127178866D01*
X168593997Y-127182680D01*
X168594000Y-127182683D01*
X168660939Y-127231317D01*
X168743248Y-127291118D01*
X168917712Y-127368794D01*
X168924070Y-127370145D01*
X168924072Y-127370146D01*
X168942383Y-127374038D01*
X169104513Y-127408500D01*
X169288984Y-127408500D01*
X169295487Y-127408500D01*
X169482288Y-127368794D01*
X169656752Y-127291118D01*
X169811253Y-127178866D01*
X169939040Y-127036944D01*
X170034527Y-126871556D01*
X170092160Y-126694180D01*
X170117941Y-126649528D01*
X170159656Y-126619220D01*
X170210091Y-126608500D01*
X173865229Y-126608500D01*
X173923444Y-126623015D01*
X173968030Y-126663160D01*
X173988550Y-126719539D01*
X174005778Y-126883467D01*
X174005779Y-126883475D01*
X174006458Y-126889928D01*
X174008463Y-126896100D01*
X174008465Y-126896107D01*
X174055795Y-127041771D01*
X174065473Y-127071556D01*
X174068720Y-127077180D01*
X174068721Y-127077182D01*
X174127428Y-127178866D01*
X174160960Y-127236944D01*
X174288747Y-127378866D01*
X174293997Y-127382680D01*
X174294000Y-127382683D01*
X174436863Y-127486479D01*
X174443248Y-127491118D01*
X174617712Y-127568794D01*
X174624070Y-127570145D01*
X174624072Y-127570146D01*
X174660874Y-127577968D01*
X174804513Y-127608500D01*
X174861234Y-127608500D01*
X174908687Y-127617939D01*
X174948915Y-127644819D01*
X192696294Y-145392198D01*
X192703896Y-145400551D01*
X192708000Y-145407018D01*
X192713690Y-145412361D01*
X192757667Y-145453658D01*
X192760464Y-145456368D01*
X192780230Y-145476134D01*
X192783484Y-145478658D01*
X192792367Y-145486244D01*
X192824679Y-145516586D01*
X192831517Y-145520345D01*
X192842568Y-145526421D01*
X192858830Y-145537103D01*
X192868788Y-145544827D01*
X192868792Y-145544829D01*
X192874959Y-145549613D01*
X192882119Y-145552711D01*
X192882122Y-145552713D01*
X192915614Y-145567206D01*
X192926107Y-145572346D01*
X192964940Y-145593695D01*
X192984718Y-145598773D01*
X193003120Y-145605074D01*
X193012997Y-145609347D01*
X193021855Y-145613181D01*
X193065621Y-145620112D01*
X193077041Y-145622477D01*
X193119970Y-145633500D01*
X193140385Y-145633500D01*
X193159783Y-145635027D01*
X193179943Y-145638220D01*
X193218476Y-145634577D01*
X193224058Y-145634050D01*
X193235727Y-145633500D01*
X197886234Y-145633500D01*
X197933687Y-145642939D01*
X197973915Y-145669819D01*
X198028300Y-145724204D01*
X198059876Y-145777918D01*
X198061341Y-145840208D01*
X198032326Y-145895347D01*
X197980156Y-145929413D01*
X195285025Y-146836067D01*
X195285020Y-146836068D01*
X195281973Y-146837094D01*
X195279049Y-146838428D01*
X195279042Y-146838432D01*
X195188039Y-146879989D01*
X195188018Y-146879999D01*
X195185112Y-146881327D01*
X195182355Y-146882950D01*
X195182341Y-146882958D01*
X195143818Y-146905646D01*
X195143806Y-146905653D01*
X195141045Y-146907280D01*
X195138459Y-146909189D01*
X195138454Y-146909193D01*
X195060590Y-146966695D01*
X195060584Y-146966699D01*
X195055405Y-146970525D01*
X195051125Y-146975335D01*
X195051120Y-146975341D01*
X194986779Y-147047673D01*
X194986769Y-147047685D01*
X194984647Y-147050071D01*
X194982780Y-147052667D01*
X194982771Y-147052680D01*
X194956683Y-147088980D01*
X194956671Y-147088997D01*
X194954800Y-147091602D01*
X194953208Y-147094386D01*
X194953199Y-147094401D01*
X194905159Y-147178444D01*
X194905155Y-147178451D01*
X194901963Y-147184037D01*
X194899989Y-147190164D01*
X194899988Y-147190168D01*
X194870307Y-147282326D01*
X194870302Y-147282341D01*
X194869324Y-147285381D01*
X194868665Y-147288507D01*
X194868662Y-147288519D01*
X194859440Y-147332278D01*
X194858777Y-147335425D01*
X194858444Y-147338619D01*
X194858443Y-147338626D01*
X194848072Y-147438118D01*
X194848071Y-147438134D01*
X194847739Y-147441321D01*
X194847739Y-149503844D01*
X194848182Y-149507526D01*
X194848183Y-149507535D01*
X194854294Y-149558270D01*
X194862423Y-149625766D01*
X194863306Y-149629381D01*
X194863307Y-149629383D01*
X194875519Y-149679348D01*
X194875522Y-149679358D01*
X194876404Y-149682966D01*
X194877715Y-149686453D01*
X194916996Y-149790946D01*
X194916998Y-149790951D01*
X194919617Y-149797916D01*
X194988887Y-149899318D01*
X194991335Y-149902114D01*
X194991336Y-149902115D01*
X195002059Y-149914362D01*
X195027677Y-149943619D01*
X195030444Y-149946104D01*
X195113507Y-150020703D01*
X195113511Y-150020705D01*
X195119043Y-150025674D01*
X195227278Y-150083690D01*
X195282131Y-150105103D01*
X195401045Y-150135760D01*
X195523838Y-150137307D01*
X195582383Y-150131003D01*
X195702034Y-150103349D01*
X197235959Y-149548646D01*
X198000830Y-149548646D01*
X198006760Y-149558269D01*
X198456528Y-150008037D01*
X198468071Y-150014701D01*
X198479613Y-150008037D01*
X198929379Y-149558270D01*
X198935310Y-149548646D01*
X198926838Y-149541155D01*
X198838751Y-149494071D01*
X198827551Y-149489432D01*
X198660134Y-149438646D01*
X198648239Y-149436280D01*
X198474133Y-149419133D01*
X198462009Y-149419133D01*
X198287902Y-149436280D01*
X198276003Y-149438647D01*
X198231928Y-149452017D01*
X198168832Y-149454358D01*
X198124378Y-149431341D01*
X198111306Y-149469446D01*
X198066059Y-149510818D01*
X198009301Y-149541155D01*
X198000830Y-149548646D01*
X197235959Y-149548646D01*
X197965439Y-149284849D01*
X198026457Y-149278901D01*
X198078357Y-149300993D01*
X198101813Y-149252627D01*
X198153762Y-149216747D01*
X202976069Y-147472890D01*
X203045199Y-147468468D01*
X203105916Y-147501820D01*
X203553378Y-147949282D01*
X203577617Y-147983579D01*
X203589018Y-148024001D01*
X203603955Y-148166121D01*
X203606458Y-148189928D01*
X203608463Y-148196100D01*
X203608465Y-148196107D01*
X203663465Y-148365377D01*
X203665473Y-148371556D01*
X203760960Y-148536944D01*
X203888747Y-148678866D01*
X203893997Y-148682680D01*
X203894000Y-148682683D01*
X204036863Y-148786479D01*
X204043248Y-148791118D01*
X204217712Y-148868794D01*
X204224070Y-148870145D01*
X204224072Y-148870146D01*
X204260874Y-148877968D01*
X204404513Y-148908500D01*
X204588984Y-148908500D01*
X204595487Y-148908500D01*
X204782288Y-148868794D01*
X204956752Y-148791118D01*
X205111253Y-148678866D01*
X205239040Y-148536944D01*
X205334527Y-148371556D01*
X205393542Y-148189928D01*
X205413504Y-148000000D01*
X205393542Y-147810072D01*
X205334527Y-147628444D01*
X205239040Y-147463056D01*
X205111253Y-147321134D01*
X205106003Y-147317319D01*
X205105999Y-147317316D01*
X204962006Y-147212699D01*
X204962004Y-147212697D01*
X204956752Y-147208882D01*
X204950821Y-147206241D01*
X204950817Y-147206239D01*
X204788226Y-147133849D01*
X204788219Y-147133846D01*
X204782288Y-147131206D01*
X204775929Y-147129854D01*
X204775928Y-147129854D01*
X204664453Y-147106159D01*
X204607869Y-147077561D01*
X204572817Y-147024732D01*
X204568460Y-146961482D01*
X204595938Y-146904345D01*
X204648067Y-146868259D01*
X205014309Y-146735818D01*
X205108507Y-146690434D01*
X205151307Y-146664136D01*
X205234351Y-146600618D01*
X205302809Y-146521596D01*
X205331665Y-146480477D01*
X205382702Y-146389220D01*
X205414195Y-146289516D01*
X205424370Y-146240323D01*
X205435014Y-146136313D01*
X205435014Y-143487524D01*
X205424481Y-143384053D01*
X205414412Y-143335108D01*
X205383249Y-143235888D01*
X205332732Y-143144982D01*
X205304161Y-143103985D01*
X205236365Y-143025122D01*
X205231386Y-143021275D01*
X205231383Y-143021272D01*
X205156558Y-142963459D01*
X205156553Y-142963455D01*
X205154070Y-142961537D01*
X205111637Y-142935146D01*
X205108815Y-142933765D01*
X205108805Y-142933760D01*
X205021027Y-142890822D01*
X205018208Y-142889443D01*
X205015272Y-142888359D01*
X205015266Y-142888357D01*
X195709419Y-139454462D01*
X195709413Y-139454460D01*
X195705933Y-139453176D01*
X195702327Y-139452319D01*
X195702316Y-139452316D01*
X195589663Y-139425555D01*
X195589651Y-139425553D01*
X195586044Y-139424696D01*
X195582351Y-139424277D01*
X195582345Y-139424276D01*
X195534799Y-139418883D01*
X195527341Y-139418037D01*
X195523619Y-139418064D01*
X195523616Y-139418064D01*
X195411591Y-139418883D01*
X195411587Y-139418883D01*
X195404129Y-139418938D01*
X195396900Y-139420767D01*
X195396894Y-139420768D01*
X195288294Y-139448250D01*
X195288290Y-139448251D01*
X195284679Y-139449165D01*
X195281201Y-139450506D01*
X195281196Y-139450508D01*
X195233038Y-139469082D01*
X195233032Y-139469084D01*
X195229557Y-139470425D01*
X195226270Y-139472171D01*
X195226262Y-139472175D01*
X195127336Y-139524735D01*
X195120745Y-139528237D01*
X195115182Y-139533204D01*
X195115177Y-139533208D01*
X195031615Y-139607825D01*
X195031604Y-139607836D01*
X195028838Y-139610306D01*
X195026383Y-139613095D01*
X195026377Y-139613102D01*
X194992272Y-139651860D01*
X194992264Y-139651869D01*
X194989810Y-139654659D01*
X194987704Y-139657728D01*
X194987702Y-139657731D01*
X194924319Y-139750109D01*
X194924315Y-139750115D01*
X194920097Y-139756264D01*
X194917463Y-139763242D01*
X194917462Y-139763246D01*
X194877910Y-139868068D01*
X194877907Y-139868076D01*
X194876596Y-139871552D01*
X194862522Y-139928931D01*
X194862074Y-139932630D01*
X194862073Y-139932641D01*
X194848187Y-140047545D01*
X194848186Y-140047554D01*
X194847739Y-140051257D01*
X194847739Y-142041994D01*
X194848071Y-142045181D01*
X194848072Y-142045196D01*
X194858443Y-142144688D01*
X194858777Y-142147890D01*
X194869324Y-142197934D01*
X194870304Y-142200977D01*
X194870307Y-142200988D01*
X194899988Y-142293146D01*
X194901963Y-142299278D01*
X194954800Y-142391713D01*
X194956677Y-142394325D01*
X194956683Y-142394334D01*
X194982771Y-142430634D01*
X194984647Y-142433244D01*
X194986779Y-142435641D01*
X194986784Y-142435647D01*
X195051124Y-142507977D01*
X195055408Y-142512793D01*
X195060587Y-142516618D01*
X195060591Y-142516621D01*
X195138457Y-142574122D01*
X195141053Y-142576039D01*
X195185120Y-142601991D01*
X195281973Y-142646220D01*
X201161538Y-144624129D01*
X201212917Y-144657335D01*
X201242167Y-144711067D01*
X201242167Y-144772245D01*
X201212917Y-144825977D01*
X201161536Y-144859184D01*
X199583363Y-145390088D01*
X199515503Y-145393282D01*
X199456145Y-145360241D01*
X198703697Y-144607792D01*
X198696100Y-144599444D01*
X198692000Y-144592982D01*
X198686314Y-144587642D01*
X198686312Y-144587640D01*
X198642331Y-144546340D01*
X198639534Y-144543629D01*
X198622527Y-144526622D01*
X198622526Y-144526621D01*
X198619770Y-144523865D01*
X198616486Y-144521317D01*
X198607624Y-144513746D01*
X198581009Y-144488754D01*
X198581003Y-144488749D01*
X198575321Y-144483414D01*
X198568488Y-144479658D01*
X198568482Y-144479653D01*
X198557429Y-144473576D01*
X198541174Y-144462899D01*
X198531209Y-144455170D01*
X198531206Y-144455168D01*
X198525041Y-144450386D01*
X198484376Y-144432789D01*
X198473884Y-144427649D01*
X198441896Y-144410063D01*
X198441894Y-144410062D01*
X198435060Y-144406305D01*
X198415284Y-144401227D01*
X198396881Y-144394926D01*
X198385309Y-144389918D01*
X198385301Y-144389915D01*
X198378145Y-144386819D01*
X198370440Y-144385598D01*
X198370438Y-144385598D01*
X198334381Y-144379887D01*
X198322955Y-144377521D01*
X198280030Y-144366500D01*
X198272228Y-144366500D01*
X198259615Y-144366500D01*
X198240217Y-144364973D01*
X198227766Y-144363001D01*
X198220057Y-144361780D01*
X198212291Y-144362514D01*
X198212288Y-144362514D01*
X198175942Y-144365950D01*
X198164273Y-144366500D01*
X193513767Y-144366500D01*
X193466314Y-144357061D01*
X193426086Y-144330181D01*
X175916086Y-126820181D01*
X175885836Y-126770818D01*
X175881294Y-126713102D01*
X175903449Y-126659615D01*
X175947472Y-126622015D01*
X176003767Y-126608500D01*
X194725636Y-126608500D01*
X194787636Y-126625113D01*
X194833023Y-126670500D01*
X194849636Y-126732500D01*
X194849636Y-127980408D01*
X194867133Y-128113313D01*
X194868179Y-128117218D01*
X194868182Y-128117231D01*
X194882694Y-128171388D01*
X194883746Y-128175313D01*
X194935045Y-128299159D01*
X194939991Y-128305604D01*
X194939993Y-128305608D01*
X195009244Y-128395856D01*
X195016650Y-128405507D01*
X195062037Y-128450894D01*
X195168385Y-128532499D01*
X195292231Y-128583798D01*
X195354231Y-128600411D01*
X195487136Y-128617908D01*
X204795358Y-128617908D01*
X204799411Y-128617908D01*
X204932316Y-128600411D01*
X204994316Y-128583798D01*
X205118162Y-128532499D01*
X205224510Y-128450894D01*
X205269897Y-128405507D01*
X205351502Y-128299159D01*
X205402801Y-128175313D01*
X205419414Y-128113313D01*
X205436911Y-127980408D01*
X205436911Y-125935358D01*
X205419414Y-125802453D01*
X205402801Y-125740453D01*
X205351502Y-125616607D01*
X205332236Y-125591500D01*
X205295538Y-125543675D01*
X205269897Y-125510259D01*
X205224510Y-125464872D01*
X205166077Y-125420034D01*
X205124611Y-125388215D01*
X205124607Y-125388213D01*
X205118162Y-125383267D01*
X205110653Y-125380156D01*
X205110652Y-125380156D01*
X204999958Y-125334305D01*
X204959730Y-125307425D01*
X204932850Y-125267197D01*
X204923411Y-125219744D01*
X204923411Y-122931100D01*
X204938147Y-122872472D01*
X204978851Y-122827778D01*
X205148694Y-122715077D01*
X205148693Y-122715077D01*
X205151886Y-122712959D01*
X205247625Y-122630840D01*
X205288329Y-122586145D01*
X205361154Y-122483178D01*
X205406685Y-122365566D01*
X205421421Y-122306938D01*
X205436911Y-122181764D01*
X205436911Y-119841674D01*
X205417876Y-119703157D01*
X205416295Y-119697515D01*
X205400974Y-119642823D01*
X205399830Y-119638738D01*
X205344133Y-119510487D01*
X205255904Y-119402016D01*
X205252815Y-119399131D01*
X205252812Y-119399127D01*
X205210109Y-119359235D01*
X205210105Y-119359231D01*
X205207017Y-119356347D01*
X205160025Y-119323166D01*
X205099727Y-119280589D01*
X205092799Y-119275697D01*
X205084813Y-119272857D01*
X205084809Y-119272855D01*
X204965045Y-119230266D01*
X204965043Y-119230265D01*
X204961060Y-119228849D01*
X204956921Y-119227988D01*
X204956914Y-119227986D01*
X204899709Y-119216086D01*
X204899702Y-119216085D01*
X204895563Y-119215224D01*
X204891339Y-119214934D01*
X204764532Y-119206229D01*
X204764526Y-119206229D01*
X204756071Y-119205649D01*
X204747769Y-119207371D01*
X204747764Y-119207372D01*
X204623308Y-119233198D01*
X204623298Y-119233200D01*
X204619167Y-119234058D01*
X204615186Y-119235471D01*
X204615184Y-119235472D01*
X204560114Y-119255025D01*
X204560110Y-119255026D01*
X204556124Y-119256442D01*
X204552362Y-119258389D01*
X204552359Y-119258391D01*
X204435727Y-119318776D01*
X204435714Y-119318783D01*
X204431959Y-119320728D01*
X204428506Y-119323163D01*
X204428502Y-119323166D01*
X204081312Y-119568057D01*
X204027949Y-119589397D01*
X203970696Y-119584387D01*
X203921851Y-119554100D01*
X203891909Y-119505047D01*
X203834527Y-119328444D01*
X203739040Y-119163056D01*
X203611253Y-119021134D01*
X203606003Y-119017319D01*
X203605999Y-119017316D01*
X203462006Y-118912699D01*
X203462004Y-118912697D01*
X203456752Y-118908882D01*
X203450821Y-118906241D01*
X203450817Y-118906239D01*
X203288226Y-118833849D01*
X203288219Y-118833846D01*
X203282288Y-118831206D01*
X203275935Y-118829855D01*
X203275927Y-118829853D01*
X203101849Y-118792852D01*
X203101846Y-118792851D01*
X203095487Y-118791500D01*
X202904513Y-118791500D01*
X202898154Y-118792851D01*
X202898150Y-118792852D01*
X202724072Y-118829853D01*
X202724061Y-118829856D01*
X202717712Y-118831206D01*
X202711782Y-118833845D01*
X202711773Y-118833849D01*
X202549182Y-118906239D01*
X202549174Y-118906243D01*
X202543248Y-118908882D01*
X202537999Y-118912695D01*
X202537993Y-118912699D01*
X202394000Y-119017316D01*
X202393991Y-119017323D01*
X202388747Y-119021134D01*
X202384403Y-119025957D01*
X202384400Y-119025961D01*
X202267511Y-119155780D01*
X202260960Y-119163056D01*
X202257714Y-119168676D01*
X202257711Y-119168682D01*
X202168721Y-119322817D01*
X202168718Y-119322822D01*
X202165473Y-119328444D01*
X202163467Y-119334616D01*
X202163465Y-119334622D01*
X202108466Y-119503891D01*
X202106458Y-119510072D01*
X202105779Y-119516530D01*
X202105777Y-119516541D01*
X202102131Y-119551225D01*
X202082078Y-119606905D01*
X202038502Y-119646949D01*
X201981330Y-119662235D01*
X199437717Y-119713909D01*
X199419790Y-119712974D01*
X199339739Y-119702949D01*
X199339666Y-119702940D01*
X199339376Y-119702904D01*
X199339102Y-119702873D01*
X199339024Y-119702864D01*
X199326590Y-119701470D01*
X199326531Y-119701463D01*
X199326212Y-119701428D01*
X199325889Y-119701396D01*
X199325785Y-119701385D01*
X199320338Y-119700845D01*
X199320208Y-119700832D01*
X199319906Y-119700803D01*
X199319621Y-119700778D01*
X199319487Y-119700766D01*
X199307192Y-119699707D01*
X199307102Y-119699699D01*
X199306710Y-119699666D01*
X199306385Y-119699642D01*
X199306270Y-119699633D01*
X199212330Y-119692764D01*
X199212277Y-119692760D01*
X199211970Y-119692738D01*
X199211663Y-119692719D01*
X199211598Y-119692715D01*
X199199634Y-119691988D01*
X199199518Y-119691981D01*
X199199326Y-119691970D01*
X199199136Y-119691960D01*
X199198993Y-119691953D01*
X199193723Y-119691699D01*
X199193719Y-119691698D01*
X199193247Y-119691676D01*
X199192831Y-119691661D01*
X199180948Y-119691232D01*
X199180830Y-119691228D01*
X199180618Y-119691221D01*
X199180277Y-119691212D01*
X199180245Y-119691212D01*
X199081185Y-119688862D01*
X199080981Y-119688857D01*
X199080954Y-119688857D01*
X199080935Y-119688856D01*
X199080670Y-119688851D01*
X199075203Y-119688754D01*
X199074969Y-119688750D01*
X199074888Y-119688749D01*
X199074824Y-119688748D01*
X199074611Y-119688745D01*
X199072260Y-119688717D01*
X199072260Y-119688718D01*
X199071947Y-119688714D01*
X199071695Y-119688712D01*
X199071642Y-119688712D01*
X199066131Y-119688679D01*
X199065960Y-119688678D01*
X199065836Y-119688678D01*
X197375456Y-119688678D01*
X197375324Y-119688678D01*
X197375220Y-119688679D01*
X197369322Y-119688715D01*
X197368976Y-119688719D01*
X197366279Y-119688752D01*
X197366202Y-119688753D01*
X197366138Y-119688754D01*
X197366048Y-119688755D01*
X197365899Y-119688758D01*
X197360155Y-119688863D01*
X197360007Y-119688866D01*
X197359965Y-119688867D01*
X197359903Y-119688868D01*
X197359743Y-119688872D01*
X197228281Y-119692067D01*
X197228133Y-119692071D01*
X197227820Y-119692079D01*
X197227414Y-119692092D01*
X197227405Y-119692093D01*
X197218293Y-119692401D01*
X197218227Y-119692403D01*
X197218036Y-119692410D01*
X197217856Y-119692417D01*
X197217747Y-119692422D01*
X197213677Y-119692599D01*
X197213631Y-119692601D01*
X197213358Y-119692613D01*
X197213203Y-119692621D01*
X197213101Y-119692626D01*
X197203610Y-119693130D01*
X197203522Y-119693134D01*
X197203464Y-119693138D01*
X197203439Y-119693139D01*
X197203324Y-119693146D01*
X197141557Y-119697022D01*
X197141463Y-119697028D01*
X197134538Y-119697510D01*
X197134465Y-119697515D01*
X197131490Y-119697743D01*
X197131368Y-119697752D01*
X197131220Y-119697764D01*
X197131107Y-119697773D01*
X197130885Y-119697791D01*
X197124772Y-119698299D01*
X197124547Y-119698318D01*
X197124469Y-119698325D01*
X197124374Y-119698333D01*
X197124138Y-119698354D01*
X197063663Y-119703784D01*
X197063502Y-119703798D01*
X197063368Y-119703811D01*
X197063255Y-119703821D01*
X197063179Y-119703829D01*
X197056435Y-119704481D01*
X197056302Y-119704495D01*
X197053276Y-119704808D01*
X197053113Y-119704825D01*
X197053032Y-119704834D01*
X197052895Y-119704849D01*
X197052804Y-119704859D01*
X197045990Y-119705613D01*
X197045585Y-119705659D01*
X196986300Y-119712655D01*
X196986195Y-119712667D01*
X196986076Y-119712682D01*
X196985733Y-119712725D01*
X196979095Y-119713556D01*
X196978937Y-119713576D01*
X196978780Y-119713596D01*
X196978640Y-119713614D01*
X196978520Y-119713630D01*
X196975395Y-119714044D01*
X196975225Y-119714067D01*
X196967938Y-119715088D01*
X196967804Y-119715107D01*
X196910044Y-119723623D01*
X196909886Y-119723646D01*
X196909722Y-119723671D01*
X196909593Y-119723690D01*
X196909341Y-119723729D01*
X196902435Y-119724801D01*
X196902354Y-119724813D01*
X196902133Y-119724848D01*
X196902053Y-119724860D01*
X196901894Y-119724886D01*
X196898727Y-119725402D01*
X196898381Y-119725459D01*
X196891256Y-119726674D01*
X196891147Y-119726692D01*
X196890966Y-119726724D01*
X196890583Y-119726792D01*
X196890573Y-119726794D01*
X196834571Y-119736772D01*
X196834401Y-119736802D01*
X196834300Y-119736821D01*
X196834187Y-119736841D01*
X196834083Y-119736861D01*
X196826467Y-119738278D01*
X196826370Y-119738297D01*
X196822827Y-119738986D01*
X196822802Y-119738990D01*
X196822663Y-119739018D01*
X196822402Y-119739070D01*
X196822386Y-119739074D01*
X196815262Y-119740515D01*
X196815109Y-119740546D01*
X196814933Y-119740582D01*
X196814835Y-119740602D01*
X196814682Y-119740634D01*
X196760066Y-119752122D01*
X196759952Y-119752146D01*
X196759783Y-119752182D01*
X196759614Y-119752218D01*
X196759460Y-119752252D01*
X196751963Y-119753892D01*
X196751688Y-119753953D01*
X196748093Y-119754769D01*
X196747992Y-119754792D01*
X196747968Y-119754798D01*
X196747900Y-119754813D01*
X196747810Y-119754835D01*
X196740145Y-119756640D01*
X196739950Y-119756686D01*
X196739876Y-119756703D01*
X196739620Y-119756765D01*
X196699391Y-119766578D01*
X196672527Y-119770084D01*
X195216314Y-119799668D01*
X195216311Y-119799668D01*
X195200000Y-119800000D01*
X195200320Y-119816313D01*
X195200320Y-119816315D01*
X195225451Y-121095635D01*
X195217535Y-121141728D01*
X195181987Y-121236226D01*
X195181907Y-121236439D01*
X195181850Y-121236594D01*
X195181784Y-121236773D01*
X195181728Y-121236927D01*
X195178137Y-121246801D01*
X195177996Y-121247190D01*
X195177890Y-121247491D01*
X195177857Y-121247584D01*
X195176320Y-121251957D01*
X195176262Y-121252123D01*
X195176212Y-121252268D01*
X195176133Y-121252500D01*
X195176100Y-121252597D01*
X195172746Y-121262488D01*
X195172695Y-121262640D01*
X195172605Y-121262907D01*
X195172489Y-121263261D01*
X195172472Y-121263313D01*
X195128929Y-121396502D01*
X195128881Y-121396648D01*
X195128840Y-121396776D01*
X195128817Y-121396848D01*
X195128773Y-121396985D01*
X195125859Y-121406207D01*
X195125822Y-121406323D01*
X195125768Y-121406497D01*
X195125714Y-121406673D01*
X195125655Y-121406864D01*
X195124401Y-121410977D01*
X195124317Y-121411253D01*
X195124270Y-121411412D01*
X195124239Y-121411516D01*
X195121485Y-121420885D01*
X195121377Y-121421253D01*
X195081204Y-121563191D01*
X195081124Y-121563483D01*
X195081112Y-121563527D01*
X195078816Y-121571928D01*
X195078673Y-121572460D01*
X195077668Y-121576278D01*
X195077610Y-121576499D01*
X195077585Y-121576594D01*
X195077555Y-121576713D01*
X195075327Y-121585499D01*
X195075215Y-121585948D01*
X195038775Y-121735441D01*
X195038697Y-121735762D01*
X195038658Y-121735928D01*
X195038628Y-121736053D01*
X195036762Y-121743999D01*
X195036727Y-121744152D01*
X195036705Y-121744246D01*
X195035807Y-121748222D01*
X195033998Y-121756555D01*
X195033968Y-121756694D01*
X195033940Y-121756830D01*
X195001132Y-121914211D01*
X195001041Y-121914648D01*
X195000986Y-121914920D01*
X195000968Y-121915010D01*
X194999548Y-121922090D01*
X194999449Y-121922594D01*
X194998829Y-121925815D01*
X194998760Y-121926182D01*
X194997455Y-121933254D01*
X194997368Y-121933728D01*
X194997303Y-121934091D01*
X194997286Y-121934190D01*
X194968006Y-122099940D01*
X194966832Y-122106859D01*
X194966811Y-122106985D01*
X194966808Y-122107005D01*
X194966263Y-122110363D01*
X194965156Y-122117504D01*
X194939372Y-122291853D01*
X194938462Y-122298287D01*
X194938041Y-122301406D01*
X194938008Y-122301660D01*
X194937240Y-122307638D01*
X194937193Y-122308011D01*
X194937145Y-122308404D01*
X194937141Y-122308437D01*
X194915106Y-122489346D01*
X194915054Y-122489781D01*
X194915033Y-122489960D01*
X194915014Y-122490125D01*
X194914116Y-122498053D01*
X194914098Y-122498216D01*
X194914084Y-122498342D01*
X194914068Y-122498488D01*
X194914055Y-122498614D01*
X194913641Y-122502569D01*
X194912790Y-122511431D01*
X194912769Y-122511661D01*
X194878817Y-122901603D01*
X194878786Y-122901962D01*
X194878749Y-122902432D01*
X194878745Y-122902491D01*
X194878041Y-122911618D01*
X194878027Y-122911799D01*
X194878005Y-122912097D01*
X194877984Y-122912402D01*
X194877974Y-122912548D01*
X194877704Y-122916573D01*
X194877685Y-122916862D01*
X194877111Y-122926860D01*
X194877097Y-122927143D01*
X194877095Y-122927191D01*
X194857006Y-123349318D01*
X194856999Y-123349477D01*
X194856996Y-123349549D01*
X194856665Y-123357974D01*
X194856538Y-123362052D01*
X194856534Y-123362183D01*
X194856531Y-123362323D01*
X194856346Y-123370418D01*
X194856340Y-123370756D01*
X194849703Y-123827426D01*
X194849662Y-123831185D01*
X194849649Y-123832987D01*
X194849649Y-123833091D01*
X194849636Y-123836540D01*
X194849636Y-123836691D01*
X194849636Y-123836976D01*
X194849636Y-125217500D01*
X194833023Y-125279500D01*
X194787636Y-125324887D01*
X194725636Y-125341500D01*
X169803846Y-125341500D01*
X169792562Y-125340968D01*
X169785091Y-125339298D01*
X169777293Y-125339543D01*
X169716983Y-125341439D01*
X169713087Y-125341500D01*
X169685144Y-125341500D01*
X169681277Y-125341988D01*
X169681268Y-125341989D01*
X169681032Y-125342019D01*
X169669406Y-125342934D01*
X169632903Y-125344081D01*
X169632895Y-125344082D01*
X169625110Y-125344327D01*
X169617628Y-125346500D01*
X169617619Y-125346502D01*
X169605505Y-125350022D01*
X169586457Y-125353967D01*
X169573943Y-125355548D01*
X169573942Y-125355548D01*
X169566203Y-125356526D01*
X169558952Y-125359396D01*
X169558947Y-125359398D01*
X169524997Y-125372839D01*
X169513952Y-125376620D01*
X169478902Y-125386803D01*
X169478891Y-125386807D01*
X169471407Y-125388982D01*
X169464694Y-125392951D01*
X169464691Y-125392953D01*
X169453834Y-125399374D01*
X169436370Y-125407929D01*
X169424636Y-125412575D01*
X169424629Y-125412578D01*
X169417383Y-125415448D01*
X169411079Y-125420027D01*
X169411068Y-125420034D01*
X169381534Y-125441491D01*
X169371776Y-125447901D01*
X169340355Y-125466483D01*
X169340341Y-125466493D01*
X169333638Y-125470458D01*
X169328122Y-125475973D01*
X169328119Y-125475976D01*
X169319197Y-125484897D01*
X169304414Y-125497523D01*
X169294206Y-125504940D01*
X169294200Y-125504944D01*
X169287893Y-125509528D01*
X169282924Y-125515534D01*
X169282919Y-125515539D01*
X169259642Y-125543675D01*
X169251798Y-125552297D01*
X169248927Y-125555167D01*
X169208696Y-125582057D01*
X169161233Y-125591500D01*
X169104513Y-125591500D01*
X169098154Y-125592851D01*
X169098150Y-125592852D01*
X168924072Y-125629853D01*
X168924061Y-125629856D01*
X168917712Y-125631206D01*
X168911782Y-125633845D01*
X168911773Y-125633849D01*
X168749182Y-125706239D01*
X168749174Y-125706243D01*
X168743248Y-125708882D01*
X168737999Y-125712695D01*
X168737993Y-125712699D01*
X168594000Y-125817316D01*
X168593991Y-125817323D01*
X168588747Y-125821134D01*
X168584403Y-125825957D01*
X168584400Y-125825961D01*
X168489520Y-125931337D01*
X168460960Y-125963056D01*
X168457714Y-125968676D01*
X168457711Y-125968682D01*
X168368721Y-126122817D01*
X168368718Y-126122822D01*
X168365473Y-126128444D01*
X168363467Y-126134616D01*
X168363465Y-126134622D01*
X168308465Y-126303892D01*
X168308463Y-126303901D01*
X168306458Y-126310072D01*
X168305780Y-126316522D01*
X168305778Y-126316532D01*
X168287778Y-126487795D01*
X168286496Y-126500000D01*
X116468571Y-126500000D01*
X116468571Y-81500498D01*
X132443986Y-81500498D01*
X132444480Y-81504995D01*
X132444481Y-81505000D01*
X132473115Y-81765239D01*
X132473116Y-81765246D01*
X132473612Y-81769751D01*
X132474757Y-81774131D01*
X132474759Y-81774141D01*
X132507028Y-81897571D01*
X132542126Y-82031821D01*
X132543891Y-82035975D01*
X132543894Y-82035983D01*
X132646297Y-82276956D01*
X132648068Y-82281123D01*
X132650424Y-82284984D01*
X132650427Y-82284989D01*
X132786816Y-82508470D01*
X132789180Y-82512343D01*
X132962453Y-82720553D01*
X132965828Y-82723577D01*
X132965829Y-82723578D01*
X133070528Y-82817389D01*
X133164196Y-82901315D01*
X133390108Y-83050777D01*
X133635374Y-83165753D01*
X133894767Y-83243793D01*
X134162759Y-83283233D01*
X134363567Y-83283233D01*
X134365829Y-83283233D01*
X134568354Y-83268410D01*
X134832751Y-83209513D01*
X135085756Y-83112747D01*
X135321975Y-82980174D01*
X135536375Y-82814621D01*
X135724384Y-82619614D01*
X135881997Y-82399312D01*
X136005854Y-82158408D01*
X136093316Y-81902038D01*
X136142517Y-81635666D01*
X136152410Y-81364968D01*
X136122784Y-81095715D01*
X136054270Y-80833645D01*
X135948328Y-80584343D01*
X135807216Y-80353123D01*
X135633943Y-80144913D01*
X135528957Y-80050845D01*
X135435580Y-79967179D01*
X135435576Y-79967175D01*
X135432200Y-79964151D01*
X135206288Y-79814689D01*
X135202194Y-79812769D01*
X135202189Y-79812767D01*
X134965127Y-79701637D01*
X134965123Y-79701635D01*
X134961022Y-79699713D01*
X134956675Y-79698405D01*
X134956672Y-79698404D01*
X134705970Y-79622979D01*
X134705969Y-79622978D01*
X134701629Y-79621673D01*
X134697155Y-79621014D01*
X134697148Y-79621013D01*
X134438111Y-79582891D01*
X134438105Y-79582890D01*
X134433637Y-79582233D01*
X134230567Y-79582233D01*
X134228318Y-79582397D01*
X134228307Y-79582398D01*
X134032561Y-79596725D01*
X134032557Y-79596725D01*
X134028042Y-79597056D01*
X134023624Y-79598040D01*
X134023618Y-79598041D01*
X133768075Y-79654965D01*
X133768059Y-79654969D01*
X133763645Y-79655953D01*
X133759414Y-79657571D01*
X133759408Y-79657573D01*
X133514871Y-79751100D01*
X133514861Y-79751104D01*
X133510640Y-79752719D01*
X133506692Y-79754934D01*
X133506687Y-79754937D01*
X133278374Y-79883073D01*
X133278369Y-79883076D01*
X133274421Y-79885292D01*
X133270837Y-79888058D01*
X133270833Y-79888062D01*
X133063605Y-80048076D01*
X133063592Y-80048087D01*
X133060021Y-80050845D01*
X133056883Y-80054099D01*
X133056876Y-80054106D01*
X132875156Y-80242590D01*
X132875150Y-80242597D01*
X132872012Y-80245852D01*
X132869387Y-80249520D01*
X132869377Y-80249533D01*
X132717032Y-80462473D01*
X132717028Y-80462478D01*
X132714399Y-80466154D01*
X132712330Y-80470177D01*
X132712327Y-80470183D01*
X132592614Y-80703026D01*
X132592609Y-80703037D01*
X132590542Y-80707058D01*
X132589082Y-80711335D01*
X132589077Y-80711349D01*
X132504546Y-80959128D01*
X132504542Y-80959140D01*
X132503080Y-80963428D01*
X132502255Y-80967892D01*
X132502255Y-80967894D01*
X132454702Y-81225339D01*
X132454700Y-81225352D01*
X132453879Y-81229800D01*
X132453713Y-81234326D01*
X132453713Y-81234332D01*
X132448774Y-81369495D01*
X132443986Y-81500498D01*
X116468571Y-81500498D01*
X116468571Y-66794646D01*
X124129500Y-66794646D01*
X124130851Y-66801005D01*
X124130852Y-66801008D01*
X124167503Y-66973440D01*
X124167504Y-66973444D01*
X124168856Y-66979803D01*
X124171499Y-66985740D01*
X124171501Y-66985745D01*
X124176115Y-66996107D01*
X124245849Y-67152730D01*
X124249668Y-67157987D01*
X124249669Y-67157988D01*
X124336476Y-67277469D01*
X124357112Y-67305871D01*
X124361941Y-67310219D01*
X124361942Y-67310220D01*
X124489395Y-67424980D01*
X124497784Y-67432533D01*
X124661716Y-67527179D01*
X124841744Y-67585674D01*
X124982808Y-67600500D01*
X125073950Y-67600500D01*
X125077192Y-67600500D01*
X125218256Y-67585674D01*
X125398284Y-67527179D01*
X125562216Y-67432533D01*
X125702888Y-67305871D01*
X125814151Y-67152730D01*
X125891144Y-66979803D01*
X125930500Y-66794646D01*
X125930500Y-66605354D01*
X125891144Y-66420197D01*
X125814151Y-66247270D01*
X125702888Y-66094129D01*
X125562216Y-65967467D01*
X125398284Y-65872821D01*
X125392107Y-65870814D01*
X125392105Y-65870813D01*
X125224435Y-65816333D01*
X125224428Y-65816331D01*
X125218256Y-65814326D01*
X125211803Y-65813647D01*
X125211795Y-65813646D01*
X125080413Y-65799838D01*
X125080402Y-65799837D01*
X125077192Y-65799500D01*
X124982808Y-65799500D01*
X124979598Y-65799837D01*
X124979586Y-65799838D01*
X124848204Y-65813646D01*
X124848194Y-65813648D01*
X124841744Y-65814326D01*
X124835573Y-65816331D01*
X124835564Y-65816333D01*
X124667894Y-65870813D01*
X124667888Y-65870815D01*
X124661716Y-65872821D01*
X124656094Y-65876066D01*
X124656089Y-65876069D01*
X124503410Y-65964218D01*
X124503404Y-65964222D01*
X124497784Y-65967467D01*
X124492962Y-65971808D01*
X124492956Y-65971813D01*
X124361942Y-66089779D01*
X124361937Y-66089784D01*
X124357112Y-66094129D01*
X124353295Y-66099381D01*
X124353290Y-66099388D01*
X124249669Y-66242011D01*
X124249665Y-66242016D01*
X124245849Y-66247270D01*
X124243207Y-66253202D01*
X124243205Y-66253207D01*
X124171501Y-66414254D01*
X124171498Y-66414262D01*
X124168856Y-66420197D01*
X124167505Y-66426552D01*
X124167503Y-66426559D01*
X124130852Y-66598991D01*
X124129500Y-66605354D01*
X124129500Y-66794646D01*
X116468571Y-66794646D01*
X116468571Y-61794646D01*
X124129500Y-61794646D01*
X124130851Y-61801005D01*
X124130852Y-61801008D01*
X124167503Y-61973440D01*
X124167504Y-61973444D01*
X124168856Y-61979803D01*
X124171499Y-61985740D01*
X124171501Y-61985745D01*
X124240278Y-62140217D01*
X124245849Y-62152730D01*
X124249668Y-62157987D01*
X124249669Y-62157988D01*
X124305174Y-62234385D01*
X124357112Y-62305871D01*
X124497784Y-62432533D01*
X124661716Y-62527179D01*
X124841744Y-62585674D01*
X124982808Y-62600500D01*
X125073950Y-62600500D01*
X125077192Y-62600500D01*
X125218256Y-62585674D01*
X125398284Y-62527179D01*
X125562216Y-62432533D01*
X125702888Y-62305871D01*
X125814151Y-62152730D01*
X125891144Y-61979803D01*
X125917301Y-61856745D01*
X131684978Y-61856745D01*
X131685712Y-61864510D01*
X131685712Y-61864513D01*
X131689148Y-61900860D01*
X131689698Y-61912529D01*
X131689698Y-75644352D01*
X131689166Y-75655635D01*
X131687496Y-75663107D01*
X131687741Y-75670903D01*
X131687741Y-75670905D01*
X131689637Y-75731215D01*
X131689698Y-75735111D01*
X131689698Y-75763054D01*
X131690186Y-75766919D01*
X131690187Y-75766930D01*
X131690217Y-75767168D01*
X131691132Y-75778794D01*
X131692279Y-75815294D01*
X131692280Y-75815301D01*
X131692525Y-75823087D01*
X131694698Y-75830568D01*
X131694700Y-75830578D01*
X131698220Y-75842693D01*
X131702165Y-75861740D01*
X131704724Y-75881995D01*
X131707593Y-75889243D01*
X131707596Y-75889252D01*
X131721036Y-75923199D01*
X131724819Y-75934246D01*
X131737180Y-75976791D01*
X131741151Y-75983506D01*
X131741152Y-75983508D01*
X131747573Y-75994366D01*
X131756128Y-76011829D01*
X131763646Y-76030815D01*
X131768228Y-76037122D01*
X131768229Y-76037123D01*
X131789689Y-76066660D01*
X131796103Y-76076425D01*
X131818656Y-76114560D01*
X131824174Y-76120078D01*
X131833087Y-76128991D01*
X131845723Y-76143786D01*
X131853136Y-76153989D01*
X131853141Y-76153994D01*
X131857726Y-76160305D01*
X131891865Y-76188547D01*
X131900506Y-76196410D01*
X132253378Y-76549282D01*
X132277617Y-76583579D01*
X132289018Y-76624001D01*
X132303955Y-76766121D01*
X132306458Y-76789928D01*
X132308463Y-76796100D01*
X132308465Y-76796107D01*
X132363465Y-76965377D01*
X132365473Y-76971556D01*
X132460960Y-77136944D01*
X132588747Y-77278866D01*
X132593997Y-77282680D01*
X132594000Y-77282683D01*
X132717574Y-77372465D01*
X132743248Y-77391118D01*
X132917712Y-77468794D01*
X132924070Y-77470145D01*
X132924072Y-77470146D01*
X132960874Y-77477968D01*
X133104513Y-77508500D01*
X133288984Y-77508500D01*
X133295487Y-77508500D01*
X133482288Y-77468794D01*
X133656752Y-77391118D01*
X133811253Y-77278866D01*
X133939040Y-77136944D01*
X134034527Y-76971556D01*
X134093542Y-76789928D01*
X134113504Y-76600000D01*
X134093542Y-76410072D01*
X134034527Y-76228444D01*
X133939040Y-76063056D01*
X133811253Y-75921134D01*
X133806003Y-75917319D01*
X133805999Y-75917316D01*
X133662006Y-75812699D01*
X133662004Y-75812697D01*
X133656752Y-75808882D01*
X133650821Y-75806241D01*
X133650817Y-75806239D01*
X133488226Y-75733849D01*
X133488219Y-75733846D01*
X133482288Y-75731206D01*
X133475935Y-75729855D01*
X133475927Y-75729853D01*
X133301849Y-75692852D01*
X133301846Y-75692851D01*
X133295487Y-75691500D01*
X133288984Y-75691500D01*
X133238767Y-75691500D01*
X133191314Y-75682061D01*
X133151086Y-75655181D01*
X132993017Y-75497112D01*
X132966137Y-75456884D01*
X132956698Y-75409431D01*
X132956698Y-62190568D01*
X132966137Y-62143115D01*
X132993017Y-62102887D01*
X135854819Y-59241086D01*
X135904182Y-59210836D01*
X135961898Y-59206294D01*
X136015385Y-59228449D01*
X136052985Y-59272472D01*
X136066500Y-59328767D01*
X136066500Y-78621154D01*
X136065968Y-78632437D01*
X136064298Y-78639909D01*
X136064543Y-78647705D01*
X136064543Y-78647707D01*
X136066439Y-78708017D01*
X136066500Y-78711913D01*
X136066500Y-78739856D01*
X136066988Y-78743721D01*
X136066989Y-78743732D01*
X136067019Y-78743970D01*
X136067934Y-78755596D01*
X136069081Y-78792096D01*
X136069082Y-78792103D01*
X136069327Y-78799889D01*
X136071500Y-78807370D01*
X136071502Y-78807380D01*
X136075022Y-78819495D01*
X136078967Y-78838542D01*
X136081526Y-78858797D01*
X136084395Y-78866045D01*
X136084398Y-78866054D01*
X136097838Y-78900001D01*
X136101621Y-78911048D01*
X136113982Y-78953593D01*
X136117953Y-78960308D01*
X136117954Y-78960310D01*
X136124375Y-78971168D01*
X136132930Y-78988631D01*
X136140448Y-79007617D01*
X136145030Y-79013924D01*
X136145031Y-79013925D01*
X136166491Y-79043462D01*
X136172905Y-79053227D01*
X136195458Y-79091362D01*
X136200975Y-79096879D01*
X136200976Y-79096880D01*
X136209889Y-79105793D01*
X136222525Y-79120588D01*
X136229938Y-79130791D01*
X136229943Y-79130796D01*
X136234528Y-79137107D01*
X136268667Y-79165349D01*
X136277308Y-79173212D01*
X136930181Y-79826085D01*
X136957061Y-79866313D01*
X136966500Y-79913766D01*
X136966500Y-83186234D01*
X136957061Y-83233687D01*
X136930181Y-83273915D01*
X136648914Y-83555181D01*
X136608686Y-83582061D01*
X136561233Y-83591500D01*
X136504513Y-83591500D01*
X136498154Y-83592851D01*
X136498150Y-83592852D01*
X136324072Y-83629853D01*
X136324061Y-83629856D01*
X136317712Y-83631206D01*
X136311782Y-83633845D01*
X136311773Y-83633849D01*
X136149182Y-83706239D01*
X136149174Y-83706243D01*
X136143248Y-83708882D01*
X136137999Y-83712695D01*
X136137993Y-83712699D01*
X135994000Y-83817316D01*
X135993991Y-83817323D01*
X135988747Y-83821134D01*
X135984403Y-83825957D01*
X135984400Y-83825961D01*
X135865307Y-83958228D01*
X135860960Y-83963056D01*
X135857714Y-83968676D01*
X135857711Y-83968682D01*
X135768721Y-84122817D01*
X135768718Y-84122822D01*
X135765473Y-84128444D01*
X135763467Y-84134616D01*
X135763465Y-84134622D01*
X135708465Y-84303892D01*
X135708463Y-84303901D01*
X135706458Y-84310072D01*
X135705780Y-84316522D01*
X135705778Y-84316532D01*
X135688222Y-84483579D01*
X135686496Y-84500000D01*
X135687175Y-84506460D01*
X135705778Y-84683467D01*
X135705779Y-84683475D01*
X135706458Y-84689928D01*
X135708463Y-84696100D01*
X135708465Y-84696107D01*
X135763465Y-84865377D01*
X135765473Y-84871556D01*
X135860960Y-85036944D01*
X135988747Y-85178866D01*
X135993997Y-85182680D01*
X135994000Y-85182683D01*
X136136863Y-85286479D01*
X136143248Y-85291118D01*
X136317712Y-85368794D01*
X136324070Y-85370145D01*
X136324072Y-85370146D01*
X136360874Y-85377968D01*
X136504513Y-85408500D01*
X136688984Y-85408500D01*
X136695487Y-85408500D01*
X136882288Y-85368794D01*
X137056752Y-85291118D01*
X137211253Y-85178866D01*
X137339040Y-85036944D01*
X137434527Y-84871556D01*
X137493542Y-84689928D01*
X137510981Y-84523998D01*
X137522381Y-84483579D01*
X137546618Y-84449284D01*
X137680166Y-84315736D01*
X137735750Y-84283645D01*
X137799938Y-84283645D01*
X137855525Y-84315739D01*
X173394605Y-119854819D01*
X173424855Y-119904182D01*
X173429397Y-119961898D01*
X173407242Y-120015385D01*
X173363219Y-120052985D01*
X173306924Y-120066500D01*
X167301968Y-120066500D01*
X167251533Y-120055780D01*
X167209818Y-120025472D01*
X167184037Y-119980819D01*
X167177889Y-119961898D01*
X167134527Y-119828444D01*
X167039040Y-119663056D01*
X166911253Y-119521134D01*
X166906003Y-119517319D01*
X166905999Y-119517316D01*
X166762006Y-119412699D01*
X166762004Y-119412697D01*
X166756752Y-119408882D01*
X166750821Y-119406241D01*
X166750817Y-119406239D01*
X166588226Y-119333849D01*
X166588219Y-119333846D01*
X166582288Y-119331206D01*
X166575935Y-119329855D01*
X166575927Y-119329853D01*
X166401849Y-119292852D01*
X166401846Y-119292851D01*
X166395487Y-119291500D01*
X166204513Y-119291500D01*
X166198154Y-119292851D01*
X166198150Y-119292852D01*
X166024072Y-119329853D01*
X166024061Y-119329856D01*
X166017712Y-119331206D01*
X166011782Y-119333845D01*
X166011773Y-119333849D01*
X165849182Y-119406239D01*
X165849174Y-119406243D01*
X165843248Y-119408882D01*
X165837999Y-119412695D01*
X165837993Y-119412699D01*
X165694000Y-119517316D01*
X165693991Y-119517323D01*
X165688747Y-119521134D01*
X165684403Y-119525957D01*
X165684400Y-119525961D01*
X165586356Y-119634851D01*
X165560960Y-119663056D01*
X165557714Y-119668676D01*
X165557711Y-119668682D01*
X165468721Y-119822817D01*
X165468718Y-119822822D01*
X165465473Y-119828444D01*
X165463467Y-119834616D01*
X165463465Y-119834622D01*
X165408465Y-120003892D01*
X165408463Y-120003901D01*
X165406458Y-120010072D01*
X165405780Y-120016522D01*
X165405778Y-120016532D01*
X165391256Y-120154711D01*
X165386496Y-120200000D01*
X165387175Y-120206460D01*
X165405778Y-120383467D01*
X165405779Y-120383475D01*
X165406458Y-120389928D01*
X165408463Y-120396100D01*
X165408465Y-120396107D01*
X165460955Y-120557651D01*
X165465473Y-120571556D01*
X165468720Y-120577180D01*
X165468721Y-120577182D01*
X165557296Y-120730599D01*
X165560960Y-120736944D01*
X165688747Y-120878866D01*
X165693997Y-120882680D01*
X165694000Y-120882683D01*
X165817035Y-120972073D01*
X165843248Y-120991118D01*
X166017712Y-121068794D01*
X166024070Y-121070145D01*
X166024072Y-121070146D01*
X166054587Y-121076632D01*
X166204513Y-121108500D01*
X166211016Y-121108500D01*
X166360484Y-121108500D01*
X166406130Y-121117207D01*
X166445363Y-121142104D01*
X166457686Y-121153675D01*
X166460448Y-121156353D01*
X166480230Y-121176135D01*
X166483306Y-121178521D01*
X166483503Y-121178674D01*
X166492383Y-121186259D01*
X166505974Y-121199022D01*
X166524679Y-121216586D01*
X166542565Y-121226418D01*
X166558829Y-121237102D01*
X166568792Y-121244831D01*
X166568795Y-121244833D01*
X166574959Y-121249614D01*
X166582122Y-121252713D01*
X166582123Y-121252714D01*
X166615616Y-121267207D01*
X166626112Y-121272348D01*
X166664940Y-121293695D01*
X166684716Y-121298772D01*
X166703123Y-121305075D01*
X166714691Y-121310081D01*
X166714692Y-121310081D01*
X166721855Y-121313181D01*
X166765621Y-121320112D01*
X166777041Y-121322477D01*
X166819970Y-121333500D01*
X166840385Y-121333500D01*
X166859783Y-121335027D01*
X166879943Y-121338220D01*
X166918476Y-121334577D01*
X166924058Y-121334050D01*
X166935727Y-121333500D01*
X179121154Y-121333500D01*
X179132437Y-121334031D01*
X179139909Y-121335702D01*
X179208017Y-121333560D01*
X179211913Y-121333500D01*
X179235958Y-121333500D01*
X179239856Y-121333500D01*
X179243724Y-121333011D01*
X179243947Y-121332983D01*
X179255608Y-121332064D01*
X179299889Y-121330673D01*
X179319490Y-121324977D01*
X179338541Y-121321032D01*
X179358797Y-121318474D01*
X179392638Y-121305075D01*
X179399993Y-121302163D01*
X179411043Y-121298379D01*
X179453593Y-121286018D01*
X179471165Y-121275625D01*
X179488632Y-121267068D01*
X179507617Y-121259552D01*
X179543475Y-121233498D01*
X179553223Y-121227096D01*
X179591362Y-121204542D01*
X179605793Y-121190110D01*
X179620588Y-121177472D01*
X179637107Y-121165472D01*
X179665360Y-121131318D01*
X179673203Y-121122699D01*
X193251084Y-107544819D01*
X193291313Y-107517939D01*
X193338766Y-107508500D01*
X193388984Y-107508500D01*
X193395487Y-107508500D01*
X193582288Y-107468794D01*
X193756752Y-107391118D01*
X193911253Y-107278866D01*
X193915600Y-107274037D01*
X193920429Y-107269690D01*
X193920978Y-107270299D01*
X193956874Y-107244220D01*
X194007309Y-107233500D01*
X194725636Y-107233500D01*
X194787636Y-107250113D01*
X194833023Y-107295500D01*
X194849636Y-107357500D01*
X194849636Y-107413468D01*
X194850164Y-107417484D01*
X194850165Y-107417488D01*
X194856920Y-107468794D01*
X194867133Y-107546373D01*
X194868179Y-107550278D01*
X194868182Y-107550291D01*
X194882694Y-107604448D01*
X194883746Y-107608373D01*
X194935045Y-107732219D01*
X194939991Y-107738664D01*
X194939993Y-107738668D01*
X195009244Y-107828916D01*
X195016650Y-107838567D01*
X195062037Y-107883954D01*
X195168385Y-107965559D01*
X195292231Y-108016858D01*
X195354231Y-108033471D01*
X195487136Y-108050968D01*
X204795358Y-108050968D01*
X204799411Y-108050968D01*
X204932316Y-108033471D01*
X204994316Y-108016858D01*
X205118162Y-107965559D01*
X205224510Y-107883954D01*
X205269897Y-107838567D01*
X205351502Y-107732219D01*
X205402801Y-107608373D01*
X205419414Y-107546373D01*
X205436911Y-107413468D01*
X205436911Y-105615356D01*
X205419414Y-105482451D01*
X205402801Y-105420451D01*
X205351502Y-105296605D01*
X205269897Y-105190257D01*
X205224510Y-105144870D01*
X205214859Y-105137464D01*
X205124611Y-105068213D01*
X205124607Y-105068211D01*
X205118162Y-105063265D01*
X205110653Y-105060154D01*
X205110652Y-105060154D01*
X204998071Y-105013521D01*
X204998065Y-105013519D01*
X204994316Y-105011966D01*
X204990395Y-105010915D01*
X204990391Y-105010914D01*
X204936234Y-104996402D01*
X204936221Y-104996399D01*
X204932316Y-104995353D01*
X204871367Y-104987329D01*
X204803431Y-104978385D01*
X204803427Y-104978384D01*
X204799411Y-104977856D01*
X204795358Y-104977856D01*
X200321161Y-104977856D01*
X200260995Y-104962281D01*
X200215943Y-104919470D01*
X200197322Y-104860176D01*
X200209810Y-104799294D01*
X200250270Y-104752119D01*
X200252075Y-104750861D01*
X205163872Y-101328276D01*
X205255791Y-101246205D01*
X205294824Y-101201850D01*
X205364544Y-101100243D01*
X205408049Y-100984951D01*
X205422125Y-100927569D01*
X205436911Y-100805233D01*
X205436911Y-98665630D01*
X205419414Y-98532725D01*
X205402801Y-98470725D01*
X205351502Y-98346879D01*
X205269897Y-98240531D01*
X205224510Y-98195144D01*
X205214859Y-98187738D01*
X205124611Y-98118487D01*
X205124607Y-98118485D01*
X205118162Y-98113539D01*
X205110653Y-98110428D01*
X205110652Y-98110428D01*
X204998071Y-98063795D01*
X204998065Y-98063793D01*
X204994316Y-98062240D01*
X204990395Y-98061189D01*
X204990391Y-98061188D01*
X204936234Y-98046676D01*
X204936221Y-98046673D01*
X204932316Y-98045627D01*
X204916436Y-98043536D01*
X204803431Y-98028659D01*
X204803427Y-98028658D01*
X204799411Y-98028130D01*
X195487136Y-98028130D01*
X195483120Y-98028658D01*
X195483115Y-98028659D01*
X195358256Y-98045097D01*
X195358254Y-98045097D01*
X195354231Y-98045627D01*
X195350327Y-98046672D01*
X195350312Y-98046676D01*
X195296155Y-98061188D01*
X195296147Y-98061190D01*
X195292231Y-98062240D01*
X195288485Y-98063791D01*
X195288475Y-98063795D01*
X195175894Y-98110428D01*
X195175890Y-98110430D01*
X195168385Y-98113539D01*
X195161942Y-98118482D01*
X195161935Y-98118487D01*
X195065268Y-98192664D01*
X195065261Y-98192669D01*
X195062037Y-98195144D01*
X195059164Y-98198016D01*
X195059156Y-98198024D01*
X195019530Y-98237650D01*
X195019522Y-98237658D01*
X195016650Y-98240531D01*
X195014175Y-98243755D01*
X195014170Y-98243762D01*
X194939993Y-98340429D01*
X194939988Y-98340436D01*
X194935045Y-98346879D01*
X194931936Y-98354384D01*
X194931934Y-98354388D01*
X194885301Y-98466969D01*
X194885297Y-98466979D01*
X194883746Y-98470725D01*
X194882696Y-98474641D01*
X194882694Y-98474649D01*
X194868182Y-98528806D01*
X194868178Y-98528821D01*
X194867133Y-98532725D01*
X194866603Y-98536748D01*
X194866603Y-98536750D01*
X194860275Y-98584820D01*
X194849636Y-98665630D01*
X194849636Y-100463742D01*
X194867133Y-100596647D01*
X194868179Y-100600552D01*
X194868182Y-100600565D01*
X194882694Y-100654722D01*
X194883746Y-100658647D01*
X194935045Y-100782493D01*
X194939991Y-100788938D01*
X194939993Y-100788942D01*
X195009244Y-100879190D01*
X195016650Y-100888841D01*
X195062037Y-100934228D01*
X195168385Y-101015833D01*
X195292231Y-101067132D01*
X195354231Y-101083745D01*
X195487136Y-101101242D01*
X199886091Y-101101242D01*
X199946093Y-101116726D01*
X199991110Y-101159310D01*
X200009900Y-101218360D01*
X199997770Y-101279129D01*
X199957750Y-101326439D01*
X199803936Y-101435357D01*
X195121737Y-104750861D01*
X195121723Y-104750872D01*
X195118728Y-104752993D01*
X195115998Y-104755462D01*
X195115992Y-104755468D01*
X195030810Y-104832544D01*
X195030801Y-104832553D01*
X195028067Y-104835027D01*
X195025645Y-104837810D01*
X195025638Y-104837818D01*
X194992019Y-104876461D01*
X194992009Y-104876473D01*
X194989586Y-104879259D01*
X194987508Y-104882317D01*
X194987502Y-104882326D01*
X194925052Y-104974268D01*
X194925049Y-104974272D01*
X194920891Y-104980395D01*
X194918299Y-104987322D01*
X194918296Y-104987329D01*
X194891052Y-105060154D01*
X194878052Y-105094903D01*
X194877179Y-105098488D01*
X194877177Y-105098497D01*
X194865194Y-105147750D01*
X194864192Y-105151869D01*
X194863753Y-105155528D01*
X194863752Y-105155535D01*
X194850076Y-105269593D01*
X194849636Y-105273264D01*
X194849636Y-105276960D01*
X194849636Y-105842500D01*
X194833023Y-105904500D01*
X194787636Y-105949887D01*
X194725636Y-105966500D01*
X194007309Y-105966500D01*
X193956874Y-105955780D01*
X193920978Y-105929700D01*
X193920429Y-105930310D01*
X193915598Y-105925960D01*
X193911253Y-105921134D01*
X193906003Y-105917319D01*
X193905999Y-105917316D01*
X193762006Y-105812699D01*
X193762004Y-105812697D01*
X193756752Y-105808882D01*
X193750821Y-105806241D01*
X193750817Y-105806239D01*
X193588226Y-105733849D01*
X193588219Y-105733846D01*
X193582288Y-105731206D01*
X193575935Y-105729855D01*
X193575927Y-105729853D01*
X193401849Y-105692852D01*
X193401846Y-105692851D01*
X193395487Y-105691500D01*
X193204513Y-105691500D01*
X193198154Y-105692851D01*
X193198150Y-105692852D01*
X193024072Y-105729853D01*
X193024061Y-105729856D01*
X193017712Y-105731206D01*
X193011782Y-105733845D01*
X193011773Y-105733849D01*
X192849182Y-105806239D01*
X192849174Y-105806243D01*
X192843248Y-105808882D01*
X192837999Y-105812695D01*
X192837993Y-105812699D01*
X192694000Y-105917316D01*
X192693991Y-105917323D01*
X192688747Y-105921134D01*
X192684403Y-105925957D01*
X192684400Y-105925961D01*
X192586562Y-106034622D01*
X192560960Y-106063056D01*
X192557714Y-106068676D01*
X192557711Y-106068682D01*
X192468721Y-106222817D01*
X192468718Y-106222822D01*
X192465473Y-106228444D01*
X192463467Y-106234616D01*
X192463465Y-106234622D01*
X192408465Y-106403892D01*
X192408463Y-106403901D01*
X192406458Y-106410072D01*
X192405779Y-106416531D01*
X192405779Y-106416532D01*
X192389018Y-106575996D01*
X192377617Y-106616418D01*
X192353378Y-106650715D01*
X179600449Y-119403644D01*
X179552626Y-119433382D01*
X179496583Y-119438902D01*
X179443877Y-119419065D01*
X179405382Y-119377965D01*
X179339040Y-119263056D01*
X179211253Y-119121134D01*
X179206003Y-119117319D01*
X179205999Y-119117316D01*
X179062006Y-119012699D01*
X179062004Y-119012697D01*
X179056752Y-119008882D01*
X179050821Y-119006241D01*
X179050817Y-119006239D01*
X178888226Y-118933849D01*
X178888219Y-118933846D01*
X178882288Y-118931206D01*
X178875935Y-118929855D01*
X178875927Y-118929853D01*
X178701849Y-118892852D01*
X178701846Y-118892851D01*
X178695487Y-118891500D01*
X178504513Y-118891500D01*
X178498154Y-118892851D01*
X178498150Y-118892852D01*
X178324072Y-118929853D01*
X178324061Y-118929856D01*
X178317712Y-118931206D01*
X178311782Y-118933845D01*
X178311773Y-118933849D01*
X178149182Y-119006239D01*
X178149174Y-119006243D01*
X178143248Y-119008882D01*
X178137999Y-119012695D01*
X178137993Y-119012699D01*
X177994000Y-119117316D01*
X177993991Y-119117323D01*
X177988747Y-119121134D01*
X177984402Y-119125958D01*
X177979571Y-119130310D01*
X177979021Y-119129700D01*
X177943126Y-119155780D01*
X177892691Y-119166500D01*
X177578835Y-119166500D01*
X177567560Y-119165968D01*
X177560091Y-119164299D01*
X177552292Y-119164544D01*
X177492001Y-119166439D01*
X177488106Y-119166500D01*
X177460144Y-119166500D01*
X177456290Y-119166986D01*
X177456283Y-119166987D01*
X177456025Y-119167020D01*
X177444403Y-119167934D01*
X177407903Y-119169081D01*
X177407895Y-119169082D01*
X177400110Y-119169327D01*
X177392629Y-119171500D01*
X177392618Y-119171502D01*
X177380505Y-119175022D01*
X177361457Y-119178967D01*
X177348943Y-119180548D01*
X177348942Y-119180548D01*
X177341203Y-119181526D01*
X177333952Y-119184396D01*
X177333947Y-119184398D01*
X177299997Y-119197839D01*
X177288952Y-119201620D01*
X177253902Y-119211803D01*
X177253891Y-119211807D01*
X177246407Y-119213982D01*
X177239694Y-119217951D01*
X177239691Y-119217953D01*
X177228832Y-119224375D01*
X177211370Y-119232929D01*
X177199634Y-119237576D01*
X177199627Y-119237579D01*
X177192383Y-119240448D01*
X177186078Y-119245028D01*
X177179235Y-119248791D01*
X177178833Y-119248059D01*
X177154553Y-119260431D01*
X177116235Y-119266500D01*
X174649456Y-119266500D01*
X174602003Y-119257061D01*
X174561775Y-119230181D01*
X161731595Y-106400000D01*
X188586496Y-106400000D01*
X188587175Y-106406460D01*
X188605778Y-106583467D01*
X188605779Y-106583475D01*
X188606458Y-106589928D01*
X188608463Y-106596100D01*
X188608465Y-106596107D01*
X188663465Y-106765377D01*
X188665473Y-106771556D01*
X188760960Y-106936944D01*
X188888747Y-107078866D01*
X188893997Y-107082680D01*
X188894000Y-107082683D01*
X189036863Y-107186479D01*
X189043248Y-107191118D01*
X189049181Y-107193759D01*
X189049182Y-107193760D01*
X189175753Y-107250113D01*
X189217712Y-107268794D01*
X189224070Y-107270145D01*
X189224072Y-107270146D01*
X189224792Y-107270299D01*
X189404513Y-107308500D01*
X189588984Y-107308500D01*
X189595487Y-107308500D01*
X189782288Y-107268794D01*
X189956752Y-107191118D01*
X190111253Y-107078866D01*
X190239040Y-106936944D01*
X190334527Y-106771556D01*
X190393542Y-106589928D01*
X190413265Y-106402264D01*
X190438611Y-106339222D01*
X190449613Y-106325041D01*
X190467206Y-106284385D01*
X190472341Y-106273900D01*
X190493695Y-106235060D01*
X190498773Y-106215283D01*
X190505078Y-106196869D01*
X190513181Y-106178145D01*
X190520111Y-106134384D01*
X190522481Y-106122943D01*
X190533500Y-106080030D01*
X190533500Y-106059609D01*
X190535027Y-106040212D01*
X190535912Y-106034622D01*
X190538219Y-106020057D01*
X190534049Y-105975950D01*
X190533500Y-105964282D01*
X190533500Y-101279765D01*
X190550113Y-101217765D01*
X190557688Y-101204645D01*
X190634527Y-101071556D01*
X190693542Y-100889928D01*
X190713504Y-100700000D01*
X190693542Y-100510072D01*
X190634527Y-100328444D01*
X190539040Y-100163056D01*
X190411253Y-100021134D01*
X190406003Y-100017319D01*
X190405999Y-100017316D01*
X190262006Y-99912699D01*
X190262004Y-99912697D01*
X190256752Y-99908882D01*
X190250821Y-99906241D01*
X190250817Y-99906239D01*
X190088226Y-99833849D01*
X190088219Y-99833846D01*
X190082288Y-99831206D01*
X190075935Y-99829855D01*
X190075927Y-99829853D01*
X189901849Y-99792852D01*
X189901846Y-99792851D01*
X189895487Y-99791500D01*
X189704513Y-99791500D01*
X189698154Y-99792851D01*
X189698150Y-99792852D01*
X189524072Y-99829853D01*
X189524061Y-99829856D01*
X189517712Y-99831206D01*
X189511782Y-99833845D01*
X189511773Y-99833849D01*
X189349182Y-99906239D01*
X189349174Y-99906243D01*
X189343248Y-99908882D01*
X189337999Y-99912695D01*
X189337993Y-99912699D01*
X189194000Y-100017316D01*
X189193991Y-100017323D01*
X189188747Y-100021134D01*
X189184403Y-100025957D01*
X189184400Y-100025961D01*
X189065307Y-100158228D01*
X189060960Y-100163056D01*
X189057714Y-100168676D01*
X189057711Y-100168682D01*
X188968721Y-100322817D01*
X188968718Y-100322822D01*
X188965473Y-100328444D01*
X188963467Y-100334616D01*
X188963465Y-100334622D01*
X188908465Y-100503892D01*
X188908463Y-100503901D01*
X188906458Y-100510072D01*
X188905780Y-100516522D01*
X188905778Y-100516532D01*
X188891255Y-100654722D01*
X188886496Y-100700000D01*
X188887175Y-100706460D01*
X188905778Y-100883467D01*
X188905779Y-100883475D01*
X188906458Y-100889928D01*
X188908463Y-100896100D01*
X188908465Y-100896107D01*
X188963465Y-101065377D01*
X188965473Y-101071556D01*
X188968720Y-101077180D01*
X188968721Y-101077182D01*
X189050230Y-101218360D01*
X189060960Y-101236944D01*
X189188747Y-101378866D01*
X189194008Y-101382688D01*
X189215386Y-101398221D01*
X189252985Y-101442244D01*
X189266500Y-101498538D01*
X189266500Y-105428957D01*
X189257471Y-105475408D01*
X189231698Y-105515095D01*
X189192935Y-105542237D01*
X189049182Y-105606239D01*
X189049174Y-105606243D01*
X189043248Y-105608882D01*
X189037999Y-105612695D01*
X189037993Y-105612699D01*
X188894000Y-105717316D01*
X188893991Y-105717323D01*
X188888747Y-105721134D01*
X188884403Y-105725957D01*
X188884400Y-105725961D01*
X188765307Y-105858228D01*
X188760960Y-105863056D01*
X188757714Y-105868676D01*
X188757711Y-105868682D01*
X188668721Y-106022817D01*
X188668718Y-106022822D01*
X188665473Y-106028444D01*
X188663467Y-106034616D01*
X188663465Y-106034622D01*
X188608465Y-106203892D01*
X188608463Y-106203901D01*
X188606458Y-106210072D01*
X188605780Y-106216522D01*
X188605778Y-106216532D01*
X188598647Y-106284385D01*
X188586496Y-106400000D01*
X161731595Y-106400000D01*
X152518627Y-97187032D01*
X159613859Y-97187032D01*
X159614353Y-97191529D01*
X159614354Y-97191534D01*
X159642988Y-97451773D01*
X159642989Y-97451780D01*
X159643485Y-97456285D01*
X159644630Y-97460665D01*
X159644632Y-97460675D01*
X159676901Y-97584105D01*
X159711999Y-97718355D01*
X159713764Y-97722509D01*
X159713767Y-97722517D01*
X159776503Y-97870146D01*
X159817941Y-97967657D01*
X159820297Y-97971518D01*
X159820300Y-97971523D01*
X159955261Y-98192664D01*
X159959053Y-98198877D01*
X160132326Y-98407087D01*
X160135701Y-98410111D01*
X160135702Y-98410112D01*
X160272546Y-98532725D01*
X160334069Y-98587849D01*
X160559981Y-98737311D01*
X160805247Y-98852287D01*
X161064640Y-98930327D01*
X161332632Y-98969767D01*
X161533440Y-98969767D01*
X161535702Y-98969767D01*
X161738227Y-98954944D01*
X162002624Y-98896047D01*
X162255629Y-98799281D01*
X162491848Y-98666708D01*
X162706248Y-98501155D01*
X162894257Y-98306148D01*
X163051870Y-98085846D01*
X163175727Y-97844942D01*
X163263189Y-97588572D01*
X163312390Y-97322200D01*
X163322283Y-97051502D01*
X163316616Y-97000000D01*
X165286496Y-97000000D01*
X165287175Y-97006460D01*
X165305778Y-97183467D01*
X165305779Y-97183475D01*
X165306458Y-97189928D01*
X165308463Y-97196100D01*
X165308465Y-97196107D01*
X165347963Y-97317667D01*
X165365473Y-97371556D01*
X165460960Y-97536944D01*
X165588747Y-97678866D01*
X165593997Y-97682680D01*
X165594000Y-97682683D01*
X165648827Y-97722517D01*
X165743248Y-97791118D01*
X165917712Y-97868794D01*
X165924070Y-97870145D01*
X165924072Y-97870146D01*
X165960874Y-97877968D01*
X166104513Y-97908500D01*
X166288984Y-97908500D01*
X166295487Y-97908500D01*
X166482288Y-97868794D01*
X166656752Y-97791118D01*
X166811253Y-97678866D01*
X166939040Y-97536944D01*
X167034527Y-97371556D01*
X167093542Y-97189928D01*
X167113504Y-97000000D01*
X167093542Y-96810072D01*
X167034527Y-96628444D01*
X166939040Y-96463056D01*
X166865349Y-96381214D01*
X166841736Y-96342681D01*
X166833500Y-96298243D01*
X166833500Y-94500000D01*
X195386496Y-94500000D01*
X195387175Y-94506460D01*
X195405778Y-94683467D01*
X195405779Y-94683475D01*
X195406458Y-94689928D01*
X195408463Y-94696100D01*
X195408465Y-94696107D01*
X195456295Y-94843309D01*
X195465473Y-94871556D01*
X195468720Y-94877180D01*
X195468721Y-94877182D01*
X195486802Y-94908500D01*
X195560960Y-95036944D01*
X195688747Y-95178866D01*
X195693997Y-95182680D01*
X195694000Y-95182683D01*
X195812485Y-95268767D01*
X195843248Y-95291118D01*
X195849181Y-95293759D01*
X195849182Y-95293760D01*
X195962263Y-95344107D01*
X196017712Y-95368794D01*
X196024070Y-95370145D01*
X196024072Y-95370146D01*
X196060874Y-95377968D01*
X196204513Y-95408500D01*
X196388984Y-95408500D01*
X196395487Y-95408500D01*
X196582288Y-95368794D01*
X196756752Y-95291118D01*
X196911253Y-95178866D01*
X197039040Y-95036944D01*
X197134527Y-94871556D01*
X197135906Y-94872352D01*
X197156239Y-94843309D01*
X197195928Y-94817531D01*
X197242384Y-94808500D01*
X203255932Y-94808500D01*
X203306366Y-94819219D01*
X203417712Y-94868794D01*
X203424070Y-94870145D01*
X203424072Y-94870146D01*
X203430706Y-94871556D01*
X203604513Y-94908500D01*
X203788984Y-94908500D01*
X203795487Y-94908500D01*
X203982288Y-94868794D01*
X204156752Y-94791118D01*
X204311253Y-94678866D01*
X204439040Y-94536944D01*
X204534527Y-94371556D01*
X204593542Y-94189928D01*
X204613504Y-94000000D01*
X204593542Y-93810072D01*
X204534527Y-93628444D01*
X204439040Y-93463056D01*
X204311253Y-93321134D01*
X204306003Y-93317319D01*
X204305999Y-93317316D01*
X204162006Y-93212699D01*
X204162004Y-93212697D01*
X204156752Y-93208882D01*
X204150821Y-93206241D01*
X204150817Y-93206239D01*
X203988226Y-93133849D01*
X203988219Y-93133846D01*
X203982288Y-93131206D01*
X203975935Y-93129855D01*
X203975927Y-93129853D01*
X203801849Y-93092852D01*
X203801846Y-93092851D01*
X203795487Y-93091500D01*
X203604513Y-93091500D01*
X203598154Y-93092851D01*
X203598150Y-93092852D01*
X203424072Y-93129853D01*
X203424061Y-93129856D01*
X203417712Y-93131206D01*
X203411783Y-93133845D01*
X203411773Y-93133849D01*
X203306367Y-93180780D01*
X203255932Y-93191500D01*
X196891097Y-93191500D01*
X196708904Y-93191500D01*
X196702124Y-93193047D01*
X196702119Y-93193048D01*
X196671144Y-93200118D01*
X196657440Y-93202446D01*
X196625872Y-93206003D01*
X196625868Y-93206003D01*
X196618953Y-93206783D01*
X196582398Y-93219573D01*
X196569047Y-93223419D01*
X196538069Y-93230490D01*
X196538058Y-93230493D01*
X196531280Y-93232041D01*
X196525012Y-93235058D01*
X196525007Y-93235061D01*
X196496387Y-93248843D01*
X196483549Y-93254161D01*
X196453562Y-93264654D01*
X196453550Y-93264659D01*
X196446985Y-93266957D01*
X196441092Y-93270659D01*
X196441083Y-93270664D01*
X196414193Y-93287560D01*
X196402030Y-93294282D01*
X196373411Y-93308065D01*
X196373399Y-93308072D01*
X196367131Y-93311091D01*
X196361690Y-93315429D01*
X196361685Y-93315433D01*
X196336850Y-93335238D01*
X196325515Y-93343281D01*
X196298616Y-93360183D01*
X196298612Y-93360185D01*
X196292719Y-93363889D01*
X196287798Y-93368809D01*
X196287794Y-93368813D01*
X196260407Y-93396200D01*
X196047823Y-93608783D01*
X196010578Y-93634382D01*
X195849178Y-93706241D01*
X195849171Y-93706244D01*
X195843248Y-93708882D01*
X195837999Y-93712695D01*
X195837993Y-93712699D01*
X195694000Y-93817316D01*
X195693991Y-93817323D01*
X195688747Y-93821134D01*
X195684403Y-93825957D01*
X195684400Y-93825961D01*
X195565307Y-93958228D01*
X195560960Y-93963056D01*
X195557714Y-93968676D01*
X195557711Y-93968682D01*
X195468721Y-94122817D01*
X195468718Y-94122822D01*
X195465473Y-94128444D01*
X195463467Y-94134616D01*
X195463465Y-94134622D01*
X195408465Y-94303892D01*
X195408463Y-94303901D01*
X195406458Y-94310072D01*
X195405780Y-94316522D01*
X195405778Y-94316532D01*
X195387778Y-94487795D01*
X195386496Y-94500000D01*
X166833500Y-94500000D01*
X166833500Y-93413766D01*
X166842939Y-93366313D01*
X166869819Y-93326085D01*
X167751085Y-92444819D01*
X167791313Y-92417939D01*
X167838766Y-92408500D01*
X167888984Y-92408500D01*
X167895487Y-92408500D01*
X168082288Y-92368794D01*
X168256752Y-92291118D01*
X168411253Y-92178866D01*
X168539040Y-92036944D01*
X168634527Y-91871556D01*
X168693542Y-91689928D01*
X168713504Y-91500000D01*
X168693542Y-91310072D01*
X168634527Y-91128444D01*
X168539040Y-90963056D01*
X168411253Y-90821134D01*
X168406003Y-90817319D01*
X168405999Y-90817316D01*
X168262006Y-90712699D01*
X168262004Y-90712697D01*
X168256752Y-90708882D01*
X168250821Y-90706241D01*
X168250817Y-90706239D01*
X168088226Y-90633849D01*
X168088219Y-90633846D01*
X168082288Y-90631206D01*
X168075935Y-90629855D01*
X168075927Y-90629853D01*
X167901849Y-90592852D01*
X167901846Y-90592851D01*
X167895487Y-90591500D01*
X167704513Y-90591500D01*
X167698154Y-90592851D01*
X167698150Y-90592852D01*
X167524072Y-90629853D01*
X167524061Y-90629856D01*
X167517712Y-90631206D01*
X167511782Y-90633845D01*
X167511773Y-90633849D01*
X167349182Y-90706239D01*
X167349174Y-90706243D01*
X167343248Y-90708882D01*
X167337999Y-90712695D01*
X167337993Y-90712699D01*
X167194000Y-90817316D01*
X167193991Y-90817323D01*
X167188747Y-90821134D01*
X167184403Y-90825957D01*
X167184400Y-90825961D01*
X167065307Y-90958228D01*
X167060960Y-90963056D01*
X167057714Y-90968676D01*
X167057711Y-90968682D01*
X166968721Y-91122817D01*
X166968718Y-91122822D01*
X166965473Y-91128444D01*
X166963467Y-91134616D01*
X166963465Y-91134622D01*
X166908465Y-91303892D01*
X166908463Y-91303901D01*
X166906458Y-91310072D01*
X166905779Y-91316531D01*
X166905779Y-91316532D01*
X166889018Y-91475996D01*
X166877617Y-91516418D01*
X166853378Y-91550715D01*
X165807793Y-92596300D01*
X165799444Y-92603898D01*
X165792982Y-92608000D01*
X165787641Y-92613686D01*
X165787639Y-92613689D01*
X165746338Y-92657669D01*
X165743633Y-92660461D01*
X165723865Y-92680230D01*
X165721481Y-92683302D01*
X165721478Y-92683306D01*
X165721322Y-92683508D01*
X165713752Y-92692370D01*
X165683414Y-92724679D01*
X165679659Y-92731507D01*
X165679658Y-92731510D01*
X165673579Y-92742567D01*
X165662903Y-92758819D01*
X165655168Y-92768791D01*
X165655160Y-92768802D01*
X165650386Y-92774959D01*
X165647291Y-92782110D01*
X165647288Y-92782116D01*
X165632786Y-92815628D01*
X165627648Y-92826115D01*
X165610065Y-92858098D01*
X165610061Y-92858106D01*
X165606305Y-92864940D01*
X165604366Y-92872491D01*
X165604363Y-92872499D01*
X165601225Y-92884722D01*
X165594926Y-92903119D01*
X165586819Y-92921855D01*
X165585599Y-92929553D01*
X165585598Y-92929559D01*
X165579888Y-92965611D01*
X165577520Y-92977045D01*
X165568438Y-93012417D01*
X165568436Y-93012426D01*
X165566500Y-93019970D01*
X165566500Y-93027766D01*
X165566500Y-93040385D01*
X165564972Y-93059783D01*
X165561780Y-93079943D01*
X165562514Y-93087708D01*
X165562514Y-93087711D01*
X165565950Y-93124058D01*
X165566500Y-93135727D01*
X165566500Y-96298243D01*
X165558264Y-96342681D01*
X165534650Y-96381214D01*
X165460960Y-96463056D01*
X165457714Y-96468676D01*
X165457711Y-96468682D01*
X165368721Y-96622817D01*
X165368718Y-96622822D01*
X165365473Y-96628444D01*
X165363467Y-96634616D01*
X165363465Y-96634622D01*
X165308465Y-96803892D01*
X165308463Y-96803901D01*
X165306458Y-96810072D01*
X165305780Y-96816522D01*
X165305778Y-96816532D01*
X165294813Y-96920866D01*
X165286496Y-97000000D01*
X163316616Y-97000000D01*
X163292657Y-96782249D01*
X163224143Y-96520179D01*
X163118201Y-96270877D01*
X162977089Y-96039657D01*
X162803816Y-95831447D01*
X162698830Y-95737379D01*
X162605453Y-95653713D01*
X162605449Y-95653709D01*
X162602073Y-95650685D01*
X162376161Y-95501223D01*
X162372067Y-95499303D01*
X162372062Y-95499301D01*
X162135000Y-95388171D01*
X162134996Y-95388169D01*
X162130895Y-95386247D01*
X162126548Y-95384939D01*
X162126545Y-95384938D01*
X161875843Y-95309513D01*
X161875842Y-95309512D01*
X161871502Y-95308207D01*
X161867028Y-95307548D01*
X161867021Y-95307547D01*
X161607984Y-95269425D01*
X161607978Y-95269424D01*
X161603510Y-95268767D01*
X161400440Y-95268767D01*
X161398191Y-95268931D01*
X161398180Y-95268932D01*
X161202434Y-95283259D01*
X161202430Y-95283259D01*
X161197915Y-95283590D01*
X161193497Y-95284574D01*
X161193491Y-95284575D01*
X160937948Y-95341499D01*
X160937932Y-95341503D01*
X160933518Y-95342487D01*
X160929287Y-95344105D01*
X160929281Y-95344107D01*
X160684744Y-95437634D01*
X160684734Y-95437638D01*
X160680513Y-95439253D01*
X160676565Y-95441468D01*
X160676560Y-95441471D01*
X160448247Y-95569607D01*
X160448242Y-95569610D01*
X160444294Y-95571826D01*
X160440710Y-95574592D01*
X160440706Y-95574596D01*
X160233478Y-95734610D01*
X160233465Y-95734621D01*
X160229894Y-95737379D01*
X160226756Y-95740633D01*
X160226749Y-95740640D01*
X160045029Y-95929124D01*
X160045023Y-95929131D01*
X160041885Y-95932386D01*
X160039260Y-95936054D01*
X160039250Y-95936067D01*
X159886905Y-96149007D01*
X159886901Y-96149012D01*
X159884272Y-96152688D01*
X159882203Y-96156711D01*
X159882200Y-96156717D01*
X159762487Y-96389560D01*
X159762482Y-96389571D01*
X159760415Y-96393592D01*
X159758955Y-96397869D01*
X159758950Y-96397883D01*
X159674419Y-96645662D01*
X159674415Y-96645674D01*
X159672953Y-96649962D01*
X159672128Y-96654426D01*
X159672128Y-96654428D01*
X159624575Y-96911873D01*
X159624573Y-96911886D01*
X159623752Y-96916334D01*
X159623586Y-96920860D01*
X159623586Y-96920866D01*
X159618647Y-97056029D01*
X159613859Y-97187032D01*
X152518627Y-97187032D01*
X139407796Y-84076201D01*
X150008459Y-84076201D01*
X150008500Y-84076300D01*
X150008617Y-84076584D01*
X150009000Y-84076742D01*
X150009099Y-84076701D01*
X153608901Y-84076701D01*
X153609000Y-84076742D01*
X153609383Y-84076584D01*
X153609404Y-84076534D01*
X168194801Y-84076534D01*
X168194842Y-84076633D01*
X168194959Y-84076917D01*
X168195342Y-84077075D01*
X168195441Y-84077034D01*
X171795243Y-84077034D01*
X171795342Y-84077075D01*
X171795725Y-84076917D01*
X171795842Y-84076633D01*
X171795883Y-84076534D01*
X171795842Y-84076435D01*
X171795842Y-81500498D01*
X186783732Y-81500498D01*
X186784226Y-81504995D01*
X186784227Y-81505000D01*
X186812861Y-81765239D01*
X186812862Y-81765246D01*
X186813358Y-81769751D01*
X186814503Y-81774131D01*
X186814505Y-81774141D01*
X186846774Y-81897571D01*
X186881872Y-82031821D01*
X186883637Y-82035975D01*
X186883640Y-82035983D01*
X186986043Y-82276956D01*
X186987814Y-82281123D01*
X186990170Y-82284984D01*
X186990173Y-82284989D01*
X187126562Y-82508470D01*
X187128926Y-82512343D01*
X187302199Y-82720553D01*
X187305574Y-82723577D01*
X187305575Y-82723578D01*
X187410274Y-82817389D01*
X187503942Y-82901315D01*
X187729854Y-83050777D01*
X187975120Y-83165753D01*
X188234513Y-83243793D01*
X188502505Y-83283233D01*
X188703313Y-83283233D01*
X188705575Y-83283233D01*
X188908100Y-83268410D01*
X189172497Y-83209513D01*
X189425502Y-83112747D01*
X189661721Y-82980174D01*
X189876121Y-82814621D01*
X190064130Y-82619614D01*
X190221743Y-82399312D01*
X190345600Y-82158408D01*
X190433062Y-81902038D01*
X190482263Y-81635666D01*
X190492156Y-81364968D01*
X190462530Y-81095715D01*
X190394016Y-80833645D01*
X190288074Y-80584343D01*
X190146962Y-80353123D01*
X189973689Y-80144913D01*
X189868703Y-80050845D01*
X189775326Y-79967179D01*
X189775322Y-79967175D01*
X189771946Y-79964151D01*
X189546034Y-79814689D01*
X189541940Y-79812769D01*
X189541935Y-79812767D01*
X189304873Y-79701637D01*
X189304869Y-79701635D01*
X189300768Y-79699713D01*
X189296421Y-79698405D01*
X189296418Y-79698404D01*
X189045716Y-79622979D01*
X189045715Y-79622978D01*
X189041375Y-79621673D01*
X189036901Y-79621014D01*
X189036894Y-79621013D01*
X188777857Y-79582891D01*
X188777851Y-79582890D01*
X188773383Y-79582233D01*
X188570313Y-79582233D01*
X188568064Y-79582397D01*
X188568053Y-79582398D01*
X188372307Y-79596725D01*
X188372303Y-79596725D01*
X188367788Y-79597056D01*
X188363370Y-79598040D01*
X188363364Y-79598041D01*
X188107821Y-79654965D01*
X188107805Y-79654969D01*
X188103391Y-79655953D01*
X188099160Y-79657571D01*
X188099154Y-79657573D01*
X187854617Y-79751100D01*
X187854607Y-79751104D01*
X187850386Y-79752719D01*
X187846438Y-79754934D01*
X187846433Y-79754937D01*
X187618120Y-79883073D01*
X187618115Y-79883076D01*
X187614167Y-79885292D01*
X187610583Y-79888058D01*
X187610579Y-79888062D01*
X187403351Y-80048076D01*
X187403338Y-80048087D01*
X187399767Y-80050845D01*
X187396629Y-80054099D01*
X187396622Y-80054106D01*
X187214902Y-80242590D01*
X187214896Y-80242597D01*
X187211758Y-80245852D01*
X187209133Y-80249520D01*
X187209123Y-80249533D01*
X187056778Y-80462473D01*
X187056774Y-80462478D01*
X187054145Y-80466154D01*
X187052076Y-80470177D01*
X187052073Y-80470183D01*
X186932360Y-80703026D01*
X186932355Y-80703037D01*
X186930288Y-80707058D01*
X186928828Y-80711335D01*
X186928823Y-80711349D01*
X186844292Y-80959128D01*
X186844288Y-80959140D01*
X186842826Y-80963428D01*
X186842001Y-80967892D01*
X186842001Y-80967894D01*
X186794448Y-81225339D01*
X186794446Y-81225352D01*
X186793625Y-81229800D01*
X186793459Y-81234326D01*
X186793459Y-81234332D01*
X186788520Y-81369495D01*
X186783732Y-81500498D01*
X171795842Y-81500498D01*
X171795842Y-80876633D01*
X171795883Y-80876534D01*
X171795725Y-80876151D01*
X171795441Y-80876034D01*
X171795342Y-80875993D01*
X171795243Y-80876034D01*
X168195441Y-80876034D01*
X168195342Y-80875993D01*
X168195243Y-80876034D01*
X168194959Y-80876151D01*
X168194801Y-80876534D01*
X168194842Y-80876633D01*
X168194842Y-84076435D01*
X168194801Y-84076534D01*
X153609404Y-84076534D01*
X153609500Y-84076300D01*
X153609541Y-84076201D01*
X153609500Y-84076102D01*
X153609500Y-80876300D01*
X153609541Y-80876201D01*
X153609383Y-80875818D01*
X153609099Y-80875701D01*
X153609000Y-80875660D01*
X153608901Y-80875701D01*
X150009099Y-80875701D01*
X150009000Y-80875660D01*
X150008901Y-80875701D01*
X150008617Y-80875818D01*
X150008459Y-80876201D01*
X150008500Y-80876300D01*
X150008500Y-84076102D01*
X150008459Y-84076201D01*
X139407796Y-84076201D01*
X138719320Y-83387725D01*
X138692440Y-83347497D01*
X138683001Y-83300044D01*
X138683001Y-77384134D01*
X153872126Y-77384134D01*
X153872167Y-77384233D01*
X153872284Y-77384517D01*
X153872667Y-77384675D01*
X153872766Y-77384634D01*
X157472568Y-77384634D01*
X157472667Y-77384675D01*
X157473050Y-77384517D01*
X157473071Y-77384467D01*
X172058467Y-77384467D01*
X172058508Y-77384566D01*
X172058625Y-77384850D01*
X172059008Y-77385008D01*
X172059107Y-77384967D01*
X175658909Y-77384967D01*
X175659008Y-77385008D01*
X175659391Y-77384850D01*
X175659508Y-77384566D01*
X175659549Y-77384467D01*
X175659508Y-77384368D01*
X175659508Y-74184566D01*
X175659549Y-74184467D01*
X175659391Y-74184084D01*
X175659107Y-74183967D01*
X175659008Y-74183926D01*
X175658909Y-74183967D01*
X172059107Y-74183967D01*
X172059008Y-74183926D01*
X172058909Y-74183967D01*
X172058625Y-74184084D01*
X172058467Y-74184467D01*
X172058508Y-74184566D01*
X172058508Y-77384368D01*
X172058467Y-77384467D01*
X157473071Y-77384467D01*
X157473167Y-77384233D01*
X157473208Y-77384134D01*
X157473167Y-77384035D01*
X157473167Y-74184233D01*
X157473208Y-74184134D01*
X157473050Y-74183751D01*
X157472766Y-74183634D01*
X157472667Y-74183593D01*
X157472568Y-74183634D01*
X153872766Y-74183634D01*
X153872667Y-74183593D01*
X153872568Y-74183634D01*
X153872284Y-74183751D01*
X153872126Y-74184134D01*
X153872167Y-74184233D01*
X153872167Y-77384035D01*
X153872126Y-77384134D01*
X138683001Y-77384134D01*
X138683001Y-70692067D01*
X157735793Y-70692067D01*
X157735834Y-70692166D01*
X157735951Y-70692450D01*
X157736334Y-70692608D01*
X157736433Y-70692567D01*
X161336235Y-70692567D01*
X161336334Y-70692608D01*
X161336717Y-70692450D01*
X161336738Y-70692400D01*
X175922134Y-70692400D01*
X175922175Y-70692499D01*
X175922292Y-70692783D01*
X175922675Y-70692941D01*
X175922774Y-70692900D01*
X179522576Y-70692900D01*
X179522675Y-70692941D01*
X179523058Y-70692783D01*
X179523175Y-70692499D01*
X179523216Y-70692400D01*
X179523175Y-70692301D01*
X179523175Y-67492499D01*
X179523216Y-67492400D01*
X179523058Y-67492017D01*
X179522774Y-67491900D01*
X179522675Y-67491859D01*
X179522576Y-67491900D01*
X175922774Y-67491900D01*
X175922675Y-67491859D01*
X175922576Y-67491900D01*
X175922292Y-67492017D01*
X175922134Y-67492400D01*
X175922175Y-67492499D01*
X175922175Y-70692301D01*
X175922134Y-70692400D01*
X161336738Y-70692400D01*
X161336834Y-70692166D01*
X161336875Y-70692067D01*
X161336834Y-70691968D01*
X161336834Y-67492166D01*
X161336875Y-67492067D01*
X161336717Y-67491684D01*
X161336433Y-67491567D01*
X161336334Y-67491526D01*
X161336235Y-67491567D01*
X157736433Y-67491567D01*
X157736334Y-67491526D01*
X157736235Y-67491567D01*
X157735951Y-67491684D01*
X157735793Y-67492067D01*
X157735834Y-67492166D01*
X157735834Y-70691968D01*
X157735793Y-70692067D01*
X138683001Y-70692067D01*
X138683001Y-66800000D01*
X142886496Y-66800000D01*
X142887175Y-66806460D01*
X142905778Y-66983467D01*
X142905779Y-66983475D01*
X142906458Y-66989928D01*
X142908463Y-66996100D01*
X142908465Y-66996107D01*
X142959356Y-67152730D01*
X142965473Y-67171556D01*
X142968720Y-67177180D01*
X142968721Y-67177182D01*
X143042252Y-67304542D01*
X143060960Y-67336944D01*
X143188747Y-67478866D01*
X143193997Y-67482680D01*
X143194000Y-67482683D01*
X143250772Y-67523930D01*
X143343248Y-67591118D01*
X143517712Y-67668794D01*
X143524070Y-67670145D01*
X143524072Y-67670146D01*
X143560874Y-67677968D01*
X143704513Y-67708500D01*
X143888984Y-67708500D01*
X143895487Y-67708500D01*
X144082288Y-67668794D01*
X144256752Y-67591118D01*
X144411253Y-67478866D01*
X144415600Y-67474037D01*
X144420429Y-67469690D01*
X144420978Y-67470299D01*
X144456874Y-67444220D01*
X144507309Y-67433500D01*
X151521154Y-67433500D01*
X151532437Y-67434031D01*
X151539909Y-67435702D01*
X151608017Y-67433560D01*
X151611913Y-67433500D01*
X151635958Y-67433500D01*
X151639856Y-67433500D01*
X151643724Y-67433011D01*
X151643947Y-67432983D01*
X151655608Y-67432064D01*
X151699889Y-67430673D01*
X151719490Y-67424977D01*
X151738541Y-67421032D01*
X151758797Y-67418474D01*
X151790022Y-67406110D01*
X151799993Y-67402163D01*
X151811043Y-67398379D01*
X151853593Y-67386018D01*
X151871165Y-67375625D01*
X151888632Y-67367068D01*
X151907617Y-67359552D01*
X151943475Y-67333498D01*
X151953223Y-67327096D01*
X151991362Y-67304542D01*
X152005793Y-67290110D01*
X152020588Y-67277472D01*
X152037107Y-67265472D01*
X152065360Y-67231318D01*
X152073203Y-67222699D01*
X155295903Y-64000000D01*
X161599459Y-64000000D01*
X161599500Y-64000099D01*
X161599617Y-64000383D01*
X161600000Y-64000541D01*
X161600099Y-64000500D01*
X165199901Y-64000500D01*
X165200000Y-64000541D01*
X165200383Y-64000383D01*
X165200500Y-64000099D01*
X165200541Y-64000000D01*
X165200500Y-63999901D01*
X165200500Y-60800099D01*
X165200541Y-60800000D01*
X165200383Y-60799617D01*
X165200099Y-60799500D01*
X165200000Y-60799459D01*
X165199901Y-60799500D01*
X161600099Y-60799500D01*
X161600000Y-60799459D01*
X161599901Y-60799500D01*
X161599617Y-60799617D01*
X161599459Y-60800000D01*
X161599500Y-60800099D01*
X161599500Y-63999901D01*
X161599459Y-64000000D01*
X155295903Y-64000000D01*
X156692217Y-62603686D01*
X156700552Y-62596102D01*
X156707018Y-62592000D01*
X156753691Y-62542296D01*
X156756308Y-62539595D01*
X156776135Y-62519770D01*
X156778660Y-62516513D01*
X156786251Y-62507624D01*
X156816586Y-62475321D01*
X156826423Y-62457425D01*
X156837096Y-62441177D01*
X156849614Y-62425041D01*
X156867215Y-62384364D01*
X156872350Y-62373884D01*
X156889935Y-62341899D01*
X156889934Y-62341899D01*
X156893695Y-62335060D01*
X156898774Y-62315273D01*
X156905070Y-62296885D01*
X156913181Y-62278145D01*
X156920112Y-62234376D01*
X156922482Y-62222939D01*
X156930794Y-62190568D01*
X156933500Y-62180030D01*
X156933500Y-62159615D01*
X156935027Y-62140217D01*
X156935187Y-62139206D01*
X156938220Y-62120057D01*
X156934050Y-62075942D01*
X156933500Y-62064273D01*
X156933500Y-57713766D01*
X156942939Y-57666313D01*
X156969819Y-57626085D01*
X157287971Y-57307933D01*
X165463126Y-57307933D01*
X165463167Y-57308032D01*
X165463284Y-57308316D01*
X165463667Y-57308474D01*
X165463766Y-57308433D01*
X169063568Y-57308433D01*
X169063667Y-57308474D01*
X169064050Y-57308316D01*
X169064167Y-57308032D01*
X169064208Y-57307933D01*
X169064167Y-57307834D01*
X169064167Y-54108032D01*
X169064208Y-54107933D01*
X169064050Y-54107550D01*
X169063766Y-54107433D01*
X169063667Y-54107392D01*
X169063568Y-54107433D01*
X165463766Y-54107433D01*
X165463667Y-54107392D01*
X165463568Y-54107433D01*
X165463284Y-54107550D01*
X165463126Y-54107933D01*
X165463167Y-54108032D01*
X165463167Y-57307834D01*
X165463126Y-57307933D01*
X157287971Y-57307933D01*
X160488512Y-54107392D01*
X163980037Y-50615866D01*
X169326793Y-50615866D01*
X169326834Y-50615965D01*
X169326951Y-50616249D01*
X169327334Y-50616407D01*
X169327433Y-50616366D01*
X172927235Y-50616366D01*
X172927334Y-50616407D01*
X172927717Y-50616249D01*
X172927834Y-50615965D01*
X172927875Y-50615866D01*
X172927834Y-50615767D01*
X172927834Y-50127431D01*
X186783732Y-50127431D01*
X186784226Y-50131928D01*
X186784227Y-50131933D01*
X186812861Y-50392172D01*
X186812862Y-50392179D01*
X186813358Y-50396684D01*
X186814503Y-50401064D01*
X186814505Y-50401074D01*
X186870760Y-50616249D01*
X186881872Y-50658754D01*
X186883637Y-50662908D01*
X186883640Y-50662916D01*
X186968486Y-50862574D01*
X186987814Y-50908056D01*
X186990170Y-50911917D01*
X186990173Y-50911922D01*
X187126359Y-51135070D01*
X187128926Y-51139276D01*
X187302199Y-51347486D01*
X187305574Y-51350510D01*
X187305575Y-51350511D01*
X187410274Y-51444322D01*
X187503942Y-51528248D01*
X187729854Y-51677710D01*
X187975120Y-51792686D01*
X188234513Y-51870726D01*
X188502505Y-51910166D01*
X188703313Y-51910166D01*
X188705575Y-51910166D01*
X188908100Y-51895343D01*
X189172497Y-51836446D01*
X189425502Y-51739680D01*
X189661721Y-51607107D01*
X189876121Y-51441554D01*
X190064130Y-51246547D01*
X190221743Y-51026245D01*
X190345600Y-50785341D01*
X190433062Y-50528971D01*
X190482263Y-50262599D01*
X190492156Y-49991901D01*
X190462530Y-49722648D01*
X190394016Y-49460578D01*
X190288074Y-49211276D01*
X190146962Y-48980056D01*
X189973689Y-48771846D01*
X189970312Y-48768820D01*
X189775326Y-48594112D01*
X189775322Y-48594108D01*
X189771946Y-48591084D01*
X189546034Y-48441622D01*
X189541940Y-48439702D01*
X189541935Y-48439700D01*
X189304873Y-48328570D01*
X189304869Y-48328568D01*
X189300768Y-48326646D01*
X189296421Y-48325338D01*
X189296418Y-48325337D01*
X189045716Y-48249912D01*
X189045715Y-48249911D01*
X189041375Y-48248606D01*
X189036901Y-48247947D01*
X189036894Y-48247946D01*
X188777857Y-48209824D01*
X188777851Y-48209823D01*
X188773383Y-48209166D01*
X188570313Y-48209166D01*
X188568064Y-48209330D01*
X188568053Y-48209331D01*
X188372307Y-48223658D01*
X188372303Y-48223658D01*
X188367788Y-48223989D01*
X188363370Y-48224973D01*
X188363364Y-48224974D01*
X188107821Y-48281898D01*
X188107805Y-48281902D01*
X188103391Y-48282886D01*
X188099160Y-48284504D01*
X188099154Y-48284506D01*
X187854617Y-48378033D01*
X187854607Y-48378037D01*
X187850386Y-48379652D01*
X187846438Y-48381867D01*
X187846433Y-48381870D01*
X187618120Y-48510006D01*
X187618115Y-48510009D01*
X187614167Y-48512225D01*
X187610583Y-48514991D01*
X187610579Y-48514995D01*
X187403351Y-48675009D01*
X187403338Y-48675020D01*
X187399767Y-48677778D01*
X187396629Y-48681032D01*
X187396622Y-48681039D01*
X187214902Y-48869523D01*
X187214896Y-48869530D01*
X187211758Y-48872785D01*
X187209133Y-48876453D01*
X187209123Y-48876466D01*
X187056778Y-49089406D01*
X187056774Y-49089411D01*
X187054145Y-49093087D01*
X187052076Y-49097110D01*
X187052073Y-49097116D01*
X186932360Y-49329959D01*
X186932355Y-49329970D01*
X186930288Y-49333991D01*
X186928828Y-49338268D01*
X186928823Y-49338282D01*
X186844292Y-49586061D01*
X186844288Y-49586073D01*
X186842826Y-49590361D01*
X186842001Y-49594825D01*
X186842001Y-49594827D01*
X186794448Y-49852272D01*
X186794446Y-49852285D01*
X186793625Y-49856733D01*
X186793459Y-49861259D01*
X186793459Y-49861265D01*
X186785172Y-50088041D01*
X186783732Y-50127431D01*
X172927834Y-50127431D01*
X172927834Y-47415965D01*
X172927875Y-47415866D01*
X172927717Y-47415483D01*
X172927433Y-47415366D01*
X172927334Y-47415325D01*
X172927235Y-47415366D01*
X169327433Y-47415366D01*
X169327334Y-47415325D01*
X169327235Y-47415366D01*
X169326951Y-47415483D01*
X169326793Y-47415866D01*
X169326834Y-47415965D01*
X169326834Y-50615767D01*
X169326793Y-50615866D01*
X163980037Y-50615866D01*
X165392217Y-49203686D01*
X165400552Y-49196102D01*
X165407018Y-49192000D01*
X165453691Y-49142296D01*
X165456308Y-49139595D01*
X165476135Y-49119770D01*
X165478660Y-49116513D01*
X165486251Y-49107624D01*
X165516586Y-49075321D01*
X165526423Y-49057425D01*
X165537096Y-49041177D01*
X165549614Y-49025041D01*
X165567215Y-48984364D01*
X165572350Y-48973884D01*
X165589935Y-48941899D01*
X165589934Y-48941899D01*
X165593695Y-48935060D01*
X165598774Y-48915273D01*
X165605070Y-48896885D01*
X165613181Y-48878145D01*
X165620112Y-48834376D01*
X165622482Y-48822939D01*
X165633500Y-48780030D01*
X165633500Y-48759615D01*
X165635027Y-48740217D01*
X165635065Y-48739972D01*
X165638220Y-48720057D01*
X165634532Y-48681039D01*
X165634050Y-48675942D01*
X165633500Y-48664273D01*
X165633500Y-47401757D01*
X165641736Y-47357319D01*
X165665350Y-47318785D01*
X165739040Y-47236944D01*
X165834527Y-47071556D01*
X165893542Y-46889928D01*
X165913504Y-46700000D01*
X165893542Y-46510072D01*
X165834527Y-46328444D01*
X165739040Y-46163056D01*
X165611253Y-46021134D01*
X165606003Y-46017319D01*
X165605999Y-46017316D01*
X165462006Y-45912699D01*
X165462004Y-45912697D01*
X165456752Y-45908882D01*
X165450821Y-45906241D01*
X165450817Y-45906239D01*
X165288226Y-45833849D01*
X165288219Y-45833846D01*
X165282288Y-45831206D01*
X165275935Y-45829855D01*
X165275927Y-45829853D01*
X165101849Y-45792852D01*
X165101846Y-45792851D01*
X165095487Y-45791500D01*
X164904513Y-45791500D01*
X164898154Y-45792851D01*
X164898150Y-45792852D01*
X164724072Y-45829853D01*
X164724061Y-45829856D01*
X164717712Y-45831206D01*
X164711782Y-45833845D01*
X164711773Y-45833849D01*
X164549182Y-45906239D01*
X164549174Y-45906243D01*
X164543248Y-45908882D01*
X164537999Y-45912695D01*
X164537993Y-45912699D01*
X164394000Y-46017316D01*
X164393991Y-46017323D01*
X164388747Y-46021134D01*
X164384403Y-46025957D01*
X164384400Y-46025961D01*
X164265307Y-46158228D01*
X164260960Y-46163056D01*
X164257714Y-46168676D01*
X164257711Y-46168682D01*
X164168721Y-46322817D01*
X164168718Y-46322822D01*
X164165473Y-46328444D01*
X164163467Y-46334616D01*
X164163465Y-46334622D01*
X164108465Y-46503892D01*
X164108463Y-46503901D01*
X164106458Y-46510072D01*
X164105780Y-46516522D01*
X164105778Y-46516532D01*
X164087778Y-46687795D01*
X164086496Y-46700000D01*
X164087175Y-46706460D01*
X164105778Y-46883467D01*
X164105779Y-46883475D01*
X164106458Y-46889928D01*
X164108463Y-46896100D01*
X164108465Y-46896107D01*
X164163465Y-47065377D01*
X164165473Y-47071556D01*
X164260960Y-47236944D01*
X164334650Y-47318785D01*
X164358264Y-47357319D01*
X164366500Y-47401757D01*
X164366500Y-48386234D01*
X164357061Y-48433687D01*
X164330181Y-48473915D01*
X155907793Y-56896300D01*
X155899444Y-56903898D01*
X155892982Y-56908000D01*
X155887641Y-56913686D01*
X155887639Y-56913689D01*
X155846339Y-56957668D01*
X155843634Y-56960460D01*
X155823865Y-56980230D01*
X155821481Y-56983302D01*
X155821478Y-56983306D01*
X155821322Y-56983508D01*
X155813752Y-56992370D01*
X155783414Y-57024679D01*
X155779659Y-57031507D01*
X155779658Y-57031510D01*
X155773579Y-57042567D01*
X155762903Y-57058819D01*
X155755168Y-57068791D01*
X155755160Y-57068802D01*
X155750386Y-57074959D01*
X155747291Y-57082110D01*
X155747288Y-57082116D01*
X155732786Y-57115628D01*
X155727648Y-57126115D01*
X155710065Y-57158098D01*
X155710061Y-57158106D01*
X155706305Y-57164940D01*
X155704366Y-57172491D01*
X155704363Y-57172499D01*
X155701225Y-57184722D01*
X155694926Y-57203119D01*
X155686819Y-57221855D01*
X155685599Y-57229553D01*
X155685598Y-57229559D01*
X155679888Y-57265611D01*
X155677520Y-57277045D01*
X155668438Y-57312417D01*
X155668436Y-57312426D01*
X155666500Y-57319970D01*
X155666500Y-57327766D01*
X155666500Y-57340385D01*
X155664972Y-57359783D01*
X155661780Y-57379943D01*
X155662514Y-57387708D01*
X155662514Y-57387711D01*
X155665950Y-57424058D01*
X155666500Y-57435727D01*
X155666500Y-61786234D01*
X155657061Y-61833687D01*
X155630181Y-61873915D01*
X151373914Y-66130181D01*
X151333686Y-66157061D01*
X151286233Y-66166500D01*
X144507309Y-66166500D01*
X144456874Y-66155780D01*
X144420978Y-66129700D01*
X144420429Y-66130310D01*
X144415598Y-66125960D01*
X144411253Y-66121134D01*
X144406003Y-66117319D01*
X144405999Y-66117316D01*
X144262006Y-66012699D01*
X144262004Y-66012697D01*
X144256752Y-66008882D01*
X144250821Y-66006241D01*
X144250817Y-66006239D01*
X144088226Y-65933849D01*
X144088219Y-65933846D01*
X144082288Y-65931206D01*
X144075935Y-65929855D01*
X144075927Y-65929853D01*
X143901849Y-65892852D01*
X143901846Y-65892851D01*
X143895487Y-65891500D01*
X143704513Y-65891500D01*
X143698154Y-65892851D01*
X143698150Y-65892852D01*
X143524072Y-65929853D01*
X143524061Y-65929856D01*
X143517712Y-65931206D01*
X143511782Y-65933845D01*
X143511773Y-65933849D01*
X143349182Y-66006239D01*
X143349174Y-66006243D01*
X143343248Y-66008882D01*
X143337999Y-66012695D01*
X143337993Y-66012699D01*
X143194000Y-66117316D01*
X143193991Y-66117323D01*
X143188747Y-66121134D01*
X143184403Y-66125957D01*
X143184400Y-66125961D01*
X143156398Y-66157061D01*
X143060960Y-66263056D01*
X143057714Y-66268676D01*
X143057711Y-66268682D01*
X142968721Y-66422817D01*
X142968718Y-66422822D01*
X142965473Y-66428444D01*
X142963467Y-66434616D01*
X142963465Y-66434622D01*
X142908465Y-66603892D01*
X142908463Y-66603901D01*
X142906458Y-66610072D01*
X142905780Y-66616522D01*
X142905778Y-66616532D01*
X142887778Y-66787795D01*
X142886496Y-66800000D01*
X138683001Y-66800000D01*
X138683001Y-64000000D01*
X143412926Y-64000000D01*
X143412967Y-64000099D01*
X143413084Y-64000383D01*
X143413467Y-64000541D01*
X143413566Y-64000500D01*
X147013368Y-64000500D01*
X147013467Y-64000541D01*
X147013850Y-64000383D01*
X147013967Y-64000099D01*
X147014008Y-64000000D01*
X147013967Y-63999901D01*
X147013967Y-60800099D01*
X147014008Y-60800000D01*
X147013850Y-60799617D01*
X147013566Y-60799500D01*
X147013467Y-60799459D01*
X147013368Y-60799500D01*
X143413566Y-60799500D01*
X143413467Y-60799459D01*
X143413368Y-60799500D01*
X143413084Y-60799617D01*
X143412926Y-60800000D01*
X143412967Y-60800099D01*
X143412967Y-63999901D01*
X143412926Y-64000000D01*
X138683001Y-64000000D01*
X138683001Y-60249004D01*
X138692030Y-60202553D01*
X138717803Y-60162867D01*
X138756565Y-60135724D01*
X138856752Y-60091118D01*
X139011253Y-59978866D01*
X139139040Y-59836944D01*
X139234527Y-59671556D01*
X139293542Y-59489928D01*
X139313504Y-59300000D01*
X139293542Y-59110072D01*
X139234527Y-58928444D01*
X139139040Y-58763056D01*
X139011253Y-58621134D01*
X139006003Y-58617319D01*
X139005999Y-58617316D01*
X138862006Y-58512699D01*
X138862004Y-58512697D01*
X138856752Y-58508882D01*
X138850821Y-58506241D01*
X138850817Y-58506239D01*
X138688226Y-58433849D01*
X138688219Y-58433846D01*
X138682288Y-58431206D01*
X138675935Y-58429855D01*
X138675927Y-58429853D01*
X138501849Y-58392852D01*
X138501846Y-58392851D01*
X138495487Y-58391500D01*
X138304513Y-58391500D01*
X138298154Y-58392851D01*
X138298150Y-58392852D01*
X138124072Y-58429853D01*
X138124061Y-58429856D01*
X138117712Y-58431206D01*
X138111782Y-58433845D01*
X138111773Y-58433849D01*
X137949182Y-58506239D01*
X137949174Y-58506243D01*
X137943248Y-58508882D01*
X137937999Y-58512695D01*
X137937993Y-58512699D01*
X137794000Y-58617316D01*
X137793991Y-58617323D01*
X137788747Y-58621134D01*
X137784403Y-58625957D01*
X137784400Y-58625961D01*
X137665307Y-58758228D01*
X137660960Y-58763056D01*
X137657714Y-58768676D01*
X137657711Y-58768682D01*
X137565473Y-58928444D01*
X137563327Y-58927205D01*
X137528264Y-58969585D01*
X137465282Y-58991516D01*
X137400049Y-58977648D01*
X137351434Y-58931994D01*
X137333500Y-58867760D01*
X137333500Y-58449456D01*
X137342939Y-58402004D01*
X137369816Y-58361777D01*
X137579424Y-58152168D01*
X137587751Y-58144592D01*
X137594220Y-58140488D01*
X137640908Y-58090767D01*
X137643526Y-58088066D01*
X137663337Y-58068257D01*
X137665864Y-58064997D01*
X137673445Y-58056119D01*
X137703788Y-58023809D01*
X137713623Y-58005918D01*
X137724302Y-57989659D01*
X137736816Y-57973528D01*
X137754418Y-57932849D01*
X137759541Y-57922393D01*
X137780897Y-57883548D01*
X137785975Y-57863771D01*
X137792280Y-57845357D01*
X137800383Y-57826633D01*
X137807314Y-57782864D01*
X137809684Y-57771427D01*
X137820702Y-57728518D01*
X137820702Y-57708103D01*
X137822229Y-57688705D01*
X137822267Y-57688460D01*
X137825422Y-57668545D01*
X137821252Y-57624430D01*
X137820702Y-57612761D01*
X137820702Y-57307933D01*
X147276593Y-57307933D01*
X147276634Y-57308032D01*
X147276751Y-57308316D01*
X147277134Y-57308474D01*
X147277233Y-57308433D01*
X150877035Y-57308433D01*
X150877134Y-57308474D01*
X150877517Y-57308316D01*
X150877634Y-57308032D01*
X150877675Y-57307933D01*
X150877634Y-57307834D01*
X150877634Y-54108032D01*
X150877675Y-54107933D01*
X150877517Y-54107550D01*
X150877233Y-54107433D01*
X150877134Y-54107392D01*
X150877035Y-54107433D01*
X147277233Y-54107433D01*
X147277134Y-54107392D01*
X147277035Y-54107433D01*
X147276751Y-54107550D01*
X147276593Y-54107933D01*
X147276634Y-54108032D01*
X147276634Y-57307834D01*
X147276593Y-57307933D01*
X137820702Y-57307933D01*
X137820702Y-55826564D01*
X137830141Y-55779111D01*
X137857021Y-55738883D01*
X142980038Y-50615866D01*
X151140259Y-50615866D01*
X151140300Y-50615965D01*
X151140417Y-50616249D01*
X151140800Y-50616407D01*
X151140899Y-50616366D01*
X154740701Y-50616366D01*
X154740800Y-50616407D01*
X154741183Y-50616249D01*
X154741300Y-50615965D01*
X154741341Y-50615866D01*
X154741300Y-50615767D01*
X154741300Y-47415965D01*
X154741341Y-47415866D01*
X154741183Y-47415483D01*
X154740899Y-47415366D01*
X154740800Y-47415325D01*
X154740701Y-47415366D01*
X151140899Y-47415366D01*
X151140800Y-47415325D01*
X151140701Y-47415366D01*
X151140417Y-47415483D01*
X151140259Y-47415866D01*
X151140300Y-47415965D01*
X151140300Y-50615767D01*
X151140259Y-50615866D01*
X142980038Y-50615866D01*
X152051085Y-41544819D01*
X152091313Y-41517939D01*
X152138766Y-41508500D01*
X152188984Y-41508500D01*
X152195487Y-41508500D01*
X152382288Y-41468794D01*
X152556752Y-41391118D01*
X152711253Y-41278866D01*
X152839040Y-41136944D01*
X152934527Y-40971556D01*
X152993542Y-40789928D01*
X152997885Y-40748600D01*
X153017210Y-40694028D01*
X153059205Y-40654175D01*
X153114716Y-40637732D01*
X153171641Y-40648282D01*
X153217712Y-40668794D01*
X153224070Y-40670145D01*
X153224072Y-40670146D01*
X153260874Y-40677968D01*
X153404513Y-40708500D01*
X153588984Y-40708500D01*
X153595487Y-40708500D01*
X153782288Y-40668794D01*
X153956752Y-40591118D01*
X154111253Y-40478866D01*
X154239040Y-40336944D01*
X154334527Y-40171556D01*
X154393542Y-39989928D01*
X154413504Y-39800000D01*
X154393542Y-39610072D01*
X154334527Y-39428444D01*
X154239040Y-39263056D01*
X154111253Y-39121134D01*
X154106003Y-39117319D01*
X154105999Y-39117316D01*
X153962006Y-39012699D01*
X153962004Y-39012697D01*
X153956752Y-39008882D01*
X153950821Y-39006241D01*
X153950817Y-39006239D01*
X153788226Y-38933849D01*
X153788219Y-38933846D01*
X153782288Y-38931206D01*
X153775935Y-38929855D01*
X153775927Y-38929853D01*
X153601849Y-38892852D01*
X153601846Y-38892851D01*
X153595487Y-38891500D01*
X153404513Y-38891500D01*
X153398154Y-38892851D01*
X153398150Y-38892852D01*
X153224072Y-38929853D01*
X153224061Y-38929856D01*
X153217712Y-38931206D01*
X153211782Y-38933845D01*
X153211773Y-38933849D01*
X153049182Y-39006239D01*
X153049174Y-39006243D01*
X153043248Y-39008882D01*
X153037999Y-39012695D01*
X153037993Y-39012699D01*
X152894000Y-39117316D01*
X152893991Y-39117323D01*
X152888747Y-39121134D01*
X152884402Y-39125958D01*
X152879571Y-39130310D01*
X152879021Y-39129700D01*
X152843126Y-39155780D01*
X152792691Y-39166500D01*
X151954248Y-39166500D01*
X151942964Y-39165968D01*
X151935493Y-39164298D01*
X151927695Y-39164543D01*
X151867385Y-39166439D01*
X151863489Y-39166500D01*
X151835546Y-39166500D01*
X151831679Y-39166988D01*
X151831670Y-39166989D01*
X151831434Y-39167019D01*
X151819808Y-39167934D01*
X151783306Y-39169081D01*
X151783298Y-39169082D01*
X151775513Y-39169327D01*
X151768031Y-39171500D01*
X151768022Y-39171502D01*
X151755908Y-39175022D01*
X151736859Y-39178967D01*
X151724340Y-39180548D01*
X151724334Y-39180549D01*
X151716605Y-39181526D01*
X151709362Y-39184393D01*
X151709356Y-39184395D01*
X151675402Y-39197838D01*
X151664357Y-39201619D01*
X151629304Y-39211803D01*
X151629294Y-39211807D01*
X151621809Y-39213982D01*
X151615096Y-39217951D01*
X151615093Y-39217953D01*
X151604236Y-39224374D01*
X151586772Y-39232929D01*
X151575038Y-39237575D01*
X151575031Y-39237578D01*
X151567785Y-39240448D01*
X151561481Y-39245027D01*
X151561470Y-39245034D01*
X151531936Y-39266491D01*
X151522178Y-39272901D01*
X151490757Y-39291483D01*
X151490743Y-39291493D01*
X151484040Y-39295458D01*
X151478524Y-39300973D01*
X151478521Y-39300976D01*
X151469599Y-39309897D01*
X151454816Y-39322523D01*
X151444608Y-39329940D01*
X151444602Y-39329944D01*
X151438295Y-39334528D01*
X151433328Y-39340530D01*
X151433317Y-39340542D01*
X151410045Y-39368673D01*
X151402185Y-39377311D01*
X136345494Y-54434001D01*
X136337145Y-54441599D01*
X136330683Y-54445701D01*
X136325342Y-54451387D01*
X136325340Y-54451390D01*
X136284040Y-54495369D01*
X136281335Y-54498161D01*
X136261566Y-54517931D01*
X136259182Y-54521003D01*
X136259179Y-54521007D01*
X136259023Y-54521209D01*
X136251453Y-54530071D01*
X136221115Y-54562380D01*
X136217360Y-54569208D01*
X136217359Y-54569211D01*
X136211280Y-54580268D01*
X136200604Y-54596520D01*
X136192869Y-54606492D01*
X136192861Y-54606503D01*
X136188087Y-54612660D01*
X136184992Y-54619811D01*
X136184989Y-54619817D01*
X136170487Y-54653329D01*
X136165349Y-54663816D01*
X136147766Y-54695799D01*
X136147762Y-54695807D01*
X136144006Y-54702641D01*
X136142067Y-54710192D01*
X136142064Y-54710200D01*
X136138926Y-54722423D01*
X136132627Y-54740820D01*
X136124520Y-54759556D01*
X136123300Y-54767254D01*
X136123299Y-54767260D01*
X136117589Y-54803312D01*
X136115221Y-54814746D01*
X136106139Y-54850118D01*
X136106137Y-54850127D01*
X136104201Y-54857671D01*
X136104201Y-54865467D01*
X136104201Y-54878086D01*
X136102673Y-54897484D01*
X136099481Y-54917644D01*
X136100215Y-54925409D01*
X136100215Y-54925412D01*
X136103651Y-54961759D01*
X136104201Y-54973428D01*
X136104201Y-57148533D01*
X136094762Y-57195986D01*
X136067882Y-57236214D01*
X131930991Y-61373102D01*
X131922642Y-61380700D01*
X131916180Y-61384802D01*
X131910839Y-61390488D01*
X131910837Y-61390491D01*
X131869537Y-61434470D01*
X131866832Y-61437262D01*
X131847063Y-61457032D01*
X131844679Y-61460104D01*
X131844676Y-61460108D01*
X131844520Y-61460310D01*
X131836950Y-61469172D01*
X131806612Y-61501481D01*
X131802857Y-61508309D01*
X131802856Y-61508312D01*
X131796777Y-61519369D01*
X131786101Y-61535621D01*
X131778366Y-61545593D01*
X131778358Y-61545604D01*
X131773584Y-61551761D01*
X131770489Y-61558912D01*
X131770486Y-61558918D01*
X131755984Y-61592430D01*
X131750846Y-61602917D01*
X131733263Y-61634900D01*
X131733259Y-61634908D01*
X131729503Y-61641742D01*
X131727564Y-61649293D01*
X131727561Y-61649301D01*
X131724423Y-61661524D01*
X131718124Y-61679921D01*
X131710017Y-61698657D01*
X131708797Y-61706355D01*
X131708796Y-61706361D01*
X131703086Y-61742413D01*
X131700718Y-61753847D01*
X131691636Y-61789219D01*
X131691634Y-61789228D01*
X131689698Y-61796772D01*
X131689698Y-61804568D01*
X131689698Y-61817187D01*
X131688170Y-61836585D01*
X131684978Y-61856745D01*
X125917301Y-61856745D01*
X125930500Y-61794646D01*
X125930500Y-61605354D01*
X125891144Y-61420197D01*
X125814151Y-61247270D01*
X125702888Y-61094129D01*
X125562216Y-60967467D01*
X125398284Y-60872821D01*
X125392107Y-60870814D01*
X125392105Y-60870813D01*
X125224435Y-60816333D01*
X125224428Y-60816331D01*
X125218256Y-60814326D01*
X125211803Y-60813647D01*
X125211795Y-60813646D01*
X125080413Y-60799838D01*
X125080402Y-60799837D01*
X125077192Y-60799500D01*
X124982808Y-60799500D01*
X124979598Y-60799837D01*
X124979586Y-60799838D01*
X124848204Y-60813646D01*
X124848194Y-60813648D01*
X124841744Y-60814326D01*
X124835573Y-60816331D01*
X124835564Y-60816333D01*
X124667894Y-60870813D01*
X124667888Y-60870815D01*
X124661716Y-60872821D01*
X124656094Y-60876066D01*
X124656089Y-60876069D01*
X124503410Y-60964218D01*
X124503404Y-60964222D01*
X124497784Y-60967467D01*
X124492962Y-60971808D01*
X124492956Y-60971813D01*
X124361942Y-61089779D01*
X124361937Y-61089784D01*
X124357112Y-61094129D01*
X124353295Y-61099381D01*
X124353290Y-61099388D01*
X124249669Y-61242011D01*
X124249665Y-61242016D01*
X124245849Y-61247270D01*
X124243207Y-61253202D01*
X124243205Y-61253207D01*
X124171501Y-61414254D01*
X124171498Y-61414262D01*
X124168856Y-61420197D01*
X124167505Y-61426552D01*
X124167503Y-61426559D01*
X124130852Y-61598991D01*
X124129500Y-61605354D01*
X124129500Y-61794646D01*
X116468571Y-61794646D01*
X116468571Y-52337921D01*
X117845619Y-52337921D01*
X117847344Y-52346226D01*
X117847345Y-52346228D01*
X117874681Y-52477777D01*
X117874682Y-52477780D01*
X117876408Y-52486085D01*
X117946029Y-52620447D01*
X117951816Y-52626643D01*
X117951818Y-52626646D01*
X118043529Y-52724844D01*
X118043531Y-52724845D01*
X118049320Y-52731044D01*
X118056566Y-52735450D01*
X118056568Y-52735452D01*
X118171374Y-52805267D01*
X118178618Y-52809672D01*
X118324335Y-52850500D01*
X118433421Y-52850500D01*
X118437658Y-52850500D01*
X118549920Y-52835070D01*
X118688720Y-52774780D01*
X118806108Y-52679278D01*
X118893377Y-52555647D01*
X118944054Y-52413056D01*
X118954381Y-52262079D01*
X118923592Y-52113915D01*
X118853971Y-51979553D01*
X118805496Y-51927649D01*
X118756470Y-51875155D01*
X118756467Y-51875153D01*
X118750680Y-51868956D01*
X118743434Y-51864550D01*
X118743431Y-51864547D01*
X118628625Y-51794732D01*
X118628621Y-51794730D01*
X118621382Y-51790328D01*
X118613220Y-51788041D01*
X118483829Y-51751787D01*
X118483825Y-51751786D01*
X118475665Y-51749500D01*
X118362342Y-51749500D01*
X118358158Y-51750075D01*
X118358144Y-51750076D01*
X118258485Y-51763774D01*
X118258479Y-51763775D01*
X118250080Y-51764930D01*
X118242299Y-51768309D01*
X118242298Y-51768310D01*
X118119062Y-51821839D01*
X118119057Y-51821841D01*
X118111280Y-51825220D01*
X118104702Y-51830571D01*
X118104698Y-51830574D01*
X118000470Y-51915370D01*
X118000468Y-51915371D01*
X117993892Y-51920722D01*
X117989003Y-51927647D01*
X117989002Y-51927649D01*
X117956741Y-51973353D01*
X117906623Y-52044353D01*
X117903785Y-52052337D01*
X117903782Y-52052344D01*
X117858786Y-52178951D01*
X117858784Y-52178955D01*
X117855946Y-52186944D01*
X117855367Y-52195403D01*
X117855367Y-52195405D01*
X117846197Y-52329457D01*
X117846197Y-52329463D01*
X117845619Y-52337921D01*
X116468571Y-52337921D01*
X116468571Y-50637921D01*
X117845619Y-50637921D01*
X117847344Y-50646226D01*
X117847345Y-50646228D01*
X117874681Y-50777777D01*
X117874682Y-50777780D01*
X117876408Y-50786085D01*
X117946029Y-50920447D01*
X117951816Y-50926643D01*
X117951818Y-50926646D01*
X118043529Y-51024844D01*
X118043531Y-51024845D01*
X118049320Y-51031044D01*
X118056566Y-51035450D01*
X118056568Y-51035452D01*
X118171374Y-51105267D01*
X118178618Y-51109672D01*
X118324335Y-51150500D01*
X118433421Y-51150500D01*
X118437658Y-51150500D01*
X118549920Y-51135070D01*
X118688720Y-51074780D01*
X118806108Y-50979278D01*
X118893377Y-50855647D01*
X118944054Y-50713056D01*
X118954381Y-50562079D01*
X118923592Y-50413915D01*
X118853971Y-50279553D01*
X118848181Y-50273353D01*
X118756470Y-50175155D01*
X118756467Y-50175153D01*
X118750680Y-50168956D01*
X118743434Y-50164550D01*
X118743431Y-50164547D01*
X118682396Y-50127431D01*
X132443986Y-50127431D01*
X132444480Y-50131928D01*
X132444481Y-50131933D01*
X132473115Y-50392172D01*
X132473116Y-50392179D01*
X132473612Y-50396684D01*
X132474757Y-50401064D01*
X132474759Y-50401074D01*
X132531014Y-50616249D01*
X132542126Y-50658754D01*
X132543891Y-50662908D01*
X132543894Y-50662916D01*
X132628740Y-50862574D01*
X132648068Y-50908056D01*
X132650424Y-50911917D01*
X132650427Y-50911922D01*
X132786613Y-51135070D01*
X132789180Y-51139276D01*
X132962453Y-51347486D01*
X132965828Y-51350510D01*
X132965829Y-51350511D01*
X133070528Y-51444322D01*
X133164196Y-51528248D01*
X133390108Y-51677710D01*
X133635374Y-51792686D01*
X133894767Y-51870726D01*
X134162759Y-51910166D01*
X134363567Y-51910166D01*
X134365829Y-51910166D01*
X134568354Y-51895343D01*
X134832751Y-51836446D01*
X135085756Y-51739680D01*
X135321975Y-51607107D01*
X135536375Y-51441554D01*
X135724384Y-51246547D01*
X135881997Y-51026245D01*
X136005854Y-50785341D01*
X136093316Y-50528971D01*
X136142517Y-50262599D01*
X136152410Y-49991901D01*
X136122784Y-49722648D01*
X136054270Y-49460578D01*
X135948328Y-49211276D01*
X135807216Y-48980056D01*
X135633943Y-48771846D01*
X135630566Y-48768820D01*
X135435580Y-48594112D01*
X135435576Y-48594108D01*
X135432200Y-48591084D01*
X135206288Y-48441622D01*
X135202194Y-48439702D01*
X135202189Y-48439700D01*
X134965127Y-48328570D01*
X134965123Y-48328568D01*
X134961022Y-48326646D01*
X134956675Y-48325338D01*
X134956672Y-48325337D01*
X134705970Y-48249912D01*
X134705969Y-48249911D01*
X134701629Y-48248606D01*
X134697155Y-48247947D01*
X134697148Y-48247946D01*
X134438111Y-48209824D01*
X134438105Y-48209823D01*
X134433637Y-48209166D01*
X134230567Y-48209166D01*
X134228318Y-48209330D01*
X134228307Y-48209331D01*
X134032561Y-48223658D01*
X134032557Y-48223658D01*
X134028042Y-48223989D01*
X134023624Y-48224973D01*
X134023618Y-48224974D01*
X133768075Y-48281898D01*
X133768059Y-48281902D01*
X133763645Y-48282886D01*
X133759414Y-48284504D01*
X133759408Y-48284506D01*
X133514871Y-48378033D01*
X133514861Y-48378037D01*
X133510640Y-48379652D01*
X133506692Y-48381867D01*
X133506687Y-48381870D01*
X133278374Y-48510006D01*
X133278369Y-48510009D01*
X133274421Y-48512225D01*
X133270837Y-48514991D01*
X133270833Y-48514995D01*
X133063605Y-48675009D01*
X133063592Y-48675020D01*
X133060021Y-48677778D01*
X133056883Y-48681032D01*
X133056876Y-48681039D01*
X132875156Y-48869523D01*
X132875150Y-48869530D01*
X132872012Y-48872785D01*
X132869387Y-48876453D01*
X132869377Y-48876466D01*
X132717032Y-49089406D01*
X132717028Y-49089411D01*
X132714399Y-49093087D01*
X132712330Y-49097110D01*
X132712327Y-49097116D01*
X132592614Y-49329959D01*
X132592609Y-49329970D01*
X132590542Y-49333991D01*
X132589082Y-49338268D01*
X132589077Y-49338282D01*
X132504546Y-49586061D01*
X132504542Y-49586073D01*
X132503080Y-49590361D01*
X132502255Y-49594825D01*
X132502255Y-49594827D01*
X132454702Y-49852272D01*
X132454700Y-49852285D01*
X132453879Y-49856733D01*
X132453713Y-49861259D01*
X132453713Y-49861265D01*
X132445426Y-50088041D01*
X132443986Y-50127431D01*
X118682396Y-50127431D01*
X118628625Y-50094732D01*
X118628621Y-50094730D01*
X118621382Y-50090328D01*
X118613220Y-50088041D01*
X118483829Y-50051787D01*
X118483825Y-50051786D01*
X118475665Y-50049500D01*
X118362342Y-50049500D01*
X118358158Y-50050075D01*
X118358144Y-50050076D01*
X118258485Y-50063774D01*
X118258479Y-50063775D01*
X118250080Y-50064930D01*
X118242299Y-50068309D01*
X118242298Y-50068310D01*
X118119062Y-50121839D01*
X118119057Y-50121841D01*
X118111280Y-50125220D01*
X118104702Y-50130571D01*
X118104698Y-50130574D01*
X118000470Y-50215370D01*
X118000468Y-50215371D01*
X117993892Y-50220722D01*
X117989003Y-50227647D01*
X117989002Y-50227649D01*
X117956741Y-50273353D01*
X117906623Y-50344353D01*
X117903785Y-50352337D01*
X117903782Y-50352344D01*
X117858786Y-50478951D01*
X117858784Y-50478955D01*
X117855946Y-50486944D01*
X117855367Y-50495403D01*
X117855367Y-50495405D01*
X117846197Y-50629457D01*
X117846197Y-50629463D01*
X117845619Y-50637921D01*
X116468571Y-50637921D01*
X116468571Y-38141017D01*
X119537126Y-38141017D01*
X119537451Y-38144897D01*
X119537452Y-38144905D01*
X119560495Y-38419313D01*
X119560822Y-38423207D01*
X119561632Y-38427020D01*
X119561634Y-38427030D01*
X119618887Y-38696388D01*
X119619698Y-38700202D01*
X119620975Y-38703869D01*
X119620977Y-38703876D01*
X119711546Y-38963956D01*
X119711549Y-38963963D01*
X119712827Y-38967633D01*
X119714559Y-38971122D01*
X119818518Y-39180548D01*
X119838740Y-39221284D01*
X119840893Y-39224525D01*
X119840898Y-39224533D01*
X119980481Y-39434622D01*
X119995451Y-39457153D01*
X120180489Y-39671521D01*
X120390936Y-39861007D01*
X120623472Y-40022623D01*
X120874430Y-40153819D01*
X121139853Y-40252528D01*
X121415554Y-40317192D01*
X121697186Y-40346791D01*
X121980307Y-40340858D01*
X122260451Y-40299488D01*
X122533202Y-40223332D01*
X122794257Y-40113592D01*
X122916791Y-40042845D01*
X122916792Y-40042845D01*
X132619647Y-34440898D01*
X159613859Y-34440898D01*
X159614353Y-34445395D01*
X159614354Y-34445400D01*
X159642988Y-34705639D01*
X159642989Y-34705646D01*
X159643485Y-34710151D01*
X159644630Y-34714531D01*
X159644632Y-34714541D01*
X159676901Y-34837971D01*
X159711999Y-34972221D01*
X159713764Y-34976375D01*
X159713767Y-34976383D01*
X159816170Y-35217356D01*
X159817941Y-35221523D01*
X159820297Y-35225384D01*
X159820300Y-35225389D01*
X159956689Y-35448870D01*
X159959053Y-35452743D01*
X160132326Y-35660953D01*
X160135701Y-35663977D01*
X160135702Y-35663978D01*
X160240401Y-35757789D01*
X160334069Y-35841715D01*
X160559981Y-35991177D01*
X160805247Y-36106153D01*
X161064640Y-36184193D01*
X161332632Y-36223633D01*
X161533440Y-36223633D01*
X161535702Y-36223633D01*
X161738227Y-36208810D01*
X162002624Y-36149913D01*
X162255629Y-36053147D01*
X162491848Y-35920574D01*
X162706248Y-35755021D01*
X162894257Y-35560014D01*
X163051870Y-35339712D01*
X163175727Y-35098808D01*
X163263189Y-34842438D01*
X163312390Y-34576066D01*
X163322283Y-34305368D01*
X163292657Y-34036115D01*
X163224143Y-33774045D01*
X163118201Y-33524743D01*
X162977089Y-33293523D01*
X162803816Y-33085313D01*
X162765283Y-33050787D01*
X162605453Y-32907579D01*
X162605449Y-32907575D01*
X162602073Y-32904551D01*
X162376161Y-32755089D01*
X162372067Y-32753169D01*
X162372062Y-32753167D01*
X162135000Y-32642037D01*
X162134996Y-32642035D01*
X162130895Y-32640113D01*
X162126548Y-32638805D01*
X162126545Y-32638804D01*
X161875843Y-32563379D01*
X161875842Y-32563378D01*
X161871502Y-32562073D01*
X161867028Y-32561414D01*
X161867021Y-32561413D01*
X161607984Y-32523291D01*
X161607978Y-32523290D01*
X161603510Y-32522633D01*
X161400440Y-32522633D01*
X161398191Y-32522797D01*
X161398180Y-32522798D01*
X161202434Y-32537125D01*
X161202430Y-32537125D01*
X161197915Y-32537456D01*
X161193497Y-32538440D01*
X161193491Y-32538441D01*
X160937948Y-32595365D01*
X160937932Y-32595369D01*
X160933518Y-32596353D01*
X160929287Y-32597971D01*
X160929281Y-32597973D01*
X160684744Y-32691500D01*
X160684734Y-32691504D01*
X160680513Y-32693119D01*
X160676565Y-32695334D01*
X160676560Y-32695337D01*
X160448247Y-32823473D01*
X160448242Y-32823476D01*
X160444294Y-32825692D01*
X160440710Y-32828458D01*
X160440706Y-32828462D01*
X160233478Y-32988476D01*
X160233465Y-32988487D01*
X160229894Y-32991245D01*
X160226756Y-32994499D01*
X160226749Y-32994506D01*
X160045029Y-33182990D01*
X160045023Y-33182997D01*
X160041885Y-33186252D01*
X160039260Y-33189920D01*
X160039250Y-33189933D01*
X159886905Y-33402873D01*
X159886901Y-33402878D01*
X159884272Y-33406554D01*
X159882203Y-33410577D01*
X159882200Y-33410583D01*
X159762487Y-33643426D01*
X159762482Y-33643437D01*
X159760415Y-33647458D01*
X159758955Y-33651735D01*
X159758950Y-33651749D01*
X159674419Y-33899528D01*
X159674415Y-33899540D01*
X159672953Y-33903828D01*
X159672128Y-33908292D01*
X159672128Y-33908294D01*
X159624575Y-34165739D01*
X159624573Y-34165752D01*
X159623752Y-34170200D01*
X159623586Y-34174726D01*
X159623586Y-34174732D01*
X159618647Y-34309895D01*
X159613859Y-34440898D01*
X132619647Y-34440898D01*
X134608154Y-33292833D01*
X134608225Y-33292803D01*
X134608231Y-33292813D01*
X134730854Y-33222019D01*
X134956419Y-33050809D01*
X135158747Y-32852679D01*
X135334647Y-32630753D01*
X135481345Y-32388530D01*
X135596528Y-32129831D01*
X135678378Y-31858735D01*
X135725606Y-31579519D01*
X135737466Y-31296585D01*
X135737465Y-31296568D01*
X187198727Y-31296568D01*
X187198890Y-31300460D01*
X187198890Y-31300467D01*
X187210420Y-31575608D01*
X187210421Y-31575622D01*
X187210584Y-31579499D01*
X187211231Y-31583327D01*
X187211232Y-31583332D01*
X187234168Y-31718940D01*
X187257808Y-31858713D01*
X187339655Y-32129807D01*
X187454833Y-32388505D01*
X187502190Y-32466703D01*
X187599504Y-32627391D01*
X187599509Y-32627398D01*
X187601525Y-32630727D01*
X187603944Y-32633779D01*
X187756049Y-32825692D01*
X187777420Y-32852655D01*
X187979742Y-33050787D01*
X187982850Y-33053146D01*
X187982851Y-33053147D01*
X188202200Y-33219645D01*
X188202206Y-33219649D01*
X188205302Y-33221999D01*
X188327832Y-33292743D01*
X188327835Y-33292746D01*
X188327846Y-33292752D01*
X188327847Y-33292753D01*
X189386260Y-33903828D01*
X200018831Y-40042544D01*
X200018831Y-40042545D01*
X200019246Y-40042784D01*
X200019262Y-40042797D01*
X200019261Y-40042800D01*
X200141881Y-40113594D01*
X200402933Y-40223329D01*
X200675680Y-40299479D01*
X200955821Y-40340845D01*
X201238937Y-40346775D01*
X201520564Y-40317173D01*
X201796260Y-40252508D01*
X202061677Y-40153800D01*
X202312631Y-40022604D01*
X202545162Y-39860990D01*
X202755604Y-39671506D01*
X202940638Y-39457142D01*
X203097347Y-39221276D01*
X203223258Y-38967630D01*
X203316386Y-38700204D01*
X203375262Y-38423214D01*
X203398958Y-38141029D01*
X203387101Y-37858099D01*
X203339876Y-37578886D01*
X203258030Y-37307794D01*
X203142852Y-37049097D01*
X202996159Y-36806876D01*
X202985406Y-36793309D01*
X202822686Y-36588005D01*
X202822680Y-36587998D01*
X202820264Y-36584950D01*
X202617942Y-36386820D01*
X202614789Y-36384427D01*
X202402735Y-36223467D01*
X202392383Y-36215609D01*
X202389012Y-36213663D01*
X202389005Y-36213658D01*
X202269852Y-36144865D01*
X202269847Y-36144861D01*
X190578533Y-29394877D01*
X190578429Y-29394798D01*
X190578439Y-29394783D01*
X190578323Y-29394716D01*
X190459189Y-29325935D01*
X190459186Y-29325933D01*
X190455818Y-29323989D01*
X190244999Y-29235371D01*
X190198360Y-29215766D01*
X190198357Y-29215765D01*
X190194765Y-29214255D01*
X189922016Y-29138105D01*
X189918180Y-29137538D01*
X189918168Y-29137536D01*
X189645723Y-29097307D01*
X189645717Y-29097306D01*
X189641874Y-29096739D01*
X189637992Y-29096657D01*
X189637984Y-29096657D01*
X189362645Y-29090892D01*
X189362638Y-29090892D01*
X189358757Y-29090811D01*
X189354897Y-29091216D01*
X189354890Y-29091217D01*
X189080993Y-29120006D01*
X189080979Y-29120008D01*
X189077129Y-29120413D01*
X189073350Y-29121299D01*
X189073346Y-29121300D01*
X188805226Y-29184187D01*
X188805209Y-29184191D01*
X188801432Y-29185078D01*
X188797787Y-29186433D01*
X188797779Y-29186436D01*
X188539660Y-29282431D01*
X188539650Y-29282435D01*
X188536013Y-29283788D01*
X188532575Y-29285585D01*
X188532560Y-29285592D01*
X188288516Y-29413177D01*
X188288507Y-29413182D01*
X188285059Y-29414985D01*
X188281871Y-29417200D01*
X188281854Y-29417211D01*
X188055725Y-29574376D01*
X188055711Y-29574386D01*
X188052527Y-29576600D01*
X188049638Y-29579201D01*
X188049632Y-29579206D01*
X187844980Y-29763475D01*
X187844968Y-29763487D01*
X187842084Y-29766084D01*
X187839549Y-29769020D01*
X187839539Y-29769031D01*
X187719154Y-29908500D01*
X187657049Y-29980450D01*
X187654902Y-29983680D01*
X187654897Y-29983688D01*
X187502498Y-30213066D01*
X187502489Y-30213080D01*
X187500340Y-30216316D01*
X187498609Y-30219802D01*
X187498605Y-30219810D01*
X187376162Y-30466471D01*
X187374429Y-30469963D01*
X187373153Y-30473626D01*
X187373148Y-30473639D01*
X187282580Y-30733712D01*
X187282576Y-30733726D01*
X187281300Y-30737391D01*
X187280492Y-30741189D01*
X187280488Y-30741206D01*
X187223235Y-31010558D01*
X187223233Y-31010570D01*
X187222423Y-31014382D01*
X187222096Y-31018273D01*
X187222096Y-31018275D01*
X187199053Y-31292679D01*
X187199052Y-31292688D01*
X187198727Y-31296568D01*
X135737465Y-31296568D01*
X135713771Y-31014395D01*
X135654894Y-30737401D01*
X135561765Y-30469970D01*
X135435853Y-30216320D01*
X135279142Y-29980452D01*
X135094104Y-29766084D01*
X134883658Y-29576599D01*
X134880467Y-29574381D01*
X134880463Y-29574378D01*
X134654322Y-29417206D01*
X134654317Y-29417203D01*
X134651123Y-29414983D01*
X134595390Y-29385847D01*
X134403615Y-29285590D01*
X134403607Y-29285586D01*
X134400165Y-29283787D01*
X134396520Y-29282431D01*
X134396510Y-29282427D01*
X134138398Y-29186438D01*
X134138394Y-29186436D01*
X134134743Y-29185079D01*
X134130951Y-29184189D01*
X134130949Y-29184189D01*
X133862828Y-29121303D01*
X133862813Y-29121300D01*
X133859042Y-29120416D01*
X133855184Y-29120010D01*
X133855175Y-29120009D01*
X133581279Y-29091223D01*
X133581270Y-29091222D01*
X133577411Y-29090817D01*
X133573529Y-29090898D01*
X133573522Y-29090898D01*
X133298178Y-29096668D01*
X133298169Y-29096668D01*
X133294290Y-29096750D01*
X133290459Y-29097315D01*
X133290444Y-29097317D01*
X133017987Y-29137553D01*
X133017975Y-29137555D01*
X133014146Y-29138121D01*
X133010407Y-29139164D01*
X133010402Y-29139166D01*
X132745144Y-29213230D01*
X132745136Y-29213232D01*
X132741396Y-29214277D01*
X132737816Y-29215781D01*
X132737810Y-29215784D01*
X132483933Y-29322507D01*
X132483927Y-29322509D01*
X132480342Y-29324017D01*
X132476980Y-29325957D01*
X132476968Y-29325964D01*
X132357807Y-29394764D01*
X132355866Y-29391403D01*
X132355780Y-29391452D01*
X132357721Y-29394814D01*
X132357288Y-29395063D01*
X132357288Y-29395064D01*
X120666490Y-36144747D01*
X120666368Y-36144797D01*
X120666360Y-36144783D01*
X120666254Y-36144843D01*
X120666247Y-36144847D01*
X120547109Y-36213630D01*
X120547099Y-36213636D01*
X120543738Y-36215577D01*
X120540637Y-36217930D01*
X120540632Y-36217934D01*
X120321281Y-36384427D01*
X120321269Y-36384436D01*
X120318172Y-36386788D01*
X120315396Y-36389506D01*
X120315386Y-36389515D01*
X120118628Y-36582192D01*
X120118622Y-36582198D01*
X120115844Y-36584919D01*
X120113428Y-36587966D01*
X120113420Y-36587976D01*
X119942372Y-36803782D01*
X119942368Y-36803787D01*
X119939944Y-36806846D01*
X119937927Y-36810176D01*
X119937921Y-36810185D01*
X119795266Y-37045733D01*
X119795259Y-37045744D01*
X119793246Y-37049070D01*
X119791662Y-37052626D01*
X119791657Y-37052637D01*
X119679648Y-37304207D01*
X119679643Y-37304219D01*
X119678063Y-37307769D01*
X119676938Y-37311494D01*
X119676935Y-37311503D01*
X119597339Y-37575134D01*
X119597336Y-37575145D01*
X119596213Y-37578866D01*
X119548986Y-37858083D01*
X119548822Y-37861984D01*
X119548822Y-37861989D01*
X119543054Y-37999606D01*
X119537126Y-38141017D01*
X116468571Y-38141017D01*
X116468571Y-33445013D01*
X116485184Y-33383013D01*
X116530571Y-33337626D01*
X116600254Y-33297395D01*
X124136656Y-28946250D01*
X155732746Y-28946250D01*
X155733425Y-28952710D01*
X155752028Y-29129717D01*
X155752029Y-29129725D01*
X155752708Y-29136178D01*
X155754713Y-29142350D01*
X155754715Y-29142357D01*
X155801255Y-29285590D01*
X155811723Y-29317806D01*
X155814970Y-29323430D01*
X155814971Y-29323432D01*
X155869114Y-29417211D01*
X155907210Y-29483194D01*
X156034997Y-29625116D01*
X156040247Y-29628930D01*
X156040250Y-29628933D01*
X156099644Y-29672085D01*
X156189498Y-29737368D01*
X156195431Y-29740009D01*
X156195432Y-29740010D01*
X156301647Y-29787300D01*
X156363962Y-29815044D01*
X156370320Y-29816395D01*
X156370322Y-29816396D01*
X156407124Y-29824218D01*
X156550763Y-29854750D01*
X156735234Y-29854750D01*
X156741737Y-29854750D01*
X156928538Y-29815044D01*
X157103002Y-29737368D01*
X157213367Y-29657182D01*
X157247936Y-29639569D01*
X157286254Y-29633500D01*
X180692691Y-29633500D01*
X180743126Y-29644220D01*
X180779021Y-29670299D01*
X180779571Y-29669690D01*
X180784400Y-29674038D01*
X180788747Y-29678866D01*
X180793997Y-29682680D01*
X180794000Y-29682683D01*
X180872904Y-29740010D01*
X180943248Y-29791118D01*
X180949181Y-29793759D01*
X180949182Y-29793760D01*
X181086168Y-29854750D01*
X181117712Y-29868794D01*
X181124070Y-29870145D01*
X181124072Y-29870146D01*
X181160874Y-29877968D01*
X181304513Y-29908500D01*
X181488984Y-29908500D01*
X181495487Y-29908500D01*
X181682288Y-29868794D01*
X181856752Y-29791118D01*
X182011253Y-29678866D01*
X182139040Y-29536944D01*
X182234527Y-29371556D01*
X182293542Y-29189928D01*
X182313504Y-29000000D01*
X182293542Y-28810072D01*
X182234527Y-28628444D01*
X182139040Y-28463056D01*
X182011253Y-28321134D01*
X182006003Y-28317319D01*
X182005999Y-28317316D01*
X181862006Y-28212699D01*
X181862004Y-28212697D01*
X181856752Y-28208882D01*
X181850821Y-28206241D01*
X181850817Y-28206239D01*
X181688226Y-28133849D01*
X181688219Y-28133846D01*
X181682288Y-28131206D01*
X181675935Y-28129855D01*
X181675927Y-28129853D01*
X181501849Y-28092852D01*
X181501846Y-28092851D01*
X181495487Y-28091500D01*
X181304513Y-28091500D01*
X181298154Y-28092851D01*
X181298150Y-28092852D01*
X181124072Y-28129853D01*
X181124061Y-28129856D01*
X181117712Y-28131206D01*
X181111782Y-28133845D01*
X181111773Y-28133849D01*
X180949182Y-28206239D01*
X180949174Y-28206243D01*
X180943248Y-28208882D01*
X180937999Y-28212695D01*
X180937993Y-28212699D01*
X180794000Y-28317316D01*
X180793991Y-28317323D01*
X180788747Y-28321134D01*
X180784402Y-28325958D01*
X180779571Y-28330310D01*
X180779021Y-28329700D01*
X180743126Y-28355780D01*
X180692691Y-28366500D01*
X157401955Y-28366500D01*
X157351519Y-28355779D01*
X157309805Y-28325472D01*
X157302461Y-28317316D01*
X157257503Y-28267384D01*
X157252253Y-28263569D01*
X157252249Y-28263566D01*
X157108256Y-28158949D01*
X157108254Y-28158947D01*
X157103002Y-28155132D01*
X157097071Y-28152491D01*
X157097067Y-28152489D01*
X156934476Y-28080099D01*
X156934469Y-28080096D01*
X156928538Y-28077456D01*
X156922185Y-28076105D01*
X156922177Y-28076103D01*
X156748099Y-28039102D01*
X156748096Y-28039101D01*
X156741737Y-28037750D01*
X156550763Y-28037750D01*
X156544404Y-28039101D01*
X156544400Y-28039102D01*
X156370322Y-28076103D01*
X156370311Y-28076106D01*
X156363962Y-28077456D01*
X156358032Y-28080095D01*
X156358023Y-28080099D01*
X156195432Y-28152489D01*
X156195424Y-28152493D01*
X156189498Y-28155132D01*
X156184249Y-28158945D01*
X156184243Y-28158949D01*
X156040250Y-28263566D01*
X156040241Y-28263573D01*
X156034997Y-28267384D01*
X156030653Y-28272207D01*
X156030650Y-28272211D01*
X155911557Y-28404478D01*
X155907210Y-28409306D01*
X155903964Y-28414926D01*
X155903961Y-28414932D01*
X155814971Y-28569067D01*
X155814968Y-28569072D01*
X155811723Y-28574694D01*
X155809717Y-28580866D01*
X155809715Y-28580872D01*
X155754715Y-28750142D01*
X155754713Y-28750151D01*
X155752708Y-28756322D01*
X155752030Y-28762772D01*
X155752028Y-28762782D01*
X155734028Y-28934045D01*
X155732746Y-28946250D01*
X124136656Y-28946250D01*
X129953451Y-25587921D01*
X146670619Y-25587921D01*
X146672344Y-25596226D01*
X146672345Y-25596228D01*
X146699681Y-25727777D01*
X146699682Y-25727780D01*
X146701408Y-25736085D01*
X146771029Y-25870447D01*
X146776816Y-25876643D01*
X146776818Y-25876646D01*
X146868529Y-25974844D01*
X146868531Y-25974845D01*
X146874320Y-25981044D01*
X146881566Y-25985450D01*
X146881568Y-25985452D01*
X146996374Y-26055267D01*
X147003618Y-26059672D01*
X147149335Y-26100500D01*
X147258421Y-26100500D01*
X147262658Y-26100500D01*
X147374920Y-26085070D01*
X147513720Y-26024780D01*
X147631108Y-25929278D01*
X147718377Y-25805647D01*
X147769054Y-25663056D01*
X147774193Y-25587921D01*
X148370619Y-25587921D01*
X148372344Y-25596226D01*
X148372345Y-25596228D01*
X148399681Y-25727777D01*
X148399682Y-25727780D01*
X148401408Y-25736085D01*
X148471029Y-25870447D01*
X148476816Y-25876643D01*
X148476818Y-25876646D01*
X148568529Y-25974844D01*
X148568531Y-25974845D01*
X148574320Y-25981044D01*
X148581566Y-25985450D01*
X148581568Y-25985452D01*
X148696374Y-26055267D01*
X148703618Y-26059672D01*
X148849335Y-26100500D01*
X148958421Y-26100500D01*
X148962658Y-26100500D01*
X149074920Y-26085070D01*
X149213720Y-26024780D01*
X149331108Y-25929278D01*
X149418377Y-25805647D01*
X149469054Y-25663056D01*
X149479381Y-25512079D01*
X149448592Y-25363915D01*
X149378971Y-25229553D01*
X149330496Y-25177649D01*
X149281470Y-25125155D01*
X149281467Y-25125153D01*
X149275680Y-25118956D01*
X149268434Y-25114550D01*
X149268431Y-25114547D01*
X149153625Y-25044732D01*
X149153621Y-25044730D01*
X149146382Y-25040328D01*
X149138220Y-25038041D01*
X149008829Y-25001787D01*
X149008825Y-25001786D01*
X149000665Y-24999500D01*
X148887342Y-24999500D01*
X148883158Y-25000075D01*
X148883144Y-25000076D01*
X148783485Y-25013774D01*
X148783479Y-25013775D01*
X148775080Y-25014930D01*
X148767299Y-25018309D01*
X148767298Y-25018310D01*
X148644062Y-25071839D01*
X148644057Y-25071841D01*
X148636280Y-25075220D01*
X148629702Y-25080571D01*
X148629698Y-25080574D01*
X148525470Y-25165370D01*
X148525468Y-25165371D01*
X148518892Y-25170722D01*
X148514003Y-25177647D01*
X148514002Y-25177649D01*
X148481741Y-25223353D01*
X148431623Y-25294353D01*
X148428785Y-25302337D01*
X148428782Y-25302344D01*
X148383786Y-25428951D01*
X148383784Y-25428955D01*
X148380946Y-25436944D01*
X148380367Y-25445403D01*
X148380367Y-25445405D01*
X148371197Y-25579457D01*
X148371197Y-25579463D01*
X148370619Y-25587921D01*
X147774193Y-25587921D01*
X147779381Y-25512079D01*
X147748592Y-25363915D01*
X147678971Y-25229553D01*
X147630496Y-25177649D01*
X147581470Y-25125155D01*
X147581467Y-25125153D01*
X147575680Y-25118956D01*
X147568434Y-25114550D01*
X147568431Y-25114547D01*
X147453625Y-25044732D01*
X147453621Y-25044730D01*
X147446382Y-25040328D01*
X147438220Y-25038041D01*
X147308829Y-25001787D01*
X147308825Y-25001786D01*
X147300665Y-24999500D01*
X147187342Y-24999500D01*
X147183158Y-25000075D01*
X147183144Y-25000076D01*
X147083485Y-25013774D01*
X147083479Y-25013775D01*
X147075080Y-25014930D01*
X147067299Y-25018309D01*
X147067298Y-25018310D01*
X146944062Y-25071839D01*
X146944057Y-25071841D01*
X146936280Y-25075220D01*
X146929702Y-25080571D01*
X146929698Y-25080574D01*
X146825470Y-25165370D01*
X146825468Y-25165371D01*
X146818892Y-25170722D01*
X146814003Y-25177647D01*
X146814002Y-25177649D01*
X146781741Y-25223353D01*
X146731623Y-25294353D01*
X146728785Y-25302337D01*
X146728782Y-25302344D01*
X146683786Y-25428951D01*
X146683784Y-25428955D01*
X146680946Y-25436944D01*
X146680367Y-25445403D01*
X146680367Y-25445405D01*
X146671197Y-25579457D01*
X146671197Y-25579463D01*
X146670619Y-25587921D01*
X129953451Y-25587921D01*
X132027886Y-24390245D01*
X132089886Y-24373633D01*
X190846254Y-24373633D01*
X190908253Y-24390245D01*
G37*
%TD.AperFunction*%
%TD*%
%TA.AperFunction,Conductor*%
%TO.N,/pad_R*%
G36*
X204856478Y-119731586D02*
G01*
X204905365Y-119777255D01*
X204923411Y-119841674D01*
X204923411Y-122181764D01*
X204908675Y-122240392D01*
X204867971Y-122285087D01*
X201161471Y-124744535D01*
X201161468Y-124744537D01*
X201148687Y-124753019D01*
X201148687Y-125811358D01*
X204799411Y-125811358D01*
X204861411Y-125827971D01*
X204906798Y-125873358D01*
X204923411Y-125935358D01*
X204923411Y-127980408D01*
X204906798Y-128042408D01*
X204861411Y-128087795D01*
X204799411Y-128104408D01*
X195487136Y-128104408D01*
X195425136Y-128087795D01*
X195379749Y-128042408D01*
X195363136Y-127980408D01*
X195363136Y-125846637D01*
X196985908Y-125846637D01*
X197002234Y-125846637D01*
X199615414Y-125846637D01*
X199631740Y-125846637D01*
X199631740Y-123916278D01*
X199640975Y-123869319D01*
X199662266Y-123837004D01*
X199662569Y-123835803D01*
X199667024Y-123835803D01*
X199663716Y-123644116D01*
X199659582Y-123553492D01*
X199653794Y-123466485D01*
X199646353Y-123383199D01*
X199637258Y-123303738D01*
X199626509Y-123228204D01*
X199614106Y-123156701D01*
X199600050Y-123089332D01*
X199584340Y-123026201D01*
X199566977Y-122967410D01*
X199547959Y-122913064D01*
X199527288Y-122863265D01*
X199504964Y-122818116D01*
X199480986Y-122777722D01*
X199455814Y-122742824D01*
X199454909Y-122741552D01*
X199442572Y-122723980D01*
X199441711Y-122722753D01*
X199427242Y-122704134D01*
X199411946Y-122686317D01*
X199395823Y-122669287D01*
X199378874Y-122653033D01*
X199361097Y-122637540D01*
X199342493Y-122622798D01*
X199341360Y-122621981D01*
X199324168Y-122609587D01*
X199324150Y-122609574D01*
X199323063Y-122608791D01*
X199302806Y-122595508D01*
X199301669Y-122594830D01*
X199301645Y-122594815D01*
X199282841Y-122583603D01*
X199282832Y-122583598D01*
X199281722Y-122582936D01*
X199280600Y-122582327D01*
X199280586Y-122582320D01*
X199260860Y-122571630D01*
X199260841Y-122571620D01*
X199259811Y-122571062D01*
X199258775Y-122570552D01*
X199258738Y-122570533D01*
X199238090Y-122560372D01*
X199238088Y-122560371D01*
X199237074Y-122559872D01*
X199213509Y-122549354D01*
X199212516Y-122548952D01*
X199212484Y-122548939D01*
X199190059Y-122539875D01*
X199190040Y-122539868D01*
X199189118Y-122539495D01*
X199186693Y-122538609D01*
X199164818Y-122530617D01*
X199164796Y-122530609D01*
X199163900Y-122530282D01*
X199163003Y-122529986D01*
X199162970Y-122529975D01*
X199139174Y-122522135D01*
X199139150Y-122522127D01*
X199137855Y-122521701D01*
X199136529Y-122521329D01*
X199136503Y-122521321D01*
X199084901Y-122506842D01*
X199084876Y-122506835D01*
X199083284Y-122506389D01*
X199081668Y-122506028D01*
X199081649Y-122506023D01*
X199026836Y-122493772D01*
X199026820Y-122493768D01*
X199025407Y-122493453D01*
X199013580Y-122491392D01*
X198965486Y-122483011D01*
X198965473Y-122483009D01*
X198964222Y-122482791D01*
X198962981Y-122482627D01*
X198962951Y-122482623D01*
X198900843Y-122474446D01*
X198900814Y-122474442D01*
X198899730Y-122474300D01*
X198898621Y-122474194D01*
X198898613Y-122474194D01*
X198832918Y-122467968D01*
X198832879Y-122467964D01*
X198831930Y-122467875D01*
X198830967Y-122467814D01*
X198830947Y-122467813D01*
X198761639Y-122463465D01*
X198761629Y-122463464D01*
X198760824Y-122463414D01*
X198760036Y-122463386D01*
X198759986Y-122463384D01*
X198687178Y-122460839D01*
X198687106Y-122460837D01*
X198686410Y-122460813D01*
X198685740Y-122460805D01*
X198685666Y-122460804D01*
X198608929Y-122459971D01*
X198608842Y-122459970D01*
X198608690Y-122459969D01*
X198608430Y-122459969D01*
X197938997Y-122459969D01*
X197938412Y-122459969D01*
X197937862Y-122459979D01*
X197937809Y-122459980D01*
X197874772Y-122461185D01*
X197874733Y-122461186D01*
X197873506Y-122461210D01*
X197872262Y-122461284D01*
X197872240Y-122461285D01*
X197812461Y-122464847D01*
X197812425Y-122464849D01*
X197811081Y-122464930D01*
X197809759Y-122465066D01*
X197809719Y-122465070D01*
X197752576Y-122470982D01*
X197751136Y-122471131D01*
X197749723Y-122471344D01*
X197749703Y-122471347D01*
X197695210Y-122479579D01*
X197695184Y-122479583D01*
X197693672Y-122479812D01*
X197692166Y-122480117D01*
X197692153Y-122480120D01*
X197640313Y-122490643D01*
X197640300Y-122490645D01*
X197638689Y-122490973D01*
X197637087Y-122491389D01*
X197637075Y-122491392D01*
X197587926Y-122504162D01*
X197587905Y-122504167D01*
X197586185Y-122504615D01*
X197584489Y-122505161D01*
X197584474Y-122505166D01*
X197537963Y-122520157D01*
X197537938Y-122520165D01*
X197536163Y-122520738D01*
X197534430Y-122521415D01*
X197534405Y-122521425D01*
X197490489Y-122538609D01*
X197490470Y-122538616D01*
X197488620Y-122539341D01*
X197486828Y-122540179D01*
X197486794Y-122540194D01*
X197445469Y-122559529D01*
X197445447Y-122559539D01*
X197443558Y-122560424D01*
X197441724Y-122561438D01*
X197441712Y-122561445D01*
X197402900Y-122582923D01*
X197402882Y-122582933D01*
X197400977Y-122583988D01*
X197399145Y-122585177D01*
X197399138Y-122585182D01*
X197362754Y-122608812D01*
X197360876Y-122610032D01*
X197359111Y-122611369D01*
X197359090Y-122611385D01*
X197325079Y-122637174D01*
X197325066Y-122637183D01*
X197323256Y-122638557D01*
X197321556Y-122640056D01*
X197321540Y-122640070D01*
X197289857Y-122668025D01*
X197289842Y-122668038D01*
X197288115Y-122669563D01*
X197286507Y-122671211D01*
X197286493Y-122671225D01*
X197257071Y-122701392D01*
X197257057Y-122701407D01*
X197255456Y-122703049D01*
X197253975Y-122704813D01*
X197253965Y-122704825D01*
X197226741Y-122737269D01*
X197226729Y-122737283D01*
X197225276Y-122739016D01*
X197223959Y-122740843D01*
X197223945Y-122740862D01*
X197198830Y-122775723D01*
X197198813Y-122775747D01*
X197197577Y-122777464D01*
X197196463Y-122779259D01*
X197196445Y-122779288D01*
X197172974Y-122817154D01*
X197172961Y-122817176D01*
X197171946Y-122818814D01*
X197171025Y-122820531D01*
X197171020Y-122820540D01*
X197148825Y-122861924D01*
X197148804Y-122861965D01*
X197147969Y-122863523D01*
X197147219Y-122865139D01*
X197147210Y-122865158D01*
X197126344Y-122910135D01*
X197126335Y-122910153D01*
X197125645Y-122911643D01*
X197125038Y-122913155D01*
X197125027Y-122913183D01*
X197111694Y-122946455D01*
X197104974Y-122963225D01*
X197104487Y-122964633D01*
X197104472Y-122964676D01*
X197086417Y-123016986D01*
X197086406Y-123017017D01*
X197085957Y-123018321D01*
X197085559Y-123019663D01*
X197085554Y-123019681D01*
X197068962Y-123075732D01*
X197068949Y-123075777D01*
X197068593Y-123076982D01*
X197068283Y-123078208D01*
X197068278Y-123078229D01*
X197053166Y-123138135D01*
X197053153Y-123138186D01*
X197052883Y-123139261D01*
X197052643Y-123140383D01*
X197052639Y-123140404D01*
X197039048Y-123204167D01*
X197039036Y-123204227D01*
X197038827Y-123205209D01*
X197038643Y-123206240D01*
X197038638Y-123206268D01*
X197026598Y-123273895D01*
X197026589Y-123273948D01*
X197026424Y-123274877D01*
X197026292Y-123275774D01*
X197026282Y-123275840D01*
X197015794Y-123347499D01*
X197015786Y-123347558D01*
X197015675Y-123348318D01*
X197015580Y-123349119D01*
X197015579Y-123349132D01*
X197011569Y-123383199D01*
X197006579Y-123425583D01*
X197006516Y-123426268D01*
X197006508Y-123426346D01*
X196999203Y-123506004D01*
X196999196Y-123506087D01*
X196999138Y-123506724D01*
X196999091Y-123507404D01*
X196999088Y-123507451D01*
X196993393Y-123591153D01*
X196993390Y-123591203D01*
X196993350Y-123591793D01*
X196989215Y-123680841D01*
X196986734Y-123773920D01*
X196986730Y-123774304D01*
X196986729Y-123774399D01*
X196985923Y-123869319D01*
X196985908Y-123871082D01*
X196985908Y-125846637D01*
X195363136Y-125846637D01*
X195363136Y-123836691D01*
X195363149Y-123834889D01*
X195365396Y-123680279D01*
X195369789Y-123378036D01*
X195369916Y-123373958D01*
X195390031Y-122951269D01*
X195390351Y-122946504D01*
X195424344Y-122556092D01*
X195424787Y-122551865D01*
X195425093Y-122549354D01*
X195446926Y-122370095D01*
X195447347Y-122366976D01*
X195462102Y-122267204D01*
X195473131Y-122192627D01*
X195473676Y-122189269D01*
X195503038Y-122023057D01*
X195503734Y-122019442D01*
X195536691Y-121861349D01*
X195537589Y-121857373D01*
X195574168Y-121707313D01*
X195575295Y-121703035D01*
X195615468Y-121561097D01*
X195616919Y-121556341D01*
X195637960Y-121491982D01*
X195660684Y-121422472D01*
X195662468Y-121417394D01*
X195709855Y-121291426D01*
X195712056Y-121285976D01*
X195763003Y-121167969D01*
X195765692Y-121162157D01*
X195819906Y-121052571D01*
X195823841Y-121045248D01*
X195851128Y-120998314D01*
X195852995Y-120995209D01*
X195882383Y-120947899D01*
X195884370Y-120944803D01*
X195914725Y-120899085D01*
X195916841Y-120896006D01*
X195948104Y-120851975D01*
X195950378Y-120848879D01*
X195982553Y-120806527D01*
X195985013Y-120803397D01*
X196018127Y-120762688D01*
X196020753Y-120759570D01*
X196054770Y-120720546D01*
X196057608Y-120717402D01*
X196092565Y-120680013D01*
X196095603Y-120676880D01*
X196131490Y-120641136D01*
X196134697Y-120638056D01*
X196171589Y-120603883D01*
X196174902Y-120600925D01*
X196212866Y-120568267D01*
X196216309Y-120565415D01*
X196255280Y-120534335D01*
X196258916Y-120531546D01*
X196298902Y-120502036D01*
X196302651Y-120499375D01*
X196343758Y-120471365D01*
X196347614Y-120468844D01*
X196389807Y-120442363D01*
X196393770Y-120439977D01*
X196437113Y-120414994D01*
X196441148Y-120412769D01*
X196485668Y-120389279D01*
X196489737Y-120387227D01*
X196535476Y-120365217D01*
X196539582Y-120363334D01*
X196586562Y-120342808D01*
X196590686Y-120341094D01*
X196638958Y-120322043D01*
X196643026Y-120320519D01*
X196692677Y-120302926D01*
X196696628Y-120301602D01*
X196747705Y-120285468D01*
X196751603Y-120284310D01*
X196803965Y-120269696D01*
X196807868Y-120268675D01*
X196861641Y-120255558D01*
X196865478Y-120254687D01*
X196920628Y-120243087D01*
X196924379Y-120242358D01*
X196981045Y-120232261D01*
X196984621Y-120231679D01*
X197042775Y-120223105D01*
X197046253Y-120222644D01*
X197105938Y-120215601D01*
X197109288Y-120215254D01*
X197170389Y-120209768D01*
X197173670Y-120209517D01*
X197235620Y-120205630D01*
X197240298Y-120205427D01*
X197368111Y-120202320D01*
X197372443Y-120202215D01*
X197375456Y-120202178D01*
X199065836Y-120202178D01*
X199068777Y-120202213D01*
X199168441Y-120204577D01*
X199174520Y-120204871D01*
X199269260Y-120211799D01*
X199275566Y-120212424D01*
X199366850Y-120223856D01*
X199373430Y-120224861D01*
X199461338Y-120240704D01*
X199468089Y-120242116D01*
X199472164Y-120243087D01*
X199552753Y-120262291D01*
X199559588Y-120264128D01*
X199641181Y-120288582D01*
X199648016Y-120290850D01*
X199726603Y-120319507D01*
X199733426Y-120322227D01*
X199809155Y-120355052D01*
X199815854Y-120358197D01*
X199888826Y-120395145D01*
X199895318Y-120398678D01*
X199965733Y-120439778D01*
X199971922Y-120443640D01*
X200013616Y-120471399D01*
X200039838Y-120488857D01*
X200045712Y-120493019D01*
X200111255Y-120542377D01*
X200116731Y-120546749D01*
X200140444Y-120566809D01*
X200179990Y-120600263D01*
X200185065Y-120604801D01*
X200246104Y-120662474D01*
X200250729Y-120667081D01*
X200309648Y-120728968D01*
X200313835Y-120733595D01*
X200370734Y-120799768D01*
X200374314Y-120804130D01*
X200429252Y-120874275D01*
X200432371Y-120878435D01*
X200485112Y-120951962D01*
X200488028Y-120956212D01*
X200538382Y-121032955D01*
X200541075Y-121037248D01*
X200589024Y-121117274D01*
X200591495Y-121121592D01*
X200636978Y-121204912D01*
X200639228Y-121209233D01*
X200682197Y-121295875D01*
X200684232Y-121300185D01*
X200724610Y-121390130D01*
X200726435Y-121394407D01*
X200764199Y-121487748D01*
X200765816Y-121491968D01*
X200800871Y-121588638D01*
X200802292Y-121592785D01*
X200834593Y-121692839D01*
X200835841Y-121696947D01*
X200865314Y-121800358D01*
X200866389Y-121804385D01*
X200892982Y-121911186D01*
X200893896Y-121915129D01*
X200917552Y-122025360D01*
X200918314Y-122029210D01*
X200938949Y-122142778D01*
X200939572Y-122146530D01*
X200957147Y-122263554D01*
X200957640Y-122267204D01*
X200959785Y-122285087D01*
X200972296Y-122389403D01*
X204584281Y-119841674D01*
X204727938Y-119740345D01*
X204790981Y-119717961D01*
X204856478Y-119731586D01*
G37*
%TD.AperFunction*%
%TD*%
%TA.AperFunction,Conductor*%
%TO.N,/pad_N*%
G36*
X204861411Y-98558243D02*
G01*
X204906798Y-98603630D01*
X204923411Y-98665630D01*
X204923411Y-100805233D01*
X204909335Y-100862615D01*
X204870302Y-100906970D01*
X198304144Y-105482328D01*
X198304140Y-105482331D01*
X198291190Y-105491356D01*
X204799411Y-105491356D01*
X204861411Y-105507969D01*
X204906798Y-105553356D01*
X204923411Y-105615356D01*
X204923411Y-107413468D01*
X204906798Y-107475468D01*
X204861411Y-107520855D01*
X204799411Y-107537468D01*
X195487136Y-107537468D01*
X195425136Y-107520855D01*
X195379749Y-107475468D01*
X195363136Y-107413468D01*
X195363136Y-105273264D01*
X195376996Y-105216298D01*
X195415477Y-105172066D01*
X195922440Y-104813080D01*
X201889517Y-100587742D01*
X201873774Y-100587742D01*
X195487136Y-100587742D01*
X195425136Y-100571129D01*
X195379749Y-100525742D01*
X195363136Y-100463742D01*
X195363136Y-98665630D01*
X195379749Y-98603630D01*
X195425136Y-98558243D01*
X195487136Y-98541630D01*
X204799411Y-98541630D01*
X204861411Y-98558243D01*
G37*
%TD.AperFunction*%
%TD*%
M02*
