0
SECTION
2
HEADER
9
$INSUNITS
70
4
9
$ACADVER
1
AC1014
9
$HANDSEED
5
FFFF
0
ENDSEC
0
SECTION
2
TABLES
0
TABLE
2
VPORT
5
8
100
AcDbSymbolTable
0
ENDTAB
0
TABLE
2
LTYPE
5
5
100
AcDbSymbolTable
0
LTYPE
5
14
100
AcDbSymbolTableRecord
100
AcDbLinetypeTableRecord
2
BYBLOCK
70
0
0
LTYPE
5
15
100
AcDbSymbolTableRecord
100
AcDbLinetypeTableRecord
2
BYLAYER
70
0
0
ENDTAB
0
TABLE
2
LAYER
5
2
100
AcDbSymbolTable
70
2
0
LAYER
5
50
100
AcDbSymbolTableRecord
100
AcDbLayerTableRecord
2
0
70
0
6
CONTINUOUS
0
ENDTAB
0
TABLE
2
STYLE
5
3
100
AcDbSymbolTable
70
1
0
STYLE
5
11
100
AcDbSymbolTableRecord
100
AcDbTextStyleTableRecord
2
STANDARD
70
0
0
ENDTAB
0
TABLE
2
VIEW
5
6
100
AcDbSymbolTable
70
0
0
ENDTAB
0
TABLE
2
UCS
5
7
100
AcDbSymbolTable
70
0
0
ENDTAB
0
TABLE
2
APPID
5
9
100
AcDbSymbolTable
70
2
0
APPID
5
12
100
AcDbSymbolTableRecord
100
AcDbRegAppTableRecord
2
ACAD
70
0
0
ENDTAB
0
TABLE
2
DIMSTYLE
5
A
100
AcDbSymbolTable
70
1
0
ENDTAB
0
TABLE
2
BLOCK_RECORD
5
1
100
AcDbSymbolTable
70
1
0
BLOCK_RECORD
5
1F
100
AcDbSymbolTableRecord
100
AcDbBlockTableRecord
2
*MODEL_SPACE
0
BLOCK_RECORD
5
1B
100
AcDbSymbolTableRecord
100
AcDbBlockTableRecord
2
*PAPER_SPACE
0
ENDTAB
0
ENDSEC
0
SECTION
2
BLOCKS
0
BLOCK
5
20
100
AcDbEntity
100
AcDbBlockBegin
2
*MODEL_SPACE
0
ENDBLK
5
21
100
AcDbEntity
100
AcDbBlockEnd
0
BLOCK
5
1C
100
AcDbEntity
100
AcDbBlockBegin
2
*PAPER_SPACE
0
ENDBLK
5
1D
100
AcDbEntity
100
AcDbBlockEnd
0
ENDSEC
0
SECTION
2
ENTITIES
0
LWPOLYLINE
5
100
100
AcDbEntity
8
0
100
AcDbPolyline
90
8
70
1
43
0.0
10
-65.524902864781836
20
-47.425946503073988
10
-62.160575557448993
20
-43.044770827804726
10
-63.746839209270846
20
-41.826670820864081
10
-65.573989219681906
20
-44.20606629859698
10
-81.040059824945899
20
-32.329591230926866
10
-79.212909814533944
20
-29.950195753192794
10
-80.799173466355811
20
-28.732095746252146
10
-84.163500773688597
20
-33.113271421521432
0
CIRCLE
5
101
100
AcDbEntity
8
0
100
AcDbCircle
10
-67.215606268488131
20
-30.33531476013685
30
0
40
4.9999999999999964
210
0
220
-0
230
1
0
LWPOLYLINE
5
102
100
AcDbEntity
8
0
100
AcDbPolyline
90
4
70
1
43
0.0
10
-1.1406378364251712
20
-28.280922149826662
10
-17.518430974146099
20
-29.134087982487408
10
-17.292880546350911
20
-33.4638655088958
10
-0.91508740862992766
20
-32.610699676235086
0
LWPOLYLINE
5
103
100
AcDbEntity
8
0
100
AcDbPolyline
90
4
70
1
43
0.0
10
-1.6743253891003618
20
-18.035992028055329
10
-18.052118526821342
20
-18.889157860716004
10
-17.826568099026169
20
-23.218935387124432
10
-1.4487749613052392
20
-22.365769554463739
0
CIRCLE
5
104
100
AcDbEntity
8
0
100
AcDbCircle
10
-66.157135789452866
20
-38.397860279078778
30
0
40
1.7000000000000006
210
-1.9552209067118414e-32
220
1.5014241783197707e-32
230
1
0
CIRCLE
5
105
100
AcDbEntity
8
0
100
AcDbCircle
10
-68.274076747523395
20
-22.272769241194904
30
0
40
1.7000000000000006
210
-1.9552209067118414e-32
220
1.5014241783197707e-32
230
1
0
CIRCLE
5
106
100
AcDbEntity
8
0
100
AcDbCircle
10
-59.153060749546199
20
-29.276844281101589
30
0
40
1.7000000000000006
210
-1.9552209067118414e-32
220
1.5014241783197707e-32
230
1
0
CIRCLE
5
107
100
AcDbEntity
8
0
100
AcDbCircle
10
-75.278151787430062
20
-31.393785239172107
30
0
40
1.7000000000000006
210
-1.9552209067118414e-32
220
1.5014241783197707e-32
230
1
0
ELLIPSE
5
108
100
AcDbEntity
8
0
100
AcDbEllipse
10
-22.665729151744756
20
-26.436623219149851
30
0
11
1.1741832380242194
21
-0.46931248955041244
31
0.0
40
0.99999992516855285
41
0
42
6.2831853071795862
0
ELLIPSE
5
109
100
AcDbEntity
8
0
100
AcDbEllipse
10
3.6985232162936876
20
-25.063234317792428
30
0
11
1.1741832380242194
21
-0.46931248955041244
31
0.0
40
0.99999992516855285
41
0
42
6.2831853071795862
0
ELLIPSE
5
110
100
AcDbEntity
8
0
100
AcDbEllipse
10
-10.036569431846141
20
-15.134911130910798
30
0
11
1.1741832380242194
21
-0.46931248955041244
31
0.0
40
0.99999992516855285
41
0
42
6.2831853071795862
0
ELLIPSE
5
111
100
AcDbEntity
8
0
100
AcDbEllipse
10
-8.9306365036047914
20
-36.364946406031507
30
0
11
1.1741832380242194
21
-0.46931248955041244
31
0.0
40
0.99999992516855285
41
0
42
6.2831853071795862
0
LWPOLYLINE
5
112
100
AcDbEntity
8
0
100
AcDbPolyline
90
21
70
1
43
0.0
10
-51.517132625684084
20
-51.685810631142168
10
-52.303650675150593
20
-51.874778532674021
10
-56.605056952166493
20
-54.275542001014927
10
-58.243888865955718
20
-56.409701332331778
10
-108.56554218275991
20
-49.697124041975265
10
-122.84191504915661
20
-38.734223979509473
42
-0.41421356237309293
10
-123.39416051647844
20
-34.52767849136572
10
-109.94089028442589
20
-17.00823555101131
42
-0.3505569592866784
10
-106.30338932350722
20
-16.111937270527523
10
-103.54811201964472
20
-12.523893421169214
10
-103.26483921337002
20
-12.523893421169166
10
-103.26483921337027
20
-7.9999999999998872
42
-0.41421356237309059
10
-95.264839213370237
20
1.7763568394002505e-14
10
-4.375639305846856e-15
20
-4.4408920985006262e-15
42
-0.41421356237308787
10
7.999999999999952
20
-7.9999999999998641
10
8.052092844590323
20
-12.523893421169191
10
9.3305926464358606
20
-37.066607720970012
10
10.206725581791577
20
-41.508740011821686
42
-0.41421356237309304
10
4.2969714863694097
20
-51.156268531170142
10
-40.812773285947166
20
-61.994282756078725
42
-0.41421356237309231
10
-50.4603018052956
20
-56.084528660656659
0
CIRCLE
5
113
100
AcDbEntity
8
0
100
AcDbCircle
10
-97.902666203556251
20
-30.064801200312932
30
0
40
1.7000000000000006
210
6.5995274348197774e-32
220
1.6689394703620423e-31
230
1
0
CIRCLE
5
114
100
AcDbEntity
8
0
100
AcDbCircle
10
-107.64746625908197
20
-42.754910414887277
30
0
40
1.7000000000000006
210
6.5995274348197774e-32
220
1.6689394703620423e-31
230
1
0
CIRCLE
5
115
100
AcDbEntity
8
0
100
AcDbCircle
10
-119.54444364774547
20
-33.619160362831906
30
0
40
1.7000000000000006
210
6.5995274348197774e-32
220
1.6689394703620423e-31
230
1
0
CIRCLE
5
116
100
AcDbEntity
8
0
100
AcDbCircle
10
-109.79964359221978
20
-20.92905114825756
30
0
40
1.7000000000000006
210
6.5995274348197774e-32
220
1.6689394703620423e-31
230
1
0
CIRCLE
5
117
100
AcDbEntity
8
0
100
AcDbCircle
10
-84.193165118005467
20
-49.921665683598079
30
0
40
1.7000000000000006
210
6.5995274348197774e-32
220
1.6689394703620423e-31
230
1
0
CIRCLE
5
118
100
AcDbEntity
8
0
100
AcDbCircle
10
-103.02634695772825
20
-47.409443203017091
30
0
40
1.7000000000000006
210
6.5995274348197774e-32
220
1.6689394703620423e-31
230
1
0
CIRCLE
5
119
100
AcDbEntity
8
0
100
AcDbCircle
10
-65.359983278282684
20
-52.433888164179024
30
0
40
1.7000000000000006
210
6.5995274348197774e-32
220
1.6689394703620423e-31
230
1
0
LINE
5
120
100
AcDbEntity
8
0
100
AcDbLine
10
8.0260464222952468
20
-10.261946710584599
30
0
11
-103.26483921337022
21
-10.261946710584624
31
0
0
LINE
5
121
100
AcDbEntity
8
0
100
AcDbLine
10
-54.454353813658507
20
-53.075160266844449
30
0
11
-104.92575067157594
21
-14.317915345848364
31
0
0
LINE
5
122
100
AcDbEntity
8
0
100
AcDbLine
10
-50.988717215489849
20
-53.885169645899332
30
0
11
9.7686591141137313
21
-39.287673866395814
31
-7.8886090522101181e-30
0
ENDSEC
0
SECTION
2
OBJECTS
0
DICTIONARY
5
C
100
AcDbDictionary
3
ACAD_GROUP
350
D
3
ACAD_MLINESTYLE
350
17
0
DICTIONARY
5
D
100
AcDbDictionary
0
DICTIONARY
5
1A
330
C
100
AcDbDictionary
0
DICTIONARY
5
17
100
AcDbDictionary
0
ENDSEC
0
EOF
