0
SECTION
2
HEADER
9
$INSUNITS
70
4
9
$ACADVER
1
AC1014
9
$HANDSEED
5
FFFF
0
ENDSEC
0
SECTION
2
TABLES
0
TABLE
2
VPORT
5
8
100
AcDbSymbolTable
0
ENDTAB
0
TABLE
2
LTYPE
5
5
100
AcDbSymbolTable
0
LTYPE
5
14
100
AcDbSymbolTableRecord
100
AcDbLinetypeTableRecord
2
BYBLOCK
70
0
0
LTYPE
5
15
100
AcDbSymbolTableRecord
100
AcDbLinetypeTableRecord
2
BYLAYER
70
0
0
ENDTAB
0
TABLE
2
LAYER
5
2
100
AcDbSymbolTable
70
2
0
LAYER
5
50
100
AcDbSymbolTableRecord
100
AcDbLayerTableRecord
2
0
70
0
6
CONTINUOUS
0
ENDTAB
0
TABLE
2
STYLE
5
3
100
AcDbSymbolTable
70
1
0
STYLE
5
11
100
AcDbSymbolTableRecord
100
AcDbTextStyleTableRecord
2
STANDARD
70
0
0
ENDTAB
0
TABLE
2
VIEW
5
6
100
AcDbSymbolTable
70
0
0
ENDTAB
0
TABLE
2
UCS
5
7
100
AcDbSymbolTable
70
0
0
ENDTAB
0
TABLE
2
APPID
5
9
100
AcDbSymbolTable
70
2
0
APPID
5
12
100
AcDbSymbolTableRecord
100
AcDbRegAppTableRecord
2
ACAD
70
0
0
ENDTAB
0
TABLE
2
DIMSTYLE
5
A
100
AcDbSymbolTable
70
1
0
ENDTAB
0
TABLE
2
BLOCK_RECORD
5
1
100
AcDbSymbolTable
70
1
0
BLOCK_RECORD
5
1F
100
AcDbSymbolTableRecord
100
AcDbBlockTableRecord
2
*MODEL_SPACE
0
BLOCK_RECORD
5
1B
100
AcDbSymbolTableRecord
100
AcDbBlockTableRecord
2
*PAPER_SPACE
0
ENDTAB
0
ENDSEC
0
SECTION
2
BLOCKS
0
BLOCK
5
20
100
AcDbEntity
100
AcDbBlockBegin
2
*MODEL_SPACE
0
ENDBLK
5
21
100
AcDbEntity
100
AcDbBlockEnd
0
BLOCK
5
1C
100
AcDbEntity
100
AcDbBlockBegin
2
*PAPER_SPACE
0
ENDBLK
5
1D
100
AcDbEntity
100
AcDbBlockEnd
0
ENDSEC
0
SECTION
2
ENTITIES
0
LWPOLYLINE
5
100
100
AcDbEntity
8
OUTER_PROFILES
100
AcDbPolyline
90
22
70
1
43
0.0
10
-30.777768107553626
20
-20.432917106573171
10
-39.233343376062003
20
-0.19129014743198836
42
-0.10014371942545795
10
-39.851472737919792
20
2.9206945499750514
10
-39.785856670183279
20
21.428657212083113
42
-0.35367598823988977
10
-33.433766141534981
20
29.228740653952549
10
16.825220947794818
20
39.808073840025777
10
18.618201232034082
20
39.979019037612588
10
22.114725527412695
20
40.886275948162016
10
22.334513683214155
20
40.711041547694748
10
23.33460530501943
20
46.213723186186925
42
-0.38704969445253962
10
25.575666177970213
20
47.706953286575349
10
69.084759617082938
20
41.094110800491855
42
-0.41421356237309681
10
71.599912385483123
20
37.677386264974103
10
67.540548732774312
20
10.968866768141394
10
66.540457110969029
20
5.4661851296492276
10
66.385942724057657
20
5.272385099211732
42
-0.22827332631067218
10
55.439311363518549
20
-2.1094237467877974e-14
10
-1.7763568394002505e-14
20
-1.1102230246251565e-15
10
-1.6253596750034038
20
0.18898793688852833
10
-1.6300355916306293
20
0.19116550799478188
42
0.42392524573232943
10
-4.3143087254915979
20
-0.83790107270557801
10
-12.690764788594233
20
-20.497039722210481
42
-0.6634556524977181
0
LWPOLYLINE
5
101
100
AcDbEntity
8
INTERIOR_PROFILES
100
AcDbPolyline
90
12
70
1
43
0.0
10
-27.385752839635309
20
17.516882451118153
42
0.24105170758643987
10
-27.406751727559723
20
11.593746724219876
10
-29.820631697608803
20
11.602304487757817
10
-29.836002725092861
20
7.2666834640298319
10
-13.436106799018672
20
7.2085420348270892
10
-13.420735771534629
20
11.544163058555084
10
-15.834615404360637
20
11.552720820897523
42
0.24105170758644234
10
-15.813616516436252
20
17.475856547795857
10
-13.3997365463871
20
17.467298784257906
10
-13.384365518903083
20
21.802919807985877
10
-29.784261444977311
20
21.861061237188551
10
-29.799632472461283
20
17.525440213460573
0
ELLIPSE
5
102
100
AcDbEntity
8
INTERIOR_PROFILES
100
AcDbEllipse
10
40.218374841854384
20
14.074727342515466
30
0
11
6.3456323392500362
21
-2.9551565466256013
31
0.0
40
0.7857142857142857
41
0
42
6.2831853071795862
0
CIRCLE
5
103
100
AcDbEntity
8
INTERIOR_PROFILES
100
AcDbCircle
10
-50.49803849829501
20
28.393447900640968
30
0
40
1.7000000000000004
210
0
220
0
230
-1
0
CIRCLE
5
104
100
AcDbEntity
8
INTERIOR_PROFILES
100
AcDbCircle
10
-65.3541810590267
20
16.548827678142608
30
0
40
1.7000000000000004
210
0
220
0
230
-1
0
CIRCLE
5
105
100
AcDbEntity
8
INTERIOR_PROFILES
100
AcDbCircle
10
-35.641895937563298
20
40.2380681231393
30
0
40
1.7000000000000048
210
0
220
0
230
-1
0
CIRCLE
5
106
100
AcDbEntity
8
INTERIOR_PROFILES
100
AcDbCircle
10
8.410267888816314
20
14.488004875917824
30
0
40
1.7000000000000015
210
0
220
0
230
-1
0
CIRCLE
5
107
100
AcDbEntity
8
INTERIOR_PROFILES
100
AcDbCircle
10
34.810100355179571
20
14.581598396097814
30
0
40
1.7000000000000035
210
0
220
0
230
-1
0
CIRCLE
5
108
100
AcDbEntity
8
INTERIOR_PROFILES
100
AcDbCircle
10
21.572500031567216
20
25.16414537386644
30
0
40
1.7000000000000011
210
0
220
0
230
-1
0
CIRCLE
5
109
100
AcDbEntity
8
INTERIOR_PROFILES
100
AcDbCircle
10
21.647868212428804
20
3.9054578981492529
30
0
40
1.7000000000000017
210
0
220
0
230
-1
0
CIRCLE
5
110
100
AcDbEntity
8
INTERIOR_PROFILES
100
AcDbCircle
10
21.734266448073953
20
-20.464978414391837
30
0
40
1.2645000000000013
210
0
220
0
230
-1
0
LINE
5
111
100
AcDbEntity
8
BEND
100
AcDbLine
10
-0.8126798375016886
20
0.094493968444252507
30
-1.950388225607064e-14
11
17.721711089915189
21
39.893546438820692
31
-6.8240096208512058e-14
0
LINE
5
112
100
AcDbEntity
8
BEND
100
AcDbLine
10
22.834559494116817
20
43.462382366940872
30
1.2394979159063287e-14
11
67.040502921871706
21
8.2175259488953323
31
1.2534000877893741e-13
0
LINE
5
113
100
AcDbEntity
8
BEND_EXTENT
100
AcDbLine
10
66.540457110969029
20
5.4661851296492276
30
-1.8697247488329307e-15
11
22.334513683214155
21
40.711041547694748
31
-1.487280225794872e-15
0
LINE
5
114
100
AcDbEntity
8
BEND_EXTENT
100
AcDbLine
10
18.618201232034082
20
39.979019037612588
30
-1.3538107409981264e-15
11
-1.7763568394002505e-14
21
0
31
2.4651903288156619e-31
0
LINE
5
115
100
AcDbEntity
8
BEND_EXTENT
100
AcDbLine
10
-1.6253596750034038
20
0.18898793688852833
30
-1.1786750376206714e-15
11
16.825220947794818
21
39.808073840025777
31
9.9850735936751119e-14
0
LINE
5
116
100
AcDbEntity
8
BEND_EXTENT
100
AcDbLine
10
23.334605305019434
20
46.213723186186932
30
-1.4275702235834306e-15
11
67.540548732774312
21
10.968866768141394
31
1.4515949868193608e-13
0
ENDSEC
0
SECTION
2
OBJECTS
0
DICTIONARY
5
C
100
AcDbDictionary
3
ACAD_GROUP
350
D
3
ACAD_MLINESTYLE
350
17
0
DICTIONARY
5
D
100
AcDbDictionary
0
DICTIONARY
5
1A
330
C
100
AcDbDictionary
0
DICTIONARY
5
17
100
AcDbDictionary
0
ENDSEC
0
EOF
