0
SECTION
2
HEADER
9
$INSUNITS
70
4
9
$ACADVER
1
AC1014
9
$HANDSEED
5
FFFF
0
ENDSEC
0
SECTION
2
TABLES
0
TABLE
2
VPORT
5
8
100
AcDbSymbolTable
0
ENDTAB
0
TABLE
2
LTYPE
5
5
100
AcDbSymbolTable
0
LTYPE
5
14
100
AcDbSymbolTableRecord
100
AcDbLinetypeTableRecord
2
BYBLOCK
70
0
0
LTYPE
5
15
100
AcDbSymbolTableRecord
100
AcDbLinetypeTableRecord
2
BYLAYER
70
0
0
ENDTAB
0
TABLE
2
LAYER
5
2
100
AcDbSymbolTable
70
2
0
LAYER
5
50
100
AcDbSymbolTableRecord
100
AcDbLayerTableRecord
2
0
70
0
6
CONTINUOUS
0
ENDTAB
0
TABLE
2
STYLE
5
3
100
AcDbSymbolTable
70
1
0
STYLE
5
11
100
AcDbSymbolTableRecord
100
AcDbTextStyleTableRecord
2
STANDARD
70
0
0
ENDTAB
0
TABLE
2
VIEW
5
6
100
AcDbSymbolTable
70
0
0
ENDTAB
0
TABLE
2
UCS
5
7
100
AcDbSymbolTable
70
0
0
ENDTAB
0
TABLE
2
APPID
5
9
100
AcDbSymbolTable
70
2
0
APPID
5
12
100
AcDbSymbolTableRecord
100
AcDbRegAppTableRecord
2
ACAD
70
0
0
ENDTAB
0
TABLE
2
DIMSTYLE
5
A
100
AcDbSymbolTable
70
1
0
ENDTAB
0
TABLE
2
BLOCK_RECORD
5
1
100
AcDbSymbolTable
70
1
0
BLOCK_RECORD
5
1F
100
AcDbSymbolTableRecord
100
AcDbBlockTableRecord
2
*MODEL_SPACE
0
BLOCK_RECORD
5
1B
100
AcDbSymbolTableRecord
100
AcDbBlockTableRecord
2
*PAPER_SPACE
0
ENDTAB
0
ENDSEC
0
SECTION
2
BLOCKS
0
BLOCK
5
20
100
AcDbEntity
100
AcDbBlockBegin
2
*MODEL_SPACE
0
ENDBLK
5
21
100
AcDbEntity
100
AcDbBlockEnd
0
BLOCK
5
1C
100
AcDbEntity
100
AcDbBlockBegin
2
*PAPER_SPACE
0
ENDBLK
5
1D
100
AcDbEntity
100
AcDbBlockEnd
0
ENDSEC
0
SECTION
2
ENTITIES
0
CIRCLE
5
100
100
AcDbEntity
8
0
100
AcDbCircle
10
-195.09999390710405
20
-303.80000000000035
30
0
40
1.7000000000000002
210
-0
220
0
230
1
0
CIRCLE
5
101
100
AcDbEntity
8
0
100
AcDbCircle
10
-195.09999390710405
20
-290.40000000000032
30
-5.5511151231257827e-16
40
1.7000000000000002
210
0
220
-0
230
1
0
CIRCLE
5
102
100
AcDbEntity
8
0
100
AcDbCircle
10
-195.09999390710976
20
-261.20000000000039
30
0
40
1.7000000000000002
210
0
220
-0
230
1
0
CIRCLE
5
103
100
AcDbEntity
8
0
100
AcDbCircle
10
-183.72930916756832
20
-275.80000000000035
30
-5.5511151231257827e-16
40
1.2645
210
1.2621774483536189e-29
220
2.8298997121333476e-73
230
1
0
CIRCLE
5
104
100
AcDbEntity
8
0
100
AcDbCircle
10
-206.47067864663978
20
-275.80000000000035
30
0
40
1.2645
210
1.2621774483536189e-29
220
2.8298997121333476e-73
230
1
0
CIRCLE
5
105
100
AcDbEntity
8
0
100
AcDbCircle
10
-195.09999390710405
20
-326.10150762527053
30
5.5511151231257827e-16
40
6.999999999999992
210
1.2621774483536192e-29
220
1.97215226305253e-31
230
1
0
LWPOLYLINE
5
106
100
AcDbEntity
8
0
100
AcDbPolyline
90
4
70
1
43
0.0
10
-198.12880410418001
20
-285.90000000000038
10
-201.97067864663975
20
-285.90000000000038
10
-201.97067864663975
20
-265.70000000000033
10
-198.12880410418001
20
-265.70000000000033
0
LWPOLYLINE
5
107
100
AcDbEntity
8
0
100
AcDbPolyline
90
4
70
1
43
0.0
10
-188.22930916756835
20
-285.90000000000038
10
-192.07118371002809
20
-285.90000000000038
10
-192.07118371002809
20
-265.70000000000033
10
-188.22930916756835
20
-265.70000000000033
0
LWPOLYLINE
5
108
100
AcDbEntity
8
0
100
AcDbPolyline
90
16
70
1
43
0.0
10
-205.85247093450252
20
-258.59062473138613
42
-0.3071493556383052
10
-203.06512694543568
20
-256.70000000000039
10
-187.13486086877248
20
-256.70000000000039
42
-0.3071493556383052
10
-184.34751687970564
20
-258.59062473138613
10
-182.76690710061789
20
-262.56196183564987
42
-0.1179232396171483
10
-180.37658555838649
20
-279.04390129872121
42
-0.19044800781448895
10
-181.369723980016
20
-281.01301340434475
42
0.21406179594412192
10
-185.09999390710402
20
-289.32682716757927
10
-185.09999390710408
20
-313.47771709276202
42
0.19509967051995031
10
-184.25222759899708
20
-315.56766688533617
42
-2.3649614871038396
10
-205.94776021521116
20
-315.56766688533628
42
0.19509967051994942
10
-205.09999390710414
20
-313.47771709276213
10
-205.09999390710416
20
-289.32682716757927
42
0.21406179594411903
10
-208.83026383419212
20
-281.01301340434486
42
-0.19044800781448215
10
-209.82340225582161
20
-279.04390129872144
42
-0.11792323961714977
10
-207.43308071359021
20
-262.56196183564987
0
CIRCLE
5
109
100
AcDbEntity
8
0
100
AcDbCircle
10
-203.11072889211039
20
-330.72650762527053
30
0
40
1.2645
210
1.2621774483536189e-29
220
2.8298997121333476e-73
230
1
0
CIRCLE
5
110
100
AcDbEntity
8
0
100
AcDbCircle
10
-195.09999390710493
20
-336.661862025191
30
0
40
1.2645
210
1.2621774483536189e-29
220
2.8298997121333476e-73
230
1
0
CIRCLE
5
111
100
AcDbEntity
8
0
100
AcDbCircle
10
-204.24552909040256
20
-320.82133042531012
30
0
40
1.2645
210
1.2621774483536189e-29
220
2.8298997121333476e-73
230
1
0
CIRCLE
5
112
100
AcDbEntity
8
0
100
AcDbCircle
10
-185.95445872380674
20
-320.82133042531046
30
-5.5511151231257827e-16
40
1.2645
210
1.2621774483536189e-29
220
2.8298997121333476e-73
230
1
0
CIRCLE
5
113
100
AcDbEntity
8
0
100
AcDbCircle
10
-187.08925892209828
20
-330.72650762527053
30
0
40
1.2645
210
1.2621774483536189e-29
220
2.8298997121333476e-73
230
1
0
CIRCLE
5
114
100
AcDbEntity
8
0
100
AcDbCircle
10
-195.09999390710433
20
-316.85150762527053
30
0
40
1.2645
210
1.2621774483536189e-29
220
2.8298997121333476e-73
230
1
0
ENDSEC
0
SECTION
2
OBJECTS
0
DICTIONARY
5
C
100
AcDbDictionary
3
ACAD_GROUP
350
D
3
ACAD_MLINESTYLE
350
17
0
DICTIONARY
5
D
100
AcDbDictionary
0
DICTIONARY
5
1A
330
C
100
AcDbDictionary
0
DICTIONARY
5
17
100
AcDbDictionary
0
ENDSEC
0
EOF
