%TF.GenerationSoftware,KiCad,Pcbnew,(6.0.0-0)*%
%TF.CreationDate,2022-09-17T09:57:17-07:00*%
%TF.ProjectId,Untitled,556e7469-746c-4656-942e-6b696361645f,rev?*%
%TF.SameCoordinates,Original*%
%TF.FileFunction,Legend,Top*%
%TF.FilePolarity,Positive*%
%FSLAX46Y46*%
G04 Gerber Fmt 4.6, Leading zero omitted, Abs format (unit mm)*
G04 Created by KiCad (PCBNEW (6.0.0-0)) date 2022-09-17 09:57:17*
%MOMM*%
%LPD*%
G01*
G04 APERTURE LIST*
G04 Aperture macros list*
%AMRoundRect*
0 Rectangle with rounded corners*
0 $1 Rounding radius*
0 $2 $3 $4 $5 $6 $7 $8 $9 X,Y pos of 4 corners*
0 Add a 4 corners polygon primitive as box body*
4,1,4,$2,$3,$4,$5,$6,$7,$8,$9,$2,$3,0*
0 Add four circle primitives for the rounded corners*
1,1,$1+$1,$2,$3*
1,1,$1+$1,$4,$5*
1,1,$1+$1,$6,$7*
1,1,$1+$1,$8,$9*
0 Add four rect primitives between the rounded corners*
20,1,$1+$1,$2,$3,$4,$5,0*
20,1,$1+$1,$4,$5,$6,$7,0*
20,1,$1+$1,$6,$7,$8,$9,0*
20,1,$1+$1,$8,$9,$2,$3,0*%
G04 Aperture macros list end*
%ADD10C,0.150000*%
%ADD11C,0.175000*%
%ADD12C,0.120000*%
%ADD13RoundRect,0.250000X0.725000X-0.600000X0.725000X0.600000X-0.725000X0.600000X-0.725000X-0.600000X0*%
%ADD14O,1.950000X1.700000*%
%ADD15C,6.350000*%
G04 APERTURE END LIST*
D10*
X101713571Y-61421071D02*
X101901071Y-59921071D01*
X102570714Y-61421071D02*
X102035000Y-60563928D01*
X102758214Y-59921071D02*
X101793928Y-60778214D01*
X103427857Y-61421071D02*
X103293928Y-61349642D01*
X103240357Y-61206785D01*
X103401071Y-59921071D01*
X103999285Y-61421071D02*
X104124285Y-60421071D01*
X104186785Y-59921071D02*
X104106428Y-59992500D01*
X104168928Y-60063928D01*
X104249285Y-59992500D01*
X104186785Y-59921071D01*
X104168928Y-60063928D01*
X105365357Y-61349642D02*
X105213571Y-61421071D01*
X104927857Y-61421071D01*
X104793928Y-61349642D01*
X104731428Y-61278214D01*
X104677857Y-61135357D01*
X104731428Y-60706785D01*
X104820714Y-60563928D01*
X104901071Y-60492500D01*
X105052857Y-60421071D01*
X105338571Y-60421071D01*
X105472500Y-60492500D01*
X105999285Y-61421071D02*
X106186785Y-59921071D01*
X106213571Y-60849642D02*
X106570714Y-61421071D01*
X106695714Y-60421071D02*
X106052857Y-60992500D01*
X107195714Y-60421071D02*
X107427857Y-61421071D01*
X107910000Y-60421071D02*
X107427857Y-61421071D01*
X107240357Y-61778214D01*
X107160000Y-61849642D01*
X107008214Y-61921071D01*
X107356428Y-63836071D02*
X107543928Y-62336071D01*
X108115357Y-62336071D01*
X108249285Y-62407500D01*
X108311785Y-62478928D01*
X108365357Y-62621785D01*
X108338571Y-62836071D01*
X108249285Y-62978928D01*
X108168928Y-63050357D01*
X108017142Y-63121785D01*
X107445714Y-63121785D01*
X109731428Y-63693214D02*
X109651071Y-63764642D01*
X109427857Y-63836071D01*
X109285000Y-63836071D01*
X109079642Y-63764642D01*
X108954642Y-63621785D01*
X108901071Y-63478928D01*
X108865357Y-63193214D01*
X108892142Y-62978928D01*
X108999285Y-62693214D01*
X109088571Y-62550357D01*
X109249285Y-62407500D01*
X109472500Y-62336071D01*
X109615357Y-62336071D01*
X109820714Y-62407500D01*
X109883214Y-62478928D01*
X110954642Y-63050357D02*
X111160000Y-63121785D01*
X111222500Y-63193214D01*
X111276071Y-63336071D01*
X111249285Y-63550357D01*
X111160000Y-63693214D01*
X111079642Y-63764642D01*
X110927857Y-63836071D01*
X110356428Y-63836071D01*
X110543928Y-62336071D01*
X111043928Y-62336071D01*
X111177857Y-62407500D01*
X111240357Y-62478928D01*
X111293928Y-62621785D01*
X111276071Y-62764642D01*
X111186785Y-62907500D01*
X111106428Y-62978928D01*
X110954642Y-63050357D01*
X110454642Y-63050357D01*
D11*
X99900000Y-65614285D02*
X99938095Y-65538095D01*
X99938095Y-65423809D01*
X99900000Y-65309523D01*
X99823809Y-65233333D01*
X99747619Y-65195238D01*
X99595238Y-65157142D01*
X99480952Y-65157142D01*
X99328571Y-65195238D01*
X99252380Y-65233333D01*
X99176190Y-65309523D01*
X99138095Y-65423809D01*
X99138095Y-65500000D01*
X99176190Y-65614285D01*
X99214285Y-65652380D01*
X99480952Y-65652380D01*
X99480952Y-65500000D01*
X99176190Y-67176190D02*
X99138095Y-67290476D01*
X99138095Y-67480952D01*
X99176190Y-67557142D01*
X99214285Y-67595238D01*
X99290476Y-67633333D01*
X99366666Y-67633333D01*
X99442857Y-67595238D01*
X99480952Y-67557142D01*
X99519047Y-67480952D01*
X99557142Y-67328571D01*
X99595238Y-67252380D01*
X99633333Y-67214285D01*
X99709523Y-67176190D01*
X99785714Y-67176190D01*
X99861904Y-67214285D01*
X99900000Y-67252380D01*
X99938095Y-67328571D01*
X99938095Y-67519047D01*
X99900000Y-67633333D01*
X99442857Y-69195238D02*
X99442857Y-69804761D01*
X99138095Y-69500000D02*
X99747619Y-69500000D01*
D10*
X102079642Y-73342678D02*
X102182321Y-73378392D01*
X102213571Y-73414107D01*
X102240357Y-73485535D01*
X102226964Y-73592678D01*
X102182321Y-73664107D01*
X102142142Y-73699821D01*
X102066250Y-73735535D01*
X101780535Y-73735535D01*
X101874285Y-72985535D01*
X102124285Y-72985535D01*
X102191250Y-73021250D01*
X102222500Y-73056964D01*
X102249285Y-73128392D01*
X102240357Y-73199821D01*
X102195714Y-73271250D01*
X102155535Y-73306964D01*
X102079642Y-73342678D01*
X101829642Y-73342678D01*
X102851964Y-73735535D02*
X102901071Y-73342678D01*
X102874285Y-73271250D01*
X102807321Y-73235535D01*
X102664464Y-73235535D01*
X102588571Y-73271250D01*
X102856428Y-73699821D02*
X102780535Y-73735535D01*
X102601964Y-73735535D01*
X102535000Y-73699821D01*
X102508214Y-73628392D01*
X102517142Y-73556964D01*
X102561785Y-73485535D01*
X102637678Y-73449821D01*
X102816250Y-73449821D01*
X102892142Y-73414107D01*
X103177857Y-73699821D02*
X103244821Y-73735535D01*
X103387678Y-73735535D01*
X103463571Y-73699821D01*
X103508214Y-73628392D01*
X103512678Y-73592678D01*
X103485892Y-73521250D01*
X103418928Y-73485535D01*
X103311785Y-73485535D01*
X103244821Y-73449821D01*
X103218035Y-73378392D01*
X103222500Y-73342678D01*
X103267142Y-73271250D01*
X103343035Y-73235535D01*
X103450178Y-73235535D01*
X103517142Y-73271250D01*
X104106428Y-73699821D02*
X104030535Y-73735535D01*
X103887678Y-73735535D01*
X103820714Y-73699821D01*
X103793928Y-73628392D01*
X103829642Y-73342678D01*
X103874285Y-73271250D01*
X103950178Y-73235535D01*
X104093035Y-73235535D01*
X104160000Y-73271250D01*
X104186785Y-73342678D01*
X104177857Y-73414107D01*
X103811785Y-73485535D01*
X104780535Y-73735535D02*
X104874285Y-72985535D01*
X104785000Y-73699821D02*
X104709107Y-73735535D01*
X104566250Y-73735535D01*
X104499285Y-73699821D01*
X104468035Y-73664107D01*
X104441250Y-73592678D01*
X104468035Y-73378392D01*
X104512678Y-73306964D01*
X104552857Y-73271250D01*
X104628750Y-73235535D01*
X104771607Y-73235535D01*
X104838571Y-73271250D01*
X105816250Y-73735535D02*
X105749285Y-73699821D01*
X105718035Y-73664107D01*
X105691250Y-73592678D01*
X105718035Y-73378392D01*
X105762678Y-73306964D01*
X105802857Y-73271250D01*
X105878750Y-73235535D01*
X105985892Y-73235535D01*
X106052857Y-73271250D01*
X106084107Y-73306964D01*
X106110892Y-73378392D01*
X106084107Y-73592678D01*
X106039464Y-73664107D01*
X105999285Y-73699821D01*
X105923392Y-73735535D01*
X105816250Y-73735535D01*
X106450178Y-73235535D02*
X106387678Y-73735535D01*
X106441250Y-73306964D02*
X106481428Y-73271250D01*
X106557321Y-73235535D01*
X106664464Y-73235535D01*
X106731428Y-73271250D01*
X106758214Y-73342678D01*
X106709107Y-73735535D01*
X107593035Y-73235535D02*
X107878750Y-73235535D01*
X107731428Y-72985535D02*
X107651071Y-73628392D01*
X107677857Y-73699821D01*
X107744821Y-73735535D01*
X107816250Y-73735535D01*
X108066250Y-73735535D02*
X108160000Y-72985535D01*
X108387678Y-73735535D02*
X108436785Y-73342678D01*
X108410000Y-73271250D01*
X108343035Y-73235535D01*
X108235892Y-73235535D01*
X108160000Y-73271250D01*
X108119821Y-73306964D01*
X109035000Y-73699821D02*
X108959107Y-73735535D01*
X108816250Y-73735535D01*
X108749285Y-73699821D01*
X108722500Y-73628392D01*
X108758214Y-73342678D01*
X108802857Y-73271250D01*
X108878750Y-73235535D01*
X109021607Y-73235535D01*
X109088571Y-73271250D01*
X109115357Y-73342678D01*
X109106428Y-73414107D01*
X108740357Y-73485535D01*
X102101964Y-74943035D02*
X102195714Y-74193035D01*
X102106428Y-74907321D02*
X102030535Y-74943035D01*
X101887678Y-74943035D01*
X101820714Y-74907321D01*
X101789464Y-74871607D01*
X101762678Y-74800178D01*
X101789464Y-74585892D01*
X101834107Y-74514464D01*
X101874285Y-74478750D01*
X101950178Y-74443035D01*
X102093035Y-74443035D01*
X102160000Y-74478750D01*
X102749285Y-74907321D02*
X102673392Y-74943035D01*
X102530535Y-74943035D01*
X102463571Y-74907321D01*
X102436785Y-74835892D01*
X102472500Y-74550178D01*
X102517142Y-74478750D01*
X102593035Y-74443035D01*
X102735892Y-74443035D01*
X102802857Y-74478750D01*
X102829642Y-74550178D01*
X102820714Y-74621607D01*
X102454642Y-74693035D01*
X103070714Y-74907321D02*
X103137678Y-74943035D01*
X103280535Y-74943035D01*
X103356428Y-74907321D01*
X103401071Y-74835892D01*
X103405535Y-74800178D01*
X103378750Y-74728750D01*
X103311785Y-74693035D01*
X103204642Y-74693035D01*
X103137678Y-74657321D01*
X103110892Y-74585892D01*
X103115357Y-74550178D01*
X103160000Y-74478750D01*
X103235892Y-74443035D01*
X103343035Y-74443035D01*
X103410000Y-74478750D01*
X103709107Y-74943035D02*
X103771607Y-74443035D01*
X103802857Y-74193035D02*
X103762678Y-74228750D01*
X103793928Y-74264464D01*
X103834107Y-74228750D01*
X103802857Y-74193035D01*
X103793928Y-74264464D01*
X104450178Y-74443035D02*
X104374285Y-75050178D01*
X104329642Y-75121607D01*
X104289464Y-75157321D01*
X104213571Y-75193035D01*
X104106428Y-75193035D01*
X104039464Y-75157321D01*
X104392142Y-74907321D02*
X104316250Y-74943035D01*
X104173392Y-74943035D01*
X104106428Y-74907321D01*
X104075178Y-74871607D01*
X104048392Y-74800178D01*
X104075178Y-74585892D01*
X104119821Y-74514464D01*
X104160000Y-74478750D01*
X104235892Y-74443035D01*
X104378750Y-74443035D01*
X104445714Y-74478750D01*
X104807321Y-74443035D02*
X104744821Y-74943035D01*
X104798392Y-74514464D02*
X104838571Y-74478750D01*
X104914464Y-74443035D01*
X105021607Y-74443035D01*
X105088571Y-74478750D01*
X105115357Y-74550178D01*
X105066250Y-74943035D01*
X105994821Y-74943035D02*
X106088571Y-74193035D01*
X106052857Y-74478750D02*
X106128750Y-74443035D01*
X106271607Y-74443035D01*
X106338571Y-74478750D01*
X106369821Y-74514464D01*
X106396607Y-74585892D01*
X106369821Y-74800178D01*
X106325178Y-74871607D01*
X106285000Y-74907321D01*
X106209107Y-74943035D01*
X106066250Y-74943035D01*
X105999285Y-74907321D01*
X106664464Y-74443035D02*
X106780535Y-74943035D01*
X107021607Y-74443035D02*
X106780535Y-74943035D01*
X106686785Y-75121607D01*
X106646607Y-75157321D01*
X106570714Y-75193035D01*
X108124285Y-74193035D02*
X108057321Y-74728750D01*
X108008214Y-74835892D01*
X107927857Y-74907321D01*
X107816250Y-74943035D01*
X107744821Y-74943035D01*
X108494821Y-74943035D02*
X108427857Y-74907321D01*
X108396607Y-74871607D01*
X108369821Y-74800178D01*
X108396607Y-74585892D01*
X108441250Y-74514464D01*
X108481428Y-74478750D01*
X108557321Y-74443035D01*
X108664464Y-74443035D01*
X108731428Y-74478750D01*
X108762678Y-74514464D01*
X108789464Y-74585892D01*
X108762678Y-74800178D01*
X108718035Y-74871607D01*
X108677857Y-74907321D01*
X108601964Y-74943035D01*
X108494821Y-74943035D01*
X109035000Y-74907321D02*
X109101964Y-74943035D01*
X109244821Y-74943035D01*
X109320714Y-74907321D01*
X109365357Y-74835892D01*
X109369821Y-74800178D01*
X109343035Y-74728750D01*
X109276071Y-74693035D01*
X109168928Y-74693035D01*
X109101964Y-74657321D01*
X109075178Y-74585892D01*
X109079642Y-74550178D01*
X109124285Y-74478750D01*
X109200178Y-74443035D01*
X109307321Y-74443035D01*
X109374285Y-74478750D01*
X109664464Y-74728750D02*
X110021607Y-74728750D01*
X109566250Y-74943035D02*
X109910000Y-74193035D01*
X110066250Y-74943035D01*
X110316250Y-74943035D02*
X110378750Y-74443035D01*
X110360892Y-74585892D02*
X110405535Y-74514464D01*
X110445714Y-74478750D01*
X110521607Y-74443035D01*
X110593035Y-74443035D01*
X97196833Y-66033333D02*
X96696833Y-66033333D01*
X96596833Y-66000000D01*
X96530166Y-65933333D01*
X96496833Y-65833333D01*
X96496833Y-65766666D01*
X96530166Y-66333333D02*
X96496833Y-66433333D01*
X96496833Y-66600000D01*
X96530166Y-66666666D01*
X96563500Y-66700000D01*
X96630166Y-66733333D01*
X96696833Y-66733333D01*
X96763500Y-66700000D01*
X96796833Y-66666666D01*
X96830166Y-66600000D01*
X96863500Y-66466666D01*
X96896833Y-66400000D01*
X96930166Y-66366666D01*
X96996833Y-66333333D01*
X97063500Y-66333333D01*
X97130166Y-66366666D01*
X97163500Y-66400000D01*
X97196833Y-66466666D01*
X97196833Y-66633333D01*
X97163500Y-66733333D01*
X97196833Y-66933333D02*
X97196833Y-67333333D01*
X96496833Y-67133333D02*
X97196833Y-67133333D01*
X97196833Y-68033333D02*
X96496833Y-68500000D01*
X97196833Y-68500000D02*
X96496833Y-68033333D01*
X96496833Y-68766666D02*
X97196833Y-68766666D01*
X96863500Y-68766666D02*
X96863500Y-69166666D01*
X96496833Y-69166666D02*
X97196833Y-69166666D01*
X95836500Y-65100000D02*
X95836500Y-65366666D01*
X96069833Y-65200000D02*
X95469833Y-65200000D01*
X95403166Y-65233333D01*
X95369833Y-65300000D01*
X95369833Y-65366666D01*
X95369833Y-65600000D02*
X96069833Y-65600000D01*
X95369833Y-65900000D02*
X95736500Y-65900000D01*
X95803166Y-65866666D01*
X95836500Y-65800000D01*
X95836500Y-65700000D01*
X95803166Y-65633333D01*
X95769833Y-65600000D01*
X95369833Y-66233333D02*
X95836500Y-66233333D01*
X96069833Y-66233333D02*
X96036500Y-66200000D01*
X96003166Y-66233333D01*
X96036500Y-66266666D01*
X96069833Y-66233333D01*
X96003166Y-66233333D01*
X95403166Y-66533333D02*
X95369833Y-66600000D01*
X95369833Y-66733333D01*
X95403166Y-66800000D01*
X95469833Y-66833333D01*
X95503166Y-66833333D01*
X95569833Y-66800000D01*
X95603166Y-66733333D01*
X95603166Y-66633333D01*
X95636500Y-66566666D01*
X95703166Y-66533333D01*
X95736500Y-66533333D01*
X95803166Y-66566666D01*
X95836500Y-66633333D01*
X95836500Y-66733333D01*
X95803166Y-66800000D01*
X95403166Y-67633333D02*
X95369833Y-67700000D01*
X95369833Y-67833333D01*
X95403166Y-67900000D01*
X95469833Y-67933333D01*
X95503166Y-67933333D01*
X95569833Y-67900000D01*
X95603166Y-67833333D01*
X95603166Y-67733333D01*
X95636500Y-67666666D01*
X95703166Y-67633333D01*
X95736500Y-67633333D01*
X95803166Y-67666666D01*
X95836500Y-67733333D01*
X95836500Y-67833333D01*
X95803166Y-67900000D01*
X95369833Y-68233333D02*
X95836500Y-68233333D01*
X96069833Y-68233333D02*
X96036500Y-68200000D01*
X96003166Y-68233333D01*
X96036500Y-68266666D01*
X96069833Y-68233333D01*
X96003166Y-68233333D01*
X95369833Y-68866666D02*
X96069833Y-68866666D01*
X95403166Y-68866666D02*
X95369833Y-68800000D01*
X95369833Y-68666666D01*
X95403166Y-68600000D01*
X95436500Y-68566666D01*
X95503166Y-68533333D01*
X95703166Y-68533333D01*
X95769833Y-68566666D01*
X95803166Y-68600000D01*
X95836500Y-68666666D01*
X95836500Y-68800000D01*
X95803166Y-68866666D01*
X95403166Y-69466666D02*
X95369833Y-69400000D01*
X95369833Y-69266666D01*
X95403166Y-69200000D01*
X95469833Y-69166666D01*
X95736500Y-69166666D01*
X95803166Y-69200000D01*
X95836500Y-69266666D01*
X95836500Y-69400000D01*
X95803166Y-69466666D01*
X95736500Y-69500000D01*
X95669833Y-69500000D01*
X95603166Y-69166666D01*
X95436500Y-69800000D02*
X95403166Y-69833333D01*
X95369833Y-69800000D01*
X95403166Y-69766666D01*
X95436500Y-69800000D01*
X95369833Y-69800000D01*
X95636500Y-69800000D02*
X96036500Y-69766666D01*
X96069833Y-69800000D01*
X96036500Y-69833333D01*
X95636500Y-69800000D01*
X96069833Y-69800000D01*
D12*
%TO.C,J1*%
X100640000Y-62340000D02*
X100640000Y-72460000D01*
X101400000Y-62350000D02*
X100650000Y-62350000D01*
X102900000Y-63100000D02*
X105850000Y-63100000D01*
X100650000Y-65650000D02*
X100650000Y-69150000D01*
X102900000Y-62350000D02*
X102900000Y-63100000D01*
X106610000Y-62340000D02*
X100640000Y-62340000D01*
X100640000Y-72460000D02*
X106610000Y-72460000D01*
X102900000Y-71700000D02*
X105850000Y-71700000D01*
X105850000Y-63100000D02*
X105850000Y-67400000D01*
X100650000Y-69150000D02*
X101400000Y-69150000D01*
X100350000Y-71500000D02*
X100350000Y-72750000D01*
X101400000Y-70650000D02*
X100650000Y-70650000D01*
X102900000Y-72450000D02*
X102900000Y-71700000D01*
X100650000Y-62350000D02*
X100650000Y-64150000D01*
X101400000Y-72450000D02*
X101400000Y-70650000D01*
X100650000Y-64150000D02*
X101400000Y-64150000D01*
X101400000Y-69150000D02*
X101400000Y-65650000D01*
X106610000Y-72460000D02*
X106610000Y-62340000D01*
X101400000Y-64150000D02*
X101400000Y-62350000D01*
X101400000Y-65650000D02*
X100650000Y-65650000D01*
X105850000Y-71700000D02*
X105850000Y-67400000D01*
X100650000Y-72450000D02*
X101400000Y-72450000D01*
X100350000Y-72750000D02*
X101600000Y-72750000D01*
X100650000Y-70650000D02*
X100650000Y-72450000D01*
%TD*%
%LPC*%
D13*
%TO.C,J1*%
X103100000Y-69900000D03*
D14*
X103100000Y-67400000D03*
X103100000Y-64900000D03*
%TD*%
D15*
%TO.C,H6*%
X97706000Y-62000000D03*
%TD*%
%TO.C,H5*%
X97706000Y-72800000D03*
%TD*%
%TO.C,H4*%
X108506000Y-67400000D03*
%TD*%
M02*
