%TF.GenerationSoftware,KiCad,Pcbnew,(6.0.0-0)*%
%TF.CreationDate,2022-09-17T09:57:17-07:00*%
%TF.ProjectId,Untitled,556e7469-746c-4656-942e-6b696361645f,rev?*%
%TF.SameCoordinates,Original*%
%TF.FileFunction,Copper,L1,Top*%
%TF.FilePolarity,Positive*%
%FSLAX46Y46*%
G04 Gerber Fmt 4.6, Leading zero omitted, Abs format (unit mm)*
G04 Created by KiCad (PCBNEW (6.0.0-0)) date 2022-09-17 09:57:17*
%MOMM*%
%LPD*%
G01*
G04 APERTURE LIST*
G04 Aperture macros list*
%AMRoundRect*
0 Rectangle with rounded corners*
0 $1 Rounding radius*
0 $2 $3 $4 $5 $6 $7 $8 $9 X,Y pos of 4 corners*
0 Add a 4 corners polygon primitive as box body*
4,1,4,$2,$3,$4,$5,$6,$7,$8,$9,$2,$3,0*
0 Add four circle primitives for the rounded corners*
1,1,$1+$1,$2,$3*
1,1,$1+$1,$4,$5*
1,1,$1+$1,$6,$7*
1,1,$1+$1,$8,$9*
0 Add four rect primitives between the rounded corners*
20,1,$1+$1,$2,$3,$4,$5,0*
20,1,$1+$1,$4,$5,$6,$7,0*
20,1,$1+$1,$6,$7,$8,$9,0*
20,1,$1+$1,$8,$9,$2,$3,0*%
G04 Aperture macros list end*
%TA.AperFunction,ComponentPad*%
%ADD10RoundRect,0.250000X0.725000X-0.600000X0.725000X0.600000X-0.725000X0.600000X-0.725000X-0.600000X0*%
%TD*%
%TA.AperFunction,ComponentPad*%
%ADD11O,1.950000X1.700000*%
%TD*%
%TA.AperFunction,ComponentPad*%
%ADD12C,6.350000*%
%TD*%
G04 APERTURE END LIST*
D10*
%TO.P,J1,1*%
%TO.N,VCC*%
X103100000Y-69900000D03*
D11*
%TO.P,J1,2*%
%TO.N,S*%
X103100000Y-67400000D03*
%TO.P,J1,3*%
%TO.N,SW_NC*%
X103100000Y-64900000D03*
%TD*%
D12*
%TO.P,H6,1,1*%
%TO.N,SW_NC*%
X97706000Y-62000000D03*
%TD*%
%TO.P,H5,1,1*%
%TO.N,SW_NO*%
X97706000Y-72800000D03*
%TD*%
%TO.P,H4,1,1*%
%TO.N,S*%
X108506000Y-67400000D03*
%TD*%
%TA.AperFunction,Conductor*%
%TO.N,SW_NC*%
G36*
X109820056Y-59409500D02*
G01*
X109822284Y-59409847D01*
X109834859Y-59411805D01*
X109834861Y-59411805D01*
X109843730Y-59413186D01*
X109852632Y-59412022D01*
X109852634Y-59412022D01*
X109858959Y-59411195D01*
X109884282Y-59410452D01*
X110048126Y-59422170D01*
X110053343Y-59422543D01*
X110071137Y-59425101D01*
X110261540Y-59466521D01*
X110278788Y-59471586D01*
X110461358Y-59539682D01*
X110477710Y-59547149D01*
X110478842Y-59547767D01*
X110648734Y-59640534D01*
X110663848Y-59650248D01*
X110773516Y-59732344D01*
X110819842Y-59767023D01*
X110833428Y-59778796D01*
X110971204Y-59916572D01*
X110982977Y-59930158D01*
X111099752Y-60086152D01*
X111109469Y-60101271D01*
X111202851Y-60272290D01*
X111210318Y-60288642D01*
X111278414Y-60471212D01*
X111283480Y-60488462D01*
X111324899Y-60678863D01*
X111327457Y-60696658D01*
X111338942Y-60857239D01*
X111339041Y-60858629D01*
X111338297Y-60876533D01*
X111338195Y-60884858D01*
X111336814Y-60893730D01*
X111337978Y-60902632D01*
X111337978Y-60902635D01*
X111340936Y-60925251D01*
X111342000Y-60941589D01*
X111342000Y-64722554D01*
X111321998Y-64790675D01*
X111268342Y-64837168D01*
X111198068Y-64847272D01*
X111133488Y-64817778D01*
X111126905Y-64811649D01*
X110974125Y-64658869D01*
X110674078Y-64415896D01*
X110350278Y-64205618D01*
X110347344Y-64204123D01*
X110347337Y-64204119D01*
X110009210Y-64031835D01*
X110006270Y-64030337D01*
X109785453Y-63945574D01*
X109648916Y-63893162D01*
X109648914Y-63893161D01*
X109645826Y-63891976D01*
X109272894Y-63792049D01*
X109070357Y-63759970D01*
X108894807Y-63732165D01*
X108894799Y-63732164D01*
X108891559Y-63731651D01*
X108506000Y-63711445D01*
X108120441Y-63731651D01*
X108117201Y-63732164D01*
X108117193Y-63732165D01*
X107941643Y-63759970D01*
X107739106Y-63792049D01*
X107366174Y-63891976D01*
X107363086Y-63893161D01*
X107363084Y-63893162D01*
X107226547Y-63945574D01*
X107005730Y-64030337D01*
X107002790Y-64031835D01*
X106664664Y-64204119D01*
X106664657Y-64204123D01*
X106661723Y-64205618D01*
X106337922Y-64415896D01*
X106037875Y-64658869D01*
X105764869Y-64931875D01*
X105521896Y-65231922D01*
X105520094Y-65234697D01*
X105347137Y-65501029D01*
X105311618Y-65555723D01*
X105310123Y-65558657D01*
X105310119Y-65558664D01*
X105187756Y-65798814D01*
X105136337Y-65899730D01*
X105090237Y-66019826D01*
X105017740Y-66208688D01*
X104997976Y-66260174D01*
X104898049Y-66633106D01*
X104873323Y-66789217D01*
X104839424Y-67003248D01*
X104837651Y-67014441D01*
X104832511Y-67112516D01*
X104827209Y-67213693D01*
X104803670Y-67280674D01*
X104747654Y-67324295D01*
X104676948Y-67330707D01*
X104613999Y-67297875D01*
X104578067Y-67232973D01*
X104532002Y-67013428D01*
X104530907Y-67008209D01*
X104446224Y-66793779D01*
X104326623Y-66596683D01*
X104239755Y-66496576D01*
X104179023Y-66426588D01*
X104179021Y-66426586D01*
X104175523Y-66422555D01*
X104133970Y-66388484D01*
X104001373Y-66279760D01*
X104001367Y-66279756D01*
X103997245Y-66276376D01*
X103992602Y-66273733D01*
X103965265Y-66258171D01*
X103915959Y-66207088D01*
X103902098Y-66137458D01*
X103928082Y-66071387D01*
X103957232Y-66044149D01*
X104074578Y-65965148D01*
X104082870Y-65958481D01*
X104241900Y-65806772D01*
X104248941Y-65798814D01*
X104380141Y-65622475D01*
X104385745Y-65613438D01*
X104485357Y-65417516D01*
X104489357Y-65407665D01*
X104554534Y-65197760D01*
X104556817Y-65187376D01*
X104558861Y-65171957D01*
X104556665Y-65157793D01*
X104543478Y-65154000D01*
X101658808Y-65154000D01*
X101645277Y-65157973D01*
X101643752Y-65168580D01*
X101668477Y-65286421D01*
X101671537Y-65296617D01*
X101752263Y-65501029D01*
X101756994Y-65510561D01*
X101871016Y-65698462D01*
X101877280Y-65707052D01*
X102021327Y-65873052D01*
X102028958Y-65880472D01*
X102198911Y-66019826D01*
X102207674Y-66025848D01*
X102234711Y-66041238D01*
X102284018Y-66092320D01*
X102297880Y-66161951D01*
X102271897Y-66228022D01*
X102242747Y-66255261D01*
X102215310Y-66273733D01*
X102120681Y-66337441D01*
X101953865Y-66496576D01*
X101816246Y-66681542D01*
X101711760Y-66887051D01*
X101710178Y-66892145D01*
X101710177Y-66892148D01*
X101672204Y-67014441D01*
X101643393Y-67107227D01*
X101642692Y-67112516D01*
X101620405Y-67280674D01*
X101613102Y-67335774D01*
X101621751Y-67566158D01*
X101669093Y-67791791D01*
X101753776Y-68006221D01*
X101873377Y-68203317D01*
X101876874Y-68207347D01*
X101963438Y-68307103D01*
X102024477Y-68377445D01*
X102060120Y-68406670D01*
X102100114Y-68465329D01*
X102102046Y-68536299D01*
X102065302Y-68597048D01*
X102046532Y-68611248D01*
X101915579Y-68692285D01*
X101900652Y-68701522D01*
X101775695Y-68826697D01*
X101771855Y-68832927D01*
X101771854Y-68832928D01*
X101728532Y-68903210D01*
X101682885Y-68977262D01*
X101627203Y-69145139D01*
X101626503Y-69151975D01*
X101626502Y-69151978D01*
X101622397Y-69192049D01*
X101616500Y-69249600D01*
X101616500Y-70550400D01*
X101616837Y-70553646D01*
X101616837Y-70553650D01*
X101624959Y-70631922D01*
X101627474Y-70656166D01*
X101683450Y-70823946D01*
X101776522Y-70974348D01*
X101901697Y-71099305D01*
X101907927Y-71103145D01*
X101907928Y-71103146D01*
X102045090Y-71187694D01*
X102052262Y-71192115D01*
X102132005Y-71218564D01*
X102213611Y-71245632D01*
X102213613Y-71245632D01*
X102220139Y-71247797D01*
X102226975Y-71248497D01*
X102226978Y-71248498D01*
X102270031Y-71252909D01*
X102324600Y-71258500D01*
X103875400Y-71258500D01*
X103878646Y-71258163D01*
X103878650Y-71258163D01*
X103974308Y-71248238D01*
X103974312Y-71248237D01*
X103981166Y-71247526D01*
X103987702Y-71245345D01*
X103987704Y-71245345D01*
X104119806Y-71201272D01*
X104148946Y-71191550D01*
X104299348Y-71098478D01*
X104424305Y-70973303D01*
X104435142Y-70955723D01*
X104513275Y-70828968D01*
X104513276Y-70828966D01*
X104517115Y-70822738D01*
X104572797Y-70654861D01*
X104583500Y-70550400D01*
X104583500Y-69249600D01*
X104582643Y-69241336D01*
X104573238Y-69150692D01*
X104573237Y-69150688D01*
X104572526Y-69143834D01*
X104568462Y-69131651D01*
X104518868Y-68983002D01*
X104516550Y-68976054D01*
X104423478Y-68825652D01*
X104298303Y-68700695D01*
X104152660Y-68610919D01*
X104105168Y-68558148D01*
X104093744Y-68488076D01*
X104122018Y-68422952D01*
X104131805Y-68412490D01*
X104242278Y-68307103D01*
X104246135Y-68303424D01*
X104383754Y-68118458D01*
X104488240Y-67912949D01*
X104524321Y-67796752D01*
X104555024Y-67697871D01*
X104556607Y-67692773D01*
X104557308Y-67687484D01*
X104575217Y-67552361D01*
X104603996Y-67487459D01*
X104663296Y-67448419D01*
X104734288Y-67447636D01*
X104794434Y-67485358D01*
X104824637Y-67549610D01*
X104825952Y-67562318D01*
X104837651Y-67785559D01*
X104838164Y-67788799D01*
X104838165Y-67788807D01*
X104857020Y-67907852D01*
X104898049Y-68166894D01*
X104997976Y-68539826D01*
X105136337Y-68900270D01*
X105137835Y-68903210D01*
X105260440Y-69143834D01*
X105311618Y-69244277D01*
X105521896Y-69568078D01*
X105764869Y-69868125D01*
X106037875Y-70141131D01*
X106337922Y-70384104D01*
X106340697Y-70385906D01*
X106593996Y-70550400D01*
X106661722Y-70594382D01*
X106664656Y-70595877D01*
X106664663Y-70595881D01*
X106795811Y-70662704D01*
X107005730Y-70769663D01*
X107366174Y-70908024D01*
X107739106Y-71007951D01*
X107941643Y-71040030D01*
X108117193Y-71067835D01*
X108117201Y-71067836D01*
X108120441Y-71068349D01*
X108506000Y-71088555D01*
X108891559Y-71068349D01*
X108894799Y-71067836D01*
X108894807Y-71067835D01*
X109070357Y-71040030D01*
X109272894Y-71007951D01*
X109645826Y-70908024D01*
X110006270Y-70769663D01*
X110216189Y-70662704D01*
X110347337Y-70595881D01*
X110347344Y-70595877D01*
X110350278Y-70594382D01*
X110418005Y-70550400D01*
X110671303Y-70385906D01*
X110674078Y-70384104D01*
X110974125Y-70141131D01*
X111126905Y-69988351D01*
X111189217Y-69954325D01*
X111260032Y-69959390D01*
X111316868Y-70001937D01*
X111341679Y-70068457D01*
X111342000Y-70077446D01*
X111342000Y-73800672D01*
X111340500Y-73820056D01*
X111336814Y-73843730D01*
X111337978Y-73852632D01*
X111337978Y-73852634D01*
X111338805Y-73858959D01*
X111339548Y-73884282D01*
X111327830Y-74048126D01*
X111327457Y-74053343D01*
X111324899Y-74071137D01*
X111283480Y-74261538D01*
X111278414Y-74278788D01*
X111210318Y-74461358D01*
X111202851Y-74477710D01*
X111110388Y-74647046D01*
X111109469Y-74648729D01*
X111099752Y-74663848D01*
X111042016Y-74740975D01*
X110982977Y-74819842D01*
X110971204Y-74833428D01*
X110833428Y-74971204D01*
X110819841Y-74982977D01*
X110663848Y-75099752D01*
X110648734Y-75109466D01*
X110598847Y-75136706D01*
X110477710Y-75202851D01*
X110461358Y-75210318D01*
X110278788Y-75278414D01*
X110261540Y-75283479D01*
X110098022Y-75319051D01*
X110071137Y-75324899D01*
X110053342Y-75327457D01*
X110004443Y-75330954D01*
X109891369Y-75339041D01*
X109873467Y-75338297D01*
X109865142Y-75338195D01*
X109856270Y-75336814D01*
X109847368Y-75337978D01*
X109847365Y-75337978D01*
X109824749Y-75340936D01*
X109808411Y-75342000D01*
X100651472Y-75342000D01*
X100583351Y-75321998D01*
X100536858Y-75268342D01*
X100526754Y-75198068D01*
X100553552Y-75136706D01*
X100688018Y-74970654D01*
X100690104Y-74968078D01*
X100900382Y-74644277D01*
X100985253Y-74477710D01*
X101074165Y-74303210D01*
X101075663Y-74300270D01*
X101214024Y-73939826D01*
X101313951Y-73566894D01*
X101374349Y-73185559D01*
X101394555Y-72800000D01*
X101374349Y-72414441D01*
X101313951Y-72033106D01*
X101214024Y-71660174D01*
X101075663Y-71299730D01*
X101054488Y-71258172D01*
X100901881Y-70958664D01*
X100901877Y-70958657D01*
X100900382Y-70955723D01*
X100809510Y-70815791D01*
X100705001Y-70654861D01*
X100690104Y-70631922D01*
X100447131Y-70331875D01*
X100174125Y-70058869D01*
X99874078Y-69815896D01*
X99550278Y-69605618D01*
X99547344Y-69604123D01*
X99547337Y-69604119D01*
X99209210Y-69431835D01*
X99206270Y-69430337D01*
X98845826Y-69291976D01*
X98472894Y-69192049D01*
X98219898Y-69151978D01*
X98094807Y-69132165D01*
X98094799Y-69132164D01*
X98091559Y-69131651D01*
X97706000Y-69111445D01*
X97320441Y-69131651D01*
X97317201Y-69132164D01*
X97317193Y-69132165D01*
X97192102Y-69151978D01*
X96939106Y-69192049D01*
X96566174Y-69291976D01*
X96205730Y-69430337D01*
X96202790Y-69431835D01*
X95864664Y-69604119D01*
X95864657Y-69604123D01*
X95861723Y-69605618D01*
X95537922Y-69815896D01*
X95237875Y-70058869D01*
X95123095Y-70173649D01*
X95060783Y-70207675D01*
X94989968Y-70202610D01*
X94933132Y-70160063D01*
X94908321Y-70093543D01*
X94908000Y-70084554D01*
X94908000Y-64779611D01*
X95291536Y-64779611D01*
X95298993Y-64789979D01*
X95535640Y-64981612D01*
X95540991Y-64985500D01*
X95859204Y-65192150D01*
X95864914Y-65195447D01*
X96202993Y-65367707D01*
X96209018Y-65370389D01*
X96563239Y-65506362D01*
X96569521Y-65508403D01*
X96936021Y-65606606D01*
X96942471Y-65607977D01*
X97317245Y-65667336D01*
X97323783Y-65668022D01*
X97702699Y-65687881D01*
X97709301Y-65687881D01*
X98088217Y-65668022D01*
X98094755Y-65667336D01*
X98469529Y-65607977D01*
X98475979Y-65606606D01*
X98842479Y-65508403D01*
X98848761Y-65506362D01*
X99202982Y-65370389D01*
X99209007Y-65367707D01*
X99547086Y-65195447D01*
X99552796Y-65192150D01*
X99871009Y-64985500D01*
X99876360Y-64981612D01*
X100112055Y-64790749D01*
X100120523Y-64778491D01*
X100114190Y-64767401D01*
X99974832Y-64628043D01*
X101641139Y-64628043D01*
X101643335Y-64642207D01*
X101656522Y-64646000D01*
X102827885Y-64646000D01*
X102843124Y-64641525D01*
X102844329Y-64640135D01*
X102846000Y-64632452D01*
X102846000Y-64627885D01*
X103354000Y-64627885D01*
X103358475Y-64643124D01*
X103359865Y-64644329D01*
X103367548Y-64646000D01*
X104541192Y-64646000D01*
X104554723Y-64642027D01*
X104556248Y-64631420D01*
X104531523Y-64513579D01*
X104528463Y-64503383D01*
X104447737Y-64298971D01*
X104443006Y-64289439D01*
X104328984Y-64101538D01*
X104322720Y-64092948D01*
X104178673Y-63926948D01*
X104171042Y-63919528D01*
X104001089Y-63780174D01*
X103992322Y-63774150D01*
X103801318Y-63665424D01*
X103791654Y-63660959D01*
X103585059Y-63585969D01*
X103574792Y-63583198D01*
X103371826Y-63546496D01*
X103358586Y-63547915D01*
X103354000Y-63562550D01*
X103354000Y-64627885D01*
X102846000Y-64627885D01*
X102846000Y-63566151D01*
X102841690Y-63551473D01*
X102829807Y-63549410D01*
X102750675Y-63556124D01*
X102740203Y-63557914D01*
X102527465Y-63613130D01*
X102517425Y-63616665D01*
X102317030Y-63706937D01*
X102307744Y-63712106D01*
X102125425Y-63834850D01*
X102117130Y-63841519D01*
X101958100Y-63993228D01*
X101951059Y-64001186D01*
X101819859Y-64177525D01*
X101814255Y-64186562D01*
X101714643Y-64382484D01*
X101710643Y-64392335D01*
X101645466Y-64602240D01*
X101643183Y-64612624D01*
X101641139Y-64628043D01*
X99974832Y-64628043D01*
X97718810Y-62372020D01*
X97704869Y-62364408D01*
X97703034Y-62364539D01*
X97696420Y-62368790D01*
X95298676Y-64766535D01*
X95291536Y-64779611D01*
X94908000Y-64779611D01*
X94908000Y-64490979D01*
X94928002Y-64422858D01*
X94944905Y-64401884D01*
X97616905Y-61729885D01*
X97679217Y-61695859D01*
X97750033Y-61700924D01*
X97795095Y-61729885D01*
X100472535Y-64407324D01*
X100485611Y-64414464D01*
X100495979Y-64407007D01*
X100687612Y-64170360D01*
X100691500Y-64165009D01*
X100898150Y-63846796D01*
X100901447Y-63841086D01*
X101073707Y-63503007D01*
X101076389Y-63496982D01*
X101212362Y-63142761D01*
X101214403Y-63136479D01*
X101312606Y-62769979D01*
X101313977Y-62763529D01*
X101373336Y-62388755D01*
X101374022Y-62382217D01*
X101393881Y-62003301D01*
X101393881Y-61996699D01*
X101374022Y-61617783D01*
X101373336Y-61611245D01*
X101313977Y-61236471D01*
X101312606Y-61230021D01*
X101214403Y-60863521D01*
X101212362Y-60857239D01*
X101076389Y-60503018D01*
X101073707Y-60496993D01*
X100901447Y-60158914D01*
X100898150Y-60153204D01*
X100691500Y-59834991D01*
X100687621Y-59829652D01*
X100512418Y-59613294D01*
X100485093Y-59547767D01*
X100497533Y-59477868D01*
X100545787Y-59425791D01*
X100610339Y-59408000D01*
X109800672Y-59408000D01*
X109820056Y-59409500D01*
G37*
%TD.AperFunction*%
%TD*%
M02*
