%TF.GenerationSoftware,KiCad,Pcbnew,(7.0.0-0)*%
%TF.CreationDate,2023-03-24T11:45:06-07:00*%
%TF.ProjectId,dfh_badge,6466685f-6261-4646-9765-2e6b69636164,rev?*%
%TF.SameCoordinates,Original*%
%TF.FileFunction,Soldermask,Top*%
%TF.FilePolarity,Negative*%
%FSLAX46Y46*%
G04 Gerber Fmt 4.6, Leading zero omitted, Abs format (unit mm)*
G04 Created by KiCad (PCBNEW (7.0.0-0)) date 2023-03-24 11:45:06*
%MOMM*%
%LPD*%
G01*
G04 APERTURE LIST*
G04 Aperture macros list*
%AMRoundRect*
0 Rectangle with rounded corners*
0 $1 Rounding radius*
0 $2 $3 $4 $5 $6 $7 $8 $9 X,Y pos of 4 corners*
0 Add a 4 corners polygon primitive as box body*
4,1,4,$2,$3,$4,$5,$6,$7,$8,$9,$2,$3,0*
0 Add four circle primitives for the rounded corners*
1,1,$1+$1,$2,$3*
1,1,$1+$1,$4,$5*
1,1,$1+$1,$6,$7*
1,1,$1+$1,$8,$9*
0 Add four rect primitives between the rounded corners*
20,1,$1+$1,$2,$3,$4,$5,0*
20,1,$1+$1,$4,$5,$6,$7,0*
20,1,$1+$1,$6,$7,$8,$9,0*
20,1,$1+$1,$8,$9,$2,$3,0*%
G04 Aperture macros list end*
%ADD10RoundRect,0.225000X0.250000X-0.225000X0.250000X0.225000X-0.250000X0.225000X-0.250000X-0.225000X0*%
%ADD11RoundRect,0.225000X0.225000X0.250000X-0.225000X0.250000X-0.225000X-0.250000X0.225000X-0.250000X0*%
%ADD12R,0.900000X1.500000*%
%ADD13RoundRect,0.150000X0.512500X0.150000X-0.512500X0.150000X-0.512500X-0.150000X0.512500X-0.150000X0*%
%ADD14C,3.200000*%
%ADD15RoundRect,0.200000X-0.275000X0.200000X-0.275000X-0.200000X0.275000X-0.200000X0.275000X0.200000X0*%
%ADD16RoundRect,0.225000X-0.225000X-0.250000X0.225000X-0.250000X0.225000X0.250000X-0.225000X0.250000X0*%
%ADD17RoundRect,0.200000X-0.200000X-0.275000X0.200000X-0.275000X0.200000X0.275000X-0.200000X0.275000X0*%
%ADD18RoundRect,0.250000X-0.250000X-0.475000X0.250000X-0.475000X0.250000X0.475000X-0.250000X0.475000X0*%
%ADD19RoundRect,0.200000X0.200000X0.275000X-0.200000X0.275000X-0.200000X-0.275000X0.200000X-0.275000X0*%
%ADD20R,1.300000X0.420000*%
%ADD21RoundRect,0.250000X0.250000X0.475000X-0.250000X0.475000X-0.250000X-0.475000X0.250000X-0.475000X0*%
%ADD22C,0.600000*%
%ADD23R,1.150000X1.300000*%
%ADD24R,0.900000X1.200000*%
%ADD25RoundRect,0.250000X0.475000X-0.250000X0.475000X0.250000X-0.475000X0.250000X-0.475000X-0.250000X0*%
%ADD26C,2.000000*%
%ADD27C,1.300000*%
%ADD28RoundRect,0.250000X0.250000X-1.250000X0.250000X1.250000X-0.250000X1.250000X-0.250000X-1.250000X0*%
%ADD29RoundRect,0.750000X-0.750000X-2.000000X0.750000X-2.000000X0.750000X2.000000X-0.750000X2.000000X0*%
%ADD30RoundRect,0.150000X0.150000X-0.512500X0.150000X0.512500X-0.150000X0.512500X-0.150000X-0.512500X0*%
%ADD31RoundRect,0.250000X-1.500000X0.250000X-1.500000X-0.250000X1.500000X-0.250000X1.500000X0.250000X0*%
%ADD32RoundRect,0.250001X-1.449999X0.499999X-1.449999X-0.499999X1.449999X-0.499999X1.449999X0.499999X0*%
%ADD33R,1.500000X0.650000*%
%ADD34R,1.350000X1.800000*%
%ADD35RoundRect,0.225000X0.225000X0.375000X-0.225000X0.375000X-0.225000X-0.375000X0.225000X-0.375000X0*%
%ADD36R,3.700000X1.100000*%
%ADD37RoundRect,0.250000X-0.475000X0.250000X-0.475000X-0.250000X0.475000X-0.250000X0.475000X0.250000X0*%
%ADD38RoundRect,0.250000X0.262500X0.450000X-0.262500X0.450000X-0.262500X-0.450000X0.262500X-0.450000X0*%
%ADD39O,1.800000X1.800000*%
%ADD40O,1.500000X1.500000*%
%ADD41R,3.500000X1.700000*%
%ADD42RoundRect,0.218750X0.256250X-0.218750X0.256250X0.218750X-0.256250X0.218750X-0.256250X-0.218750X0*%
%ADD43RoundRect,0.218750X-0.256250X0.218750X-0.256250X-0.218750X0.256250X-0.218750X0.256250X0.218750X0*%
%ADD44R,0.650000X1.500000*%
%ADD45R,1.800000X1.350000*%
%ADD46RoundRect,0.150000X0.150000X-0.587500X0.150000X0.587500X-0.150000X0.587500X-0.150000X-0.587500X0*%
%ADD47RoundRect,0.200000X0.275000X-0.200000X0.275000X0.200000X-0.275000X0.200000X-0.275000X-0.200000X0*%
G04 APERTURE END LIST*
D10*
%TO.C,C22*%
X41275000Y-81350000D03*
X41275000Y-79800000D03*
%TD*%
D11*
%TO.C,C45*%
X115975001Y-141752500D03*
X114425001Y-141752500D03*
%TD*%
D12*
%TO.C,D26*%
X97324999Y-50574999D03*
X94024999Y-50574999D03*
X94024999Y-55474999D03*
X97324999Y-55474999D03*
%TD*%
D13*
%TO.C,U2*%
X40237500Y-167950000D03*
X40237500Y-167000000D03*
X40237500Y-166050000D03*
X37962500Y-166050000D03*
X37962500Y-167950000D03*
%TD*%
D14*
%TO.C,REF\u002A\u002A*%
X33000000Y-24075000D03*
%TD*%
D15*
%TO.C,R23*%
X111450000Y-168075000D03*
X111450000Y-169725000D03*
%TD*%
D16*
%TO.C,C40*%
X36540000Y-87725000D03*
X38090000Y-87725000D03*
%TD*%
D17*
%TO.C,R9*%
X53020000Y-159500000D03*
X54670000Y-159500000D03*
%TD*%
D18*
%TO.C,C5*%
X57190000Y-142170000D03*
X59090000Y-142170000D03*
%TD*%
D19*
%TO.C,R16*%
X58735000Y-140400000D03*
X57085000Y-140400000D03*
%TD*%
D20*
%TO.C,D33*%
X37849999Y-113534999D03*
X37849999Y-114384999D03*
X37849999Y-115234999D03*
X37849999Y-116084999D03*
%TD*%
D10*
%TO.C,C12*%
X89775000Y-95350000D03*
X89775000Y-93800000D03*
%TD*%
%TO.C,C29*%
X101775000Y-53800000D03*
X101775000Y-52250000D03*
%TD*%
D21*
%TO.C,C10*%
X51595000Y-146500000D03*
X49695000Y-146500000D03*
%TD*%
D22*
%TO.C,SW2*%
X89150000Y-20625000D03*
X90850000Y-20625000D03*
D23*
X88324999Y-22174999D03*
X91674999Y-22174999D03*
D24*
X87699999Y-20624999D03*
X92299999Y-20624999D03*
%TD*%
D20*
%TO.C,D39*%
X114399999Y-91929999D03*
X114399999Y-91079999D03*
X114399999Y-90229999D03*
X114399999Y-89379999D03*
%TD*%
D12*
%TO.C,D13*%
X109424999Y-78124999D03*
X106124999Y-78124999D03*
X106124999Y-83024999D03*
X109424999Y-83024999D03*
%TD*%
D20*
%TO.C,D36*%
X37949999Y-41999999D03*
X37949999Y-42849999D03*
X37949999Y-43699999D03*
X37949999Y-44549999D03*
%TD*%
%TO.C,D42*%
X114487499Y-163474999D03*
X114487499Y-162624999D03*
X114487499Y-161774999D03*
X114487499Y-160924999D03*
%TD*%
D10*
%TO.C,C32*%
X65275000Y-53800000D03*
X65275000Y-52250000D03*
%TD*%
D25*
%TO.C,C1*%
X57350000Y-129295000D03*
X57350000Y-127395000D03*
%TD*%
D12*
%TO.C,D8*%
X97324999Y-92124999D03*
X94024999Y-92124999D03*
X94024999Y-97024999D03*
X97324999Y-97024999D03*
%TD*%
D26*
%TO.C,FID1*%
X33100000Y-169500000D03*
%TD*%
D15*
%TO.C,R6*%
X117000000Y-56775000D03*
X117000000Y-58425000D03*
%TD*%
D20*
%TO.C,D40*%
X114399999Y-115769999D03*
X114399999Y-114919999D03*
X114399999Y-114069999D03*
X114399999Y-113219999D03*
%TD*%
D27*
%TO.C,J2*%
X48100000Y-173200000D03*
X53100000Y-173200000D03*
D28*
X47300000Y-168800000D03*
X49450000Y-168800000D03*
X51750000Y-168800000D03*
X53900000Y-168800000D03*
D29*
X43100000Y-171500000D03*
X58100000Y-171500000D03*
%TD*%
D12*
%TO.C,D14*%
X97324999Y-78124999D03*
X94024999Y-78124999D03*
X94024999Y-83024999D03*
X97324999Y-83024999D03*
%TD*%
%TO.C,D24*%
X48924999Y-64124999D03*
X45624999Y-64124999D03*
X45624999Y-69024999D03*
X48924999Y-69024999D03*
%TD*%
D19*
%TO.C,R17*%
X58735000Y-138900000D03*
X57085000Y-138900000D03*
%TD*%
D26*
%TO.C,FID2*%
X112800000Y-30100000D03*
%TD*%
D10*
%TO.C,C26*%
X65275000Y-67350000D03*
X65275000Y-65800000D03*
%TD*%
%TO.C,C16*%
X41275000Y-95350000D03*
X41275000Y-93800000D03*
%TD*%
D12*
%TO.C,D28*%
X73124999Y-50574999D03*
X69824999Y-50574999D03*
X69824999Y-55474999D03*
X73124999Y-55474999D03*
%TD*%
D16*
%TO.C,C35*%
X36539999Y-39725000D03*
X38089999Y-39725000D03*
%TD*%
D20*
%TO.C,D41*%
X114399999Y-139609999D03*
X114399999Y-138759999D03*
X114399999Y-137909999D03*
X114399999Y-137059999D03*
%TD*%
D10*
%TO.C,C33*%
X53275000Y-53800000D03*
X53275000Y-52250000D03*
%TD*%
D30*
%TO.C,U1*%
X104050000Y-128137500D03*
X105000000Y-128137500D03*
X105950000Y-128137500D03*
X105950000Y-125862500D03*
X104050000Y-125862500D03*
%TD*%
D12*
%TO.C,D29*%
X61024999Y-50574999D03*
X57724999Y-50574999D03*
X57724999Y-55474999D03*
X61024999Y-55474999D03*
%TD*%
D14*
%TO.C,REF\u002A\u002A*%
X119250000Y-177000000D03*
%TD*%
D20*
%TO.C,D38*%
X114399999Y-68089999D03*
X114399999Y-67239999D03*
X114399999Y-66389999D03*
X114399999Y-65539999D03*
%TD*%
D10*
%TO.C,C11*%
X101775000Y-95350000D03*
X101775000Y-93800000D03*
%TD*%
D12*
%TO.C,D25*%
X109424999Y-50574999D03*
X106124999Y-50574999D03*
X106124999Y-55474999D03*
X109424999Y-55474999D03*
%TD*%
D10*
%TO.C,C18*%
X89775000Y-81350000D03*
X89775000Y-79800000D03*
%TD*%
%TO.C,C25*%
X77775000Y-67350000D03*
X77775000Y-65800000D03*
%TD*%
D31*
%TO.C,J1*%
X50850000Y-128500000D03*
X50850000Y-130500000D03*
D32*
X45100000Y-126150000D03*
X45100000Y-132850000D03*
%TD*%
D20*
%TO.C,D35*%
X37849999Y-65854999D03*
X37849999Y-66704999D03*
X37849999Y-67554999D03*
X37849999Y-68404999D03*
%TD*%
D10*
%TO.C,C17*%
X101775000Y-81350000D03*
X101775000Y-79800000D03*
%TD*%
D15*
%TO.C,R7*%
X57500000Y-131175000D03*
X57500000Y-132825000D03*
%TD*%
%TO.C,R14*%
X92250000Y-24175000D03*
X92250000Y-25825000D03*
%TD*%
D10*
%TO.C,C15*%
X53275000Y-95350000D03*
X53275000Y-93800000D03*
%TD*%
D16*
%TO.C,C36*%
X36815000Y-159225000D03*
X38365000Y-159225000D03*
%TD*%
D33*
%TO.C,U4*%
X64874999Y-131304999D03*
X64874999Y-130034999D03*
X64874999Y-128764999D03*
X64874999Y-127494999D03*
X59474999Y-127494999D03*
X59474999Y-128764999D03*
X59474999Y-130034999D03*
X59474999Y-131304999D03*
D34*
X62849999Y-130299999D03*
X62849999Y-128499999D03*
X61499999Y-130299999D03*
X61499999Y-128499999D03*
%TD*%
D10*
%TO.C,C23*%
X101775000Y-67350000D03*
X101775000Y-65800000D03*
%TD*%
%TO.C,C24*%
X89775000Y-67350000D03*
X89775000Y-65800000D03*
%TD*%
D16*
%TO.C,C39*%
X36540000Y-63725000D03*
X38090000Y-63725000D03*
%TD*%
D12*
%TO.C,D10*%
X73124999Y-92124999D03*
X69824999Y-92124999D03*
X69824999Y-97024999D03*
X73124999Y-97024999D03*
%TD*%
D10*
%TO.C,C34*%
X41275000Y-53800000D03*
X41275000Y-52250000D03*
%TD*%
D12*
%TO.C,D20*%
X97324999Y-64124999D03*
X94024999Y-64124999D03*
X94024999Y-69024999D03*
X97324999Y-69024999D03*
%TD*%
D21*
%TO.C,C4*%
X64850000Y-125500000D03*
X62950000Y-125500000D03*
%TD*%
D15*
%TO.C,R11*%
X107750000Y-21025000D03*
X107750000Y-22675000D03*
%TD*%
D12*
%TO.C,D23*%
X61024999Y-64124999D03*
X57724999Y-64124999D03*
X57724999Y-69024999D03*
X61024999Y-69024999D03*
%TD*%
D35*
%TO.C,D1*%
X60650000Y-135000000D03*
X57350000Y-135000000D03*
%TD*%
D21*
%TO.C,C3*%
X51545000Y-154500000D03*
X49645000Y-154500000D03*
%TD*%
D17*
%TO.C,R18*%
X48950000Y-164000000D03*
X50600000Y-164000000D03*
%TD*%
D14*
%TO.C,REF\u002A\u002A*%
X33000000Y-177000000D03*
%TD*%
D12*
%TO.C,D21*%
X85224999Y-64124999D03*
X81924999Y-64124999D03*
X81924999Y-69024999D03*
X85224999Y-69024999D03*
%TD*%
D10*
%TO.C,C27*%
X53275000Y-67350000D03*
X53275000Y-65800000D03*
%TD*%
D12*
%TO.C,D15*%
X85224999Y-78124999D03*
X81924999Y-78124999D03*
X81924999Y-83024999D03*
X85224999Y-83024999D03*
%TD*%
D15*
%TO.C,R5*%
X66505000Y-176725000D03*
X66505000Y-178375000D03*
%TD*%
D10*
%TO.C,C28*%
X41275000Y-67350000D03*
X41275000Y-65800000D03*
%TD*%
D20*
%TO.C,D34*%
X37849999Y-89694999D03*
X37849999Y-90544999D03*
X37849999Y-91394999D03*
X37849999Y-92244999D03*
%TD*%
D17*
%TO.C,R22*%
X51950000Y-165500000D03*
X53600000Y-165500000D03*
%TD*%
D36*
%TO.C,L1*%
X54094999Y-141999999D03*
X54094999Y-138999999D03*
%TD*%
D37*
%TO.C,C6*%
X50595000Y-140000000D03*
X50595000Y-141900000D03*
%TD*%
D19*
%TO.C,R21*%
X53600000Y-164000000D03*
X51950000Y-164000000D03*
%TD*%
D38*
%TO.C,F1*%
X54912500Y-156250000D03*
X53087500Y-156250000D03*
%TD*%
D39*
%TO.C,U3*%
X98724999Y-179569999D03*
D40*
X98424999Y-176539999D03*
X93574999Y-176539999D03*
D39*
X93274999Y-179569999D03*
D41*
X105789999Y-174619999D03*
X105789999Y-166999999D03*
X105789999Y-161919999D03*
X105789999Y-154299999D03*
X105789999Y-146679999D03*
X105789999Y-141599999D03*
X105789999Y-136519999D03*
X105789999Y-131439999D03*
X86209999Y-131439999D03*
X86209999Y-139059999D03*
X86209999Y-144139999D03*
X86209999Y-149219999D03*
X86209999Y-154299999D03*
X86209999Y-159379999D03*
X86209999Y-161919999D03*
X86209999Y-177159999D03*
X86209999Y-179699999D03*
%TD*%
D15*
%TO.C,R2*%
X79990000Y-154855000D03*
X79990000Y-156505000D03*
%TD*%
D12*
%TO.C,D27*%
X85224999Y-50574999D03*
X81924999Y-50574999D03*
X81924999Y-55474999D03*
X85224999Y-55474999D03*
%TD*%
D10*
%TO.C,C31*%
X77775000Y-53800000D03*
X77775000Y-52250000D03*
%TD*%
D20*
%TO.C,D37*%
X114399999Y-44249999D03*
X114399999Y-43399999D03*
X114399999Y-42549999D03*
X114399999Y-41699999D03*
%TD*%
D42*
%TO.C,D3*%
X103040000Y-21962500D03*
X103040000Y-20387500D03*
%TD*%
D11*
%TO.C,C44*%
X115975001Y-93752500D03*
X114425001Y-93752500D03*
%TD*%
D42*
%TO.C,D5*%
X106040000Y-21975000D03*
X106040000Y-20400000D03*
%TD*%
D10*
%TO.C,C13*%
X77775000Y-95350000D03*
X77775000Y-93800000D03*
%TD*%
D43*
%TO.C,D4*%
X104500000Y-20412500D03*
X104500000Y-21987500D03*
%TD*%
D26*
%TO.C,FID3*%
X39900000Y-29500000D03*
%TD*%
D11*
%TO.C,C43*%
X115975001Y-70252500D03*
X114425001Y-70252500D03*
%TD*%
D44*
%TO.C,U5*%
X53194999Y-152599999D03*
X54464999Y-152599999D03*
X55734999Y-152599999D03*
X57004999Y-152599999D03*
X57004999Y-147199999D03*
X55734999Y-147199999D03*
X54464999Y-147199999D03*
X53194999Y-147199999D03*
D45*
X54199999Y-150574999D03*
X55999999Y-150574999D03*
X54199999Y-149224999D03*
X55999999Y-149224999D03*
%TD*%
D19*
%TO.C,R13*%
X48325000Y-162000000D03*
X46675000Y-162000000D03*
%TD*%
D12*
%TO.C,D12*%
X48924999Y-92124999D03*
X45624999Y-92124999D03*
X45624999Y-97024999D03*
X48924999Y-97024999D03*
%TD*%
D19*
%TO.C,R15*%
X90000000Y-24250000D03*
X88350000Y-24250000D03*
%TD*%
D16*
%TO.C,C38*%
X36540000Y-111725000D03*
X38090000Y-111725000D03*
%TD*%
D14*
%TO.C,REF\u002A\u002A*%
X119250000Y-24075000D03*
%TD*%
D21*
%TO.C,C9*%
X51595000Y-148500000D03*
X49695000Y-148500000D03*
%TD*%
D11*
%TO.C,C46*%
X115975001Y-117752500D03*
X114425001Y-117752500D03*
%TD*%
D10*
%TO.C,C14*%
X65275000Y-95350000D03*
X65275000Y-93800000D03*
%TD*%
D43*
%TO.C,D2*%
X101500000Y-20412500D03*
X101500000Y-21987500D03*
%TD*%
D16*
%TO.C,C37*%
X36540000Y-135225000D03*
X38090000Y-135225000D03*
%TD*%
D15*
%TO.C,R4*%
X35700000Y-80975000D03*
X35700000Y-82625000D03*
%TD*%
D12*
%TO.C,D22*%
X73124999Y-64124999D03*
X69824999Y-64124999D03*
X69824999Y-69024999D03*
X73124999Y-69024999D03*
%TD*%
D10*
%TO.C,C20*%
X65275000Y-81350000D03*
X65275000Y-79800000D03*
%TD*%
D15*
%TO.C,R3*%
X80000000Y-157850000D03*
X80000000Y-159500000D03*
%TD*%
D10*
%TO.C,C21*%
X53275000Y-81350000D03*
X53275000Y-79800000D03*
%TD*%
D19*
%TO.C,R19*%
X50600000Y-165500000D03*
X48950000Y-165500000D03*
%TD*%
D46*
%TO.C,Q1*%
X43225000Y-161937500D03*
X45125000Y-161937500D03*
X44175000Y-160062500D03*
%TD*%
D22*
%TO.C,SW1*%
X71150000Y-180300000D03*
X69450000Y-180300000D03*
D23*
X71974999Y-178749999D03*
X68624999Y-178749999D03*
D24*
X72599999Y-180299999D03*
X67999999Y-180299999D03*
%TD*%
D12*
%TO.C,D7*%
X109424999Y-92124999D03*
X106124999Y-92124999D03*
X106124999Y-97024999D03*
X109424999Y-97024999D03*
%TD*%
%TO.C,D17*%
X61024999Y-78124999D03*
X57724999Y-78124999D03*
X57724999Y-83024999D03*
X61024999Y-83024999D03*
%TD*%
D11*
%TO.C,C42*%
X115700001Y-46252500D03*
X114150001Y-46252500D03*
%TD*%
D10*
%TO.C,C30*%
X89775000Y-53800000D03*
X89775000Y-52250000D03*
%TD*%
D20*
%TO.C,D32*%
X37849999Y-137374999D03*
X37849999Y-138224999D03*
X37849999Y-139074999D03*
X37849999Y-139924999D03*
%TD*%
D43*
%TO.C,D6*%
X94750000Y-20675000D03*
X94750000Y-22250000D03*
%TD*%
D10*
%TO.C,C19*%
X77775000Y-81350000D03*
X77775000Y-79800000D03*
%TD*%
D15*
%TO.C,R10*%
X107750000Y-24175000D03*
X107750000Y-25825000D03*
%TD*%
D12*
%TO.C,D16*%
X73124999Y-78124999D03*
X69824999Y-78124999D03*
X69824999Y-83024999D03*
X73124999Y-83024999D03*
%TD*%
D20*
%TO.C,D31*%
X37999999Y-161224999D03*
X37999999Y-162074999D03*
X37999999Y-162924999D03*
X37999999Y-163774999D03*
%TD*%
D19*
%TO.C,R8*%
X54670000Y-158000000D03*
X53020000Y-158000000D03*
%TD*%
D21*
%TO.C,C7*%
X51595000Y-152500000D03*
X49695000Y-152500000D03*
%TD*%
%TO.C,C8*%
X51595000Y-150500000D03*
X49695000Y-150500000D03*
%TD*%
D12*
%TO.C,D18*%
X48924999Y-78124999D03*
X45624999Y-78124999D03*
X45624999Y-83024999D03*
X48924999Y-83024999D03*
%TD*%
%TO.C,D9*%
X85224999Y-92124999D03*
X81924999Y-92124999D03*
X81924999Y-97024999D03*
X85224999Y-97024999D03*
%TD*%
D21*
%TO.C,C2*%
X51545000Y-159750000D03*
X49645000Y-159750000D03*
%TD*%
D12*
%TO.C,D19*%
X109424999Y-64124999D03*
X106124999Y-64124999D03*
X106124999Y-69024999D03*
X109424999Y-69024999D03*
%TD*%
%TO.C,D11*%
X61024999Y-92124999D03*
X57724999Y-92124999D03*
X57724999Y-97024999D03*
X61024999Y-97024999D03*
%TD*%
D47*
%TO.C,R20*%
X94750000Y-25787500D03*
X94750000Y-24137500D03*
%TD*%
D12*
%TO.C,D30*%
X48924999Y-50574999D03*
X45624999Y-50574999D03*
X45624999Y-55474999D03*
X48924999Y-55474999D03*
%TD*%
D15*
%TO.C,R12*%
X111450000Y-165050000D03*
X111450000Y-166700000D03*
%TD*%
D11*
%TO.C,C41*%
X115975002Y-165752500D03*
X114425002Y-165752500D03*
%TD*%
D15*
%TO.C,R1*%
X35700000Y-56575000D03*
X35700000Y-58225000D03*
%TD*%
M02*
