M48
; DRILL file {KiCad (7.0.0-0)} date Friday, March 24, 2023 at 11:45:06 AM
; FORMAT={-:-/ absolute / inch / decimal}
; #@! TF.CreationDate,2023-03-24T11:45:06-07:00
; #@! TF.GenerationSoftware,Kicad,Pcbnew,(7.0.0-0)
; #@! TF.FileFunction,Plated,1,2,PTH
FMAT,2
INCH
; #@! TA.AperFunction,Plated,PTH,ViaDrill
T1C0.0118
; #@! TA.AperFunction,Plated,PTH,ViaDrill
T2C0.0157
%
G90
G05
T1
X2.8504Y-6.9409
X3.2835Y-6.0787
X3.2992Y-5.1732
T2
X1.2598Y-4.5472
X1.2795Y-2.3917
X1.4016Y-2.1929
X1.4024Y-2.5929
X1.4051Y-3.5311
X1.4055Y-3.1575
X1.4071Y-6.3488
X1.4154Y-4.4705
X1.4173Y-1.6539
X1.4177Y-5.4094
X1.439Y-6.415
X1.4402Y-2.6622
X1.4406Y-3.5996
X1.4453Y-4.5378
X1.4453Y-5.4752
X1.4469Y-1.7213
X1.4496Y-6.5374
X1.4803Y-6.811
X1.6366Y-1.7248
X1.6476Y-6.5551
X1.7323Y-1.0728
X1.7677Y-2.315
X1.7717Y-5.5217
X1.7717Y-6.0138
X1.7913Y-2.8386
X1.7913Y-3.3701
X1.7992Y-3.9567
X1.8386Y-6.4921
X2.0571Y-4.2717
X2.0669Y-1.8504
X2.1457Y-6.0728
X2.1764Y-6.3835
X2.1949Y-6.0728
X2.2441Y-6.0728
X2.3031Y-5.7382
X2.4606Y-4.4882
X2.4646Y-5.4606
X2.5Y-5.8366
X2.5098Y-4.4882
X2.5252Y-6.2417
X2.5315Y-6.7677
X2.5945Y-2.9331
X2.6024Y-3.4882
X2.6142Y-2.3976
X2.874Y-5.0354
X2.8839Y-6.378
X2.8937Y-5.374
X3.0937Y-6.0965
X3.2579Y-6.5354
X3.4866Y-4.5256
X3.5091Y-1.2079
X3.5433Y-1.0827
X3.5827Y-1.8209
X3.622Y-5.6693
X3.7992Y-2.8268
X3.811Y-3.3583
X3.8228Y-2.2677
X3.8268Y-3.9567
X3.8976Y-1.811
X3.9142Y-3.9591
X3.937Y-6.2008
X3.9862Y-1.0531
X4.0354Y-1.0531
X4.0709Y-5.563
X4.0748Y-4.3602
X4.0846Y-1.0531
X4.2126Y-1.8209
X4.2638Y-2.4016
X4.2874Y-3.5
X4.311Y-2.9409
X4.4587Y-2.2146
X4.4685Y-2.9921
X4.4783Y-4.0748
X4.4783Y-5.0886
X4.4783Y-5.9449
X4.5593Y-2.6145
X4.5593Y-3.5519
X4.564Y-4.4901
X4.5644Y-5.4275
X4.5679Y-1.6747
X4.5774Y-2.681
X4.5872Y-6.4357
X4.5892Y-3.6192
X4.5994Y-4.5586
X4.6022Y-5.4968
X4.6102Y-2.2008
X4.6752Y-1.3484
X4.7146Y-3.2579
T0
M30
