%TF.GenerationSoftware,KiCad,Pcbnew,(7.0.0-0)*%
%TF.CreationDate,2023-03-24T11:45:06-07:00*%
%TF.ProjectId,dfh_badge,6466685f-6261-4646-9765-2e6b69636164,rev?*%
%TF.SameCoordinates,Original*%
%TF.FileFunction,Copper,L2,Bot*%
%TF.FilePolarity,Positive*%
%FSLAX46Y46*%
G04 Gerber Fmt 4.6, Leading zero omitted, Abs format (unit mm)*
G04 Created by KiCad (PCBNEW (7.0.0-0)) date 2023-03-24 11:45:06*
%MOMM*%
%LPD*%
G01*
G04 APERTURE LIST*
%TA.AperFunction,SMDPad,CuDef*%
%ADD10C,4.000000*%
%TD*%
%TA.AperFunction,ViaPad*%
%ADD11C,0.800000*%
%TD*%
%TA.AperFunction,ViaPad*%
%ADD12C,0.600000*%
%TD*%
%TA.AperFunction,Conductor*%
%ADD13C,0.200000*%
%TD*%
%TA.AperFunction,Conductor*%
%ADD14C,0.250000*%
%TD*%
G04 APERTURE END LIST*
D10*
%TO.P,TP2,1,1*%
%TO.N,/touch1*%
X35500000Y-77500000D03*
%TD*%
%TO.P,TP1,1,1*%
%TO.N,/touch0*%
X35500000Y-53000000D03*
%TD*%
%TO.P,TP3,1,1*%
%TO.N,/touch2*%
X117000000Y-53000000D03*
%TD*%
D11*
%TO.N,GND*%
X97200000Y-100500000D03*
X97100000Y-57600000D03*
X63500000Y-148250000D03*
X109500000Y-74700000D03*
X73000000Y-127900000D03*
X73500000Y-136500000D03*
X113750000Y-103500000D03*
X100000000Y-157500000D03*
X44000000Y-27250000D03*
X96800000Y-85300000D03*
X91000000Y-46250000D03*
X45500000Y-85600000D03*
X62600000Y-138700000D03*
X96500000Y-71800000D03*
X45000000Y-152750000D03*
X46700000Y-164900000D03*
X64300000Y-171900000D03*
X73250000Y-162000000D03*
X45700000Y-100500000D03*
X45500000Y-72100000D03*
X66400000Y-60900000D03*
X99000000Y-46000000D03*
X65900000Y-74500000D03*
X119750000Y-82750000D03*
X113500000Y-76000000D03*
X108300000Y-61000000D03*
X113250000Y-56250000D03*
X113750000Y-151000000D03*
X64140000Y-158540000D03*
X103500000Y-110750000D03*
X113750000Y-129250000D03*
X44900000Y-58800000D03*
X108900000Y-88900000D03*
X52500000Y-47000000D03*
X37600000Y-173000000D03*
X32000000Y-115500000D03*
X52250000Y-108500000D03*
X45000000Y-140250000D03*
X107000000Y-46250000D03*
X92000000Y-144000000D03*
X118750000Y-34250000D03*
X32500000Y-60750000D03*
X82750000Y-166000000D03*
X66100000Y-88600000D03*
%TO.N,+BATT*%
X78580000Y-154850000D03*
X55280000Y-162140000D03*
%TO.N,/rim_pixels_in*%
X36820000Y-166050000D03*
X35740000Y-161260000D03*
%TO.N,Net-(D31-DOUT)*%
X36550000Y-162940000D03*
X36010000Y-137400000D03*
%TO.N,Net-(D32-DOUT)*%
X36710000Y-139070000D03*
X35950000Y-113550000D03*
%TO.N,Net-(D33-DOUT)*%
X35690000Y-89690000D03*
X36710000Y-115260000D03*
%TO.N,Net-(D34-DOUT)*%
X36590000Y-91430000D03*
X35620000Y-65860000D03*
%TO.N,/RimPixels/DOUT*%
X36750000Y-43720000D03*
X41570000Y-43810000D03*
%TO.N,Net-(D37-DOUT)*%
X116025000Y-42537500D03*
X116265000Y-68097500D03*
%TO.N,Net-(D38-DOUT)*%
X115805000Y-66407500D03*
X116565000Y-91927500D03*
%TO.N,Net-(D39-DOUT)*%
X116825000Y-115787500D03*
X115805000Y-90217500D03*
%TO.N,Net-(D40-DOUT)*%
X115925000Y-114047500D03*
X116895000Y-139617500D03*
%TO.N,/sw_press*%
X89130000Y-30680000D03*
X99420000Y-100560000D03*
D12*
%TO.N,/RESET*%
X83400000Y-154400000D03*
X72400000Y-176300000D03*
D11*
%TO.N,/rim_pixels_sig*%
X41850000Y-166500000D03*
D12*
X83800000Y-131400000D03*
D11*
%TO.N,/touch0*%
X35600000Y-55700000D03*
X63750000Y-114000000D03*
%TO.N,/touch1*%
X35700000Y-80200000D03*
X62500000Y-114000000D03*
%TO.N,/touch2*%
X103400000Y-141300000D03*
X117100000Y-55900000D03*
%TO.N,/led_on*%
X58500000Y-145750000D03*
X90000000Y-27500000D03*
X88560000Y-114950000D03*
%TO.N,Net-(D2-A)*%
X54500000Y-154250000D03*
X101250000Y-26750000D03*
%TO.N,Net-(D4-A)*%
X55750000Y-154250000D03*
X102500000Y-26750000D03*
%TO.N,Net-(D35-DOUT)*%
X36000000Y-42010000D03*
X36580000Y-67620000D03*
%TO.N,Net-(D41-DOUT)*%
X116515000Y-163467500D03*
X115935000Y-137857500D03*
%TO.N,Net-(U5-LED3)*%
X103750000Y-26750000D03*
X57000000Y-154250000D03*
%TD*%
D13*
%TO.N,+BATT*%
X55280000Y-162140000D02*
X60990000Y-156430000D01*
X62570000Y-154850000D02*
X78580000Y-154850000D01*
X60990000Y-156430000D02*
X62570000Y-154850000D01*
D14*
%TO.N,/rim_pixels_in*%
X35740000Y-161260000D02*
X35740000Y-164970000D01*
X35740000Y-164970000D02*
X36820000Y-166050000D01*
D13*
%TO.N,Net-(D31-DOUT)*%
X36550000Y-149600000D02*
X36010000Y-149060000D01*
X36550000Y-162940000D02*
X36550000Y-149600000D01*
X36010000Y-149060000D02*
X36010000Y-137400000D01*
D14*
%TO.N,Net-(D32-DOUT)*%
X36710000Y-139070000D02*
X36975000Y-138805000D01*
X36975000Y-138805000D02*
X36975000Y-127105000D01*
X36975000Y-127105000D02*
X35950000Y-126080000D01*
X35950000Y-126080000D02*
X35950000Y-113550000D01*
%TO.N,Net-(D33-DOUT)*%
X35865000Y-101395000D02*
X35865000Y-89865000D01*
X35865000Y-89865000D02*
X35690000Y-89690000D01*
X36710000Y-115260000D02*
X36710000Y-102240000D01*
X36710000Y-102240000D02*
X35865000Y-101395000D01*
%TO.N,Net-(D34-DOUT)*%
X36590000Y-87000000D02*
X31600000Y-82010000D01*
X31600000Y-82010000D02*
X31600000Y-69880000D01*
X31600000Y-69880000D02*
X35620000Y-65860000D01*
X36590000Y-91430000D02*
X36590000Y-87000000D01*
%TO.N,/RimPixels/DOUT*%
X41570000Y-43810000D02*
X36840000Y-43810000D01*
X36840000Y-43810000D02*
X36750000Y-43720000D01*
%TO.N,Net-(D37-DOUT)*%
X121250000Y-63112500D02*
X116265000Y-68097500D01*
X121250000Y-47762500D02*
X121250000Y-63112500D01*
X116025000Y-42537500D02*
X121250000Y-47762500D01*
%TO.N,Net-(D38-DOUT)*%
X115805000Y-66407500D02*
X115540000Y-66672500D01*
X115540000Y-66672500D02*
X115540000Y-78372500D01*
X115540000Y-78372500D02*
X116565000Y-79397500D01*
X116565000Y-79397500D02*
X116565000Y-91927500D01*
%TO.N,Net-(D39-DOUT)*%
X116650000Y-104082500D02*
X116650000Y-115612500D01*
X116650000Y-115612500D02*
X116825000Y-115787500D01*
X115805000Y-90217500D02*
X115805000Y-103237500D01*
X115805000Y-103237500D02*
X116650000Y-104082500D01*
%TO.N,Net-(D40-DOUT)*%
X115925000Y-114047500D02*
X115925000Y-126935000D01*
X116895000Y-127905000D02*
X116895000Y-139617500D01*
X115925000Y-126935000D02*
X116895000Y-127905000D01*
D13*
%TO.N,/sw_press*%
X99420000Y-100340000D02*
X89130000Y-90050000D01*
X99420000Y-100560000D02*
X99420000Y-100340000D01*
X89130000Y-90050000D02*
X89130000Y-30680000D01*
%TO.N,/RESET*%
X80100000Y-156800000D02*
X82500000Y-154400000D01*
X72400000Y-176300000D02*
X72400000Y-175360050D01*
X72400000Y-175360050D02*
X80100000Y-167660050D01*
X82500000Y-154400000D02*
X83400000Y-154400000D01*
X80100000Y-167660050D02*
X80100000Y-156800000D01*
%TO.N,/rim_pixels_sig*%
X41850000Y-166500000D02*
X49300000Y-166500000D01*
X49300000Y-166500000D02*
X83800000Y-132000000D01*
X83800000Y-132000000D02*
X83800000Y-131400000D01*
D14*
%TO.N,/touch0*%
X35500000Y-53000000D02*
X35500000Y-55600000D01*
X35600000Y-55700000D02*
X63700000Y-83800000D01*
X63700000Y-83800000D02*
X63700000Y-113950000D01*
X63700000Y-113950000D02*
X63750000Y-114000000D01*
X35500000Y-55600000D02*
X35600000Y-55700000D01*
D13*
%TO.N,/touch1*%
X35500000Y-80000000D02*
X35700000Y-80200000D01*
X35700000Y-80200000D02*
X62500000Y-107000000D01*
X35500000Y-77500000D02*
X35500000Y-80000000D01*
X62500000Y-107000000D02*
X62500000Y-114000000D01*
%TO.N,/touch2*%
X102000000Y-119000000D02*
X102000000Y-139900000D01*
X102000000Y-139900000D02*
X103400000Y-141300000D01*
X117000000Y-55800000D02*
X117100000Y-55900000D01*
X117100000Y-55900000D02*
X117100000Y-59900000D01*
X117100000Y-59900000D02*
X106040000Y-70960000D01*
X106040000Y-70960000D02*
X106040000Y-114960000D01*
X117000000Y-53000000D02*
X117000000Y-55800000D01*
X106040000Y-114960000D02*
X102000000Y-119000000D01*
%TO.N,/led_on*%
X88550000Y-115700000D02*
X88550000Y-114960000D01*
X88430500Y-29069500D02*
X88430500Y-115580500D01*
X88550000Y-114960000D02*
X88560000Y-114950000D01*
X90000000Y-27500000D02*
X88430500Y-29069500D01*
X88550000Y-115700000D02*
X58500000Y-145750000D01*
X88430500Y-115580500D02*
X88550000Y-115700000D01*
%TO.N,Net-(D2-A)*%
X54500000Y-150750000D02*
X54500000Y-154250000D01*
X101250000Y-104000000D02*
X54500000Y-150750000D01*
X101250000Y-26750000D02*
X101250000Y-104000000D01*
%TO.N,Net-(D4-A)*%
X55750000Y-150250000D02*
X55750000Y-154250000D01*
X102500000Y-26750000D02*
X102500000Y-103500000D01*
X102500000Y-103500000D02*
X55750000Y-150250000D01*
D14*
%TO.N,Net-(D35-DOUT)*%
X31770000Y-56860000D02*
X31770000Y-46240000D01*
X36580000Y-67620000D02*
X36580000Y-61670000D01*
X36580000Y-61670000D02*
X31770000Y-56860000D01*
X31770000Y-46240000D02*
X36000000Y-42010000D01*
%TO.N,Net-(D41-DOUT)*%
X116515000Y-151165000D02*
X116515000Y-163467500D01*
X115935000Y-137857500D02*
X115935000Y-150585000D01*
X115935000Y-150585000D02*
X116515000Y-151165000D01*
D13*
%TO.N,Net-(U5-LED3)*%
X103750000Y-26750000D02*
X103750000Y-102814980D01*
X103750000Y-102814980D02*
X57000000Y-149564980D01*
X57000000Y-149564980D02*
X57000000Y-154250000D01*
%TD*%
%TA.AperFunction,Conductor*%
%TO.N,GND*%
G36*
X54194513Y-150489094D02*
G01*
X54178851Y-150504755D01*
X54178846Y-150504761D01*
X54171950Y-150511658D01*
X54167520Y-150520349D01*
X54167515Y-150520358D01*
X54161890Y-150531398D01*
X54151731Y-150547976D01*
X54144442Y-150558009D01*
X54144437Y-150558018D01*
X54138704Y-150565910D01*
X54135690Y-150575184D01*
X54135685Y-150575195D01*
X54131854Y-150586987D01*
X54124412Y-150604954D01*
X54118783Y-150616000D01*
X54118779Y-150616009D01*
X54114354Y-150624696D01*
X54112827Y-150634330D01*
X54112828Y-150634330D01*
X54110887Y-150646582D01*
X54106347Y-150665492D01*
X54102515Y-150677285D01*
X54102514Y-150677288D01*
X54099500Y-150686567D01*
X54099500Y-150696327D01*
X54099500Y-153613147D01*
X54088575Y-153664038D01*
X54057729Y-153705959D01*
X54000000Y-153757103D01*
X54000000Y-151500000D01*
X53000000Y-151500000D01*
X53000000Y-148500000D01*
X56183607Y-148500000D01*
X54194513Y-150489094D01*
G37*
%TD.AperFunction*%
%TA.AperFunction,Conductor*%
G36*
X119252702Y-19575617D02*
G01*
X119444478Y-19583991D01*
X119642887Y-19593164D01*
X119653298Y-19594088D01*
X119851231Y-19620147D01*
X119851784Y-19620222D01*
X120043615Y-19646981D01*
X120053273Y-19648722D01*
X120248991Y-19692112D01*
X120250444Y-19692444D01*
X120437873Y-19736528D01*
X120446744Y-19738965D01*
X120638197Y-19799330D01*
X120640227Y-19799990D01*
X120822486Y-19861077D01*
X120830509Y-19864079D01*
X121016217Y-19941002D01*
X121018668Y-19942051D01*
X121194336Y-20019615D01*
X121201452Y-20023034D01*
X121379832Y-20115893D01*
X121382865Y-20117527D01*
X121508262Y-20187373D01*
X121550413Y-20210851D01*
X121556688Y-20214592D01*
X121726351Y-20322679D01*
X121729720Y-20324906D01*
X121887922Y-20433276D01*
X121893301Y-20437178D01*
X122001764Y-20520405D01*
X122052904Y-20559646D01*
X122056610Y-20562605D01*
X122204078Y-20685062D01*
X122208607Y-20689013D01*
X122350044Y-20818616D01*
X122356914Y-20824911D01*
X122360822Y-20828652D01*
X122496346Y-20964176D01*
X122500087Y-20968084D01*
X122623861Y-21103160D01*
X122635973Y-21116377D01*
X122639942Y-21120927D01*
X122669639Y-21156689D01*
X122762373Y-21268363D01*
X122765352Y-21272094D01*
X122887816Y-21431692D01*
X122891740Y-21437101D01*
X123000074Y-21595250D01*
X123002338Y-21598676D01*
X123037952Y-21654579D01*
X123110399Y-21768299D01*
X123114147Y-21774585D01*
X123207458Y-21942109D01*
X123209118Y-21945191D01*
X123301951Y-22123520D01*
X123305395Y-22130690D01*
X123380082Y-22299840D01*
X123382901Y-22306223D01*
X123384028Y-22308857D01*
X123460916Y-22494483D01*
X123463927Y-22502529D01*
X123524988Y-22684711D01*
X123525677Y-22686830D01*
X123586030Y-22878246D01*
X123588475Y-22887143D01*
X123632542Y-23074505D01*
X123632897Y-23076056D01*
X123676271Y-23271701D01*
X123678021Y-23281409D01*
X123704754Y-23473054D01*
X123704882Y-23473999D01*
X123730907Y-23671675D01*
X123731836Y-23682134D01*
X123741009Y-23880535D01*
X123741023Y-23880853D01*
X123749382Y-24072298D01*
X123749500Y-24077707D01*
X123749500Y-176997293D01*
X123749382Y-177002702D01*
X123741023Y-177194146D01*
X123741009Y-177194464D01*
X123731836Y-177392864D01*
X123730907Y-177403323D01*
X123704882Y-177600999D01*
X123704754Y-177601944D01*
X123678021Y-177793589D01*
X123676271Y-177803297D01*
X123632897Y-177998942D01*
X123632542Y-178000493D01*
X123588475Y-178187855D01*
X123586030Y-178196752D01*
X123525677Y-178388168D01*
X123524988Y-178390287D01*
X123463927Y-178572469D01*
X123460916Y-178580515D01*
X123384028Y-178766141D01*
X123382901Y-178768775D01*
X123305396Y-178944307D01*
X123301951Y-178951478D01*
X123209118Y-179129807D01*
X123207458Y-179132889D01*
X123114147Y-179300413D01*
X123110399Y-179306699D01*
X123002355Y-179476296D01*
X123000074Y-179479748D01*
X122891740Y-179637897D01*
X122887816Y-179643306D01*
X122765352Y-179802904D01*
X122762373Y-179806635D01*
X122639948Y-179954065D01*
X122635973Y-179958621D01*
X122500087Y-180106914D01*
X122496346Y-180110822D01*
X122360822Y-180246346D01*
X122356914Y-180250087D01*
X122208621Y-180385973D01*
X122204065Y-180389948D01*
X122056635Y-180512373D01*
X122052904Y-180515352D01*
X121893306Y-180637816D01*
X121887897Y-180641740D01*
X121729748Y-180750074D01*
X121726296Y-180752355D01*
X121556699Y-180860399D01*
X121550413Y-180864147D01*
X121382889Y-180957458D01*
X121379807Y-180959118D01*
X121201478Y-181051951D01*
X121194307Y-181055396D01*
X121018775Y-181132901D01*
X121016141Y-181134028D01*
X120830515Y-181210916D01*
X120822469Y-181213927D01*
X120640287Y-181274988D01*
X120638168Y-181275677D01*
X120446752Y-181336030D01*
X120437855Y-181338475D01*
X120250493Y-181382542D01*
X120248942Y-181382897D01*
X120053297Y-181426271D01*
X120043589Y-181428021D01*
X119851944Y-181454754D01*
X119850999Y-181454882D01*
X119653323Y-181480907D01*
X119642863Y-181481836D01*
X119444507Y-181491006D01*
X119444191Y-181491020D01*
X119252703Y-181499382D01*
X119247293Y-181499500D01*
X33002707Y-181499500D01*
X32997297Y-181499382D01*
X32805807Y-181491020D01*
X32805491Y-181491006D01*
X32607135Y-181481836D01*
X32596675Y-181480907D01*
X32398999Y-181454882D01*
X32398054Y-181454754D01*
X32206409Y-181428021D01*
X32196701Y-181426271D01*
X32001056Y-181382897D01*
X31999505Y-181382542D01*
X31812143Y-181338475D01*
X31803246Y-181336030D01*
X31611830Y-181275677D01*
X31609711Y-181274988D01*
X31427529Y-181213927D01*
X31419483Y-181210916D01*
X31233857Y-181134028D01*
X31231247Y-181132911D01*
X31055690Y-181055395D01*
X31048520Y-181051951D01*
X30870191Y-180959118D01*
X30867109Y-180957458D01*
X30699585Y-180864147D01*
X30693299Y-180860399D01*
X30597392Y-180799300D01*
X30523676Y-180752338D01*
X30520250Y-180750074D01*
X30503799Y-180738805D01*
X30362091Y-180641733D01*
X30356692Y-180637816D01*
X30197094Y-180515352D01*
X30193377Y-180512384D01*
X30045927Y-180389942D01*
X30041377Y-180385973D01*
X30032310Y-180377665D01*
X29988938Y-180337921D01*
X68895619Y-180337921D01*
X68897344Y-180346226D01*
X68897345Y-180346228D01*
X68924681Y-180477777D01*
X68924682Y-180477780D01*
X68926408Y-180486085D01*
X68930309Y-180493614D01*
X68930310Y-180493616D01*
X68951827Y-180535141D01*
X68996029Y-180620447D01*
X69001816Y-180626643D01*
X69001818Y-180626646D01*
X69093529Y-180724844D01*
X69093531Y-180724845D01*
X69099320Y-180731044D01*
X69106566Y-180735450D01*
X69106568Y-180735452D01*
X69211562Y-180799300D01*
X69228618Y-180809672D01*
X69374335Y-180850500D01*
X69483421Y-180850500D01*
X69487658Y-180850500D01*
X69599920Y-180835070D01*
X69738720Y-180774780D01*
X69856108Y-180679278D01*
X69943377Y-180555647D01*
X69994054Y-180413056D01*
X69999193Y-180337921D01*
X70595619Y-180337921D01*
X70597344Y-180346226D01*
X70597345Y-180346228D01*
X70624681Y-180477777D01*
X70624682Y-180477780D01*
X70626408Y-180486085D01*
X70630309Y-180493614D01*
X70630310Y-180493616D01*
X70651827Y-180535141D01*
X70696029Y-180620447D01*
X70701816Y-180626643D01*
X70701818Y-180626646D01*
X70793529Y-180724844D01*
X70793531Y-180724845D01*
X70799320Y-180731044D01*
X70806566Y-180735450D01*
X70806568Y-180735452D01*
X70911562Y-180799300D01*
X70928618Y-180809672D01*
X71074335Y-180850500D01*
X71183421Y-180850500D01*
X71187658Y-180850500D01*
X71299920Y-180835070D01*
X71438720Y-180774780D01*
X71556108Y-180679278D01*
X71643377Y-180555647D01*
X71694054Y-180413056D01*
X71704381Y-180262079D01*
X71673592Y-180113915D01*
X71603971Y-179979553D01*
X71580167Y-179954065D01*
X71506470Y-179875155D01*
X71506467Y-179875153D01*
X71500680Y-179868956D01*
X71493434Y-179864550D01*
X71493431Y-179864547D01*
X71378625Y-179794732D01*
X71378621Y-179794730D01*
X71371382Y-179790328D01*
X71355325Y-179785829D01*
X71233829Y-179751787D01*
X71233825Y-179751786D01*
X71225665Y-179749500D01*
X71112342Y-179749500D01*
X71108158Y-179750075D01*
X71108144Y-179750076D01*
X71008485Y-179763774D01*
X71008479Y-179763775D01*
X71000080Y-179764930D01*
X70992299Y-179768309D01*
X70992298Y-179768310D01*
X70869062Y-179821839D01*
X70869057Y-179821841D01*
X70861280Y-179825220D01*
X70854702Y-179830571D01*
X70854698Y-179830574D01*
X70750470Y-179915370D01*
X70750468Y-179915371D01*
X70743892Y-179920722D01*
X70739003Y-179927647D01*
X70739002Y-179927649D01*
X70680406Y-180010661D01*
X70656623Y-180044353D01*
X70653785Y-180052337D01*
X70653782Y-180052344D01*
X70608786Y-180178951D01*
X70608784Y-180178955D01*
X70605946Y-180186944D01*
X70605367Y-180195403D01*
X70605367Y-180195405D01*
X70596197Y-180329457D01*
X70596197Y-180329463D01*
X70595619Y-180337921D01*
X69999193Y-180337921D01*
X70004381Y-180262079D01*
X69973592Y-180113915D01*
X69903971Y-179979553D01*
X69880167Y-179954065D01*
X69806470Y-179875155D01*
X69806467Y-179875153D01*
X69800680Y-179868956D01*
X69793434Y-179864550D01*
X69793431Y-179864547D01*
X69678625Y-179794732D01*
X69678621Y-179794730D01*
X69671382Y-179790328D01*
X69655325Y-179785829D01*
X69533829Y-179751787D01*
X69533825Y-179751786D01*
X69525665Y-179749500D01*
X69412342Y-179749500D01*
X69408158Y-179750075D01*
X69408144Y-179750076D01*
X69308485Y-179763774D01*
X69308479Y-179763775D01*
X69300080Y-179764930D01*
X69292299Y-179768309D01*
X69292298Y-179768310D01*
X69169062Y-179821839D01*
X69169057Y-179821841D01*
X69161280Y-179825220D01*
X69154702Y-179830571D01*
X69154698Y-179830574D01*
X69050470Y-179915370D01*
X69050468Y-179915371D01*
X69043892Y-179920722D01*
X69039003Y-179927647D01*
X69039002Y-179927649D01*
X68980406Y-180010661D01*
X68956623Y-180044353D01*
X68953785Y-180052337D01*
X68953782Y-180052344D01*
X68908786Y-180178951D01*
X68908784Y-180178955D01*
X68905946Y-180186944D01*
X68905367Y-180195403D01*
X68905367Y-180195405D01*
X68896197Y-180329457D01*
X68896197Y-180329463D01*
X68895619Y-180337921D01*
X29988938Y-180337921D01*
X29893085Y-180250087D01*
X29889176Y-180246346D01*
X29753652Y-180110822D01*
X29749911Y-180106914D01*
X29614013Y-179958607D01*
X29610062Y-179954078D01*
X29487605Y-179806610D01*
X29484646Y-179802904D01*
X29458101Y-179768310D01*
X29362178Y-179643301D01*
X29358276Y-179637922D01*
X29311749Y-179570000D01*
X92069357Y-179570000D01*
X92069886Y-179575709D01*
X92073971Y-179619794D01*
X92074500Y-179631235D01*
X92074500Y-179681243D01*
X92075551Y-179686870D01*
X92075553Y-179686882D01*
X92083687Y-179730400D01*
X92085269Y-179741736D01*
X92086201Y-179751787D01*
X92089885Y-179791536D01*
X92091450Y-179797039D01*
X92091453Y-179797051D01*
X92103573Y-179839648D01*
X92106194Y-179850793D01*
X92113939Y-179892223D01*
X92115382Y-179899940D01*
X92117450Y-179905278D01*
X92117452Y-179905285D01*
X92133445Y-179946567D01*
X92137084Y-179957425D01*
X92149200Y-180000009D01*
X92149202Y-180000015D01*
X92150771Y-180005528D01*
X92173069Y-180050308D01*
X92177687Y-180060769D01*
X92195753Y-180107401D01*
X92198764Y-180112264D01*
X92198770Y-180112276D01*
X92222078Y-180149920D01*
X92227649Y-180159922D01*
X92247386Y-180199556D01*
X92249942Y-180204689D01*
X92280072Y-180244587D01*
X92280078Y-180244595D01*
X92286547Y-180254040D01*
X92286549Y-180254043D01*
X92286551Y-180254045D01*
X92309855Y-180291684D01*
X92309858Y-180291688D01*
X92312876Y-180296562D01*
X92335408Y-180321278D01*
X92346561Y-180333512D01*
X92353880Y-180342325D01*
X92384019Y-180382236D01*
X92388248Y-180386091D01*
X92388256Y-180386100D01*
X92420980Y-180415932D01*
X92429077Y-180424029D01*
X92458897Y-180456740D01*
X92458901Y-180456744D01*
X92462764Y-180460981D01*
X92467340Y-180464437D01*
X92467345Y-180464441D01*
X92502672Y-180491118D01*
X92511483Y-180498435D01*
X92548438Y-180532124D01*
X92553311Y-180535141D01*
X92553315Y-180535144D01*
X92590953Y-180558448D01*
X92600403Y-180564921D01*
X92640311Y-180595058D01*
X92685094Y-180617357D01*
X92695066Y-180622912D01*
X92737599Y-180649247D01*
X92742940Y-180651316D01*
X92742944Y-180651318D01*
X92784228Y-180667311D01*
X92794691Y-180671930D01*
X92839472Y-180694229D01*
X92844989Y-180695798D01*
X92844990Y-180695799D01*
X92887578Y-180707917D01*
X92898433Y-180711554D01*
X92945060Y-180729618D01*
X92994213Y-180738806D01*
X93005362Y-180741429D01*
X93035747Y-180750074D01*
X93053464Y-180755115D01*
X93103262Y-180759729D01*
X93114601Y-180761311D01*
X93158121Y-180769447D01*
X93158127Y-180769447D01*
X93163757Y-180770500D01*
X93219497Y-180770500D01*
X93380514Y-180770500D01*
X93386243Y-180770500D01*
X93391872Y-180769447D01*
X93391879Y-180769447D01*
X93435400Y-180761311D01*
X93446742Y-180759728D01*
X93496536Y-180755115D01*
X93544651Y-180741424D01*
X93555783Y-180738806D01*
X93604940Y-180729618D01*
X93651560Y-180711556D01*
X93662421Y-180707916D01*
X93710528Y-180694229D01*
X93755297Y-180671935D01*
X93765779Y-180667308D01*
X93807053Y-180651319D01*
X93807054Y-180651318D01*
X93812401Y-180649247D01*
X93854927Y-180622915D01*
X93864896Y-180617361D01*
X93909689Y-180595058D01*
X93949608Y-180564911D01*
X93959033Y-180558455D01*
X94001562Y-180532124D01*
X94038518Y-180498432D01*
X94047326Y-180491118D01*
X94053991Y-180486085D01*
X94087236Y-180460981D01*
X94120925Y-180424026D01*
X94129026Y-180415925D01*
X94161739Y-180386103D01*
X94161742Y-180386100D01*
X94165981Y-180382236D01*
X94196121Y-180342322D01*
X94203438Y-180333512D01*
X94237124Y-180296562D01*
X94263455Y-180254033D01*
X94269921Y-180244595D01*
X94300058Y-180204689D01*
X94322361Y-180159896D01*
X94327919Y-180149921D01*
X94350214Y-180113915D01*
X94354247Y-180107401D01*
X94372312Y-180060769D01*
X94376936Y-180050297D01*
X94396673Y-180010661D01*
X94396675Y-180010656D01*
X94399229Y-180005528D01*
X94412916Y-179957419D01*
X94416557Y-179946559D01*
X94423883Y-179927649D01*
X94434618Y-179899940D01*
X94443806Y-179850783D01*
X94446425Y-179839648D01*
X94460115Y-179791536D01*
X94464728Y-179741742D01*
X94466311Y-179730400D01*
X94474447Y-179686879D01*
X94474447Y-179686872D01*
X94475500Y-179681243D01*
X94475500Y-179631235D01*
X94476029Y-179619794D01*
X94480114Y-179575709D01*
X94480643Y-179570000D01*
X97519357Y-179570000D01*
X97519886Y-179575709D01*
X97523971Y-179619794D01*
X97524500Y-179631235D01*
X97524500Y-179681243D01*
X97525551Y-179686870D01*
X97525553Y-179686882D01*
X97533687Y-179730400D01*
X97535269Y-179741736D01*
X97536201Y-179751787D01*
X97539885Y-179791536D01*
X97541450Y-179797039D01*
X97541453Y-179797051D01*
X97553573Y-179839648D01*
X97556194Y-179850793D01*
X97563939Y-179892223D01*
X97565382Y-179899940D01*
X97567450Y-179905278D01*
X97567452Y-179905285D01*
X97583445Y-179946567D01*
X97587084Y-179957425D01*
X97599200Y-180000009D01*
X97599202Y-180000015D01*
X97600771Y-180005528D01*
X97623069Y-180050308D01*
X97627687Y-180060769D01*
X97645753Y-180107401D01*
X97648764Y-180112264D01*
X97648770Y-180112276D01*
X97672078Y-180149920D01*
X97677649Y-180159922D01*
X97697386Y-180199556D01*
X97699942Y-180204689D01*
X97730072Y-180244587D01*
X97730078Y-180244595D01*
X97736547Y-180254040D01*
X97736549Y-180254043D01*
X97736551Y-180254045D01*
X97759855Y-180291684D01*
X97759858Y-180291688D01*
X97762876Y-180296562D01*
X97785408Y-180321278D01*
X97796561Y-180333512D01*
X97803880Y-180342325D01*
X97834019Y-180382236D01*
X97838248Y-180386091D01*
X97838256Y-180386100D01*
X97870980Y-180415932D01*
X97879077Y-180424029D01*
X97908897Y-180456740D01*
X97908901Y-180456744D01*
X97912764Y-180460981D01*
X97917340Y-180464437D01*
X97917345Y-180464441D01*
X97952672Y-180491118D01*
X97961483Y-180498435D01*
X97998438Y-180532124D01*
X98003311Y-180535141D01*
X98003315Y-180535144D01*
X98040953Y-180558448D01*
X98050403Y-180564921D01*
X98090311Y-180595058D01*
X98135094Y-180617357D01*
X98145066Y-180622912D01*
X98187599Y-180649247D01*
X98192940Y-180651316D01*
X98192944Y-180651318D01*
X98234228Y-180667311D01*
X98244691Y-180671930D01*
X98289472Y-180694229D01*
X98294989Y-180695798D01*
X98294990Y-180695799D01*
X98337578Y-180707917D01*
X98348433Y-180711554D01*
X98395060Y-180729618D01*
X98444213Y-180738806D01*
X98455362Y-180741429D01*
X98485747Y-180750074D01*
X98503464Y-180755115D01*
X98553262Y-180759729D01*
X98564601Y-180761311D01*
X98608121Y-180769447D01*
X98608127Y-180769447D01*
X98613757Y-180770500D01*
X98669497Y-180770500D01*
X98830514Y-180770500D01*
X98836243Y-180770500D01*
X98841872Y-180769447D01*
X98841879Y-180769447D01*
X98885400Y-180761311D01*
X98896742Y-180759728D01*
X98946536Y-180755115D01*
X98994651Y-180741424D01*
X99005783Y-180738806D01*
X99054940Y-180729618D01*
X99101560Y-180711556D01*
X99112421Y-180707916D01*
X99160528Y-180694229D01*
X99205297Y-180671935D01*
X99215779Y-180667308D01*
X99257053Y-180651319D01*
X99257054Y-180651318D01*
X99262401Y-180649247D01*
X99304927Y-180622915D01*
X99314896Y-180617361D01*
X99359689Y-180595058D01*
X99399608Y-180564911D01*
X99409033Y-180558455D01*
X99451562Y-180532124D01*
X99488518Y-180498432D01*
X99497326Y-180491118D01*
X99503991Y-180486085D01*
X99537236Y-180460981D01*
X99570925Y-180424026D01*
X99579026Y-180415925D01*
X99611739Y-180386103D01*
X99611742Y-180386100D01*
X99615981Y-180382236D01*
X99646121Y-180342322D01*
X99653438Y-180333512D01*
X99687124Y-180296562D01*
X99713455Y-180254033D01*
X99719921Y-180244595D01*
X99750058Y-180204689D01*
X99772361Y-180159896D01*
X99777919Y-180149921D01*
X99800214Y-180113915D01*
X99804247Y-180107401D01*
X99822312Y-180060769D01*
X99826936Y-180050297D01*
X99846673Y-180010661D01*
X99846675Y-180010656D01*
X99849229Y-180005528D01*
X99862916Y-179957419D01*
X99866557Y-179946559D01*
X99873883Y-179927649D01*
X99884618Y-179899940D01*
X99893806Y-179850783D01*
X99896425Y-179839648D01*
X99910115Y-179791536D01*
X99914728Y-179741742D01*
X99916311Y-179730400D01*
X99924447Y-179686879D01*
X99924447Y-179686872D01*
X99925500Y-179681243D01*
X99925500Y-179631235D01*
X99926029Y-179619794D01*
X99930114Y-179575709D01*
X99930643Y-179570000D01*
X99926028Y-179520205D01*
X99925500Y-179508765D01*
X99925500Y-179464486D01*
X99925500Y-179458757D01*
X99924447Y-179453127D01*
X99924447Y-179453121D01*
X99916311Y-179409601D01*
X99914728Y-179398253D01*
X99910115Y-179348464D01*
X99898232Y-179306699D01*
X99896429Y-179300362D01*
X99893806Y-179289213D01*
X99885671Y-179245694D01*
X99884618Y-179240060D01*
X99866554Y-179193433D01*
X99862917Y-179182578D01*
X99850799Y-179139990D01*
X99850798Y-179139989D01*
X99849229Y-179134472D01*
X99826930Y-179089691D01*
X99822311Y-179079228D01*
X99806318Y-179037944D01*
X99806316Y-179037940D01*
X99804247Y-179032599D01*
X99777912Y-178990066D01*
X99772357Y-178980094D01*
X99750058Y-178935311D01*
X99719921Y-178895403D01*
X99713448Y-178885953D01*
X99690144Y-178848315D01*
X99690142Y-178848312D01*
X99687124Y-178843438D01*
X99653434Y-178806482D01*
X99646118Y-178797672D01*
X99619441Y-178762345D01*
X99619434Y-178762337D01*
X99615981Y-178757764D01*
X99611744Y-178753901D01*
X99611740Y-178753897D01*
X99579029Y-178724077D01*
X99570932Y-178715980D01*
X99541100Y-178683256D01*
X99541091Y-178683248D01*
X99537236Y-178679019D01*
X99497325Y-178648880D01*
X99488512Y-178641561D01*
X99451562Y-178607876D01*
X99446689Y-178604858D01*
X99446684Y-178604855D01*
X99409045Y-178581551D01*
X99399595Y-178575078D01*
X99396163Y-178572486D01*
X99359689Y-178544942D01*
X99354563Y-178542389D01*
X99354559Y-178542387D01*
X99314922Y-178522649D01*
X99304920Y-178517078D01*
X99267276Y-178493770D01*
X99267264Y-178493764D01*
X99262401Y-178490753D01*
X99257058Y-178488683D01*
X99257056Y-178488682D01*
X99215769Y-178472687D01*
X99205308Y-178468069D01*
X99160528Y-178445771D01*
X99155015Y-178444202D01*
X99155009Y-178444200D01*
X99112425Y-178432084D01*
X99101567Y-178428445D01*
X99060285Y-178412452D01*
X99060278Y-178412450D01*
X99054940Y-178410382D01*
X99049305Y-178409328D01*
X99049303Y-178409328D01*
X99005793Y-178401194D01*
X98994648Y-178398573D01*
X98952051Y-178386453D01*
X98952039Y-178386450D01*
X98946536Y-178384885D01*
X98940830Y-178384356D01*
X98940829Y-178384356D01*
X98896736Y-178380269D01*
X98885400Y-178378687D01*
X98841882Y-178370553D01*
X98841870Y-178370551D01*
X98836243Y-178369500D01*
X98613757Y-178369500D01*
X98608128Y-178370551D01*
X98608118Y-178370553D01*
X98564600Y-178378687D01*
X98553264Y-178380269D01*
X98509170Y-178384356D01*
X98509168Y-178384356D01*
X98503464Y-178384885D01*
X98497959Y-178386451D01*
X98497944Y-178386454D01*
X98455349Y-178398573D01*
X98444206Y-178401194D01*
X98400695Y-178409328D01*
X98400689Y-178409329D01*
X98395060Y-178410382D01*
X98389717Y-178412451D01*
X98389709Y-178412454D01*
X98348433Y-178428444D01*
X98337577Y-178432083D01*
X98294982Y-178444202D01*
X98294970Y-178444206D01*
X98289472Y-178445771D01*
X98284349Y-178448321D01*
X98284346Y-178448323D01*
X98244702Y-178468063D01*
X98234230Y-178472686D01*
X98192947Y-178488680D01*
X98192937Y-178488684D01*
X98187599Y-178490753D01*
X98182730Y-178493767D01*
X98182723Y-178493771D01*
X98145077Y-178517079D01*
X98135079Y-178522648D01*
X98095440Y-178542387D01*
X98095432Y-178542391D01*
X98090311Y-178544942D01*
X98085746Y-178548388D01*
X98085735Y-178548396D01*
X98050395Y-178575083D01*
X98040951Y-178581552D01*
X98003317Y-178604854D01*
X98003309Y-178604859D01*
X97998438Y-178607876D01*
X97994202Y-178611736D01*
X97994196Y-178611742D01*
X97961482Y-178641565D01*
X97952673Y-178648880D01*
X97917337Y-178675564D01*
X97917326Y-178675573D01*
X97912764Y-178679019D01*
X97908908Y-178683248D01*
X97908901Y-178683255D01*
X97879070Y-178715977D01*
X97870977Y-178724070D01*
X97838255Y-178753901D01*
X97838248Y-178753908D01*
X97834019Y-178757764D01*
X97830573Y-178762326D01*
X97830564Y-178762337D01*
X97803880Y-178797673D01*
X97796565Y-178806482D01*
X97766742Y-178839196D01*
X97766736Y-178839202D01*
X97762876Y-178843438D01*
X97759859Y-178848309D01*
X97759854Y-178848317D01*
X97736552Y-178885951D01*
X97730083Y-178895395D01*
X97703396Y-178930735D01*
X97703388Y-178930746D01*
X97699942Y-178935311D01*
X97697391Y-178940432D01*
X97697387Y-178940440D01*
X97677648Y-178980079D01*
X97672079Y-178990077D01*
X97648771Y-179027723D01*
X97648768Y-179027729D01*
X97645753Y-179032599D01*
X97643684Y-179037937D01*
X97643680Y-179037947D01*
X97627686Y-179079230D01*
X97623063Y-179089702D01*
X97600771Y-179134472D01*
X97599206Y-179139970D01*
X97599202Y-179139982D01*
X97587083Y-179182577D01*
X97583444Y-179193433D01*
X97567454Y-179234709D01*
X97567451Y-179234717D01*
X97565382Y-179240060D01*
X97564329Y-179245689D01*
X97564328Y-179245695D01*
X97556194Y-179289206D01*
X97553573Y-179300349D01*
X97541454Y-179342944D01*
X97541451Y-179342959D01*
X97539885Y-179348464D01*
X97539356Y-179354168D01*
X97539356Y-179354170D01*
X97535269Y-179398264D01*
X97533687Y-179409600D01*
X97525553Y-179453118D01*
X97525553Y-179453121D01*
X97524500Y-179458757D01*
X97524500Y-179464486D01*
X97524500Y-179464488D01*
X97524500Y-179508765D01*
X97523971Y-179520205D01*
X97519357Y-179570000D01*
X94480643Y-179570000D01*
X94476028Y-179520205D01*
X94475500Y-179508765D01*
X94475500Y-179464486D01*
X94475500Y-179458757D01*
X94474447Y-179453127D01*
X94474447Y-179453121D01*
X94466311Y-179409601D01*
X94464728Y-179398253D01*
X94460115Y-179348464D01*
X94448232Y-179306699D01*
X94446429Y-179300362D01*
X94443806Y-179289213D01*
X94435671Y-179245694D01*
X94434618Y-179240060D01*
X94416554Y-179193433D01*
X94412917Y-179182578D01*
X94400799Y-179139990D01*
X94400798Y-179139989D01*
X94399229Y-179134472D01*
X94376930Y-179089691D01*
X94372311Y-179079228D01*
X94356318Y-179037944D01*
X94356316Y-179037940D01*
X94354247Y-179032599D01*
X94327912Y-178990066D01*
X94322357Y-178980094D01*
X94300058Y-178935311D01*
X94269921Y-178895403D01*
X94263448Y-178885953D01*
X94240144Y-178848315D01*
X94240142Y-178848312D01*
X94237124Y-178843438D01*
X94203434Y-178806482D01*
X94196118Y-178797672D01*
X94169441Y-178762345D01*
X94169434Y-178762337D01*
X94165981Y-178757764D01*
X94161744Y-178753901D01*
X94161740Y-178753897D01*
X94129029Y-178724077D01*
X94120932Y-178715980D01*
X94091100Y-178683256D01*
X94091091Y-178683248D01*
X94087236Y-178679019D01*
X94047325Y-178648880D01*
X94038512Y-178641561D01*
X94001562Y-178607876D01*
X93996689Y-178604858D01*
X93996684Y-178604855D01*
X93959045Y-178581551D01*
X93949595Y-178575078D01*
X93946163Y-178572486D01*
X93909689Y-178544942D01*
X93904563Y-178542389D01*
X93904559Y-178542387D01*
X93864922Y-178522649D01*
X93854920Y-178517078D01*
X93817276Y-178493770D01*
X93817264Y-178493764D01*
X93812401Y-178490753D01*
X93807058Y-178488683D01*
X93807056Y-178488682D01*
X93765769Y-178472687D01*
X93755308Y-178468069D01*
X93710528Y-178445771D01*
X93705015Y-178444202D01*
X93705009Y-178444200D01*
X93662425Y-178432084D01*
X93651567Y-178428445D01*
X93610285Y-178412452D01*
X93610278Y-178412450D01*
X93604940Y-178410382D01*
X93599305Y-178409328D01*
X93599303Y-178409328D01*
X93555793Y-178401194D01*
X93544648Y-178398573D01*
X93502051Y-178386453D01*
X93502039Y-178386450D01*
X93496536Y-178384885D01*
X93490830Y-178384356D01*
X93490829Y-178384356D01*
X93446736Y-178380269D01*
X93435400Y-178378687D01*
X93391882Y-178370553D01*
X93391870Y-178370551D01*
X93386243Y-178369500D01*
X93163757Y-178369500D01*
X93158128Y-178370551D01*
X93158118Y-178370553D01*
X93114600Y-178378687D01*
X93103264Y-178380269D01*
X93059170Y-178384356D01*
X93059168Y-178384356D01*
X93053464Y-178384885D01*
X93047959Y-178386451D01*
X93047944Y-178386454D01*
X93005349Y-178398573D01*
X92994206Y-178401194D01*
X92950695Y-178409328D01*
X92950689Y-178409329D01*
X92945060Y-178410382D01*
X92939717Y-178412451D01*
X92939709Y-178412454D01*
X92898433Y-178428444D01*
X92887577Y-178432083D01*
X92844982Y-178444202D01*
X92844970Y-178444206D01*
X92839472Y-178445771D01*
X92834349Y-178448321D01*
X92834346Y-178448323D01*
X92794702Y-178468063D01*
X92784230Y-178472686D01*
X92742947Y-178488680D01*
X92742937Y-178488684D01*
X92737599Y-178490753D01*
X92732730Y-178493767D01*
X92732723Y-178493771D01*
X92695077Y-178517079D01*
X92685079Y-178522648D01*
X92645440Y-178542387D01*
X92645432Y-178542391D01*
X92640311Y-178544942D01*
X92635746Y-178548388D01*
X92635735Y-178548396D01*
X92600395Y-178575083D01*
X92590951Y-178581552D01*
X92553317Y-178604854D01*
X92553309Y-178604859D01*
X92548438Y-178607876D01*
X92544202Y-178611736D01*
X92544196Y-178611742D01*
X92511482Y-178641565D01*
X92502673Y-178648880D01*
X92467337Y-178675564D01*
X92467326Y-178675573D01*
X92462764Y-178679019D01*
X92458908Y-178683248D01*
X92458901Y-178683255D01*
X92429070Y-178715977D01*
X92420977Y-178724070D01*
X92388255Y-178753901D01*
X92388248Y-178753908D01*
X92384019Y-178757764D01*
X92380573Y-178762326D01*
X92380564Y-178762337D01*
X92353880Y-178797673D01*
X92346565Y-178806482D01*
X92316742Y-178839196D01*
X92316736Y-178839202D01*
X92312876Y-178843438D01*
X92309859Y-178848309D01*
X92309854Y-178848317D01*
X92286552Y-178885951D01*
X92280083Y-178895395D01*
X92253396Y-178930735D01*
X92253388Y-178930746D01*
X92249942Y-178935311D01*
X92247391Y-178940432D01*
X92247387Y-178940440D01*
X92227648Y-178980079D01*
X92222079Y-178990077D01*
X92198771Y-179027723D01*
X92198768Y-179027729D01*
X92195753Y-179032599D01*
X92193684Y-179037937D01*
X92193680Y-179037947D01*
X92177686Y-179079230D01*
X92173063Y-179089702D01*
X92150771Y-179134472D01*
X92149206Y-179139970D01*
X92149202Y-179139982D01*
X92137083Y-179182577D01*
X92133444Y-179193433D01*
X92117454Y-179234709D01*
X92117451Y-179234717D01*
X92115382Y-179240060D01*
X92114329Y-179245689D01*
X92114328Y-179245695D01*
X92106194Y-179289206D01*
X92103573Y-179300349D01*
X92091454Y-179342944D01*
X92091451Y-179342959D01*
X92089885Y-179348464D01*
X92089356Y-179354168D01*
X92089356Y-179354170D01*
X92085269Y-179398264D01*
X92083687Y-179409600D01*
X92075553Y-179453118D01*
X92075553Y-179453121D01*
X92074500Y-179458757D01*
X92074500Y-179464486D01*
X92074500Y-179464488D01*
X92074500Y-179508765D01*
X92073971Y-179520205D01*
X92069357Y-179570000D01*
X29311749Y-179570000D01*
X29249906Y-179479720D01*
X29247679Y-179476351D01*
X29139592Y-179306688D01*
X29135851Y-179300413D01*
X29105373Y-179245695D01*
X29042527Y-179132865D01*
X29040880Y-179129807D01*
X29020006Y-179089708D01*
X28948034Y-178951452D01*
X28944615Y-178944336D01*
X28867051Y-178768668D01*
X28866002Y-178766217D01*
X28789079Y-178580509D01*
X28786077Y-178572486D01*
X28724990Y-178390227D01*
X28724321Y-178388168D01*
X28723781Y-178386454D01*
X28663965Y-178196744D01*
X28661528Y-178187873D01*
X28617444Y-178000444D01*
X28617101Y-177998942D01*
X28573722Y-177803273D01*
X28571981Y-177793615D01*
X28545222Y-177601784D01*
X28545147Y-177601231D01*
X28519088Y-177403298D01*
X28518163Y-177392885D01*
X28508986Y-177194371D01*
X28503458Y-177067765D01*
X31145788Y-177067765D01*
X31146282Y-177072262D01*
X31146283Y-177072267D01*
X31174917Y-177332506D01*
X31174918Y-177332513D01*
X31175414Y-177337018D01*
X31176559Y-177341398D01*
X31176561Y-177341408D01*
X31196503Y-177417685D01*
X31243928Y-177599088D01*
X31245693Y-177603242D01*
X31245696Y-177603250D01*
X31348099Y-177844223D01*
X31349870Y-177848390D01*
X31352226Y-177852251D01*
X31352229Y-177852256D01*
X31442697Y-178000493D01*
X31490982Y-178079610D01*
X31664255Y-178287820D01*
X31667630Y-178290844D01*
X31667631Y-178290845D01*
X31843389Y-178448325D01*
X31865998Y-178468582D01*
X32091910Y-178618044D01*
X32337176Y-178733020D01*
X32596569Y-178811060D01*
X32864561Y-178850500D01*
X33065369Y-178850500D01*
X33067631Y-178850500D01*
X33270156Y-178835677D01*
X33534553Y-178776780D01*
X33787558Y-178680014D01*
X34023777Y-178547441D01*
X34238177Y-178381888D01*
X34426186Y-178186881D01*
X34583799Y-177966579D01*
X34707656Y-177725675D01*
X34795118Y-177469305D01*
X34844319Y-177202933D01*
X34854212Y-176932235D01*
X34824586Y-176662982D01*
X34756072Y-176400912D01*
X34713189Y-176300000D01*
X71794318Y-176300000D01*
X71795379Y-176308059D01*
X71813894Y-176448702D01*
X71813895Y-176448708D01*
X71814956Y-176456762D01*
X71875464Y-176602841D01*
X71971718Y-176728282D01*
X72097159Y-176824536D01*
X72243238Y-176885044D01*
X72400000Y-176905682D01*
X72556762Y-176885044D01*
X72702841Y-176824536D01*
X72828282Y-176728282D01*
X72924536Y-176602841D01*
X72950566Y-176540000D01*
X92519417Y-176540000D01*
X92520014Y-176546061D01*
X92539102Y-176739869D01*
X92539103Y-176739875D01*
X92539700Y-176745934D01*
X92541467Y-176751759D01*
X92541468Y-176751764D01*
X92562042Y-176819588D01*
X92599768Y-176943954D01*
X92602638Y-176949323D01*
X92602640Y-176949328D01*
X92665947Y-177067765D01*
X92697315Y-177126450D01*
X92828590Y-177286410D01*
X92988550Y-177417685D01*
X93171046Y-177515232D01*
X93369066Y-177575300D01*
X93575000Y-177595583D01*
X93780934Y-177575300D01*
X93978954Y-177515232D01*
X94161450Y-177417685D01*
X94321410Y-177286410D01*
X94452685Y-177126450D01*
X94550232Y-176943954D01*
X94610300Y-176745934D01*
X94630583Y-176540000D01*
X97369417Y-176540000D01*
X97370014Y-176546061D01*
X97389102Y-176739869D01*
X97389103Y-176739875D01*
X97389700Y-176745934D01*
X97391467Y-176751759D01*
X97391468Y-176751764D01*
X97412042Y-176819588D01*
X97449768Y-176943954D01*
X97452638Y-176949323D01*
X97452640Y-176949328D01*
X97515947Y-177067765D01*
X97547315Y-177126450D01*
X97678590Y-177286410D01*
X97838550Y-177417685D01*
X98021046Y-177515232D01*
X98219066Y-177575300D01*
X98425000Y-177595583D01*
X98630934Y-177575300D01*
X98828954Y-177515232D01*
X99011450Y-177417685D01*
X99171410Y-177286410D01*
X99302685Y-177126450D01*
X99334053Y-177067765D01*
X117395788Y-177067765D01*
X117396282Y-177072262D01*
X117396283Y-177072267D01*
X117424917Y-177332506D01*
X117424918Y-177332513D01*
X117425414Y-177337018D01*
X117426559Y-177341398D01*
X117426561Y-177341408D01*
X117446503Y-177417685D01*
X117493928Y-177599088D01*
X117495693Y-177603242D01*
X117495696Y-177603250D01*
X117598099Y-177844223D01*
X117599870Y-177848390D01*
X117602226Y-177852251D01*
X117602229Y-177852256D01*
X117692697Y-178000493D01*
X117740982Y-178079610D01*
X117914255Y-178287820D01*
X117917630Y-178290844D01*
X117917631Y-178290845D01*
X118093389Y-178448325D01*
X118115998Y-178468582D01*
X118341910Y-178618044D01*
X118587176Y-178733020D01*
X118846569Y-178811060D01*
X119114561Y-178850500D01*
X119315369Y-178850500D01*
X119317631Y-178850500D01*
X119520156Y-178835677D01*
X119784553Y-178776780D01*
X120037558Y-178680014D01*
X120273777Y-178547441D01*
X120488177Y-178381888D01*
X120676186Y-178186881D01*
X120833799Y-177966579D01*
X120957656Y-177725675D01*
X121045118Y-177469305D01*
X121094319Y-177202933D01*
X121104212Y-176932235D01*
X121074586Y-176662982D01*
X121006072Y-176400912D01*
X120900130Y-176151610D01*
X120759018Y-175920390D01*
X120585745Y-175712180D01*
X120480759Y-175618112D01*
X120387382Y-175534446D01*
X120387378Y-175534442D01*
X120384002Y-175531418D01*
X120158090Y-175381956D01*
X120153996Y-175380036D01*
X120153991Y-175380034D01*
X119916929Y-175268904D01*
X119916925Y-175268902D01*
X119912824Y-175266980D01*
X119908477Y-175265672D01*
X119908474Y-175265671D01*
X119657772Y-175190246D01*
X119657771Y-175190245D01*
X119653431Y-175188940D01*
X119648957Y-175188281D01*
X119648950Y-175188280D01*
X119389913Y-175150158D01*
X119389907Y-175150157D01*
X119385439Y-175149500D01*
X119182369Y-175149500D01*
X119180120Y-175149664D01*
X119180109Y-175149665D01*
X118984363Y-175163992D01*
X118984359Y-175163992D01*
X118979844Y-175164323D01*
X118975426Y-175165307D01*
X118975420Y-175165308D01*
X118719877Y-175222232D01*
X118719861Y-175222236D01*
X118715447Y-175223220D01*
X118711216Y-175224838D01*
X118711210Y-175224840D01*
X118466673Y-175318367D01*
X118466663Y-175318371D01*
X118462442Y-175319986D01*
X118458494Y-175322201D01*
X118458489Y-175322204D01*
X118230176Y-175450340D01*
X118230171Y-175450343D01*
X118226223Y-175452559D01*
X118222639Y-175455325D01*
X118222635Y-175455329D01*
X118015407Y-175615343D01*
X118015394Y-175615354D01*
X118011823Y-175618112D01*
X118008685Y-175621366D01*
X118008678Y-175621373D01*
X117826958Y-175809857D01*
X117826952Y-175809864D01*
X117823814Y-175813119D01*
X117821189Y-175816787D01*
X117821179Y-175816800D01*
X117668834Y-176029740D01*
X117668830Y-176029745D01*
X117666201Y-176033421D01*
X117664132Y-176037444D01*
X117664129Y-176037450D01*
X117544416Y-176270293D01*
X117544411Y-176270304D01*
X117542344Y-176274325D01*
X117540884Y-176278602D01*
X117540879Y-176278616D01*
X117456348Y-176526395D01*
X117456344Y-176526407D01*
X117454882Y-176530695D01*
X117454057Y-176535159D01*
X117454057Y-176535161D01*
X117406504Y-176792606D01*
X117406502Y-176792619D01*
X117405681Y-176797067D01*
X117405515Y-176801593D01*
X117405515Y-176801599D01*
X117398166Y-177002703D01*
X117395788Y-177067765D01*
X99334053Y-177067765D01*
X99400232Y-176943954D01*
X99460300Y-176745934D01*
X99480583Y-176540000D01*
X99460300Y-176334066D01*
X99400232Y-176136046D01*
X99302685Y-175953550D01*
X99171410Y-175793590D01*
X99011450Y-175662315D01*
X98928753Y-175618112D01*
X98834328Y-175567640D01*
X98834323Y-175567638D01*
X98828954Y-175564768D01*
X98728995Y-175534446D01*
X98636764Y-175506468D01*
X98636759Y-175506467D01*
X98630934Y-175504700D01*
X98624875Y-175504103D01*
X98624869Y-175504102D01*
X98431061Y-175485014D01*
X98425000Y-175484417D01*
X98418939Y-175485014D01*
X98225130Y-175504102D01*
X98225122Y-175504103D01*
X98219066Y-175504700D01*
X98213242Y-175506466D01*
X98213235Y-175506468D01*
X98026877Y-175562999D01*
X98026875Y-175562999D01*
X98021046Y-175564768D01*
X98015679Y-175567636D01*
X98015671Y-175567640D01*
X97843920Y-175659444D01*
X97843915Y-175659447D01*
X97838550Y-175662315D01*
X97833846Y-175666174D01*
X97833842Y-175666178D01*
X97683296Y-175789727D01*
X97683290Y-175789732D01*
X97678590Y-175793590D01*
X97674732Y-175798290D01*
X97674727Y-175798296D01*
X97551178Y-175948842D01*
X97551174Y-175948846D01*
X97547315Y-175953550D01*
X97544447Y-175958915D01*
X97544444Y-175958920D01*
X97452640Y-176130671D01*
X97452636Y-176130679D01*
X97449768Y-176136046D01*
X97447999Y-176141875D01*
X97447999Y-176141877D01*
X97391468Y-176328235D01*
X97391466Y-176328242D01*
X97389700Y-176334066D01*
X97389103Y-176340122D01*
X97389102Y-176340130D01*
X97383526Y-176396749D01*
X97369417Y-176540000D01*
X94630583Y-176540000D01*
X94610300Y-176334066D01*
X94550232Y-176136046D01*
X94452685Y-175953550D01*
X94321410Y-175793590D01*
X94161450Y-175662315D01*
X94078753Y-175618112D01*
X93984328Y-175567640D01*
X93984323Y-175567638D01*
X93978954Y-175564768D01*
X93878995Y-175534446D01*
X93786764Y-175506468D01*
X93786759Y-175506467D01*
X93780934Y-175504700D01*
X93774875Y-175504103D01*
X93774869Y-175504102D01*
X93581061Y-175485014D01*
X93575000Y-175484417D01*
X93568939Y-175485014D01*
X93375130Y-175504102D01*
X93375122Y-175504103D01*
X93369066Y-175504700D01*
X93363242Y-175506466D01*
X93363235Y-175506468D01*
X93176877Y-175562999D01*
X93176875Y-175562999D01*
X93171046Y-175564768D01*
X93165679Y-175567636D01*
X93165671Y-175567640D01*
X92993920Y-175659444D01*
X92993915Y-175659447D01*
X92988550Y-175662315D01*
X92983846Y-175666174D01*
X92983842Y-175666178D01*
X92833296Y-175789727D01*
X92833290Y-175789732D01*
X92828590Y-175793590D01*
X92824732Y-175798290D01*
X92824727Y-175798296D01*
X92701178Y-175948842D01*
X92701174Y-175948846D01*
X92697315Y-175953550D01*
X92694447Y-175958915D01*
X92694444Y-175958920D01*
X92602640Y-176130671D01*
X92602636Y-176130679D01*
X92599768Y-176136046D01*
X92597999Y-176141875D01*
X92597999Y-176141877D01*
X92541468Y-176328235D01*
X92541466Y-176328242D01*
X92539700Y-176334066D01*
X92539103Y-176340122D01*
X92539102Y-176340130D01*
X92533526Y-176396749D01*
X92519417Y-176540000D01*
X72950566Y-176540000D01*
X72985044Y-176456762D01*
X73005682Y-176300000D01*
X72985044Y-176143238D01*
X72924536Y-175997159D01*
X72828282Y-175871718D01*
X72828281Y-175871718D01*
X72829491Y-175870789D01*
X72809939Y-175841527D01*
X72800500Y-175794074D01*
X72800500Y-175577305D01*
X72809939Y-175529852D01*
X72836819Y-175489624D01*
X80405483Y-167920959D01*
X80405485Y-167920955D01*
X80428050Y-167898392D01*
X80438104Y-167878656D01*
X80448275Y-167862059D01*
X80461296Y-167844140D01*
X80468140Y-167823073D01*
X80475591Y-167805087D01*
X80481215Y-167794050D01*
X80481215Y-167794049D01*
X80485646Y-167785354D01*
X80489112Y-167763464D01*
X80493652Y-167744551D01*
X80500499Y-167723483D01*
X80500499Y-167691575D01*
X80500500Y-167691569D01*
X80500500Y-157017255D01*
X80509939Y-156969802D01*
X80536819Y-156929574D01*
X82629574Y-154836819D01*
X82669802Y-154809939D01*
X82717255Y-154800500D01*
X82894074Y-154800500D01*
X82941527Y-154809939D01*
X82970789Y-154829491D01*
X82971718Y-154828282D01*
X83097159Y-154924536D01*
X83243238Y-154985044D01*
X83400000Y-155005682D01*
X83556762Y-154985044D01*
X83702841Y-154924536D01*
X83828282Y-154828282D01*
X83924536Y-154702841D01*
X83985044Y-154556762D01*
X84005682Y-154400000D01*
X83985044Y-154243238D01*
X83924536Y-154097159D01*
X83828282Y-153971718D01*
X83702841Y-153875464D01*
X83695333Y-153872354D01*
X83564271Y-153818066D01*
X83564268Y-153818065D01*
X83556762Y-153814956D01*
X83548708Y-153813895D01*
X83548702Y-153813894D01*
X83408059Y-153795379D01*
X83400000Y-153794318D01*
X83391941Y-153795379D01*
X83251297Y-153813894D01*
X83251289Y-153813896D01*
X83243238Y-153814956D01*
X83235733Y-153818064D01*
X83235728Y-153818066D01*
X83104666Y-153872354D01*
X83104662Y-153872355D01*
X83097159Y-153875464D01*
X83090714Y-153880408D01*
X83090711Y-153880411D01*
X82971718Y-153971718D01*
X82970789Y-153970508D01*
X82941527Y-153990061D01*
X82894074Y-153999500D01*
X82563433Y-153999500D01*
X82436567Y-153999500D01*
X82427285Y-154002515D01*
X82427281Y-154002516D01*
X82415490Y-154006347D01*
X82396587Y-154010885D01*
X82384333Y-154012826D01*
X82384325Y-154012828D01*
X82374696Y-154014354D01*
X82366006Y-154018781D01*
X82366001Y-154018783D01*
X82354953Y-154024412D01*
X82336990Y-154031853D01*
X82325189Y-154035687D01*
X82325182Y-154035690D01*
X82315911Y-154038703D01*
X82308022Y-154044434D01*
X82308015Y-154044438D01*
X82297980Y-154051729D01*
X82281398Y-154061891D01*
X82270352Y-154067519D01*
X82270347Y-154067522D01*
X82261658Y-154071950D01*
X82254759Y-154078848D01*
X82254757Y-154078850D01*
X79794513Y-156539094D01*
X79778851Y-156554755D01*
X79778846Y-156554761D01*
X79771950Y-156561658D01*
X79767520Y-156570349D01*
X79767515Y-156570358D01*
X79761890Y-156581398D01*
X79751731Y-156597976D01*
X79744442Y-156608009D01*
X79744437Y-156608018D01*
X79738704Y-156615910D01*
X79735690Y-156625184D01*
X79735685Y-156625195D01*
X79731854Y-156636987D01*
X79724412Y-156654954D01*
X79718783Y-156666000D01*
X79718779Y-156666009D01*
X79714354Y-156674696D01*
X79712827Y-156684330D01*
X79712828Y-156684330D01*
X79710887Y-156696582D01*
X79706347Y-156715492D01*
X79702515Y-156727285D01*
X79702514Y-156727288D01*
X79699500Y-156736567D01*
X79699500Y-156746327D01*
X79699500Y-167442796D01*
X79690061Y-167490249D01*
X79663181Y-167530477D01*
X72094516Y-175099141D01*
X72094513Y-175099144D01*
X72078851Y-175114805D01*
X72078846Y-175114811D01*
X72071950Y-175121708D01*
X72067520Y-175130399D01*
X72067515Y-175130408D01*
X72061890Y-175141448D01*
X72051731Y-175158026D01*
X72044442Y-175168059D01*
X72044437Y-175168068D01*
X72038704Y-175175960D01*
X72035690Y-175185234D01*
X72035685Y-175185245D01*
X72031854Y-175197037D01*
X72024412Y-175215004D01*
X72018783Y-175226050D01*
X72018779Y-175226059D01*
X72014354Y-175234746D01*
X72012827Y-175244380D01*
X72012828Y-175244380D01*
X72010887Y-175256632D01*
X72006347Y-175275542D01*
X72002515Y-175287335D01*
X72002514Y-175287338D01*
X71999500Y-175296617D01*
X71999500Y-175306377D01*
X71999500Y-175794074D01*
X71990061Y-175841527D01*
X71970508Y-175870789D01*
X71971718Y-175871718D01*
X71880411Y-175990711D01*
X71880408Y-175990714D01*
X71875464Y-175997159D01*
X71872355Y-176004662D01*
X71872354Y-176004666D01*
X71818066Y-176135728D01*
X71818064Y-176135733D01*
X71814956Y-176143238D01*
X71813896Y-176151289D01*
X71813894Y-176151297D01*
X71798229Y-176270293D01*
X71794318Y-176300000D01*
X34713189Y-176300000D01*
X34650130Y-176151610D01*
X34509018Y-175920390D01*
X34335745Y-175712180D01*
X34230759Y-175618112D01*
X34137382Y-175534446D01*
X34137378Y-175534442D01*
X34134002Y-175531418D01*
X33908090Y-175381956D01*
X33903996Y-175380036D01*
X33903991Y-175380034D01*
X33666929Y-175268904D01*
X33666925Y-175268902D01*
X33662824Y-175266980D01*
X33658477Y-175265672D01*
X33658474Y-175265671D01*
X33407772Y-175190246D01*
X33407771Y-175190245D01*
X33403431Y-175188940D01*
X33398957Y-175188281D01*
X33398950Y-175188280D01*
X33139913Y-175150158D01*
X33139907Y-175150157D01*
X33135439Y-175149500D01*
X32932369Y-175149500D01*
X32930120Y-175149664D01*
X32930109Y-175149665D01*
X32734363Y-175163992D01*
X32734359Y-175163992D01*
X32729844Y-175164323D01*
X32725426Y-175165307D01*
X32725420Y-175165308D01*
X32469877Y-175222232D01*
X32469861Y-175222236D01*
X32465447Y-175223220D01*
X32461216Y-175224838D01*
X32461210Y-175224840D01*
X32216673Y-175318367D01*
X32216663Y-175318371D01*
X32212442Y-175319986D01*
X32208494Y-175322201D01*
X32208489Y-175322204D01*
X31980176Y-175450340D01*
X31980171Y-175450343D01*
X31976223Y-175452559D01*
X31972639Y-175455325D01*
X31972635Y-175455329D01*
X31765407Y-175615343D01*
X31765394Y-175615354D01*
X31761823Y-175618112D01*
X31758685Y-175621366D01*
X31758678Y-175621373D01*
X31576958Y-175809857D01*
X31576952Y-175809864D01*
X31573814Y-175813119D01*
X31571189Y-175816787D01*
X31571179Y-175816800D01*
X31418834Y-176029740D01*
X31418830Y-176029745D01*
X31416201Y-176033421D01*
X31414132Y-176037444D01*
X31414129Y-176037450D01*
X31294416Y-176270293D01*
X31294411Y-176270304D01*
X31292344Y-176274325D01*
X31290884Y-176278602D01*
X31290879Y-176278616D01*
X31206348Y-176526395D01*
X31206344Y-176526407D01*
X31204882Y-176530695D01*
X31204057Y-176535159D01*
X31204057Y-176535161D01*
X31156504Y-176792606D01*
X31156502Y-176792619D01*
X31155681Y-176797067D01*
X31155515Y-176801593D01*
X31155515Y-176801599D01*
X31148166Y-177002703D01*
X31145788Y-177067765D01*
X28503458Y-177067765D01*
X28500617Y-177002702D01*
X28500500Y-176997295D01*
X28500500Y-173294646D01*
X47199500Y-173294646D01*
X47200851Y-173301005D01*
X47200852Y-173301008D01*
X47237503Y-173473440D01*
X47237504Y-173473444D01*
X47238856Y-173479803D01*
X47241499Y-173485740D01*
X47241501Y-173485745D01*
X47313205Y-173646792D01*
X47315849Y-173652730D01*
X47427112Y-173805871D01*
X47567784Y-173932533D01*
X47731716Y-174027179D01*
X47911744Y-174085674D01*
X48052808Y-174100500D01*
X48143950Y-174100500D01*
X48147192Y-174100500D01*
X48288256Y-174085674D01*
X48468284Y-174027179D01*
X48632216Y-173932533D01*
X48772888Y-173805871D01*
X48884151Y-173652730D01*
X48961144Y-173479803D01*
X49000500Y-173294646D01*
X52199500Y-173294646D01*
X52200851Y-173301005D01*
X52200852Y-173301008D01*
X52237503Y-173473440D01*
X52237504Y-173473444D01*
X52238856Y-173479803D01*
X52241499Y-173485740D01*
X52241501Y-173485745D01*
X52313205Y-173646792D01*
X52315849Y-173652730D01*
X52427112Y-173805871D01*
X52567784Y-173932533D01*
X52731716Y-174027179D01*
X52911744Y-174085674D01*
X53052808Y-174100500D01*
X53143950Y-174100500D01*
X53147192Y-174100500D01*
X53288256Y-174085674D01*
X53468284Y-174027179D01*
X53632216Y-173932533D01*
X53772888Y-173805871D01*
X53884151Y-173652730D01*
X53961144Y-173479803D01*
X54000500Y-173294646D01*
X54000500Y-173105354D01*
X53961144Y-172920197D01*
X53884151Y-172747270D01*
X53772888Y-172594129D01*
X53632216Y-172467467D01*
X53468284Y-172372821D01*
X53462107Y-172370814D01*
X53462105Y-172370813D01*
X53294435Y-172316333D01*
X53294428Y-172316331D01*
X53288256Y-172314326D01*
X53281803Y-172313647D01*
X53281795Y-172313646D01*
X53150413Y-172299838D01*
X53150402Y-172299837D01*
X53147192Y-172299500D01*
X53052808Y-172299500D01*
X53049598Y-172299837D01*
X53049586Y-172299838D01*
X52918204Y-172313646D01*
X52918194Y-172313648D01*
X52911744Y-172314326D01*
X52905573Y-172316331D01*
X52905564Y-172316333D01*
X52737894Y-172370813D01*
X52737888Y-172370815D01*
X52731716Y-172372821D01*
X52726094Y-172376066D01*
X52726089Y-172376069D01*
X52573410Y-172464218D01*
X52573404Y-172464222D01*
X52567784Y-172467467D01*
X52562962Y-172471808D01*
X52562956Y-172471813D01*
X52431942Y-172589779D01*
X52431937Y-172589784D01*
X52427112Y-172594129D01*
X52423295Y-172599381D01*
X52423290Y-172599388D01*
X52319669Y-172742011D01*
X52319665Y-172742016D01*
X52315849Y-172747270D01*
X52313207Y-172753202D01*
X52313205Y-172753207D01*
X52241501Y-172914254D01*
X52241498Y-172914262D01*
X52238856Y-172920197D01*
X52237505Y-172926552D01*
X52237503Y-172926559D01*
X52200852Y-173098991D01*
X52199500Y-173105354D01*
X52199500Y-173294646D01*
X49000500Y-173294646D01*
X49000500Y-173105354D01*
X48961144Y-172920197D01*
X48884151Y-172747270D01*
X48772888Y-172594129D01*
X48632216Y-172467467D01*
X48468284Y-172372821D01*
X48462107Y-172370814D01*
X48462105Y-172370813D01*
X48294435Y-172316333D01*
X48294428Y-172316331D01*
X48288256Y-172314326D01*
X48281803Y-172313647D01*
X48281795Y-172313646D01*
X48150413Y-172299838D01*
X48150402Y-172299837D01*
X48147192Y-172299500D01*
X48052808Y-172299500D01*
X48049598Y-172299837D01*
X48049586Y-172299838D01*
X47918204Y-172313646D01*
X47918194Y-172313648D01*
X47911744Y-172314326D01*
X47905573Y-172316331D01*
X47905564Y-172316333D01*
X47737894Y-172370813D01*
X47737888Y-172370815D01*
X47731716Y-172372821D01*
X47726094Y-172376066D01*
X47726089Y-172376069D01*
X47573410Y-172464218D01*
X47573404Y-172464222D01*
X47567784Y-172467467D01*
X47562962Y-172471808D01*
X47562956Y-172471813D01*
X47431942Y-172589779D01*
X47431937Y-172589784D01*
X47427112Y-172594129D01*
X47423295Y-172599381D01*
X47423290Y-172599388D01*
X47319669Y-172742011D01*
X47319665Y-172742016D01*
X47315849Y-172747270D01*
X47313207Y-172753202D01*
X47313205Y-172753207D01*
X47241501Y-172914254D01*
X47241498Y-172914262D01*
X47238856Y-172920197D01*
X47237505Y-172926552D01*
X47237503Y-172926559D01*
X47200852Y-173098991D01*
X47199500Y-173105354D01*
X47199500Y-173294646D01*
X28500500Y-173294646D01*
X28500500Y-82077393D01*
X31174500Y-82077393D01*
X31177512Y-82086664D01*
X31177514Y-82086673D01*
X31181962Y-82100360D01*
X31186504Y-82119279D01*
X31190281Y-82143126D01*
X31194709Y-82151816D01*
X31194710Y-82151819D01*
X31201243Y-82164639D01*
X31208688Y-82182614D01*
X31216151Y-82205581D01*
X31221889Y-82213478D01*
X31230342Y-82225113D01*
X31240507Y-82241700D01*
X31251472Y-82263220D01*
X31258372Y-82270120D01*
X36128181Y-87139929D01*
X36155061Y-87180157D01*
X36164500Y-87227610D01*
X36164500Y-88942798D01*
X36148506Y-89003714D01*
X36104650Y-89048915D01*
X36044245Y-89066741D01*
X35982874Y-89052594D01*
X35946866Y-89033695D01*
X35946862Y-89033693D01*
X35940225Y-89030210D01*
X35932947Y-89028416D01*
X35932944Y-89028415D01*
X35782337Y-88991294D01*
X35782332Y-88991293D01*
X35775056Y-88989500D01*
X35604944Y-88989500D01*
X35597668Y-88991293D01*
X35597662Y-88991294D01*
X35447055Y-89028415D01*
X35447050Y-89028416D01*
X35439775Y-89030210D01*
X35433140Y-89033692D01*
X35433133Y-89033695D01*
X35295791Y-89105779D01*
X35295788Y-89105780D01*
X35289148Y-89109266D01*
X35283537Y-89114236D01*
X35283531Y-89114241D01*
X35167430Y-89217098D01*
X35161817Y-89222071D01*
X35157562Y-89228235D01*
X35157557Y-89228241D01*
X35069445Y-89355893D01*
X35069442Y-89355897D01*
X35065182Y-89362070D01*
X35062523Y-89369081D01*
X35062520Y-89369087D01*
X35007520Y-89514111D01*
X35007517Y-89514119D01*
X35004860Y-89521128D01*
X35003956Y-89528570D01*
X35003955Y-89528576D01*
X34995047Y-89601941D01*
X34984355Y-89690000D01*
X34985259Y-89697445D01*
X35003955Y-89851423D01*
X35003956Y-89851427D01*
X35004860Y-89858872D01*
X35007518Y-89865882D01*
X35007520Y-89865888D01*
X35062520Y-90010912D01*
X35065182Y-90017930D01*
X35161817Y-90157929D01*
X35289148Y-90270734D01*
X35373127Y-90314810D01*
X35421617Y-90360457D01*
X35439500Y-90424606D01*
X35439500Y-101327607D01*
X35439500Y-101462393D01*
X35442512Y-101471664D01*
X35442514Y-101471673D01*
X35446962Y-101485360D01*
X35451504Y-101504279D01*
X35455281Y-101528126D01*
X35459709Y-101536816D01*
X35459710Y-101536819D01*
X35466243Y-101549639D01*
X35473688Y-101567614D01*
X35481151Y-101590581D01*
X35486889Y-101598478D01*
X35495342Y-101610113D01*
X35505507Y-101626700D01*
X35516472Y-101648220D01*
X35523372Y-101655120D01*
X36248181Y-102379929D01*
X36275061Y-102420157D01*
X36284500Y-102467610D01*
X36284500Y-112752708D01*
X36271987Y-112806991D01*
X36236973Y-112850319D01*
X36186525Y-112873946D01*
X36130826Y-112873105D01*
X36097477Y-112864885D01*
X36042337Y-112851294D01*
X36042332Y-112851293D01*
X36035056Y-112849500D01*
X35864944Y-112849500D01*
X35857668Y-112851293D01*
X35857662Y-112851294D01*
X35707055Y-112888415D01*
X35707050Y-112888416D01*
X35699775Y-112890210D01*
X35693140Y-112893692D01*
X35693133Y-112893695D01*
X35555791Y-112965779D01*
X35555788Y-112965780D01*
X35549148Y-112969266D01*
X35543537Y-112974236D01*
X35543531Y-112974241D01*
X35427430Y-113077098D01*
X35421817Y-113082071D01*
X35417562Y-113088235D01*
X35417557Y-113088241D01*
X35329445Y-113215893D01*
X35329442Y-113215897D01*
X35325182Y-113222070D01*
X35322523Y-113229081D01*
X35322520Y-113229087D01*
X35267520Y-113374111D01*
X35267517Y-113374119D01*
X35264860Y-113381128D01*
X35263956Y-113388570D01*
X35263955Y-113388576D01*
X35253857Y-113471741D01*
X35244355Y-113550000D01*
X35245259Y-113557445D01*
X35263955Y-113711423D01*
X35263956Y-113711427D01*
X35264860Y-113718872D01*
X35267518Y-113725882D01*
X35267520Y-113725888D01*
X35310257Y-113838576D01*
X35325182Y-113877930D01*
X35421817Y-114017929D01*
X35482730Y-114071893D01*
X35513575Y-114113814D01*
X35524500Y-114164705D01*
X35524500Y-126012607D01*
X35524500Y-126147393D01*
X35527512Y-126156664D01*
X35527514Y-126156673D01*
X35531962Y-126170360D01*
X35536504Y-126189279D01*
X35540281Y-126213126D01*
X35544709Y-126221816D01*
X35544710Y-126221819D01*
X35551243Y-126234639D01*
X35558688Y-126252614D01*
X35566151Y-126275581D01*
X35571889Y-126283478D01*
X35580342Y-126295113D01*
X35590507Y-126311700D01*
X35601472Y-126333220D01*
X35608372Y-126340120D01*
X36513181Y-127244929D01*
X36540061Y-127285157D01*
X36549500Y-127332610D01*
X36549500Y-136686913D01*
X36533506Y-136747829D01*
X36489650Y-136793030D01*
X36429245Y-136810856D01*
X36367874Y-136796709D01*
X36266866Y-136743695D01*
X36266862Y-136743693D01*
X36260225Y-136740210D01*
X36252947Y-136738416D01*
X36252944Y-136738415D01*
X36102337Y-136701294D01*
X36102332Y-136701293D01*
X36095056Y-136699500D01*
X35924944Y-136699500D01*
X35917668Y-136701293D01*
X35917662Y-136701294D01*
X35767055Y-136738415D01*
X35767050Y-136738416D01*
X35759775Y-136740210D01*
X35753140Y-136743692D01*
X35753133Y-136743695D01*
X35615791Y-136815779D01*
X35615788Y-136815780D01*
X35609148Y-136819266D01*
X35603537Y-136824236D01*
X35603531Y-136824241D01*
X35487430Y-136927098D01*
X35481817Y-136932071D01*
X35477562Y-136938235D01*
X35477557Y-136938241D01*
X35389445Y-137065893D01*
X35389442Y-137065897D01*
X35385182Y-137072070D01*
X35382523Y-137079081D01*
X35382520Y-137079087D01*
X35327520Y-137224111D01*
X35327517Y-137224119D01*
X35324860Y-137231128D01*
X35323956Y-137238570D01*
X35323955Y-137238576D01*
X35319318Y-137276766D01*
X35304355Y-137400000D01*
X35305259Y-137407445D01*
X35323955Y-137561423D01*
X35323956Y-137561427D01*
X35324860Y-137568872D01*
X35327518Y-137575882D01*
X35327520Y-137575888D01*
X35382520Y-137720912D01*
X35385182Y-137727930D01*
X35481817Y-137867929D01*
X35567729Y-137944040D01*
X35598575Y-137985962D01*
X35609500Y-138036853D01*
X35609500Y-148996567D01*
X35609500Y-149123433D01*
X35612515Y-149132714D01*
X35612516Y-149132717D01*
X35616346Y-149144506D01*
X35620887Y-149163418D01*
X35624354Y-149185304D01*
X35628783Y-149193996D01*
X35628784Y-149193999D01*
X35634412Y-149205044D01*
X35641857Y-149223019D01*
X35648704Y-149244090D01*
X35654436Y-149251980D01*
X35654440Y-149251987D01*
X35661726Y-149262015D01*
X35671889Y-149278598D01*
X35681950Y-149298342D01*
X35704513Y-149320905D01*
X35704516Y-149320909D01*
X35920174Y-149536567D01*
X36113181Y-149729573D01*
X36140061Y-149769801D01*
X36149500Y-149817254D01*
X36149500Y-160481937D01*
X36135296Y-160539564D01*
X36095938Y-160583988D01*
X36040444Y-160605033D01*
X35990530Y-160598971D01*
X35990225Y-160600210D01*
X35832337Y-160561294D01*
X35832332Y-160561293D01*
X35825056Y-160559500D01*
X35654944Y-160559500D01*
X35647668Y-160561293D01*
X35647662Y-160561294D01*
X35497055Y-160598415D01*
X35497050Y-160598416D01*
X35489775Y-160600210D01*
X35483140Y-160603692D01*
X35483133Y-160603695D01*
X35345791Y-160675779D01*
X35345788Y-160675780D01*
X35339148Y-160679266D01*
X35333537Y-160684236D01*
X35333531Y-160684241D01*
X35217430Y-160787098D01*
X35211817Y-160792071D01*
X35207562Y-160798235D01*
X35207557Y-160798241D01*
X35119445Y-160925893D01*
X35119442Y-160925897D01*
X35115182Y-160932070D01*
X35112523Y-160939081D01*
X35112520Y-160939087D01*
X35057520Y-161084111D01*
X35057517Y-161084119D01*
X35054860Y-161091128D01*
X35053956Y-161098570D01*
X35053955Y-161098576D01*
X35035356Y-161251755D01*
X35034355Y-161260000D01*
X35035259Y-161267445D01*
X35053955Y-161421423D01*
X35053956Y-161421427D01*
X35054860Y-161428872D01*
X35057518Y-161435882D01*
X35057520Y-161435888D01*
X35104311Y-161559266D01*
X35115182Y-161587930D01*
X35119444Y-161594105D01*
X35119445Y-161594106D01*
X35173260Y-161672071D01*
X35211817Y-161727929D01*
X35272730Y-161781893D01*
X35303575Y-161823814D01*
X35314500Y-161874705D01*
X35314500Y-164902607D01*
X35314500Y-165037393D01*
X35317512Y-165046664D01*
X35317514Y-165046673D01*
X35321962Y-165060360D01*
X35326504Y-165079279D01*
X35330281Y-165103126D01*
X35334709Y-165111816D01*
X35334710Y-165111819D01*
X35341243Y-165124639D01*
X35348688Y-165142614D01*
X35356151Y-165165581D01*
X35361889Y-165173478D01*
X35370342Y-165185113D01*
X35380507Y-165201700D01*
X35391472Y-165223220D01*
X35398372Y-165230120D01*
X36082911Y-165914659D01*
X36112446Y-165961889D01*
X36118326Y-166017282D01*
X36115259Y-166042549D01*
X36115259Y-166042555D01*
X36114355Y-166050000D01*
X36115259Y-166057445D01*
X36133955Y-166211423D01*
X36133956Y-166211427D01*
X36134860Y-166218872D01*
X36137518Y-166225882D01*
X36137520Y-166225888D01*
X36180257Y-166338576D01*
X36195182Y-166377930D01*
X36291817Y-166517929D01*
X36419148Y-166630734D01*
X36569775Y-166709790D01*
X36734944Y-166750500D01*
X36897556Y-166750500D01*
X36905056Y-166750500D01*
X37070225Y-166709790D01*
X37220852Y-166630734D01*
X37348183Y-166517929D01*
X37360559Y-166500000D01*
X41144355Y-166500000D01*
X41145259Y-166507445D01*
X41163955Y-166661423D01*
X41163956Y-166661427D01*
X41164860Y-166668872D01*
X41167518Y-166675882D01*
X41167520Y-166675888D01*
X41222520Y-166820912D01*
X41225182Y-166827930D01*
X41229444Y-166834105D01*
X41229445Y-166834106D01*
X41312243Y-166954060D01*
X41321817Y-166967929D01*
X41449148Y-167080734D01*
X41599775Y-167159790D01*
X41764944Y-167200500D01*
X41927556Y-167200500D01*
X41935056Y-167200500D01*
X42100225Y-167159790D01*
X42250852Y-167080734D01*
X42378183Y-166967929D01*
X42387756Y-166954059D01*
X42432180Y-166914704D01*
X42489806Y-166900500D01*
X49353677Y-166900500D01*
X49363433Y-166900500D01*
X49384495Y-166893656D01*
X49403423Y-166889111D01*
X49425304Y-166885646D01*
X49445045Y-166875586D01*
X49463014Y-166868143D01*
X49484090Y-166861296D01*
X49502016Y-166848271D01*
X49518602Y-166838107D01*
X49538342Y-166828050D01*
X49560905Y-166805486D01*
X49560909Y-166805484D01*
X54368355Y-161998037D01*
X54420576Y-161966898D01*
X54481325Y-161964327D01*
X54535993Y-161990944D01*
X54571435Y-162040349D01*
X54579130Y-162100664D01*
X54575259Y-162132551D01*
X54574355Y-162140000D01*
X54575259Y-162147445D01*
X54593955Y-162301423D01*
X54593956Y-162301427D01*
X54594860Y-162308872D01*
X54597518Y-162315882D01*
X54597520Y-162315888D01*
X54652520Y-162460912D01*
X54655182Y-162467930D01*
X54751817Y-162607929D01*
X54879148Y-162720734D01*
X55029775Y-162799790D01*
X55194944Y-162840500D01*
X55357556Y-162840500D01*
X55365056Y-162840500D01*
X55530225Y-162799790D01*
X55680852Y-162720734D01*
X55808183Y-162607929D01*
X55904818Y-162467930D01*
X55965140Y-162308872D01*
X55985645Y-162140000D01*
X55977844Y-162075757D01*
X55983723Y-162020365D01*
X56013257Y-161973134D01*
X61250905Y-156735486D01*
X61250909Y-156735484D01*
X62699573Y-155286818D01*
X62739801Y-155259939D01*
X62787254Y-155250500D01*
X77940194Y-155250500D01*
X77997820Y-155264704D01*
X78042243Y-155304059D01*
X78051817Y-155317929D01*
X78179148Y-155430734D01*
X78329775Y-155509790D01*
X78494944Y-155550500D01*
X78657556Y-155550500D01*
X78665056Y-155550500D01*
X78830225Y-155509790D01*
X78980852Y-155430734D01*
X79108183Y-155317929D01*
X79204818Y-155177930D01*
X79265140Y-155018872D01*
X79285645Y-154850000D01*
X79265140Y-154681128D01*
X79204818Y-154522070D01*
X79108183Y-154382071D01*
X78980852Y-154269266D01*
X78944144Y-154250000D01*
X78836866Y-154193695D01*
X78836862Y-154193693D01*
X78830225Y-154190210D01*
X78822947Y-154188416D01*
X78822944Y-154188415D01*
X78672337Y-154151294D01*
X78672332Y-154151293D01*
X78665056Y-154149500D01*
X78494944Y-154149500D01*
X78487668Y-154151293D01*
X78487662Y-154151294D01*
X78337055Y-154188415D01*
X78337050Y-154188416D01*
X78329775Y-154190210D01*
X78323140Y-154193692D01*
X78323133Y-154193695D01*
X78185791Y-154265779D01*
X78185788Y-154265780D01*
X78179148Y-154269266D01*
X78173537Y-154274236D01*
X78173531Y-154274241D01*
X78057430Y-154377098D01*
X78051817Y-154382071D01*
X78047558Y-154388240D01*
X78047558Y-154388241D01*
X78042244Y-154395940D01*
X77997820Y-154435296D01*
X77940194Y-154449500D01*
X62538481Y-154449500D01*
X62538477Y-154449500D01*
X62538469Y-154449501D01*
X62506567Y-154449501D01*
X62490928Y-154454581D01*
X62485496Y-154456347D01*
X62466585Y-154460887D01*
X62454335Y-154462827D01*
X62454333Y-154462827D01*
X62444696Y-154464354D01*
X62436001Y-154468784D01*
X62435995Y-154468786D01*
X62424949Y-154474414D01*
X62406986Y-154481855D01*
X62395186Y-154485689D01*
X62395181Y-154485691D01*
X62385910Y-154488704D01*
X62378024Y-154494433D01*
X62378013Y-154494439D01*
X62367983Y-154501727D01*
X62351400Y-154511890D01*
X62340355Y-154517517D01*
X62340347Y-154517522D01*
X62331658Y-154521950D01*
X62324757Y-154528850D01*
X62324755Y-154528852D01*
X62309093Y-154544513D01*
X62309091Y-154544515D01*
X62309090Y-154544517D01*
X62309091Y-154544517D01*
X60684516Y-156169091D01*
X60684513Y-156169094D01*
X55450425Y-161403181D01*
X55410197Y-161430061D01*
X55362744Y-161439500D01*
X55226255Y-161439500D01*
X55169960Y-161425985D01*
X55125937Y-161388385D01*
X55103782Y-161334898D01*
X55108324Y-161277182D01*
X55138574Y-161227819D01*
X68182787Y-148183606D01*
X76402960Y-139963433D01*
X101599500Y-139963433D01*
X101602515Y-139972714D01*
X101602516Y-139972717D01*
X101606346Y-139984506D01*
X101610887Y-140003418D01*
X101614354Y-140025304D01*
X101618783Y-140033996D01*
X101618784Y-140033999D01*
X101624412Y-140045044D01*
X101631857Y-140063019D01*
X101638704Y-140084090D01*
X101644436Y-140091980D01*
X101644440Y-140091987D01*
X101651726Y-140102015D01*
X101661889Y-140118598D01*
X101671950Y-140138342D01*
X101678850Y-140145242D01*
X101694513Y-140160905D01*
X101694516Y-140160909D01*
X102666739Y-141133132D01*
X102696275Y-141180363D01*
X102702154Y-141235757D01*
X102695259Y-141292552D01*
X102694355Y-141300000D01*
X102695259Y-141307445D01*
X102713955Y-141461423D01*
X102713956Y-141461427D01*
X102714860Y-141468872D01*
X102717518Y-141475882D01*
X102717520Y-141475888D01*
X102772520Y-141620912D01*
X102775182Y-141627930D01*
X102871817Y-141767929D01*
X102999148Y-141880734D01*
X103149775Y-141959790D01*
X103314944Y-142000500D01*
X103477556Y-142000500D01*
X103485056Y-142000500D01*
X103650225Y-141959790D01*
X103800852Y-141880734D01*
X103928183Y-141767929D01*
X104024818Y-141627930D01*
X104085140Y-141468872D01*
X104105645Y-141300000D01*
X104085140Y-141131128D01*
X104024818Y-140972070D01*
X103928183Y-140832071D01*
X103800852Y-140719266D01*
X103775823Y-140706129D01*
X103656866Y-140643695D01*
X103656862Y-140643693D01*
X103650225Y-140640210D01*
X103642947Y-140638416D01*
X103642944Y-140638415D01*
X103492337Y-140601294D01*
X103492332Y-140601293D01*
X103485056Y-140599500D01*
X103317255Y-140599500D01*
X103269802Y-140590061D01*
X103229574Y-140563181D01*
X102436819Y-139770426D01*
X102409939Y-139730198D01*
X102400500Y-139682745D01*
X102400500Y-119217255D01*
X102409939Y-119169802D01*
X102436819Y-119129574D01*
X102827302Y-118739091D01*
X106345484Y-115220909D01*
X106345486Y-115220905D01*
X106368050Y-115198342D01*
X106378109Y-115178598D01*
X106388274Y-115162012D01*
X106401296Y-115144089D01*
X106408142Y-115123015D01*
X106415583Y-115105052D01*
X106425646Y-115085304D01*
X106429111Y-115063422D01*
X106433653Y-115044501D01*
X106440500Y-115023433D01*
X106440500Y-114896567D01*
X106440500Y-90217500D01*
X115099355Y-90217500D01*
X115100259Y-90224945D01*
X115118955Y-90378923D01*
X115118956Y-90378927D01*
X115119860Y-90386372D01*
X115122518Y-90393382D01*
X115122520Y-90393388D01*
X115173979Y-90529074D01*
X115180182Y-90545430D01*
X115184444Y-90551605D01*
X115184445Y-90551606D01*
X115190556Y-90560460D01*
X115276817Y-90685429D01*
X115337730Y-90739393D01*
X115368575Y-90781314D01*
X115379500Y-90832205D01*
X115379500Y-103170107D01*
X115379500Y-103304893D01*
X115382512Y-103314164D01*
X115382514Y-103314173D01*
X115386962Y-103327860D01*
X115391504Y-103346779D01*
X115395281Y-103370626D01*
X115399709Y-103379316D01*
X115399710Y-103379319D01*
X115406243Y-103392139D01*
X115413688Y-103410114D01*
X115421151Y-103433081D01*
X115426889Y-103440978D01*
X115435342Y-103452613D01*
X115445507Y-103469200D01*
X115456472Y-103490720D01*
X115463372Y-103497620D01*
X116188181Y-104222429D01*
X116215061Y-104262657D01*
X116224500Y-104310110D01*
X116224500Y-113241581D01*
X116211987Y-113295864D01*
X116176973Y-113339192D01*
X116126526Y-113362819D01*
X116070825Y-113361978D01*
X116017337Y-113348794D01*
X116017332Y-113348793D01*
X116010056Y-113347000D01*
X115839944Y-113347000D01*
X115832668Y-113348793D01*
X115832662Y-113348794D01*
X115682055Y-113385915D01*
X115682050Y-113385916D01*
X115674775Y-113387710D01*
X115668140Y-113391192D01*
X115668133Y-113391195D01*
X115530791Y-113463279D01*
X115530788Y-113463280D01*
X115524148Y-113466766D01*
X115518537Y-113471736D01*
X115518531Y-113471741D01*
X115421792Y-113557445D01*
X115396817Y-113579571D01*
X115392562Y-113585735D01*
X115392557Y-113585741D01*
X115304445Y-113713393D01*
X115304442Y-113713397D01*
X115300182Y-113719570D01*
X115297523Y-113726581D01*
X115297520Y-113726587D01*
X115242520Y-113871611D01*
X115242517Y-113871619D01*
X115239860Y-113878628D01*
X115238956Y-113886070D01*
X115238955Y-113886076D01*
X115223695Y-114011758D01*
X115219355Y-114047500D01*
X115220259Y-114054945D01*
X115238955Y-114208923D01*
X115238956Y-114208927D01*
X115239860Y-114216372D01*
X115242518Y-114223382D01*
X115242520Y-114223388D01*
X115297520Y-114368412D01*
X115300182Y-114375430D01*
X115396817Y-114515429D01*
X115457730Y-114569393D01*
X115488575Y-114611314D01*
X115499500Y-114662205D01*
X115499500Y-126867607D01*
X115499500Y-127002393D01*
X115502512Y-127011664D01*
X115502514Y-127011673D01*
X115506962Y-127025360D01*
X115511504Y-127044279D01*
X115515281Y-127068126D01*
X115519709Y-127076816D01*
X115519710Y-127076819D01*
X115526243Y-127089639D01*
X115533688Y-127107614D01*
X115541151Y-127130581D01*
X115546889Y-127138478D01*
X115555342Y-127150113D01*
X115565507Y-127166700D01*
X115576472Y-127188220D01*
X115600446Y-127212194D01*
X116033131Y-127644879D01*
X116433181Y-128044928D01*
X116460061Y-128085156D01*
X116469500Y-128132609D01*
X116469500Y-137141789D01*
X116453506Y-137202705D01*
X116409650Y-137247906D01*
X116349245Y-137265732D01*
X116287874Y-137251585D01*
X116191866Y-137201195D01*
X116191862Y-137201193D01*
X116185225Y-137197710D01*
X116177947Y-137195916D01*
X116177944Y-137195915D01*
X116027337Y-137158794D01*
X116027332Y-137158793D01*
X116020056Y-137157000D01*
X115849944Y-137157000D01*
X115842668Y-137158793D01*
X115842662Y-137158794D01*
X115692055Y-137195915D01*
X115692050Y-137195916D01*
X115684775Y-137197710D01*
X115678140Y-137201192D01*
X115678133Y-137201195D01*
X115540791Y-137273279D01*
X115540788Y-137273280D01*
X115534148Y-137276766D01*
X115528537Y-137281736D01*
X115528531Y-137281741D01*
X115412430Y-137384598D01*
X115406817Y-137389571D01*
X115402562Y-137395735D01*
X115402557Y-137395741D01*
X115314445Y-137523393D01*
X115314442Y-137523397D01*
X115310182Y-137529570D01*
X115307523Y-137536581D01*
X115307520Y-137536587D01*
X115252520Y-137681611D01*
X115252517Y-137681619D01*
X115249860Y-137688628D01*
X115248956Y-137696070D01*
X115248955Y-137696076D01*
X115230356Y-137849255D01*
X115229355Y-137857500D01*
X115230259Y-137864945D01*
X115248955Y-138018923D01*
X115248956Y-138018927D01*
X115249860Y-138026372D01*
X115252518Y-138033382D01*
X115252520Y-138033388D01*
X115307520Y-138178412D01*
X115310182Y-138185430D01*
X115314444Y-138191605D01*
X115314445Y-138191606D01*
X115400499Y-138316277D01*
X115406817Y-138325429D01*
X115467730Y-138379393D01*
X115498575Y-138421314D01*
X115509500Y-138472205D01*
X115509500Y-150517607D01*
X115509500Y-150652393D01*
X115512512Y-150661664D01*
X115512514Y-150661673D01*
X115516962Y-150675360D01*
X115521504Y-150694279D01*
X115525281Y-150718126D01*
X115529709Y-150726816D01*
X115529710Y-150726819D01*
X115536243Y-150739639D01*
X115543688Y-150757614D01*
X115551151Y-150780581D01*
X115556889Y-150788478D01*
X115565342Y-150800113D01*
X115575507Y-150816700D01*
X115586472Y-150838220D01*
X115593371Y-150845119D01*
X115593372Y-150845120D01*
X116053181Y-151304929D01*
X116080061Y-151345157D01*
X116089500Y-151392610D01*
X116089500Y-162852795D01*
X116078575Y-162903686D01*
X116047730Y-162945606D01*
X115986817Y-162999571D01*
X115982562Y-163005735D01*
X115982557Y-163005741D01*
X115894445Y-163133393D01*
X115894442Y-163133397D01*
X115890182Y-163139570D01*
X115887523Y-163146581D01*
X115887520Y-163146587D01*
X115832520Y-163291611D01*
X115832517Y-163291619D01*
X115829860Y-163298628D01*
X115828956Y-163306070D01*
X115828955Y-163306076D01*
X115810356Y-163459255D01*
X115809355Y-163467500D01*
X115810259Y-163474945D01*
X115828955Y-163628923D01*
X115828956Y-163628927D01*
X115829860Y-163636372D01*
X115832518Y-163643382D01*
X115832520Y-163643388D01*
X115887520Y-163788412D01*
X115890182Y-163795430D01*
X115986817Y-163935429D01*
X116114148Y-164048234D01*
X116264775Y-164127290D01*
X116429944Y-164168000D01*
X116592556Y-164168000D01*
X116600056Y-164168000D01*
X116765225Y-164127290D01*
X116915852Y-164048234D01*
X117043183Y-163935429D01*
X117139818Y-163795430D01*
X117200140Y-163636372D01*
X117220645Y-163467500D01*
X117200140Y-163298628D01*
X117139818Y-163139570D01*
X117043183Y-162999571D01*
X116982269Y-162945606D01*
X116951425Y-162903686D01*
X116940500Y-162852795D01*
X116940500Y-151107367D01*
X116940500Y-151097607D01*
X116933039Y-151074646D01*
X116928495Y-151055719D01*
X116926245Y-151041511D01*
X116924719Y-151031874D01*
X116913754Y-151010356D01*
X116906310Y-150992383D01*
X116898849Y-150969419D01*
X116884657Y-150949886D01*
X116874489Y-150933293D01*
X116867959Y-150920477D01*
X116863528Y-150911780D01*
X116768220Y-150816472D01*
X116396819Y-150445071D01*
X116369939Y-150404843D01*
X116360500Y-150357390D01*
X116360500Y-140333211D01*
X116376494Y-140272295D01*
X116420350Y-140227094D01*
X116480755Y-140209268D01*
X116542125Y-140223414D01*
X116644775Y-140277290D01*
X116809944Y-140318000D01*
X116972556Y-140318000D01*
X116980056Y-140318000D01*
X117145225Y-140277290D01*
X117295852Y-140198234D01*
X117423183Y-140085429D01*
X117519818Y-139945430D01*
X117580140Y-139786372D01*
X117600645Y-139617500D01*
X117580140Y-139448628D01*
X117558251Y-139390912D01*
X117522479Y-139296587D01*
X117519818Y-139289570D01*
X117423183Y-139149571D01*
X117362269Y-139095606D01*
X117331425Y-139053686D01*
X117320500Y-139002795D01*
X117320500Y-127847367D01*
X117320500Y-127837607D01*
X117313039Y-127814646D01*
X117308495Y-127795719D01*
X117306245Y-127781511D01*
X117304719Y-127771874D01*
X117293754Y-127750356D01*
X117286310Y-127732383D01*
X117278849Y-127709419D01*
X117264658Y-127689887D01*
X117254491Y-127673297D01*
X117243528Y-127651780D01*
X117148220Y-127556472D01*
X117148218Y-127556471D01*
X116771272Y-127179525D01*
X116386819Y-126795071D01*
X116359939Y-126754843D01*
X116350500Y-126707390D01*
X116350500Y-116534702D01*
X116366494Y-116473786D01*
X116410350Y-116428585D01*
X116470755Y-116410759D01*
X116532126Y-116424906D01*
X116574775Y-116447290D01*
X116739944Y-116488000D01*
X116902556Y-116488000D01*
X116910056Y-116488000D01*
X117075225Y-116447290D01*
X117225852Y-116368234D01*
X117353183Y-116255429D01*
X117449818Y-116115430D01*
X117510140Y-115956372D01*
X117530645Y-115787500D01*
X117510140Y-115618628D01*
X117503926Y-115602244D01*
X117452479Y-115466587D01*
X117449818Y-115459570D01*
X117353183Y-115319571D01*
X117274374Y-115249752D01*
X117231468Y-115211741D01*
X117231466Y-115211739D01*
X117225852Y-115206766D01*
X117141872Y-115162689D01*
X117093383Y-115117043D01*
X117075500Y-115052894D01*
X117075500Y-104024867D01*
X117075500Y-104015107D01*
X117068039Y-103992146D01*
X117063495Y-103973219D01*
X117061245Y-103959011D01*
X117059719Y-103949374D01*
X117048754Y-103927856D01*
X117041310Y-103909883D01*
X117033849Y-103886919D01*
X117019653Y-103867380D01*
X117009491Y-103850796D01*
X116998528Y-103829280D01*
X116903220Y-103733972D01*
X116266819Y-103097571D01*
X116239939Y-103057343D01*
X116230500Y-103009890D01*
X116230500Y-92724792D01*
X116243013Y-92670509D01*
X116278027Y-92627181D01*
X116328475Y-92603554D01*
X116384173Y-92604394D01*
X116479944Y-92628000D01*
X116642556Y-92628000D01*
X116650056Y-92628000D01*
X116815225Y-92587290D01*
X116965852Y-92508234D01*
X117093183Y-92395429D01*
X117189818Y-92255430D01*
X117250140Y-92096372D01*
X117270645Y-91927500D01*
X117250140Y-91758628D01*
X117189818Y-91599570D01*
X117093183Y-91459571D01*
X117032269Y-91405606D01*
X117001425Y-91363686D01*
X116990500Y-91312795D01*
X116990500Y-79339867D01*
X116990500Y-79330107D01*
X116983039Y-79307146D01*
X116978495Y-79288219D01*
X116976245Y-79274011D01*
X116974719Y-79264374D01*
X116963754Y-79242856D01*
X116956310Y-79224883D01*
X116948849Y-79201919D01*
X116934657Y-79182386D01*
X116924489Y-79165793D01*
X116917959Y-79152977D01*
X116913528Y-79144280D01*
X116818220Y-79048972D01*
X116818219Y-79048971D01*
X116001819Y-78232571D01*
X115974939Y-78192343D01*
X115965500Y-78144890D01*
X115965500Y-68903419D01*
X115978013Y-68849136D01*
X116013027Y-68805808D01*
X116063474Y-68782181D01*
X116119175Y-68783022D01*
X116179944Y-68798000D01*
X116342556Y-68798000D01*
X116350056Y-68798000D01*
X116515225Y-68757290D01*
X116665852Y-68678234D01*
X116793183Y-68565429D01*
X116889818Y-68425430D01*
X116950140Y-68266372D01*
X116970645Y-68097500D01*
X116969741Y-68090055D01*
X116969741Y-68090051D01*
X116966673Y-68064790D01*
X116972550Y-68009392D01*
X117002085Y-67962161D01*
X121574554Y-63389694D01*
X121574555Y-63389691D01*
X121598528Y-63365720D01*
X121609492Y-63344201D01*
X121619651Y-63327623D01*
X121633850Y-63308081D01*
X121641310Y-63285116D01*
X121648760Y-63267133D01*
X121655286Y-63254326D01*
X121655286Y-63254324D01*
X121659719Y-63245626D01*
X121663497Y-63221764D01*
X121668035Y-63202865D01*
X121675500Y-63179893D01*
X121675500Y-63045107D01*
X121675500Y-47729012D01*
X121675500Y-47695107D01*
X121668039Y-47672146D01*
X121663495Y-47653219D01*
X121661245Y-47639011D01*
X121659719Y-47629374D01*
X121648754Y-47607856D01*
X121641310Y-47589883D01*
X121633849Y-47566919D01*
X121619657Y-47547386D01*
X121609489Y-47530793D01*
X121602959Y-47517977D01*
X121598528Y-47509280D01*
X121503220Y-47413972D01*
X116762087Y-42672838D01*
X116732550Y-42625605D01*
X116726673Y-42570207D01*
X116729741Y-42544947D01*
X116729741Y-42544945D01*
X116730645Y-42537500D01*
X116710140Y-42368628D01*
X116649818Y-42209570D01*
X116576014Y-42102647D01*
X116557442Y-42075741D01*
X116557441Y-42075740D01*
X116553183Y-42069571D01*
X116425852Y-41956766D01*
X116400823Y-41943629D01*
X116281866Y-41881195D01*
X116281862Y-41881193D01*
X116275225Y-41877710D01*
X116267947Y-41875916D01*
X116267944Y-41875915D01*
X116117337Y-41838794D01*
X116117332Y-41838793D01*
X116110056Y-41837000D01*
X115939944Y-41837000D01*
X115932668Y-41838793D01*
X115932662Y-41838794D01*
X115782055Y-41875915D01*
X115782050Y-41875916D01*
X115774775Y-41877710D01*
X115768140Y-41881192D01*
X115768133Y-41881195D01*
X115630791Y-41953279D01*
X115630788Y-41953280D01*
X115624148Y-41956766D01*
X115618537Y-41961736D01*
X115618531Y-41961741D01*
X115527131Y-42042715D01*
X115496817Y-42069571D01*
X115492562Y-42075735D01*
X115492557Y-42075741D01*
X115404445Y-42203393D01*
X115404442Y-42203397D01*
X115400182Y-42209570D01*
X115397523Y-42216581D01*
X115397520Y-42216587D01*
X115342520Y-42361611D01*
X115342517Y-42361619D01*
X115339860Y-42368628D01*
X115338956Y-42376070D01*
X115338955Y-42376076D01*
X115320356Y-42529255D01*
X115319355Y-42537500D01*
X115320259Y-42544945D01*
X115338955Y-42698923D01*
X115338956Y-42698927D01*
X115339860Y-42706372D01*
X115342518Y-42713382D01*
X115342520Y-42713388D01*
X115355199Y-42746819D01*
X115400182Y-42865430D01*
X115496817Y-43005429D01*
X115624148Y-43118234D01*
X115774775Y-43197290D01*
X115939944Y-43238000D01*
X115947444Y-43238000D01*
X116072390Y-43238000D01*
X116119843Y-43247439D01*
X116160071Y-43274319D01*
X120788181Y-47902429D01*
X120815061Y-47942657D01*
X120824500Y-47990110D01*
X120824500Y-62884890D01*
X120815061Y-62932343D01*
X120788181Y-62972571D01*
X116400070Y-67360681D01*
X116359842Y-67387561D01*
X116312389Y-67397000D01*
X116179944Y-67397000D01*
X116172668Y-67398793D01*
X116172662Y-67398794D01*
X116119175Y-67411978D01*
X116063474Y-67412819D01*
X116013027Y-67389192D01*
X115978013Y-67345864D01*
X115965500Y-67291581D01*
X115965500Y-67185942D01*
X115975422Y-67137338D01*
X116003602Y-67096513D01*
X116045528Y-67070000D01*
X116047936Y-67069086D01*
X116055225Y-67067290D01*
X116205852Y-66988234D01*
X116333183Y-66875429D01*
X116429818Y-66735430D01*
X116490140Y-66576372D01*
X116510645Y-66407500D01*
X116490140Y-66238628D01*
X116429818Y-66079570D01*
X116342209Y-65952647D01*
X116337442Y-65945741D01*
X116337441Y-65945740D01*
X116333183Y-65939571D01*
X116205852Y-65826766D01*
X116180823Y-65813629D01*
X116061866Y-65751195D01*
X116061862Y-65751193D01*
X116055225Y-65747710D01*
X116047947Y-65745916D01*
X116047944Y-65745915D01*
X115897337Y-65708794D01*
X115897332Y-65708793D01*
X115890056Y-65707000D01*
X115719944Y-65707000D01*
X115712668Y-65708793D01*
X115712662Y-65708794D01*
X115562055Y-65745915D01*
X115562050Y-65745916D01*
X115554775Y-65747710D01*
X115548140Y-65751192D01*
X115548133Y-65751195D01*
X115410791Y-65823279D01*
X115410788Y-65823280D01*
X115404148Y-65826766D01*
X115398537Y-65831736D01*
X115398531Y-65831741D01*
X115282430Y-65934598D01*
X115276817Y-65939571D01*
X115272562Y-65945735D01*
X115272557Y-65945741D01*
X115184445Y-66073393D01*
X115184442Y-66073397D01*
X115180182Y-66079570D01*
X115177523Y-66086581D01*
X115177520Y-66086587D01*
X115122520Y-66231611D01*
X115122517Y-66231619D01*
X115119860Y-66238628D01*
X115118956Y-66246070D01*
X115118955Y-66246076D01*
X115100356Y-66399255D01*
X115099355Y-66407500D01*
X115100259Y-66414945D01*
X115118089Y-66561788D01*
X115117469Y-66595965D01*
X115114500Y-66605107D01*
X115114500Y-66639012D01*
X115114500Y-78305107D01*
X115114500Y-78439893D01*
X115117512Y-78449164D01*
X115117514Y-78449173D01*
X115121962Y-78462860D01*
X115126504Y-78481779D01*
X115130281Y-78505626D01*
X115134709Y-78514316D01*
X115134710Y-78514319D01*
X115141243Y-78527139D01*
X115148688Y-78545114D01*
X115156151Y-78568081D01*
X115161889Y-78575978D01*
X115170342Y-78587613D01*
X115180507Y-78604200D01*
X115191472Y-78625720D01*
X115198372Y-78632620D01*
X116103181Y-79537429D01*
X116130061Y-79577657D01*
X116139500Y-79625110D01*
X116139500Y-89420208D01*
X116126987Y-89474491D01*
X116091973Y-89517819D01*
X116041525Y-89541446D01*
X115985826Y-89540605D01*
X115952477Y-89532385D01*
X115897337Y-89518794D01*
X115897332Y-89518793D01*
X115890056Y-89517000D01*
X115719944Y-89517000D01*
X115712668Y-89518793D01*
X115712662Y-89518794D01*
X115562055Y-89555915D01*
X115562050Y-89555916D01*
X115554775Y-89557710D01*
X115548140Y-89561192D01*
X115548133Y-89561195D01*
X115410791Y-89633279D01*
X115410788Y-89633280D01*
X115404148Y-89636766D01*
X115398537Y-89641736D01*
X115398531Y-89641741D01*
X115282430Y-89744598D01*
X115276817Y-89749571D01*
X115272562Y-89755735D01*
X115272557Y-89755741D01*
X115184445Y-89883393D01*
X115184442Y-89883397D01*
X115180182Y-89889570D01*
X115177523Y-89896581D01*
X115177520Y-89896587D01*
X115122520Y-90041611D01*
X115122517Y-90041619D01*
X115119860Y-90048628D01*
X115118956Y-90056070D01*
X115118955Y-90056076D01*
X115100356Y-90209255D01*
X115099355Y-90217500D01*
X106440500Y-90217500D01*
X106440500Y-71177255D01*
X106449939Y-71129802D01*
X106476819Y-71089574D01*
X111882282Y-65684111D01*
X117405484Y-60160909D01*
X117405486Y-60160905D01*
X117428050Y-60138342D01*
X117438107Y-60118602D01*
X117448271Y-60102016D01*
X117461296Y-60084090D01*
X117468143Y-60063014D01*
X117475586Y-60045045D01*
X117485646Y-60025304D01*
X117489111Y-60003423D01*
X117493656Y-59984496D01*
X117497485Y-59972712D01*
X117497485Y-59972711D01*
X117500500Y-59963433D01*
X117500500Y-59836567D01*
X117500500Y-56536853D01*
X117511425Y-56485962D01*
X117542270Y-56444040D01*
X117628183Y-56367929D01*
X117724818Y-56227930D01*
X117785140Y-56068872D01*
X117805645Y-55900000D01*
X117785140Y-55731128D01*
X117724818Y-55572070D01*
X117628183Y-55432071D01*
X117611837Y-55417590D01*
X117576495Y-55364191D01*
X117572508Y-55300278D01*
X117600939Y-55242899D01*
X117654205Y-55207356D01*
X117882252Y-55129945D01*
X118152718Y-54996566D01*
X118403461Y-54829025D01*
X118630189Y-54630189D01*
X118829025Y-54403461D01*
X118996566Y-54152718D01*
X119129945Y-53882252D01*
X119226880Y-53596691D01*
X119285713Y-53300920D01*
X119305436Y-53000000D01*
X119285713Y-52699080D01*
X119226880Y-52403309D01*
X119129945Y-52117748D01*
X118996566Y-51847282D01*
X118829025Y-51596539D01*
X118630189Y-51369811D01*
X118403461Y-51170975D01*
X118400079Y-51168715D01*
X118156092Y-51005688D01*
X118156087Y-51005685D01*
X118152718Y-51003434D01*
X118149082Y-51001641D01*
X118149077Y-51001638D01*
X117885894Y-50871851D01*
X117885893Y-50871850D01*
X117882252Y-50870055D01*
X117596691Y-50773120D01*
X117592714Y-50772329D01*
X117592707Y-50772327D01*
X117304899Y-50715078D01*
X117304891Y-50715077D01*
X117300920Y-50714287D01*
X117000000Y-50694564D01*
X116995957Y-50694829D01*
X116703122Y-50714022D01*
X116703120Y-50714022D01*
X116699080Y-50714287D01*
X116695110Y-50715076D01*
X116695100Y-50715078D01*
X116407292Y-50772327D01*
X116407281Y-50772329D01*
X116403309Y-50773120D01*
X116399466Y-50774424D01*
X116399464Y-50774425D01*
X116121594Y-50868749D01*
X116121587Y-50868751D01*
X116117748Y-50870055D01*
X116114111Y-50871848D01*
X116114105Y-50871851D01*
X115850922Y-51001638D01*
X115850910Y-51001644D01*
X115847282Y-51003434D01*
X115843919Y-51005681D01*
X115843907Y-51005688D01*
X115599920Y-51168715D01*
X115599911Y-51168721D01*
X115596539Y-51170975D01*
X115593488Y-51173650D01*
X115593481Y-51173656D01*
X115372859Y-51367137D01*
X115372851Y-51367144D01*
X115369811Y-51369811D01*
X115367144Y-51372851D01*
X115367137Y-51372859D01*
X115173656Y-51593481D01*
X115173650Y-51593488D01*
X115170975Y-51596539D01*
X115168721Y-51599911D01*
X115168715Y-51599920D01*
X115005688Y-51843907D01*
X115005681Y-51843919D01*
X115003434Y-51847282D01*
X115001644Y-51850910D01*
X115001638Y-51850922D01*
X114871851Y-52114105D01*
X114871848Y-52114111D01*
X114870055Y-52117748D01*
X114773120Y-52403309D01*
X114772329Y-52407281D01*
X114772327Y-52407292D01*
X114715078Y-52695100D01*
X114715076Y-52695110D01*
X114714287Y-52699080D01*
X114694564Y-53000000D01*
X114714287Y-53300920D01*
X114715077Y-53304891D01*
X114715078Y-53304899D01*
X114772327Y-53592707D01*
X114772329Y-53592714D01*
X114773120Y-53596691D01*
X114870055Y-53882252D01*
X115003434Y-54152718D01*
X115170975Y-54403461D01*
X115369811Y-54630189D01*
X115596539Y-54829025D01*
X115847282Y-54996566D01*
X116117748Y-55129945D01*
X116403309Y-55226880D01*
X116472471Y-55240637D01*
X116490985Y-55244320D01*
X116545820Y-55270382D01*
X116581710Y-55319351D01*
X116590051Y-55379488D01*
X116568844Y-55436377D01*
X116479445Y-55565893D01*
X116479442Y-55565897D01*
X116475182Y-55572070D01*
X116472523Y-55579081D01*
X116472520Y-55579087D01*
X116417520Y-55724111D01*
X116417517Y-55724119D01*
X116414860Y-55731128D01*
X116413956Y-55738570D01*
X116413955Y-55738576D01*
X116407390Y-55792647D01*
X116394355Y-55900000D01*
X116395259Y-55907445D01*
X116413955Y-56061423D01*
X116413956Y-56061427D01*
X116414860Y-56068872D01*
X116417518Y-56075882D01*
X116417520Y-56075888D01*
X116472520Y-56220912D01*
X116475182Y-56227930D01*
X116479444Y-56234105D01*
X116479445Y-56234106D01*
X116563792Y-56356304D01*
X116571817Y-56367929D01*
X116657729Y-56444040D01*
X116688575Y-56485962D01*
X116699500Y-56536853D01*
X116699500Y-59682745D01*
X116690061Y-59730198D01*
X116663181Y-59770426D01*
X105734513Y-70699094D01*
X105718851Y-70714755D01*
X105718846Y-70714761D01*
X105711950Y-70721658D01*
X105707520Y-70730349D01*
X105707515Y-70730358D01*
X105701890Y-70741398D01*
X105691731Y-70757976D01*
X105684442Y-70768009D01*
X105684437Y-70768018D01*
X105678704Y-70775910D01*
X105675690Y-70785184D01*
X105675685Y-70785195D01*
X105671854Y-70796987D01*
X105664412Y-70814954D01*
X105658783Y-70826000D01*
X105658779Y-70826009D01*
X105654354Y-70834696D01*
X105652827Y-70844330D01*
X105652828Y-70844330D01*
X105650887Y-70856582D01*
X105646347Y-70875492D01*
X105642515Y-70887285D01*
X105642514Y-70887288D01*
X105639500Y-70896567D01*
X105639500Y-70906327D01*
X105639500Y-114742745D01*
X105630061Y-114790198D01*
X105603181Y-114830426D01*
X101694513Y-118739094D01*
X101678851Y-118754755D01*
X101678846Y-118754761D01*
X101671950Y-118761658D01*
X101667520Y-118770349D01*
X101667515Y-118770358D01*
X101661890Y-118781398D01*
X101651731Y-118797976D01*
X101644442Y-118808009D01*
X101644437Y-118808018D01*
X101638704Y-118815910D01*
X101635690Y-118825184D01*
X101635685Y-118825195D01*
X101631854Y-118836987D01*
X101624412Y-118854954D01*
X101618783Y-118866000D01*
X101618779Y-118866009D01*
X101614354Y-118874696D01*
X101612827Y-118884330D01*
X101612828Y-118884330D01*
X101610887Y-118896582D01*
X101606347Y-118915492D01*
X101602515Y-118927285D01*
X101602514Y-118927288D01*
X101599500Y-118936567D01*
X101599500Y-118968481D01*
X101599500Y-139836567D01*
X101599500Y-139963433D01*
X76402960Y-139963433D01*
X84105484Y-132260909D01*
X84105486Y-132260905D01*
X84128050Y-132238342D01*
X84138107Y-132218602D01*
X84148271Y-132202016D01*
X84161296Y-132184090D01*
X84168143Y-132163014D01*
X84175586Y-132145045D01*
X84185646Y-132125304D01*
X84189111Y-132103423D01*
X84193656Y-132084496D01*
X84197485Y-132072712D01*
X84197485Y-132072711D01*
X84200500Y-132063433D01*
X84200500Y-131936567D01*
X84200500Y-131905926D01*
X84209939Y-131858473D01*
X84229491Y-131829210D01*
X84228282Y-131828282D01*
X84238490Y-131814978D01*
X84324536Y-131702841D01*
X84385044Y-131556762D01*
X84405682Y-131400000D01*
X84385044Y-131243238D01*
X84324536Y-131097159D01*
X84228282Y-130971718D01*
X84102841Y-130875464D01*
X84095333Y-130872354D01*
X83964271Y-130818066D01*
X83964268Y-130818065D01*
X83956762Y-130814956D01*
X83948708Y-130813895D01*
X83948702Y-130813894D01*
X83808059Y-130795379D01*
X83800000Y-130794318D01*
X83791941Y-130795379D01*
X83651297Y-130813894D01*
X83651289Y-130813896D01*
X83643238Y-130814956D01*
X83635733Y-130818064D01*
X83635728Y-130818066D01*
X83504666Y-130872354D01*
X83504662Y-130872355D01*
X83497159Y-130875464D01*
X83490714Y-130880408D01*
X83490711Y-130880411D01*
X83378164Y-130966771D01*
X83378160Y-130966774D01*
X83371718Y-130971718D01*
X83366774Y-130978160D01*
X83366771Y-130978164D01*
X83280411Y-131090711D01*
X83280408Y-131090714D01*
X83275464Y-131097159D01*
X83272355Y-131104662D01*
X83272354Y-131104666D01*
X83218066Y-131235728D01*
X83218064Y-131235733D01*
X83214956Y-131243238D01*
X83213896Y-131251289D01*
X83213894Y-131251297D01*
X83195702Y-131389482D01*
X83194318Y-131400000D01*
X83195379Y-131408059D01*
X83213894Y-131548702D01*
X83213895Y-131548708D01*
X83214956Y-131556762D01*
X83275464Y-131702841D01*
X83280411Y-131709288D01*
X83320109Y-131761024D01*
X83343849Y-131814978D01*
X83339994Y-131873798D01*
X83309414Y-131924191D01*
X49170426Y-166063181D01*
X49130198Y-166090061D01*
X49082745Y-166099500D01*
X42489806Y-166099500D01*
X42432180Y-166085296D01*
X42387756Y-166045940D01*
X42378183Y-166032071D01*
X42250852Y-165919266D01*
X42178187Y-165881128D01*
X42106866Y-165843695D01*
X42106862Y-165843693D01*
X42100225Y-165840210D01*
X42092947Y-165838416D01*
X42092944Y-165838415D01*
X41942337Y-165801294D01*
X41942332Y-165801293D01*
X41935056Y-165799500D01*
X41764944Y-165799500D01*
X41757668Y-165801293D01*
X41757662Y-165801294D01*
X41607055Y-165838415D01*
X41607050Y-165838416D01*
X41599775Y-165840210D01*
X41593140Y-165843692D01*
X41593133Y-165843695D01*
X41455791Y-165915779D01*
X41455788Y-165915780D01*
X41449148Y-165919266D01*
X41443537Y-165924236D01*
X41443531Y-165924241D01*
X41338510Y-166017282D01*
X41321817Y-166032071D01*
X41317562Y-166038235D01*
X41317557Y-166038241D01*
X41229445Y-166165893D01*
X41229442Y-166165897D01*
X41225182Y-166172070D01*
X41222523Y-166179081D01*
X41222520Y-166179087D01*
X41167520Y-166324111D01*
X41167517Y-166324119D01*
X41164860Y-166331128D01*
X41163956Y-166338570D01*
X41163955Y-166338576D01*
X41160029Y-166370912D01*
X41144355Y-166500000D01*
X37360559Y-166500000D01*
X37444818Y-166377930D01*
X37505140Y-166218872D01*
X37525645Y-166050000D01*
X37505140Y-165881128D01*
X37444818Y-165722070D01*
X37348183Y-165582071D01*
X37220852Y-165469266D01*
X37195823Y-165456129D01*
X37076866Y-165393695D01*
X37076862Y-165393693D01*
X37070225Y-165390210D01*
X37062947Y-165388416D01*
X37062944Y-165388415D01*
X36912337Y-165351294D01*
X36912332Y-165351293D01*
X36905056Y-165349500D01*
X36772610Y-165349500D01*
X36725157Y-165340061D01*
X36684929Y-165313181D01*
X36201819Y-164830071D01*
X36174939Y-164789843D01*
X36165500Y-164742390D01*
X36165500Y-163724969D01*
X36178013Y-163670686D01*
X36213027Y-163627358D01*
X36263474Y-163603731D01*
X36319174Y-163604572D01*
X36401669Y-163624904D01*
X36464944Y-163640500D01*
X36627556Y-163640500D01*
X36635056Y-163640500D01*
X36800225Y-163599790D01*
X36950852Y-163520734D01*
X37078183Y-163407929D01*
X37174818Y-163267930D01*
X37235140Y-163108872D01*
X37255645Y-162940000D01*
X37235140Y-162771128D01*
X37174818Y-162612070D01*
X37078183Y-162472071D01*
X36992270Y-162395959D01*
X36961425Y-162354038D01*
X36950500Y-162303147D01*
X36950500Y-149568493D01*
X36950499Y-149568469D01*
X36950499Y-149546327D01*
X36950499Y-149536567D01*
X36943652Y-149515495D01*
X36939111Y-149496578D01*
X36935646Y-149474696D01*
X36925583Y-149454946D01*
X36918142Y-149436983D01*
X36911296Y-149415910D01*
X36898275Y-149397989D01*
X36888105Y-149381394D01*
X36878050Y-149361658D01*
X36788342Y-149271950D01*
X36446819Y-148930426D01*
X36419939Y-148890198D01*
X36410500Y-148842745D01*
X36410500Y-139875919D01*
X36423013Y-139821636D01*
X36458027Y-139778308D01*
X36508474Y-139754681D01*
X36564175Y-139755522D01*
X36624944Y-139770500D01*
X36787556Y-139770500D01*
X36795056Y-139770500D01*
X36960225Y-139729790D01*
X37110852Y-139650734D01*
X37238183Y-139537929D01*
X37334818Y-139397930D01*
X37395140Y-139238872D01*
X37415645Y-139070000D01*
X37396910Y-138915705D01*
X37397529Y-138881533D01*
X37400500Y-138872393D01*
X37400500Y-138737607D01*
X37400500Y-131500000D01*
X49000000Y-131500000D01*
X49500000Y-141000000D01*
X51500000Y-141000000D01*
X51500000Y-142500000D01*
X50500000Y-145500000D01*
X50000000Y-159500000D01*
X52000000Y-159500000D01*
X54000000Y-158500000D01*
X54000000Y-154742897D01*
X54099148Y-154830734D01*
X54249775Y-154909790D01*
X54414944Y-154950500D01*
X54577556Y-154950500D01*
X54585056Y-154950500D01*
X54750225Y-154909790D01*
X54900852Y-154830734D01*
X55028183Y-154717929D01*
X55032286Y-154711984D01*
X55090501Y-154675171D01*
X55159499Y-154675171D01*
X55217713Y-154711984D01*
X55221817Y-154717929D01*
X55349148Y-154830734D01*
X55499775Y-154909790D01*
X55664944Y-154950500D01*
X55827556Y-154950500D01*
X55835056Y-154950500D01*
X56000225Y-154909790D01*
X56150852Y-154830734D01*
X56278183Y-154717929D01*
X56282286Y-154711984D01*
X56340501Y-154675171D01*
X56409499Y-154675171D01*
X56467713Y-154711984D01*
X56471817Y-154717929D01*
X56599148Y-154830734D01*
X56749775Y-154909790D01*
X56914944Y-154950500D01*
X57077556Y-154950500D01*
X57085056Y-154950500D01*
X57250225Y-154909790D01*
X57400852Y-154830734D01*
X57528183Y-154717929D01*
X57624818Y-154577930D01*
X57685140Y-154418872D01*
X57705645Y-154250000D01*
X57685140Y-154081128D01*
X57677844Y-154061891D01*
X57627479Y-153929087D01*
X57624818Y-153922070D01*
X57528183Y-153782071D01*
X57442270Y-153705959D01*
X57411425Y-153664038D01*
X57400500Y-153613147D01*
X57400500Y-149782235D01*
X57409939Y-149734782D01*
X57436819Y-149694554D01*
X80423983Y-126707390D01*
X104055484Y-103075889D01*
X104055486Y-103075885D01*
X104078050Y-103053322D01*
X104088107Y-103033582D01*
X104098271Y-103016996D01*
X104111296Y-102999070D01*
X104118143Y-102977994D01*
X104125586Y-102960025D01*
X104135646Y-102940284D01*
X104139111Y-102918403D01*
X104143656Y-102899476D01*
X104147485Y-102887692D01*
X104147485Y-102887691D01*
X104150500Y-102878413D01*
X104150500Y-102751547D01*
X104150500Y-27386853D01*
X104161425Y-27335962D01*
X104192270Y-27294040D01*
X104278183Y-27217929D01*
X104374818Y-27077930D01*
X104435140Y-26918872D01*
X104455645Y-26750000D01*
X104435140Y-26581128D01*
X104374818Y-26422070D01*
X104278183Y-26282071D01*
X104150852Y-26169266D01*
X104125823Y-26156129D01*
X104006866Y-26093695D01*
X104006862Y-26093693D01*
X104000225Y-26090210D01*
X103992947Y-26088416D01*
X103992944Y-26088415D01*
X103842337Y-26051294D01*
X103842332Y-26051293D01*
X103835056Y-26049500D01*
X103664944Y-26049500D01*
X103657668Y-26051293D01*
X103657662Y-26051294D01*
X103507055Y-26088415D01*
X103507050Y-26088416D01*
X103499775Y-26090210D01*
X103493140Y-26093692D01*
X103493133Y-26093695D01*
X103355791Y-26165779D01*
X103355788Y-26165780D01*
X103349148Y-26169266D01*
X103343537Y-26174236D01*
X103343531Y-26174241D01*
X103227433Y-26277095D01*
X103227430Y-26277098D01*
X103221817Y-26282071D01*
X103217712Y-26288017D01*
X103159498Y-26324828D01*
X103090502Y-26324828D01*
X103032287Y-26288017D01*
X103028183Y-26282071D01*
X102900852Y-26169266D01*
X102875823Y-26156129D01*
X102756866Y-26093695D01*
X102756862Y-26093693D01*
X102750225Y-26090210D01*
X102742947Y-26088416D01*
X102742944Y-26088415D01*
X102592337Y-26051294D01*
X102592332Y-26051293D01*
X102585056Y-26049500D01*
X102414944Y-26049500D01*
X102407668Y-26051293D01*
X102407662Y-26051294D01*
X102257055Y-26088415D01*
X102257050Y-26088416D01*
X102249775Y-26090210D01*
X102243140Y-26093692D01*
X102243133Y-26093695D01*
X102105791Y-26165779D01*
X102105788Y-26165780D01*
X102099148Y-26169266D01*
X102093537Y-26174236D01*
X102093531Y-26174241D01*
X101977433Y-26277095D01*
X101977430Y-26277098D01*
X101971817Y-26282071D01*
X101967712Y-26288017D01*
X101909498Y-26324828D01*
X101840502Y-26324828D01*
X101782287Y-26288017D01*
X101778183Y-26282071D01*
X101650852Y-26169266D01*
X101625823Y-26156129D01*
X101506866Y-26093695D01*
X101506862Y-26093693D01*
X101500225Y-26090210D01*
X101492947Y-26088416D01*
X101492944Y-26088415D01*
X101342337Y-26051294D01*
X101342332Y-26051293D01*
X101335056Y-26049500D01*
X101164944Y-26049500D01*
X101157668Y-26051293D01*
X101157662Y-26051294D01*
X101007055Y-26088415D01*
X101007050Y-26088416D01*
X100999775Y-26090210D01*
X100993140Y-26093692D01*
X100993133Y-26093695D01*
X100855791Y-26165779D01*
X100855788Y-26165780D01*
X100849148Y-26169266D01*
X100843537Y-26174236D01*
X100843531Y-26174241D01*
X100727430Y-26277098D01*
X100721817Y-26282071D01*
X100717562Y-26288235D01*
X100717557Y-26288241D01*
X100629445Y-26415893D01*
X100629442Y-26415897D01*
X100625182Y-26422070D01*
X100622523Y-26429081D01*
X100622520Y-26429087D01*
X100567520Y-26574111D01*
X100567517Y-26574119D01*
X100564860Y-26581128D01*
X100563956Y-26588570D01*
X100563955Y-26588576D01*
X100545356Y-26741755D01*
X100544355Y-26750000D01*
X100545259Y-26757445D01*
X100563955Y-26911423D01*
X100563956Y-26911427D01*
X100564860Y-26918872D01*
X100567518Y-26925882D01*
X100567520Y-26925888D01*
X100605904Y-27027098D01*
X100625182Y-27077930D01*
X100629444Y-27084105D01*
X100629445Y-27084106D01*
X100690162Y-27172070D01*
X100721817Y-27217929D01*
X100807729Y-27294040D01*
X100838575Y-27335962D01*
X100849500Y-27386853D01*
X100849500Y-103782745D01*
X100840061Y-103830198D01*
X100813181Y-103870426D01*
X89453892Y-115229714D01*
X89398786Y-115261678D01*
X89335081Y-115262062D01*
X89279593Y-115230765D01*
X89246967Y-115176047D01*
X89245935Y-115118968D01*
X89245140Y-115118872D01*
X89245362Y-115117043D01*
X89265645Y-114950000D01*
X89245140Y-114781128D01*
X89230583Y-114742745D01*
X89187479Y-114629087D01*
X89184818Y-114622070D01*
X89088183Y-114482071D01*
X88960852Y-114369266D01*
X88897373Y-114335949D01*
X88848883Y-114290304D01*
X88831000Y-114226154D01*
X88831000Y-90616755D01*
X88844515Y-90560460D01*
X88882115Y-90516437D01*
X88935602Y-90494282D01*
X88993318Y-90498824D01*
X89042681Y-90529074D01*
X98724879Y-100211272D01*
X98751275Y-100250349D01*
X98761173Y-100296455D01*
X98753141Y-100342922D01*
X98734860Y-100391128D01*
X98733957Y-100398563D01*
X98733956Y-100398568D01*
X98715360Y-100551718D01*
X98714355Y-100560000D01*
X98715259Y-100567445D01*
X98733955Y-100721423D01*
X98733956Y-100721427D01*
X98734860Y-100728872D01*
X98737518Y-100735882D01*
X98737520Y-100735888D01*
X98792520Y-100880912D01*
X98795182Y-100887930D01*
X98891817Y-101027929D01*
X99019148Y-101140734D01*
X99169775Y-101219790D01*
X99334944Y-101260500D01*
X99497556Y-101260500D01*
X99505056Y-101260500D01*
X99670225Y-101219790D01*
X99820852Y-101140734D01*
X99948183Y-101027929D01*
X100044818Y-100887930D01*
X100105140Y-100728872D01*
X100125645Y-100560000D01*
X100105140Y-100391128D01*
X100044818Y-100232070D01*
X99948183Y-100092071D01*
X99820852Y-99979266D01*
X99795823Y-99966129D01*
X99676866Y-99903695D01*
X99676862Y-99903693D01*
X99670225Y-99900210D01*
X99662946Y-99898416D01*
X99662944Y-99898415D01*
X99539728Y-99868045D01*
X99481722Y-99835329D01*
X89566819Y-89920426D01*
X89539939Y-89880198D01*
X89530500Y-89832745D01*
X89530500Y-31316853D01*
X89541425Y-31265962D01*
X89572270Y-31224040D01*
X89658183Y-31147929D01*
X89754818Y-31007930D01*
X89815140Y-30848872D01*
X89835645Y-30680000D01*
X89815140Y-30511128D01*
X89754818Y-30352070D01*
X89658183Y-30212071D01*
X89530852Y-30099266D01*
X89505823Y-30086129D01*
X89386866Y-30023695D01*
X89386862Y-30023693D01*
X89380225Y-30020210D01*
X89372947Y-30018416D01*
X89372944Y-30018415D01*
X89222337Y-29981294D01*
X89222332Y-29981293D01*
X89215056Y-29979500D01*
X89044944Y-29979500D01*
X89037668Y-29981293D01*
X89037662Y-29981294D01*
X88995333Y-29991727D01*
X88984674Y-29994355D01*
X88928975Y-29995196D01*
X88878527Y-29971569D01*
X88843513Y-29928241D01*
X88831000Y-29873958D01*
X88831000Y-29286755D01*
X88840439Y-29239302D01*
X88867319Y-29199074D01*
X89829572Y-28236819D01*
X89869800Y-28209939D01*
X89917253Y-28200500D01*
X90077556Y-28200500D01*
X90085056Y-28200500D01*
X90250225Y-28159790D01*
X90400852Y-28080734D01*
X90528183Y-27967929D01*
X90624818Y-27827930D01*
X90685140Y-27668872D01*
X90705645Y-27500000D01*
X90685140Y-27331128D01*
X90671073Y-27294037D01*
X90644094Y-27222898D01*
X90624818Y-27172070D01*
X90528183Y-27032071D01*
X90400852Y-26919266D01*
X90375823Y-26906129D01*
X90256866Y-26843695D01*
X90256862Y-26843693D01*
X90250225Y-26840210D01*
X90242947Y-26838416D01*
X90242944Y-26838415D01*
X90092337Y-26801294D01*
X90092332Y-26801293D01*
X90085056Y-26799500D01*
X89914944Y-26799500D01*
X89907668Y-26801293D01*
X89907662Y-26801294D01*
X89757055Y-26838415D01*
X89757050Y-26838416D01*
X89749775Y-26840210D01*
X89743140Y-26843692D01*
X89743133Y-26843695D01*
X89605791Y-26915779D01*
X89605788Y-26915780D01*
X89599148Y-26919266D01*
X89593537Y-26924236D01*
X89593531Y-26924241D01*
X89477430Y-27027098D01*
X89471817Y-27032071D01*
X89467562Y-27038235D01*
X89467557Y-27038241D01*
X89379445Y-27165893D01*
X89379442Y-27165897D01*
X89375182Y-27172070D01*
X89372523Y-27179081D01*
X89372520Y-27179087D01*
X89317520Y-27324111D01*
X89317517Y-27324119D01*
X89314860Y-27331128D01*
X89313956Y-27338570D01*
X89313955Y-27338576D01*
X89295356Y-27491755D01*
X89294355Y-27500000D01*
X89295259Y-27507445D01*
X89295259Y-27507447D01*
X89302154Y-27564240D01*
X89296275Y-27619635D01*
X89266739Y-27666866D01*
X88125016Y-28808591D01*
X88125013Y-28808594D01*
X88109351Y-28824255D01*
X88109346Y-28824261D01*
X88102450Y-28831158D01*
X88098020Y-28839849D01*
X88098015Y-28839858D01*
X88092390Y-28850898D01*
X88082231Y-28867476D01*
X88074942Y-28877509D01*
X88074937Y-28877518D01*
X88069204Y-28885410D01*
X88066190Y-28894684D01*
X88066185Y-28894695D01*
X88062354Y-28906487D01*
X88054912Y-28924454D01*
X88049283Y-28935500D01*
X88049279Y-28935509D01*
X88044854Y-28944196D01*
X88043327Y-28953830D01*
X88043328Y-28953830D01*
X88041387Y-28966082D01*
X88036847Y-28984992D01*
X88033015Y-28996785D01*
X88033014Y-28996788D01*
X88030000Y-29006067D01*
X88030000Y-29015827D01*
X88030000Y-114446063D01*
X88024385Y-114482954D01*
X88008050Y-114516503D01*
X87939445Y-114615893D01*
X87939442Y-114615897D01*
X87935182Y-114622070D01*
X87932523Y-114629081D01*
X87932520Y-114629087D01*
X87877520Y-114774111D01*
X87877517Y-114774119D01*
X87874860Y-114781128D01*
X87873956Y-114788570D01*
X87873955Y-114788576D01*
X87868874Y-114830426D01*
X87854355Y-114950000D01*
X87855259Y-114957445D01*
X87873955Y-115111423D01*
X87873956Y-115111427D01*
X87874860Y-115118872D01*
X87877518Y-115125882D01*
X87877520Y-115125888D01*
X87932520Y-115270912D01*
X87935182Y-115277930D01*
X87939444Y-115284105D01*
X87939445Y-115284106D01*
X88008050Y-115383497D01*
X88024385Y-115417046D01*
X88030000Y-115453937D01*
X88030000Y-115602244D01*
X88020561Y-115649697D01*
X87993681Y-115689925D01*
X58670425Y-145013181D01*
X58630197Y-145040061D01*
X58582744Y-145049500D01*
X58414944Y-145049500D01*
X58407668Y-145051293D01*
X58407662Y-145051294D01*
X58257055Y-145088415D01*
X58257050Y-145088416D01*
X58249775Y-145090210D01*
X58243140Y-145093692D01*
X58243133Y-145093695D01*
X58105791Y-145165779D01*
X58105788Y-145165780D01*
X58099148Y-145169266D01*
X58093537Y-145174236D01*
X58093531Y-145174241D01*
X57977430Y-145277098D01*
X57971817Y-145282071D01*
X57967562Y-145288235D01*
X57967557Y-145288241D01*
X57879445Y-145415893D01*
X57879442Y-145415897D01*
X57875182Y-145422070D01*
X57872523Y-145429081D01*
X57872520Y-145429087D01*
X57817520Y-145574111D01*
X57817517Y-145574119D01*
X57814860Y-145581128D01*
X57813956Y-145588570D01*
X57813955Y-145588576D01*
X57795356Y-145741755D01*
X57794355Y-145750000D01*
X57795259Y-145757445D01*
X57813955Y-145911423D01*
X57813956Y-145911427D01*
X57814860Y-145918872D01*
X57817518Y-145925882D01*
X57817520Y-145925888D01*
X57872520Y-146070912D01*
X57875182Y-146077930D01*
X57971817Y-146217929D01*
X58099148Y-146330734D01*
X58116325Y-146339749D01*
X58159673Y-146377573D01*
X58181286Y-146430888D01*
X58176513Y-146488220D01*
X58146379Y-146537226D01*
X56500000Y-148183606D01*
X56500000Y-141000000D01*
X59000000Y-135000000D01*
X64000000Y-132000000D01*
X64000000Y-124000000D01*
X55000000Y-124000000D01*
X52000000Y-125500000D01*
X49000000Y-127500000D01*
X49000000Y-131500000D01*
X37400500Y-131500000D01*
X37400500Y-127071512D01*
X37400500Y-127037607D01*
X37393039Y-127014646D01*
X37388495Y-126995719D01*
X37386245Y-126981511D01*
X37384719Y-126971874D01*
X37373754Y-126950356D01*
X37366310Y-126932383D01*
X37358849Y-126909419D01*
X37344657Y-126889886D01*
X37334489Y-126873293D01*
X37327959Y-126860477D01*
X37323528Y-126851780D01*
X37228220Y-126756472D01*
X36411818Y-125940070D01*
X36384939Y-125899843D01*
X36375500Y-125852390D01*
X36375500Y-116057292D01*
X36388013Y-116003009D01*
X36423027Y-115959681D01*
X36473475Y-115936054D01*
X36529173Y-115936894D01*
X36624944Y-115960500D01*
X36787556Y-115960500D01*
X36795056Y-115960500D01*
X36960225Y-115919790D01*
X37110852Y-115840734D01*
X37238183Y-115727929D01*
X37334818Y-115587930D01*
X37395140Y-115428872D01*
X37415645Y-115260000D01*
X37395140Y-115091128D01*
X37384633Y-115063424D01*
X37337479Y-114939087D01*
X37334818Y-114932070D01*
X37238183Y-114792071D01*
X37177269Y-114738106D01*
X37146425Y-114696186D01*
X37135500Y-114645295D01*
X37135500Y-102182367D01*
X37135500Y-102172607D01*
X37128039Y-102149646D01*
X37123495Y-102130719D01*
X37121245Y-102116511D01*
X37119719Y-102106874D01*
X37108754Y-102085356D01*
X37101310Y-102067383D01*
X37093849Y-102044419D01*
X37079653Y-102024880D01*
X37069491Y-102008296D01*
X37058528Y-101986780D01*
X36963220Y-101891472D01*
X36326819Y-101255071D01*
X36299939Y-101214843D01*
X36290500Y-101167390D01*
X36290500Y-92235919D01*
X36303013Y-92181636D01*
X36338027Y-92138308D01*
X36388474Y-92114681D01*
X36444175Y-92115522D01*
X36504944Y-92130500D01*
X36667556Y-92130500D01*
X36675056Y-92130500D01*
X36840225Y-92089790D01*
X36990852Y-92010734D01*
X37118183Y-91897929D01*
X37214818Y-91757930D01*
X37275140Y-91598872D01*
X37295645Y-91430000D01*
X37275140Y-91261128D01*
X37214818Y-91102070D01*
X37118183Y-90962071D01*
X37057269Y-90908106D01*
X37026425Y-90866186D01*
X37015500Y-90815295D01*
X37015500Y-86942363D01*
X37015500Y-86932607D01*
X37008039Y-86909645D01*
X37003495Y-86890718D01*
X36999719Y-86866874D01*
X36988757Y-86845362D01*
X36981310Y-86827380D01*
X36976865Y-86813700D01*
X36973850Y-86804419D01*
X36968115Y-86796526D01*
X36968114Y-86796523D01*
X36959651Y-86784874D01*
X36949488Y-86768288D01*
X36942959Y-86755476D01*
X36942958Y-86755475D01*
X36938528Y-86746780D01*
X36843220Y-86651472D01*
X32061819Y-81870071D01*
X32034939Y-81829843D01*
X32025500Y-81782390D01*
X32025500Y-77500000D01*
X33194564Y-77500000D01*
X33214287Y-77800920D01*
X33215077Y-77804891D01*
X33215078Y-77804899D01*
X33272327Y-78092707D01*
X33272329Y-78092714D01*
X33273120Y-78096691D01*
X33370055Y-78382252D01*
X33371850Y-78385893D01*
X33371851Y-78385894D01*
X33493522Y-78632620D01*
X33503434Y-78652718D01*
X33670975Y-78903461D01*
X33869811Y-79130189D01*
X34096539Y-79329025D01*
X34347282Y-79496566D01*
X34617748Y-79629945D01*
X34903309Y-79726880D01*
X34970623Y-79740269D01*
X35019538Y-79761732D01*
X35054888Y-79801786D01*
X35070107Y-79852995D01*
X35062368Y-79905855D01*
X35017521Y-80024108D01*
X35017518Y-80024117D01*
X35014860Y-80031128D01*
X35013956Y-80038570D01*
X35013955Y-80038576D01*
X34995356Y-80191755D01*
X34994355Y-80200000D01*
X34995259Y-80207442D01*
X34995259Y-80207445D01*
X35013955Y-80361423D01*
X35013956Y-80361427D01*
X35014860Y-80368872D01*
X35017518Y-80375882D01*
X35017520Y-80375888D01*
X35072520Y-80520912D01*
X35075182Y-80527930D01*
X35171817Y-80667929D01*
X35299148Y-80780734D01*
X35449775Y-80859790D01*
X35614944Y-80900500D01*
X35622444Y-80900500D01*
X35782745Y-80900500D01*
X35830198Y-80909939D01*
X35870426Y-80936819D01*
X62063181Y-107129573D01*
X62090061Y-107169801D01*
X62099500Y-107217254D01*
X62099500Y-113363147D01*
X62088575Y-113414038D01*
X62057729Y-113455959D01*
X61971817Y-113532071D01*
X61967562Y-113538235D01*
X61967557Y-113538241D01*
X61879445Y-113665893D01*
X61879442Y-113665897D01*
X61875182Y-113672070D01*
X61872523Y-113679081D01*
X61872520Y-113679087D01*
X61817520Y-113824111D01*
X61817517Y-113824119D01*
X61814860Y-113831128D01*
X61813956Y-113838570D01*
X61813955Y-113838576D01*
X61810029Y-113870912D01*
X61794355Y-114000000D01*
X61795259Y-114007445D01*
X61813955Y-114161423D01*
X61813956Y-114161427D01*
X61814860Y-114168872D01*
X61817518Y-114175882D01*
X61817520Y-114175888D01*
X61865012Y-114301114D01*
X61875182Y-114327930D01*
X61879444Y-114334105D01*
X61879445Y-114334106D01*
X61942303Y-114425172D01*
X61971817Y-114467929D01*
X62099148Y-114580734D01*
X62249775Y-114659790D01*
X62414944Y-114700500D01*
X62577556Y-114700500D01*
X62585056Y-114700500D01*
X62750225Y-114659790D01*
X62900852Y-114580734D01*
X63028183Y-114467929D01*
X63032285Y-114461985D01*
X63090496Y-114425172D01*
X63159494Y-114425170D01*
X63217711Y-114461981D01*
X63221817Y-114467929D01*
X63349148Y-114580734D01*
X63499775Y-114659790D01*
X63664944Y-114700500D01*
X63827556Y-114700500D01*
X63835056Y-114700500D01*
X64000225Y-114659790D01*
X64150852Y-114580734D01*
X64278183Y-114467929D01*
X64374818Y-114327930D01*
X64435140Y-114168872D01*
X64455645Y-114000000D01*
X64435140Y-113831128D01*
X64374818Y-113672070D01*
X64278183Y-113532071D01*
X64167270Y-113433811D01*
X64136425Y-113391890D01*
X64125500Y-113340999D01*
X64125500Y-83742367D01*
X64125500Y-83732607D01*
X64118039Y-83709646D01*
X64113495Y-83690719D01*
X64111245Y-83676511D01*
X64109719Y-83666874D01*
X64098754Y-83645356D01*
X64091310Y-83627383D01*
X64083849Y-83604419D01*
X64069658Y-83584887D01*
X64059491Y-83568297D01*
X64048528Y-83546780D01*
X63953220Y-83451472D01*
X63953217Y-83451470D01*
X50150042Y-69648295D01*
X36337087Y-55835339D01*
X36307550Y-55788105D01*
X36301673Y-55732707D01*
X36304741Y-55707447D01*
X36304741Y-55707445D01*
X36305645Y-55700000D01*
X36285140Y-55531128D01*
X36224818Y-55372070D01*
X36212550Y-55354298D01*
X36191852Y-55301438D01*
X36196882Y-55244889D01*
X36226588Y-55196509D01*
X36274736Y-55166441D01*
X36382252Y-55129945D01*
X36652718Y-54996566D01*
X36903461Y-54829025D01*
X37130189Y-54630189D01*
X37329025Y-54403461D01*
X37496566Y-54152718D01*
X37629945Y-53882252D01*
X37726880Y-53596691D01*
X37785713Y-53300920D01*
X37805436Y-53000000D01*
X37785713Y-52699080D01*
X37726880Y-52403309D01*
X37629945Y-52117748D01*
X37496566Y-51847282D01*
X37329025Y-51596539D01*
X37130189Y-51369811D01*
X36903461Y-51170975D01*
X36900079Y-51168715D01*
X36656092Y-51005688D01*
X36656087Y-51005685D01*
X36652718Y-51003434D01*
X36649082Y-51001641D01*
X36649077Y-51001638D01*
X36385894Y-50871851D01*
X36385893Y-50871850D01*
X36382252Y-50870055D01*
X36096691Y-50773120D01*
X36092714Y-50772329D01*
X36092707Y-50772327D01*
X35804899Y-50715078D01*
X35804891Y-50715077D01*
X35800920Y-50714287D01*
X35500000Y-50694564D01*
X35495957Y-50694829D01*
X35203122Y-50714022D01*
X35203120Y-50714022D01*
X35199080Y-50714287D01*
X35195110Y-50715076D01*
X35195100Y-50715078D01*
X34907292Y-50772327D01*
X34907281Y-50772329D01*
X34903309Y-50773120D01*
X34899466Y-50774424D01*
X34899464Y-50774425D01*
X34621594Y-50868749D01*
X34621587Y-50868751D01*
X34617748Y-50870055D01*
X34614111Y-50871848D01*
X34614105Y-50871851D01*
X34350922Y-51001638D01*
X34350910Y-51001644D01*
X34347282Y-51003434D01*
X34343919Y-51005681D01*
X34343907Y-51005688D01*
X34099920Y-51168715D01*
X34099911Y-51168721D01*
X34096539Y-51170975D01*
X34093488Y-51173650D01*
X34093481Y-51173656D01*
X33872859Y-51367137D01*
X33872851Y-51367144D01*
X33869811Y-51369811D01*
X33867144Y-51372851D01*
X33867137Y-51372859D01*
X33673656Y-51593481D01*
X33673650Y-51593488D01*
X33670975Y-51596539D01*
X33668721Y-51599911D01*
X33668715Y-51599920D01*
X33505688Y-51843907D01*
X33505681Y-51843919D01*
X33503434Y-51847282D01*
X33501644Y-51850910D01*
X33501638Y-51850922D01*
X33371851Y-52114105D01*
X33371848Y-52114111D01*
X33370055Y-52117748D01*
X33273120Y-52403309D01*
X33272329Y-52407281D01*
X33272327Y-52407292D01*
X33215078Y-52695100D01*
X33215076Y-52695110D01*
X33214287Y-52699080D01*
X33194564Y-53000000D01*
X33214287Y-53300920D01*
X33215077Y-53304891D01*
X33215078Y-53304899D01*
X33272327Y-53592707D01*
X33272329Y-53592714D01*
X33273120Y-53596691D01*
X33370055Y-53882252D01*
X33503434Y-54152718D01*
X33670975Y-54403461D01*
X33869811Y-54630189D01*
X34096539Y-54829025D01*
X34347282Y-54996566D01*
X34617748Y-55129945D01*
X34621596Y-55131251D01*
X34621598Y-55131252D01*
X34894135Y-55223766D01*
X34948459Y-55260527D01*
X34976429Y-55319857D01*
X34970219Y-55385155D01*
X34917521Y-55524108D01*
X34917518Y-55524117D01*
X34914860Y-55531128D01*
X34913956Y-55538570D01*
X34913955Y-55538576D01*
X34895356Y-55691755D01*
X34894355Y-55700000D01*
X34895259Y-55707445D01*
X34913955Y-55861423D01*
X34913956Y-55861427D01*
X34914860Y-55868872D01*
X34917518Y-55875882D01*
X34917520Y-55875888D01*
X34972520Y-56020912D01*
X34975182Y-56027930D01*
X35071817Y-56167929D01*
X35199148Y-56280734D01*
X35349775Y-56359790D01*
X35514944Y-56400500D01*
X35522444Y-56400500D01*
X35647390Y-56400500D01*
X35694843Y-56409939D01*
X35735071Y-56436819D01*
X63238181Y-83939928D01*
X63265061Y-83980156D01*
X63274500Y-84027609D01*
X63274500Y-113429591D01*
X63263575Y-113480483D01*
X63232726Y-113522406D01*
X63229898Y-113524911D01*
X63227432Y-113527096D01*
X63227429Y-113527098D01*
X63221817Y-113532071D01*
X63217712Y-113538017D01*
X63159498Y-113574828D01*
X63090502Y-113574828D01*
X63032287Y-113538017D01*
X63028183Y-113532071D01*
X62942270Y-113455959D01*
X62911425Y-113414038D01*
X62900500Y-113363147D01*
X62900500Y-106968493D01*
X62900499Y-106968469D01*
X62900499Y-106946327D01*
X62900499Y-106936567D01*
X62893652Y-106915495D01*
X62889111Y-106896578D01*
X62885646Y-106874696D01*
X62875583Y-106854946D01*
X62868142Y-106836983D01*
X62861296Y-106815910D01*
X62848275Y-106797989D01*
X62838105Y-106781394D01*
X62828050Y-106761658D01*
X62738342Y-106671950D01*
X36433259Y-80366866D01*
X36403722Y-80319633D01*
X36397844Y-80264240D01*
X36405645Y-80200000D01*
X36385140Y-80031128D01*
X36324818Y-79872070D01*
X36293567Y-79826796D01*
X36272869Y-79773932D01*
X36277901Y-79717384D01*
X36307608Y-79669004D01*
X36355756Y-79638938D01*
X36382252Y-79629945D01*
X36652718Y-79496566D01*
X36903461Y-79329025D01*
X37130189Y-79130189D01*
X37329025Y-78903461D01*
X37496566Y-78652718D01*
X37629945Y-78382252D01*
X37726880Y-78096691D01*
X37785713Y-77800920D01*
X37805436Y-77500000D01*
X37785713Y-77199080D01*
X37726880Y-76903309D01*
X37629945Y-76617748D01*
X37496566Y-76347282D01*
X37329025Y-76096539D01*
X37130189Y-75869811D01*
X36903461Y-75670975D01*
X36900079Y-75668715D01*
X36656092Y-75505688D01*
X36656087Y-75505685D01*
X36652718Y-75503434D01*
X36649082Y-75501641D01*
X36649077Y-75501638D01*
X36385894Y-75371851D01*
X36385893Y-75371850D01*
X36382252Y-75370055D01*
X36096691Y-75273120D01*
X36092714Y-75272329D01*
X36092707Y-75272327D01*
X35804899Y-75215078D01*
X35804891Y-75215077D01*
X35800920Y-75214287D01*
X35500000Y-75194564D01*
X35495957Y-75194829D01*
X35203122Y-75214022D01*
X35203120Y-75214022D01*
X35199080Y-75214287D01*
X35195110Y-75215076D01*
X35195100Y-75215078D01*
X34907292Y-75272327D01*
X34907281Y-75272329D01*
X34903309Y-75273120D01*
X34899466Y-75274424D01*
X34899464Y-75274425D01*
X34621594Y-75368749D01*
X34621587Y-75368751D01*
X34617748Y-75370055D01*
X34614111Y-75371848D01*
X34614105Y-75371851D01*
X34350922Y-75501638D01*
X34350910Y-75501644D01*
X34347282Y-75503434D01*
X34343919Y-75505681D01*
X34343907Y-75505688D01*
X34099920Y-75668715D01*
X34099911Y-75668721D01*
X34096539Y-75670975D01*
X34093488Y-75673650D01*
X34093481Y-75673656D01*
X33872859Y-75867137D01*
X33872851Y-75867144D01*
X33869811Y-75869811D01*
X33867144Y-75872851D01*
X33867137Y-75872859D01*
X33673656Y-76093481D01*
X33673650Y-76093488D01*
X33670975Y-76096539D01*
X33668721Y-76099911D01*
X33668715Y-76099920D01*
X33505688Y-76343907D01*
X33505681Y-76343919D01*
X33503434Y-76347282D01*
X33501644Y-76350910D01*
X33501638Y-76350922D01*
X33371851Y-76614105D01*
X33371848Y-76614111D01*
X33370055Y-76617748D01*
X33273120Y-76903309D01*
X33272329Y-76907281D01*
X33272327Y-76907292D01*
X33215078Y-77195100D01*
X33215076Y-77195110D01*
X33214287Y-77199080D01*
X33194564Y-77500000D01*
X32025500Y-77500000D01*
X32025500Y-70107610D01*
X32034939Y-70060157D01*
X32061819Y-70019929D01*
X35484928Y-66596819D01*
X35525156Y-66569939D01*
X35572609Y-66560500D01*
X35697556Y-66560500D01*
X35705056Y-66560500D01*
X35870225Y-66519790D01*
X35972874Y-66465914D01*
X36034245Y-66451768D01*
X36094650Y-66469594D01*
X36138506Y-66514795D01*
X36154500Y-66575711D01*
X36154500Y-67005295D01*
X36143575Y-67056186D01*
X36112730Y-67098106D01*
X36051817Y-67152071D01*
X36047562Y-67158235D01*
X36047557Y-67158241D01*
X35959445Y-67285893D01*
X35959442Y-67285897D01*
X35955182Y-67292070D01*
X35952523Y-67299081D01*
X35952520Y-67299087D01*
X35897520Y-67444111D01*
X35897517Y-67444119D01*
X35894860Y-67451128D01*
X35893956Y-67458570D01*
X35893955Y-67458576D01*
X35875356Y-67611755D01*
X35874355Y-67620000D01*
X35875259Y-67627445D01*
X35893955Y-67781423D01*
X35893956Y-67781427D01*
X35894860Y-67788872D01*
X35897518Y-67795882D01*
X35897520Y-67795888D01*
X35952520Y-67940912D01*
X35955182Y-67947930D01*
X36051817Y-68087929D01*
X36179148Y-68200734D01*
X36329775Y-68279790D01*
X36494944Y-68320500D01*
X36657556Y-68320500D01*
X36665056Y-68320500D01*
X36830225Y-68279790D01*
X36980852Y-68200734D01*
X37108183Y-68087929D01*
X37204818Y-67947930D01*
X37265140Y-67788872D01*
X37285645Y-67620000D01*
X37265140Y-67451128D01*
X37250611Y-67412819D01*
X37207479Y-67299087D01*
X37204818Y-67292070D01*
X37108183Y-67152071D01*
X37047269Y-67098106D01*
X37016425Y-67056186D01*
X37005500Y-67005295D01*
X37005500Y-61612367D01*
X37005500Y-61602607D01*
X36998039Y-61579646D01*
X36993495Y-61560719D01*
X36991245Y-61546511D01*
X36989719Y-61536874D01*
X36978754Y-61515356D01*
X36971310Y-61497383D01*
X36963849Y-61474419D01*
X36949653Y-61454880D01*
X36939491Y-61438296D01*
X36928528Y-61416780D01*
X36833220Y-61321472D01*
X36833219Y-61321471D01*
X32231819Y-56720071D01*
X32204939Y-56679843D01*
X32195500Y-56632390D01*
X32195500Y-46467610D01*
X32204939Y-46420157D01*
X32231819Y-46379929D01*
X34891747Y-43720000D01*
X36044355Y-43720000D01*
X36045259Y-43727445D01*
X36063955Y-43881423D01*
X36063956Y-43881427D01*
X36064860Y-43888872D01*
X36067518Y-43895882D01*
X36067520Y-43895888D01*
X36122520Y-44040912D01*
X36125182Y-44047930D01*
X36129444Y-44054105D01*
X36129445Y-44054106D01*
X36182460Y-44130912D01*
X36221817Y-44187929D01*
X36315768Y-44271162D01*
X36322662Y-44277270D01*
X36349148Y-44300734D01*
X36499775Y-44379790D01*
X36664944Y-44420500D01*
X36827556Y-44420500D01*
X36835056Y-44420500D01*
X37000225Y-44379790D01*
X37150852Y-44300734D01*
X37189288Y-44266682D01*
X37227541Y-44243558D01*
X37271512Y-44235500D01*
X40949628Y-44235500D01*
X41000517Y-44246424D01*
X41040248Y-44275657D01*
X41041817Y-44277929D01*
X41169148Y-44390734D01*
X41319775Y-44469790D01*
X41484944Y-44510500D01*
X41647556Y-44510500D01*
X41655056Y-44510500D01*
X41820225Y-44469790D01*
X41970852Y-44390734D01*
X42098183Y-44277929D01*
X42194818Y-44137930D01*
X42255140Y-43978872D01*
X42275645Y-43810000D01*
X42255140Y-43641128D01*
X42194818Y-43482070D01*
X42127470Y-43384500D01*
X42102442Y-43348241D01*
X42102441Y-43348240D01*
X42098183Y-43342071D01*
X41970852Y-43229266D01*
X41913346Y-43199084D01*
X41826866Y-43153695D01*
X41826862Y-43153693D01*
X41820225Y-43150210D01*
X41812947Y-43148416D01*
X41812944Y-43148415D01*
X41662337Y-43111294D01*
X41662332Y-43111293D01*
X41655056Y-43109500D01*
X41484944Y-43109500D01*
X41477668Y-43111293D01*
X41477662Y-43111294D01*
X41327055Y-43148415D01*
X41327050Y-43148416D01*
X41319775Y-43150210D01*
X41313140Y-43153692D01*
X41313133Y-43153695D01*
X41175791Y-43225779D01*
X41175788Y-43225780D01*
X41169148Y-43229266D01*
X41163537Y-43234236D01*
X41163531Y-43234241D01*
X41047432Y-43337096D01*
X41047429Y-43337098D01*
X41041817Y-43342071D01*
X41040248Y-43344342D01*
X41000517Y-43373576D01*
X40949628Y-43384500D01*
X37434673Y-43384500D01*
X37377048Y-43370297D01*
X37332624Y-43330942D01*
X37278183Y-43252071D01*
X37167139Y-43153695D01*
X37156468Y-43144241D01*
X37156466Y-43144239D01*
X37150852Y-43139266D01*
X37110779Y-43118234D01*
X37006866Y-43063695D01*
X37006862Y-43063693D01*
X37000225Y-43060210D01*
X36992947Y-43058416D01*
X36992944Y-43058415D01*
X36842337Y-43021294D01*
X36842332Y-43021293D01*
X36835056Y-43019500D01*
X36664944Y-43019500D01*
X36657668Y-43021293D01*
X36657662Y-43021294D01*
X36507055Y-43058415D01*
X36507050Y-43058416D01*
X36499775Y-43060210D01*
X36493140Y-43063692D01*
X36493133Y-43063695D01*
X36355791Y-43135779D01*
X36355788Y-43135780D01*
X36349148Y-43139266D01*
X36343537Y-43144236D01*
X36343531Y-43144241D01*
X36227430Y-43247098D01*
X36221817Y-43252071D01*
X36217562Y-43258235D01*
X36217557Y-43258241D01*
X36129445Y-43385893D01*
X36129442Y-43385897D01*
X36125182Y-43392070D01*
X36122523Y-43399081D01*
X36122520Y-43399087D01*
X36067520Y-43544111D01*
X36067517Y-43544119D01*
X36064860Y-43551128D01*
X36063956Y-43558570D01*
X36063955Y-43558576D01*
X36045356Y-43711755D01*
X36044355Y-43720000D01*
X34891747Y-43720000D01*
X35864928Y-42746819D01*
X35905156Y-42719939D01*
X35952609Y-42710500D01*
X36077556Y-42710500D01*
X36085056Y-42710500D01*
X36250225Y-42669790D01*
X36400852Y-42590734D01*
X36528183Y-42477929D01*
X36624818Y-42337930D01*
X36685140Y-42178872D01*
X36705645Y-42010000D01*
X36685140Y-41841128D01*
X36624818Y-41682070D01*
X36528183Y-41542071D01*
X36400852Y-41429266D01*
X36375823Y-41416129D01*
X36256866Y-41353695D01*
X36256862Y-41353693D01*
X36250225Y-41350210D01*
X36242947Y-41348416D01*
X36242944Y-41348415D01*
X36092337Y-41311294D01*
X36092332Y-41311293D01*
X36085056Y-41309500D01*
X35914944Y-41309500D01*
X35907668Y-41311293D01*
X35907662Y-41311294D01*
X35757055Y-41348415D01*
X35757050Y-41348416D01*
X35749775Y-41350210D01*
X35743140Y-41353692D01*
X35743133Y-41353695D01*
X35605791Y-41425779D01*
X35605788Y-41425780D01*
X35599148Y-41429266D01*
X35593537Y-41434236D01*
X35593531Y-41434241D01*
X35477430Y-41537098D01*
X35471817Y-41542071D01*
X35467562Y-41548235D01*
X35467557Y-41548241D01*
X35379445Y-41675893D01*
X35379442Y-41675897D01*
X35375182Y-41682070D01*
X35372523Y-41689081D01*
X35372520Y-41689087D01*
X35317520Y-41834111D01*
X35317517Y-41834119D01*
X35314860Y-41841128D01*
X35313956Y-41848570D01*
X35313955Y-41848576D01*
X35301242Y-41953279D01*
X35294355Y-42010000D01*
X35295259Y-42017445D01*
X35295259Y-42017450D01*
X35298326Y-42042715D01*
X35292447Y-42098109D01*
X35262911Y-42145339D01*
X31516780Y-45891472D01*
X31428371Y-45979880D01*
X31428368Y-45979883D01*
X31421472Y-45986780D01*
X31417043Y-45995471D01*
X31417043Y-45995472D01*
X31410509Y-46008295D01*
X31400347Y-46024877D01*
X31391887Y-46036521D01*
X31391881Y-46036530D01*
X31386151Y-46044419D01*
X31383137Y-46053692D01*
X31383135Y-46053698D01*
X31378687Y-46067388D01*
X31371244Y-46085357D01*
X31364710Y-46098180D01*
X31364708Y-46098183D01*
X31360281Y-46106874D01*
X31358754Y-46116509D01*
X31358755Y-46116509D01*
X31356503Y-46130726D01*
X31351963Y-46149636D01*
X31347515Y-46163327D01*
X31344500Y-46172607D01*
X31344500Y-46206512D01*
X31344500Y-56792607D01*
X31344500Y-56927393D01*
X31347512Y-56936664D01*
X31347514Y-56936673D01*
X31351962Y-56950360D01*
X31356504Y-56969279D01*
X31360281Y-56993126D01*
X31364709Y-57001816D01*
X31364710Y-57001819D01*
X31371243Y-57014639D01*
X31378688Y-57032614D01*
X31386151Y-57055581D01*
X31391889Y-57063478D01*
X31400342Y-57075113D01*
X31410507Y-57091700D01*
X31421472Y-57113220D01*
X31428372Y-57120120D01*
X36118181Y-61809929D01*
X36145061Y-61850157D01*
X36154500Y-61897610D01*
X36154500Y-65144289D01*
X36138506Y-65205205D01*
X36094650Y-65250406D01*
X36034245Y-65268232D01*
X35972874Y-65254085D01*
X35876866Y-65203695D01*
X35876862Y-65203693D01*
X35870225Y-65200210D01*
X35862947Y-65198416D01*
X35862944Y-65198415D01*
X35712337Y-65161294D01*
X35712332Y-65161293D01*
X35705056Y-65159500D01*
X35534944Y-65159500D01*
X35527668Y-65161293D01*
X35527662Y-65161294D01*
X35377055Y-65198415D01*
X35377050Y-65198416D01*
X35369775Y-65200210D01*
X35363140Y-65203692D01*
X35363133Y-65203695D01*
X35225791Y-65275779D01*
X35225788Y-65275780D01*
X35219148Y-65279266D01*
X35213537Y-65284236D01*
X35213531Y-65284241D01*
X35097430Y-65387098D01*
X35091817Y-65392071D01*
X35087562Y-65398235D01*
X35087557Y-65398241D01*
X34999445Y-65525893D01*
X34999442Y-65525897D01*
X34995182Y-65532070D01*
X34992523Y-65539081D01*
X34992520Y-65539087D01*
X34937520Y-65684111D01*
X34937517Y-65684119D01*
X34934860Y-65691128D01*
X34933956Y-65698570D01*
X34933955Y-65698576D01*
X34927566Y-65751195D01*
X34914355Y-65860000D01*
X34915259Y-65867445D01*
X34915259Y-65867450D01*
X34918326Y-65892715D01*
X34912447Y-65948109D01*
X34882911Y-65995339D01*
X31346780Y-69531472D01*
X31258371Y-69619880D01*
X31258368Y-69619883D01*
X31251472Y-69626780D01*
X31247043Y-69635471D01*
X31247043Y-69635472D01*
X31240509Y-69648295D01*
X31230347Y-69664877D01*
X31221887Y-69676521D01*
X31221881Y-69676530D01*
X31216151Y-69684419D01*
X31213137Y-69693692D01*
X31213135Y-69693698D01*
X31208687Y-69707388D01*
X31201244Y-69725357D01*
X31194710Y-69738180D01*
X31194708Y-69738183D01*
X31190281Y-69746874D01*
X31188754Y-69756509D01*
X31188755Y-69756509D01*
X31186503Y-69770726D01*
X31181963Y-69789636D01*
X31177515Y-69803327D01*
X31174500Y-69812607D01*
X31174500Y-69846512D01*
X31174500Y-81942607D01*
X31174500Y-82077393D01*
X28500500Y-82077393D01*
X28500500Y-24142765D01*
X31145788Y-24142765D01*
X31146282Y-24147262D01*
X31146283Y-24147267D01*
X31174917Y-24407506D01*
X31174918Y-24407513D01*
X31175414Y-24412018D01*
X31176559Y-24416398D01*
X31176561Y-24416408D01*
X31208447Y-24538371D01*
X31243928Y-24674088D01*
X31245693Y-24678242D01*
X31245696Y-24678250D01*
X31348099Y-24919223D01*
X31349870Y-24923390D01*
X31352226Y-24927251D01*
X31352229Y-24927256D01*
X31488618Y-25150737D01*
X31490982Y-25154610D01*
X31664255Y-25362820D01*
X31667630Y-25365844D01*
X31667631Y-25365845D01*
X31861234Y-25539314D01*
X31865998Y-25543582D01*
X32091910Y-25693044D01*
X32337176Y-25808020D01*
X32596569Y-25886060D01*
X32864561Y-25925500D01*
X33065369Y-25925500D01*
X33067631Y-25925500D01*
X33270156Y-25910677D01*
X33534553Y-25851780D01*
X33787558Y-25755014D01*
X34023777Y-25622441D01*
X34238177Y-25456888D01*
X34426186Y-25261881D01*
X34583799Y-25041579D01*
X34707656Y-24800675D01*
X34795118Y-24544305D01*
X34844319Y-24277933D01*
X34847420Y-24193092D01*
X68624500Y-24193092D01*
X68625262Y-24197906D01*
X68625263Y-24197912D01*
X68660685Y-24421557D01*
X68661447Y-24426368D01*
X68662950Y-24430996D01*
X68662951Y-24430997D01*
X68732925Y-24646356D01*
X68732928Y-24646363D01*
X68734432Y-24650992D01*
X68736639Y-24655324D01*
X68736643Y-24655333D01*
X68839447Y-24857097D01*
X68839451Y-24857103D01*
X68841657Y-24861433D01*
X68980483Y-25052510D01*
X69147490Y-25219517D01*
X69338567Y-25358343D01*
X69342899Y-25360550D01*
X69342902Y-25360552D01*
X69544666Y-25463356D01*
X69544669Y-25463357D01*
X69549008Y-25465568D01*
X69773632Y-25538553D01*
X70006908Y-25575500D01*
X70124901Y-25575500D01*
X70125000Y-25575500D01*
X70125500Y-25575500D01*
X82124500Y-25575500D01*
X82125099Y-25575500D01*
X82238214Y-25575500D01*
X82243092Y-25575500D01*
X82476368Y-25538553D01*
X82700992Y-25465568D01*
X82911433Y-25358343D01*
X83102510Y-25219517D01*
X83269517Y-25052510D01*
X83408343Y-24861433D01*
X83515568Y-24650992D01*
X83588553Y-24426368D01*
X83625500Y-24193092D01*
X83625500Y-24142765D01*
X117395788Y-24142765D01*
X117396282Y-24147262D01*
X117396283Y-24147267D01*
X117424917Y-24407506D01*
X117424918Y-24407513D01*
X117425414Y-24412018D01*
X117426559Y-24416398D01*
X117426561Y-24416408D01*
X117458447Y-24538371D01*
X117493928Y-24674088D01*
X117495693Y-24678242D01*
X117495696Y-24678250D01*
X117598099Y-24919223D01*
X117599870Y-24923390D01*
X117602226Y-24927251D01*
X117602229Y-24927256D01*
X117738618Y-25150737D01*
X117740982Y-25154610D01*
X117914255Y-25362820D01*
X117917630Y-25365844D01*
X117917631Y-25365845D01*
X118111234Y-25539314D01*
X118115998Y-25543582D01*
X118341910Y-25693044D01*
X118587176Y-25808020D01*
X118846569Y-25886060D01*
X119114561Y-25925500D01*
X119315369Y-25925500D01*
X119317631Y-25925500D01*
X119520156Y-25910677D01*
X119784553Y-25851780D01*
X120037558Y-25755014D01*
X120273777Y-25622441D01*
X120488177Y-25456888D01*
X120676186Y-25261881D01*
X120833799Y-25041579D01*
X120957656Y-24800675D01*
X121045118Y-24544305D01*
X121094319Y-24277933D01*
X121104212Y-24007235D01*
X121074586Y-23737982D01*
X121006072Y-23475912D01*
X120900130Y-23226610D01*
X120759018Y-22995390D01*
X120585745Y-22787180D01*
X120582368Y-22784154D01*
X120387382Y-22609446D01*
X120387378Y-22609442D01*
X120384002Y-22606418D01*
X120158090Y-22456956D01*
X120153996Y-22455036D01*
X120153991Y-22455034D01*
X119916929Y-22343904D01*
X119916925Y-22343902D01*
X119912824Y-22341980D01*
X119908477Y-22340672D01*
X119908474Y-22340671D01*
X119657772Y-22265246D01*
X119657771Y-22265245D01*
X119653431Y-22263940D01*
X119648957Y-22263281D01*
X119648950Y-22263280D01*
X119389913Y-22225158D01*
X119389907Y-22225157D01*
X119385439Y-22224500D01*
X119182369Y-22224500D01*
X119180120Y-22224664D01*
X119180109Y-22224665D01*
X118984363Y-22238992D01*
X118984359Y-22238992D01*
X118979844Y-22239323D01*
X118975426Y-22240307D01*
X118975420Y-22240308D01*
X118719877Y-22297232D01*
X118719861Y-22297236D01*
X118715447Y-22298220D01*
X118711216Y-22299838D01*
X118711210Y-22299840D01*
X118466673Y-22393367D01*
X118466663Y-22393371D01*
X118462442Y-22394986D01*
X118458494Y-22397201D01*
X118458489Y-22397204D01*
X118230176Y-22525340D01*
X118230171Y-22525343D01*
X118226223Y-22527559D01*
X118222639Y-22530325D01*
X118222635Y-22530329D01*
X118015407Y-22690343D01*
X118015394Y-22690354D01*
X118011823Y-22693112D01*
X118008685Y-22696366D01*
X118008678Y-22696373D01*
X117826958Y-22884857D01*
X117826952Y-22884864D01*
X117823814Y-22888119D01*
X117821189Y-22891787D01*
X117821179Y-22891800D01*
X117668834Y-23104740D01*
X117668830Y-23104745D01*
X117666201Y-23108421D01*
X117664132Y-23112444D01*
X117664129Y-23112450D01*
X117544416Y-23345293D01*
X117544411Y-23345304D01*
X117542344Y-23349325D01*
X117540884Y-23353602D01*
X117540879Y-23353616D01*
X117456348Y-23601395D01*
X117456344Y-23601407D01*
X117454882Y-23605695D01*
X117454057Y-23610159D01*
X117454057Y-23610161D01*
X117406504Y-23867606D01*
X117406502Y-23867619D01*
X117405681Y-23872067D01*
X117405515Y-23876593D01*
X117405515Y-23876599D01*
X117398166Y-24077707D01*
X117395788Y-24142765D01*
X83625500Y-24142765D01*
X83625500Y-23956908D01*
X83588553Y-23723632D01*
X83515568Y-23499008D01*
X83509453Y-23487007D01*
X83410552Y-23292902D01*
X83410550Y-23292899D01*
X83408343Y-23288567D01*
X83269517Y-23097490D01*
X83102510Y-22930483D01*
X82911433Y-22791657D01*
X82907103Y-22789451D01*
X82907097Y-22789447D01*
X82705333Y-22686643D01*
X82705324Y-22686639D01*
X82700992Y-22684432D01*
X82696363Y-22682928D01*
X82696356Y-22682925D01*
X82480997Y-22612951D01*
X82480996Y-22612950D01*
X82476368Y-22611447D01*
X82444616Y-22606418D01*
X82247912Y-22575263D01*
X82247906Y-22575262D01*
X82243092Y-22574500D01*
X82125099Y-22574500D01*
X70125500Y-22574500D01*
X70125000Y-22574500D01*
X70006908Y-22574500D01*
X70002094Y-22575262D01*
X70002087Y-22575263D01*
X69778442Y-22610685D01*
X69778439Y-22610685D01*
X69773632Y-22611447D01*
X69769006Y-22612949D01*
X69769002Y-22612951D01*
X69553643Y-22682925D01*
X69553631Y-22682929D01*
X69549008Y-22684432D01*
X69544680Y-22686637D01*
X69544666Y-22686643D01*
X69342902Y-22789447D01*
X69342890Y-22789454D01*
X69338567Y-22791657D01*
X69334633Y-22794514D01*
X69334630Y-22794517D01*
X69151434Y-22927617D01*
X69151430Y-22927620D01*
X69147490Y-22930483D01*
X69144045Y-22933927D01*
X69144039Y-22933933D01*
X68983933Y-23094039D01*
X68983927Y-23094045D01*
X68980483Y-23097490D01*
X68977620Y-23101430D01*
X68977617Y-23101434D01*
X68844517Y-23284630D01*
X68841657Y-23288567D01*
X68839454Y-23292890D01*
X68839447Y-23292902D01*
X68736643Y-23494666D01*
X68736637Y-23494680D01*
X68734432Y-23499008D01*
X68732929Y-23503631D01*
X68732925Y-23503643D01*
X68674700Y-23682843D01*
X68661447Y-23723632D01*
X68660685Y-23728439D01*
X68660685Y-23728442D01*
X68625263Y-23952087D01*
X68625262Y-23952094D01*
X68624500Y-23956908D01*
X68624500Y-24193092D01*
X34847420Y-24193092D01*
X34854212Y-24007235D01*
X34824586Y-23737982D01*
X34756072Y-23475912D01*
X34650130Y-23226610D01*
X34509018Y-22995390D01*
X34335745Y-22787180D01*
X34332368Y-22784154D01*
X34137382Y-22609446D01*
X34137378Y-22609442D01*
X34134002Y-22606418D01*
X33908090Y-22456956D01*
X33903996Y-22455036D01*
X33903991Y-22455034D01*
X33666929Y-22343904D01*
X33666925Y-22343902D01*
X33662824Y-22341980D01*
X33658477Y-22340672D01*
X33658474Y-22340671D01*
X33407772Y-22265246D01*
X33407771Y-22265245D01*
X33403431Y-22263940D01*
X33398957Y-22263281D01*
X33398950Y-22263280D01*
X33139913Y-22225158D01*
X33139907Y-22225157D01*
X33135439Y-22224500D01*
X32932369Y-22224500D01*
X32930120Y-22224664D01*
X32930109Y-22224665D01*
X32734363Y-22238992D01*
X32734359Y-22238992D01*
X32729844Y-22239323D01*
X32725426Y-22240307D01*
X32725420Y-22240308D01*
X32469877Y-22297232D01*
X32469861Y-22297236D01*
X32465447Y-22298220D01*
X32461216Y-22299838D01*
X32461210Y-22299840D01*
X32216673Y-22393367D01*
X32216663Y-22393371D01*
X32212442Y-22394986D01*
X32208494Y-22397201D01*
X32208489Y-22397204D01*
X31980176Y-22525340D01*
X31980171Y-22525343D01*
X31976223Y-22527559D01*
X31972639Y-22530325D01*
X31972635Y-22530329D01*
X31765407Y-22690343D01*
X31765394Y-22690354D01*
X31761823Y-22693112D01*
X31758685Y-22696366D01*
X31758678Y-22696373D01*
X31576958Y-22884857D01*
X31576952Y-22884864D01*
X31573814Y-22888119D01*
X31571189Y-22891787D01*
X31571179Y-22891800D01*
X31418834Y-23104740D01*
X31418830Y-23104745D01*
X31416201Y-23108421D01*
X31414132Y-23112444D01*
X31414129Y-23112450D01*
X31294416Y-23345293D01*
X31294411Y-23345304D01*
X31292344Y-23349325D01*
X31290884Y-23353602D01*
X31290879Y-23353616D01*
X31206348Y-23601395D01*
X31206344Y-23601407D01*
X31204882Y-23605695D01*
X31204057Y-23610159D01*
X31204057Y-23610161D01*
X31156504Y-23867606D01*
X31156502Y-23867619D01*
X31155681Y-23872067D01*
X31155515Y-23876593D01*
X31155515Y-23876599D01*
X31148166Y-24077707D01*
X31145788Y-24142765D01*
X28500500Y-24142765D01*
X28500500Y-24077705D01*
X28500618Y-24072297D01*
X28503261Y-24011762D01*
X28509005Y-23880196D01*
X28518164Y-23682110D01*
X28519088Y-23671705D01*
X28545155Y-23473709D01*
X28545213Y-23473282D01*
X28571982Y-23281376D01*
X28573720Y-23271734D01*
X28617127Y-23075938D01*
X28617427Y-23074628D01*
X28661531Y-22887112D01*
X28663961Y-22878269D01*
X28724352Y-22686731D01*
X28724968Y-22684837D01*
X28786084Y-22502494D01*
X28789072Y-22494509D01*
X28866030Y-22308714D01*
X28867023Y-22306393D01*
X28944626Y-22130639D01*
X28948022Y-22123571D01*
X29040925Y-21945105D01*
X29042494Y-21942192D01*
X29135865Y-21774560D01*
X29139574Y-21768340D01*
X29247716Y-21598590D01*
X29249868Y-21595333D01*
X29358300Y-21437042D01*
X29362152Y-21431733D01*
X29484688Y-21272041D01*
X29487563Y-21268439D01*
X29610096Y-21120879D01*
X29613976Y-21116432D01*
X29749957Y-20968035D01*
X29753607Y-20964222D01*
X29889222Y-20828607D01*
X29893035Y-20824957D01*
X30041432Y-20688976D01*
X30045879Y-20685096D01*
X30072583Y-20662921D01*
X88595619Y-20662921D01*
X88597344Y-20671226D01*
X88597345Y-20671228D01*
X88624681Y-20802777D01*
X88624682Y-20802780D01*
X88626408Y-20811085D01*
X88630309Y-20818614D01*
X88630310Y-20818616D01*
X88658311Y-20872655D01*
X88696029Y-20945447D01*
X88701816Y-20951643D01*
X88701818Y-20951646D01*
X88793529Y-21049844D01*
X88793531Y-21049845D01*
X88799320Y-21056044D01*
X88806566Y-21060450D01*
X88806568Y-21060452D01*
X88898533Y-21116377D01*
X88928618Y-21134672D01*
X89074335Y-21175500D01*
X89183421Y-21175500D01*
X89187658Y-21175500D01*
X89299920Y-21160070D01*
X89438720Y-21099780D01*
X89556108Y-21004278D01*
X89643377Y-20880647D01*
X89694054Y-20738056D01*
X89699193Y-20662921D01*
X90295619Y-20662921D01*
X90297344Y-20671226D01*
X90297345Y-20671228D01*
X90324681Y-20802777D01*
X90324682Y-20802780D01*
X90326408Y-20811085D01*
X90330309Y-20818614D01*
X90330310Y-20818616D01*
X90358311Y-20872655D01*
X90396029Y-20945447D01*
X90401816Y-20951643D01*
X90401818Y-20951646D01*
X90493529Y-21049844D01*
X90493531Y-21049845D01*
X90499320Y-21056044D01*
X90506566Y-21060450D01*
X90506568Y-21060452D01*
X90598533Y-21116377D01*
X90628618Y-21134672D01*
X90774335Y-21175500D01*
X90883421Y-21175500D01*
X90887658Y-21175500D01*
X90999920Y-21160070D01*
X91138720Y-21099780D01*
X91256108Y-21004278D01*
X91343377Y-20880647D01*
X91394054Y-20738056D01*
X91404381Y-20587079D01*
X91373592Y-20438915D01*
X91303971Y-20304553D01*
X91255496Y-20252649D01*
X91206470Y-20200155D01*
X91206467Y-20200153D01*
X91200680Y-20193956D01*
X91193434Y-20189550D01*
X91193431Y-20189547D01*
X91078625Y-20119732D01*
X91078621Y-20119730D01*
X91071382Y-20115328D01*
X91063220Y-20113041D01*
X90933829Y-20076787D01*
X90933825Y-20076786D01*
X90925665Y-20074500D01*
X90812342Y-20074500D01*
X90808158Y-20075075D01*
X90808144Y-20075076D01*
X90708485Y-20088774D01*
X90708479Y-20088775D01*
X90700080Y-20089930D01*
X90692299Y-20093309D01*
X90692298Y-20093310D01*
X90569062Y-20146839D01*
X90569057Y-20146841D01*
X90561280Y-20150220D01*
X90554702Y-20155571D01*
X90554698Y-20155574D01*
X90450470Y-20240370D01*
X90450468Y-20240371D01*
X90443892Y-20245722D01*
X90439003Y-20252647D01*
X90439002Y-20252649D01*
X90389595Y-20322643D01*
X90356623Y-20369353D01*
X90353785Y-20377337D01*
X90353782Y-20377344D01*
X90308786Y-20503951D01*
X90308784Y-20503955D01*
X90305946Y-20511944D01*
X90305367Y-20520403D01*
X90305367Y-20520405D01*
X90296197Y-20654457D01*
X90296197Y-20654463D01*
X90295619Y-20662921D01*
X89699193Y-20662921D01*
X89704381Y-20587079D01*
X89673592Y-20438915D01*
X89603971Y-20304553D01*
X89555496Y-20252649D01*
X89506470Y-20200155D01*
X89506467Y-20200153D01*
X89500680Y-20193956D01*
X89493434Y-20189550D01*
X89493431Y-20189547D01*
X89378625Y-20119732D01*
X89378621Y-20119730D01*
X89371382Y-20115328D01*
X89363220Y-20113041D01*
X89233829Y-20076787D01*
X89233825Y-20076786D01*
X89225665Y-20074500D01*
X89112342Y-20074500D01*
X89108158Y-20075075D01*
X89108144Y-20075076D01*
X89008485Y-20088774D01*
X89008479Y-20088775D01*
X89000080Y-20089930D01*
X88992299Y-20093309D01*
X88992298Y-20093310D01*
X88869062Y-20146839D01*
X88869057Y-20146841D01*
X88861280Y-20150220D01*
X88854702Y-20155571D01*
X88854698Y-20155574D01*
X88750470Y-20240370D01*
X88750468Y-20240371D01*
X88743892Y-20245722D01*
X88739003Y-20252647D01*
X88739002Y-20252649D01*
X88689595Y-20322643D01*
X88656623Y-20369353D01*
X88653785Y-20377337D01*
X88653782Y-20377344D01*
X88608786Y-20503951D01*
X88608784Y-20503955D01*
X88605946Y-20511944D01*
X88605367Y-20520403D01*
X88605367Y-20520405D01*
X88596197Y-20654457D01*
X88596197Y-20654463D01*
X88595619Y-20662921D01*
X30072583Y-20662921D01*
X30193439Y-20562563D01*
X30197041Y-20559688D01*
X30356733Y-20437152D01*
X30362042Y-20433300D01*
X30520333Y-20324868D01*
X30523590Y-20322716D01*
X30693340Y-20214574D01*
X30699560Y-20210865D01*
X30867192Y-20117494D01*
X30870105Y-20115925D01*
X31048571Y-20023022D01*
X31055639Y-20019626D01*
X31231393Y-19942023D01*
X31233714Y-19941030D01*
X31419509Y-19864072D01*
X31427494Y-19861084D01*
X31609837Y-19799968D01*
X31611731Y-19799352D01*
X31803269Y-19738961D01*
X31812112Y-19736531D01*
X31999628Y-19692427D01*
X32000938Y-19692127D01*
X32196734Y-19648720D01*
X32206376Y-19646982D01*
X32398282Y-19620213D01*
X32398709Y-19620155D01*
X32596705Y-19594088D01*
X32607108Y-19593164D01*
X32805336Y-19583999D01*
X32997297Y-19575617D01*
X33002705Y-19575500D01*
X119247295Y-19575500D01*
X119252702Y-19575617D01*
G37*
%TD.AperFunction*%
%TD*%
%TA.AperFunction,Conductor*%
%TO.N,GND*%
G36*
X64000000Y-132000000D02*
G01*
X59000000Y-135000000D01*
X56500000Y-141000000D01*
X56500000Y-148183606D01*
X56183607Y-148500000D01*
X53000000Y-148500000D01*
X53000000Y-151500000D01*
X54000000Y-151500000D01*
X54000000Y-153757103D01*
X53971817Y-153782071D01*
X53967562Y-153788235D01*
X53967557Y-153788241D01*
X53879445Y-153915893D01*
X53879442Y-153915897D01*
X53875182Y-153922070D01*
X53872523Y-153929081D01*
X53872520Y-153929087D01*
X53817520Y-154074111D01*
X53817517Y-154074119D01*
X53814860Y-154081128D01*
X53813956Y-154088570D01*
X53813955Y-154088576D01*
X53795356Y-154241755D01*
X53794355Y-154250000D01*
X53795259Y-154257445D01*
X53813955Y-154411423D01*
X53813956Y-154411427D01*
X53814860Y-154418872D01*
X53817518Y-154425882D01*
X53817520Y-154425888D01*
X53862510Y-154544517D01*
X53875182Y-154577930D01*
X53971817Y-154717929D01*
X54000000Y-154742897D01*
X54000000Y-158500000D01*
X52000000Y-159500000D01*
X50000000Y-159500000D01*
X50500000Y-145500000D01*
X51500000Y-142500000D01*
X51500000Y-141000000D01*
X49500000Y-141000000D01*
X49000000Y-131500000D01*
X49000000Y-127500000D01*
X52000000Y-125500000D01*
X55000000Y-124000000D01*
X64000000Y-124000000D01*
X64000000Y-132000000D01*
G37*
%TD.AperFunction*%
%TD*%
M02*
